1600 0 7 0           
14 Cubit  (iGeom) 17 ACIS 16.0.7 Linux 24 Thu Dec  9 15:34:05 2010 
1 9.9999999999999995e-07 1e-10 
body $7 -1 -1 $-1 $8 $-1 $-1 F #
body $9 -1 -1 $-1 $10 $-1 $-1 T 0.5 -1 -1 2.5 1 1 #
body $11 -1 -1 $-1 $12 $-1 $-1 T -1 0.5 -1 1 2.5 1 #
body $13 -1 -1 $-1 $14 $-1 $-1 T -2.5 -1 -1 -0.5 1 1 #
body $15 -1 -1 $-1 $16 $-1 $-1 T -1 -2.5 -1 1 -0.5 1 #
body $17 -1 -1 $-1 $18 $-1 $-1 T -4 -4 -4 4 4 4 #
body $19 -1 -1 $-1 $20 $-1 $-1 T -4.7999999999999998 -4.7999999999999998 -4.7999999999999998 4.7999999999999998 4.7999999999999998 4.7999999999999998 #
simple-snl-attrib $-1 -1 $21 $-1 $0 1 1 1 1 1 1 1 1 1 1 1 1 0 1 0 1 1 1 @17 NEW_SIMPLE_ATTRIB 1 @9 ENTITY_ID 0 3 4 -2147483648 -1 #
lump $22 -1 -1 $-1 $-1 $23 $0 F #
simple-snl-attrib $-1 -1 $24 $-1 $1 1 1 1 1 1 1 1 1 1 1 1 1 0 1 0 1 1 1 @17 NEW_SIMPLE_ATTRIB 1 @9 ENTITY_ID 0 3 40 -2147483648 -1 #
lump $25 -1 -1 $-1 $-1 $26 $1 T 0.5 -1 -1 2.5 1 1 #
simple-snl-attrib $-1 -1 $27 $-1 $2 1 1 1 1 1 1 1 1 1 1 1 1 0 1 0 1 1 1 @17 NEW_SIMPLE_ATTRIB 1 @9 ENTITY_ID 0 3 43 -2147483648 -1 #
lump $28 -1 -1 $-1 $-1 $29 $2 T -1 0.5 -1 1 2.5 1 #
simple-snl-attrib $-1 -1 $30 $-1 $3 1 1 1 1 1 1 1 1 1 1 1 1 0 1 0 1 1 1 @17 NEW_SIMPLE_ATTRIB 1 @9 ENTITY_ID 0 3 46 -2147483648 -1 #
lump $31 -1 -1 $-1 $-1 $32 $3 T -2.5 -1 -1 -0.5 1 1 #
simple-snl-attrib $-1 -1 $33 $-1 $4 1 1 1 1 1 1 1 1 1 1 1 1 0 1 0 1 1 1 @17 NEW_SIMPLE_ATTRIB 1 @9 ENTITY_ID 0 3 49 -2147483648 -1 #
lump $34 -1 -1 $-1 $-1 $35 $4 T -1 -2.5 -1 1 -0.5 1 #
simple-snl-attrib $-1 -1 $36 $-1 $5 1 1 1 1 1 1 1 1 1 1 1 1 0 1 0 1 1 1 @17 NEW_SIMPLE_ATTRIB 1 @9 ENTITY_ID 0 3 52 -2147483648 -1 #
lump $37 -1 -1 $-1 $-1 $38 $5 T -4 -4 -4 4 4 4 #
simple-snl-attrib $-1 -1 $39 $-1 $6 1 1 1 1 1 1 1 1 1 1 1 1 0 1 0 1 1 1 @17 NEW_SIMPLE_ATTRIB 1 @9 ENTITY_ID 0 3 55 -2147483648 -1 #
lump $40 -1 -1 $-1 $-1 $41 $6 T -4.7999999999999998 -4.7999999999999998 -4.7999999999999998 4.7999999999999998 4.7999999999999998 4.7999999999999998 #
simple-snl-attrib $-1 -1 $-1 $7 $0 1 1 1 1 1 1 1 1 1 1 1 1 0 1 0 1 1 1 @17 NEW_SIMPLE_ATTRIB 2 @5 GROUP @9 graveyard 0 7 1 1 670421074 0 0 0 0 #
simple-snl-attrib $-1 -1 $-1 $-1 $8 1 1 1 1 1 1 1 1 1 1 1 1 0 1 0 1 1 1 @17 NEW_SIMPLE_ATTRIB 1 @9 ENTITY_ID 0 3 1 -2147483648 -1 #
shell $-1 -1 -1 $-1 $42 $-1 $43 $-1 $8 T -4.8959999999999999 -4.8959999999999999 -4.8959999999999999 4.8959999999999999 4.8959999999999999 4.8959999999999999 #
simple-snl-attrib $-1 -1 $44 $9 $1 1 1 1 1 1 1 1 1 1 1 1 1 0 1 0 1 1 1 @17 NEW_SIMPLE_ATTRIB 2 @5 GROUP @12 mat_1_rho_-1 0 7 1 2 1638480907 0 0 0 0 #
simple-snl-attrib $-1 -1 $-1 $-1 $10 1 1 1 1 1 1 1 1 1 1 1 1 0 1 0 1 1 1 @17 NEW_SIMPLE_ATTRIB 1 @9 ENTITY_ID 0 3 2 -2147483648 -1 #
shell $-1 -1 -1 $-1 $-1 $-1 $45 $-1 $10 T 0.5 -1 -1 2.5 1 1 #
simple-snl-attrib $-1 -1 $46 $11 $2 1 1 1 1 1 1 1 1 1 1 1 1 0 1 0 1 1 1 @17 NEW_SIMPLE_ATTRIB 2 @5 GROUP @12 mat_1_rho_-1 0 7 1 2 1638480907 1 0 0 0 #
simple-snl-attrib $-1 -1 $-1 $-1 $12 1 1 1 1 1 1 1 1 1 1 1 1 0 1 0 1 1 1 @17 NEW_SIMPLE_ATTRIB 1 @9 ENTITY_ID 0 3 3 -2147483648 -1 #
shell $-1 -1 -1 $-1 $-1 $-1 $47 $-1 $12 T -1 0.5 -1 1 2.5 1 #
simple-snl-attrib $-1 -1 $48 $13 $3 1 1 1 1 1 1 1 1 1 1 1 1 0 1 0 1 1 1 @17 NEW_SIMPLE_ATTRIB 2 @5 GROUP @12 mat_1_rho_-1 0 7 1 2 1638480907 2 0 0 0 #
simple-snl-attrib $-1 -1 $-1 $-1 $14 1 1 1 1 1 1 1 1 1 1 1 1 0 1 0 1 1 1 @17 NEW_SIMPLE_ATTRIB 1 @9 ENTITY_ID 0 3 4 -2147483648 -1 #
shell $-1 -1 -1 $-1 $-1 $-1 $49 $-1 $14 T -2.5 -1 -1 -0.5 1 1 #
simple-snl-attrib $-1 -1 $50 $15 $4 1 1 1 1 1 1 1 1 1 1 1 1 0 1 0 1 1 1 @17 NEW_SIMPLE_ATTRIB 2 @5 GROUP @12 mat_1_rho_-1 0 7 1 2 1638480907 3 0 0 0 #
simple-snl-attrib $-1 -1 $-1 $-1 $16 1 1 1 1 1 1 1 1 1 1 1 1 0 1 0 1 1 1 @17 NEW_SIMPLE_ATTRIB 1 @9 ENTITY_ID 0 3 5 -2147483648 -1 #
shell $-1 -1 -1 $-1 $-1 $-1 $51 $-1 $16 T -1 -2.5 -1 1 -0.5 1 #
simple-snl-attrib $-1 -1 $52 $17 $5 1 1 1 1 1 1 1 1 1 1 1 1 0 1 0 1 1 1 @17 NEW_SIMPLE_ATTRIB 2 @5 GROUP @12 mat_1_rho_-1 0 7 1 2 1638480907 4 0 0 0 #
simple-snl-attrib $-1 -1 $-1 $-1 $18 1 1 1 1 1 1 1 1 1 1 1 1 0 1 0 1 1 1 @17 NEW_SIMPLE_ATTRIB 1 @9 ENTITY_ID 0 3 6 -2147483648 -1 #
shell $-1 -1 -1 $-1 $53 $-1 $54 $-1 $18 T -4 -4 -4 4 4 4 #
simple-snl-attrib $-1 -1 $-1 $19 $6 1 1 1 1 1 1 1 1 1 1 1 1 0 1 0 1 1 1 @17 NEW_SIMPLE_ATTRIB 2 @11 ENTITY_NAME @9 MCNP_ID_6 0 0 #
simple-snl-attrib $-1 -1 $-1 $-1 $20 1 1 1 1 1 1 1 1 1 1 1 1 0 1 0 1 1 1 @17 NEW_SIMPLE_ATTRIB 1 @9 ENTITY_ID 0 3 7 -2147483648 -1 #
shell $-1 -1 -1 $-1 $55 $-1 $56 $-1 $20 T -4.7999999999999998 -4.7999999999999998 -4.7999999999999998 4.7999999999999998 4.7999999999999998 4.7999999999999998 #
shell $-1 -1 -1 $-1 $-1 $-1 $57 $-1 $8 T -4.7999999999999998 -4.7999999999999998 -4.7999999999999998 4.7999999999999998 4.7999999999999998 4.7999999999999998 #
face $58 -1 -1 $-1 $59 $60 $23 $-1 $61 forward single T -4.8959999999999999 -4.8959999999999999 4.8959999999999999 4.8959999999999999 4.8959999999999999 4.8959999999999999 F #
simple-snl-attrib $-1 -1 $-1 $24 $1 1 1 1 1 1 1 1 1 1 1 1 1 0 1 0 1 1 1 @17 NEW_SIMPLE_ATTRIB 2 @11 ENTITY_NAME @9 MCNP_ID_1 0 0 #
face $62 -1 -1 $-1 $-1 $-1 $26 $-1 $63 forward single T 0.5 -1 -1 2.5 1 1 F #
simple-snl-attrib $-1 -1 $-1 $27 $2 1 1 1 1 1 1 1 1 1 1 1 1 0 1 0 1 1 1 @17 NEW_SIMPLE_ATTRIB 2 @11 ENTITY_NAME @9 MCNP_ID_2 0 0 #
face $64 -1 -1 $-1 $-1 $-1 $29 $-1 $65 forward single T -1 0.5 -1 1 2.5 1 F #
simple-snl-attrib $-1 -1 $-1 $30 $3 1 1 1 1 1 1 1 1 1 1 1 1 0 1 0 1 1 1 @17 NEW_SIMPLE_ATTRIB 2 @11 ENTITY_NAME @9 MCNP_ID_3 0 0 #
face $66 -1 -1 $-1 $-1 $-1 $32 $-1 $67 forward single T -2.5 -1 -1 -0.5 1 1 F #
simple-snl-attrib $-1 -1 $-1 $33 $4 1 1 1 1 1 1 1 1 1 1 1 1 0 1 0 1 1 1 @17 NEW_SIMPLE_ATTRIB 2 @11 ENTITY_NAME @9 MCNP_ID_4 0 0 #
face $68 -1 -1 $-1 $-1 $-1 $35 $-1 $69 forward single T -1 -2.5 -1 1 -0.5 1 F #
simple-snl-attrib $-1 -1 $-1 $36 $5 1 1 1 1 1 1 1 1 1 1 1 1 0 1 0 1 1 1 @17 NEW_SIMPLE_ATTRIB 2 @11 ENTITY_NAME @9 MCNP_ID_5 0 0 #
shell $-1 -1 -1 $-1 $70 $-1 $71 $-1 $18 T -1 0.5 -1 1 2.5 1 #
face $72 -1 -1 $-1 $-1 $-1 $38 $-1 $73 forward single T -4 -4 -4 4 4 4 F #
shell $-1 -1 -1 $-1 $-1 $-1 $74 $-1 $20 T -4 -4 -4 4 4 4 #
face $75 -1 -1 $-1 $76 $77 $41 $-1 $78 forward single T -4.7999999999999998 -4.7999999999999998 4.7999999999999998 4.7999999999999998 4.7999999999999998 4.7999999999999998 F #
face $79 -1 -1 $-1 $80 $81 $42 $-1 $82 reversed single T -4.7999999999999998 -4.7999999999999998 4.7999999999999998 4.7999999999999998 4.7999999999999998 4.7999999999999998 F #
simple-snl-attrib $-1 -1 $-1 $-1 $43 1 1 1 1 1 1 1 1 1 1 1 1 0 1 0 1 1 1 @17 NEW_SIMPLE_ATTRIB 1 @9 ENTITY_ID 0 3 1 -2147483648 -1 #
face $83 -1 -1 $-1 $84 $85 $23 $-1 $86 reversed single T -4.8959999999999999 -4.8959999999999999 -4.8959999999999999 4.8959999999999999 4.8959999999999999 -4.8959999999999999 F #
loop $-1 -1 -1 $-1 $-1 $87 $43 T -4.8959999999999999 -4.8959999999999999 4.8959999999999999 4.8959999999999999 4.8959999999999999 4.8959999999999999 unknown #
plane-surface $-1 -1 -1 $-1 0 0 4.8959999999999999 0 0 1 1 0 0 forward_v I I I I #
simple-snl-attrib $-1 -1 $88 $-1 $45 1 1 1 1 1 1 1 1 1 1 1 1 0 1 0 1 1 1 @17 NEW_SIMPLE_ATTRIB 1 @9 UNIQUE_ID 1 0 1 1082745714 #
sphere-surface $-1 -1 -1 $-1 1.5 0 0 1 1 0 0 0 0 1 forward_v I I I I #
simple-snl-attrib $-1 -1 $89 $-1 $47 1 1 1 1 1 1 1 1 1 1 1 1 0 1 0 1 1 1 @17 NEW_SIMPLE_ATTRIB 1 @9 UNIQUE_ID 1 0 1 173233748 #
sphere-surface $-1 -1 -1 $-1 0 1.5 0 1 1 0 0 0 0 1 forward_v I I I I #
simple-snl-attrib $-1 -1 $90 $-1 $49 1 1 1 1 1 1 1 1 1 1 1 1 0 1 0 1 1 1 @17 NEW_SIMPLE_ATTRIB 1 @9 UNIQUE_ID 1 0 1 1787866670 #
sphere-surface $-1 -1 -1 $-1 -1.5 0 0 1 1 0 0 0 0 1 forward_v I I I I #
simple-snl-attrib $-1 -1 $91 $-1 $51 1 1 1 1 1 1 1 1 1 1 1 1 0 1 0 1 1 1 @17 NEW_SIMPLE_ATTRIB 1 @9 UNIQUE_ID 1 0 1 1903788818 #
sphere-surface $-1 -1 -1 $-1 0 -1.5 0 1 1 0 0 0 0 1 forward_v I I I I #
shell $-1 -1 -1 $-1 $92 $-1 $93 $-1 $18 T -1 -2.5 -1 1 -0.5 1 #
face $94 -1 -1 $-1 $-1 $-1 $53 $-1 $95 reversed single T -1 0.5 -1 1 2.5 1 F #
simple-snl-attrib $-1 -1 $96 $-1 $54 1 1 1 1 1 1 1 1 1 1 1 1 0 1 0 1 1 1 @17 NEW_SIMPLE_ATTRIB 1 @9 UNIQUE_ID 1 0 1 16261253 #
sphere-surface $-1 -1 -1 $-1 0 0 0 4 1 0 0 0 0 1 forward_v I I I I #
face $97 -1 -1 $-1 $-1 $-1 $55 $-1 $98 reversed single T -4 -4 -4 4 4 4 F #
simple-snl-attrib $-1 -1 $-1 $-1 $56 1 1 1 1 1 1 1 1 1 1 1 1 0 1 0 1 1 1 @17 NEW_SIMPLE_ATTRIB 1 @9 ENTITY_ID 0 3 22 -2147483648 -1 #
face $99 -1 -1 $-1 $100 $101 $41 $-1 $102 reversed single T -4.7999999999999998 -4.7999999999999998 -4.7999999999999998 4.7999999999999998 4.7999999999999998 -4.7999999999999998 F #
loop $-1 -1 -1 $-1 $-1 $103 $56 T -4.7999999999999998 -4.7999999999999998 4.7999999999999998 4.7999999999999998 4.7999999999999998 4.7999999999999998 unknown #
plane-surface $-1 -1 -1 $-1 0 0 4.7999999999999998 0 0 1 1 0 0 forward_v I I I I #
simple-snl-attrib $-1 -1 $-1 $-1 $57 1 1 1 1 1 1 1 1 1 1 1 1 0 1 0 1 1 1 @17 NEW_SIMPLE_ATTRIB 1 @9 ENTITY_ID 0 3 7 -2147483648 -1 #
face $104 -1 -1 $-1 $105 $106 $42 $-1 $107 forward single T -4.7999999999999998 -4.7999999999999998 -4.7999999999999998 4.7999999999999998 4.7999999999999998 -4.7999999999999998 F #
loop $-1 -1 -1 $-1 $-1 $108 $57 T -4.7999999999999998 -4.7999999999999998 4.7999999999999998 4.7999999999999998 4.7999999999999998 4.7999999999999998 unknown #
plane-surface $-1 -1 -1 $-1 0 0 4.7999999999999998 0 0 1 1 0 0 forward_v I I I I #
simple-snl-attrib $-1 -1 $-1 $-1 $59 1 1 1 1 1 1 1 1 1 1 1 1 0 1 0 1 1 1 @17 NEW_SIMPLE_ATTRIB 1 @9 ENTITY_ID 0 3 2 -2147483648 -1 #
face $109 -1 -1 $-1 $110 $111 $23 $-1 $112 reversed single T -4.8959999999999999 -4.8959999999999999 -4.8959999999999999 4.8959999999999999 -4.8959999999999999 4.8959999999999999 F #
loop $-1 -1 -1 $-1 $-1 $113 $59 T -4.8959999999999999 -4.8959999999999999 -4.8959999999999999 4.8959999999999999 4.8959999999999999 -4.8959999999999999 unknown #
plane-surface $-1 -1 -1 $-1 0 0 -4.8959999999999999 0 0 1 1 0 0 forward_v I I I I #
coedge $-1 -1 -1 $-1 $114 $115 $116 $117 forward $60 $-1 #
simple-snl-attrib $-1 -1 $118 $62 $45 1 1 1 1 1 1 1 1 1 1 1 1 0 1 0 1 1 1 @17 NEW_SIMPLE_ATTRIB 1 @9 ENTITY_ID 0 3 13 -2147483648 -1 #
simple-snl-attrib $-1 -1 $119 $64 $47 1 1 1 1 1 1 1 1 1 1 1 1 0 1 0 1 1 1 @17 NEW_SIMPLE_ATTRIB 1 @9 ENTITY_ID 0 3 14 -2147483648 -1 #
simple-snl-attrib $-1 -1 $120 $66 $49 1 1 1 1 1 1 1 1 1 1 1 1 0 1 0 1 1 1 @17 NEW_SIMPLE_ATTRIB 1 @9 ENTITY_ID 0 3 15 -2147483648 -1 #
simple-snl-attrib $-1 -1 $121 $68 $51 1 1 1 1 1 1 1 1 1 1 1 1 0 1 0 1 1 1 @17 NEW_SIMPLE_ATTRIB 1 @9 ENTITY_ID 0 3 16 -2147483648 -1 #
shell $-1 -1 -1 $-1 $122 $-1 $123 $-1 $18 T -2.5 -1 -1 -0.5 1 1 #
face $124 -1 -1 $-1 $-1 $-1 $70 $-1 $125 reversed single T -1 -2.5 -1 1 -0.5 1 F #
simple-snl-attrib $-1 -1 $126 $-1 $71 1 1 1 1 1 1 1 1 1 1 1 1 0 1 0 1 1 1 @17 NEW_SIMPLE_ATTRIB 1 @9 UNIQUE_ID 1 0 1 173233748 #
sphere-surface $-1 -1 -1 $-1 0 1.5 0 1 1 0 0 0 0 1 forward_v I I I I #
simple-snl-attrib $-1 -1 $127 $72 $54 1 1 1 1 1 1 1 1 1 1 1 1 0 1 0 1 1 1 @17 NEW_SIMPLE_ATTRIB 1 @9 ENTITY_ID 0 3 17 -2147483648 -1 #
simple-snl-attrib $-1 -1 $128 $-1 $74 1 1 1 1 1 1 1 1 1 1 1 1 0 1 0 1 1 1 @17 NEW_SIMPLE_ATTRIB 1 @9 UNIQUE_ID 1 0 1 16261253 #
sphere-surface $-1 -1 -1 $-1 0 0 0 4 1 0 0 0 0 1 forward_v I I I I #
simple-snl-attrib $-1 -1 $-1 $-1 $76 1 1 1 1 1 1 1 1 1 1 1 1 0 1 0 1 1 1 @17 NEW_SIMPLE_ATTRIB 1 @9 ENTITY_ID 0 3 23 -2147483648 -1 #
face $129 -1 -1 $-1 $130 $131 $41 $-1 $132 reversed single T -4.7999999999999998 -4.7999999999999998 -4.7999999999999998 4.7999999999999998 -4.7999999999999998 4.7999999999999998 F #
loop $-1 -1 -1 $-1 $-1 $133 $76 T -4.7999999999999998 -4.7999999999999998 -4.7999999999999998 4.7999999999999998 4.7999999999999998 -4.7999999999999998 unknown #
plane-surface $-1 -1 -1 $-1 0 0 -4.7999999999999998 0 0 1 1 0 0 forward_v I I I I #
coedge $-1 -1 -1 $-1 $134 $135 $136 $137 forward $77 $-1 #
simple-snl-attrib $-1 -1 $-1 $-1 $80 1 1 1 1 1 1 1 1 1 1 1 1 0 1 0 1 1 1 @17 NEW_SIMPLE_ATTRIB 1 @9 ENTITY_ID 0 3 8 -2147483648 -1 #
face $138 -1 -1 $-1 $139 $140 $42 $-1 $141 forward single T -4.7999999999999998 -4.7999999999999998 -4.7999999999999998 4.7999999999999998 -4.7999999999999998 4.7999999999999998 F #
loop $-1 -1 -1 $-1 $-1 $142 $80 T -4.7999999999999998 -4.7999999999999998 -4.7999999999999998 4.7999999999999998 4.7999999999999998 -4.7999999999999998 unknown #
plane-surface $-1 -1 -1 $-1 0 0 -4.7999999999999998 0 0 1 1 0 0 forward_v I I I I #
coedge $-1 -1 -1 $-1 $143 $144 $145 $146 reversed $81 $-1 #
simple-snl-attrib $-1 -1 $-1 $-1 $84 1 1 1 1 1 1 1 1 1 1 1 1 0 1 0 1 1 1 @17 NEW_SIMPLE_ATTRIB 1 @9 ENTITY_ID 0 3 3 -2147483648 -1 #
face $147 -1 -1 $-1 $148 $149 $23 $-1 $150 reversed single T -4.8959999999999999 -4.8959999999999999 -4.8959999999999999 -4.8959999999999999 4.8959999999999999 4.8959999999999999 F #
loop $-1 -1 -1 $-1 $-1 $151 $84 T -4.8959999999999999 -4.8959999999999999 -4.8959999999999999 4.8959999999999999 -4.8959999999999999 4.8959999999999999 unknown #
plane-surface $-1 -1 -1 $-1 0 -4.8959999999999999 0 0 1 -0 -0 0 1 forward_v I I I I #
coedge $-1 -1 -1 $-1 $152 $153 $154 $155 forward $85 $-1 #
coedge $-1 -1 -1 $-1 $156 $87 $157 $158 forward $60 $-1 #
coedge $-1 -1 -1 $-1 $87 $156 $159 $160 forward $60 $-1 #
coedge $-1 -1 -1 $-1 $161 $162 $87 $117 reversed $163 $-1 #
edge $164 -1 -1 $-1 $165 -4.8959999999999999 $166 4.8959999999999999 $116 $167 forward @7 unknown T 4.8959999999999999 -4.8959999999999999 4.8959999999999999 4.8959999999999999 4.8959999999999999 4.8959999999999999 #
simple-snl-attrib $-1 -1 $-1 $88 $45 1 1 1 1 1 1 1 1 1 1 1 1 0 1 0 1 1 1 @17 NEW_SIMPLE_ATTRIB 1 @13 MERGE_PARTNER 0 4 1082745714 1 102 1 #
simple-snl-attrib $-1 -1 $-1 $89 $47 1 1 1 1 1 1 1 1 1 1 1 1 0 1 0 1 1 1 @17 NEW_SIMPLE_ATTRIB 1 @13 MERGE_PARTNER 0 4 173233748 1 116 1 #
simple-snl-attrib $-1 -1 $-1 $90 $49 1 1 1 1 1 1 1 1 1 1 1 1 0 1 0 1 1 1 @17 NEW_SIMPLE_ATTRIB 1 @13 MERGE_PARTNER 0 4 1787866670 1 130 1 #
simple-snl-attrib $-1 -1 $-1 $91 $51 1 1 1 1 1 1 1 1 1 1 1 1 0 1 0 1 1 1 @17 NEW_SIMPLE_ATTRIB 1 @13 MERGE_PARTNER 0 4 1903788818 1 144 1 #
shell $-1 -1 -1 $-1 $-1 $-1 $168 $-1 $18 T 0.5 -1 -1 2.5 1 1 #
face $169 -1 -1 $-1 $-1 $-1 $92 $-1 $170 reversed single T -2.5 -1 -1 -0.5 1 1 F #
simple-snl-attrib $-1 -1 $171 $-1 $93 1 1 1 1 1 1 1 1 1 1 1 1 0 1 0 1 1 1 @17 NEW_SIMPLE_ATTRIB 1 @9 UNIQUE_ID 1 0 1 1903788818 #
sphere-surface $-1 -1 -1 $-1 0 -1.5 0 1 1 0 0 0 0 1 forward_v I I I I #
simple-snl-attrib $-1 -1 $172 $94 $71 1 1 1 1 1 1 1 1 1 1 1 1 0 1 0 1 1 1 @17 NEW_SIMPLE_ATTRIB 1 @9 ENTITY_ID 0 3 14 -2147483648 -1 #
simple-snl-attrib $-1 -1 $-1 $96 $54 1 1 1 1 1 1 1 1 1 1 1 1 0 1 0 1 1 1 @17 NEW_SIMPLE_ATTRIB 1 @13 MERGE_PARTNER 0 4 16261253 1 162 1 #
simple-snl-attrib $-1 -1 $173 $97 $74 1 1 1 1 1 1 1 1 1 1 1 1 0 1 0 1 1 1 @17 NEW_SIMPLE_ATTRIB 1 @9 ENTITY_ID 0 3 17 -2147483648 -1 #
simple-snl-attrib $-1 -1 $-1 $-1 $100 1 1 1 1 1 1 1 1 1 1 1 1 0 1 0 1 1 1 @17 NEW_SIMPLE_ATTRIB 1 @9 ENTITY_ID 0 3 24 -2147483648 -1 #
face $174 -1 -1 $-1 $175 $176 $41 $-1 $177 reversed single T -4.7999999999999998 -4.7999999999999998 -4.7999999999999998 -4.7999999999999998 4.7999999999999998 4.7999999999999998 F #
loop $-1 -1 -1 $-1 $-1 $178 $100 T -4.7999999999999998 -4.7999999999999998 -4.7999999999999998 4.7999999999999998 -4.7999999999999998 4.7999999999999998 unknown #
plane-surface $-1 -1 -1 $-1 0 -4.7999999999999998 0 0 1 -0 -0 0 1 forward_v I I I I #
coedge $-1 -1 -1 $-1 $179 $180 $181 $182 forward $101 $-1 #
coedge $-1 -1 -1 $-1 $183 $103 $184 $185 forward $77 $-1 #
coedge $-1 -1 -1 $-1 $103 $183 $186 $187 forward $77 $-1 #
coedge $-1 -1 -1 $-1 $188 $189 $103 $137 reversed $190 $-1 #
edge $191 -1 -1 $-1 $192 -4.7999999999999998 $193 4.7999999999999998 $136 $194 forward @7 unknown T 4.7999999999999998 -4.7999999999999998 4.7999999999999998 4.7999999999999998 4.7999999999999998 4.7999999999999998 #
simple-snl-attrib $-1 -1 $-1 $-1 $105 1 1 1 1 1 1 1 1 1 1 1 1 0 1 0 1 1 1 @17 NEW_SIMPLE_ATTRIB 1 @9 ENTITY_ID 0 3 9 -2147483648 -1 #
face $195 -1 -1 $-1 $196 $197 $42 $-1 $198 forward single T -4.7999999999999998 -4.7999999999999998 -4.7999999999999998 -4.7999999999999998 4.7999999999999998 4.7999999999999998 F #
loop $-1 -1 -1 $-1 $-1 $199 $105 T -4.7999999999999998 -4.7999999999999998 -4.7999999999999998 4.7999999999999998 -4.7999999999999998 4.7999999999999998 unknown #
plane-surface $-1 -1 -1 $-1 0 -4.7999999999999998 0 0 1 -0 -0 0 1 forward_v I I I I #
coedge $-1 -1 -1 $-1 $200 $201 $202 $203 reversed $106 $-1 #
coedge $-1 -1 -1 $-1 $204 $108 $205 $206 reversed $81 $-1 #
coedge $-1 -1 -1 $-1 $108 $204 $207 $208 reversed $81 $-1 #
coedge $-1 -1 -1 $-1 $209 $210 $108 $146 forward $211 $-1 #
edge $212 -1 -1 $-1 $213 -4.7999999999999998 $214 4.7999999999999998 $145 $215 forward @7 unknown T 4.7999999999999998 -4.7999999999999998 4.7999999999999998 4.7999999999999998 4.7999999999999998 4.7999999999999998 #
simple-snl-attrib $-1 -1 $-1 $-1 $110 1 1 1 1 1 1 1 1 1 1 1 1 0 1 0 1 1 1 @17 NEW_SIMPLE_ATTRIB 1 @9 ENTITY_ID 0 3 4 -2147483648 -1 #
face $216 -1 -1 $-1 $217 $218 $23 $-1 $219 reversed single T -4.8959999999999999 4.8959999999999999 -4.8959999999999999 4.8959999999999999 4.8959999999999999 4.8959999999999999 F #
loop $-1 -1 -1 $-1 $-1 $220 $110 T -4.8959999999999999 -4.8959999999999999 -4.8959999999999999 -4.8959999999999999 4.8959999999999999 4.8959999999999999 unknown #
plane-surface $-1 -1 -1 $-1 -4.8959999999999999 0 0 1 0 0 0 0 -1 forward_v I I I I #
coedge $-1 -1 -1 $-1 $221 $159 $222 $223 forward $111 $-1 #
coedge $-1 -1 -1 $-1 $224 $113 $221 $225 forward $85 $-1 #
coedge $-1 -1 -1 $-1 $113 $224 $226 $227 forward $85 $-1 #
coedge $-1 -1 -1 $-1 $162 $161 $113 $155 reversed $163 $-1 #
edge $228 -1 -1 $-1 $229 -4.8959999999999999 $230 4.8959999999999999 $154 $231 forward @7 unknown T 4.8959999999999999 -4.8959999999999999 -4.8959999999999999 4.8959999999999999 4.8959999999999999 -4.8959999999999999 #
coedge $-1 -1 -1 $-1 $115 $114 $232 $233 forward $60 $-1 #
coedge $-1 -1 -1 $-1 $234 $235 $114 $158 reversed $218 $-1 #
edge $236 -1 -1 $-1 $166 -4.8959999999999999 $237 4.8959999999999999 $157 $238 forward @7 unknown T -4.8959999999999999 4.8959999999999999 4.8959999999999999 4.8959999999999999 4.8959999999999999 4.8959999999999999 #
coedge $-1 -1 -1 $-1 $151 $239 $115 $160 reversed $111 $-1 #
edge $240 -1 -1 $-1 $241 -4.8959999999999999 $165 4.8959999999999999 $159 $242 forward @7 unknown T -4.8959999999999999 -4.8959999999999999 4.8959999999999999 4.8959999999999999 -4.8959999999999999 4.8959999999999999 #
coedge $-1 -1 -1 $-1 $154 $116 $239 $243 forward $163 $-1 #
coedge $-1 -1 -1 $-1 $116 $154 $234 $244 reversed $163 $-1 #
loop $-1 -1 -1 $-1 $-1 $161 $217 T 4.8959999999999999 -4.8959999999999999 -4.8959999999999999 4.8959999999999999 4.8959999999999999 4.8959999999999999 unknown #
simple-snl-attrib $-1 -1 $-1 $-1 $117 1 1 1 1 1 1 1 1 1 1 1 1 0 1 0 1 1 1 @17 NEW_SIMPLE_ATTRIB 1 @9 ENTITY_ID 0 3 37 -2147483648 -1 #
vertex $245 -1 -1 $-1 $117 $246 #
vertex $247 -1 -1 $-1 $117 $248 #
straight-curve $-1 -1 -1 $-1 4.8959999999999999 0 4.8959999999999999 0 1 0 I I #
face $249 -1 -1 $-1 $-1 $-1 $122 $-1 $250 reversed single T 0.5 -1 -1 2.5 1 1 F #
simple-snl-attrib $-1 -1 $251 $-1 $123 1 1 1 1 1 1 1 1 1 1 1 1 0 1 0 1 1 1 @17 NEW_SIMPLE_ATTRIB 1 @9 UNIQUE_ID 1 0 1 1787866670 #
sphere-surface $-1 -1 -1 $-1 -1.5 0 0 1 1 0 0 0 0 1 forward_v I I I I #
simple-snl-attrib $-1 -1 $252 $124 $93 1 1 1 1 1 1 1 1 1 1 1 1 0 1 0 1 1 1 @17 NEW_SIMPLE_ATTRIB 1 @9 ENTITY_ID 0 3 16 -2147483648 -1 #
simple-snl-attrib $-1 -1 $-1 $126 $71 1 1 1 1 1 1 1 1 1 1 1 1 0 1 0 1 1 1 @17 NEW_SIMPLE_ATTRIB 1 @13 MERGE_PARTNER 0 4 173233748 -1 18 0 #
simple-snl-attrib $-1 -1 $-1 $128 $74 1 1 1 1 1 1 1 1 1 1 1 1 0 1 0 1 1 1 @17 NEW_SIMPLE_ATTRIB 1 @13 MERGE_PARTNER 0 4 16261253 -1 28 0 #
simple-snl-attrib $-1 -1 $-1 $-1 $130 1 1 1 1 1 1 1 1 1 1 1 1 0 1 0 1 1 1 @17 NEW_SIMPLE_ATTRIB 1 @9 ENTITY_ID 0 3 25 -2147483648 -1 #
face $253 -1 -1 $-1 $254 $255 $41 $-1 $256 reversed single T -4.7999999999999998 4.7999999999999998 -4.7999999999999998 4.7999999999999998 4.7999999999999998 4.7999999999999998 F #
loop $-1 -1 -1 $-1 $-1 $257 $130 T -4.7999999999999998 -4.7999999999999998 -4.7999999999999998 -4.7999999999999998 4.7999999999999998 4.7999999999999998 unknown #
plane-surface $-1 -1 -1 $-1 -4.7999999999999998 0 0 1 0 0 0 0 -1 forward_v I I I I #
coedge $-1 -1 -1 $-1 $258 $186 $259 $260 forward $131 $-1 #
coedge $-1 -1 -1 $-1 $261 $133 $258 $262 forward $101 $-1 #
coedge $-1 -1 -1 $-1 $133 $261 $263 $264 forward $101 $-1 #
coedge $-1 -1 -1 $-1 $189 $188 $133 $182 reversed $190 $-1 #
edge $265 -1 -1 $-1 $266 -4.7999999999999998 $267 4.7999999999999998 $181 $268 forward @7 unknown T 4.7999999999999998 -4.7999999999999998 -4.7999999999999998 4.7999999999999998 4.7999999999999998 -4.7999999999999998 #
coedge $-1 -1 -1 $-1 $135 $134 $269 $270 forward $77 $-1 #
coedge $-1 -1 -1 $-1 $271 $272 $134 $185 reversed $255 $-1 #
edge $273 -1 -1 $-1 $193 -4.7999999999999998 $274 4.7999999999999998 $184 $275 forward @7 unknown T -4.7999999999999998 4.7999999999999998 4.7999999999999998 4.7999999999999998 4.7999999999999998 4.7999999999999998 #
coedge $-1 -1 -1 $-1 $178 $276 $135 $187 reversed $131 $-1 #
edge $277 -1 -1 $-1 $278 -4.7999999999999998 $192 4.7999999999999998 $186 $279 forward @7 unknown T -4.7999999999999998 -4.7999999999999998 4.7999999999999998 4.7999999999999998 -4.7999999999999998 4.7999999999999998 #
coedge $-1 -1 -1 $-1 $181 $136 $276 $280 forward $190 $-1 #
coedge $-1 -1 -1 $-1 $136 $181 $271 $281 reversed $190 $-1 #
loop $-1 -1 -1 $-1 $-1 $188 $254 T 4.7999999999999998 -4.7999999999999998 -4.7999999999999998 4.7999999999999998 4.7999999999999998 4.7999999999999998 unknown #
simple-snl-attrib $-1 -1 $-1 $-1 $137 1 1 1 1 1 1 1 1 1 1 1 1 0 1 0 1 1 1 @17 NEW_SIMPLE_ATTRIB 1 @9 ENTITY_ID 0 3 205 -2147483648 -1 #
vertex $282 -1 -1 $-1 $137 $283 #
vertex $284 -1 -1 $-1 $137 $285 #
straight-curve $-1 -1 -1 $-1 4.7999999999999998 0 4.7999999999999998 0 1 0 I I #
simple-snl-attrib $-1 -1 $-1 $-1 $139 1 1 1 1 1 1 1 1 1 1 1 1 0 1 0 1 1 1 @17 NEW_SIMPLE_ATTRIB 1 @9 ENTITY_ID 0 3 10 -2147483648 -1 #
face $286 -1 -1 $-1 $287 $288 $42 $-1 $289 forward single T -4.7999999999999998 4.7999999999999998 -4.7999999999999998 4.7999999999999998 4.7999999999999998 4.7999999999999998 F #
loop $-1 -1 -1 $-1 $-1 $290 $139 T -4.7999999999999998 -4.7999999999999998 -4.7999999999999998 -4.7999999999999998 4.7999999999999998 4.7999999999999998 unknown #
plane-surface $-1 -1 -1 $-1 -4.7999999999999998 0 0 1 0 0 0 0 -1 forward_v I I I I #
coedge $-1 -1 -1 $-1 $205 $291 $292 $293 reversed $140 $-1 #
coedge $-1 -1 -1 $-1 $294 $142 $295 $296 reversed $106 $-1 #
coedge $-1 -1 -1 $-1 $142 $294 $291 $297 reversed $106 $-1 #
coedge $-1 -1 -1 $-1 $210 $209 $142 $203 forward $211 $-1 #
edge $298 -1 -1 $-1 $299 -4.7999999999999998 $300 4.7999999999999998 $202 $301 forward @7 unknown T 4.7999999999999998 -4.7999999999999998 -4.7999999999999998 4.7999999999999998 4.7999999999999998 -4.7999999999999998 #
coedge $-1 -1 -1 $-1 $144 $143 $302 $303 reversed $81 $-1 #
coedge $-1 -1 -1 $-1 $304 $199 $143 $206 forward $140 $-1 #
edge $305 -1 -1 $-1 $306 -4.7999999999999998 $213 4.7999999999999998 $205 $307 forward @7 unknown T -4.7999999999999998 -4.7999999999999998 4.7999999999999998 4.7999999999999998 -4.7999999999999998 4.7999999999999998 #
coedge $-1 -1 -1 $-1 $308 $309 $144 $208 forward $288 $-1 #
edge $310 -1 -1 $-1 $214 -4.7999999999999998 $311 4.7999999999999998 $207 $312 forward @7 unknown T -4.7999999999999998 4.7999999999999998 4.7999999999999998 4.7999999999999998 4.7999999999999998 4.7999999999999998 #
coedge $-1 -1 -1 $-1 $202 $145 $309 $313 forward $211 $-1 #
coedge $-1 -1 -1 $-1 $145 $202 $304 $314 reversed $211 $-1 #
loop $-1 -1 -1 $-1 $-1 $210 $287 T 4.7999999999999998 -4.7999999999999998 -4.7999999999999998 4.7999999999999998 4.7999999999999998 4.7999999999999998 unknown #
simple-snl-attrib $-1 -1 $-1 $-1 $146 1 1 1 1 1 1 1 1 1 1 1 1 0 1 0 1 1 1 @17 NEW_SIMPLE_ATTRIB 1 @9 ENTITY_ID 0 3 61 -2147483648 -1 #
vertex $315 -1 -1 $-1 $146 $316 #
vertex $317 -1 -1 $-1 $146 $318 #
straight-curve $-1 -1 -1 $-1 4.7999999999999998 0 4.7999999999999998 0 1 0 I I #
simple-snl-attrib $-1 -1 $-1 $-1 $148 1 1 1 1 1 1 1 1 1 1 1 1 0 1 0 1 1 1 @17 NEW_SIMPLE_ATTRIB 1 @9 ENTITY_ID 0 3 5 -2147483648 -1 #
face $319 -1 -1 $-1 $-1 $163 $23 $-1 $320 reversed single T 4.8959999999999999 -4.8959999999999999 -4.8959999999999999 4.8959999999999999 4.8959999999999999 4.8959999999999999 F #
loop $-1 -1 -1 $-1 $-1 $234 $148 T -4.8959999999999999 4.8959999999999999 -4.8959999999999999 4.8959999999999999 4.8959999999999999 4.8959999999999999 unknown #
plane-surface $-1 -1 -1 $-1 0 4.8959999999999999 0 0 -1 0 0 0 -1 forward_v I I I I #
coedge $-1 -1 -1 $-1 $321 $232 $235 $322 forward $149 $-1 #
coedge $-1 -1 -1 $-1 $239 $151 $152 $225 reversed $111 $-1 #
coedge $-1 -1 -1 $-1 $232 $321 $151 $223 reversed $149 $-1 #
edge $323 -1 -1 $-1 $241 -4.8959999999999999 $324 4.8959999999999999 $222 $325 forward @7 unknown T -4.8959999999999999 -4.8959999999999999 -4.8959999999999999 -4.8959999999999999 -4.8959999999999999 4.8959999999999999 #
coedge $-1 -1 -1 $-1 $153 $152 $321 $326 forward $85 $-1 #
edge $327 -1 -1 $-1 $230 -4.8959999999999999 $324 4.8959999999999999 $221 $328 forward @7 unknown T -4.8959999999999999 -4.8959999999999999 -4.8959999999999999 4.8959999999999999 -4.8959999999999999 -4.8959999999999999 #
coedge $-1 -1 -1 $-1 $235 $234 $153 $227 reversed $218 $-1 #
edge $329 -1 -1 $-1 $330 -4.8959999999999999 $229 4.8959999999999999 $226 $331 forward @7 unknown T -4.8959999999999999 4.8959999999999999 -4.8959999999999999 4.8959999999999999 4.8959999999999999 -4.8959999999999999 #
simple-snl-attrib $-1 -1 $-1 $-1 $155 1 1 1 1 1 1 1 1 1 1 1 1 0 1 0 1 1 1 @17 NEW_SIMPLE_ATTRIB 1 @9 ENTITY_ID 0 3 41 -2147483648 -1 #
vertex $332 -1 -1 $-1 $155 $333 #
vertex $334 -1 -1 $-1 $243 $335 #
straight-curve $-1 -1 -1 $-1 4.8959999999999999 0 -4.8959999999999999 0 -1 0 I I #
coedge $-1 -1 -1 $-1 $220 $222 $156 $233 reversed $149 $-1 #
edge $336 -1 -1 $-1 $237 -4.8959999999999999 $241 4.8959999999999999 $232 $337 forward @7 unknown T -4.8959999999999999 -4.8959999999999999 4.8959999999999999 -4.8959999999999999 4.8959999999999999 4.8959999999999999 #
coedge $-1 -1 -1 $-1 $226 $157 $162 $244 forward $218 $-1 #
coedge $-1 -1 -1 $-1 $157 $226 $220 $322 reversed $218 $-1 #
simple-snl-attrib $-1 -1 $-1 $-1 $158 1 1 1 1 1 1 1 1 1 1 1 1 0 1 0 1 1 1 @17 NEW_SIMPLE_ATTRIB 1 @9 ENTITY_ID 0 3 38 -2147483648 -1 #
vertex $338 -1 -1 $-1 $158 $339 #
straight-curve $-1 -1 -1 $-1 0 4.8959999999999999 4.8959999999999999 -1 0 0 I I #
coedge $-1 -1 -1 $-1 $159 $221 $161 $243 reversed $111 $-1 #
simple-snl-attrib $-1 -1 $-1 $-1 $160 1 1 1 1 1 1 1 1 1 1 1 1 0 1 0 1 1 1 @17 NEW_SIMPLE_ATTRIB 1 @9 ENTITY_ID 0 3 40 -2147483648 -1 #
vertex $340 -1 -1 $-1 $233 $341 #
straight-curve $-1 -1 -1 $-1 0 -4.8959999999999999 4.8959999999999999 1 0 0 I I #
edge $342 -1 -1 $-1 $165 -4.8959999999999999 $230 4.8959999999999999 $161 $343 forward @7 unknown T 4.8959999999999999 -4.8959999999999999 -4.8959999999999999 4.8959999999999999 -4.8959999999999999 4.8959999999999999 #
edge $344 -1 -1 $-1 $166 -4.8959999999999999 $229 4.8959999999999999 $162 $345 forward @7 unknown T 4.8959999999999999 4.8959999999999999 -4.8959999999999999 4.8959999999999999 4.8959999999999999 4.8959999999999999 #
simple-snl-attrib $-1 -1 $-1 $-1 $165 1 1 1 1 1 1 1 1 1 1 1 1 0 1 0 1 1 1 @17 NEW_SIMPLE_ATTRIB 1 @9 ENTITY_ID 0 3 25 -2147483648 -1 #
point $-1 -1 -1 $-1 4.8959999999999999 -4.8959999999999999 4.8959999999999999 #
simple-snl-attrib $-1 -1 $-1 $-1 $166 1 1 1 1 1 1 1 1 1 1 1 1 0 1 0 1 1 1 @17 NEW_SIMPLE_ATTRIB 1 @9 ENTITY_ID 0 3 26 -2147483648 -1 #
point $-1 -1 -1 $-1 4.8959999999999999 4.8959999999999999 4.8959999999999999 #
simple-snl-attrib $-1 -1 $346 $-1 $168 1 1 1 1 1 1 1 1 1 1 1 1 0 1 0 1 1 1 @17 NEW_SIMPLE_ATTRIB 1 @9 UNIQUE_ID 1 0 1 1082745714 #
sphere-surface $-1 -1 -1 $-1 1.5 0 0 1 1 0 0 0 0 1 forward_v I I I I #
simple-snl-attrib $-1 -1 $347 $169 $123 1 1 1 1 1 1 1 1 1 1 1 1 0 1 0 1 1 1 @17 NEW_SIMPLE_ATTRIB 1 @9 ENTITY_ID 0 3 15 -2147483648 -1 #
simple-snl-attrib $-1 -1 $-1 $171 $93 1 1 1 1 1 1 1 1 1 1 1 1 0 1 0 1 1 1 @17 NEW_SIMPLE_ATTRIB 1 @13 MERGE_PARTNER 0 4 1903788818 -1 19 0 #
simple-snl-attrib $-1 -1 $-1 $-1 $175 1 1 1 1 1 1 1 1 1 1 1 1 0 1 0 1 1 1 @17 NEW_SIMPLE_ATTRIB 1 @9 ENTITY_ID 0 3 26 -2147483648 -1 #
face $348 -1 -1 $-1 $-1 $190 $41 $-1 $349 reversed single T 4.7999999999999998 -4.7999999999999998 -4.7999999999999998 4.7999999999999998 4.7999999999999998 4.7999999999999998 F #
loop $-1 -1 -1 $-1 $-1 $271 $175 T -4.7999999999999998 4.7999999999999998 -4.7999999999999998 4.7999999999999998 4.7999999999999998 4.7999999999999998 unknown #
plane-surface $-1 -1 -1 $-1 0 4.7999999999999998 0 0 -1 0 0 0 -1 forward_v I I I I #
coedge $-1 -1 -1 $-1 $350 $269 $272 $351 forward $176 $-1 #
coedge $-1 -1 -1 $-1 $276 $178 $179 $262 reversed $131 $-1 #
coedge $-1 -1 -1 $-1 $269 $350 $178 $260 reversed $176 $-1 #
edge $352 -1 -1 $-1 $278 -4.7999999999999998 $353 4.7999999999999998 $259 $354 forward @7 unknown T -4.7999999999999998 -4.7999999999999998 -4.7999999999999998 -4.7999999999999998 -4.7999999999999998 4.7999999999999998 #
coedge $-1 -1 -1 $-1 $180 $179 $350 $355 forward $101 $-1 #
edge $356 -1 -1 $-1 $267 -4.7999999999999998 $353 4.7999999999999998 $258 $357 forward @7 unknown T -4.7999999999999998 -4.7999999999999998 -4.7999999999999998 4.7999999999999998 -4.7999999999999998 -4.7999999999999998 #
coedge $-1 -1 -1 $-1 $272 $271 $180 $264 reversed $255 $-1 #
edge $358 -1 -1 $-1 $359 -4.7999999999999998 $266 4.7999999999999998 $263 $360 forward @7 unknown T -4.7999999999999998 4.7999999999999998 -4.7999999999999998 4.7999999999999998 4.7999999999999998 -4.7999999999999998 #
simple-snl-attrib $-1 -1 $-1 $-1 $182 1 1 1 1 1 1 1 1 1 1 1 1 0 1 0 1 1 1 @17 NEW_SIMPLE_ATTRIB 1 @9 ENTITY_ID 0 3 209 -2147483648 -1 #
vertex $361 -1 -1 $-1 $182 $362 #
vertex $363 -1 -1 $-1 $280 $364 #
straight-curve $-1 -1 -1 $-1 4.7999999999999998 0 -4.7999999999999998 0 -1 0 I I #
coedge $-1 -1 -1 $-1 $257 $259 $183 $270 reversed $176 $-1 #
edge $365 -1 -1 $-1 $274 -4.7999999999999998 $278 4.7999999999999998 $269 $366 forward @7 unknown T -4.7999999999999998 -4.7999999999999998 4.7999999999999998 -4.7999999999999998 4.7999999999999998 4.7999999999999998 #
coedge $-1 -1 -1 $-1 $263 $184 $189 $281 forward $255 $-1 #
coedge $-1 -1 -1 $-1 $184 $263 $257 $351 reversed $255 $-1 #
simple-snl-attrib $-1 -1 $-1 $-1 $185 1 1 1 1 1 1 1 1 1 1 1 1 0 1 0 1 1 1 @17 NEW_SIMPLE_ATTRIB 1 @9 ENTITY_ID 0 3 206 -2147483648 -1 #
vertex $367 -1 -1 $-1 $185 $368 #
straight-curve $-1 -1 -1 $-1 0 4.7999999999999998 4.7999999999999998 -1 0 0 I I #
coedge $-1 -1 -1 $-1 $186 $258 $188 $280 reversed $131 $-1 #
simple-snl-attrib $-1 -1 $-1 $-1 $187 1 1 1 1 1 1 1 1 1 1 1 1 0 1 0 1 1 1 @17 NEW_SIMPLE_ATTRIB 1 @9 ENTITY_ID 0 3 208 -2147483648 -1 #
vertex $369 -1 -1 $-1 $270 $370 #
straight-curve $-1 -1 -1 $-1 0 -4.7999999999999998 4.7999999999999998 1 0 0 I I #
edge $371 -1 -1 $-1 $192 -4.7999999999999998 $267 4.7999999999999998 $188 $372 forward @7 unknown T 4.7999999999999998 -4.7999999999999998 -4.7999999999999998 4.7999999999999998 -4.7999999999999998 4.7999999999999998 #
edge $373 -1 -1 $-1 $193 -4.7999999999999998 $266 4.7999999999999998 $189 $374 forward @7 unknown T 4.7999999999999998 4.7999999999999998 -4.7999999999999998 4.7999999999999998 4.7999999999999998 4.7999999999999998 #
simple-snl-attrib $-1 -1 $-1 $-1 $192 1 1 1 1 1 1 1 1 1 1 1 1 0 1 0 1 1 1 @17 NEW_SIMPLE_ATTRIB 1 @9 ENTITY_ID 0 3 137 -2147483648 -1 #
point $-1 -1 -1 $-1 4.7999999999999998 -4.7999999999999998 4.7999999999999998 #
simple-snl-attrib $-1 -1 $-1 $-1 $193 1 1 1 1 1 1 1 1 1 1 1 1 0 1 0 1 1 1 @17 NEW_SIMPLE_ATTRIB 1 @9 ENTITY_ID 0 3 138 -2147483648 -1 #
point $-1 -1 -1 $-1 4.7999999999999998 4.7999999999999998 4.7999999999999998 #
simple-snl-attrib $-1 -1 $-1 $-1 $196 1 1 1 1 1 1 1 1 1 1 1 1 0 1 0 1 1 1 @17 NEW_SIMPLE_ATTRIB 1 @9 ENTITY_ID 0 3 11 -2147483648 -1 #
face $375 -1 -1 $-1 $-1 $211 $42 $-1 $376 forward single T 4.7999999999999998 -4.7999999999999998 -4.7999999999999998 4.7999999999999998 4.7999999999999998 4.7999999999999998 F #
loop $-1 -1 -1 $-1 $-1 $309 $196 T -4.7999999999999998 4.7999999999999998 -4.7999999999999998 4.7999999999999998 4.7999999999999998 4.7999999999999998 unknown #
plane-surface $-1 -1 -1 $-1 0 4.7999999999999998 0 0 -1 0 0 0 -1 forward_v I I I I #
coedge $-1 -1 -1 $-1 $302 $377 $308 $378 reversed $197 $-1 #
coedge $-1 -1 -1 $-1 $199 $304 $201 $297 forward $140 $-1 #
coedge $-1 -1 -1 $-1 $377 $302 $199 $293 forward $197 $-1 #
edge $379 -1 -1 $-1 $306 -4.7999999999999998 $380 4.7999999999999998 $292 $381 forward @7 unknown T -4.7999999999999998 -4.7999999999999998 -4.7999999999999998 -4.7999999999999998 -4.7999999999999998 4.7999999999999998 #
coedge $-1 -1 -1 $-1 $201 $200 $377 $382 reversed $106 $-1 #
coedge $-1 -1 -1 $-1 $309 $308 $200 $296 forward $288 $-1 #
edge $383 -1 -1 $-1 $384 -4.7999999999999998 $299 4.7999999999999998 $295 $385 forward @7 unknown T -4.7999999999999998 4.7999999999999998 -4.7999999999999998 4.7999999999999998 4.7999999999999998 -4.7999999999999998 #
edge $386 -1 -1 $-1 $300 -4.7999999999999998 $380 4.7999999999999998 $291 $387 forward @7 unknown T -4.7999999999999998 -4.7999999999999998 -4.7999999999999998 4.7999999999999998 -4.7999999999999998 -4.7999999999999998 #
simple-snl-attrib $-1 -1 $-1 $-1 $203 1 1 1 1 1 1 1 1 1 1 1 1 0 1 0 1 1 1 @17 NEW_SIMPLE_ATTRIB 1 @9 ENTITY_ID 0 3 65 -2147483648 -1 #
vertex $388 -1 -1 $-1 $203 $389 #
vertex $390 -1 -1 $-1 $314 $391 #
straight-curve $-1 -1 -1 $-1 4.7999999999999998 0 -4.7999999999999998 0 -1 0 I I #
coedge $-1 -1 -1 $-1 $292 $290 $204 $303 forward $197 $-1 #
edge $392 -1 -1 $-1 $311 -4.7999999999999998 $306 4.7999999999999998 $302 $393 forward @7 unknown T -4.7999999999999998 -4.7999999999999998 4.7999999999999998 -4.7999999999999998 4.7999999999999998 4.7999999999999998 #
coedge $-1 -1 -1 $-1 $291 $205 $210 $314 forward $140 $-1 #
simple-snl-attrib $-1 -1 $-1 $-1 $206 1 1 1 1 1 1 1 1 1 1 1 1 0 1 0 1 1 1 @17 NEW_SIMPLE_ATTRIB 1 @9 ENTITY_ID 0 3 62 -2147483648 -1 #
vertex $394 -1 -1 $-1 $303 $395 #
straight-curve $-1 -1 -1 $-1 0 -4.7999999999999998 4.7999999999999998 1 0 0 I I #
coedge $-1 -1 -1 $-1 $295 $207 $290 $378 forward $288 $-1 #
coedge $-1 -1 -1 $-1 $207 $295 $209 $313 reversed $288 $-1 #
simple-snl-attrib $-1 -1 $-1 $-1 $208 1 1 1 1 1 1 1 1 1 1 1 1 0 1 0 1 1 1 @17 NEW_SIMPLE_ATTRIB 1 @9 ENTITY_ID 0 3 64 -2147483648 -1 #
vertex $396 -1 -1 $-1 $208 $397 #
straight-curve $-1 -1 -1 $-1 0 4.7999999999999998 4.7999999999999998 -1 0 0 I I #
edge $398 -1 -1 $-1 $214 -4.7999999999999998 $299 4.7999999999999998 $209 $399 forward @7 unknown T 4.7999999999999998 4.7999999999999998 -4.7999999999999998 4.7999999999999998 4.7999999999999998 4.7999999999999998 #
edge $400 -1 -1 $-1 $213 -4.7999999999999998 $300 4.7999999999999998 $210 $401 forward @7 unknown T 4.7999999999999998 -4.7999999999999998 -4.7999999999999998 4.7999999999999998 -4.7999999999999998 4.7999999999999998 #
simple-snl-attrib $-1 -1 $-1 $-1 $213 1 1 1 1 1 1 1 1 1 1 1 1 0 1 0 1 1 1 @17 NEW_SIMPLE_ATTRIB 1 @9 ENTITY_ID 0 3 41 -2147483648 -1 #
point $-1 -1 -1 $-1 4.7999999999999998 -4.7999999999999998 4.7999999999999998 #
simple-snl-attrib $-1 -1 $-1 $-1 $214 1 1 1 1 1 1 1 1 1 1 1 1 0 1 0 1 1 1 @17 NEW_SIMPLE_ATTRIB 1 @9 ENTITY_ID 0 3 42 -2147483648 -1 #
point $-1 -1 -1 $-1 4.7999999999999998 4.7999999999999998 4.7999999999999998 #
simple-snl-attrib $-1 -1 $-1 $-1 $217 1 1 1 1 1 1 1 1 1 1 1 1 0 1 0 1 1 1 @17 NEW_SIMPLE_ATTRIB 1 @9 ENTITY_ID 0 3 6 -2147483648 -1 #
plane-surface $-1 -1 -1 $-1 4.8959999999999999 0 0 -1 0 0 0 -0 1 forward_v I I I I #
coedge $-1 -1 -1 $-1 $222 $220 $224 $326 reversed $149 $-1 #
edge $402 -1 -1 $-1 $237 -4.8959999999999999 $330 4.8959999999999999 $235 $403 forward @7 unknown T -4.8959999999999999 4.8959999999999999 -4.8959999999999999 -4.8959999999999999 4.8959999999999999 4.8959999999999999 #
simple-snl-attrib $-1 -1 $-1 $-1 $223 1 1 1 1 1 1 1 1 1 1 1 1 0 1 0 1 1 1 @17 NEW_SIMPLE_ATTRIB 1 @9 ENTITY_ID 0 3 45 -2147483648 -1 #
vertex $404 -1 -1 $-1 $326 $405 #
straight-curve $-1 -1 -1 $-1 -4.8959999999999999 -4.8959999999999999 0 0 0 -1 I I #
edge $406 -1 -1 $-1 $324 -4.8959999999999999 $330 4.8959999999999999 $321 $407 forward @7 unknown T -4.8959999999999999 -4.8959999999999999 -4.8959999999999999 -4.8959999999999999 4.8959999999999999 -4.8959999999999999 #
simple-snl-attrib $-1 -1 $-1 $-1 $225 1 1 1 1 1 1 1 1 1 1 1 1 0 1 0 1 1 1 @17 NEW_SIMPLE_ATTRIB 1 @9 ENTITY_ID 0 3 42 -2147483648 -1 #
straight-curve $-1 -1 -1 $-1 0 -4.8959999999999999 -4.8959999999999999 -1 0 0 I I #
simple-snl-attrib $-1 -1 $-1 $-1 $227 1 1 1 1 1 1 1 1 1 1 1 1 0 1 0 1 1 1 @17 NEW_SIMPLE_ATTRIB 1 @9 ENTITY_ID 0 3 44 -2147483648 -1 #
vertex $408 -1 -1 $-1 $227 $409 #
straight-curve $-1 -1 -1 $-1 0 4.8959999999999999 -4.8959999999999999 1 0 0 I I #
simple-snl-attrib $-1 -1 $-1 $-1 $229 1 1 1 1 1 1 1 1 1 1 1 1 0 1 0 1 1 1 @17 NEW_SIMPLE_ATTRIB 1 @9 ENTITY_ID 0 3 29 -2147483648 -1 #
point $-1 -1 -1 $-1 4.8959999999999999 4.8959999999999999 -4.8959999999999999 #
simple-snl-attrib $-1 -1 $-1 $-1 $230 1 1 1 1 1 1 1 1 1 1 1 1 0 1 0 1 1 1 @17 NEW_SIMPLE_ATTRIB 1 @9 ENTITY_ID 0 3 30 -2147483648 -1 #
point $-1 -1 -1 $-1 4.8959999999999999 -4.8959999999999999 -4.8959999999999999 #
simple-snl-attrib $-1 -1 $-1 $-1 $233 1 1 1 1 1 1 1 1 1 1 1 1 0 1 0 1 1 1 @17 NEW_SIMPLE_ATTRIB 1 @9 ENTITY_ID 0 3 39 -2147483648 -1 #
straight-curve $-1 -1 -1 $-1 -4.8959999999999999 0 4.8959999999999999 0 -1 0 I I #
simple-snl-attrib $-1 -1 $-1 $-1 $237 1 1 1 1 1 1 1 1 1 1 1 1 0 1 0 1 1 1 @17 NEW_SIMPLE_ATTRIB 1 @9 ENTITY_ID 0 3 27 -2147483648 -1 #
point $-1 -1 -1 $-1 -4.8959999999999999 4.8959999999999999 4.8959999999999999 #
simple-snl-attrib $-1 -1 $-1 $-1 $241 1 1 1 1 1 1 1 1 1 1 1 1 0 1 0 1 1 1 @17 NEW_SIMPLE_ATTRIB 1 @9 ENTITY_ID 0 3 28 -2147483648 -1 #
point $-1 -1 -1 $-1 -4.8959999999999999 -4.8959999999999999 4.8959999999999999 #
simple-snl-attrib $-1 -1 $-1 $-1 $243 1 1 1 1 1 1 1 1 1 1 1 1 0 1 0 1 1 1 @17 NEW_SIMPLE_ATTRIB 1 @9 ENTITY_ID 0 3 46 -2147483648 -1 #
straight-curve $-1 -1 -1 $-1 4.8959999999999999 -4.8959999999999999 0 0 0 -1 I I #
simple-snl-attrib $-1 -1 $-1 $-1 $244 1 1 1 1 1 1 1 1 1 1 1 1 0 1 0 1 1 1 @17 NEW_SIMPLE_ATTRIB 1 @9 ENTITY_ID 0 3 48 -2147483648 -1 #
straight-curve $-1 -1 -1 $-1 4.8959999999999999 4.8959999999999999 0 0 0 -1 I I #
simple-snl-attrib $-1 -1 $410 $249 $168 1 1 1 1 1 1 1 1 1 1 1 1 0 1 0 1 1 1 @17 NEW_SIMPLE_ATTRIB 1 @9 ENTITY_ID 0 3 13 -2147483648 -1 #
simple-snl-attrib $-1 -1 $-1 $251 $123 1 1 1 1 1 1 1 1 1 1 1 1 0 1 0 1 1 1 @17 NEW_SIMPLE_ATTRIB 1 @13 MERGE_PARTNER 0 4 1787866670 -1 20 0 #
simple-snl-attrib $-1 -1 $-1 $-1 $254 1 1 1 1 1 1 1 1 1 1 1 1 0 1 0 1 1 1 @17 NEW_SIMPLE_ATTRIB 1 @9 ENTITY_ID 0 3 27 -2147483648 -1 #
plane-surface $-1 -1 -1 $-1 4.7999999999999998 0 0 -1 0 0 0 -0 1 forward_v I I I I #
coedge $-1 -1 -1 $-1 $259 $257 $261 $355 reversed $176 $-1 #
edge $411 -1 -1 $-1 $274 -4.7999999999999998 $359 4.7999999999999998 $272 $412 forward @7 unknown T -4.7999999999999998 4.7999999999999998 -4.7999999999999998 -4.7999999999999998 4.7999999999999998 4.7999999999999998 #
simple-snl-attrib $-1 -1 $-1 $-1 $260 1 1 1 1 1 1 1 1 1 1 1 1 0 1 0 1 1 1 @17 NEW_SIMPLE_ATTRIB 1 @9 ENTITY_ID 0 3 213 -2147483648 -1 #
vertex $413 -1 -1 $-1 $355 $414 #
straight-curve $-1 -1 -1 $-1 -4.7999999999999998 -4.7999999999999998 0 0 0 -1 I I #
edge $415 -1 -1 $-1 $353 -4.7999999999999998 $359 4.7999999999999998 $350 $416 forward @7 unknown T -4.7999999999999998 -4.7999999999999998 -4.7999999999999998 -4.7999999999999998 4.7999999999999998 -4.7999999999999998 #
simple-snl-attrib $-1 -1 $-1 $-1 $262 1 1 1 1 1 1 1 1 1 1 1 1 0 1 0 1 1 1 @17 NEW_SIMPLE_ATTRIB 1 @9 ENTITY_ID 0 3 210 -2147483648 -1 #
straight-curve $-1 -1 -1 $-1 0 -4.7999999999999998 -4.7999999999999998 -1 0 0 I I #
simple-snl-attrib $-1 -1 $-1 $-1 $264 1 1 1 1 1 1 1 1 1 1 1 1 0 1 0 1 1 1 @17 NEW_SIMPLE_ATTRIB 1 @9 ENTITY_ID 0 3 212 -2147483648 -1 #
vertex $417 -1 -1 $-1 $264 $418 #
straight-curve $-1 -1 -1 $-1 0 4.7999999999999998 -4.7999999999999998 1 0 0 I I #
simple-snl-attrib $-1 -1 $-1 $-1 $266 1 1 1 1 1 1 1 1 1 1 1 1 0 1 0 1 1 1 @17 NEW_SIMPLE_ATTRIB 1 @9 ENTITY_ID 0 3 141 -2147483648 -1 #
point $-1 -1 -1 $-1 4.7999999999999998 4.7999999999999998 -4.7999999999999998 #
simple-snl-attrib $-1 -1 $-1 $-1 $267 1 1 1 1 1 1 1 1 1 1 1 1 0 1 0 1 1 1 @17 NEW_SIMPLE_ATTRIB 1 @9 ENTITY_ID 0 3 142 -2147483648 -1 #
point $-1 -1 -1 $-1 4.7999999999999998 -4.7999999999999998 -4.7999999999999998 #
simple-snl-attrib $-1 -1 $-1 $-1 $270 1 1 1 1 1 1 1 1 1 1 1 1 0 1 0 1 1 1 @17 NEW_SIMPLE_ATTRIB 1 @9 ENTITY_ID 0 3 207 -2147483648 -1 #
straight-curve $-1 -1 -1 $-1 -4.7999999999999998 0 4.7999999999999998 0 -1 0 I I #
simple-snl-attrib $-1 -1 $-1 $-1 $274 1 1 1 1 1 1 1 1 1 1 1 1 0 1 0 1 1 1 @17 NEW_SIMPLE_ATTRIB 1 @9 ENTITY_ID 0 3 139 -2147483648 -1 #
point $-1 -1 -1 $-1 -4.7999999999999998 4.7999999999999998 4.7999999999999998 #
simple-snl-attrib $-1 -1 $-1 $-1 $278 1 1 1 1 1 1 1 1 1 1 1 1 0 1 0 1 1 1 @17 NEW_SIMPLE_ATTRIB 1 @9 ENTITY_ID 0 3 140 -2147483648 -1 #
point $-1 -1 -1 $-1 -4.7999999999999998 -4.7999999999999998 4.7999999999999998 #
simple-snl-attrib $-1 -1 $-1 $-1 $280 1 1 1 1 1 1 1 1 1 1 1 1 0 1 0 1 1 1 @17 NEW_SIMPLE_ATTRIB 1 @9 ENTITY_ID 0 3 214 -2147483648 -1 #
straight-curve $-1 -1 -1 $-1 4.7999999999999998 -4.7999999999999998 0 0 0 -1 I I #
simple-snl-attrib $-1 -1 $-1 $-1 $281 1 1 1 1 1 1 1 1 1 1 1 1 0 1 0 1 1 1 @17 NEW_SIMPLE_ATTRIB 1 @9 ENTITY_ID 0 3 216 -2147483648 -1 #
straight-curve $-1 -1 -1 $-1 4.7999999999999998 4.7999999999999998 0 0 0 -1 I I #
simple-snl-attrib $-1 -1 $-1 $-1 $287 1 1 1 1 1 1 1 1 1 1 1 1 0 1 0 1 1 1 @17 NEW_SIMPLE_ATTRIB 1 @9 ENTITY_ID 0 3 12 -2147483648 -1 #
plane-surface $-1 -1 -1 $-1 4.7999999999999998 0 0 -1 0 0 0 -0 1 forward_v I I I I #
coedge $-1 -1 -1 $-1 $290 $292 $294 $382 forward $197 $-1 #
edge $419 -1 -1 $-1 $311 -4.7999999999999998 $384 4.7999999999999998 $308 $420 forward @7 unknown T -4.7999999999999998 4.7999999999999998 -4.7999999999999998 -4.7999999999999998 4.7999999999999998 4.7999999999999998 #
simple-snl-attrib $-1 -1 $-1 $-1 $293 1 1 1 1 1 1 1 1 1 1 1 1 0 1 0 1 1 1 @17 NEW_SIMPLE_ATTRIB 1 @9 ENTITY_ID 0 3 69 -2147483648 -1 #
vertex $421 -1 -1 $-1 $382 $422 #
straight-curve $-1 -1 -1 $-1 -4.7999999999999998 -4.7999999999999998 0 0 0 -1 I I #
edge $423 -1 -1 $-1 $380 -4.7999999999999998 $384 4.7999999999999998 $377 $424 forward @7 unknown T -4.7999999999999998 -4.7999999999999998 -4.7999999999999998 -4.7999999999999998 4.7999999999999998 -4.7999999999999998 #
simple-snl-attrib $-1 -1 $-1 $-1 $296 1 1 1 1 1 1 1 1 1 1 1 1 0 1 0 1 1 1 @17 NEW_SIMPLE_ATTRIB 1 @9 ENTITY_ID 0 3 66 -2147483648 -1 #
vertex $425 -1 -1 $-1 $296 $426 #
straight-curve $-1 -1 -1 $-1 0 4.7999999999999998 -4.7999999999999998 1 0 0 I I #
simple-snl-attrib $-1 -1 $-1 $-1 $297 1 1 1 1 1 1 1 1 1 1 1 1 0 1 0 1 1 1 @17 NEW_SIMPLE_ATTRIB 1 @9 ENTITY_ID 0 3 68 -2147483648 -1 #
straight-curve $-1 -1 -1 $-1 0 -4.7999999999999998 -4.7999999999999998 -1 0 0 I I #
simple-snl-attrib $-1 -1 $-1 $-1 $299 1 1 1 1 1 1 1 1 1 1 1 1 0 1 0 1 1 1 @17 NEW_SIMPLE_ATTRIB 1 @9 ENTITY_ID 0 3 45 -2147483648 -1 #
point $-1 -1 -1 $-1 4.7999999999999998 4.7999999999999998 -4.7999999999999998 #
simple-snl-attrib $-1 -1 $-1 $-1 $300 1 1 1 1 1 1 1 1 1 1 1 1 0 1 0 1 1 1 @17 NEW_SIMPLE_ATTRIB 1 @9 ENTITY_ID 0 3 46 -2147483648 -1 #
point $-1 -1 -1 $-1 4.7999999999999998 -4.7999999999999998 -4.7999999999999998 #
simple-snl-attrib $-1 -1 $-1 $-1 $303 1 1 1 1 1 1 1 1 1 1 1 1 0 1 0 1 1 1 @17 NEW_SIMPLE_ATTRIB 1 @9 ENTITY_ID 0 3 63 -2147483648 -1 #
straight-curve $-1 -1 -1 $-1 -4.7999999999999998 0 4.7999999999999998 0 -1 0 I I #
simple-snl-attrib $-1 -1 $-1 $-1 $306 1 1 1 1 1 1 1 1 1 1 1 1 0 1 0 1 1 1 @17 NEW_SIMPLE_ATTRIB 1 @9 ENTITY_ID 0 3 43 -2147483648 -1 #
point $-1 -1 -1 $-1 -4.7999999999999998 -4.7999999999999998 4.7999999999999998 #
simple-snl-attrib $-1 -1 $-1 $-1 $311 1 1 1 1 1 1 1 1 1 1 1 1 0 1 0 1 1 1 @17 NEW_SIMPLE_ATTRIB 1 @9 ENTITY_ID 0 3 44 -2147483648 -1 #
point $-1 -1 -1 $-1 -4.7999999999999998 4.7999999999999998 4.7999999999999998 #
simple-snl-attrib $-1 -1 $-1 $-1 $313 1 1 1 1 1 1 1 1 1 1 1 1 0 1 0 1 1 1 @17 NEW_SIMPLE_ATTRIB 1 @9 ENTITY_ID 0 3 72 -2147483648 -1 #
straight-curve $-1 -1 -1 $-1 4.7999999999999998 4.7999999999999998 0 0 0 -1 I I #
simple-snl-attrib $-1 -1 $-1 $-1 $314 1 1 1 1 1 1 1 1 1 1 1 1 0 1 0 1 1 1 @17 NEW_SIMPLE_ATTRIB 1 @9 ENTITY_ID 0 3 70 -2147483648 -1 #
straight-curve $-1 -1 -1 $-1 4.7999999999999998 -4.7999999999999998 0 0 0 -1 I I #
simple-snl-attrib $-1 -1 $-1 $-1 $322 1 1 1 1 1 1 1 1 1 1 1 1 0 1 0 1 1 1 @17 NEW_SIMPLE_ATTRIB 1 @9 ENTITY_ID 0 3 47 -2147483648 -1 #
straight-curve $-1 -1 -1 $-1 -4.8959999999999999 4.8959999999999999 0 0 0 -1 I I #
simple-snl-attrib $-1 -1 $-1 $-1 $324 1 1 1 1 1 1 1 1 1 1 1 1 0 1 0 1 1 1 @17 NEW_SIMPLE_ATTRIB 1 @9 ENTITY_ID 0 3 31 -2147483648 -1 #
point $-1 -1 -1 $-1 -4.8959999999999999 -4.8959999999999999 -4.8959999999999999 #
simple-snl-attrib $-1 -1 $-1 $-1 $326 1 1 1 1 1 1 1 1 1 1 1 1 0 1 0 1 1 1 @17 NEW_SIMPLE_ATTRIB 1 @9 ENTITY_ID 0 3 43 -2147483648 -1 #
straight-curve $-1 -1 -1 $-1 -4.8959999999999999 0 -4.8959999999999999 0 1 0 I I #
simple-snl-attrib $-1 -1 $-1 $-1 $330 1 1 1 1 1 1 1 1 1 1 1 1 0 1 0 1 1 1 @17 NEW_SIMPLE_ATTRIB 1 @9 ENTITY_ID 0 3 32 -2147483648 -1 #
point $-1 -1 -1 $-1 -4.8959999999999999 4.8959999999999999 -4.8959999999999999 #
simple-snl-attrib $-1 -1 $-1 $346 $168 1 1 1 1 1 1 1 1 1 1 1 1 0 1 0 1 1 1 @17 NEW_SIMPLE_ATTRIB 1 @13 MERGE_PARTNER 0 4 1082745714 -1 21 0 #
simple-snl-attrib $-1 -1 $-1 $-1 $351 1 1 1 1 1 1 1 1 1 1 1 1 0 1 0 1 1 1 @17 NEW_SIMPLE_ATTRIB 1 @9 ENTITY_ID 0 3 215 -2147483648 -1 #
straight-curve $-1 -1 -1 $-1 -4.7999999999999998 4.7999999999999998 0 0 0 -1 I I #
simple-snl-attrib $-1 -1 $-1 $-1 $353 1 1 1 1 1 1 1 1 1 1 1 1 0 1 0 1 1 1 @17 NEW_SIMPLE_ATTRIB 1 @9 ENTITY_ID 0 3 143 -2147483648 -1 #
point $-1 -1 -1 $-1 -4.7999999999999998 -4.7999999999999998 -4.7999999999999998 #
simple-snl-attrib $-1 -1 $-1 $-1 $355 1 1 1 1 1 1 1 1 1 1 1 1 0 1 0 1 1 1 @17 NEW_SIMPLE_ATTRIB 1 @9 ENTITY_ID 0 3 211 -2147483648 -1 #
straight-curve $-1 -1 -1 $-1 -4.7999999999999998 0 -4.7999999999999998 0 1 0 I I #
simple-snl-attrib $-1 -1 $-1 $-1 $359 1 1 1 1 1 1 1 1 1 1 1 1 0 1 0 1 1 1 @17 NEW_SIMPLE_ATTRIB 1 @9 ENTITY_ID 0 3 144 -2147483648 -1 #
point $-1 -1 -1 $-1 -4.7999999999999998 4.7999999999999998 -4.7999999999999998 #
simple-snl-attrib $-1 -1 $-1 $-1 $378 1 1 1 1 1 1 1 1 1 1 1 1 0 1 0 1 1 1 @17 NEW_SIMPLE_ATTRIB 1 @9 ENTITY_ID 0 3 71 -2147483648 -1 #
straight-curve $-1 -1 -1 $-1 -4.7999999999999998 4.7999999999999998 0 0 0 -1 I I #
simple-snl-attrib $-1 -1 $-1 $-1 $380 1 1 1 1 1 1 1 1 1 1 1 1 0 1 0 1 1 1 @17 NEW_SIMPLE_ATTRIB 1 @9 ENTITY_ID 0 3 48 -2147483648 -1 #
point $-1 -1 -1 $-1 -4.7999999999999998 -4.7999999999999998 -4.7999999999999998 #
simple-snl-attrib $-1 -1 $-1 $-1 $382 1 1 1 1 1 1 1 1 1 1 1 1 0 1 0 1 1 1 @17 NEW_SIMPLE_ATTRIB 1 @9 ENTITY_ID 0 3 67 -2147483648 -1 #
straight-curve $-1 -1 -1 $-1 -4.7999999999999998 0 -4.7999999999999998 0 1 0 I I #
simple-snl-attrib $-1 -1 $-1 $-1 $384 1 1 1 1 1 1 1 1 1 1 1 1 0 1 0 1 1 1 @17 NEW_SIMPLE_ATTRIB 1 @9 ENTITY_ID 0 3 47 -2147483648 -1 #
point $-1 -1 -1 $-1 -4.7999999999999998 4.7999999999999998 -4.7999999999999998 #
End-of-ACIS-data 