1600 0 7 0           
14 Cubit  (iGeom) 17 ACIS 16.0.7 Linux 24 Tue Feb 22 15:23:16 2011 
1 9.9999999999999995e-07 1e-10 
body $7 -1 -1 $-1 $8 $-1 $-1 F #
body $9 -1 -1 $-1 $10 $-1 $-1 T -20 -20 -20 20 20 20 #
body $11 -1 -1 $-1 $12 $-1 $-1 T -25 -25 -25 25 25 25 #
body $13 -1 -1 $-1 $14 $-1 $-1 T -45 -45 -45 45 45 44.722333322222347 #
body $15 -1 -1 $-1 $16 $-1 $-1 T -50 -50 -50 50 50 50 #
body $17 -1 -1 $-1 $18 $-1 $-1 T -4.9989999999999997 -4.9989999999999997 40.000999999999998 4.9989999999999997 4.9989999999999997 49.999000000000002 #
body $19 -1 -1 $-1 $20 $-1 $-1 T -60 -60 -60 60 60 60 #
simple-snl-attrib $-1 -1 $21 $-1 $0 1 1 1 1 1 1 1 1 1 1 1 1 0 1 0 1 1 1 @17 NEW_SIMPLE_ATTRIB 1 @9 ENTITY_ID 0 3 4 -2147483648 -1 #
lump $22 -1 -1 $-1 $-1 $23 $0 F #
simple-snl-attrib $-1 -1 $24 $-1 $1 1 1 1 1 1 1 1 1 1 1 1 1 0 1 0 1 1 1 @17 NEW_SIMPLE_ATTRIB 1 @9 ENTITY_ID 0 3 46 -2147483648 -1 #
lump $25 -1 -1 $-1 $-1 $26 $1 T -20 -20 -20 20 20 20 #
simple-snl-attrib $-1 -1 $27 $-1 $2 1 1 1 1 1 1 1 1 1 1 1 1 0 1 0 1 1 1 @17 NEW_SIMPLE_ATTRIB 1 @9 ENTITY_ID 0 3 49 -2147483648 -1 #
lump $28 -1 -1 $-1 $-1 $29 $2 T -25 -25 -25 25 25 25 #
simple-snl-attrib $-1 -1 $30 $-1 $3 1 1 1 1 1 1 1 1 1 1 1 1 0 1 0 1 1 1 @17 NEW_SIMPLE_ATTRIB 1 @9 ENTITY_ID 0 3 52 -2147483648 -1 #
lump $31 -1 -1 $-1 $-1 $32 $3 T -45 -45 -45 45 45 44.722333322222347 #
simple-snl-attrib $-1 -1 $33 $-1 $4 1 1 1 1 1 1 1 1 1 1 1 1 0 1 0 1 1 1 @17 NEW_SIMPLE_ATTRIB 1 @9 ENTITY_ID 0 3 55 -2147483648 -1 #
lump $34 -1 -1 $-1 $-1 $35 $4 T -50 -50 -50 50 50 50 #
simple-snl-attrib $-1 -1 $36 $-1 $5 1 1 1 1 1 1 1 1 1 1 1 1 0 1 0 1 1 1 @17 NEW_SIMPLE_ATTRIB 1 @9 ENTITY_ID 0 3 58 -2147483648 -1 #
lump $37 -1 -1 $-1 $-1 $38 $5 T -4.9989999999999997 -4.9989999999999997 40.000999999999998 4.9989999999999997 4.9989999999999997 49.999000000000002 #
simple-snl-attrib $-1 -1 $39 $-1 $6 1 1 1 1 1 1 1 1 1 1 1 1 0 1 0 1 1 1 @17 NEW_SIMPLE_ATTRIB 1 @9 ENTITY_ID 0 3 61 -2147483648 -1 #
lump $40 -1 -1 $-1 $-1 $41 $6 T -60 -60 -60 60 60 60 #
simple-snl-attrib $-1 -1 $-1 $7 $0 1 1 1 1 1 1 1 1 1 1 1 1 0 1 0 1 1 1 @17 NEW_SIMPLE_ATTRIB 2 @5 GROUP @9 graveyard 0 7 1 1 261228136 0 0 0 0 #
simple-snl-attrib $-1 -1 $-1 $-1 $8 1 1 1 1 1 1 1 1 1 1 1 1 0 1 0 1 1 1 @17 NEW_SIMPLE_ATTRIB 1 @9 ENTITY_ID 0 3 1 -2147483648 -1 #
shell $-1 -1 -1 $-1 $42 $-1 $43 $-1 $8 T -61.200000000000003 -61.200000000000003 -61.200000000000003 61.200000000000003 61.200000000000003 61.200000000000003 #
simple-snl-attrib $-1 -1 $44 $9 $1 1 1 1 1 1 1 1 1 1 1 1 1 0 1 0 1 1 1 @17 NEW_SIMPLE_ATTRIB 2 @5 GROUP @16 mat_1_rho_-11.35 0 7 1 2 1486197810 0 0 0 0 #
simple-snl-attrib $-1 -1 $-1 $-1 $10 1 1 1 1 1 1 1 1 1 1 1 1 0 1 0 1 1 1 @17 NEW_SIMPLE_ATTRIB 1 @9 ENTITY_ID 0 3 2 -2147483648 -1 #
shell $-1 -1 -1 $-1 $-1 $-1 $45 $-1 $10 T -20 -20 -20 20 20 20 #
simple-snl-attrib $-1 -1 $46 $11 $2 1 1 1 1 1 1 1 1 1 1 1 1 0 1 0 1 1 1 @17 NEW_SIMPLE_ATTRIB 2 @5 GROUP @16 mat_1_rho_-11.35 0 7 1 2 1486197810 1 0 0 0 #
simple-snl-attrib $-1 -1 $-1 $-1 $12 1 1 1 1 1 1 1 1 1 1 1 1 0 1 0 1 1 1 @17 NEW_SIMPLE_ATTRIB 1 @9 ENTITY_ID 0 3 3 -2147483648 -1 #
shell $-1 -1 -1 $-1 $47 $-1 $48 $-1 $12 T -25 -25 -25 25 25 25 #
simple-snl-attrib $-1 -1 $-1 $13 $3 1 1 1 1 1 1 1 1 1 1 1 1 0 1 0 1 1 1 @17 NEW_SIMPLE_ATTRIB 2 @11 ENTITY_NAME @9 MCNP_ID_3 0 0 #
simple-snl-attrib $-1 -1 $-1 $-1 $14 1 1 1 1 1 1 1 1 1 1 1 1 0 1 0 1 1 1 @17 NEW_SIMPLE_ATTRIB 1 @9 ENTITY_ID 0 3 4 -2147483648 -1 #
shell $-1 -1 -1 $-1 $49 $-1 $50 $-1 $14 T -45 -45 -45 45 45 44.722333322222347 #
simple-snl-attrib $-1 -1 $-1 $15 $4 1 1 1 1 1 1 1 1 1 1 1 1 0 1 0 1 1 1 @17 NEW_SIMPLE_ATTRIB 2 @11 ENTITY_NAME @9 MCNP_ID_4 0 0 #
simple-snl-attrib $-1 -1 $-1 $-1 $16 1 1 1 1 1 1 1 1 1 1 1 1 0 1 0 1 1 1 @17 NEW_SIMPLE_ATTRIB 1 @9 ENTITY_ID 0 3 5 -2147483648 -1 #
shell $-1 -1 -1 $-1 $51 $-1 $52 $-1 $16 T -50 -50 -50 50 50 50 #
simple-snl-attrib $-1 -1 $-1 $17 $5 1 1 1 1 1 1 1 1 1 1 1 1 0 1 0 1 1 1 @17 NEW_SIMPLE_ATTRIB 2 @11 ENTITY_NAME @9 MCNP_ID_5 0 0 #
simple-snl-attrib $-1 -1 $-1 $-1 $18 1 1 1 1 1 1 1 1 1 1 1 1 0 1 0 1 1 1 @17 NEW_SIMPLE_ATTRIB 1 @9 ENTITY_ID 0 3 6 -2147483648 -1 #
shell $-1 -1 -1 $-1 $-1 $-1 $53 $-1 $18 T -4.9989999999999997 -4.9989999999999997 40.000999999999998 4.9989999999999997 4.9989999999999997 49.999000000000002 #
simple-snl-attrib $-1 -1 $-1 $19 $6 1 1 1 1 1 1 1 1 1 1 1 1 0 1 0 1 1 1 @17 NEW_SIMPLE_ATTRIB 2 @11 ENTITY_NAME @9 MCNP_ID_6 0 0 #
simple-snl-attrib $-1 -1 $-1 $-1 $20 1 1 1 1 1 1 1 1 1 1 1 1 0 1 0 1 1 1 @17 NEW_SIMPLE_ATTRIB 1 @9 ENTITY_ID 0 3 7 -2147483648 -1 #
shell $-1 -1 -1 $-1 $54 $-1 $55 $-1 $20 T -60 -60 -60 60 60 60 #
shell $-1 -1 -1 $-1 $-1 $-1 $56 $-1 $8 T -60 -60 -60 60 60 60 #
face $57 -1 -1 $-1 $58 $59 $23 $-1 $60 forward single T -61.200000000000003 -61.200000000000003 61.200000000000003 61.200000000000003 61.200000000000003 61.200000000000003 F #
simple-snl-attrib $-1 -1 $-1 $24 $1 1 1 1 1 1 1 1 1 1 1 1 1 0 1 0 1 1 1 @17 NEW_SIMPLE_ATTRIB 2 @11 ENTITY_NAME @9 MCNP_ID_1 0 0 #
face $61 -1 -1 $-1 $-1 $-1 $26 $-1 $62 forward single T -20 -20 -20 20 20 20 F #
simple-snl-attrib $-1 -1 $-1 $27 $2 1 1 1 1 1 1 1 1 1 1 1 1 0 1 0 1 1 1 @17 NEW_SIMPLE_ATTRIB 2 @11 ENTITY_NAME @9 MCNP_ID_2 0 0 #
shell $-1 -1 -1 $-1 $-1 $-1 $63 $-1 $12 T -20 -20 -20 20 20 20 #
face $64 -1 -1 $-1 $-1 $-1 $29 $-1 $65 forward single T -25 -25 -25 25 25 25 F #
shell $-1 -1 -1 $-1 $-1 $-1 $66 $-1 $14 T -25 -25 -25 25 25 25 #
face $67 -1 -1 $-1 $68 $69 $32 $-1 $70 forward single T -45 -45 -45 45 45 44.722333322222347 F #
shell $-1 -1 -1 $-1 $-1 $-1 $71 $-1 $16 T -45 -45 -45 45 45 49.999000000000002 #
face $72 -1 -1 $-1 $-1 $-1 $35 $-1 $73 forward single T -50 -50 -50 50 50 50 F #
face $74 -1 -1 $-1 $75 $76 $38 $-1 $77 forward single T -4.9912826223378612 -4.9912826223378612 40.000999999999998 4.9912826223378612 4.9912826223378612 44.722333322222347 F #
shell $-1 -1 -1 $-1 $-1 $-1 $78 $-1 $20 T -50 -50 -50 50 50 50 #
face $79 -1 -1 $-1 $80 $81 $41 $-1 $82 forward single T -60 -60 60 60 60 60 F #
face $83 -1 -1 $-1 $84 $85 $42 $-1 $86 reversed single T -60 -60 60 60 60 60 F #
simple-snl-attrib $-1 -1 $-1 $-1 $43 1 1 1 1 1 1 1 1 1 1 1 1 0 1 0 1 1 1 @17 NEW_SIMPLE_ATTRIB 1 @9 ENTITY_ID 0 3 1 -2147483648 -1 #
face $87 -1 -1 $-1 $88 $89 $23 $-1 $90 reversed single T -61.200000000000003 -61.200000000000003 -61.200000000000003 61.200000000000003 61.200000000000003 -61.200000000000003 F #
loop $-1 -1 -1 $-1 $-1 $91 $43 T -61.200000000000003 -61.200000000000003 61.200000000000003 61.200000000000003 61.200000000000003 61.200000000000003 unknown #
plane-surface $-1 -1 -1 $-1 0 0 61.200000000000003 0 0 1 1 0 0 forward_v I I I I #
simple-snl-attrib $-1 -1 $92 $-1 $45 1 1 1 1 1 1 1 1 1 1 1 1 0 1 0 1 1 1 @17 NEW_SIMPLE_ATTRIB 1 @9 UNIQUE_ID 1 0 1 687589018 #
sphere-surface $-1 -1 -1 $-1 0 0 0 20 1 0 0 0 0 1 forward_v I I I I #
face $93 -1 -1 $-1 $-1 $-1 $47 $-1 $94 reversed single T -20 -20 -20 20 20 20 F #
simple-snl-attrib $-1 -1 $95 $-1 $48 1 1 1 1 1 1 1 1 1 1 1 1 0 1 0 1 1 1 @17 NEW_SIMPLE_ATTRIB 1 @9 UNIQUE_ID 1 0 1 1384587364 #
sphere-surface $-1 -1 -1 $-1 0 0 0 25 1 0 0 0 0 1 forward_v I I I I #
face $96 -1 -1 $-1 $-1 $-1 $49 $-1 $97 reversed single T -25 -25 -25 25 25 25 F #
simple-snl-attrib $-1 -1 $98 $-1 $50 1 1 1 1 1 1 1 1 1 1 1 1 0 1 0 1 1 1 @17 NEW_SIMPLE_ATTRIB 1 @9 UNIQUE_ID 1 0 1 698230242 #
face $99 -1 -1 $-1 $-1 $100 $32 $-1 $101 reversed single T -4.9912826223378612 -4.9912826223378612 40.000999999999998 4.9912826223378612 4.9912826223378612 44.722333322222347 F #
loop $-1 -1 -1 $-1 $-1 $102 $50 T -4.9912826223378612 -4.9912826223378612 44.722333322222347 4.9912826223378612 4.9912826223378612 44.722333322222347 unknown #
sphere-surface $-1 -1 -1 $-1 0 0 0 45 1 0 0 0 0 1 forward_v I I I I #
face $103 -1 -1 $-1 $104 $105 $51 $-1 $106 reversed single T -45 -45 -45 45 45 44.722333322222347 F #
simple-snl-attrib $-1 -1 $107 $-1 $52 1 1 1 1 1 1 1 1 1 1 1 1 0 1 0 1 1 1 @17 NEW_SIMPLE_ATTRIB 1 @9 UNIQUE_ID 1 0 1 2000240678 #
sphere-surface $-1 -1 -1 $-1 0 0 0 50 1 0 0 0 0 1 forward_v I I I I #
simple-snl-attrib $-1 -1 $108 $-1 $53 1 1 1 1 1 1 1 1 1 1 1 1 0 1 0 1 1 1 @17 NEW_SIMPLE_ATTRIB 1 @9 UNIQUE_ID 1 0 1 1351236216 #
face $109 -1 -1 $-1 $-1 $110 $38 $-1 $77 forward single T -4.9989999999999997 -4.9989999999999997 44.722333322222347 4.9989999999999997 4.9989999999999997 49.999000000000002 F #
loop $-1 -1 -1 $-1 $-1 $111 $53 T -4.9912826223378612 -4.9912826223378612 44.722333322222347 4.9912826223378612 4.9912826223378612 44.722333322222347 unknown #
sphere-surface $-1 -1 -1 $-1 0 0 45 4.9989999999999997 1 0 0 0 0 1 forward_v I I I I #
face $112 -1 -1 $-1 $-1 $-1 $54 $-1 $113 reversed single T -50 -50 -50 50 50 50 F #
simple-snl-attrib $-1 -1 $-1 $-1 $55 1 1 1 1 1 1 1 1 1 1 1 1 0 1 0 1 1 1 @17 NEW_SIMPLE_ATTRIB 1 @9 ENTITY_ID 0 3 23 -2147483648 -1 #
face $114 -1 -1 $-1 $115 $116 $41 $-1 $117 reversed single T -60 -60 -60 60 60 -60 F #
loop $-1 -1 -1 $-1 $-1 $118 $55 T -60 -60 60 60 60 60 unknown #
plane-surface $-1 -1 -1 $-1 0 0 60 0 0 1 1 0 0 forward_v I I I I #
simple-snl-attrib $-1 -1 $-1 $-1 $56 1 1 1 1 1 1 1 1 1 1 1 1 0 1 0 1 1 1 @17 NEW_SIMPLE_ATTRIB 1 @9 ENTITY_ID 0 3 7 -2147483648 -1 #
face $119 -1 -1 $-1 $120 $121 $42 $-1 $122 forward single T -60 -60 -60 60 60 -60 F #
loop $-1 -1 -1 $-1 $-1 $123 $56 T -60 -60 60 60 60 60 unknown #
plane-surface $-1 -1 -1 $-1 0 0 60 0 0 1 1 0 0 forward_v I I I I #
simple-snl-attrib $-1 -1 $-1 $-1 $58 1 1 1 1 1 1 1 1 1 1 1 1 0 1 0 1 1 1 @17 NEW_SIMPLE_ATTRIB 1 @9 ENTITY_ID 0 3 2 -2147483648 -1 #
face $124 -1 -1 $-1 $125 $126 $23 $-1 $127 reversed single T -61.200000000000003 -61.200000000000003 -61.200000000000003 61.200000000000003 -61.200000000000003 61.200000000000003 F #
loop $-1 -1 -1 $-1 $-1 $128 $58 T -61.200000000000003 -61.200000000000003 -61.200000000000003 61.200000000000003 61.200000000000003 -61.200000000000003 unknown #
plane-surface $-1 -1 -1 $-1 0 0 -61.200000000000003 0 0 1 1 0 0 forward_v I I I I #
coedge $-1 -1 -1 $-1 $129 $130 $131 $132 forward $59 $-1 #
simple-snl-attrib $-1 -1 $133 $61 $45 1 1 1 1 1 1 1 1 1 1 1 1 0 1 0 1 1 1 @17 NEW_SIMPLE_ATTRIB 1 @9 ENTITY_ID 0 3 13 -2147483648 -1 #
simple-snl-attrib $-1 -1 $134 $-1 $63 1 1 1 1 1 1 1 1 1 1 1 1 0 1 0 1 1 1 @17 NEW_SIMPLE_ATTRIB 1 @9 UNIQUE_ID 1 0 1 687589018 #
sphere-surface $-1 -1 -1 $-1 0 0 0 20 1 0 0 0 0 1 forward_v I I I I #
simple-snl-attrib $-1 -1 $135 $64 $48 1 1 1 1 1 1 1 1 1 1 1 1 0 1 0 1 1 1 @17 NEW_SIMPLE_ATTRIB 1 @9 ENTITY_ID 0 3 14 -2147483648 -1 #
simple-snl-attrib $-1 -1 $136 $-1 $66 1 1 1 1 1 1 1 1 1 1 1 1 0 1 0 1 1 1 @17 NEW_SIMPLE_ATTRIB 1 @9 UNIQUE_ID 1 0 1 1384587364 #
sphere-surface $-1 -1 -1 $-1 0 0 0 25 1 0 0 0 0 1 forward_v I I I I #
simple-snl-attrib $-1 -1 $137 $67 $50 1 1 1 1 1 1 1 1 1 1 1 1 0 1 0 1 1 1 @17 NEW_SIMPLE_ATTRIB 1 @9 ENTITY_ID 0 3 16 1292084034 0 #
simple-snl-attrib $-1 -1 $138 $-1 $68 1 1 1 1 1 1 1 1 1 1 1 1 0 1 0 1 1 1 @17 NEW_SIMPLE_ATTRIB 1 @9 UNIQUE_ID 1 0 1 1351236216 #
loop $-1 -1 -1 $-1 $-1 $139 $68 T -4.9912826223378612 -4.9912826223378612 44.722333322222347 4.9912826223378612 4.9912826223378612 44.722333322222347 unknown #
sphere-surface $-1 -1 -1 $-1 0 0 45 4.9989999999999997 1 0 0 0 0 1 forward_v I I I I #
coedge $-1 -1 -1 $-1 $140 $140 $139 $141 forward $69 $-1 #
simple-snl-attrib $-1 -1 $142 $-1 $71 1 1 1 1 1 1 1 1 1 1 1 1 0 1 0 1 1 1 @17 NEW_SIMPLE_ATTRIB 1 @9 UNIQUE_ID 1 0 1 698230242 #
face $143 -1 -1 $-1 $-1 $144 $51 $-1 $145 reversed single T -4.9989999999999997 -4.9989999999999997 44.722333322222347 4.9989999999999997 4.9989999999999997 49.999000000000002 F #
loop $-1 -1 -1 $-1 $-1 $146 $71 T -4.9912826223378612 -4.9912826223378612 44.722333322222347 4.9912826223378612 4.9912826223378612 44.722333322222347 unknown #
sphere-surface $-1 -1 -1 $-1 0 0 0 45 1 0 0 0 0 1 forward_v I I I I #
simple-snl-attrib $-1 -1 $147 $72 $52 1 1 1 1 1 1 1 1 1 1 1 1 0 1 0 1 1 1 @17 NEW_SIMPLE_ATTRIB 1 @9 ENTITY_ID 0 3 19 -2147483648 -1 #
simple-snl-attrib $-1 -1 $148 $74 $53 1 1 1 1 1 1 1 1 1 1 1 1 0 1 0 1 1 1 @17 NEW_SIMPLE_ATTRIB 1 @9 ENTITY_ID 0 3 17 1292084034 1 #
simple-snl-attrib $-1 -1 $149 $-1 $75 1 1 1 1 1 1 1 1 1 1 1 1 0 1 0 1 1 1 @17 NEW_SIMPLE_ATTRIB 1 @9 UNIQUE_ID 1 0 1 1142760718 #
loop $-1 -1 -1 $-1 $-1 $150 $75 T -4.9912826223378612 -4.9912826223378612 44.722333322222347 4.9912826223378612 4.9912826223378612 44.722333322222347 unknown #
coedge $-1 -1 -1 $-1 $151 $151 $150 $152 reversed $76 $-1 #
simple-snl-attrib $-1 -1 $153 $-1 $78 1 1 1 1 1 1 1 1 1 1 1 1 0 1 0 1 1 1 @17 NEW_SIMPLE_ATTRIB 1 @9 UNIQUE_ID 1 0 1 2000240678 #
sphere-surface $-1 -1 -1 $-1 0 0 0 50 1 0 0 0 0 1 forward_v I I I I #
simple-snl-attrib $-1 -1 $-1 $-1 $80 1 1 1 1 1 1 1 1 1 1 1 1 0 1 0 1 1 1 @17 NEW_SIMPLE_ATTRIB 1 @9 ENTITY_ID 0 3 24 -2147483648 -1 #
face $154 -1 -1 $-1 $155 $156 $41 $-1 $157 reversed single T -60 -60 -60 60 -60 60 F #
loop $-1 -1 -1 $-1 $-1 $158 $80 T -60 -60 -60 60 60 -60 unknown #
plane-surface $-1 -1 -1 $-1 0 0 -60 0 0 1 1 0 0 forward_v I I I I #
coedge $-1 -1 -1 $-1 $159 $160 $161 $162 forward $81 $-1 #
simple-snl-attrib $-1 -1 $-1 $-1 $84 1 1 1 1 1 1 1 1 1 1 1 1 0 1 0 1 1 1 @17 NEW_SIMPLE_ATTRIB 1 @9 ENTITY_ID 0 3 8 -2147483648 -1 #
face $163 -1 -1 $-1 $164 $165 $42 $-1 $166 forward single T -60 -60 -60 60 -60 60 F #
loop $-1 -1 -1 $-1 $-1 $167 $84 T -60 -60 -60 60 60 -60 unknown #
plane-surface $-1 -1 -1 $-1 0 0 -60 0 0 1 1 0 0 forward_v I I I I #
coedge $-1 -1 -1 $-1 $168 $169 $170 $171 reversed $85 $-1 #
simple-snl-attrib $-1 -1 $-1 $-1 $88 1 1 1 1 1 1 1 1 1 1 1 1 0 1 0 1 1 1 @17 NEW_SIMPLE_ATTRIB 1 @9 ENTITY_ID 0 3 3 -2147483648 -1 #
face $172 -1 -1 $-1 $173 $174 $23 $-1 $175 reversed single T -61.200000000000003 -61.200000000000003 -61.200000000000003 -61.200000000000003 61.200000000000003 61.200000000000003 F #
loop $-1 -1 -1 $-1 $-1 $176 $88 T -61.200000000000003 -61.200000000000003 -61.200000000000003 61.200000000000003 -61.200000000000003 61.200000000000003 unknown #
plane-surface $-1 -1 -1 $-1 0 -61.200000000000003 0 0 1 -0 -0 0 1 forward_v I I I I #
coedge $-1 -1 -1 $-1 $177 $178 $179 $180 forward $89 $-1 #
coedge $-1 -1 -1 $-1 $181 $91 $182 $183 forward $59 $-1 #
coedge $-1 -1 -1 $-1 $91 $181 $184 $185 forward $59 $-1 #
coedge $-1 -1 -1 $-1 $186 $187 $91 $132 reversed $188 $-1 #
edge $189 -1 -1 $-1 $190 -61.200000000000003 $191 61.200000000000003 $131 $192 forward @7 unknown T 61.200000000000003 -61.200000000000003 61.200000000000003 61.200000000000003 61.200000000000003 61.200000000000003 #
simple-snl-attrib $-1 -1 $-1 $92 $45 1 1 1 1 1 1 1 1 1 1 1 1 0 1 0 1 1 1 @17 NEW_SIMPLE_ATTRIB 1 @13 MERGE_PARTNER 0 4 687589018 1 109 1 #
simple-snl-attrib $-1 -1 $193 $93 $63 1 1 1 1 1 1 1 1 1 1 1 1 0 1 0 1 1 1 @17 NEW_SIMPLE_ATTRIB 1 @9 ENTITY_ID 0 3 13 -2147483648 -1 #
simple-snl-attrib $-1 -1 $-1 $95 $48 1 1 1 1 1 1 1 1 1 1 1 1 0 1 0 1 1 1 @17 NEW_SIMPLE_ATTRIB 1 @13 MERGE_PARTNER 0 4 1384587364 1 124 1 #
simple-snl-attrib $-1 -1 $194 $96 $66 1 1 1 1 1 1 1 1 1 1 1 1 0 1 0 1 1 1 @17 NEW_SIMPLE_ATTRIB 1 @9 ENTITY_ID 0 3 14 -2147483648 -1 #
simple-snl-attrib $-1 -1 $-1 $98 $50 1 1 1 1 1 1 1 1 1 1 1 1 0 1 0 1 1 1 @17 NEW_SIMPLE_ATTRIB 1 @13 MERGE_PARTNER 0 4 698230242 1 141 1 #
simple-snl-attrib $-1 -1 $195 $99 $68 1 1 1 1 1 1 1 1 1 1 1 1 0 1 0 1 1 1 @17 NEW_SIMPLE_ATTRIB 1 @9 ENTITY_ID 0 3 17 1292084034 1 #
coedge $-1 -1 -1 $-1 $196 $196 $102 $141 reversed $100 $-1 #
coedge $-1 -1 -1 $-1 $102 $102 $196 $197 forward $69 $-1 #
edge $198 -1 -1 $-1 $199 -3.1415926535897931 $200 -1.224646799147353e-16 $139 $201 forward @7 unknown T 6.1125582870858683e-16 -4.9912826223378612 44.722333322222347 4.9912826223378612 4.9912826223378612 44.722333322222347 #
simple-snl-attrib $-1 -1 $202 $103 $71 1 1 1 1 1 1 1 1 1 1 1 1 0 1 0 1 1 1 @17 NEW_SIMPLE_ATTRIB 1 @9 ENTITY_ID 0 3 16 1292084034 0 #
simple-snl-attrib $-1 -1 $203 $-1 $104 1 1 1 1 1 1 1 1 1 1 1 1 0 1 0 1 1 1 @17 NEW_SIMPLE_ATTRIB 1 @9 UNIQUE_ID 1 0 1 1142760718 #
loop $-1 -1 -1 $-1 $-1 $204 $104 T -4.9912826223378612 -4.9912826223378612 44.722333322222347 4.9912826223378612 4.9912826223378612 44.722333322222347 unknown #
sphere-surface $-1 -1 -1 $-1 0 0 45 4.9989999999999997 1 0 0 0 0 1 forward_v I I I I #
coedge $-1 -1 -1 $-1 $205 $205 $204 $206 forward $105 $-1 #
simple-snl-attrib $-1 -1 $-1 $107 $52 1 1 1 1 1 1 1 1 1 1 1 1 0 1 0 1 1 1 @17 NEW_SIMPLE_ATTRIB 1 @13 MERGE_PARTNER 0 4 2000240678 1 159 1 #
simple-snl-attrib $-1 -1 $-1 $108 $53 1 1 1 1 1 1 1 1 1 1 1 1 0 1 0 1 1 1 @17 NEW_SIMPLE_ATTRIB 1 @13 MERGE_PARTNER 0 4 1351236216 -1 30 0 #
simple-snl-attrib $-1 -1 $207 $109 $75 1 1 1 1 1 1 1 1 1 1 1 1 0 1 0 1 1 1 @17 NEW_SIMPLE_ATTRIB 1 @9 ENTITY_ID 0 3 21 1292084034 0 #
coedge $-1 -1 -1 $-1 $208 $208 $111 $152 forward $110 $-1 #
coedge $-1 -1 -1 $-1 $111 $111 $208 $209 reversed $76 $-1 #
edge $210 -1 -1 $-1 $211 -3.1415926535897931 $212 -1.224646799147353e-16 $150 $213 forward @7 unknown T 6.1125582870858683e-16 -4.9912826223378612 44.722333322222347 4.9912826223378612 4.9912826223378612 44.722333322222347 #
simple-snl-attrib $-1 -1 $214 $112 $78 1 1 1 1 1 1 1 1 1 1 1 1 0 1 0 1 1 1 @17 NEW_SIMPLE_ATTRIB 1 @9 ENTITY_ID 0 3 19 -2147483648 -1 #
simple-snl-attrib $-1 -1 $-1 $-1 $115 1 1 1 1 1 1 1 1 1 1 1 1 0 1 0 1 1 1 @17 NEW_SIMPLE_ATTRIB 1 @9 ENTITY_ID 0 3 25 -2147483648 -1 #
face $215 -1 -1 $-1 $216 $217 $41 $-1 $218 reversed single T -60 -60 -60 -60 60 60 F #
loop $-1 -1 -1 $-1 $-1 $219 $115 T -60 -60 -60 60 -60 60 unknown #
plane-surface $-1 -1 -1 $-1 0 -60 0 0 1 -0 -0 0 1 forward_v I I I I #
coedge $-1 -1 -1 $-1 $220 $221 $222 $223 forward $116 $-1 #
coedge $-1 -1 -1 $-1 $224 $118 $225 $226 forward $81 $-1 #
coedge $-1 -1 -1 $-1 $118 $224 $227 $228 forward $81 $-1 #
coedge $-1 -1 -1 $-1 $229 $230 $118 $162 reversed $231 $-1 #
edge $232 -1 -1 $-1 $233 -60 $234 60 $161 $235 forward @7 unknown T 60 -60 60 60 60 60 #
simple-snl-attrib $-1 -1 $-1 $-1 $120 1 1 1 1 1 1 1 1 1 1 1 1 0 1 0 1 1 1 @17 NEW_SIMPLE_ATTRIB 1 @9 ENTITY_ID 0 3 9 -2147483648 -1 #
face $236 -1 -1 $-1 $237 $238 $42 $-1 $239 forward single T -60 -60 -60 -60 60 60 F #
loop $-1 -1 -1 $-1 $-1 $240 $120 T -60 -60 -60 60 -60 60 unknown #
plane-surface $-1 -1 -1 $-1 0 -60 0 0 1 -0 -0 0 1 forward_v I I I I #
coedge $-1 -1 -1 $-1 $241 $242 $243 $244 reversed $121 $-1 #
coedge $-1 -1 -1 $-1 $245 $123 $246 $247 reversed $85 $-1 #
coedge $-1 -1 -1 $-1 $123 $245 $248 $249 reversed $85 $-1 #
coedge $-1 -1 -1 $-1 $250 $251 $123 $171 forward $252 $-1 #
edge $253 -1 -1 $-1 $254 -60 $255 60 $170 $256 forward @7 unknown T 60 -60 60 60 60 60 #
simple-snl-attrib $-1 -1 $-1 $-1 $125 1 1 1 1 1 1 1 1 1 1 1 1 0 1 0 1 1 1 @17 NEW_SIMPLE_ATTRIB 1 @9 ENTITY_ID 0 3 4 -2147483648 -1 #
face $257 -1 -1 $-1 $258 $259 $23 $-1 $260 reversed single T -61.200000000000003 61.200000000000003 -61.200000000000003 61.200000000000003 61.200000000000003 61.200000000000003 F #
loop $-1 -1 -1 $-1 $-1 $261 $125 T -61.200000000000003 -61.200000000000003 -61.200000000000003 -61.200000000000003 61.200000000000003 61.200000000000003 unknown #
plane-surface $-1 -1 -1 $-1 -61.200000000000003 0 0 1 0 0 0 0 -1 forward_v I I I I #
coedge $-1 -1 -1 $-1 $262 $184 $263 $264 forward $126 $-1 #
coedge $-1 -1 -1 $-1 $265 $128 $262 $266 forward $89 $-1 #
coedge $-1 -1 -1 $-1 $128 $265 $267 $268 forward $89 $-1 #
coedge $-1 -1 -1 $-1 $187 $186 $128 $180 reversed $188 $-1 #
edge $269 -1 -1 $-1 $270 -61.200000000000003 $271 61.200000000000003 $179 $272 forward @7 unknown T 61.200000000000003 -61.200000000000003 -61.200000000000003 61.200000000000003 61.200000000000003 -61.200000000000003 #
coedge $-1 -1 -1 $-1 $130 $129 $273 $274 forward $59 $-1 #
coedge $-1 -1 -1 $-1 $275 $276 $129 $183 reversed $259 $-1 #
edge $277 -1 -1 $-1 $191 -61.200000000000003 $278 61.200000000000003 $182 $279 forward @7 unknown T -61.200000000000003 61.200000000000003 61.200000000000003 61.200000000000003 61.200000000000003 61.200000000000003 #
coedge $-1 -1 -1 $-1 $176 $280 $130 $185 reversed $126 $-1 #
edge $281 -1 -1 $-1 $282 -61.200000000000003 $190 61.200000000000003 $184 $283 forward @7 unknown T -61.200000000000003 -61.200000000000003 61.200000000000003 61.200000000000003 -61.200000000000003 61.200000000000003 #
coedge $-1 -1 -1 $-1 $179 $131 $280 $284 forward $188 $-1 #
coedge $-1 -1 -1 $-1 $131 $179 $275 $285 reversed $188 $-1 #
loop $-1 -1 -1 $-1 $-1 $186 $258 T 61.200000000000003 -61.200000000000003 -61.200000000000003 61.200000000000003 61.200000000000003 61.200000000000003 unknown #
simple-snl-attrib $-1 -1 $-1 $-1 $132 1 1 1 1 1 1 1 1 1 1 1 1 0 1 0 1 1 1 @17 NEW_SIMPLE_ATTRIB 1 @9 ENTITY_ID 0 3 37 -2147483648 -1 #
vertex $286 -1 -1 $-1 $132 $287 #
vertex $288 -1 -1 $-1 $132 $289 #
straight-curve $-1 -1 -1 $-1 61.200000000000003 0 61.200000000000003 0 1 0 I I #
simple-snl-attrib $-1 -1 $-1 $134 $63 1 1 1 1 1 1 1 1 1 1 1 1 0 1 0 1 1 1 @17 NEW_SIMPLE_ATTRIB 1 @13 MERGE_PARTNER 0 4 687589018 -1 15 0 #
simple-snl-attrib $-1 -1 $-1 $136 $66 1 1 1 1 1 1 1 1 1 1 1 1 0 1 0 1 1 1 @17 NEW_SIMPLE_ATTRIB 1 @13 MERGE_PARTNER 0 4 1384587364 -1 18 0 #
simple-snl-attrib $-1 -1 $-1 $138 $68 1 1 1 1 1 1 1 1 1 1 1 1 0 1 0 1 1 1 @17 NEW_SIMPLE_ATTRIB 1 @13 MERGE_PARTNER 0 4 1351236216 1 142 1 #
coedge $-1 -1 -1 $-1 $139 $139 $140 $197 reversed $100 $-1 #
edge $290 -1 -1 $-1 $200 -1.224646799147353e-16 $199 3.1415926535897931 $196 $201 forward @7 unknown T -4.9912826223378612 -4.9912826223378612 44.722333322222347 6.1125582870858683e-16 4.9912826223378612 44.722333322222347 #
simple-snl-attrib $-1 -1 $291 $-1 $141 1 1 1 1 1 1 1 1 1 1 1 1 0 1 0 1 1 1 @17 NEW_SIMPLE_ATTRIB 2 @14 SOURCE_FEATURE @7 IMPRINT 0 0 #
vertex $292 -1 -1 $-1 $197 $293 #
vertex $294 -1 -1 $-1 $197 $295 #
ellipse-curve $-1 -1 -1 $-1 0 0 44.722333322222347 -0 -0 -1 0 -4.9912826223378612 0 1 I I #
simple-snl-attrib $-1 -1 $-1 $142 $71 1 1 1 1 1 1 1 1 1 1 1 1 0 1 0 1 1 1 @17 NEW_SIMPLE_ATTRIB 1 @13 MERGE_PARTNER 0 4 698230242 -1 20 0 #
simple-snl-attrib $-1 -1 $296 $143 $104 1 1 1 1 1 1 1 1 1 1 1 1 0 1 0 1 1 1 @17 NEW_SIMPLE_ATTRIB 1 @9 ENTITY_ID 0 3 21 1292084034 0 #
coedge $-1 -1 -1 $-1 $297 $297 $146 $206 reversed $144 $-1 #
coedge $-1 -1 -1 $-1 $146 $146 $297 $298 forward $105 $-1 #
edge $299 -1 -1 $-1 $300 -3.1415926535897931 $301 -1.224646799147353e-16 $204 $302 forward @7 unknown T 6.1125582870858683e-16 -4.9912826223378612 44.722333322222347 4.9912826223378612 4.9912826223378612 44.722333322222347 #
simple-snl-attrib $-1 -1 $-1 $149 $75 1 1 1 1 1 1 1 1 1 1 1 1 0 1 0 1 1 1 @17 NEW_SIMPLE_ATTRIB 1 @13 MERGE_PARTNER 0 4 1142760718 -1 31 0 #
coedge $-1 -1 -1 $-1 $150 $150 $151 $209 forward $110 $-1 #
edge $303 -1 -1 $-1 $212 -1.224646799147353e-16 $211 3.1415926535897931 $208 $304 forward @7 unknown T -4.9912826223378612 -4.9912826223378612 44.722333322222347 6.1125582870858683e-16 4.9912826223378612 44.722333322222347 #
simple-snl-attrib $-1 -1 $305 $-1 $152 1 1 1 1 1 1 1 1 1 1 1 1 0 1 0 1 1 1 @17 NEW_SIMPLE_ATTRIB 2 @14 SOURCE_FEATURE @7 IMPRINT 0 0 #
vertex $306 -1 -1 $-1 $152 $307 #
vertex $308 -1 -1 $-1 $152 $309 #
ellipse-curve $-1 -1 -1 $-1 0 0 44.722333322222347 0 0 1 0 4.9912826223378612 0 1 I I #
simple-snl-attrib $-1 -1 $-1 $153 $78 1 1 1 1 1 1 1 1 1 1 1 1 0 1 0 1 1 1 @17 NEW_SIMPLE_ATTRIB 1 @13 MERGE_PARTNER 0 4 2000240678 -1 29 0 #
simple-snl-attrib $-1 -1 $-1 $-1 $155 1 1 1 1 1 1 1 1 1 1 1 1 0 1 0 1 1 1 @17 NEW_SIMPLE_ATTRIB 1 @9 ENTITY_ID 0 3 26 -2147483648 -1 #
face $310 -1 -1 $-1 $311 $312 $41 $-1 $313 reversed single T -60 60 -60 60 60 60 F #
loop $-1 -1 -1 $-1 $-1 $314 $155 T -60 -60 -60 -60 60 60 unknown #
plane-surface $-1 -1 -1 $-1 -60 0 0 1 0 0 0 0 -1 forward_v I I I I #
coedge $-1 -1 -1 $-1 $315 $227 $316 $317 forward $156 $-1 #
coedge $-1 -1 -1 $-1 $318 $158 $315 $319 forward $116 $-1 #
coedge $-1 -1 -1 $-1 $158 $318 $320 $321 forward $116 $-1 #
coedge $-1 -1 -1 $-1 $230 $229 $158 $223 reversed $231 $-1 #
edge $322 -1 -1 $-1 $323 -60 $324 60 $222 $325 forward @7 unknown T 60 -60 -60 60 60 -60 #
coedge $-1 -1 -1 $-1 $160 $159 $326 $327 forward $81 $-1 #
coedge $-1 -1 -1 $-1 $328 $329 $159 $226 reversed $312 $-1 #
edge $330 -1 -1 $-1 $234 -60 $331 60 $225 $332 forward @7 unknown T -60 60 60 60 60 60 #
coedge $-1 -1 -1 $-1 $219 $333 $160 $228 reversed $156 $-1 #
edge $334 -1 -1 $-1 $335 -60 $233 60 $227 $336 forward @7 unknown T -60 -60 60 60 -60 60 #
coedge $-1 -1 -1 $-1 $222 $161 $333 $337 forward $231 $-1 #
coedge $-1 -1 -1 $-1 $161 $222 $328 $338 reversed $231 $-1 #
loop $-1 -1 -1 $-1 $-1 $229 $311 T 60 -60 -60 60 60 60 unknown #
simple-snl-attrib $-1 -1 $-1 $-1 $162 1 1 1 1 1 1 1 1 1 1 1 1 0 1 0 1 1 1 @17 NEW_SIMPLE_ATTRIB 1 @9 ENTITY_ID 0 3 212 -2147483648 -1 #
vertex $339 -1 -1 $-1 $162 $340 #
vertex $341 -1 -1 $-1 $162 $342 #
straight-curve $-1 -1 -1 $-1 60 0 60 0 1 0 I I #
simple-snl-attrib $-1 -1 $-1 $-1 $164 1 1 1 1 1 1 1 1 1 1 1 1 0 1 0 1 1 1 @17 NEW_SIMPLE_ATTRIB 1 @9 ENTITY_ID 0 3 10 -2147483648 -1 #
face $343 -1 -1 $-1 $344 $345 $42 $-1 $346 forward single T -60 60 -60 60 60 60 F #
loop $-1 -1 -1 $-1 $-1 $347 $164 T -60 -60 -60 -60 60 60 unknown #
plane-surface $-1 -1 -1 $-1 -60 0 0 1 0 0 0 0 -1 forward_v I I I I #
coedge $-1 -1 -1 $-1 $246 $348 $349 $350 reversed $165 $-1 #
coedge $-1 -1 -1 $-1 $351 $167 $352 $353 reversed $121 $-1 #
coedge $-1 -1 -1 $-1 $167 $351 $348 $354 reversed $121 $-1 #
coedge $-1 -1 -1 $-1 $251 $250 $167 $244 forward $252 $-1 #
edge $355 -1 -1 $-1 $356 -60 $357 60 $243 $358 forward @7 unknown T 60 -60 -60 60 60 -60 #
coedge $-1 -1 -1 $-1 $169 $168 $359 $360 reversed $85 $-1 #
coedge $-1 -1 -1 $-1 $361 $240 $168 $247 forward $165 $-1 #
edge $362 -1 -1 $-1 $363 -60 $254 60 $246 $364 forward @7 unknown T -60 -60 60 60 -60 60 #
coedge $-1 -1 -1 $-1 $365 $366 $169 $249 forward $345 $-1 #
edge $367 -1 -1 $-1 $255 -60 $368 60 $248 $369 forward @7 unknown T -60 60 60 60 60 60 #
coedge $-1 -1 -1 $-1 $243 $170 $366 $370 forward $252 $-1 #
coedge $-1 -1 -1 $-1 $170 $243 $361 $371 reversed $252 $-1 #
loop $-1 -1 -1 $-1 $-1 $251 $344 T 60 -60 -60 60 60 60 unknown #
simple-snl-attrib $-1 -1 $-1 $-1 $171 1 1 1 1 1 1 1 1 1 1 1 1 0 1 0 1 1 1 @17 NEW_SIMPLE_ATTRIB 1 @9 ENTITY_ID 0 3 61 -2147483648 -1 #
vertex $372 -1 -1 $-1 $171 $373 #
vertex $374 -1 -1 $-1 $171 $375 #
straight-curve $-1 -1 -1 $-1 60 0 60 0 1 0 I I #
simple-snl-attrib $-1 -1 $-1 $-1 $173 1 1 1 1 1 1 1 1 1 1 1 1 0 1 0 1 1 1 @17 NEW_SIMPLE_ATTRIB 1 @9 ENTITY_ID 0 3 5 -2147483648 -1 #
face $376 -1 -1 $-1 $-1 $188 $23 $-1 $377 reversed single T 61.200000000000003 -61.200000000000003 -61.200000000000003 61.200000000000003 61.200000000000003 61.200000000000003 F #
loop $-1 -1 -1 $-1 $-1 $275 $173 T -61.200000000000003 61.200000000000003 -61.200000000000003 61.200000000000003 61.200000000000003 61.200000000000003 unknown #
plane-surface $-1 -1 -1 $-1 0 61.200000000000003 0 0 -1 0 0 0 -1 forward_v I I I I #
coedge $-1 -1 -1 $-1 $378 $273 $276 $379 forward $174 $-1 #
coedge $-1 -1 -1 $-1 $280 $176 $177 $266 reversed $126 $-1 #
coedge $-1 -1 -1 $-1 $273 $378 $176 $264 reversed $174 $-1 #
edge $380 -1 -1 $-1 $282 -61.200000000000003 $381 61.200000000000003 $263 $382 forward @7 unknown T -61.200000000000003 -61.200000000000003 -61.200000000000003 -61.200000000000003 -61.200000000000003 61.200000000000003 #
coedge $-1 -1 -1 $-1 $178 $177 $378 $383 forward $89 $-1 #
edge $384 -1 -1 $-1 $271 -61.200000000000003 $381 61.200000000000003 $262 $385 forward @7 unknown T -61.200000000000003 -61.200000000000003 -61.200000000000003 61.200000000000003 -61.200000000000003 -61.200000000000003 #
coedge $-1 -1 -1 $-1 $276 $275 $178 $268 reversed $259 $-1 #
edge $386 -1 -1 $-1 $387 -61.200000000000003 $270 61.200000000000003 $267 $388 forward @7 unknown T -61.200000000000003 61.200000000000003 -61.200000000000003 61.200000000000003 61.200000000000003 -61.200000000000003 #
simple-snl-attrib $-1 -1 $-1 $-1 $180 1 1 1 1 1 1 1 1 1 1 1 1 0 1 0 1 1 1 @17 NEW_SIMPLE_ATTRIB 1 @9 ENTITY_ID 0 3 41 -2147483648 -1 #
vertex $389 -1 -1 $-1 $180 $390 #
vertex $391 -1 -1 $-1 $284 $392 #
straight-curve $-1 -1 -1 $-1 61.200000000000003 0 -61.200000000000003 0 -1 0 I I #
coedge $-1 -1 -1 $-1 $261 $263 $181 $274 reversed $174 $-1 #
edge $393 -1 -1 $-1 $278 -61.200000000000003 $282 61.200000000000003 $273 $394 forward @7 unknown T -61.200000000000003 -61.200000000000003 61.200000000000003 -61.200000000000003 61.200000000000003 61.200000000000003 #
coedge $-1 -1 -1 $-1 $267 $182 $187 $285 forward $259 $-1 #
coedge $-1 -1 -1 $-1 $182 $267 $261 $379 reversed $259 $-1 #
simple-snl-attrib $-1 -1 $-1 $-1 $183 1 1 1 1 1 1 1 1 1 1 1 1 0 1 0 1 1 1 @17 NEW_SIMPLE_ATTRIB 1 @9 ENTITY_ID 0 3 38 -2147483648 -1 #
vertex $395 -1 -1 $-1 $183 $396 #
straight-curve $-1 -1 -1 $-1 0 61.200000000000003 61.200000000000003 -1 0 0 I I #
coedge $-1 -1 -1 $-1 $184 $262 $186 $284 reversed $126 $-1 #
simple-snl-attrib $-1 -1 $-1 $-1 $185 1 1 1 1 1 1 1 1 1 1 1 1 0 1 0 1 1 1 @17 NEW_SIMPLE_ATTRIB 1 @9 ENTITY_ID 0 3 40 -2147483648 -1 #
vertex $397 -1 -1 $-1 $274 $398 #
straight-curve $-1 -1 -1 $-1 0 -61.200000000000003 61.200000000000003 1 0 0 I I #
edge $399 -1 -1 $-1 $190 -61.200000000000003 $271 61.200000000000003 $186 $400 forward @7 unknown T 61.200000000000003 -61.200000000000003 -61.200000000000003 61.200000000000003 -61.200000000000003 61.200000000000003 #
edge $401 -1 -1 $-1 $191 -61.200000000000003 $270 61.200000000000003 $187 $402 forward @7 unknown T 61.200000000000003 61.200000000000003 -61.200000000000003 61.200000000000003 61.200000000000003 61.200000000000003 #
simple-snl-attrib $-1 -1 $-1 $-1 $190 1 1 1 1 1 1 1 1 1 1 1 1 0 1 0 1 1 1 @17 NEW_SIMPLE_ATTRIB 1 @9 ENTITY_ID 0 3 25 -2147483648 -1 #
point $-1 -1 -1 $-1 61.200000000000003 -61.200000000000003 61.200000000000003 #
simple-snl-attrib $-1 -1 $-1 $-1 $191 1 1 1 1 1 1 1 1 1 1 1 1 0 1 0 1 1 1 @17 NEW_SIMPLE_ATTRIB 1 @9 ENTITY_ID 0 3 26 -2147483648 -1 #
point $-1 -1 -1 $-1 61.200000000000003 61.200000000000003 61.200000000000003 #
simple-snl-attrib $-1 -1 $403 $-1 $197 1 1 1 1 1 1 1 1 1 1 1 1 0 1 0 1 1 1 @17 NEW_SIMPLE_ATTRIB 2 @14 SOURCE_FEATURE @7 IMPRINT 0 0 #
simple-snl-attrib $-1 -1 $404 $198 $141 1 1 1 1 1 1 1 1 1 1 1 1 0 1 0 1 1 1 @17 NEW_SIMPLE_ATTRIB 1 @9 ENTITY_ID 0 3 224 259823815 0 #
simple-snl-attrib $-1 -1 $405 $-1 $199 1 1 1 1 1 1 1 1 1 1 1 1 0 1 0 1 1 1 @17 NEW_SIMPLE_ATTRIB 1 @9 ENTITY_ID 0 3 101 -2147483648 -1 #
point $-1 -1 -1 $-1 6.1125582870858683e-16 4.9912826223378612 44.722333322222347 #
simple-snl-attrib $-1 -1 $406 $-1 $200 1 1 1 1 1 1 1 1 1 1 1 1 0 1 0 1 1 1 @17 NEW_SIMPLE_ATTRIB 1 @9 ENTITY_ID 0 3 119 -2147483648 -1 #
point $-1 -1 -1 $-1 6.1125582870858683e-16 -4.9912826223378612 44.722333322222347 #
simple-snl-attrib $-1 -1 $-1 $203 $104 1 1 1 1 1 1 1 1 1 1 1 1 0 1 0 1 1 1 @17 NEW_SIMPLE_ATTRIB 1 @13 MERGE_PARTNER 0 4 1142760718 1 161 1 #
coedge $-1 -1 -1 $-1 $204 $204 $205 $298 reversed $144 $-1 #
edge $407 -1 -1 $-1 $301 -1.224646799147353e-16 $300 3.1415926535897931 $297 $408 forward @7 unknown T -4.9912826223378612 -4.9912826223378612 44.722333322222347 6.1125582870858683e-16 4.9912826223378612 44.722333322222347 #
simple-snl-attrib $-1 -1 $409 $-1 $206 1 1 1 1 1 1 1 1 1 1 1 1 0 1 0 1 1 1 @17 NEW_SIMPLE_ATTRIB 2 @14 SOURCE_FEATURE @7 IMPRINT 0 0 #
vertex $410 -1 -1 $-1 $298 $411 #
vertex $412 -1 -1 $-1 $298 $413 #
ellipse-curve $-1 -1 -1 $-1 0 0 44.722333322222347 0 0 1 0 4.9912826223378612 0 1 I I #
simple-snl-attrib $-1 -1 $414 $-1 $209 1 1 1 1 1 1 1 1 1 1 1 1 0 1 0 1 1 1 @17 NEW_SIMPLE_ATTRIB 2 @14 SOURCE_FEATURE @7 IMPRINT 0 0 #
ellipse-curve $-1 -1 -1 $-1 0 0 44.722333322222347 0 0 1 0 4.9912826223378612 0 1 I I #
simple-snl-attrib $-1 -1 $415 $210 $152 1 1 1 1 1 1 1 1 1 1 1 1 0 1 0 1 1 1 @17 NEW_SIMPLE_ATTRIB 1 @9 ENTITY_ID 0 3 224 259823815 0 #
simple-snl-attrib $-1 -1 $416 $-1 $211 1 1 1 1 1 1 1 1 1 1 1 1 0 1 0 1 1 1 @17 NEW_SIMPLE_ATTRIB 1 @9 ENTITY_ID 0 3 119 -2147483648 -1 #
point $-1 -1 -1 $-1 6.1125582870858683e-16 -4.9912826223378612 44.722333322222347 #
simple-snl-attrib $-1 -1 $417 $-1 $212 1 1 1 1 1 1 1 1 1 1 1 1 0 1 0 1 1 1 @17 NEW_SIMPLE_ATTRIB 1 @9 ENTITY_ID 0 3 101 -2147483648 -1 #
point $-1 -1 -1 $-1 6.1125582870858683e-16 4.9912826223378612 44.722333322222347 #
simple-snl-attrib $-1 -1 $-1 $-1 $216 1 1 1 1 1 1 1 1 1 1 1 1 0 1 0 1 1 1 @17 NEW_SIMPLE_ATTRIB 1 @9 ENTITY_ID 0 3 27 -2147483648 -1 #
face $418 -1 -1 $-1 $-1 $231 $41 $-1 $419 reversed single T 60 -60 -60 60 60 60 F #
loop $-1 -1 -1 $-1 $-1 $328 $216 T -60 60 -60 60 60 60 unknown #
plane-surface $-1 -1 -1 $-1 0 60 0 0 -1 0 0 0 -1 forward_v I I I I #
coedge $-1 -1 -1 $-1 $420 $326 $329 $421 forward $217 $-1 #
coedge $-1 -1 -1 $-1 $333 $219 $220 $319 reversed $156 $-1 #
coedge $-1 -1 -1 $-1 $326 $420 $219 $317 reversed $217 $-1 #
edge $422 -1 -1 $-1 $335 -60 $423 60 $316 $424 forward @7 unknown T -60 -60 -60 -60 -60 60 #
coedge $-1 -1 -1 $-1 $221 $220 $420 $425 forward $116 $-1 #
edge $426 -1 -1 $-1 $324 -60 $423 60 $315 $427 forward @7 unknown T -60 -60 -60 60 -60 -60 #
coedge $-1 -1 -1 $-1 $329 $328 $221 $321 reversed $312 $-1 #
edge $428 -1 -1 $-1 $429 -60 $323 60 $320 $430 forward @7 unknown T -60 60 -60 60 60 -60 #
simple-snl-attrib $-1 -1 $-1 $-1 $223 1 1 1 1 1 1 1 1 1 1 1 1 0 1 0 1 1 1 @17 NEW_SIMPLE_ATTRIB 1 @9 ENTITY_ID 0 3 216 -2147483648 -1 #
vertex $431 -1 -1 $-1 $223 $432 #
vertex $433 -1 -1 $-1 $337 $434 #
straight-curve $-1 -1 -1 $-1 60 0 -60 0 -1 0 I I #
coedge $-1 -1 -1 $-1 $314 $316 $224 $327 reversed $217 $-1 #
edge $435 -1 -1 $-1 $331 -60 $335 60 $326 $436 forward @7 unknown T -60 -60 60 -60 60 60 #
coedge $-1 -1 -1 $-1 $320 $225 $230 $338 forward $312 $-1 #
coedge $-1 -1 -1 $-1 $225 $320 $314 $421 reversed $312 $-1 #
simple-snl-attrib $-1 -1 $-1 $-1 $226 1 1 1 1 1 1 1 1 1 1 1 1 0 1 0 1 1 1 @17 NEW_SIMPLE_ATTRIB 1 @9 ENTITY_ID 0 3 213 -2147483648 -1 #
vertex $437 -1 -1 $-1 $226 $438 #
straight-curve $-1 -1 -1 $-1 0 60 60 -1 0 0 I I #
coedge $-1 -1 -1 $-1 $227 $315 $229 $337 reversed $156 $-1 #
simple-snl-attrib $-1 -1 $-1 $-1 $228 1 1 1 1 1 1 1 1 1 1 1 1 0 1 0 1 1 1 @17 NEW_SIMPLE_ATTRIB 1 @9 ENTITY_ID 0 3 215 -2147483648 -1 #
vertex $439 -1 -1 $-1 $327 $440 #
straight-curve $-1 -1 -1 $-1 0 -60 60 1 0 0 I I #
edge $441 -1 -1 $-1 $233 -60 $324 60 $229 $442 forward @7 unknown T 60 -60 -60 60 -60 60 #
edge $443 -1 -1 $-1 $234 -60 $323 60 $230 $444 forward @7 unknown T 60 60 -60 60 60 60 #
simple-snl-attrib $-1 -1 $-1 $-1 $233 1 1 1 1 1 1 1 1 1 1 1 1 0 1 0 1 1 1 @17 NEW_SIMPLE_ATTRIB 1 @9 ENTITY_ID 0 3 144 -2147483648 -1 #
point $-1 -1 -1 $-1 60 -60 60 #
simple-snl-attrib $-1 -1 $-1 $-1 $234 1 1 1 1 1 1 1 1 1 1 1 1 0 1 0 1 1 1 @17 NEW_SIMPLE_ATTRIB 1 @9 ENTITY_ID 0 3 145 -2147483648 -1 #
point $-1 -1 -1 $-1 60 60 60 #
simple-snl-attrib $-1 -1 $-1 $-1 $237 1 1 1 1 1 1 1 1 1 1 1 1 0 1 0 1 1 1 @17 NEW_SIMPLE_ATTRIB 1 @9 ENTITY_ID 0 3 11 -2147483648 -1 #
face $445 -1 -1 $-1 $-1 $252 $42 $-1 $446 forward single T 60 -60 -60 60 60 60 F #
loop $-1 -1 -1 $-1 $-1 $366 $237 T -60 60 -60 60 60 60 unknown #
plane-surface $-1 -1 -1 $-1 0 60 0 0 -1 0 0 0 -1 forward_v I I I I #
coedge $-1 -1 -1 $-1 $359 $447 $365 $448 reversed $238 $-1 #
coedge $-1 -1 -1 $-1 $240 $361 $242 $354 forward $165 $-1 #
coedge $-1 -1 -1 $-1 $447 $359 $240 $350 forward $238 $-1 #
edge $449 -1 -1 $-1 $363 -60 $450 60 $349 $451 forward @7 unknown T -60 -60 -60 -60 -60 60 #
coedge $-1 -1 -1 $-1 $242 $241 $447 $452 reversed $121 $-1 #
coedge $-1 -1 -1 $-1 $366 $365 $241 $353 forward $345 $-1 #
edge $453 -1 -1 $-1 $454 -60 $356 60 $352 $455 forward @7 unknown T -60 60 -60 60 60 -60 #
edge $456 -1 -1 $-1 $357 -60 $450 60 $348 $457 forward @7 unknown T -60 -60 -60 60 -60 -60 #
simple-snl-attrib $-1 -1 $-1 $-1 $244 1 1 1 1 1 1 1 1 1 1 1 1 0 1 0 1 1 1 @17 NEW_SIMPLE_ATTRIB 1 @9 ENTITY_ID 0 3 65 -2147483648 -1 #
vertex $458 -1 -1 $-1 $244 $459 #
vertex $460 -1 -1 $-1 $371 $461 #
straight-curve $-1 -1 -1 $-1 60 0 -60 0 -1 0 I I #
coedge $-1 -1 -1 $-1 $349 $347 $245 $360 forward $238 $-1 #
edge $462 -1 -1 $-1 $368 -60 $363 60 $359 $463 forward @7 unknown T -60 -60 60 -60 60 60 #
coedge $-1 -1 -1 $-1 $348 $246 $251 $371 forward $165 $-1 #
simple-snl-attrib $-1 -1 $-1 $-1 $247 1 1 1 1 1 1 1 1 1 1 1 1 0 1 0 1 1 1 @17 NEW_SIMPLE_ATTRIB 1 @9 ENTITY_ID 0 3 62 -2147483648 -1 #
vertex $464 -1 -1 $-1 $360 $465 #
straight-curve $-1 -1 -1 $-1 0 -60 60 1 0 0 I I #
coedge $-1 -1 -1 $-1 $352 $248 $347 $448 forward $345 $-1 #
coedge $-1 -1 -1 $-1 $248 $352 $250 $370 reversed $345 $-1 #
simple-snl-attrib $-1 -1 $-1 $-1 $249 1 1 1 1 1 1 1 1 1 1 1 1 0 1 0 1 1 1 @17 NEW_SIMPLE_ATTRIB 1 @9 ENTITY_ID 0 3 64 -2147483648 -1 #
vertex $466 -1 -1 $-1 $249 $467 #
straight-curve $-1 -1 -1 $-1 0 60 60 -1 0 0 I I #
edge $468 -1 -1 $-1 $255 -60 $356 60 $250 $469 forward @7 unknown T 60 60 -60 60 60 60 #
edge $470 -1 -1 $-1 $254 -60 $357 60 $251 $471 forward @7 unknown T 60 -60 -60 60 -60 60 #
simple-snl-attrib $-1 -1 $-1 $-1 $254 1 1 1 1 1 1 1 1 1 1 1 1 0 1 0 1 1 1 @17 NEW_SIMPLE_ATTRIB 1 @9 ENTITY_ID 0 3 41 -2147483648 -1 #
point $-1 -1 -1 $-1 60 -60 60 #
simple-snl-attrib $-1 -1 $-1 $-1 $255 1 1 1 1 1 1 1 1 1 1 1 1 0 1 0 1 1 1 @17 NEW_SIMPLE_ATTRIB 1 @9 ENTITY_ID 0 3 42 -2147483648 -1 #
point $-1 -1 -1 $-1 60 60 60 #
simple-snl-attrib $-1 -1 $-1 $-1 $258 1 1 1 1 1 1 1 1 1 1 1 1 0 1 0 1 1 1 @17 NEW_SIMPLE_ATTRIB 1 @9 ENTITY_ID 0 3 6 -2147483648 -1 #
plane-surface $-1 -1 -1 $-1 61.200000000000003 0 0 -1 0 0 0 -0 1 forward_v I I I I #
coedge $-1 -1 -1 $-1 $263 $261 $265 $383 reversed $174 $-1 #
edge $472 -1 -1 $-1 $278 -61.200000000000003 $387 61.200000000000003 $276 $473 forward @7 unknown T -61.200000000000003 61.200000000000003 -61.200000000000003 -61.200000000000003 61.200000000000003 61.200000000000003 #
simple-snl-attrib $-1 -1 $-1 $-1 $264 1 1 1 1 1 1 1 1 1 1 1 1 0 1 0 1 1 1 @17 NEW_SIMPLE_ATTRIB 1 @9 ENTITY_ID 0 3 45 -2147483648 -1 #
vertex $474 -1 -1 $-1 $383 $475 #
straight-curve $-1 -1 -1 $-1 -61.200000000000003 -61.200000000000003 0 0 0 -1 I I #
edge $476 -1 -1 $-1 $381 -61.200000000000003 $387 61.200000000000003 $378 $477 forward @7 unknown T -61.200000000000003 -61.200000000000003 -61.200000000000003 -61.200000000000003 61.200000000000003 -61.200000000000003 #
simple-snl-attrib $-1 -1 $-1 $-1 $266 1 1 1 1 1 1 1 1 1 1 1 1 0 1 0 1 1 1 @17 NEW_SIMPLE_ATTRIB 1 @9 ENTITY_ID 0 3 42 -2147483648 -1 #
straight-curve $-1 -1 -1 $-1 0 -61.200000000000003 -61.200000000000003 -1 0 0 I I #
simple-snl-attrib $-1 -1 $-1 $-1 $268 1 1 1 1 1 1 1 1 1 1 1 1 0 1 0 1 1 1 @17 NEW_SIMPLE_ATTRIB 1 @9 ENTITY_ID 0 3 44 -2147483648 -1 #
vertex $478 -1 -1 $-1 $268 $479 #
straight-curve $-1 -1 -1 $-1 0 61.200000000000003 -61.200000000000003 1 0 0 I I #
simple-snl-attrib $-1 -1 $-1 $-1 $270 1 1 1 1 1 1 1 1 1 1 1 1 0 1 0 1 1 1 @17 NEW_SIMPLE_ATTRIB 1 @9 ENTITY_ID 0 3 29 -2147483648 -1 #
point $-1 -1 -1 $-1 61.200000000000003 61.200000000000003 -61.200000000000003 #
simple-snl-attrib $-1 -1 $-1 $-1 $271 1 1 1 1 1 1 1 1 1 1 1 1 0 1 0 1 1 1 @17 NEW_SIMPLE_ATTRIB 1 @9 ENTITY_ID 0 3 30 -2147483648 -1 #
point $-1 -1 -1 $-1 61.200000000000003 -61.200000000000003 -61.200000000000003 #
simple-snl-attrib $-1 -1 $-1 $-1 $274 1 1 1 1 1 1 1 1 1 1 1 1 0 1 0 1 1 1 @17 NEW_SIMPLE_ATTRIB 1 @9 ENTITY_ID 0 3 39 -2147483648 -1 #
straight-curve $-1 -1 -1 $-1 -61.200000000000003 0 61.200000000000003 0 -1 0 I I #
simple-snl-attrib $-1 -1 $-1 $-1 $278 1 1 1 1 1 1 1 1 1 1 1 1 0 1 0 1 1 1 @17 NEW_SIMPLE_ATTRIB 1 @9 ENTITY_ID 0 3 27 -2147483648 -1 #
point $-1 -1 -1 $-1 -61.200000000000003 61.200000000000003 61.200000000000003 #
simple-snl-attrib $-1 -1 $-1 $-1 $282 1 1 1 1 1 1 1 1 1 1 1 1 0 1 0 1 1 1 @17 NEW_SIMPLE_ATTRIB 1 @9 ENTITY_ID 0 3 28 -2147483648 -1 #
point $-1 -1 -1 $-1 -61.200000000000003 -61.200000000000003 61.200000000000003 #
simple-snl-attrib $-1 -1 $-1 $-1 $284 1 1 1 1 1 1 1 1 1 1 1 1 0 1 0 1 1 1 @17 NEW_SIMPLE_ATTRIB 1 @9 ENTITY_ID 0 3 46 -2147483648 -1 #
straight-curve $-1 -1 -1 $-1 61.200000000000003 -61.200000000000003 0 0 0 -1 I I #
simple-snl-attrib $-1 -1 $-1 $-1 $285 1 1 1 1 1 1 1 1 1 1 1 1 0 1 0 1 1 1 @17 NEW_SIMPLE_ATTRIB 1 @9 ENTITY_ID 0 3 48 -2147483648 -1 #
straight-curve $-1 -1 -1 $-1 61.200000000000003 61.200000000000003 0 0 0 -1 I I #
simple-snl-attrib $-1 -1 $480 $290 $197 1 1 1 1 1 1 1 1 1 1 1 1 0 1 0 1 1 1 @17 NEW_SIMPLE_ATTRIB 1 @9 UNIQUE_ID 1 0 1 873428706 #
simple-snl-attrib $-1 -1 $481 $291 $141 1 1 1 1 1 1 1 1 1 1 1 1 0 1 0 1 1 1 @17 NEW_SIMPLE_ATTRIB 1 @13 MERGE_PARTNER 0 4 1292084034 1 224 1 #
simple-snl-attrib $-1 -1 $482 $292 $199 1 1 1 1 1 1 1 1 1 1 1 1 0 1 0 1 1 1 @17 NEW_SIMPLE_ATTRIB 1 @13 MERGE_PARTNER 0 4 259823815 1 101 1 #
simple-snl-attrib $-1 -1 $483 $294 $200 1 1 1 1 1 1 1 1 1 1 1 1 0 1 0 1 1 1 @17 NEW_SIMPLE_ATTRIB 1 @13 MERGE_PARTNER 0 4 2028109296 1 152 0 #
simple-snl-attrib $-1 -1 $484 $-1 $298 1 1 1 1 1 1 1 1 1 1 1 1 0 1 0 1 1 1 @17 NEW_SIMPLE_ATTRIB 2 @14 SOURCE_FEATURE @7 IMPRINT 0 0 #
ellipse-curve $-1 -1 -1 $-1 0 0 44.722333322222347 0 0 1 0 4.9912826223378612 0 1 I I #
simple-snl-attrib $-1 -1 $485 $299 $206 1 1 1 1 1 1 1 1 1 1 1 1 0 1 0 1 1 1 @17 NEW_SIMPLE_ATTRIB 1 @9 ENTITY_ID 0 3 224 259823815 0 #
simple-snl-attrib $-1 -1 $486 $-1 $300 1 1 1 1 1 1 1 1 1 1 1 1 0 1 0 1 1 1 @17 NEW_SIMPLE_ATTRIB 1 @9 ENTITY_ID 0 3 119 -2147483648 -1 #
point $-1 -1 -1 $-1 6.1125582870858683e-16 -4.9912826223378612 44.722333322222347 #
simple-snl-attrib $-1 -1 $487 $-1 $301 1 1 1 1 1 1 1 1 1 1 1 1 0 1 0 1 1 1 @17 NEW_SIMPLE_ATTRIB 1 @9 ENTITY_ID 0 3 101 -2147483648 -1 #
point $-1 -1 -1 $-1 6.1125582870858683e-16 4.9912826223378612 44.722333322222347 #
simple-snl-attrib $-1 -1 $488 $303 $209 1 1 1 1 1 1 1 1 1 1 1 1 0 1 0 1 1 1 @17 NEW_SIMPLE_ATTRIB 1 @9 UNIQUE_ID 1 0 1 873428706 #
simple-snl-attrib $-1 -1 $489 $305 $152 1 1 1 1 1 1 1 1 1 1 1 1 0 1 0 1 1 1 @17 NEW_SIMPLE_ATTRIB 1 @13 MERGE_PARTNER 0 4 1292084034 -1 228 0 #
simple-snl-attrib $-1 -1 $490 $306 $211 1 1 1 1 1 1 1 1 1 1 1 1 0 1 0 1 1 1 @17 NEW_SIMPLE_ATTRIB 1 @13 MERGE_PARTNER 0 4 2028109296 1 154 0 #
simple-snl-attrib $-1 -1 $491 $308 $212 1 1 1 1 1 1 1 1 1 1 1 1 0 1 0 1 1 1 @17 NEW_SIMPLE_ATTRIB 1 @13 MERGE_PARTNER 0 4 259823815 1 155 0 #
simple-snl-attrib $-1 -1 $-1 $-1 $311 1 1 1 1 1 1 1 1 1 1 1 1 0 1 0 1 1 1 @17 NEW_SIMPLE_ATTRIB 1 @9 ENTITY_ID 0 3 28 -2147483648 -1 #
plane-surface $-1 -1 -1 $-1 60 0 0 -1 0 0 0 -0 1 forward_v I I I I #
coedge $-1 -1 -1 $-1 $316 $314 $318 $425 reversed $217 $-1 #
edge $492 -1 -1 $-1 $331 -60 $429 60 $329 $493 forward @7 unknown T -60 60 -60 -60 60 60 #
simple-snl-attrib $-1 -1 $-1 $-1 $317 1 1 1 1 1 1 1 1 1 1 1 1 0 1 0 1 1 1 @17 NEW_SIMPLE_ATTRIB 1 @9 ENTITY_ID 0 3 220 -2147483648 -1 #
vertex $494 -1 -1 $-1 $425 $495 #
straight-curve $-1 -1 -1 $-1 -60 -60 0 0 0 -1 I I #
edge $496 -1 -1 $-1 $423 -60 $429 60 $420 $497 forward @7 unknown T -60 -60 -60 -60 60 -60 #
simple-snl-attrib $-1 -1 $-1 $-1 $319 1 1 1 1 1 1 1 1 1 1 1 1 0 1 0 1 1 1 @17 NEW_SIMPLE_ATTRIB 1 @9 ENTITY_ID 0 3 217 -2147483648 -1 #
straight-curve $-1 -1 -1 $-1 0 -60 -60 -1 0 0 I I #
simple-snl-attrib $-1 -1 $-1 $-1 $321 1 1 1 1 1 1 1 1 1 1 1 1 0 1 0 1 1 1 @17 NEW_SIMPLE_ATTRIB 1 @9 ENTITY_ID 0 3 219 -2147483648 -1 #
vertex $498 -1 -1 $-1 $321 $499 #
straight-curve $-1 -1 -1 $-1 0 60 -60 1 0 0 I I #
simple-snl-attrib $-1 -1 $-1 $-1 $323 1 1 1 1 1 1 1 1 1 1 1 1 0 1 0 1 1 1 @17 NEW_SIMPLE_ATTRIB 1 @9 ENTITY_ID 0 3 148 -2147483648 -1 #
point $-1 -1 -1 $-1 60 60 -60 #
simple-snl-attrib $-1 -1 $-1 $-1 $324 1 1 1 1 1 1 1 1 1 1 1 1 0 1 0 1 1 1 @17 NEW_SIMPLE_ATTRIB 1 @9 ENTITY_ID 0 3 149 -2147483648 -1 #
point $-1 -1 -1 $-1 60 -60 -60 #
simple-snl-attrib $-1 -1 $-1 $-1 $327 1 1 1 1 1 1 1 1 1 1 1 1 0 1 0 1 1 1 @17 NEW_SIMPLE_ATTRIB 1 @9 ENTITY_ID 0 3 214 -2147483648 -1 #
straight-curve $-1 -1 -1 $-1 -60 0 60 0 -1 0 I I #
simple-snl-attrib $-1 -1 $-1 $-1 $331 1 1 1 1 1 1 1 1 1 1 1 1 0 1 0 1 1 1 @17 NEW_SIMPLE_ATTRIB 1 @9 ENTITY_ID 0 3 146 -2147483648 -1 #
point $-1 -1 -1 $-1 -60 60 60 #
simple-snl-attrib $-1 -1 $-1 $-1 $335 1 1 1 1 1 1 1 1 1 1 1 1 0 1 0 1 1 1 @17 NEW_SIMPLE_ATTRIB 1 @9 ENTITY_ID 0 3 147 -2147483648 -1 #
point $-1 -1 -1 $-1 -60 -60 60 #
simple-snl-attrib $-1 -1 $-1 $-1 $337 1 1 1 1 1 1 1 1 1 1 1 1 0 1 0 1 1 1 @17 NEW_SIMPLE_ATTRIB 1 @9 ENTITY_ID 0 3 221 -2147483648 -1 #
straight-curve $-1 -1 -1 $-1 60 -60 0 0 0 -1 I I #
simple-snl-attrib $-1 -1 $-1 $-1 $338 1 1 1 1 1 1 1 1 1 1 1 1 0 1 0 1 1 1 @17 NEW_SIMPLE_ATTRIB 1 @9 ENTITY_ID 0 3 223 -2147483648 -1 #
straight-curve $-1 -1 -1 $-1 60 60 0 0 0 -1 I I #
simple-snl-attrib $-1 -1 $-1 $-1 $344 1 1 1 1 1 1 1 1 1 1 1 1 0 1 0 1 1 1 @17 NEW_SIMPLE_ATTRIB 1 @9 ENTITY_ID 0 3 12 -2147483648 -1 #
plane-surface $-1 -1 -1 $-1 60 0 0 -1 0 0 0 -0 1 forward_v I I I I #
coedge $-1 -1 -1 $-1 $347 $349 $351 $452 forward $238 $-1 #
edge $500 -1 -1 $-1 $368 -60 $454 60 $365 $501 forward @7 unknown T -60 60 -60 -60 60 60 #
simple-snl-attrib $-1 -1 $-1 $-1 $350 1 1 1 1 1 1 1 1 1 1 1 1 0 1 0 1 1 1 @17 NEW_SIMPLE_ATTRIB 1 @9 ENTITY_ID 0 3 69 -2147483648 -1 #
vertex $502 -1 -1 $-1 $452 $503 #
straight-curve $-1 -1 -1 $-1 -60 -60 0 0 0 -1 I I #
edge $504 -1 -1 $-1 $450 -60 $454 60 $447 $505 forward @7 unknown T -60 -60 -60 -60 60 -60 #
simple-snl-attrib $-1 -1 $-1 $-1 $353 1 1 1 1 1 1 1 1 1 1 1 1 0 1 0 1 1 1 @17 NEW_SIMPLE_ATTRIB 1 @9 ENTITY_ID 0 3 66 -2147483648 -1 #
vertex $506 -1 -1 $-1 $353 $507 #
straight-curve $-1 -1 -1 $-1 0 60 -60 1 0 0 I I #
simple-snl-attrib $-1 -1 $-1 $-1 $354 1 1 1 1 1 1 1 1 1 1 1 1 0 1 0 1 1 1 @17 NEW_SIMPLE_ATTRIB 1 @9 ENTITY_ID 0 3 68 -2147483648 -1 #
straight-curve $-1 -1 -1 $-1 0 -60 -60 -1 0 0 I I #
simple-snl-attrib $-1 -1 $-1 $-1 $356 1 1 1 1 1 1 1 1 1 1 1 1 0 1 0 1 1 1 @17 NEW_SIMPLE_ATTRIB 1 @9 ENTITY_ID 0 3 45 -2147483648 -1 #
point $-1 -1 -1 $-1 60 60 -60 #
simple-snl-attrib $-1 -1 $-1 $-1 $357 1 1 1 1 1 1 1 1 1 1 1 1 0 1 0 1 1 1 @17 NEW_SIMPLE_ATTRIB 1 @9 ENTITY_ID 0 3 46 -2147483648 -1 #
point $-1 -1 -1 $-1 60 -60 -60 #
simple-snl-attrib $-1 -1 $-1 $-1 $360 1 1 1 1 1 1 1 1 1 1 1 1 0 1 0 1 1 1 @17 NEW_SIMPLE_ATTRIB 1 @9 ENTITY_ID 0 3 63 -2147483648 -1 #
straight-curve $-1 -1 -1 $-1 -60 0 60 0 -1 0 I I #
simple-snl-attrib $-1 -1 $-1 $-1 $363 1 1 1 1 1 1 1 1 1 1 1 1 0 1 0 1 1 1 @17 NEW_SIMPLE_ATTRIB 1 @9 ENTITY_ID 0 3 43 -2147483648 -1 #
point $-1 -1 -1 $-1 -60 -60 60 #
simple-snl-attrib $-1 -1 $-1 $-1 $368 1 1 1 1 1 1 1 1 1 1 1 1 0 1 0 1 1 1 @17 NEW_SIMPLE_ATTRIB 1 @9 ENTITY_ID 0 3 44 -2147483648 -1 #
point $-1 -1 -1 $-1 -60 60 60 #
simple-snl-attrib $-1 -1 $-1 $-1 $370 1 1 1 1 1 1 1 1 1 1 1 1 0 1 0 1 1 1 @17 NEW_SIMPLE_ATTRIB 1 @9 ENTITY_ID 0 3 72 -2147483648 -1 #
straight-curve $-1 -1 -1 $-1 60 60 0 0 0 -1 I I #
simple-snl-attrib $-1 -1 $-1 $-1 $371 1 1 1 1 1 1 1 1 1 1 1 1 0 1 0 1 1 1 @17 NEW_SIMPLE_ATTRIB 1 @9 ENTITY_ID 0 3 70 -2147483648 -1 #
straight-curve $-1 -1 -1 $-1 60 -60 0 0 0 -1 I I #
simple-snl-attrib $-1 -1 $-1 $-1 $379 1 1 1 1 1 1 1 1 1 1 1 1 0 1 0 1 1 1 @17 NEW_SIMPLE_ATTRIB 1 @9 ENTITY_ID 0 3 47 -2147483648 -1 #
straight-curve $-1 -1 -1 $-1 -61.200000000000003 61.200000000000003 0 0 0 -1 I I #
simple-snl-attrib $-1 -1 $-1 $-1 $381 1 1 1 1 1 1 1 1 1 1 1 1 0 1 0 1 1 1 @17 NEW_SIMPLE_ATTRIB 1 @9 ENTITY_ID 0 3 31 -2147483648 -1 #
point $-1 -1 -1 $-1 -61.200000000000003 -61.200000000000003 -61.200000000000003 #
simple-snl-attrib $-1 -1 $-1 $-1 $383 1 1 1 1 1 1 1 1 1 1 1 1 0 1 0 1 1 1 @17 NEW_SIMPLE_ATTRIB 1 @9 ENTITY_ID 0 3 43 -2147483648 -1 #
straight-curve $-1 -1 -1 $-1 -61.200000000000003 0 -61.200000000000003 0 1 0 I I #
simple-snl-attrib $-1 -1 $-1 $-1 $387 1 1 1 1 1 1 1 1 1 1 1 1 0 1 0 1 1 1 @17 NEW_SIMPLE_ATTRIB 1 @9 ENTITY_ID 0 3 32 -2147483648 -1 #
point $-1 -1 -1 $-1 -61.200000000000003 61.200000000000003 -61.200000000000003 #
simple-snl-attrib $-1 -1 $508 $403 $197 1 1 1 1 1 1 1 1 1 1 1 1 0 1 0 1 1 1 @17 NEW_SIMPLE_ATTRIB 1 @9 ENTITY_ID 0 3 225 2028109296 0 #
simple-snl-attrib $-1 -1 $-1 $404 $141 1 1 1 1 1 1 1 1 1 1 1 1 0 1 0 1 1 1 @17 NEW_SIMPLE_ATTRIB 1 @9 UNIQUE_ID 1 0 1 1292084034 #
simple-snl-attrib $-1 -1 $-1 $405 $199 1 1 1 1 1 1 1 1 1 1 1 1 0 1 0 1 1 1 @17 NEW_SIMPLE_ATTRIB 1 @9 UNIQUE_ID 1 0 1 259823815 #
simple-snl-attrib $-1 -1 $-1 $406 $200 1 1 1 1 1 1 1 1 1 1 1 1 0 1 0 1 1 1 @17 NEW_SIMPLE_ATTRIB 1 @9 UNIQUE_ID 1 0 1 2028109296 #
simple-snl-attrib $-1 -1 $509 $407 $298 1 1 1 1 1 1 1 1 1 1 1 1 0 1 0 1 1 1 @17 NEW_SIMPLE_ATTRIB 1 @9 UNIQUE_ID 1 0 1 873428706 #
simple-snl-attrib $-1 -1 $510 $409 $206 1 1 1 1 1 1 1 1 1 1 1 1 0 1 0 1 1 1 @17 NEW_SIMPLE_ATTRIB 1 @13 MERGE_PARTNER 0 4 1292084034 -1 226 0 #
simple-snl-attrib $-1 -1 $511 $410 $300 1 1 1 1 1 1 1 1 1 1 1 1 0 1 0 1 1 1 @17 NEW_SIMPLE_ATTRIB 1 @13 MERGE_PARTNER 0 4 2028109296 1 119 1 #
simple-snl-attrib $-1 -1 $512 $412 $301 1 1 1 1 1 1 1 1 1 1 1 1 0 1 0 1 1 1 @17 NEW_SIMPLE_ATTRIB 1 @13 MERGE_PARTNER 0 4 259823815 1 153 0 #
simple-snl-attrib $-1 -1 $513 $414 $209 1 1 1 1 1 1 1 1 1 1 1 1 0 1 0 1 1 1 @17 NEW_SIMPLE_ATTRIB 1 @9 ENTITY_ID 0 3 225 2028109296 0 #
simple-snl-attrib $-1 -1 $-1 $415 $152 1 1 1 1 1 1 1 1 1 1 1 1 0 1 0 1 1 1 @17 NEW_SIMPLE_ATTRIB 1 @9 UNIQUE_ID 1 0 1 1292084034 #
simple-snl-attrib $-1 -1 $-1 $416 $211 1 1 1 1 1 1 1 1 1 1 1 1 0 1 0 1 1 1 @17 NEW_SIMPLE_ATTRIB 1 @9 UNIQUE_ID 1 0 1 2028109296 #
simple-snl-attrib $-1 -1 $-1 $417 $212 1 1 1 1 1 1 1 1 1 1 1 1 0 1 0 1 1 1 @17 NEW_SIMPLE_ATTRIB 1 @9 UNIQUE_ID 1 0 1 259823815 #
simple-snl-attrib $-1 -1 $-1 $-1 $421 1 1 1 1 1 1 1 1 1 1 1 1 0 1 0 1 1 1 @17 NEW_SIMPLE_ATTRIB 1 @9 ENTITY_ID 0 3 222 -2147483648 -1 #
straight-curve $-1 -1 -1 $-1 -60 60 0 0 0 -1 I I #
simple-snl-attrib $-1 -1 $-1 $-1 $423 1 1 1 1 1 1 1 1 1 1 1 1 0 1 0 1 1 1 @17 NEW_SIMPLE_ATTRIB 1 @9 ENTITY_ID 0 3 150 -2147483648 -1 #
point $-1 -1 -1 $-1 -60 -60 -60 #
simple-snl-attrib $-1 -1 $-1 $-1 $425 1 1 1 1 1 1 1 1 1 1 1 1 0 1 0 1 1 1 @17 NEW_SIMPLE_ATTRIB 1 @9 ENTITY_ID 0 3 218 -2147483648 -1 #
straight-curve $-1 -1 -1 $-1 -60 0 -60 0 1 0 I I #
simple-snl-attrib $-1 -1 $-1 $-1 $429 1 1 1 1 1 1 1 1 1 1 1 1 0 1 0 1 1 1 @17 NEW_SIMPLE_ATTRIB 1 @9 ENTITY_ID 0 3 151 -2147483648 -1 #
point $-1 -1 -1 $-1 -60 60 -60 #
simple-snl-attrib $-1 -1 $-1 $-1 $448 1 1 1 1 1 1 1 1 1 1 1 1 0 1 0 1 1 1 @17 NEW_SIMPLE_ATTRIB 1 @9 ENTITY_ID 0 3 71 -2147483648 -1 #
straight-curve $-1 -1 -1 $-1 -60 60 0 0 0 -1 I I #
simple-snl-attrib $-1 -1 $-1 $-1 $450 1 1 1 1 1 1 1 1 1 1 1 1 0 1 0 1 1 1 @17 NEW_SIMPLE_ATTRIB 1 @9 ENTITY_ID 0 3 48 -2147483648 -1 #
point $-1 -1 -1 $-1 -60 -60 -60 #
simple-snl-attrib $-1 -1 $-1 $-1 $452 1 1 1 1 1 1 1 1 1 1 1 1 0 1 0 1 1 1 @17 NEW_SIMPLE_ATTRIB 1 @9 ENTITY_ID 0 3 67 -2147483648 -1 #
straight-curve $-1 -1 -1 $-1 -60 0 -60 0 1 0 I I #
simple-snl-attrib $-1 -1 $-1 $-1 $454 1 1 1 1 1 1 1 1 1 1 1 1 0 1 0 1 1 1 @17 NEW_SIMPLE_ATTRIB 1 @9 ENTITY_ID 0 3 47 -2147483648 -1 #
point $-1 -1 -1 $-1 -60 60 -60 #
simple-snl-attrib $-1 -1 $-1 $480 $197 1 1 1 1 1 1 1 1 1 1 1 1 0 1 0 1 1 1 @17 NEW_SIMPLE_ATTRIB 1 @13 MERGE_PARTNER 0 4 873428706 1 225 1 #
simple-snl-attrib $-1 -1 $514 $484 $298 1 1 1 1 1 1 1 1 1 1 1 1 0 1 0 1 1 1 @17 NEW_SIMPLE_ATTRIB 1 @9 ENTITY_ID 0 3 225 2028109296 0 #
simple-snl-attrib $-1 -1 $-1 $485 $206 1 1 1 1 1 1 1 1 1 1 1 1 0 1 0 1 1 1 @17 NEW_SIMPLE_ATTRIB 1 @9 UNIQUE_ID 1 0 1 1292084034 #
simple-snl-attrib $-1 -1 $-1 $486 $300 1 1 1 1 1 1 1 1 1 1 1 1 0 1 0 1 1 1 @17 NEW_SIMPLE_ATTRIB 1 @9 UNIQUE_ID 1 0 1 2028109296 #
simple-snl-attrib $-1 -1 $-1 $487 $301 1 1 1 1 1 1 1 1 1 1 1 1 0 1 0 1 1 1 @17 NEW_SIMPLE_ATTRIB 1 @9 UNIQUE_ID 1 0 1 259823815 #
simple-snl-attrib $-1 -1 $-1 $488 $209 1 1 1 1 1 1 1 1 1 1 1 1 0 1 0 1 1 1 @17 NEW_SIMPLE_ATTRIB 1 @13 MERGE_PARTNER 0 4 873428706 -1 229 0 #
simple-snl-attrib $-1 -1 $-1 $509 $298 1 1 1 1 1 1 1 1 1 1 1 1 0 1 0 1 1 1 @17 NEW_SIMPLE_ATTRIB 1 @13 MERGE_PARTNER 0 4 873428706 -1 227 0 #
End-of-ACIS-data 