1600 0 2 0           
10 Cubit 12.2 17 ACIS 19.0.2 Linux 24 Thu Jul 21 17:57:17 2011 
1 9.9999999999999995e-07 1e-10 
body $2 -1 -1 $-1 $3 $-1 $-1 T -1 -1 -1 1 1 1 #
body $4 -1 -1 $-1 $5 $-1 $-1 T -3 -3 -3 3 3 3 #
integer_attrib-name_attrib-gen-attrib $-1 -1 $6 $-1 $0 2 1 1 1 1 1 1 1 1 1 1 1 1 1 0 1 1 1 @8 CUBIT_ID 1 #
lump $7 -1 -1 $-1 $-1 $8 $0 T -1 -1 -1 1 1 1 #
integer_attrib-name_attrib-gen-attrib $-1 -1 $9 $-1 $1 2 1 1 1 1 1 1 1 1 1 1 1 1 1 0 1 1 1 @8 CUBIT_ID 4 #
lump $10 -1 -1 $-1 $-1 $11 $1 T -3 -3 -3 3 3 3 #
simple-snl-attrib $-1 -1 $-1 $2 $0 1 1 1 1 1 1 1 1 1 1 1 1 0 1 0 1 1 1 @17 NEW_SIMPLE_ATTRIB 1 @9 ENTITY_ID 0 3 1 -2147483648 -1 #
integer_attrib-name_attrib-gen-attrib $-1 -1 $12 $-1 $3 2 1 1 1 1 1 1 1 1 1 1 1 1 1 0 1 1 1 @8 CUBIT_ID 1 #
shell $-1 -1 -1 $-1 $-1 $-1 $13 $-1 $3 T -1 -1 -1 1 1 1 #
simple-snl-attrib $-1 -1 $-1 $4 $1 1 1 1 1 1 1 1 1 1 1 1 1 0 1 0 1 1 1 @17 NEW_SIMPLE_ATTRIB 1 @9 ENTITY_ID 0 3 4 -2147483648 -1 #
integer_attrib-name_attrib-gen-attrib $-1 -1 $14 $-1 $5 2 1 1 1 1 1 1 1 1 1 1 1 1 1 0 1 1 1 @8 CUBIT_ID 4 #
shell $-1 -1 -1 $-1 $15 $-1 $16 $-1 $5 T -3 -3 -3 3 3 3 #
simple-snl-attrib $-1 -1 $17 $7 $3 1 1 1 1 1 1 1 1 1 1 1 1 0 1 0 1 1 1 @17 NEW_SIMPLE_ATTRIB 1 @9 ENTITY_ID 0 3 1 -2147483648 -1 #
face $18 -1 -1 $-1 $19 $20 $8 $-1 $21 forward single T -1 -1 1 1 1 1 F #
simple-snl-attrib $-1 -1 $22 $10 $5 1 1 1 1 1 1 1 1 1 1 1 1 0 1 0 1 1 1 @17 NEW_SIMPLE_ATTRIB 1 @9 ENTITY_ID 0 3 4 -2147483648 -1 #
shell $-1 -1 -1 $-1 $-1 $-1 $23 $-1 $5 T -2.5 -2.5 -2.5 2.5 2.5 2.5 #
face $24 -1 -1 $-1 $25 $26 $11 $-1 $27 forward single T -3 -3 3 3 3 3 F #
simple-snl-attrib $-1 -1 $28 $12 $3 1 1 1 1 1 1 1 1 1 1 1 1 0 1 0 1 1 1 @17 NEW_SIMPLE_ATTRIB 7 @5 GROUP @19 tally_1_cell.flux_n @22 tally_1_cell.heating_n @15 mat_2_rho_-19.1 @22 tally_1_cell.fission_n @22 tally_1_pulse.height_p @6 picked 0 27 6 4 7 8 9 10 1 1038071058 135405481 1535551153 1453376282 98091505 1590169356 0 0 0 0 0 0 0 0 0 0 0 0 0 0 #
integer_attrib-name_attrib-gen-attrib $-1 -1 $29 $-1 $13 2 1 1 1 1 1 1 1 1 1 1 1 1 1 0 1 1 1 @8 CUBIT_ID 1 #
face $30 -1 -1 $-1 $31 $32 $8 $-1 $33 reversed single T -1 -1 -1 1 1 -1 F #
loop $-1 -1 -1 $-1 $-1 $34 $13 T -1 -1 1 1 1 1 unknown #
plane-surface $-1 -1 -1 $-1 0 0 1 0 0 1 1 0 0 forward_v I I I I #
simple-snl-attrib $-1 -1 $35 $14 $5 1 1 1 1 1 1 1 1 1 1 1 1 0 1 0 1 1 1 @17 NEW_SIMPLE_ATTRIB 3 @5 GROUP @9 graveyard @17 mat_1_rho_-1_comp 0 11 2 3 2 1311422948 1509010026 0 0 0 0 0 0 #
face $36 -1 -1 $-1 $37 $38 $15 $-1 $39 reversed single T -2.5 -2.5 2.5 2.5 2.5 2.5 F #
integer_attrib-name_attrib-gen-attrib $-1 -1 $40 $-1 $16 2 1 1 1 1 1 1 1 1 1 1 1 1 1 0 1 1 1 @8 CUBIT_ID 19 #
face $41 -1 -1 $-1 $42 $43 $11 $-1 $44 reversed single T -3 -3 -3 3 3 -3 F #
loop $-1 -1 -1 $-1 $-1 $45 $16 T -3 -3 3 3 3 3 periphery $27 F #
plane-surface $-1 -1 -1 $-1 0 0 3 0 0 1 1 0 0 forward_v I I I I #
simple-snl-attrib $-1 -1 $-1 $17 $3 1 1 1 1 1 1 1 1 1 1 1 1 0 1 0 1 1 1 @17 NEW_SIMPLE_ATTRIB 7 @16 GRAPHICS_OPTIONS @14 geometry color @10 mesh color @19 geometry visibility @15 mesh visibility @11 render mode @11 transparent 0 6 4 4 1 1 0 0 #
simple-snl-attrib $-1 -1 $46 $18 $13 1 1 1 1 1 1 1 1 1 1 1 1 0 1 0 1 1 1 @17 NEW_SIMPLE_ATTRIB 1 @9 ENTITY_ID 0 3 1 -2147483648 -1 #
integer_attrib-name_attrib-gen-attrib $-1 -1 $47 $-1 $19 2 1 1 1 1 1 1 1 1 1 1 1 1 1 0 1 1 1 @8 CUBIT_ID 2 #
face $48 -1 -1 $-1 $49 $50 $8 $-1 $51 reversed single T -1 -1 -1 1 -1 1 F #
loop $-1 -1 -1 $-1 $-1 $52 $19 T -1 -1 -1 1 1 -1 unknown #
plane-surface $-1 -1 -1 $-1 0 0 -1 0 0 1 1 0 0 forward_v I I I I #
coedge $-1 -1 -1 $-1 $53 $54 $55 $56 forward $20 $-1 #
simple-snl-attrib $-1 -1 $-1 $22 $5 1 1 1 1 1 1 1 1 1 1 1 1 0 1 0 1 1 1 @17 NEW_SIMPLE_ATTRIB 7 @16 GRAPHICS_OPTIONS @14 geometry color @10 mesh color @19 geometry visibility @15 mesh visibility @11 render mode @11 transparent 0 6 7 7 1 1 0 0 #
integer_attrib-name_attrib-gen-attrib $-1 -1 $57 $-1 $23 2 1 1 1 1 1 1 1 1 1 1 1 1 1 0 1 1 1 @8 CUBIT_ID 25 #
face $58 -1 -1 $-1 $59 $60 $15 $-1 $61 forward single T -2.5 -2.5 -2.5 2.5 2.5 -2.5 F #
loop $-1 -1 -1 $-1 $-1 $62 $23 T -2.5 -2.5 2.5 2.5 2.5 2.5 unknown #
plane-surface $-1 -1 -1 $-1 0 0 2.5 0 0 1 1 0 0 forward_v I I I I #
simple-snl-attrib $-1 -1 $63 $24 $16 1 1 1 1 1 1 1 1 1 1 1 1 0 1 0 1 1 1 @17 NEW_SIMPLE_ATTRIB 1 @9 ENTITY_ID 0 3 19 -2147483648 -1 #
integer_attrib-name_attrib-gen-attrib $-1 -1 $64 $-1 $25 2 1 1 1 1 1 1 1 1 1 1 1 1 1 0 1 1 1 @8 CUBIT_ID 20 #
face $65 -1 -1 $-1 $66 $67 $11 $-1 $68 reversed single T -3 -3 -3 3 -3 3 F #
loop $-1 -1 -1 $-1 $-1 $69 $25 T -3 -3 -3 3 3 -3 unknown #
plane-surface $-1 -1 -1 $-1 0 0 -3 0 0 1 1 0 0 forward_v I I I I #
coedge $-1 -1 -1 $-1 $70 $71 $72 $73 forward $26 $-1 #
simple-snl-attrib $-1 -1 $74 $29 $13 1 1 1 1 1 1 1 1 1 1 1 1 0 1 0 1 1 1 @17 NEW_SIMPLE_ATTRIB 3 @5 GROUP @22 tally_1_surf.current_n @19 tally_1_surf.flux_n 0 11 2 5 6 1707806395 753805244 0 0 0 0 0 0 #
simple-snl-attrib $-1 -1 $75 $30 $19 1 1 1 1 1 1 1 1 1 1 1 1 0 1 0 1 1 1 @17 NEW_SIMPLE_ATTRIB 1 @9 ENTITY_ID 0 3 2 -2147483648 -1 #
integer_attrib-name_attrib-gen-attrib $-1 -1 $76 $-1 $31 2 1 1 1 1 1 1 1 1 1 1 1 1 1 0 1 1 1 @8 CUBIT_ID 3 #
face $77 -1 -1 $-1 $78 $79 $8 $-1 $80 reversed single T -1 -1 -1 -1 1 1 F #
loop $-1 -1 -1 $-1 $-1 $81 $31 T -1 -1 -1 1 -1 1 unknown #
plane-surface $-1 -1 -1 $-1 0 -1 0 0 1 -0 -0 0 1 forward_v I I I I #
coedge $-1 -1 -1 $-1 $82 $83 $84 $85 forward $32 $-1 #
coedge $-1 -1 -1 $-1 $86 $34 $87 $88 forward $20 $-1 #
coedge $-1 -1 -1 $-1 $34 $86 $89 $90 forward $20 $-1 #
coedge $-1 -1 -1 $-1 $91 $92 $34 $56 reversed $93 $-1 #
edge $94 -1 -1 $-1 $95 -1 $96 1 $55 $97 forward @7 unknown T 1 -1 1 1 1 1 #
simple-snl-attrib $-1 -1 $98 $36 $23 1 1 1 1 1 1 1 1 1 1 1 1 0 1 0 1 1 1 @17 NEW_SIMPLE_ATTRIB 1 @9 ENTITY_ID 0 3 25 -2147483648 -1 #
integer_attrib-name_attrib-gen-attrib $-1 -1 $99 $-1 $37 2 1 1 1 1 1 1 1 1 1 1 1 1 1 0 1 1 1 @8 CUBIT_ID 26 #
face $100 -1 -1 $-1 $101 $102 $15 $-1 $103 forward single T -2.5 -2.5 -2.5 2.5 -2.5 2.5 F #
loop $-1 -1 -1 $-1 $-1 $104 $37 T -2.5 -2.5 -2.5 2.5 2.5 -2.5 unknown #
plane-surface $-1 -1 -1 $-1 0 0 -2.5 0 0 1 1 0 0 forward_v I I I I #
coedge $-1 -1 -1 $-1 $105 $106 $107 $108 reversed $38 $-1 #
simple-snl-attrib $-1 -1 $-1 $40 $16 1 1 1 1 1 1 1 1 1 1 1 1 0 1 0 1 1 1 @17 NEW_SIMPLE_ATTRIB 3 @13 MESH_INTERVAL @4 LIMP @4 LIMP 2 1 0 5 1 0 0 1 1 #
simple-snl-attrib $-1 -1 $109 $41 $25 1 1 1 1 1 1 1 1 1 1 1 1 0 1 0 1 1 1 @17 NEW_SIMPLE_ATTRIB 1 @9 ENTITY_ID 0 3 20 -2147483648 -1 #
integer_attrib-name_attrib-gen-attrib $-1 -1 $110 $-1 $42 2 1 1 1 1 1 1 1 1 1 1 1 1 1 0 1 1 1 @8 CUBIT_ID 21 #
face $111 -1 -1 $-1 $112 $113 $11 $-1 $114 reversed single T -3 -3 -3 -3 3 3 F #
loop $-1 -1 -1 $-1 $-1 $115 $42 T -3 -3 -3 3 -3 3 unknown #
plane-surface $-1 -1 -1 $-1 0 -3 0 0 1 -0 -0 0 1 forward_v I I I I #
coedge $-1 -1 -1 $-1 $116 $117 $118 $119 forward $43 $-1 #
coedge $-1 -1 -1 $-1 $120 $45 $121 $122 forward $26 $-1 #
coedge $-1 -1 -1 $-1 $45 $120 $123 $124 forward $26 $-1 #
coedge $-1 -1 -1 $-1 $125 $126 $45 $73 reversed $127 $-1 #
edge $128 -1 -1 $-1 $129 -3 $130 3 $72 $131 forward @7 unknown T 3 -3 3 3 3 3 #
simple-snl-attrib $-1 -1 $-1 $46 $13 1 1 1 1 1 1 1 1 1 1 1 1 0 1 0 1 1 1 @17 NEW_SIMPLE_ATTRIB 3 @13 MESH_INTERVAL @4 LIMP @4 LIMP 2 1 0 5 1 0 0 1 1 #
simple-snl-attrib $-1 -1 $-1 $47 $19 1 1 1 1 1 1 1 1 1 1 1 1 0 1 0 1 1 1 @17 NEW_SIMPLE_ATTRIB 3 @13 MESH_INTERVAL @4 LIMP @4 LIMP 2 1 0 5 1 0 0 1 1 #
simple-snl-attrib $-1 -1 $132 $48 $31 1 1 1 1 1 1 1 1 1 1 1 1 0 1 0 1 1 1 @17 NEW_SIMPLE_ATTRIB 1 @9 ENTITY_ID 0 3 3 -2147483648 -1 #
integer_attrib-name_attrib-gen-attrib $-1 -1 $133 $-1 $49 2 1 1 1 1 1 1 1 1 1 1 1 1 1 0 1 1 1 @8 CUBIT_ID 4 #
face $134 -1 -1 $-1 $135 $136 $8 $-1 $137 reversed single T -1 1 -1 1 1 1 F #
loop $-1 -1 -1 $-1 $-1 $138 $49 T -1 -1 -1 -1 1 1 unknown #
plane-surface $-1 -1 -1 $-1 -1 0 0 1 0 0 0 0 -1 forward_v I I I I #
coedge $-1 -1 -1 $-1 $139 $89 $140 $141 forward $50 $-1 #
coedge $-1 -1 -1 $-1 $142 $52 $139 $143 forward $32 $-1 #
coedge $-1 -1 -1 $-1 $52 $142 $144 $145 forward $32 $-1 #
coedge $-1 -1 -1 $-1 $92 $91 $52 $85 reversed $93 $-1 #
edge $146 -1 -1 $-1 $147 -1 $148 1 $84 $149 forward @7 unknown T 1 -1 -1 1 1 -1 #
coedge $-1 -1 -1 $-1 $54 $53 $150 $151 forward $20 $-1 #
coedge $-1 -1 -1 $-1 $152 $153 $53 $88 reversed $136 $-1 #
edge $154 -1 -1 $-1 $96 -1 $155 1 $87 $156 forward @7 unknown T -1 1 1 1 1 1 #
coedge $-1 -1 -1 $-1 $81 $157 $54 $90 reversed $50 $-1 #
edge $158 -1 -1 $-1 $159 -1 $95 1 $89 $160 forward @7 unknown T -1 -1 1 1 -1 1 #
coedge $-1 -1 -1 $-1 $84 $55 $157 $161 forward $93 $-1 #
coedge $-1 -1 -1 $-1 $55 $84 $152 $162 reversed $93 $-1 #
loop $-1 -1 -1 $-1 $-1 $91 $135 T 1 -1 -1 1 1 1 unknown #
integer_attrib-name_attrib-gen-attrib $-1 -1 $163 $-1 $56 2 1 1 1 1 1 1 1 1 1 1 1 1 1 0 1 1 1 @8 CUBIT_ID 1 #
vertex $164 -1 -1 $-1 $56 $165 #
vertex $166 -1 -1 $-1 $56 $167 #
straight-curve $-1 -1 -1 $-1 1 0 1 0 1 0 I I #
simple-snl-attrib $-1 -1 $-1 $57 $23 1 1 1 1 1 1 1 1 1 1 1 1 0 1 0 1 1 1 @17 NEW_SIMPLE_ATTRIB 3 @13 MESH_INTERVAL @4 LIMP @4 LIMP 2 1 0 5 1 0 0 1 1 #
simple-snl-attrib $-1 -1 $168 $58 $37 1 1 1 1 1 1 1 1 1 1 1 1 0 1 0 1 1 1 @17 NEW_SIMPLE_ATTRIB 1 @9 ENTITY_ID 0 3 26 -2147483648 -1 #
integer_attrib-name_attrib-gen-attrib $-1 -1 $169 $-1 $59 2 1 1 1 1 1 1 1 1 1 1 1 1 1 0 1 1 1 @8 CUBIT_ID 27 #
face $170 -1 -1 $-1 $171 $172 $15 $-1 $173 forward single T -2.5 -2.5 -2.5 -2.5 2.5 2.5 F #
loop $-1 -1 -1 $-1 $-1 $174 $59 T -2.5 -2.5 -2.5 2.5 -2.5 2.5 periphery $103 F #
plane-surface $-1 -1 -1 $-1 0 -2.5 0 0 1 -0 -0 0 1 forward_v I I I I #
coedge $-1 -1 -1 $-1 $175 $176 $177 $178 reversed $60 $-1 #
coedge $-1 -1 -1 $-1 $179 $62 $180 $181 reversed $38 $-1 #
coedge $-1 -1 -1 $-1 $62 $179 $182 $183 reversed $38 $-1 #
coedge $-1 -1 -1 $-1 $184 $185 $62 $108 forward $186 $-1 #
edge $187 -1 -1 $-1 $188 -2.5 $189 2.5 $107 $190 forward @7 unknown T 2.5 -2.5 2.5 2.5 2.5 2.5 #
simple-snl-attrib $-1 -1 $-1 $64 $25 1 1 1 1 1 1 1 1 1 1 1 1 0 1 0 1 1 1 @17 NEW_SIMPLE_ATTRIB 3 @13 MESH_INTERVAL @4 LIMP @4 LIMP 2 1 0 5 1 0 0 1 1 #
simple-snl-attrib $-1 -1 $191 $65 $42 1 1 1 1 1 1 1 1 1 1 1 1 0 1 0 1 1 1 @17 NEW_SIMPLE_ATTRIB 1 @9 ENTITY_ID 0 3 21 -2147483648 -1 #
integer_attrib-name_attrib-gen-attrib $-1 -1 $192 $-1 $66 2 1 1 1 1 1 1 1 1 1 1 1 1 1 0 1 1 1 @8 CUBIT_ID 22 #
face $193 -1 -1 $-1 $194 $195 $11 $-1 $196 reversed single T -3 3 -3 3 3 3 F #
loop $-1 -1 -1 $-1 $-1 $197 $66 T -3 -3 -3 -3 3 3 periphery $114 T #
plane-surface $-1 -1 -1 $-1 -3 0 0 1 0 0 0 0 -1 forward_v I I I I #
coedge $-1 -1 -1 $-1 $198 $123 $199 $200 forward $67 $-1 #
coedge $-1 -1 -1 $-1 $201 $69 $198 $202 forward $43 $-1 #
coedge $-1 -1 -1 $-1 $69 $201 $203 $204 forward $43 $-1 #
coedge $-1 -1 -1 $-1 $126 $125 $69 $119 reversed $127 $-1 #
edge $205 -1 -1 $-1 $206 -3 $207 3 $118 $208 forward @7 unknown T 3 -3 -3 3 3 -3 #
coedge $-1 -1 -1 $-1 $71 $70 $209 $210 forward $26 $-1 #
coedge $-1 -1 -1 $-1 $211 $212 $70 $122 reversed $195 $-1 #
edge $213 -1 -1 $-1 $130 -3 $214 3 $121 $215 forward @7 unknown T -3 3 3 3 3 3 #
coedge $-1 -1 -1 $-1 $115 $216 $71 $124 reversed $67 $-1 #
edge $217 -1 -1 $-1 $218 -3 $129 3 $123 $219 forward @7 unknown T -3 -3 3 3 -3 3 #
coedge $-1 -1 -1 $-1 $118 $72 $216 $220 forward $127 $-1 #
coedge $-1 -1 -1 $-1 $72 $118 $211 $221 reversed $127 $-1 #
loop $-1 -1 -1 $-1 $-1 $125 $194 T 3 -3 -3 3 3 3 unknown #
integer_attrib-name_attrib-gen-attrib $-1 -1 $222 $-1 $73 2 1 1 1 1 1 1 1 1 1 1 1 1 1 0 1 1 1 @8 CUBIT_ID 37 #
vertex $223 -1 -1 $-1 $73 $224 #
vertex $225 -1 -1 $-1 $73 $226 #
straight-curve $-1 -1 -1 $-1 3 0 3 0 1 0 I I #
simple-snl-attrib $-1 -1 $-1 $76 $31 1 1 1 1 1 1 1 1 1 1 1 1 0 1 0 1 1 1 @17 NEW_SIMPLE_ATTRIB 3 @13 MESH_INTERVAL @4 LIMP @4 LIMP 2 1 0 5 1 0 0 1 1 #
simple-snl-attrib $-1 -1 $227 $77 $49 1 1 1 1 1 1 1 1 1 1 1 1 0 1 0 1 1 1 @17 NEW_SIMPLE_ATTRIB 1 @9 ENTITY_ID 0 3 4 -2147483648 -1 #
integer_attrib-name_attrib-gen-attrib $-1 -1 $228 $-1 $78 2 1 1 1 1 1 1 1 1 1 1 1 1 1 0 1 1 1 @8 CUBIT_ID 5 #
face $229 -1 -1 $-1 $-1 $93 $8 $-1 $230 reversed single T 1 -1 -1 1 1 1 F #
loop $-1 -1 -1 $-1 $-1 $152 $78 T -1 1 -1 1 1 1 unknown #
plane-surface $-1 -1 -1 $-1 0 1 0 0 -1 0 0 0 -1 forward_v I I I I #
coedge $-1 -1 -1 $-1 $231 $150 $153 $232 forward $79 $-1 #
coedge $-1 -1 -1 $-1 $157 $81 $82 $143 reversed $50 $-1 #
coedge $-1 -1 -1 $-1 $150 $231 $81 $141 reversed $79 $-1 #
edge $233 -1 -1 $-1 $159 -1 $234 1 $140 $235 forward @7 unknown T -1 -1 -1 -1 -1 1 #
coedge $-1 -1 -1 $-1 $83 $82 $231 $236 forward $32 $-1 #
edge $237 -1 -1 $-1 $148 -1 $234 1 $139 $238 forward @7 unknown T -1 -1 -1 1 -1 -1 #
coedge $-1 -1 -1 $-1 $153 $152 $83 $145 reversed $136 $-1 #
edge $239 -1 -1 $-1 $240 -1 $147 1 $144 $241 forward @7 unknown T -1 1 -1 1 1 -1 #
integer_attrib-name_attrib-gen-attrib $-1 -1 $242 $-1 $85 2 1 1 1 1 1 1 1 1 1 1 1 1 1 0 1 1 1 @8 CUBIT_ID 5 #
vertex $243 -1 -1 $-1 $85 $244 #
vertex $245 -1 -1 $-1 $161 $246 #
straight-curve $-1 -1 -1 $-1 1 0 -1 0 -1 0 I I #
coedge $-1 -1 -1 $-1 $138 $140 $86 $151 reversed $79 $-1 #
edge $247 -1 -1 $-1 $155 -1 $159 1 $150 $248 forward @7 unknown T -1 -1 1 -1 1 1 #
coedge $-1 -1 -1 $-1 $144 $87 $92 $162 forward $136 $-1 #
coedge $-1 -1 -1 $-1 $87 $144 $138 $232 reversed $136 $-1 #
integer_attrib-name_attrib-gen-attrib $-1 -1 $249 $-1 $88 2 1 1 1 1 1 1 1 1 1 1 1 1 1 0 1 1 1 @8 CUBIT_ID 2 #
vertex $250 -1 -1 $-1 $88 $251 #
straight-curve $-1 -1 -1 $-1 0 1 1 -1 0 0 I I #
coedge $-1 -1 -1 $-1 $89 $139 $91 $161 reversed $50 $-1 #
integer_attrib-name_attrib-gen-attrib $-1 -1 $252 $-1 $90 2 1 1 1 1 1 1 1 1 1 1 1 1 1 0 1 1 1 @8 CUBIT_ID 4 #
vertex $253 -1 -1 $-1 $151 $254 #
straight-curve $-1 -1 -1 $-1 0 -1 1 1 0 0 I I #
edge $255 -1 -1 $-1 $95 -1 $148 1 $91 $256 forward @7 unknown T 1 -1 -1 1 -1 1 #
edge $257 -1 -1 $-1 $96 -1 $147 1 $92 $258 forward @7 unknown T 1 1 -1 1 1 1 #
simple-snl-attrib $-1 -1 $-1 $94 $56 1 1 1 1 1 1 1 1 1 1 1 1 0 1 0 1 1 1 @17 NEW_SIMPLE_ATTRIB 1 @9 ENTITY_ID 0 3 1 -2147483648 -1 #
integer_attrib-name_attrib-gen-attrib $-1 -1 $259 $-1 $95 2 1 1 1 1 1 1 1 1 1 1 1 1 1 0 1 1 1 @8 CUBIT_ID 1 #
point $-1 -1 -1 $-1 1 -1 1 #
integer_attrib-name_attrib-gen-attrib $-1 -1 $260 $-1 $96 2 1 1 1 1 1 1 1 1 1 1 1 1 1 0 1 1 1 @8 CUBIT_ID 2 #
point $-1 -1 -1 $-1 1 1 1 #
simple-snl-attrib $-1 -1 $-1 $99 $37 1 1 1 1 1 1 1 1 1 1 1 1 0 1 0 1 1 1 @17 NEW_SIMPLE_ATTRIB 3 @13 MESH_INTERVAL @4 LIMP @4 LIMP 2 1 0 5 1 0 0 1 1 #
simple-snl-attrib $-1 -1 $261 $100 $59 1 1 1 1 1 1 1 1 1 1 1 1 0 1 0 1 1 1 @17 NEW_SIMPLE_ATTRIB 1 @9 ENTITY_ID 0 3 27 -2147483648 -1 #
integer_attrib-name_attrib-gen-attrib $-1 -1 $262 $-1 $101 2 1 1 1 1 1 1 1 1 1 1 1 1 1 0 1 1 1 @8 CUBIT_ID 28 #
face $263 -1 -1 $-1 $264 $265 $15 $-1 $266 forward single T -2.5 2.5 -2.5 2.5 2.5 2.5 F #
loop $-1 -1 -1 $-1 $-1 $267 $101 T -2.5 -2.5 -2.5 -2.5 2.5 2.5 unknown #
plane-surface $-1 -1 -1 $-1 -2.5 0 0 1 0 0 0 0 -1 forward_v I I I I #
coedge $-1 -1 -1 $-1 $180 $268 $269 $270 reversed $102 $-1 #
coedge $-1 -1 -1 $-1 $271 $104 $272 $273 reversed $60 $-1 #
coedge $-1 -1 -1 $-1 $104 $271 $268 $274 reversed $60 $-1 #
coedge $-1 -1 -1 $-1 $185 $184 $104 $178 forward $186 $-1 #
edge $275 -1 -1 $-1 $276 -2.5 $277 2.5 $177 $278 forward @7 unknown T 2.5 -2.5 -2.5 2.5 2.5 -2.5 #
coedge $-1 -1 -1 $-1 $106 $105 $279 $280 reversed $38 $-1 #
coedge $-1 -1 -1 $-1 $281 $174 $105 $181 forward $102 $-1 #
edge $282 -1 -1 $-1 $283 -2.5 $188 2.5 $180 $284 forward @7 unknown T -2.5 -2.5 2.5 2.5 -2.5 2.5 #
coedge $-1 -1 -1 $-1 $285 $286 $106 $183 forward $265 $-1 #
edge $287 -1 -1 $-1 $189 -2.5 $288 2.5 $182 $289 forward @7 unknown T -2.5 2.5 2.5 2.5 2.5 2.5 #
coedge $-1 -1 -1 $-1 $177 $107 $286 $290 forward $186 $-1 #
coedge $-1 -1 -1 $-1 $107 $177 $281 $291 reversed $186 $-1 #
loop $-1 -1 -1 $-1 $-1 $185 $264 T 2.5 -2.5 -2.5 2.5 2.5 2.5 unknown #
integer_attrib-name_attrib-gen-attrib $-1 -1 $292 $-1 $108 2 1 1 1 1 1 1 1 1 1 1 1 1 1 0 1 1 1 @8 CUBIT_ID 49 #
vertex $293 -1 -1 $-1 $108 $294 #
vertex $295 -1 -1 $-1 $108 $296 #
straight-curve $-1 -1 -1 $-1 2.5 0 2.5 0 1 0 I I #
simple-snl-attrib $-1 -1 $-1 $110 $42 1 1 1 1 1 1 1 1 1 1 1 1 0 1 0 1 1 1 @17 NEW_SIMPLE_ATTRIB 3 @13 MESH_INTERVAL @4 LIMP @4 LIMP 2 1 0 5 1 0 0 1 1 #
simple-snl-attrib $-1 -1 $297 $111 $66 1 1 1 1 1 1 1 1 1 1 1 1 0 1 0 1 1 1 @17 NEW_SIMPLE_ATTRIB 1 @9 ENTITY_ID 0 3 22 -2147483648 -1 #
integer_attrib-name_attrib-gen-attrib $-1 -1 $298 $-1 $112 2 1 1 1 1 1 1 1 1 1 1 1 1 1 0 1 1 1 @8 CUBIT_ID 23 #
face $299 -1 -1 $-1 $-1 $127 $11 $-1 $300 reversed single T 3 -3 -3 3 3 3 F #
loop $-1 -1 -1 $-1 $-1 $211 $112 T -3 3 -3 3 3 3 unknown #
plane-surface $-1 -1 -1 $-1 0 3 0 0 -1 0 0 0 -1 forward_v I I I I #
coedge $-1 -1 -1 $-1 $301 $209 $212 $302 forward $113 $-1 #
coedge $-1 -1 -1 $-1 $216 $115 $116 $202 reversed $67 $-1 #
coedge $-1 -1 -1 $-1 $209 $301 $115 $200 reversed $113 $-1 #
edge $303 -1 -1 $-1 $218 -3 $304 3 $199 $305 forward @7 unknown T -3 -3 -3 -3 -3 3 #
coedge $-1 -1 -1 $-1 $117 $116 $301 $306 forward $43 $-1 #
edge $307 -1 -1 $-1 $207 -3 $304 3 $198 $308 forward @7 unknown T -3 -3 -3 3 -3 -3 #
coedge $-1 -1 -1 $-1 $212 $211 $117 $204 reversed $195 $-1 #
edge $309 -1 -1 $-1 $310 -3 $206 3 $203 $311 forward @7 unknown T -3 3 -3 3 3 -3 #
integer_attrib-name_attrib-gen-attrib $-1 -1 $312 $-1 $119 2 1 1 1 1 1 1 1 1 1 1 1 1 1 0 1 1 1 @8 CUBIT_ID 41 #
vertex $313 -1 -1 $-1 $119 $314 #
vertex $315 -1 -1 $-1 $220 $316 #
straight-curve $-1 -1 -1 $-1 3 0 -3 0 -1 0 I I #
coedge $-1 -1 -1 $-1 $197 $199 $120 $210 reversed $113 $-1 #
edge $317 -1 -1 $-1 $214 -3 $218 3 $209 $318 forward @7 unknown T -3 -3 3 -3 3 3 #
coedge $-1 -1 -1 $-1 $203 $121 $126 $221 forward $195 $-1 #
coedge $-1 -1 -1 $-1 $121 $203 $197 $302 reversed $195 $-1 #
integer_attrib-name_attrib-gen-attrib $-1 -1 $319 $-1 $122 2 1 1 1 1 1 1 1 1 1 1 1 1 1 0 1 1 1 @8 CUBIT_ID 38 #
vertex $320 -1 -1 $-1 $122 $321 #
straight-curve $-1 -1 -1 $-1 0 3 3 -1 0 0 I I #
coedge $-1 -1 -1 $-1 $123 $198 $125 $220 reversed $67 $-1 #
integer_attrib-name_attrib-gen-attrib $-1 -1 $322 $-1 $124 2 1 1 1 1 1 1 1 1 1 1 1 1 1 0 1 1 1 @8 CUBIT_ID 40 #
vertex $323 -1 -1 $-1 $210 $324 #
straight-curve $-1 -1 -1 $-1 0 -3 3 1 0 0 I I #
edge $325 -1 -1 $-1 $129 -3 $207 3 $125 $326 forward @7 unknown T 3 -3 -3 3 -3 3 #
edge $327 -1 -1 $-1 $130 -3 $206 3 $126 $328 forward @7 unknown T 3 3 -3 3 3 3 #
simple-snl-attrib $-1 -1 $-1 $128 $73 1 1 1 1 1 1 1 1 1 1 1 1 0 1 0 1 1 1 @17 NEW_SIMPLE_ATTRIB 1 @9 ENTITY_ID 0 3 37 -2147483648 -1 #
integer_attrib-name_attrib-gen-attrib $-1 -1 $329 $-1 $129 2 1 1 1 1 1 1 1 1 1 1 1 1 1 0 1 1 1 @8 CUBIT_ID 25 #
point $-1 -1 -1 $-1 3 -3 3 #
integer_attrib-name_attrib-gen-attrib $-1 -1 $330 $-1 $130 2 1 1 1 1 1 1 1 1 1 1 1 1 1 0 1 1 1 @8 CUBIT_ID 26 #
point $-1 -1 -1 $-1 3 3 3 #
simple-snl-attrib $-1 -1 $-1 $133 $49 1 1 1 1 1 1 1 1 1 1 1 1 0 1 0 1 1 1 @17 NEW_SIMPLE_ATTRIB 3 @13 MESH_INTERVAL @4 LIMP @4 LIMP 2 1 0 5 1 0 0 1 1 #
simple-snl-attrib $-1 -1 $331 $134 $78 1 1 1 1 1 1 1 1 1 1 1 1 0 1 0 1 1 1 @17 NEW_SIMPLE_ATTRIB 1 @9 ENTITY_ID 0 3 5 -2147483648 -1 #
integer_attrib-name_attrib-gen-attrib $-1 -1 $332 $-1 $135 2 1 1 1 1 1 1 1 1 1 1 1 1 1 0 1 1 1 @8 CUBIT_ID 6 #
plane-surface $-1 -1 -1 $-1 1 0 0 -1 0 0 0 -0 1 forward_v I I I I #
coedge $-1 -1 -1 $-1 $140 $138 $142 $236 reversed $79 $-1 #
edge $333 -1 -1 $-1 $155 -1 $240 1 $153 $334 forward @7 unknown T -1 1 -1 -1 1 1 #
integer_attrib-name_attrib-gen-attrib $-1 -1 $335 $-1 $141 2 1 1 1 1 1 1 1 1 1 1 1 1 1 0 1 1 1 @8 CUBIT_ID 9 #
vertex $336 -1 -1 $-1 $236 $337 #
straight-curve $-1 -1 -1 $-1 -1 -1 0 0 0 -1 I I #
edge $338 -1 -1 $-1 $234 -1 $240 1 $231 $339 forward @7 unknown T -1 -1 -1 -1 1 -1 #
integer_attrib-name_attrib-gen-attrib $-1 -1 $340 $-1 $143 2 1 1 1 1 1 1 1 1 1 1 1 1 1 0 1 1 1 @8 CUBIT_ID 6 #
straight-curve $-1 -1 -1 $-1 0 -1 -1 -1 0 0 I I #
integer_attrib-name_attrib-gen-attrib $-1 -1 $341 $-1 $145 2 1 1 1 1 1 1 1 1 1 1 1 1 1 0 1 1 1 @8 CUBIT_ID 8 #
vertex $342 -1 -1 $-1 $145 $343 #
straight-curve $-1 -1 -1 $-1 0 1 -1 1 0 0 I I #
simple-snl-attrib $-1 -1 $-1 $146 $85 1 1 1 1 1 1 1 1 1 1 1 1 0 1 0 1 1 1 @17 NEW_SIMPLE_ATTRIB 1 @9 ENTITY_ID 0 3 5 -2147483648 -1 #
integer_attrib-name_attrib-gen-attrib $-1 -1 $344 $-1 $147 2 1 1 1 1 1 1 1 1 1 1 1 1 1 0 1 1 1 @8 CUBIT_ID 5 #
point $-1 -1 -1 $-1 1 1 -1 #
integer_attrib-name_attrib-gen-attrib $-1 -1 $345 $-1 $148 2 1 1 1 1 1 1 1 1 1 1 1 1 1 0 1 1 1 @8 CUBIT_ID 6 #
point $-1 -1 -1 $-1 1 -1 -1 #
integer_attrib-name_attrib-gen-attrib $-1 -1 $346 $-1 $151 2 1 1 1 1 1 1 1 1 1 1 1 1 1 0 1 1 1 @8 CUBIT_ID 3 #
straight-curve $-1 -1 -1 $-1 -1 0 1 0 -1 0 I I #
simple-snl-attrib $-1 -1 $-1 $154 $88 1 1 1 1 1 1 1 1 1 1 1 1 0 1 0 1 1 1 @17 NEW_SIMPLE_ATTRIB 1 @9 ENTITY_ID 0 3 2 -2147483648 -1 #
integer_attrib-name_attrib-gen-attrib $-1 -1 $347 $-1 $155 2 1 1 1 1 1 1 1 1 1 1 1 1 1 0 1 1 1 @8 CUBIT_ID 3 #
point $-1 -1 -1 $-1 -1 1 1 #
simple-snl-attrib $-1 -1 $-1 $158 $90 1 1 1 1 1 1 1 1 1 1 1 1 0 1 0 1 1 1 @17 NEW_SIMPLE_ATTRIB 1 @9 ENTITY_ID 0 3 4 -2147483648 -1 #
integer_attrib-name_attrib-gen-attrib $-1 -1 $348 $-1 $159 2 1 1 1 1 1 1 1 1 1 1 1 1 1 0 1 1 1 @8 CUBIT_ID 4 #
point $-1 -1 -1 $-1 -1 -1 1 #
integer_attrib-name_attrib-gen-attrib $-1 -1 $349 $-1 $161 2 1 1 1 1 1 1 1 1 1 1 1 1 1 0 1 1 1 @8 CUBIT_ID 10 #
straight-curve $-1 -1 -1 $-1 1 -1 0 0 0 -1 I I #
integer_attrib-name_attrib-gen-attrib $-1 -1 $350 $-1 $162 2 1 1 1 1 1 1 1 1 1 1 1 1 1 0 1 1 1 @8 CUBIT_ID 12 #
straight-curve $-1 -1 -1 $-1 1 1 0 0 0 -1 I I #
simple-snl-attrib $-1 -1 $-1 $164 $95 1 1 1 1 1 1 1 1 1 1 1 1 0 1 0 1 1 1 @17 NEW_SIMPLE_ATTRIB 1 @9 ENTITY_ID 0 3 1 -2147483648 -1 #
simple-snl-attrib $-1 -1 $-1 $166 $96 1 1 1 1 1 1 1 1 1 1 1 1 0 1 0 1 1 1 @17 NEW_SIMPLE_ATTRIB 1 @9 ENTITY_ID 0 3 2 -2147483648 -1 #
simple-snl-attrib $-1 -1 $-1 $169 $59 1 1 1 1 1 1 1 1 1 1 1 1 0 1 0 1 1 1 @17 NEW_SIMPLE_ATTRIB 3 @13 MESH_INTERVAL @4 LIMP @4 LIMP 2 1 0 5 1 0 0 1 1 #
simple-snl-attrib $-1 -1 $351 $170 $101 1 1 1 1 1 1 1 1 1 1 1 1 0 1 0 1 1 1 @17 NEW_SIMPLE_ATTRIB 1 @9 ENTITY_ID 0 3 28 -2147483648 -1 #
integer_attrib-name_attrib-gen-attrib $-1 -1 $352 $-1 $171 2 1 1 1 1 1 1 1 1 1 1 1 1 1 0 1 1 1 @8 CUBIT_ID 29 #
face $353 -1 -1 $-1 $-1 $186 $15 $-1 $354 forward single T 2.5 -2.5 -2.5 2.5 2.5 2.5 F #
loop $-1 -1 -1 $-1 $-1 $286 $171 T -2.5 2.5 -2.5 2.5 2.5 2.5 unknown #
plane-surface $-1 -1 -1 $-1 0 2.5 0 0 -1 0 0 0 -1 forward_v I I I I #
coedge $-1 -1 -1 $-1 $279 $355 $285 $356 reversed $172 $-1 #
coedge $-1 -1 -1 $-1 $174 $281 $176 $274 forward $102 $-1 #
coedge $-1 -1 -1 $-1 $355 $279 $174 $270 forward $172 $-1 #
edge $357 -1 -1 $-1 $283 -2.5 $358 2.5 $269 $359 forward @7 unknown T -2.5 -2.5 -2.5 -2.5 -2.5 2.5 #
coedge $-1 -1 -1 $-1 $176 $175 $355 $360 reversed $60 $-1 #
coedge $-1 -1 -1 $-1 $286 $285 $175 $273 forward $265 $-1 #
edge $361 -1 -1 $-1 $362 -2.5 $276 2.5 $272 $363 forward @7 unknown T -2.5 2.5 -2.5 2.5 2.5 -2.5 #
edge $364 -1 -1 $-1 $277 -2.5 $358 2.5 $268 $365 forward @7 unknown T -2.5 -2.5 -2.5 2.5 -2.5 -2.5 #
integer_attrib-name_attrib-gen-attrib $-1 -1 $366 $-1 $178 2 1 1 1 1 1 1 1 1 1 1 1 1 1 0 1 1 1 @8 CUBIT_ID 53 #
vertex $367 -1 -1 $-1 $178 $368 #
vertex $369 -1 -1 $-1 $291 $370 #
straight-curve $-1 -1 -1 $-1 2.5 0 -2.5 0 -1 0 I I #
coedge $-1 -1 -1 $-1 $269 $267 $179 $280 forward $172 $-1 #
edge $371 -1 -1 $-1 $288 -2.5 $283 2.5 $279 $372 forward @7 unknown T -2.5 -2.5 2.5 -2.5 2.5 2.5 #
coedge $-1 -1 -1 $-1 $268 $180 $185 $291 forward $102 $-1 #
integer_attrib-name_attrib-gen-attrib $-1 -1 $373 $-1 $181 2 1 1 1 1 1 1 1 1 1 1 1 1 1 0 1 1 1 @8 CUBIT_ID 50 #
vertex $374 -1 -1 $-1 $280 $375 #
straight-curve $-1 -1 -1 $-1 0 -2.5 2.5 1 0 0 I I #
coedge $-1 -1 -1 $-1 $272 $182 $267 $356 forward $265 $-1 #
coedge $-1 -1 -1 $-1 $182 $272 $184 $290 reversed $265 $-1 #
integer_attrib-name_attrib-gen-attrib $-1 -1 $376 $-1 $183 2 1 1 1 1 1 1 1 1 1 1 1 1 1 0 1 1 1 @8 CUBIT_ID 52 #
vertex $377 -1 -1 $-1 $183 $378 #
straight-curve $-1 -1 -1 $-1 0 2.5 2.5 -1 0 0 I I #
edge $379 -1 -1 $-1 $189 -2.5 $276 2.5 $184 $380 forward @7 unknown T 2.5 2.5 -2.5 2.5 2.5 2.5 #
edge $381 -1 -1 $-1 $188 -2.5 $277 2.5 $185 $382 forward @7 unknown T 2.5 -2.5 -2.5 2.5 -2.5 2.5 #
simple-snl-attrib $-1 -1 $-1 $187 $108 1 1 1 1 1 1 1 1 1 1 1 1 0 1 0 1 1 1 @17 NEW_SIMPLE_ATTRIB 1 @9 ENTITY_ID 0 3 49 -2147483648 -1 #
integer_attrib-name_attrib-gen-attrib $-1 -1 $383 $-1 $188 2 1 1 1 1 1 1 1 1 1 1 1 1 1 0 1 1 1 @8 CUBIT_ID 33 #
point $-1 -1 -1 $-1 2.5 -2.5 2.5 #
integer_attrib-name_attrib-gen-attrib $-1 -1 $384 $-1 $189 2 1 1 1 1 1 1 1 1 1 1 1 1 1 0 1 1 1 @8 CUBIT_ID 34 #
point $-1 -1 -1 $-1 2.5 2.5 2.5 #
simple-snl-attrib $-1 -1 $-1 $192 $66 1 1 1 1 1 1 1 1 1 1 1 1 0 1 0 1 1 1 @17 NEW_SIMPLE_ATTRIB 3 @13 MESH_INTERVAL @4 LIMP @4 LIMP 2 1 0 5 1 0 0 1 1 #
simple-snl-attrib $-1 -1 $385 $193 $112 1 1 1 1 1 1 1 1 1 1 1 1 0 1 0 1 1 1 @17 NEW_SIMPLE_ATTRIB 1 @9 ENTITY_ID 0 3 23 -2147483648 -1 #
integer_attrib-name_attrib-gen-attrib $-1 -1 $386 $-1 $194 2 1 1 1 1 1 1 1 1 1 1 1 1 1 0 1 1 1 @8 CUBIT_ID 24 #
plane-surface $-1 -1 -1 $-1 3 0 0 -1 0 0 0 -0 1 forward_v I I I I #
coedge $-1 -1 -1 $-1 $199 $197 $201 $306 reversed $113 $-1 #
edge $387 -1 -1 $-1 $214 -3 $310 3 $212 $388 forward @7 unknown T -3 3 -3 -3 3 3 #
integer_attrib-name_attrib-gen-attrib $-1 -1 $389 $-1 $200 2 1 1 1 1 1 1 1 1 1 1 1 1 1 0 1 1 1 @8 CUBIT_ID 45 #
vertex $390 -1 -1 $-1 $306 $391 #
straight-curve $-1 -1 -1 $-1 -3 -3 0 0 0 -1 I I #
edge $392 -1 -1 $-1 $304 -3 $310 3 $301 $393 forward @7 unknown T -3 -3 -3 -3 3 -3 #
integer_attrib-name_attrib-gen-attrib $-1 -1 $394 $-1 $202 2 1 1 1 1 1 1 1 1 1 1 1 1 1 0 1 1 1 @8 CUBIT_ID 42 #
straight-curve $-1 -1 -1 $-1 0 -3 -3 -1 0 0 I I #
integer_attrib-name_attrib-gen-attrib $-1 -1 $395 $-1 $204 2 1 1 1 1 1 1 1 1 1 1 1 1 1 0 1 1 1 @8 CUBIT_ID 44 #
vertex $396 -1 -1 $-1 $204 $397 #
straight-curve $-1 -1 -1 $-1 0 3 -3 1 0 0 I I #
simple-snl-attrib $-1 -1 $-1 $205 $119 1 1 1 1 1 1 1 1 1 1 1 1 0 1 0 1 1 1 @17 NEW_SIMPLE_ATTRIB 1 @9 ENTITY_ID 0 3 41 -2147483648 -1 #
integer_attrib-name_attrib-gen-attrib $-1 -1 $398 $-1 $206 2 1 1 1 1 1 1 1 1 1 1 1 1 1 0 1 1 1 @8 CUBIT_ID 29 #
point $-1 -1 -1 $-1 3 3 -3 #
integer_attrib-name_attrib-gen-attrib $-1 -1 $399 $-1 $207 2 1 1 1 1 1 1 1 1 1 1 1 1 1 0 1 1 1 @8 CUBIT_ID 30 #
point $-1 -1 -1 $-1 3 -3 -3 #
integer_attrib-name_attrib-gen-attrib $-1 -1 $400 $-1 $210 2 1 1 1 1 1 1 1 1 1 1 1 1 1 0 1 1 1 @8 CUBIT_ID 39 #
straight-curve $-1 -1 -1 $-1 -3 0 3 0 -1 0 I I #
simple-snl-attrib $-1 -1 $-1 $213 $122 1 1 1 1 1 1 1 1 1 1 1 1 0 1 0 1 1 1 @17 NEW_SIMPLE_ATTRIB 1 @9 ENTITY_ID 0 3 38 -2147483648 -1 #
integer_attrib-name_attrib-gen-attrib $-1 -1 $401 $-1 $214 2 1 1 1 1 1 1 1 1 1 1 1 1 1 0 1 1 1 @8 CUBIT_ID 27 #
point $-1 -1 -1 $-1 -3 3 3 #
simple-snl-attrib $-1 -1 $-1 $217 $124 1 1 1 1 1 1 1 1 1 1 1 1 0 1 0 1 1 1 @17 NEW_SIMPLE_ATTRIB 1 @9 ENTITY_ID 0 3 40 -2147483648 -1 #
integer_attrib-name_attrib-gen-attrib $-1 -1 $402 $-1 $218 2 1 1 1 1 1 1 1 1 1 1 1 1 1 0 1 1 1 @8 CUBIT_ID 28 #
point $-1 -1 -1 $-1 -3 -3 3 #
integer_attrib-name_attrib-gen-attrib $-1 -1 $403 $-1 $220 2 1 1 1 1 1 1 1 1 1 1 1 1 1 0 1 1 1 @8 CUBIT_ID 46 #
straight-curve $-1 -1 -1 $-1 3 -3 0 0 0 -1 I I #
integer_attrib-name_attrib-gen-attrib $-1 -1 $404 $-1 $221 2 1 1 1 1 1 1 1 1 1 1 1 1 1 0 1 1 1 @8 CUBIT_ID 48 #
straight-curve $-1 -1 -1 $-1 3 3 0 0 0 -1 I I #
simple-snl-attrib $-1 -1 $-1 $223 $129 1 1 1 1 1 1 1 1 1 1 1 1 0 1 0 1 1 1 @17 NEW_SIMPLE_ATTRIB 1 @9 ENTITY_ID 0 3 25 -2147483648 -1 #
simple-snl-attrib $-1 -1 $-1 $225 $130 1 1 1 1 1 1 1 1 1 1 1 1 0 1 0 1 1 1 @17 NEW_SIMPLE_ATTRIB 1 @9 ENTITY_ID 0 3 26 -2147483648 -1 #
simple-snl-attrib $-1 -1 $-1 $228 $78 1 1 1 1 1 1 1 1 1 1 1 1 0 1 0 1 1 1 @17 NEW_SIMPLE_ATTRIB 3 @13 MESH_INTERVAL @4 LIMP @4 LIMP 2 1 0 5 1 0 0 1 1 #
simple-snl-attrib $-1 -1 $405 $229 $135 1 1 1 1 1 1 1 1 1 1 1 1 0 1 0 1 1 1 @17 NEW_SIMPLE_ATTRIB 1 @9 ENTITY_ID 0 3 6 -2147483648 -1 #
integer_attrib-name_attrib-gen-attrib $-1 -1 $406 $-1 $232 2 1 1 1 1 1 1 1 1 1 1 1 1 1 0 1 1 1 @8 CUBIT_ID 11 #
straight-curve $-1 -1 -1 $-1 -1 1 0 0 0 -1 I I #
simple-snl-attrib $-1 -1 $-1 $233 $141 1 1 1 1 1 1 1 1 1 1 1 1 0 1 0 1 1 1 @17 NEW_SIMPLE_ATTRIB 1 @9 ENTITY_ID 0 3 9 -2147483648 -1 #
integer_attrib-name_attrib-gen-attrib $-1 -1 $407 $-1 $234 2 1 1 1 1 1 1 1 1 1 1 1 1 1 0 1 1 1 @8 CUBIT_ID 7 #
point $-1 -1 -1 $-1 -1 -1 -1 #
integer_attrib-name_attrib-gen-attrib $-1 -1 $408 $-1 $236 2 1 1 1 1 1 1 1 1 1 1 1 1 1 0 1 1 1 @8 CUBIT_ID 7 #
straight-curve $-1 -1 -1 $-1 -1 0 -1 0 1 0 I I #
simple-snl-attrib $-1 -1 $-1 $237 $143 1 1 1 1 1 1 1 1 1 1 1 1 0 1 0 1 1 1 @17 NEW_SIMPLE_ATTRIB 1 @9 ENTITY_ID 0 3 6 -2147483648 -1 #
simple-snl-attrib $-1 -1 $-1 $239 $145 1 1 1 1 1 1 1 1 1 1 1 1 0 1 0 1 1 1 @17 NEW_SIMPLE_ATTRIB 1 @9 ENTITY_ID 0 3 8 -2147483648 -1 #
integer_attrib-name_attrib-gen-attrib $-1 -1 $409 $-1 $240 2 1 1 1 1 1 1 1 1 1 1 1 1 1 0 1 1 1 @8 CUBIT_ID 8 #
point $-1 -1 -1 $-1 -1 1 -1 #
simple-snl-attrib $-1 -1 $-1 $243 $147 1 1 1 1 1 1 1 1 1 1 1 1 0 1 0 1 1 1 @17 NEW_SIMPLE_ATTRIB 1 @9 ENTITY_ID 0 3 5 -2147483648 -1 #
simple-snl-attrib $-1 -1 $-1 $245 $148 1 1 1 1 1 1 1 1 1 1 1 1 0 1 0 1 1 1 @17 NEW_SIMPLE_ATTRIB 1 @9 ENTITY_ID 0 3 6 -2147483648 -1 #
simple-snl-attrib $-1 -1 $-1 $247 $151 1 1 1 1 1 1 1 1 1 1 1 1 0 1 0 1 1 1 @17 NEW_SIMPLE_ATTRIB 1 @9 ENTITY_ID 0 3 3 -2147483648 -1 #
simple-snl-attrib $-1 -1 $-1 $250 $155 1 1 1 1 1 1 1 1 1 1 1 1 0 1 0 1 1 1 @17 NEW_SIMPLE_ATTRIB 1 @9 ENTITY_ID 0 3 3 -2147483648 -1 #
simple-snl-attrib $-1 -1 $-1 $253 $159 1 1 1 1 1 1 1 1 1 1 1 1 0 1 0 1 1 1 @17 NEW_SIMPLE_ATTRIB 1 @9 ENTITY_ID 0 3 4 -2147483648 -1 #
simple-snl-attrib $-1 -1 $-1 $255 $161 1 1 1 1 1 1 1 1 1 1 1 1 0 1 0 1 1 1 @17 NEW_SIMPLE_ATTRIB 1 @9 ENTITY_ID 0 3 10 -2147483648 -1 #
simple-snl-attrib $-1 -1 $-1 $257 $162 1 1 1 1 1 1 1 1 1 1 1 1 0 1 0 1 1 1 @17 NEW_SIMPLE_ATTRIB 1 @9 ENTITY_ID 0 3 12 -2147483648 -1 #
simple-snl-attrib $-1 -1 $-1 $262 $101 1 1 1 1 1 1 1 1 1 1 1 1 0 1 0 1 1 1 @17 NEW_SIMPLE_ATTRIB 3 @13 MESH_INTERVAL @4 LIMP @4 LIMP 2 1 0 5 1 0 0 1 1 #
simple-snl-attrib $-1 -1 $410 $263 $171 1 1 1 1 1 1 1 1 1 1 1 1 0 1 0 1 1 1 @17 NEW_SIMPLE_ATTRIB 1 @9 ENTITY_ID 0 3 29 -2147483648 -1 #
integer_attrib-name_attrib-gen-attrib $-1 -1 $411 $-1 $264 2 1 1 1 1 1 1 1 1 1 1 1 1 1 0 1 1 1 @8 CUBIT_ID 30 #
plane-surface $-1 -1 -1 $-1 2.5 0 0 -1 0 0 0 -0 1 forward_v I I I I #
coedge $-1 -1 -1 $-1 $267 $269 $271 $360 forward $172 $-1 #
edge $412 -1 -1 $-1 $288 -2.5 $362 2.5 $285 $413 forward @7 unknown T -2.5 2.5 -2.5 -2.5 2.5 2.5 #
integer_attrib-name_attrib-gen-attrib $-1 -1 $414 $-1 $270 2 1 1 1 1 1 1 1 1 1 1 1 1 1 0 1 1 1 @8 CUBIT_ID 57 #
vertex $415 -1 -1 $-1 $360 $416 #
straight-curve $-1 -1 -1 $-1 -2.5 -2.5 0 0 0 -1 I I #
edge $417 -1 -1 $-1 $358 -2.5 $362 2.5 $355 $418 forward @7 unknown T -2.5 -2.5 -2.5 -2.5 2.5 -2.5 #
integer_attrib-name_attrib-gen-attrib $-1 -1 $419 $-1 $273 2 1 1 1 1 1 1 1 1 1 1 1 1 1 0 1 1 1 @8 CUBIT_ID 54 #
vertex $420 -1 -1 $-1 $273 $421 #
straight-curve $-1 -1 -1 $-1 0 2.5 -2.5 1 0 0 I I #
integer_attrib-name_attrib-gen-attrib $-1 -1 $422 $-1 $274 2 1 1 1 1 1 1 1 1 1 1 1 1 1 0 1 1 1 @8 CUBIT_ID 56 #
straight-curve $-1 -1 -1 $-1 0 -2.5 -2.5 -1 0 0 I I #
simple-snl-attrib $-1 -1 $-1 $275 $178 1 1 1 1 1 1 1 1 1 1 1 1 0 1 0 1 1 1 @17 NEW_SIMPLE_ATTRIB 1 @9 ENTITY_ID 0 3 53 -2147483648 -1 #
integer_attrib-name_attrib-gen-attrib $-1 -1 $423 $-1 $276 2 1 1 1 1 1 1 1 1 1 1 1 1 1 0 1 1 1 @8 CUBIT_ID 37 #
point $-1 -1 -1 $-1 2.5 2.5 -2.5 #
integer_attrib-name_attrib-gen-attrib $-1 -1 $424 $-1 $277 2 1 1 1 1 1 1 1 1 1 1 1 1 1 0 1 1 1 @8 CUBIT_ID 38 #
point $-1 -1 -1 $-1 2.5 -2.5 -2.5 #
integer_attrib-name_attrib-gen-attrib $-1 -1 $425 $-1 $280 2 1 1 1 1 1 1 1 1 1 1 1 1 1 0 1 1 1 @8 CUBIT_ID 51 #
straight-curve $-1 -1 -1 $-1 -2.5 0 2.5 0 -1 0 I I #
simple-snl-attrib $-1 -1 $-1 $282 $181 1 1 1 1 1 1 1 1 1 1 1 1 0 1 0 1 1 1 @17 NEW_SIMPLE_ATTRIB 1 @9 ENTITY_ID 0 3 50 -2147483648 -1 #
integer_attrib-name_attrib-gen-attrib $-1 -1 $426 $-1 $283 2 1 1 1 1 1 1 1 1 1 1 1 1 1 0 1 1 1 @8 CUBIT_ID 35 #
point $-1 -1 -1 $-1 -2.5 -2.5 2.5 #
simple-snl-attrib $-1 -1 $-1 $287 $183 1 1 1 1 1 1 1 1 1 1 1 1 0 1 0 1 1 1 @17 NEW_SIMPLE_ATTRIB 1 @9 ENTITY_ID 0 3 52 -2147483648 -1 #
integer_attrib-name_attrib-gen-attrib $-1 -1 $427 $-1 $288 2 1 1 1 1 1 1 1 1 1 1 1 1 1 0 1 1 1 @8 CUBIT_ID 36 #
point $-1 -1 -1 $-1 -2.5 2.5 2.5 #
integer_attrib-name_attrib-gen-attrib $-1 -1 $428 $-1 $290 2 1 1 1 1 1 1 1 1 1 1 1 1 1 0 1 1 1 @8 CUBIT_ID 60 #
straight-curve $-1 -1 -1 $-1 2.5 2.5 0 0 0 -1 I I #
integer_attrib-name_attrib-gen-attrib $-1 -1 $429 $-1 $291 2 1 1 1 1 1 1 1 1 1 1 1 1 1 0 1 1 1 @8 CUBIT_ID 58 #
straight-curve $-1 -1 -1 $-1 2.5 -2.5 0 0 0 -1 I I #
simple-snl-attrib $-1 -1 $-1 $293 $188 1 1 1 1 1 1 1 1 1 1 1 1 0 1 0 1 1 1 @17 NEW_SIMPLE_ATTRIB 1 @9 ENTITY_ID 0 3 33 -2147483648 -1 #
simple-snl-attrib $-1 -1 $-1 $295 $189 1 1 1 1 1 1 1 1 1 1 1 1 0 1 0 1 1 1 @17 NEW_SIMPLE_ATTRIB 1 @9 ENTITY_ID 0 3 34 -2147483648 -1 #
simple-snl-attrib $-1 -1 $-1 $298 $112 1 1 1 1 1 1 1 1 1 1 1 1 0 1 0 1 1 1 @17 NEW_SIMPLE_ATTRIB 3 @13 MESH_INTERVAL @4 LIMP @4 LIMP 2 1 0 5 1 0 0 1 1 #
simple-snl-attrib $-1 -1 $430 $299 $194 1 1 1 1 1 1 1 1 1 1 1 1 0 1 0 1 1 1 @17 NEW_SIMPLE_ATTRIB 1 @9 ENTITY_ID 0 3 24 -2147483648 -1 #
integer_attrib-name_attrib-gen-attrib $-1 -1 $431 $-1 $302 2 1 1 1 1 1 1 1 1 1 1 1 1 1 0 1 1 1 @8 CUBIT_ID 47 #
straight-curve $-1 -1 -1 $-1 -3 3 0 0 0 -1 I I #
simple-snl-attrib $-1 -1 $-1 $303 $200 1 1 1 1 1 1 1 1 1 1 1 1 0 1 0 1 1 1 @17 NEW_SIMPLE_ATTRIB 1 @9 ENTITY_ID 0 3 45 -2147483648 -1 #
integer_attrib-name_attrib-gen-attrib $-1 -1 $432 $-1 $304 2 1 1 1 1 1 1 1 1 1 1 1 1 1 0 1 1 1 @8 CUBIT_ID 31 #
point $-1 -1 -1 $-1 -3 -3 -3 #
integer_attrib-name_attrib-gen-attrib $-1 -1 $433 $-1 $306 2 1 1 1 1 1 1 1 1 1 1 1 1 1 0 1 1 1 @8 CUBIT_ID 43 #
straight-curve $-1 -1 -1 $-1 -3 0 -3 0 1 0 I I #
simple-snl-attrib $-1 -1 $-1 $307 $202 1 1 1 1 1 1 1 1 1 1 1 1 0 1 0 1 1 1 @17 NEW_SIMPLE_ATTRIB 1 @9 ENTITY_ID 0 3 42 -2147483648 -1 #
simple-snl-attrib $-1 -1 $-1 $309 $204 1 1 1 1 1 1 1 1 1 1 1 1 0 1 0 1 1 1 @17 NEW_SIMPLE_ATTRIB 1 @9 ENTITY_ID 0 3 44 -2147483648 -1 #
integer_attrib-name_attrib-gen-attrib $-1 -1 $434 $-1 $310 2 1 1 1 1 1 1 1 1 1 1 1 1 1 0 1 1 1 @8 CUBIT_ID 32 #
point $-1 -1 -1 $-1 -3 3 -3 #
simple-snl-attrib $-1 -1 $-1 $313 $206 1 1 1 1 1 1 1 1 1 1 1 1 0 1 0 1 1 1 @17 NEW_SIMPLE_ATTRIB 1 @9 ENTITY_ID 0 3 29 -2147483648 -1 #
simple-snl-attrib $-1 -1 $-1 $315 $207 1 1 1 1 1 1 1 1 1 1 1 1 0 1 0 1 1 1 @17 NEW_SIMPLE_ATTRIB 1 @9 ENTITY_ID 0 3 30 -2147483648 -1 #
simple-snl-attrib $-1 -1 $-1 $317 $210 1 1 1 1 1 1 1 1 1 1 1 1 0 1 0 1 1 1 @17 NEW_SIMPLE_ATTRIB 1 @9 ENTITY_ID 0 3 39 -2147483648 -1 #
simple-snl-attrib $-1 -1 $-1 $320 $214 1 1 1 1 1 1 1 1 1 1 1 1 0 1 0 1 1 1 @17 NEW_SIMPLE_ATTRIB 1 @9 ENTITY_ID 0 3 27 -2147483648 -1 #
simple-snl-attrib $-1 -1 $-1 $323 $218 1 1 1 1 1 1 1 1 1 1 1 1 0 1 0 1 1 1 @17 NEW_SIMPLE_ATTRIB 1 @9 ENTITY_ID 0 3 28 -2147483648 -1 #
simple-snl-attrib $-1 -1 $-1 $325 $220 1 1 1 1 1 1 1 1 1 1 1 1 0 1 0 1 1 1 @17 NEW_SIMPLE_ATTRIB 1 @9 ENTITY_ID 0 3 46 -2147483648 -1 #
simple-snl-attrib $-1 -1 $-1 $327 $221 1 1 1 1 1 1 1 1 1 1 1 1 0 1 0 1 1 1 @17 NEW_SIMPLE_ATTRIB 1 @9 ENTITY_ID 0 3 48 -2147483648 -1 #
simple-snl-attrib $-1 -1 $-1 $332 $135 1 1 1 1 1 1 1 1 1 1 1 1 0 1 0 1 1 1 @17 NEW_SIMPLE_ATTRIB 3 @13 MESH_INTERVAL @4 LIMP @4 LIMP 2 1 0 5 1 0 0 1 1 #
simple-snl-attrib $-1 -1 $-1 $333 $232 1 1 1 1 1 1 1 1 1 1 1 1 0 1 0 1 1 1 @17 NEW_SIMPLE_ATTRIB 1 @9 ENTITY_ID 0 3 11 -2147483648 -1 #
simple-snl-attrib $-1 -1 $-1 $336 $234 1 1 1 1 1 1 1 1 1 1 1 1 0 1 0 1 1 1 @17 NEW_SIMPLE_ATTRIB 1 @9 ENTITY_ID 0 3 7 -2147483648 -1 #
simple-snl-attrib $-1 -1 $-1 $338 $236 1 1 1 1 1 1 1 1 1 1 1 1 0 1 0 1 1 1 @17 NEW_SIMPLE_ATTRIB 1 @9 ENTITY_ID 0 3 7 -2147483648 -1 #
simple-snl-attrib $-1 -1 $-1 $342 $240 1 1 1 1 1 1 1 1 1 1 1 1 0 1 0 1 1 1 @17 NEW_SIMPLE_ATTRIB 1 @9 ENTITY_ID 0 3 8 -2147483648 -1 #
simple-snl-attrib $-1 -1 $-1 $352 $171 1 1 1 1 1 1 1 1 1 1 1 1 0 1 0 1 1 1 @17 NEW_SIMPLE_ATTRIB 3 @13 MESH_INTERVAL @4 LIMP @4 LIMP 2 1 0 5 1 0 0 1 1 #
simple-snl-attrib $-1 -1 $435 $353 $264 1 1 1 1 1 1 1 1 1 1 1 1 0 1 0 1 1 1 @17 NEW_SIMPLE_ATTRIB 1 @9 ENTITY_ID 0 3 30 -2147483648 -1 #
integer_attrib-name_attrib-gen-attrib $-1 -1 $436 $-1 $356 2 1 1 1 1 1 1 1 1 1 1 1 1 1 0 1 1 1 @8 CUBIT_ID 59 #
straight-curve $-1 -1 -1 $-1 -2.5 2.5 0 0 0 -1 I I #
simple-snl-attrib $-1 -1 $-1 $357 $270 1 1 1 1 1 1 1 1 1 1 1 1 0 1 0 1 1 1 @17 NEW_SIMPLE_ATTRIB 1 @9 ENTITY_ID 0 3 57 -2147483648 -1 #
integer_attrib-name_attrib-gen-attrib $-1 -1 $437 $-1 $358 2 1 1 1 1 1 1 1 1 1 1 1 1 1 0 1 1 1 @8 CUBIT_ID 40 #
point $-1 -1 -1 $-1 -2.5 -2.5 -2.5 #
integer_attrib-name_attrib-gen-attrib $-1 -1 $438 $-1 $360 2 1 1 1 1 1 1 1 1 1 1 1 1 1 0 1 1 1 @8 CUBIT_ID 55 #
straight-curve $-1 -1 -1 $-1 -2.5 0 -2.5 0 1 0 I I #
simple-snl-attrib $-1 -1 $-1 $361 $273 1 1 1 1 1 1 1 1 1 1 1 1 0 1 0 1 1 1 @17 NEW_SIMPLE_ATTRIB 1 @9 ENTITY_ID 0 3 54 -2147483648 -1 #
integer_attrib-name_attrib-gen-attrib $-1 -1 $439 $-1 $362 2 1 1 1 1 1 1 1 1 1 1 1 1 1 0 1 1 1 @8 CUBIT_ID 39 #
point $-1 -1 -1 $-1 -2.5 2.5 -2.5 #
simple-snl-attrib $-1 -1 $-1 $364 $274 1 1 1 1 1 1 1 1 1 1 1 1 0 1 0 1 1 1 @17 NEW_SIMPLE_ATTRIB 1 @9 ENTITY_ID 0 3 56 -2147483648 -1 #
simple-snl-attrib $-1 -1 $-1 $367 $276 1 1 1 1 1 1 1 1 1 1 1 1 0 1 0 1 1 1 @17 NEW_SIMPLE_ATTRIB 1 @9 ENTITY_ID 0 3 37 -2147483648 -1 #
simple-snl-attrib $-1 -1 $-1 $369 $277 1 1 1 1 1 1 1 1 1 1 1 1 0 1 0 1 1 1 @17 NEW_SIMPLE_ATTRIB 1 @9 ENTITY_ID 0 3 38 -2147483648 -1 #
simple-snl-attrib $-1 -1 $-1 $371 $280 1 1 1 1 1 1 1 1 1 1 1 1 0 1 0 1 1 1 @17 NEW_SIMPLE_ATTRIB 1 @9 ENTITY_ID 0 3 51 -2147483648 -1 #
simple-snl-attrib $-1 -1 $-1 $374 $283 1 1 1 1 1 1 1 1 1 1 1 1 0 1 0 1 1 1 @17 NEW_SIMPLE_ATTRIB 1 @9 ENTITY_ID 0 3 35 -2147483648 -1 #
simple-snl-attrib $-1 -1 $-1 $377 $288 1 1 1 1 1 1 1 1 1 1 1 1 0 1 0 1 1 1 @17 NEW_SIMPLE_ATTRIB 1 @9 ENTITY_ID 0 3 36 -2147483648 -1 #
simple-snl-attrib $-1 -1 $-1 $379 $290 1 1 1 1 1 1 1 1 1 1 1 1 0 1 0 1 1 1 @17 NEW_SIMPLE_ATTRIB 1 @9 ENTITY_ID 0 3 60 -2147483648 -1 #
simple-snl-attrib $-1 -1 $-1 $381 $291 1 1 1 1 1 1 1 1 1 1 1 1 0 1 0 1 1 1 @17 NEW_SIMPLE_ATTRIB 1 @9 ENTITY_ID 0 3 58 -2147483648 -1 #
simple-snl-attrib $-1 -1 $-1 $386 $194 1 1 1 1 1 1 1 1 1 1 1 1 0 1 0 1 1 1 @17 NEW_SIMPLE_ATTRIB 3 @13 MESH_INTERVAL @4 LIMP @4 LIMP 2 1 0 5 1 0 0 1 1 #
simple-snl-attrib $-1 -1 $-1 $387 $302 1 1 1 1 1 1 1 1 1 1 1 1 0 1 0 1 1 1 @17 NEW_SIMPLE_ATTRIB 1 @9 ENTITY_ID 0 3 47 -2147483648 -1 #
simple-snl-attrib $-1 -1 $-1 $390 $304 1 1 1 1 1 1 1 1 1 1 1 1 0 1 0 1 1 1 @17 NEW_SIMPLE_ATTRIB 1 @9 ENTITY_ID 0 3 31 -2147483648 -1 #
simple-snl-attrib $-1 -1 $-1 $392 $306 1 1 1 1 1 1 1 1 1 1 1 1 0 1 0 1 1 1 @17 NEW_SIMPLE_ATTRIB 1 @9 ENTITY_ID 0 3 43 -2147483648 -1 #
simple-snl-attrib $-1 -1 $-1 $396 $310 1 1 1 1 1 1 1 1 1 1 1 1 0 1 0 1 1 1 @17 NEW_SIMPLE_ATTRIB 1 @9 ENTITY_ID 0 3 32 -2147483648 -1 #
simple-snl-attrib $-1 -1 $-1 $411 $264 1 1 1 1 1 1 1 1 1 1 1 1 0 1 0 1 1 1 @17 NEW_SIMPLE_ATTRIB 3 @13 MESH_INTERVAL @4 LIMP @4 LIMP 2 1 0 5 1 0 0 1 1 #
simple-snl-attrib $-1 -1 $-1 $412 $356 1 1 1 1 1 1 1 1 1 1 1 1 0 1 0 1 1 1 @17 NEW_SIMPLE_ATTRIB 1 @9 ENTITY_ID 0 3 59 -2147483648 -1 #
simple-snl-attrib $-1 -1 $-1 $415 $358 1 1 1 1 1 1 1 1 1 1 1 1 0 1 0 1 1 1 @17 NEW_SIMPLE_ATTRIB 1 @9 ENTITY_ID 0 3 40 -2147483648 -1 #
simple-snl-attrib $-1 -1 $-1 $417 $360 1 1 1 1 1 1 1 1 1 1 1 1 0 1 0 1 1 1 @17 NEW_SIMPLE_ATTRIB 1 @9 ENTITY_ID 0 3 55 -2147483648 -1 #
simple-snl-attrib $-1 -1 $-1 $420 $362 1 1 1 1 1 1 1 1 1 1 1 1 0 1 0 1 1 1 @17 NEW_SIMPLE_ATTRIB 1 @9 ENTITY_ID 0 3 39 -2147483648 -1 #
End-of-ACIS-data 