1600 0 3 0           
14 Cubit  (iGeom) 17 ACIS 16.0.7 Linux 24 Tue Feb 22 15:27:00 2011 
1 9.9999999999999995e-07 1e-10 
body $3 -1 -1 $-1 $4 $-1 $-1 F #
body $5 -1 -1 $-1 $6 $-1 $-1 T -50 -50 -50 50 50 50 #
body $7 -1 -1 $-1 $8 $-1 $-1 T -60 -60 -60 60 60 60 #
simple-snl-attrib $-1 -1 $9 $-1 $0 1 1 1 1 1 1 1 1 1 1 1 1 0 1 0 1 1 1 @17 NEW_SIMPLE_ATTRIB 1 @9 ENTITY_ID 0 3 4 -2147483648 -1 #
lump $10 -1 -1 $-1 $-1 $11 $0 F #
simple-snl-attrib $-1 -1 $12 $-1 $1 1 1 1 1 1 1 1 1 1 1 1 1 0 1 0 1 1 1 @17 NEW_SIMPLE_ATTRIB 1 @9 ENTITY_ID 0 3 12 -2147483648 -1 #
lump $13 -1 -1 $-1 $-1 $14 $1 T -50 -50 -50 50 50 50 #
simple-snl-attrib $-1 -1 $15 $-1 $2 1 1 1 1 1 1 1 1 1 1 1 1 0 1 0 1 1 1 @17 NEW_SIMPLE_ATTRIB 1 @9 ENTITY_ID 0 3 15 -2147483648 -1 #
lump $16 -1 -1 $-1 $-1 $17 $2 T -60 -60 -60 60 60 60 #
simple-snl-attrib $-1 -1 $-1 $3 $0 1 1 1 1 1 1 1 1 1 1 1 1 0 1 0 1 1 1 @17 NEW_SIMPLE_ATTRIB 2 @5 GROUP @9 graveyard 0 7 1 1 389469720 0 0 0 0 #
simple-snl-attrib $-1 -1 $-1 $-1 $4 1 1 1 1 1 1 1 1 1 1 1 1 0 1 0 1 1 1 @17 NEW_SIMPLE_ATTRIB 1 @9 ENTITY_ID 0 3 1 -2147483648 -1 #
shell $-1 -1 -1 $-1 $18 $-1 $19 $-1 $4 T -61.200000000000003 -61.200000000000003 -61.200000000000003 61.200000000000003 61.200000000000003 61.200000000000003 #
simple-snl-attrib $-1 -1 $-1 $5 $1 1 1 1 1 1 1 1 1 1 1 1 1 0 1 0 1 1 1 @17 NEW_SIMPLE_ATTRIB 2 @11 ENTITY_NAME @9 MCNP_ID_1 0 0 #
simple-snl-attrib $-1 -1 $-1 $-1 $6 1 1 1 1 1 1 1 1 1 1 1 1 0 1 0 1 1 1 @17 NEW_SIMPLE_ATTRIB 1 @9 ENTITY_ID 0 3 2 -2147483648 -1 #
shell $-1 -1 -1 $-1 $-1 $-1 $20 $-1 $6 T -50 -50 -50 50 50 50 #
simple-snl-attrib $-1 -1 $-1 $7 $2 1 1 1 1 1 1 1 1 1 1 1 1 0 1 0 1 1 1 @17 NEW_SIMPLE_ATTRIB 2 @11 ENTITY_NAME @9 MCNP_ID_2 0 0 #
simple-snl-attrib $-1 -1 $-1 $-1 $8 1 1 1 1 1 1 1 1 1 1 1 1 0 1 0 1 1 1 @17 NEW_SIMPLE_ATTRIB 1 @9 ENTITY_ID 0 3 3 -2147483648 -1 #
shell $-1 -1 -1 $-1 $21 $-1 $22 $-1 $8 T -60 -60 -60 60 60 60 #
shell $-1 -1 -1 $-1 $-1 $-1 $23 $-1 $4 T -60 -60 -60 60 60 60 #
face $24 -1 -1 $-1 $25 $26 $11 $-1 $27 forward single T -61.200000000000003 -61.200000000000003 61.200000000000003 61.200000000000003 61.200000000000003 61.200000000000003 F #
face $28 -1 -1 $-1 $-1 $-1 $14 $-1 $29 forward single T -50 -50 -50 50 50 50 F #
shell $-1 -1 -1 $-1 $-1 $-1 $30 $-1 $8 T -50 -50 -50 50 50 50 #
face $31 -1 -1 $-1 $32 $33 $17 $-1 $34 forward single T -60 -60 60 60 60 60 F #
face $35 -1 -1 $-1 $36 $37 $18 $-1 $38 reversed single T -60 -60 60 60 60 60 F #
simple-snl-attrib $-1 -1 $-1 $-1 $19 1 1 1 1 1 1 1 1 1 1 1 1 0 1 0 1 1 1 @17 NEW_SIMPLE_ATTRIB 1 @9 ENTITY_ID 0 3 1 -2147483648 -1 #
face $39 -1 -1 $-1 $40 $41 $11 $-1 $42 reversed single T -61.200000000000003 -61.200000000000003 -61.200000000000003 61.200000000000003 61.200000000000003 -61.200000000000003 F #
loop $-1 -1 -1 $-1 $-1 $43 $19 T -61.200000000000003 -61.200000000000003 61.200000000000003 61.200000000000003 61.200000000000003 61.200000000000003 unknown #
plane-surface $-1 -1 -1 $-1 0 0 61.200000000000003 0 0 1 1 0 0 forward_v I I I I #
simple-snl-attrib $-1 -1 $44 $-1 $20 1 1 1 1 1 1 1 1 1 1 1 1 0 1 0 1 1 1 @17 NEW_SIMPLE_ATTRIB 1 @9 UNIQUE_ID 1 0 1 1285073773 #
sphere-surface $-1 -1 -1 $-1 0 0 0 50 1 0 0 0 0 1 forward_v I I I I #
face $45 -1 -1 $-1 $-1 $-1 $21 $-1 $46 reversed single T -50 -50 -50 50 50 50 F #
simple-snl-attrib $-1 -1 $-1 $-1 $22 1 1 1 1 1 1 1 1 1 1 1 1 0 1 0 1 1 1 @17 NEW_SIMPLE_ATTRIB 1 @9 ENTITY_ID 0 3 14 -2147483648 -1 #
face $47 -1 -1 $-1 $48 $49 $17 $-1 $50 reversed single T -60 -60 -60 60 60 -60 F #
loop $-1 -1 -1 $-1 $-1 $51 $22 T -60 -60 60 60 60 60 unknown #
plane-surface $-1 -1 -1 $-1 0 0 60 0 0 1 1 0 0 forward_v I I I I #
simple-snl-attrib $-1 -1 $-1 $-1 $23 1 1 1 1 1 1 1 1 1 1 1 1 0 1 0 1 1 1 @17 NEW_SIMPLE_ATTRIB 1 @9 ENTITY_ID 0 3 7 -2147483648 -1 #
face $52 -1 -1 $-1 $53 $54 $18 $-1 $55 forward single T -60 -60 -60 60 60 -60 F #
loop $-1 -1 -1 $-1 $-1 $56 $23 T -60 -60 60 60 60 60 unknown #
plane-surface $-1 -1 -1 $-1 0 0 60 0 0 1 1 0 0 forward_v I I I I #
simple-snl-attrib $-1 -1 $-1 $-1 $25 1 1 1 1 1 1 1 1 1 1 1 1 0 1 0 1 1 1 @17 NEW_SIMPLE_ATTRIB 1 @9 ENTITY_ID 0 3 2 -2147483648 -1 #
face $57 -1 -1 $-1 $58 $59 $11 $-1 $60 reversed single T -61.200000000000003 -61.200000000000003 -61.200000000000003 61.200000000000003 -61.200000000000003 61.200000000000003 F #
loop $-1 -1 -1 $-1 $-1 $61 $25 T -61.200000000000003 -61.200000000000003 -61.200000000000003 61.200000000000003 61.200000000000003 -61.200000000000003 unknown #
plane-surface $-1 -1 -1 $-1 0 0 -61.200000000000003 0 0 1 1 0 0 forward_v I I I I #
coedge $-1 -1 -1 $-1 $62 $63 $64 $65 forward $26 $-1 #
simple-snl-attrib $-1 -1 $66 $28 $20 1 1 1 1 1 1 1 1 1 1 1 1 0 1 0 1 1 1 @17 NEW_SIMPLE_ATTRIB 1 @9 ENTITY_ID 0 3 13 -2147483648 -1 #
simple-snl-attrib $-1 -1 $67 $-1 $30 1 1 1 1 1 1 1 1 1 1 1 1 0 1 0 1 1 1 @17 NEW_SIMPLE_ATTRIB 1 @9 UNIQUE_ID 1 0 1 1285073773 #
sphere-surface $-1 -1 -1 $-1 0 0 0 50 1 0 0 0 0 1 forward_v I I I I #
simple-snl-attrib $-1 -1 $-1 $-1 $32 1 1 1 1 1 1 1 1 1 1 1 1 0 1 0 1 1 1 @17 NEW_SIMPLE_ATTRIB 1 @9 ENTITY_ID 0 3 15 -2147483648 -1 #
face $68 -1 -1 $-1 $69 $70 $17 $-1 $71 reversed single T -60 -60 -60 60 -60 60 F #
loop $-1 -1 -1 $-1 $-1 $72 $32 T -60 -60 -60 60 60 -60 unknown #
plane-surface $-1 -1 -1 $-1 0 0 -60 0 0 1 1 0 0 forward_v I I I I #
coedge $-1 -1 -1 $-1 $73 $74 $75 $76 forward $33 $-1 #
simple-snl-attrib $-1 -1 $-1 $-1 $36 1 1 1 1 1 1 1 1 1 1 1 1 0 1 0 1 1 1 @17 NEW_SIMPLE_ATTRIB 1 @9 ENTITY_ID 0 3 8 -2147483648 -1 #
face $77 -1 -1 $-1 $78 $79 $18 $-1 $80 forward single T -60 -60 -60 60 -60 60 F #
loop $-1 -1 -1 $-1 $-1 $81 $36 T -60 -60 -60 60 60 -60 unknown #
plane-surface $-1 -1 -1 $-1 0 0 -60 0 0 1 1 0 0 forward_v I I I I #
coedge $-1 -1 -1 $-1 $82 $83 $84 $85 reversed $37 $-1 #
simple-snl-attrib $-1 -1 $-1 $-1 $40 1 1 1 1 1 1 1 1 1 1 1 1 0 1 0 1 1 1 @17 NEW_SIMPLE_ATTRIB 1 @9 ENTITY_ID 0 3 3 -2147483648 -1 #
face $86 -1 -1 $-1 $87 $88 $11 $-1 $89 reversed single T -61.200000000000003 -61.200000000000003 -61.200000000000003 -61.200000000000003 61.200000000000003 61.200000000000003 F #
loop $-1 -1 -1 $-1 $-1 $90 $40 T -61.200000000000003 -61.200000000000003 -61.200000000000003 61.200000000000003 -61.200000000000003 61.200000000000003 unknown #
plane-surface $-1 -1 -1 $-1 0 -61.200000000000003 0 0 1 -0 -0 0 1 forward_v I I I I #
coedge $-1 -1 -1 $-1 $91 $92 $93 $94 forward $41 $-1 #
coedge $-1 -1 -1 $-1 $95 $43 $96 $97 forward $26 $-1 #
coedge $-1 -1 -1 $-1 $43 $95 $98 $99 forward $26 $-1 #
coedge $-1 -1 -1 $-1 $100 $101 $43 $65 reversed $102 $-1 #
edge $103 -1 -1 $-1 $104 -61.200000000000003 $105 61.200000000000003 $64 $106 forward @7 unknown T 61.200000000000003 -61.200000000000003 61.200000000000003 61.200000000000003 61.200000000000003 61.200000000000003 #
simple-snl-attrib $-1 -1 $-1 $44 $20 1 1 1 1 1 1 1 1 1 1 1 1 0 1 0 1 1 1 @17 NEW_SIMPLE_ATTRIB 1 @13 MERGE_PARTNER 0 4 1285073773 1 56 1 #
simple-snl-attrib $-1 -1 $107 $45 $30 1 1 1 1 1 1 1 1 1 1 1 1 0 1 0 1 1 1 @17 NEW_SIMPLE_ATTRIB 1 @9 ENTITY_ID 0 3 13 -2147483648 -1 #
simple-snl-attrib $-1 -1 $-1 $-1 $48 1 1 1 1 1 1 1 1 1 1 1 1 0 1 0 1 1 1 @17 NEW_SIMPLE_ATTRIB 1 @9 ENTITY_ID 0 3 16 -2147483648 -1 #
face $108 -1 -1 $-1 $109 $110 $17 $-1 $111 reversed single T -60 -60 -60 -60 60 60 F #
loop $-1 -1 -1 $-1 $-1 $112 $48 T -60 -60 -60 60 -60 60 unknown #
plane-surface $-1 -1 -1 $-1 0 -60 0 0 1 -0 -0 0 1 forward_v I I I I #
coedge $-1 -1 -1 $-1 $113 $114 $115 $116 forward $49 $-1 #
coedge $-1 -1 -1 $-1 $117 $51 $118 $119 forward $33 $-1 #
coedge $-1 -1 -1 $-1 $51 $117 $120 $121 forward $33 $-1 #
coedge $-1 -1 -1 $-1 $122 $123 $51 $76 reversed $124 $-1 #
edge $125 -1 -1 $-1 $126 -60 $127 60 $75 $128 forward @7 unknown T 60 -60 60 60 60 60 #
simple-snl-attrib $-1 -1 $-1 $-1 $53 1 1 1 1 1 1 1 1 1 1 1 1 0 1 0 1 1 1 @17 NEW_SIMPLE_ATTRIB 1 @9 ENTITY_ID 0 3 9 -2147483648 -1 #
face $129 -1 -1 $-1 $130 $131 $18 $-1 $132 forward single T -60 -60 -60 -60 60 60 F #
loop $-1 -1 -1 $-1 $-1 $133 $53 T -60 -60 -60 60 -60 60 unknown #
plane-surface $-1 -1 -1 $-1 0 -60 0 0 1 -0 -0 0 1 forward_v I I I I #
coedge $-1 -1 -1 $-1 $134 $135 $136 $137 reversed $54 $-1 #
coedge $-1 -1 -1 $-1 $138 $56 $139 $140 reversed $37 $-1 #
coedge $-1 -1 -1 $-1 $56 $138 $141 $142 reversed $37 $-1 #
coedge $-1 -1 -1 $-1 $143 $144 $56 $85 forward $145 $-1 #
edge $146 -1 -1 $-1 $147 -60 $148 60 $84 $149 forward @7 unknown T 60 -60 60 60 60 60 #
simple-snl-attrib $-1 -1 $-1 $-1 $58 1 1 1 1 1 1 1 1 1 1 1 1 0 1 0 1 1 1 @17 NEW_SIMPLE_ATTRIB 1 @9 ENTITY_ID 0 3 4 -2147483648 -1 #
face $150 -1 -1 $-1 $151 $152 $11 $-1 $153 reversed single T -61.200000000000003 61.200000000000003 -61.200000000000003 61.200000000000003 61.200000000000003 61.200000000000003 F #
loop $-1 -1 -1 $-1 $-1 $154 $58 T -61.200000000000003 -61.200000000000003 -61.200000000000003 -61.200000000000003 61.200000000000003 61.200000000000003 unknown #
plane-surface $-1 -1 -1 $-1 -61.200000000000003 0 0 1 0 0 0 0 -1 forward_v I I I I #
coedge $-1 -1 -1 $-1 $155 $98 $156 $157 forward $59 $-1 #
coedge $-1 -1 -1 $-1 $158 $61 $155 $159 forward $41 $-1 #
coedge $-1 -1 -1 $-1 $61 $158 $160 $161 forward $41 $-1 #
coedge $-1 -1 -1 $-1 $101 $100 $61 $94 reversed $102 $-1 #
edge $162 -1 -1 $-1 $163 -61.200000000000003 $164 61.200000000000003 $93 $165 forward @7 unknown T 61.200000000000003 -61.200000000000003 -61.200000000000003 61.200000000000003 61.200000000000003 -61.200000000000003 #
coedge $-1 -1 -1 $-1 $63 $62 $166 $167 forward $26 $-1 #
coedge $-1 -1 -1 $-1 $168 $169 $62 $97 reversed $152 $-1 #
edge $170 -1 -1 $-1 $105 -61.200000000000003 $171 61.200000000000003 $96 $172 forward @7 unknown T -61.200000000000003 61.200000000000003 61.200000000000003 61.200000000000003 61.200000000000003 61.200000000000003 #
coedge $-1 -1 -1 $-1 $90 $173 $63 $99 reversed $59 $-1 #
edge $174 -1 -1 $-1 $175 -61.200000000000003 $104 61.200000000000003 $98 $176 forward @7 unknown T -61.200000000000003 -61.200000000000003 61.200000000000003 61.200000000000003 -61.200000000000003 61.200000000000003 #
coedge $-1 -1 -1 $-1 $93 $64 $173 $177 forward $102 $-1 #
coedge $-1 -1 -1 $-1 $64 $93 $168 $178 reversed $102 $-1 #
loop $-1 -1 -1 $-1 $-1 $100 $151 T 61.200000000000003 -61.200000000000003 -61.200000000000003 61.200000000000003 61.200000000000003 61.200000000000003 unknown #
simple-snl-attrib $-1 -1 $-1 $-1 $65 1 1 1 1 1 1 1 1 1 1 1 1 0 1 0 1 1 1 @17 NEW_SIMPLE_ATTRIB 1 @9 ENTITY_ID 0 3 37 -2147483648 -1 #
vertex $179 -1 -1 $-1 $65 $180 #
vertex $181 -1 -1 $-1 $65 $182 #
straight-curve $-1 -1 -1 $-1 61.200000000000003 0 61.200000000000003 0 1 0 I I #
simple-snl-attrib $-1 -1 $-1 $67 $30 1 1 1 1 1 1 1 1 1 1 1 1 0 1 0 1 1 1 @17 NEW_SIMPLE_ATTRIB 1 @13 MERGE_PARTNER 0 4 1285073773 -1 20 0 #
simple-snl-attrib $-1 -1 $-1 $-1 $69 1 1 1 1 1 1 1 1 1 1 1 1 0 1 0 1 1 1 @17 NEW_SIMPLE_ATTRIB 1 @9 ENTITY_ID 0 3 17 -2147483648 -1 #
face $183 -1 -1 $-1 $184 $185 $17 $-1 $186 reversed single T -60 60 -60 60 60 60 F #
loop $-1 -1 -1 $-1 $-1 $187 $69 T -60 -60 -60 -60 60 60 unknown #
plane-surface $-1 -1 -1 $-1 -60 0 0 1 0 0 0 0 -1 forward_v I I I I #
coedge $-1 -1 -1 $-1 $188 $120 $189 $190 forward $70 $-1 #
coedge $-1 -1 -1 $-1 $191 $72 $188 $192 forward $49 $-1 #
coedge $-1 -1 -1 $-1 $72 $191 $193 $194 forward $49 $-1 #
coedge $-1 -1 -1 $-1 $123 $122 $72 $116 reversed $124 $-1 #
edge $195 -1 -1 $-1 $196 -60 $197 60 $115 $198 forward @7 unknown T 60 -60 -60 60 60 -60 #
coedge $-1 -1 -1 $-1 $74 $73 $199 $200 forward $33 $-1 #
coedge $-1 -1 -1 $-1 $201 $202 $73 $119 reversed $185 $-1 #
edge $203 -1 -1 $-1 $127 -60 $204 60 $118 $205 forward @7 unknown T -60 60 60 60 60 60 #
coedge $-1 -1 -1 $-1 $112 $206 $74 $121 reversed $70 $-1 #
edge $207 -1 -1 $-1 $208 -60 $126 60 $120 $209 forward @7 unknown T -60 -60 60 60 -60 60 #
coedge $-1 -1 -1 $-1 $115 $75 $206 $210 forward $124 $-1 #
coedge $-1 -1 -1 $-1 $75 $115 $201 $211 reversed $124 $-1 #
loop $-1 -1 -1 $-1 $-1 $122 $184 T 60 -60 -60 60 60 60 unknown #
simple-snl-attrib $-1 -1 $-1 $-1 $76 1 1 1 1 1 1 1 1 1 1 1 1 0 1 0 1 1 1 @17 NEW_SIMPLE_ATTRIB 1 @9 ENTITY_ID 0 3 109 -2147483648 -1 #
vertex $212 -1 -1 $-1 $76 $213 #
vertex $214 -1 -1 $-1 $76 $215 #
straight-curve $-1 -1 -1 $-1 60 0 60 0 1 0 I I #
simple-snl-attrib $-1 -1 $-1 $-1 $78 1 1 1 1 1 1 1 1 1 1 1 1 0 1 0 1 1 1 @17 NEW_SIMPLE_ATTRIB 1 @9 ENTITY_ID 0 3 10 -2147483648 -1 #
face $216 -1 -1 $-1 $217 $218 $18 $-1 $219 forward single T -60 60 -60 60 60 60 F #
loop $-1 -1 -1 $-1 $-1 $220 $78 T -60 -60 -60 -60 60 60 unknown #
plane-surface $-1 -1 -1 $-1 -60 0 0 1 0 0 0 0 -1 forward_v I I I I #
coedge $-1 -1 -1 $-1 $139 $221 $222 $223 reversed $79 $-1 #
coedge $-1 -1 -1 $-1 $224 $81 $225 $226 reversed $54 $-1 #
coedge $-1 -1 -1 $-1 $81 $224 $221 $227 reversed $54 $-1 #
coedge $-1 -1 -1 $-1 $144 $143 $81 $137 forward $145 $-1 #
edge $228 -1 -1 $-1 $229 -60 $230 60 $136 $231 forward @7 unknown T 60 -60 -60 60 60 -60 #
coedge $-1 -1 -1 $-1 $83 $82 $232 $233 reversed $37 $-1 #
coedge $-1 -1 -1 $-1 $234 $133 $82 $140 forward $79 $-1 #
edge $235 -1 -1 $-1 $236 -60 $147 60 $139 $237 forward @7 unknown T -60 -60 60 60 -60 60 #
coedge $-1 -1 -1 $-1 $238 $239 $83 $142 forward $218 $-1 #
edge $240 -1 -1 $-1 $148 -60 $241 60 $141 $242 forward @7 unknown T -60 60 60 60 60 60 #
coedge $-1 -1 -1 $-1 $136 $84 $239 $243 forward $145 $-1 #
coedge $-1 -1 -1 $-1 $84 $136 $234 $244 reversed $145 $-1 #
loop $-1 -1 -1 $-1 $-1 $144 $217 T 60 -60 -60 60 60 60 unknown #
simple-snl-attrib $-1 -1 $-1 $-1 $85 1 1 1 1 1 1 1 1 1 1 1 1 0 1 0 1 1 1 @17 NEW_SIMPLE_ATTRIB 1 @9 ENTITY_ID 0 3 61 -2147483648 -1 #
vertex $245 -1 -1 $-1 $85 $246 #
vertex $247 -1 -1 $-1 $85 $248 #
straight-curve $-1 -1 -1 $-1 60 0 60 0 1 0 I I #
simple-snl-attrib $-1 -1 $-1 $-1 $87 1 1 1 1 1 1 1 1 1 1 1 1 0 1 0 1 1 1 @17 NEW_SIMPLE_ATTRIB 1 @9 ENTITY_ID 0 3 5 -2147483648 -1 #
face $249 -1 -1 $-1 $-1 $102 $11 $-1 $250 reversed single T 61.200000000000003 -61.200000000000003 -61.200000000000003 61.200000000000003 61.200000000000003 61.200000000000003 F #
loop $-1 -1 -1 $-1 $-1 $168 $87 T -61.200000000000003 61.200000000000003 -61.200000000000003 61.200000000000003 61.200000000000003 61.200000000000003 unknown #
plane-surface $-1 -1 -1 $-1 0 61.200000000000003 0 0 -1 0 0 0 -1 forward_v I I I I #
coedge $-1 -1 -1 $-1 $251 $166 $169 $252 forward $88 $-1 #
coedge $-1 -1 -1 $-1 $173 $90 $91 $159 reversed $59 $-1 #
coedge $-1 -1 -1 $-1 $166 $251 $90 $157 reversed $88 $-1 #
edge $253 -1 -1 $-1 $175 -61.200000000000003 $254 61.200000000000003 $156 $255 forward @7 unknown T -61.200000000000003 -61.200000000000003 -61.200000000000003 -61.200000000000003 -61.200000000000003 61.200000000000003 #
coedge $-1 -1 -1 $-1 $92 $91 $251 $256 forward $41 $-1 #
edge $257 -1 -1 $-1 $164 -61.200000000000003 $254 61.200000000000003 $155 $258 forward @7 unknown T -61.200000000000003 -61.200000000000003 -61.200000000000003 61.200000000000003 -61.200000000000003 -61.200000000000003 #
coedge $-1 -1 -1 $-1 $169 $168 $92 $161 reversed $152 $-1 #
edge $259 -1 -1 $-1 $260 -61.200000000000003 $163 61.200000000000003 $160 $261 forward @7 unknown T -61.200000000000003 61.200000000000003 -61.200000000000003 61.200000000000003 61.200000000000003 -61.200000000000003 #
simple-snl-attrib $-1 -1 $-1 $-1 $94 1 1 1 1 1 1 1 1 1 1 1 1 0 1 0 1 1 1 @17 NEW_SIMPLE_ATTRIB 1 @9 ENTITY_ID 0 3 41 -2147483648 -1 #
vertex $262 -1 -1 $-1 $94 $263 #
vertex $264 -1 -1 $-1 $177 $265 #
straight-curve $-1 -1 -1 $-1 61.200000000000003 0 -61.200000000000003 0 -1 0 I I #
coedge $-1 -1 -1 $-1 $154 $156 $95 $167 reversed $88 $-1 #
edge $266 -1 -1 $-1 $171 -61.200000000000003 $175 61.200000000000003 $166 $267 forward @7 unknown T -61.200000000000003 -61.200000000000003 61.200000000000003 -61.200000000000003 61.200000000000003 61.200000000000003 #
coedge $-1 -1 -1 $-1 $160 $96 $101 $178 forward $152 $-1 #
coedge $-1 -1 -1 $-1 $96 $160 $154 $252 reversed $152 $-1 #
simple-snl-attrib $-1 -1 $-1 $-1 $97 1 1 1 1 1 1 1 1 1 1 1 1 0 1 0 1 1 1 @17 NEW_SIMPLE_ATTRIB 1 @9 ENTITY_ID 0 3 38 -2147483648 -1 #
vertex $268 -1 -1 $-1 $97 $269 #
straight-curve $-1 -1 -1 $-1 0 61.200000000000003 61.200000000000003 -1 0 0 I I #
coedge $-1 -1 -1 $-1 $98 $155 $100 $177 reversed $59 $-1 #
simple-snl-attrib $-1 -1 $-1 $-1 $99 1 1 1 1 1 1 1 1 1 1 1 1 0 1 0 1 1 1 @17 NEW_SIMPLE_ATTRIB 1 @9 ENTITY_ID 0 3 40 -2147483648 -1 #
vertex $270 -1 -1 $-1 $167 $271 #
straight-curve $-1 -1 -1 $-1 0 -61.200000000000003 61.200000000000003 1 0 0 I I #
edge $272 -1 -1 $-1 $104 -61.200000000000003 $164 61.200000000000003 $100 $273 forward @7 unknown T 61.200000000000003 -61.200000000000003 -61.200000000000003 61.200000000000003 -61.200000000000003 61.200000000000003 #
edge $274 -1 -1 $-1 $105 -61.200000000000003 $163 61.200000000000003 $101 $275 forward @7 unknown T 61.200000000000003 61.200000000000003 -61.200000000000003 61.200000000000003 61.200000000000003 61.200000000000003 #
simple-snl-attrib $-1 -1 $-1 $-1 $104 1 1 1 1 1 1 1 1 1 1 1 1 0 1 0 1 1 1 @17 NEW_SIMPLE_ATTRIB 1 @9 ENTITY_ID 0 3 25 -2147483648 -1 #
point $-1 -1 -1 $-1 61.200000000000003 -61.200000000000003 61.200000000000003 #
simple-snl-attrib $-1 -1 $-1 $-1 $105 1 1 1 1 1 1 1 1 1 1 1 1 0 1 0 1 1 1 @17 NEW_SIMPLE_ATTRIB 1 @9 ENTITY_ID 0 3 26 -2147483648 -1 #
point $-1 -1 -1 $-1 61.200000000000003 61.200000000000003 61.200000000000003 #
simple-snl-attrib $-1 -1 $-1 $-1 $109 1 1 1 1 1 1 1 1 1 1 1 1 0 1 0 1 1 1 @17 NEW_SIMPLE_ATTRIB 1 @9 ENTITY_ID 0 3 18 -2147483648 -1 #
face $276 -1 -1 $-1 $-1 $124 $17 $-1 $277 reversed single T 60 -60 -60 60 60 60 F #
loop $-1 -1 -1 $-1 $-1 $201 $109 T -60 60 -60 60 60 60 unknown #
plane-surface $-1 -1 -1 $-1 0 60 0 0 -1 0 0 0 -1 forward_v I I I I #
coedge $-1 -1 -1 $-1 $278 $199 $202 $279 forward $110 $-1 #
coedge $-1 -1 -1 $-1 $206 $112 $113 $192 reversed $70 $-1 #
coedge $-1 -1 -1 $-1 $199 $278 $112 $190 reversed $110 $-1 #
edge $280 -1 -1 $-1 $208 -60 $281 60 $189 $282 forward @7 unknown T -60 -60 -60 -60 -60 60 #
coedge $-1 -1 -1 $-1 $114 $113 $278 $283 forward $49 $-1 #
edge $284 -1 -1 $-1 $197 -60 $281 60 $188 $285 forward @7 unknown T -60 -60 -60 60 -60 -60 #
coedge $-1 -1 -1 $-1 $202 $201 $114 $194 reversed $185 $-1 #
edge $286 -1 -1 $-1 $287 -60 $196 60 $193 $288 forward @7 unknown T -60 60 -60 60 60 -60 #
simple-snl-attrib $-1 -1 $-1 $-1 $116 1 1 1 1 1 1 1 1 1 1 1 1 0 1 0 1 1 1 @17 NEW_SIMPLE_ATTRIB 1 @9 ENTITY_ID 0 3 113 -2147483648 -1 #
vertex $289 -1 -1 $-1 $116 $290 #
vertex $291 -1 -1 $-1 $210 $292 #
straight-curve $-1 -1 -1 $-1 60 0 -60 0 -1 0 I I #
coedge $-1 -1 -1 $-1 $187 $189 $117 $200 reversed $110 $-1 #
edge $293 -1 -1 $-1 $204 -60 $208 60 $199 $294 forward @7 unknown T -60 -60 60 -60 60 60 #
coedge $-1 -1 -1 $-1 $193 $118 $123 $211 forward $185 $-1 #
coedge $-1 -1 -1 $-1 $118 $193 $187 $279 reversed $185 $-1 #
simple-snl-attrib $-1 -1 $-1 $-1 $119 1 1 1 1 1 1 1 1 1 1 1 1 0 1 0 1 1 1 @17 NEW_SIMPLE_ATTRIB 1 @9 ENTITY_ID 0 3 110 -2147483648 -1 #
vertex $295 -1 -1 $-1 $119 $296 #
straight-curve $-1 -1 -1 $-1 0 60 60 -1 0 0 I I #
coedge $-1 -1 -1 $-1 $120 $188 $122 $210 reversed $70 $-1 #
simple-snl-attrib $-1 -1 $-1 $-1 $121 1 1 1 1 1 1 1 1 1 1 1 1 0 1 0 1 1 1 @17 NEW_SIMPLE_ATTRIB 1 @9 ENTITY_ID 0 3 112 -2147483648 -1 #
vertex $297 -1 -1 $-1 $200 $298 #
straight-curve $-1 -1 -1 $-1 0 -60 60 1 0 0 I I #
edge $299 -1 -1 $-1 $126 -60 $197 60 $122 $300 forward @7 unknown T 60 -60 -60 60 -60 60 #
edge $301 -1 -1 $-1 $127 -60 $196 60 $123 $302 forward @7 unknown T 60 60 -60 60 60 60 #
simple-snl-attrib $-1 -1 $-1 $-1 $126 1 1 1 1 1 1 1 1 1 1 1 1 0 1 0 1 1 1 @17 NEW_SIMPLE_ATTRIB 1 @9 ENTITY_ID 0 3 73 -2147483648 -1 #
point $-1 -1 -1 $-1 60 -60 60 #
simple-snl-attrib $-1 -1 $-1 $-1 $127 1 1 1 1 1 1 1 1 1 1 1 1 0 1 0 1 1 1 @17 NEW_SIMPLE_ATTRIB 1 @9 ENTITY_ID 0 3 74 -2147483648 -1 #
point $-1 -1 -1 $-1 60 60 60 #
simple-snl-attrib $-1 -1 $-1 $-1 $130 1 1 1 1 1 1 1 1 1 1 1 1 0 1 0 1 1 1 @17 NEW_SIMPLE_ATTRIB 1 @9 ENTITY_ID 0 3 11 -2147483648 -1 #
face $303 -1 -1 $-1 $-1 $145 $18 $-1 $304 forward single T 60 -60 -60 60 60 60 F #
loop $-1 -1 -1 $-1 $-1 $239 $130 T -60 60 -60 60 60 60 unknown #
plane-surface $-1 -1 -1 $-1 0 60 0 0 -1 0 0 0 -1 forward_v I I I I #
coedge $-1 -1 -1 $-1 $232 $305 $238 $306 reversed $131 $-1 #
coedge $-1 -1 -1 $-1 $133 $234 $135 $227 forward $79 $-1 #
coedge $-1 -1 -1 $-1 $305 $232 $133 $223 forward $131 $-1 #
edge $307 -1 -1 $-1 $236 -60 $308 60 $222 $309 forward @7 unknown T -60 -60 -60 -60 -60 60 #
coedge $-1 -1 -1 $-1 $135 $134 $305 $310 reversed $54 $-1 #
coedge $-1 -1 -1 $-1 $239 $238 $134 $226 forward $218 $-1 #
edge $311 -1 -1 $-1 $312 -60 $229 60 $225 $313 forward @7 unknown T -60 60 -60 60 60 -60 #
edge $314 -1 -1 $-1 $230 -60 $308 60 $221 $315 forward @7 unknown T -60 -60 -60 60 -60 -60 #
simple-snl-attrib $-1 -1 $-1 $-1 $137 1 1 1 1 1 1 1 1 1 1 1 1 0 1 0 1 1 1 @17 NEW_SIMPLE_ATTRIB 1 @9 ENTITY_ID 0 3 65 -2147483648 -1 #
vertex $316 -1 -1 $-1 $137 $317 #
vertex $318 -1 -1 $-1 $244 $319 #
straight-curve $-1 -1 -1 $-1 60 0 -60 0 -1 0 I I #
coedge $-1 -1 -1 $-1 $222 $220 $138 $233 forward $131 $-1 #
edge $320 -1 -1 $-1 $241 -60 $236 60 $232 $321 forward @7 unknown T -60 -60 60 -60 60 60 #
coedge $-1 -1 -1 $-1 $221 $139 $144 $244 forward $79 $-1 #
simple-snl-attrib $-1 -1 $-1 $-1 $140 1 1 1 1 1 1 1 1 1 1 1 1 0 1 0 1 1 1 @17 NEW_SIMPLE_ATTRIB 1 @9 ENTITY_ID 0 3 62 -2147483648 -1 #
vertex $322 -1 -1 $-1 $233 $323 #
straight-curve $-1 -1 -1 $-1 0 -60 60 1 0 0 I I #
coedge $-1 -1 -1 $-1 $225 $141 $220 $306 forward $218 $-1 #
coedge $-1 -1 -1 $-1 $141 $225 $143 $243 reversed $218 $-1 #
simple-snl-attrib $-1 -1 $-1 $-1 $142 1 1 1 1 1 1 1 1 1 1 1 1 0 1 0 1 1 1 @17 NEW_SIMPLE_ATTRIB 1 @9 ENTITY_ID 0 3 64 -2147483648 -1 #
vertex $324 -1 -1 $-1 $142 $325 #
straight-curve $-1 -1 -1 $-1 0 60 60 -1 0 0 I I #
edge $326 -1 -1 $-1 $148 -60 $229 60 $143 $327 forward @7 unknown T 60 60 -60 60 60 60 #
edge $328 -1 -1 $-1 $147 -60 $230 60 $144 $329 forward @7 unknown T 60 -60 -60 60 -60 60 #
simple-snl-attrib $-1 -1 $-1 $-1 $147 1 1 1 1 1 1 1 1 1 1 1 1 0 1 0 1 1 1 @17 NEW_SIMPLE_ATTRIB 1 @9 ENTITY_ID 0 3 41 -2147483648 -1 #
point $-1 -1 -1 $-1 60 -60 60 #
simple-snl-attrib $-1 -1 $-1 $-1 $148 1 1 1 1 1 1 1 1 1 1 1 1 0 1 0 1 1 1 @17 NEW_SIMPLE_ATTRIB 1 @9 ENTITY_ID 0 3 42 -2147483648 -1 #
point $-1 -1 -1 $-1 60 60 60 #
simple-snl-attrib $-1 -1 $-1 $-1 $151 1 1 1 1 1 1 1 1 1 1 1 1 0 1 0 1 1 1 @17 NEW_SIMPLE_ATTRIB 1 @9 ENTITY_ID 0 3 6 -2147483648 -1 #
plane-surface $-1 -1 -1 $-1 61.200000000000003 0 0 -1 0 0 0 -0 1 forward_v I I I I #
coedge $-1 -1 -1 $-1 $156 $154 $158 $256 reversed $88 $-1 #
edge $330 -1 -1 $-1 $171 -61.200000000000003 $260 61.200000000000003 $169 $331 forward @7 unknown T -61.200000000000003 61.200000000000003 -61.200000000000003 -61.200000000000003 61.200000000000003 61.200000000000003 #
simple-snl-attrib $-1 -1 $-1 $-1 $157 1 1 1 1 1 1 1 1 1 1 1 1 0 1 0 1 1 1 @17 NEW_SIMPLE_ATTRIB 1 @9 ENTITY_ID 0 3 45 -2147483648 -1 #
vertex $332 -1 -1 $-1 $256 $333 #
straight-curve $-1 -1 -1 $-1 -61.200000000000003 -61.200000000000003 0 0 0 -1 I I #
edge $334 -1 -1 $-1 $254 -61.200000000000003 $260 61.200000000000003 $251 $335 forward @7 unknown T -61.200000000000003 -61.200000000000003 -61.200000000000003 -61.200000000000003 61.200000000000003 -61.200000000000003 #
simple-snl-attrib $-1 -1 $-1 $-1 $159 1 1 1 1 1 1 1 1 1 1 1 1 0 1 0 1 1 1 @17 NEW_SIMPLE_ATTRIB 1 @9 ENTITY_ID 0 3 42 -2147483648 -1 #
straight-curve $-1 -1 -1 $-1 0 -61.200000000000003 -61.200000000000003 -1 0 0 I I #
simple-snl-attrib $-1 -1 $-1 $-1 $161 1 1 1 1 1 1 1 1 1 1 1 1 0 1 0 1 1 1 @17 NEW_SIMPLE_ATTRIB 1 @9 ENTITY_ID 0 3 44 -2147483648 -1 #
vertex $336 -1 -1 $-1 $161 $337 #
straight-curve $-1 -1 -1 $-1 0 61.200000000000003 -61.200000000000003 1 0 0 I I #
simple-snl-attrib $-1 -1 $-1 $-1 $163 1 1 1 1 1 1 1 1 1 1 1 1 0 1 0 1 1 1 @17 NEW_SIMPLE_ATTRIB 1 @9 ENTITY_ID 0 3 29 -2147483648 -1 #
point $-1 -1 -1 $-1 61.200000000000003 61.200000000000003 -61.200000000000003 #
simple-snl-attrib $-1 -1 $-1 $-1 $164 1 1 1 1 1 1 1 1 1 1 1 1 0 1 0 1 1 1 @17 NEW_SIMPLE_ATTRIB 1 @9 ENTITY_ID 0 3 30 -2147483648 -1 #
point $-1 -1 -1 $-1 61.200000000000003 -61.200000000000003 -61.200000000000003 #
simple-snl-attrib $-1 -1 $-1 $-1 $167 1 1 1 1 1 1 1 1 1 1 1 1 0 1 0 1 1 1 @17 NEW_SIMPLE_ATTRIB 1 @9 ENTITY_ID 0 3 39 -2147483648 -1 #
straight-curve $-1 -1 -1 $-1 -61.200000000000003 0 61.200000000000003 0 -1 0 I I #
simple-snl-attrib $-1 -1 $-1 $-1 $171 1 1 1 1 1 1 1 1 1 1 1 1 0 1 0 1 1 1 @17 NEW_SIMPLE_ATTRIB 1 @9 ENTITY_ID 0 3 27 -2147483648 -1 #
point $-1 -1 -1 $-1 -61.200000000000003 61.200000000000003 61.200000000000003 #
simple-snl-attrib $-1 -1 $-1 $-1 $175 1 1 1 1 1 1 1 1 1 1 1 1 0 1 0 1 1 1 @17 NEW_SIMPLE_ATTRIB 1 @9 ENTITY_ID 0 3 28 -2147483648 -1 #
point $-1 -1 -1 $-1 -61.200000000000003 -61.200000000000003 61.200000000000003 #
simple-snl-attrib $-1 -1 $-1 $-1 $177 1 1 1 1 1 1 1 1 1 1 1 1 0 1 0 1 1 1 @17 NEW_SIMPLE_ATTRIB 1 @9 ENTITY_ID 0 3 46 -2147483648 -1 #
straight-curve $-1 -1 -1 $-1 61.200000000000003 -61.200000000000003 0 0 0 -1 I I #
simple-snl-attrib $-1 -1 $-1 $-1 $178 1 1 1 1 1 1 1 1 1 1 1 1 0 1 0 1 1 1 @17 NEW_SIMPLE_ATTRIB 1 @9 ENTITY_ID 0 3 48 -2147483648 -1 #
straight-curve $-1 -1 -1 $-1 61.200000000000003 61.200000000000003 0 0 0 -1 I I #
simple-snl-attrib $-1 -1 $-1 $-1 $184 1 1 1 1 1 1 1 1 1 1 1 1 0 1 0 1 1 1 @17 NEW_SIMPLE_ATTRIB 1 @9 ENTITY_ID 0 3 19 -2147483648 -1 #
plane-surface $-1 -1 -1 $-1 60 0 0 -1 0 0 0 -0 1 forward_v I I I I #
coedge $-1 -1 -1 $-1 $189 $187 $191 $283 reversed $110 $-1 #
edge $338 -1 -1 $-1 $204 -60 $287 60 $202 $339 forward @7 unknown T -60 60 -60 -60 60 60 #
simple-snl-attrib $-1 -1 $-1 $-1 $190 1 1 1 1 1 1 1 1 1 1 1 1 0 1 0 1 1 1 @17 NEW_SIMPLE_ATTRIB 1 @9 ENTITY_ID 0 3 117 -2147483648 -1 #
vertex $340 -1 -1 $-1 $283 $341 #
straight-curve $-1 -1 -1 $-1 -60 -60 0 0 0 -1 I I #
edge $342 -1 -1 $-1 $281 -60 $287 60 $278 $343 forward @7 unknown T -60 -60 -60 -60 60 -60 #
simple-snl-attrib $-1 -1 $-1 $-1 $192 1 1 1 1 1 1 1 1 1 1 1 1 0 1 0 1 1 1 @17 NEW_SIMPLE_ATTRIB 1 @9 ENTITY_ID 0 3 114 -2147483648 -1 #
straight-curve $-1 -1 -1 $-1 0 -60 -60 -1 0 0 I I #
simple-snl-attrib $-1 -1 $-1 $-1 $194 1 1 1 1 1 1 1 1 1 1 1 1 0 1 0 1 1 1 @17 NEW_SIMPLE_ATTRIB 1 @9 ENTITY_ID 0 3 116 -2147483648 -1 #
vertex $344 -1 -1 $-1 $194 $345 #
straight-curve $-1 -1 -1 $-1 0 60 -60 1 0 0 I I #
simple-snl-attrib $-1 -1 $-1 $-1 $196 1 1 1 1 1 1 1 1 1 1 1 1 0 1 0 1 1 1 @17 NEW_SIMPLE_ATTRIB 1 @9 ENTITY_ID 0 3 77 -2147483648 -1 #
point $-1 -1 -1 $-1 60 60 -60 #
simple-snl-attrib $-1 -1 $-1 $-1 $197 1 1 1 1 1 1 1 1 1 1 1 1 0 1 0 1 1 1 @17 NEW_SIMPLE_ATTRIB 1 @9 ENTITY_ID 0 3 78 -2147483648 -1 #
point $-1 -1 -1 $-1 60 -60 -60 #
simple-snl-attrib $-1 -1 $-1 $-1 $200 1 1 1 1 1 1 1 1 1 1 1 1 0 1 0 1 1 1 @17 NEW_SIMPLE_ATTRIB 1 @9 ENTITY_ID 0 3 111 -2147483648 -1 #
straight-curve $-1 -1 -1 $-1 -60 0 60 0 -1 0 I I #
simple-snl-attrib $-1 -1 $-1 $-1 $204 1 1 1 1 1 1 1 1 1 1 1 1 0 1 0 1 1 1 @17 NEW_SIMPLE_ATTRIB 1 @9 ENTITY_ID 0 3 75 -2147483648 -1 #
point $-1 -1 -1 $-1 -60 60 60 #
simple-snl-attrib $-1 -1 $-1 $-1 $208 1 1 1 1 1 1 1 1 1 1 1 1 0 1 0 1 1 1 @17 NEW_SIMPLE_ATTRIB 1 @9 ENTITY_ID 0 3 76 -2147483648 -1 #
point $-1 -1 -1 $-1 -60 -60 60 #
simple-snl-attrib $-1 -1 $-1 $-1 $210 1 1 1 1 1 1 1 1 1 1 1 1 0 1 0 1 1 1 @17 NEW_SIMPLE_ATTRIB 1 @9 ENTITY_ID 0 3 118 -2147483648 -1 #
straight-curve $-1 -1 -1 $-1 60 -60 0 0 0 -1 I I #
simple-snl-attrib $-1 -1 $-1 $-1 $211 1 1 1 1 1 1 1 1 1 1 1 1 0 1 0 1 1 1 @17 NEW_SIMPLE_ATTRIB 1 @9 ENTITY_ID 0 3 120 -2147483648 -1 #
straight-curve $-1 -1 -1 $-1 60 60 0 0 0 -1 I I #
simple-snl-attrib $-1 -1 $-1 $-1 $217 1 1 1 1 1 1 1 1 1 1 1 1 0 1 0 1 1 1 @17 NEW_SIMPLE_ATTRIB 1 @9 ENTITY_ID 0 3 12 -2147483648 -1 #
plane-surface $-1 -1 -1 $-1 60 0 0 -1 0 0 0 -0 1 forward_v I I I I #
coedge $-1 -1 -1 $-1 $220 $222 $224 $310 forward $131 $-1 #
edge $346 -1 -1 $-1 $241 -60 $312 60 $238 $347 forward @7 unknown T -60 60 -60 -60 60 60 #
simple-snl-attrib $-1 -1 $-1 $-1 $223 1 1 1 1 1 1 1 1 1 1 1 1 0 1 0 1 1 1 @17 NEW_SIMPLE_ATTRIB 1 @9 ENTITY_ID 0 3 69 -2147483648 -1 #
vertex $348 -1 -1 $-1 $310 $349 #
straight-curve $-1 -1 -1 $-1 -60 -60 0 0 0 -1 I I #
edge $350 -1 -1 $-1 $308 -60 $312 60 $305 $351 forward @7 unknown T -60 -60 -60 -60 60 -60 #
simple-snl-attrib $-1 -1 $-1 $-1 $226 1 1 1 1 1 1 1 1 1 1 1 1 0 1 0 1 1 1 @17 NEW_SIMPLE_ATTRIB 1 @9 ENTITY_ID 0 3 66 -2147483648 -1 #
vertex $352 -1 -1 $-1 $226 $353 #
straight-curve $-1 -1 -1 $-1 0 60 -60 1 0 0 I I #
simple-snl-attrib $-1 -1 $-1 $-1 $227 1 1 1 1 1 1 1 1 1 1 1 1 0 1 0 1 1 1 @17 NEW_SIMPLE_ATTRIB 1 @9 ENTITY_ID 0 3 68 -2147483648 -1 #
straight-curve $-1 -1 -1 $-1 0 -60 -60 -1 0 0 I I #
simple-snl-attrib $-1 -1 $-1 $-1 $229 1 1 1 1 1 1 1 1 1 1 1 1 0 1 0 1 1 1 @17 NEW_SIMPLE_ATTRIB 1 @9 ENTITY_ID 0 3 45 -2147483648 -1 #
point $-1 -1 -1 $-1 60 60 -60 #
simple-snl-attrib $-1 -1 $-1 $-1 $230 1 1 1 1 1 1 1 1 1 1 1 1 0 1 0 1 1 1 @17 NEW_SIMPLE_ATTRIB 1 @9 ENTITY_ID 0 3 46 -2147483648 -1 #
point $-1 -1 -1 $-1 60 -60 -60 #
simple-snl-attrib $-1 -1 $-1 $-1 $233 1 1 1 1 1 1 1 1 1 1 1 1 0 1 0 1 1 1 @17 NEW_SIMPLE_ATTRIB 1 @9 ENTITY_ID 0 3 63 -2147483648 -1 #
straight-curve $-1 -1 -1 $-1 -60 0 60 0 -1 0 I I #
simple-snl-attrib $-1 -1 $-1 $-1 $236 1 1 1 1 1 1 1 1 1 1 1 1 0 1 0 1 1 1 @17 NEW_SIMPLE_ATTRIB 1 @9 ENTITY_ID 0 3 43 -2147483648 -1 #
point $-1 -1 -1 $-1 -60 -60 60 #
simple-snl-attrib $-1 -1 $-1 $-1 $241 1 1 1 1 1 1 1 1 1 1 1 1 0 1 0 1 1 1 @17 NEW_SIMPLE_ATTRIB 1 @9 ENTITY_ID 0 3 44 -2147483648 -1 #
point $-1 -1 -1 $-1 -60 60 60 #
simple-snl-attrib $-1 -1 $-1 $-1 $243 1 1 1 1 1 1 1 1 1 1 1 1 0 1 0 1 1 1 @17 NEW_SIMPLE_ATTRIB 1 @9 ENTITY_ID 0 3 72 -2147483648 -1 #
straight-curve $-1 -1 -1 $-1 60 60 0 0 0 -1 I I #
simple-snl-attrib $-1 -1 $-1 $-1 $244 1 1 1 1 1 1 1 1 1 1 1 1 0 1 0 1 1 1 @17 NEW_SIMPLE_ATTRIB 1 @9 ENTITY_ID 0 3 70 -2147483648 -1 #
straight-curve $-1 -1 -1 $-1 60 -60 0 0 0 -1 I I #
simple-snl-attrib $-1 -1 $-1 $-1 $252 1 1 1 1 1 1 1 1 1 1 1 1 0 1 0 1 1 1 @17 NEW_SIMPLE_ATTRIB 1 @9 ENTITY_ID 0 3 47 -2147483648 -1 #
straight-curve $-1 -1 -1 $-1 -61.200000000000003 61.200000000000003 0 0 0 -1 I I #
simple-snl-attrib $-1 -1 $-1 $-1 $254 1 1 1 1 1 1 1 1 1 1 1 1 0 1 0 1 1 1 @17 NEW_SIMPLE_ATTRIB 1 @9 ENTITY_ID 0 3 31 -2147483648 -1 #
point $-1 -1 -1 $-1 -61.200000000000003 -61.200000000000003 -61.200000000000003 #
simple-snl-attrib $-1 -1 $-1 $-1 $256 1 1 1 1 1 1 1 1 1 1 1 1 0 1 0 1 1 1 @17 NEW_SIMPLE_ATTRIB 1 @9 ENTITY_ID 0 3 43 -2147483648 -1 #
straight-curve $-1 -1 -1 $-1 -61.200000000000003 0 -61.200000000000003 0 1 0 I I #
simple-snl-attrib $-1 -1 $-1 $-1 $260 1 1 1 1 1 1 1 1 1 1 1 1 0 1 0 1 1 1 @17 NEW_SIMPLE_ATTRIB 1 @9 ENTITY_ID 0 3 32 -2147483648 -1 #
point $-1 -1 -1 $-1 -61.200000000000003 61.200000000000003 -61.200000000000003 #
simple-snl-attrib $-1 -1 $-1 $-1 $279 1 1 1 1 1 1 1 1 1 1 1 1 0 1 0 1 1 1 @17 NEW_SIMPLE_ATTRIB 1 @9 ENTITY_ID 0 3 119 -2147483648 -1 #
straight-curve $-1 -1 -1 $-1 -60 60 0 0 0 -1 I I #
simple-snl-attrib $-1 -1 $-1 $-1 $281 1 1 1 1 1 1 1 1 1 1 1 1 0 1 0 1 1 1 @17 NEW_SIMPLE_ATTRIB 1 @9 ENTITY_ID 0 3 79 -2147483648 -1 #
point $-1 -1 -1 $-1 -60 -60 -60 #
simple-snl-attrib $-1 -1 $-1 $-1 $283 1 1 1 1 1 1 1 1 1 1 1 1 0 1 0 1 1 1 @17 NEW_SIMPLE_ATTRIB 1 @9 ENTITY_ID 0 3 115 -2147483648 -1 #
straight-curve $-1 -1 -1 $-1 -60 0 -60 0 1 0 I I #
simple-snl-attrib $-1 -1 $-1 $-1 $287 1 1 1 1 1 1 1 1 1 1 1 1 0 1 0 1 1 1 @17 NEW_SIMPLE_ATTRIB 1 @9 ENTITY_ID 0 3 80 -2147483648 -1 #
point $-1 -1 -1 $-1 -60 60 -60 #
simple-snl-attrib $-1 -1 $-1 $-1 $306 1 1 1 1 1 1 1 1 1 1 1 1 0 1 0 1 1 1 @17 NEW_SIMPLE_ATTRIB 1 @9 ENTITY_ID 0 3 71 -2147483648 -1 #
straight-curve $-1 -1 -1 $-1 -60 60 0 0 0 -1 I I #
simple-snl-attrib $-1 -1 $-1 $-1 $308 1 1 1 1 1 1 1 1 1 1 1 1 0 1 0 1 1 1 @17 NEW_SIMPLE_ATTRIB 1 @9 ENTITY_ID 0 3 48 -2147483648 -1 #
point $-1 -1 -1 $-1 -60 -60 -60 #
simple-snl-attrib $-1 -1 $-1 $-1 $310 1 1 1 1 1 1 1 1 1 1 1 1 0 1 0 1 1 1 @17 NEW_SIMPLE_ATTRIB 1 @9 ENTITY_ID 0 3 67 -2147483648 -1 #
straight-curve $-1 -1 -1 $-1 -60 0 -60 0 1 0 I I #
simple-snl-attrib $-1 -1 $-1 $-1 $312 1 1 1 1 1 1 1 1 1 1 1 1 0 1 0 1 1 1 @17 NEW_SIMPLE_ATTRIB 1 @9 ENTITY_ID 0 3 47 -2147483648 -1 #
point $-1 -1 -1 $-1 -60 60 -60 #
End-of-ACIS-data 