1600 0 3 0           
14 Cubit  (iGeom) 17 ACIS 16.0.7 Linux 24 Tue Feb 22 15:29:50 2011 
1 9.9999999999999995e-07 1e-10 
body $3 -1 -1 $-1 $4 $-1 $-1 F #
body $5 -1 -1 $-1 $6 $-1 $-1 T -0.5 -0.5 -0.5 0.5 0.5 0.5 #
body $7 -1 -1 $-1 $8 $-1 $-1 T -2.3999999999999999 -2.3999999999999999 -2.3999999999999999 2.3999999999999999 2.3999999999999999 2.3999999999999999 #
simple-snl-attrib $-1 -1 $9 $-1 $0 1 1 1 1 1 1 1 1 1 1 1 1 0 1 0 1 1 1 @17 NEW_SIMPLE_ATTRIB 1 @9 ENTITY_ID 0 3 4 -2147483648 -1 #
lump $10 -1 -1 $-1 $-1 $11 $0 F #
simple-snl-attrib $-1 -1 $12 $-1 $1 1 1 1 1 1 1 1 1 1 1 1 1 0 1 0 1 1 1 @17 NEW_SIMPLE_ATTRIB 1 @9 ENTITY_ID 0 3 12 -2147483648 -1 #
lump $13 -1 -1 $-1 $-1 $14 $1 T -0.5 -0.5 -0.5 0.5 0.5 0.5 #
simple-snl-attrib $-1 -1 $15 $-1 $2 1 1 1 1 1 1 1 1 1 1 1 1 0 1 0 1 1 1 @17 NEW_SIMPLE_ATTRIB 1 @9 ENTITY_ID 0 3 15 -2147483648 -1 #
lump $16 -1 -1 $-1 $-1 $17 $2 T -2.3999999999999999 -2.3999999999999999 -2.3999999999999999 2.3999999999999999 2.3999999999999999 2.3999999999999999 #
simple-snl-attrib $-1 -1 $-1 $3 $0 1 1 1 1 1 1 1 1 1 1 1 1 0 1 0 1 1 1 @17 NEW_SIMPLE_ATTRIB 2 @5 GROUP @9 graveyard 0 7 1 1 467621961 0 0 0 0 #
simple-snl-attrib $-1 -1 $-1 $-1 $4 1 1 1 1 1 1 1 1 1 1 1 1 0 1 0 1 1 1 @17 NEW_SIMPLE_ATTRIB 1 @9 ENTITY_ID 0 3 1 -2147483648 -1 #
shell $-1 -1 -1 $-1 $18 $-1 $19 $-1 $4 T -2.448 -2.448 -2.448 2.448 2.448 2.448 #
simple-snl-attrib $-1 -1 $20 $5 $1 1 1 1 1 1 1 1 1 1 1 1 1 0 1 0 1 1 1 @17 NEW_SIMPLE_ATTRIB 2 @5 GROUP @15 mat_1_rho_-2.33 0 7 1 2 645764863 0 0 0 0 #
simple-snl-attrib $-1 -1 $-1 $-1 $6 1 1 1 1 1 1 1 1 1 1 1 1 0 1 0 1 1 1 @17 NEW_SIMPLE_ATTRIB 1 @9 ENTITY_ID 0 3 2 -2147483648 -1 #
shell $-1 -1 -1 $-1 $-1 $-1 $21 $-1 $6 T -0.5 -0.5 -0.5 0.5 0.5 0.5 #
simple-snl-attrib $-1 -1 $-1 $7 $2 1 1 1 1 1 1 1 1 1 1 1 1 0 1 0 1 1 1 @17 NEW_SIMPLE_ATTRIB 2 @11 ENTITY_NAME @9 MCNP_ID_2 0 0 #
simple-snl-attrib $-1 -1 $-1 $-1 $8 1 1 1 1 1 1 1 1 1 1 1 1 0 1 0 1 1 1 @17 NEW_SIMPLE_ATTRIB 1 @9 ENTITY_ID 0 3 3 -2147483648 -1 #
shell $-1 -1 -1 $-1 $22 $-1 $23 $-1 $8 T -2.3999999999999999 -2.3999999999999999 -2.3999999999999999 2.3999999999999999 2.3999999999999999 2.3999999999999999 #
shell $-1 -1 -1 $-1 $-1 $-1 $24 $-1 $4 T -2.3999999999999999 -2.3999999999999999 -2.3999999999999999 2.3999999999999999 2.3999999999999999 2.3999999999999999 #
face $25 -1 -1 $-1 $26 $27 $11 $-1 $28 forward single T -2.448 -2.448 2.448 2.448 2.448 2.448 F #
simple-snl-attrib $-1 -1 $-1 $12 $1 1 1 1 1 1 1 1 1 1 1 1 1 0 1 0 1 1 1 @17 NEW_SIMPLE_ATTRIB 2 @11 ENTITY_NAME @9 MCNP_ID_1 0 0 #
face $29 -1 -1 $-1 $30 $31 $14 $-1 $32 forward single T -0.5 -0.5 -0.5 0.5 0.5 0.5 F #
shell $-1 -1 -1 $-1 $-1 $-1 $33 $-1 $8 T -0.5 -0.5 -0.5 0.5 0.5 0.5 #
face $34 -1 -1 $-1 $35 $36 $17 $-1 $37 forward single T -2.3999999999999999 -2.3999999999999999 2.3999999999999999 2.3999999999999999 2.3999999999999999 2.3999999999999999 F #
face $38 -1 -1 $-1 $39 $40 $18 $-1 $41 reversed single T -2.3999999999999999 -2.3999999999999999 2.3999999999999999 2.3999999999999999 2.3999999999999999 2.3999999999999999 F #
simple-snl-attrib $-1 -1 $-1 $-1 $19 1 1 1 1 1 1 1 1 1 1 1 1 0 1 0 1 1 1 @17 NEW_SIMPLE_ATTRIB 1 @9 ENTITY_ID 0 3 1 -2147483648 -1 #
face $42 -1 -1 $-1 $43 $44 $11 $-1 $45 reversed single T -2.448 -2.448 -2.448 2.448 2.448 -2.448 F #
loop $-1 -1 -1 $-1 $-1 $46 $19 T -2.448 -2.448 2.448 2.448 2.448 2.448 unknown #
plane-surface $-1 -1 -1 $-1 0 0 2.448 0 0 1 1 0 0 forward_v I I I I #
simple-snl-attrib $-1 -1 $47 $-1 $21 1 1 1 1 1 1 1 1 1 1 1 1 0 1 0 1 1 1 @17 NEW_SIMPLE_ATTRIB 1 @9 UNIQUE_ID 1 0 1 554856966 #
face $48 -1 -1 $-1 $49 $50 $14 $-1 $51 forward single T -0.5 -0.5 -0.5 0.5 0.5 -0.5 F #
loop $-1 -1 -1 $-1 $52 $53 $21 T -0.5 -0.5 -0.5 0.5 0.5 -0.5 unknown #
cone-surface $-1 -1 -1 $-1 0 0 0 0 0 1 -0.5 6.1232339957367648e-17 0 1 I I 0 1 0.5 forward I I I I #
face $54 -1 -1 $-1 $55 $56 $22 $-1 $57 reversed single T -0.5 -0.5 -0.5 0.5 0.5 0.5 F #
simple-snl-attrib $-1 -1 $-1 $-1 $23 1 1 1 1 1 1 1 1 1 1 1 1 0 1 0 1 1 1 @17 NEW_SIMPLE_ATTRIB 1 @9 ENTITY_ID 0 3 16 -2147483648 -1 #
face $58 -1 -1 $-1 $59 $60 $17 $-1 $61 reversed single T -2.3999999999999999 -2.3999999999999999 -2.3999999999999999 2.3999999999999999 2.3999999999999999 -2.3999999999999999 F #
loop $-1 -1 -1 $-1 $-1 $62 $23 T -2.3999999999999999 -2.3999999999999999 2.3999999999999999 2.3999999999999999 2.3999999999999999 2.3999999999999999 unknown #
plane-surface $-1 -1 -1 $-1 0 0 2.3999999999999999 0 0 1 1 0 0 forward_v I I I I #
simple-snl-attrib $-1 -1 $-1 $-1 $24 1 1 1 1 1 1 1 1 1 1 1 1 0 1 0 1 1 1 @17 NEW_SIMPLE_ATTRIB 1 @9 ENTITY_ID 0 3 7 -2147483648 -1 #
face $63 -1 -1 $-1 $64 $65 $18 $-1 $66 forward single T -2.3999999999999999 -2.3999999999999999 -2.3999999999999999 2.3999999999999999 2.3999999999999999 -2.3999999999999999 F #
loop $-1 -1 -1 $-1 $-1 $67 $24 T -2.3999999999999999 -2.3999999999999999 2.3999999999999999 2.3999999999999999 2.3999999999999999 2.3999999999999999 unknown #
plane-surface $-1 -1 -1 $-1 0 0 2.3999999999999999 0 0 1 1 0 0 forward_v I I I I #
simple-snl-attrib $-1 -1 $-1 $-1 $26 1 1 1 1 1 1 1 1 1 1 1 1 0 1 0 1 1 1 @17 NEW_SIMPLE_ATTRIB 1 @9 ENTITY_ID 0 3 2 -2147483648 -1 #
face $68 -1 -1 $-1 $69 $70 $11 $-1 $71 reversed single T -2.448 -2.448 -2.448 2.448 -2.448 2.448 F #
loop $-1 -1 -1 $-1 $-1 $72 $26 T -2.448 -2.448 -2.448 2.448 2.448 -2.448 unknown #
plane-surface $-1 -1 -1 $-1 0 0 -2.448 0 0 1 1 0 0 forward_v I I I I #
coedge $-1 -1 -1 $-1 $73 $74 $75 $76 forward $27 $-1 #
simple-snl-attrib $-1 -1 $77 $29 $21 1 1 1 1 1 1 1 1 1 1 1 1 0 1 0 1 1 1 @17 NEW_SIMPLE_ATTRIB 1 @9 ENTITY_ID 0 3 13 1056782342 1 #
simple-snl-attrib $-1 -1 $78 $-1 $30 1 1 1 1 1 1 1 1 1 1 1 1 0 1 0 1 1 1 @17 NEW_SIMPLE_ATTRIB 1 @9 UNIQUE_ID 1 0 1 143277007 #
face $79 -1 -1 $-1 $-1 $80 $14 $-1 $81 forward single T -0.5 -0.5 0.5 0.5 0.5 0.5 F #
loop $-1 -1 -1 $-1 $-1 $82 $30 T -0.5 -0.5 -0.5 0.5 0.5 -0.5 unknown #
plane-surface $-1 -1 -1 $-1 0 0 -0.5 0 0 -1 1 -1.224646799147353e-16 0 forward_v I I I I #
loop $-1 -1 -1 $-1 $-1 $83 $21 T -0.5 -0.5 0.5 0.5 0.5 0.5 unknown #
coedge $-1 -1 -1 $-1 $53 $53 $82 $84 reversed $31 $-1 #
simple-snl-attrib $-1 -1 $85 $-1 $33 1 1 1 1 1 1 1 1 1 1 1 1 0 1 0 1 1 1 @17 NEW_SIMPLE_ATTRIB 1 @9 UNIQUE_ID 1 0 1 554856966 #
face $86 -1 -1 $-1 $87 $88 $22 $-1 $89 reversed single T -0.5 -0.5 -0.5 0.5 0.5 -0.5 F #
loop $-1 -1 -1 $-1 $90 $91 $33 T -0.5 -0.5 -0.5 0.5 0.5 -0.5 unknown #
cone-surface $-1 -1 -1 $-1 0 0 0 0 0 1 -0.5 6.1232339957367648e-17 0 1 I I 0 1 0.5 forward I I I I #
simple-snl-attrib $-1 -1 $-1 $-1 $35 1 1 1 1 1 1 1 1 1 1 1 1 0 1 0 1 1 1 @17 NEW_SIMPLE_ATTRIB 1 @9 ENTITY_ID 0 3 17 -2147483648 -1 #
face $92 -1 -1 $-1 $93 $94 $17 $-1 $95 reversed single T -2.3999999999999999 -2.3999999999999999 -2.3999999999999999 2.3999999999999999 -2.3999999999999999 2.3999999999999999 F #
loop $-1 -1 -1 $-1 $-1 $96 $35 T -2.3999999999999999 -2.3999999999999999 -2.3999999999999999 2.3999999999999999 2.3999999999999999 -2.3999999999999999 unknown #
plane-surface $-1 -1 -1 $-1 0 0 -2.3999999999999999 0 0 1 1 0 0 forward_v I I I I #
coedge $-1 -1 -1 $-1 $97 $98 $99 $100 forward $36 $-1 #
simple-snl-attrib $-1 -1 $-1 $-1 $39 1 1 1 1 1 1 1 1 1 1 1 1 0 1 0 1 1 1 @17 NEW_SIMPLE_ATTRIB 1 @9 ENTITY_ID 0 3 8 -2147483648 -1 #
face $101 -1 -1 $-1 $102 $103 $18 $-1 $104 forward single T -2.3999999999999999 -2.3999999999999999 -2.3999999999999999 2.3999999999999999 -2.3999999999999999 2.3999999999999999 F #
loop $-1 -1 -1 $-1 $-1 $105 $39 T -2.3999999999999999 -2.3999999999999999 -2.3999999999999999 2.3999999999999999 2.3999999999999999 -2.3999999999999999 unknown #
plane-surface $-1 -1 -1 $-1 0 0 -2.3999999999999999 0 0 1 1 0 0 forward_v I I I I #
coedge $-1 -1 -1 $-1 $106 $107 $108 $109 reversed $40 $-1 #
simple-snl-attrib $-1 -1 $-1 $-1 $43 1 1 1 1 1 1 1 1 1 1 1 1 0 1 0 1 1 1 @17 NEW_SIMPLE_ATTRIB 1 @9 ENTITY_ID 0 3 3 -2147483648 -1 #
face $110 -1 -1 $-1 $111 $112 $11 $-1 $113 reversed single T -2.448 -2.448 -2.448 -2.448 2.448 2.448 F #
loop $-1 -1 -1 $-1 $-1 $114 $43 T -2.448 -2.448 -2.448 2.448 -2.448 2.448 unknown #
plane-surface $-1 -1 -1 $-1 0 -2.448 0 0 1 -0 -0 0 1 forward_v I I I I #
coedge $-1 -1 -1 $-1 $115 $116 $117 $118 forward $44 $-1 #
coedge $-1 -1 -1 $-1 $119 $46 $120 $121 forward $27 $-1 #
coedge $-1 -1 -1 $-1 $46 $119 $122 $123 forward $27 $-1 #
coedge $-1 -1 -1 $-1 $124 $125 $46 $76 reversed $126 $-1 #
edge $127 -1 -1 $-1 $128 -2.448 $129 2.448 $75 $130 forward @7 unknown T 2.448 -2.448 2.448 2.448 2.448 2.448 #
simple-snl-attrib $-1 -1 $-1 $47 $21 1 1 1 1 1 1 1 1 1 1 1 1 0 1 0 1 1 1 @17 NEW_SIMPLE_ATTRIB 1 @13 MERGE_PARTNER 0 4 554856966 1 66 1 #
simple-snl-attrib $-1 -1 $131 $48 $30 1 1 1 1 1 1 1 1 1 1 1 1 0 1 0 1 1 1 @17 NEW_SIMPLE_ATTRIB 1 @9 ENTITY_ID 0 3 14 1056782342 0 #
simple-snl-attrib $-1 -1 $132 $-1 $49 1 1 1 1 1 1 1 1 1 1 1 1 0 1 0 1 1 1 @17 NEW_SIMPLE_ATTRIB 1 @9 UNIQUE_ID 1 0 1 1375803006 #
loop $-1 -1 -1 $-1 $-1 $133 $49 T -0.5 -0.5 0.5 0.5 0.5 0.5 unknown #
plane-surface $-1 -1 -1 $-1 0 0 0.5 0 0 1 -1 1.224646799147353e-16 0 forward_v I I I I #
coedge $-1 -1 -1 $-1 $82 $82 $53 $84 forward $50 $-1 #
coedge $-1 -1 -1 $-1 $83 $83 $133 $134 reversed $52 $-1 #
edge $135 -1 -1 $-1 $136 0 $136 6.2831853071795862 $82 $137 forward @7 unknown T -0.5 -0.5 -0.5 0.5 0.5 -0.5 #
simple-snl-attrib $-1 -1 $138 $54 $33 1 1 1 1 1 1 1 1 1 1 1 1 0 1 0 1 1 1 @17 NEW_SIMPLE_ATTRIB 1 @9 ENTITY_ID 0 3 13 1056782342 1 #
simple-snl-attrib $-1 -1 $139 $-1 $55 1 1 1 1 1 1 1 1 1 1 1 1 0 1 0 1 1 1 @17 NEW_SIMPLE_ATTRIB 1 @9 UNIQUE_ID 1 0 1 143277007 #
face $140 -1 -1 $-1 $-1 $141 $22 $-1 $142 reversed single T -0.5 -0.5 0.5 0.5 0.5 0.5 F #
loop $-1 -1 -1 $-1 $-1 $143 $55 T -0.5 -0.5 -0.5 0.5 0.5 -0.5 unknown #
plane-surface $-1 -1 -1 $-1 0 0 -0.5 0 0 -1 1 -1.224646799147353e-16 0 forward_v I I I I #
loop $-1 -1 -1 $-1 $-1 $144 $33 T -0.5 -0.5 0.5 0.5 0.5 0.5 unknown #
coedge $-1 -1 -1 $-1 $91 $91 $143 $145 forward $56 $-1 #
simple-snl-attrib $-1 -1 $-1 $-1 $59 1 1 1 1 1 1 1 1 1 1 1 1 0 1 0 1 1 1 @17 NEW_SIMPLE_ATTRIB 1 @9 ENTITY_ID 0 3 18 -2147483648 -1 #
face $146 -1 -1 $-1 $147 $148 $17 $-1 $149 reversed single T -2.3999999999999999 -2.3999999999999999 -2.3999999999999999 -2.3999999999999999 2.3999999999999999 2.3999999999999999 F #
loop $-1 -1 -1 $-1 $-1 $150 $59 T -2.3999999999999999 -2.3999999999999999 -2.3999999999999999 2.3999999999999999 -2.3999999999999999 2.3999999999999999 unknown #
plane-surface $-1 -1 -1 $-1 0 -2.3999999999999999 0 0 1 -0 -0 0 1 forward_v I I I I #
coedge $-1 -1 -1 $-1 $151 $152 $153 $154 forward $60 $-1 #
coedge $-1 -1 -1 $-1 $155 $62 $156 $157 forward $36 $-1 #
coedge $-1 -1 -1 $-1 $62 $155 $158 $159 forward $36 $-1 #
coedge $-1 -1 -1 $-1 $160 $161 $62 $100 reversed $162 $-1 #
edge $163 -1 -1 $-1 $164 -2.3999999999999999 $165 2.3999999999999999 $99 $166 forward @7 unknown T 2.3999999999999999 -2.3999999999999999 2.3999999999999999 2.3999999999999999 2.3999999999999999 2.3999999999999999 #
simple-snl-attrib $-1 -1 $-1 $-1 $64 1 1 1 1 1 1 1 1 1 1 1 1 0 1 0 1 1 1 @17 NEW_SIMPLE_ATTRIB 1 @9 ENTITY_ID 0 3 9 -2147483648 -1 #
face $167 -1 -1 $-1 $168 $169 $18 $-1 $170 forward single T -2.3999999999999999 -2.3999999999999999 -2.3999999999999999 -2.3999999999999999 2.3999999999999999 2.3999999999999999 F #
loop $-1 -1 -1 $-1 $-1 $171 $64 T -2.3999999999999999 -2.3999999999999999 -2.3999999999999999 2.3999999999999999 -2.3999999999999999 2.3999999999999999 unknown #
plane-surface $-1 -1 -1 $-1 0 -2.3999999999999999 0 0 1 -0 -0 0 1 forward_v I I I I #
coedge $-1 -1 -1 $-1 $172 $173 $174 $175 reversed $65 $-1 #
coedge $-1 -1 -1 $-1 $176 $67 $177 $178 reversed $40 $-1 #
coedge $-1 -1 -1 $-1 $67 $176 $179 $180 reversed $40 $-1 #
coedge $-1 -1 -1 $-1 $181 $182 $67 $109 forward $183 $-1 #
edge $184 -1 -1 $-1 $185 -2.3999999999999999 $186 2.3999999999999999 $108 $187 forward @7 unknown T 2.3999999999999999 -2.3999999999999999 2.3999999999999999 2.3999999999999999 2.3999999999999999 2.3999999999999999 #
simple-snl-attrib $-1 -1 $-1 $-1 $69 1 1 1 1 1 1 1 1 1 1 1 1 0 1 0 1 1 1 @17 NEW_SIMPLE_ATTRIB 1 @9 ENTITY_ID 0 3 4 -2147483648 -1 #
face $188 -1 -1 $-1 $189 $190 $11 $-1 $191 reversed single T -2.448 2.448 -2.448 2.448 2.448 2.448 F #
loop $-1 -1 -1 $-1 $-1 $192 $69 T -2.448 -2.448 -2.448 -2.448 2.448 2.448 unknown #
plane-surface $-1 -1 -1 $-1 -2.448 0 0 1 0 0 0 0 -1 forward_v I I I I #
coedge $-1 -1 -1 $-1 $193 $122 $194 $195 forward $70 $-1 #
coedge $-1 -1 -1 $-1 $196 $72 $193 $197 forward $44 $-1 #
coedge $-1 -1 -1 $-1 $72 $196 $198 $199 forward $44 $-1 #
coedge $-1 -1 -1 $-1 $125 $124 $72 $118 reversed $126 $-1 #
edge $200 -1 -1 $-1 $201 -2.448 $202 2.448 $117 $203 forward @7 unknown T 2.448 -2.448 -2.448 2.448 2.448 -2.448 #
coedge $-1 -1 -1 $-1 $74 $73 $204 $205 forward $27 $-1 #
coedge $-1 -1 -1 $-1 $206 $207 $73 $121 reversed $190 $-1 #
edge $208 -1 -1 $-1 $129 -2.448 $209 2.448 $120 $210 forward @7 unknown T -2.448 2.448 2.448 2.448 2.448 2.448 #
coedge $-1 -1 -1 $-1 $114 $211 $74 $123 reversed $70 $-1 #
edge $212 -1 -1 $-1 $213 -2.448 $128 2.448 $122 $214 forward @7 unknown T -2.448 -2.448 2.448 2.448 -2.448 2.448 #
coedge $-1 -1 -1 $-1 $117 $75 $211 $215 forward $126 $-1 #
coedge $-1 -1 -1 $-1 $75 $117 $206 $216 reversed $126 $-1 #
loop $-1 -1 -1 $-1 $-1 $124 $189 T 2.448 -2.448 -2.448 2.448 2.448 2.448 unknown #
simple-snl-attrib $-1 -1 $-1 $-1 $76 1 1 1 1 1 1 1 1 1 1 1 1 0 1 0 1 1 1 @17 NEW_SIMPLE_ATTRIB 1 @9 ENTITY_ID 0 3 37 -2147483648 -1 #
vertex $217 -1 -1 $-1 $76 $218 #
vertex $219 -1 -1 $-1 $76 $220 #
straight-curve $-1 -1 -1 $-1 2.448 0 2.448 0 1 0 I I #
simple-snl-attrib $-1 -1 $-1 $78 $30 1 1 1 1 1 1 1 1 1 1 1 1 0 1 0 1 1 1 @17 NEW_SIMPLE_ATTRIB 1 @13 MERGE_PARTNER 0 4 143277007 1 67 1 #
simple-snl-attrib $-1 -1 $221 $79 $49 1 1 1 1 1 1 1 1 1 1 1 1 0 1 0 1 1 1 @17 NEW_SIMPLE_ATTRIB 1 @9 ENTITY_ID 0 3 15 1073573823 0 #
coedge $-1 -1 -1 $-1 $133 $133 $83 $134 forward $80 $-1 #
edge $222 -1 -1 $-1 $223 0 $223 6.2831853071795862 $133 $224 forward @7 unknown T -0.5 -0.5 0.5 0.5 0.5 0.5 #
simple-snl-attrib $-1 -1 $225 $-1 $84 1 1 1 1 1 1 1 1 1 1 1 1 0 1 0 1 1 1 @17 NEW_SIMPLE_ATTRIB 1 @9 ENTITY_ID 3 0.24999999999999994 0.43301270189221924 -0.5 3 107 1829976932 0 #
vertex $226 -1 -1 $-1 $84 $227 #
ellipse-curve $-1 -1 -1 $-1 0 0 -0.5 0 0 -1 -0.5 6.1232339957367648e-17 0 1 I I #
simple-snl-attrib $-1 -1 $-1 $85 $33 1 1 1 1 1 1 1 1 1 1 1 1 0 1 0 1 1 1 @17 NEW_SIMPLE_ATTRIB 1 @13 MERGE_PARTNER 0 4 554856966 -1 22 0 #
simple-snl-attrib $-1 -1 $228 $86 $55 1 1 1 1 1 1 1 1 1 1 1 1 0 1 0 1 1 1 @17 NEW_SIMPLE_ATTRIB 1 @9 ENTITY_ID 0 3 14 1056782342 0 #
simple-snl-attrib $-1 -1 $229 $-1 $87 1 1 1 1 1 1 1 1 1 1 1 1 0 1 0 1 1 1 @17 NEW_SIMPLE_ATTRIB 1 @9 UNIQUE_ID 1 0 1 1375803006 #
loop $-1 -1 -1 $-1 $-1 $230 $87 T -0.5 -0.5 0.5 0.5 0.5 0.5 unknown #
plane-surface $-1 -1 -1 $-1 0 0 0.5 0 0 1 -1 1.224646799147353e-16 0 forward_v I I I I #
coedge $-1 -1 -1 $-1 $143 $143 $91 $145 reversed $88 $-1 #
coedge $-1 -1 -1 $-1 $144 $144 $230 $231 forward $90 $-1 #
edge $232 -1 -1 $-1 $233 0 $233 6.2831853071795862 $143 $234 forward @7 unknown T -0.5 -0.5 -0.5 0.5 0.5 -0.5 #
simple-snl-attrib $-1 -1 $-1 $-1 $93 1 1 1 1 1 1 1 1 1 1 1 1 0 1 0 1 1 1 @17 NEW_SIMPLE_ATTRIB 1 @9 ENTITY_ID 0 3 19 -2147483648 -1 #
face $235 -1 -1 $-1 $236 $237 $17 $-1 $238 reversed single T -2.3999999999999999 2.3999999999999999 -2.3999999999999999 2.3999999999999999 2.3999999999999999 2.3999999999999999 F #
loop $-1 -1 -1 $-1 $-1 $239 $93 T -2.3999999999999999 -2.3999999999999999 -2.3999999999999999 -2.3999999999999999 2.3999999999999999 2.3999999999999999 unknown #
plane-surface $-1 -1 -1 $-1 -2.3999999999999999 0 0 1 0 0 0 0 -1 forward_v I I I I #
coedge $-1 -1 -1 $-1 $240 $158 $241 $242 forward $94 $-1 #
coedge $-1 -1 -1 $-1 $243 $96 $240 $244 forward $60 $-1 #
coedge $-1 -1 -1 $-1 $96 $243 $245 $246 forward $60 $-1 #
coedge $-1 -1 -1 $-1 $161 $160 $96 $154 reversed $162 $-1 #
edge $247 -1 -1 $-1 $248 -2.3999999999999999 $249 2.3999999999999999 $153 $250 forward @7 unknown T 2.3999999999999999 -2.3999999999999999 -2.3999999999999999 2.3999999999999999 2.3999999999999999 -2.3999999999999999 #
coedge $-1 -1 -1 $-1 $98 $97 $251 $252 forward $36 $-1 #
coedge $-1 -1 -1 $-1 $253 $254 $97 $157 reversed $237 $-1 #
edge $255 -1 -1 $-1 $165 -2.3999999999999999 $256 2.3999999999999999 $156 $257 forward @7 unknown T -2.3999999999999999 2.3999999999999999 2.3999999999999999 2.3999999999999999 2.3999999999999999 2.3999999999999999 #
coedge $-1 -1 -1 $-1 $150 $258 $98 $159 reversed $94 $-1 #
edge $259 -1 -1 $-1 $260 -2.3999999999999999 $164 2.3999999999999999 $158 $261 forward @7 unknown T -2.3999999999999999 -2.3999999999999999 2.3999999999999999 2.3999999999999999 -2.3999999999999999 2.3999999999999999 #
coedge $-1 -1 -1 $-1 $153 $99 $258 $262 forward $162 $-1 #
coedge $-1 -1 -1 $-1 $99 $153 $253 $263 reversed $162 $-1 #
loop $-1 -1 -1 $-1 $-1 $160 $236 T 2.3999999999999999 -2.3999999999999999 -2.3999999999999999 2.3999999999999999 2.3999999999999999 2.3999999999999999 unknown #
simple-snl-attrib $-1 -1 $-1 $-1 $100 1 1 1 1 1 1 1 1 1 1 1 1 0 1 0 1 1 1 @17 NEW_SIMPLE_ATTRIB 1 @9 ENTITY_ID 0 3 121 -2147483648 -1 #
vertex $264 -1 -1 $-1 $100 $265 #
vertex $266 -1 -1 $-1 $100 $267 #
straight-curve $-1 -1 -1 $-1 2.3999999999999999 0 2.3999999999999999 0 1 0 I I #
simple-snl-attrib $-1 -1 $-1 $-1 $102 1 1 1 1 1 1 1 1 1 1 1 1 0 1 0 1 1 1 @17 NEW_SIMPLE_ATTRIB 1 @9 ENTITY_ID 0 3 10 -2147483648 -1 #
face $268 -1 -1 $-1 $269 $270 $18 $-1 $271 forward single T -2.3999999999999999 2.3999999999999999 -2.3999999999999999 2.3999999999999999 2.3999999999999999 2.3999999999999999 F #
loop $-1 -1 -1 $-1 $-1 $272 $102 T -2.3999999999999999 -2.3999999999999999 -2.3999999999999999 -2.3999999999999999 2.3999999999999999 2.3999999999999999 unknown #
plane-surface $-1 -1 -1 $-1 -2.3999999999999999 0 0 1 0 0 0 0 -1 forward_v I I I I #
coedge $-1 -1 -1 $-1 $177 $273 $274 $275 reversed $103 $-1 #
coedge $-1 -1 -1 $-1 $276 $105 $277 $278 reversed $65 $-1 #
coedge $-1 -1 -1 $-1 $105 $276 $273 $279 reversed $65 $-1 #
coedge $-1 -1 -1 $-1 $182 $181 $105 $175 forward $183 $-1 #
edge $280 -1 -1 $-1 $281 -2.3999999999999999 $282 2.3999999999999999 $174 $283 forward @7 unknown T 2.3999999999999999 -2.3999999999999999 -2.3999999999999999 2.3999999999999999 2.3999999999999999 -2.3999999999999999 #
coedge $-1 -1 -1 $-1 $107 $106 $284 $285 reversed $40 $-1 #
coedge $-1 -1 -1 $-1 $286 $171 $106 $178 forward $103 $-1 #
edge $287 -1 -1 $-1 $288 -2.3999999999999999 $185 2.3999999999999999 $177 $289 forward @7 unknown T -2.3999999999999999 -2.3999999999999999 2.3999999999999999 2.3999999999999999 -2.3999999999999999 2.3999999999999999 #
coedge $-1 -1 -1 $-1 $290 $291 $107 $180 forward $270 $-1 #
edge $292 -1 -1 $-1 $186 -2.3999999999999999 $293 2.3999999999999999 $179 $294 forward @7 unknown T -2.3999999999999999 2.3999999999999999 2.3999999999999999 2.3999999999999999 2.3999999999999999 2.3999999999999999 #
coedge $-1 -1 -1 $-1 $174 $108 $291 $295 forward $183 $-1 #
coedge $-1 -1 -1 $-1 $108 $174 $286 $296 reversed $183 $-1 #
loop $-1 -1 -1 $-1 $-1 $182 $269 T 2.3999999999999999 -2.3999999999999999 -2.3999999999999999 2.3999999999999999 2.3999999999999999 2.3999999999999999 unknown #
simple-snl-attrib $-1 -1 $-1 $-1 $109 1 1 1 1 1 1 1 1 1 1 1 1 0 1 0 1 1 1 @17 NEW_SIMPLE_ATTRIB 1 @9 ENTITY_ID 0 3 61 -2147483648 -1 #
vertex $297 -1 -1 $-1 $109 $298 #
vertex $299 -1 -1 $-1 $109 $300 #
straight-curve $-1 -1 -1 $-1 2.3999999999999999 0 2.3999999999999999 0 1 0 I I #
simple-snl-attrib $-1 -1 $-1 $-1 $111 1 1 1 1 1 1 1 1 1 1 1 1 0 1 0 1 1 1 @17 NEW_SIMPLE_ATTRIB 1 @9 ENTITY_ID 0 3 5 -2147483648 -1 #
face $301 -1 -1 $-1 $-1 $126 $11 $-1 $302 reversed single T 2.448 -2.448 -2.448 2.448 2.448 2.448 F #
loop $-1 -1 -1 $-1 $-1 $206 $111 T -2.448 2.448 -2.448 2.448 2.448 2.448 unknown #
plane-surface $-1 -1 -1 $-1 0 2.448 0 0 -1 0 0 0 -1 forward_v I I I I #
coedge $-1 -1 -1 $-1 $303 $204 $207 $304 forward $112 $-1 #
coedge $-1 -1 -1 $-1 $211 $114 $115 $197 reversed $70 $-1 #
coedge $-1 -1 -1 $-1 $204 $303 $114 $195 reversed $112 $-1 #
edge $305 -1 -1 $-1 $213 -2.448 $306 2.448 $194 $307 forward @7 unknown T -2.448 -2.448 -2.448 -2.448 -2.448 2.448 #
coedge $-1 -1 -1 $-1 $116 $115 $303 $308 forward $44 $-1 #
edge $309 -1 -1 $-1 $202 -2.448 $306 2.448 $193 $310 forward @7 unknown T -2.448 -2.448 -2.448 2.448 -2.448 -2.448 #
coedge $-1 -1 -1 $-1 $207 $206 $116 $199 reversed $190 $-1 #
edge $311 -1 -1 $-1 $312 -2.448 $201 2.448 $198 $313 forward @7 unknown T -2.448 2.448 -2.448 2.448 2.448 -2.448 #
simple-snl-attrib $-1 -1 $-1 $-1 $118 1 1 1 1 1 1 1 1 1 1 1 1 0 1 0 1 1 1 @17 NEW_SIMPLE_ATTRIB 1 @9 ENTITY_ID 0 3 41 -2147483648 -1 #
vertex $314 -1 -1 $-1 $118 $315 #
vertex $316 -1 -1 $-1 $215 $317 #
straight-curve $-1 -1 -1 $-1 2.448 0 -2.448 0 -1 0 I I #
coedge $-1 -1 -1 $-1 $192 $194 $119 $205 reversed $112 $-1 #
edge $318 -1 -1 $-1 $209 -2.448 $213 2.448 $204 $319 forward @7 unknown T -2.448 -2.448 2.448 -2.448 2.448 2.448 #
coedge $-1 -1 -1 $-1 $198 $120 $125 $216 forward $190 $-1 #
coedge $-1 -1 -1 $-1 $120 $198 $192 $304 reversed $190 $-1 #
simple-snl-attrib $-1 -1 $-1 $-1 $121 1 1 1 1 1 1 1 1 1 1 1 1 0 1 0 1 1 1 @17 NEW_SIMPLE_ATTRIB 1 @9 ENTITY_ID 0 3 38 -2147483648 -1 #
vertex $320 -1 -1 $-1 $121 $321 #
straight-curve $-1 -1 -1 $-1 0 2.448 2.448 -1 0 0 I I #
coedge $-1 -1 -1 $-1 $122 $193 $124 $215 reversed $70 $-1 #
simple-snl-attrib $-1 -1 $-1 $-1 $123 1 1 1 1 1 1 1 1 1 1 1 1 0 1 0 1 1 1 @17 NEW_SIMPLE_ATTRIB 1 @9 ENTITY_ID 0 3 40 -2147483648 -1 #
vertex $322 -1 -1 $-1 $205 $323 #
straight-curve $-1 -1 -1 $-1 0 -2.448 2.448 1 0 0 I I #
edge $324 -1 -1 $-1 $128 -2.448 $202 2.448 $124 $325 forward @7 unknown T 2.448 -2.448 -2.448 2.448 -2.448 2.448 #
edge $326 -1 -1 $-1 $129 -2.448 $201 2.448 $125 $327 forward @7 unknown T 2.448 2.448 -2.448 2.448 2.448 2.448 #
simple-snl-attrib $-1 -1 $-1 $-1 $128 1 1 1 1 1 1 1 1 1 1 1 1 0 1 0 1 1 1 @17 NEW_SIMPLE_ATTRIB 1 @9 ENTITY_ID 0 3 25 -2147483648 -1 #
point $-1 -1 -1 $-1 2.448 -2.448 2.448 #
simple-snl-attrib $-1 -1 $-1 $-1 $129 1 1 1 1 1 1 1 1 1 1 1 1 0 1 0 1 1 1 @17 NEW_SIMPLE_ATTRIB 1 @9 ENTITY_ID 0 3 26 -2147483648 -1 #
point $-1 -1 -1 $-1 2.448 2.448 2.448 #
simple-snl-attrib $-1 -1 $-1 $132 $49 1 1 1 1 1 1 1 1 1 1 1 1 0 1 0 1 1 1 @17 NEW_SIMPLE_ATTRIB 1 @13 MERGE_PARTNER 0 4 1375803006 1 68 1 #
simple-snl-attrib $-1 -1 $328 $-1 $134 1 1 1 1 1 1 1 1 1 1 1 1 0 1 0 1 1 1 @17 NEW_SIMPLE_ATTRIB 1 @9 ENTITY_ID 3 0.24999999999999983 -0.43301270189221935 0.5 3 108 1684212078 0 #
vertex $329 -1 -1 $-1 $134 $330 #
ellipse-curve $-1 -1 -1 $-1 0 0 0.5 0 0 1 -0.5 6.1232339957367648e-17 0 1 I I #
simple-snl-attrib $-1 -1 $331 $135 $84 1 1 1 1 1 1 1 1 1 1 1 1 0 1 0 1 1 1 @17 NEW_SIMPLE_ATTRIB 1 @13 MERGE_PARTNER 0 4 1056782342 1 107 1 #
simple-snl-attrib $-1 -1 $332 $-1 $136 1 1 1 1 1 1 1 1 1 1 1 1 0 1 0 1 1 1 @17 NEW_SIMPLE_ATTRIB 1 @9 ENTITY_ID 0 3 75 -2147483648 -1 #
point $-1 -1 -1 $-1 -0.5 6.1232339957367648e-17 -0.5 #
simple-snl-attrib $-1 -1 $-1 $139 $55 1 1 1 1 1 1 1 1 1 1 1 1 0 1 0 1 1 1 @17 NEW_SIMPLE_ATTRIB 1 @13 MERGE_PARTNER 0 4 143277007 -1 23 0 #
simple-snl-attrib $-1 -1 $333 $140 $87 1 1 1 1 1 1 1 1 1 1 1 1 0 1 0 1 1 1 @17 NEW_SIMPLE_ATTRIB 1 @9 ENTITY_ID 0 3 15 1073573823 0 #
coedge $-1 -1 -1 $-1 $230 $230 $144 $231 reversed $141 $-1 #
edge $334 -1 -1 $-1 $335 0 $335 6.2831853071795862 $230 $336 forward @7 unknown T -0.5 -0.5 0.5 0.5 0.5 0.5 #
simple-snl-attrib $-1 -1 $337 $-1 $145 1 1 1 1 1 1 1 1 1 1 1 1 0 1 0 1 1 1 @17 NEW_SIMPLE_ATTRIB 1 @9 ENTITY_ID 3 0.24999999999999994 0.43301270189221924 -0.5 3 107 1829976932 0 #
vertex $338 -1 -1 $-1 $145 $339 #
ellipse-curve $-1 -1 -1 $-1 0 0 -0.5 0 0 -1 -0.5 6.1232339957367648e-17 0 1 I I #
simple-snl-attrib $-1 -1 $-1 $-1 $147 1 1 1 1 1 1 1 1 1 1 1 1 0 1 0 1 1 1 @17 NEW_SIMPLE_ATTRIB 1 @9 ENTITY_ID 0 3 20 -2147483648 -1 #
face $340 -1 -1 $-1 $-1 $162 $17 $-1 $341 reversed single T 2.3999999999999999 -2.3999999999999999 -2.3999999999999999 2.3999999999999999 2.3999999999999999 2.3999999999999999 F #
loop $-1 -1 -1 $-1 $-1 $253 $147 T -2.3999999999999999 2.3999999999999999 -2.3999999999999999 2.3999999999999999 2.3999999999999999 2.3999999999999999 unknown #
plane-surface $-1 -1 -1 $-1 0 2.3999999999999999 0 0 -1 0 0 0 -1 forward_v I I I I #
coedge $-1 -1 -1 $-1 $342 $251 $254 $343 forward $148 $-1 #
coedge $-1 -1 -1 $-1 $258 $150 $151 $244 reversed $94 $-1 #
coedge $-1 -1 -1 $-1 $251 $342 $150 $242 reversed $148 $-1 #
edge $344 -1 -1 $-1 $260 -2.3999999999999999 $345 2.3999999999999999 $241 $346 forward @7 unknown T -2.3999999999999999 -2.3999999999999999 -2.3999999999999999 -2.3999999999999999 -2.3999999999999999 2.3999999999999999 #
coedge $-1 -1 -1 $-1 $152 $151 $342 $347 forward $60 $-1 #
edge $348 -1 -1 $-1 $249 -2.3999999999999999 $345 2.3999999999999999 $240 $349 forward @7 unknown T -2.3999999999999999 -2.3999999999999999 -2.3999999999999999 2.3999999999999999 -2.3999999999999999 -2.3999999999999999 #
coedge $-1 -1 -1 $-1 $254 $253 $152 $246 reversed $237 $-1 #
edge $350 -1 -1 $-1 $351 -2.3999999999999999 $248 2.3999999999999999 $245 $352 forward @7 unknown T -2.3999999999999999 2.3999999999999999 -2.3999999999999999 2.3999999999999999 2.3999999999999999 -2.3999999999999999 #
simple-snl-attrib $-1 -1 $-1 $-1 $154 1 1 1 1 1 1 1 1 1 1 1 1 0 1 0 1 1 1 @17 NEW_SIMPLE_ATTRIB 1 @9 ENTITY_ID 0 3 125 -2147483648 -1 #
vertex $353 -1 -1 $-1 $154 $354 #
vertex $355 -1 -1 $-1 $262 $356 #
straight-curve $-1 -1 -1 $-1 2.3999999999999999 0 -2.3999999999999999 0 -1 0 I I #
coedge $-1 -1 -1 $-1 $239 $241 $155 $252 reversed $148 $-1 #
edge $357 -1 -1 $-1 $256 -2.3999999999999999 $260 2.3999999999999999 $251 $358 forward @7 unknown T -2.3999999999999999 -2.3999999999999999 2.3999999999999999 -2.3999999999999999 2.3999999999999999 2.3999999999999999 #
coedge $-1 -1 -1 $-1 $245 $156 $161 $263 forward $237 $-1 #
coedge $-1 -1 -1 $-1 $156 $245 $239 $343 reversed $237 $-1 #
simple-snl-attrib $-1 -1 $-1 $-1 $157 1 1 1 1 1 1 1 1 1 1 1 1 0 1 0 1 1 1 @17 NEW_SIMPLE_ATTRIB 1 @9 ENTITY_ID 0 3 122 -2147483648 -1 #
vertex $359 -1 -1 $-1 $157 $360 #
straight-curve $-1 -1 -1 $-1 0 2.3999999999999999 2.3999999999999999 -1 0 0 I I #
coedge $-1 -1 -1 $-1 $158 $240 $160 $262 reversed $94 $-1 #
simple-snl-attrib $-1 -1 $-1 $-1 $159 1 1 1 1 1 1 1 1 1 1 1 1 0 1 0 1 1 1 @17 NEW_SIMPLE_ATTRIB 1 @9 ENTITY_ID 0 3 124 -2147483648 -1 #
vertex $361 -1 -1 $-1 $252 $362 #
straight-curve $-1 -1 -1 $-1 0 -2.3999999999999999 2.3999999999999999 1 0 0 I I #
edge $363 -1 -1 $-1 $164 -2.3999999999999999 $249 2.3999999999999999 $160 $364 forward @7 unknown T 2.3999999999999999 -2.3999999999999999 -2.3999999999999999 2.3999999999999999 -2.3999999999999999 2.3999999999999999 #
edge $365 -1 -1 $-1 $165 -2.3999999999999999 $248 2.3999999999999999 $161 $366 forward @7 unknown T 2.3999999999999999 2.3999999999999999 -2.3999999999999999 2.3999999999999999 2.3999999999999999 2.3999999999999999 #
simple-snl-attrib $-1 -1 $-1 $-1 $164 1 1 1 1 1 1 1 1 1 1 1 1 0 1 0 1 1 1 @17 NEW_SIMPLE_ATTRIB 1 @9 ENTITY_ID 0 3 85 -2147483648 -1 #
point $-1 -1 -1 $-1 2.3999999999999999 -2.3999999999999999 2.3999999999999999 #
simple-snl-attrib $-1 -1 $-1 $-1 $165 1 1 1 1 1 1 1 1 1 1 1 1 0 1 0 1 1 1 @17 NEW_SIMPLE_ATTRIB 1 @9 ENTITY_ID 0 3 86 -2147483648 -1 #
point $-1 -1 -1 $-1 2.3999999999999999 2.3999999999999999 2.3999999999999999 #
simple-snl-attrib $-1 -1 $-1 $-1 $168 1 1 1 1 1 1 1 1 1 1 1 1 0 1 0 1 1 1 @17 NEW_SIMPLE_ATTRIB 1 @9 ENTITY_ID 0 3 11 -2147483648 -1 #
face $367 -1 -1 $-1 $-1 $183 $18 $-1 $368 forward single T 2.3999999999999999 -2.3999999999999999 -2.3999999999999999 2.3999999999999999 2.3999999999999999 2.3999999999999999 F #
loop $-1 -1 -1 $-1 $-1 $291 $168 T -2.3999999999999999 2.3999999999999999 -2.3999999999999999 2.3999999999999999 2.3999999999999999 2.3999999999999999 unknown #
plane-surface $-1 -1 -1 $-1 0 2.3999999999999999 0 0 -1 0 0 0 -1 forward_v I I I I #
coedge $-1 -1 -1 $-1 $284 $369 $290 $370 reversed $169 $-1 #
coedge $-1 -1 -1 $-1 $171 $286 $173 $279 forward $103 $-1 #
coedge $-1 -1 -1 $-1 $369 $284 $171 $275 forward $169 $-1 #
edge $371 -1 -1 $-1 $288 -2.3999999999999999 $372 2.3999999999999999 $274 $373 forward @7 unknown T -2.3999999999999999 -2.3999999999999999 -2.3999999999999999 -2.3999999999999999 -2.3999999999999999 2.3999999999999999 #
coedge $-1 -1 -1 $-1 $173 $172 $369 $374 reversed $65 $-1 #
coedge $-1 -1 -1 $-1 $291 $290 $172 $278 forward $270 $-1 #
edge $375 -1 -1 $-1 $376 -2.3999999999999999 $281 2.3999999999999999 $277 $377 forward @7 unknown T -2.3999999999999999 2.3999999999999999 -2.3999999999999999 2.3999999999999999 2.3999999999999999 -2.3999999999999999 #
edge $378 -1 -1 $-1 $282 -2.3999999999999999 $372 2.3999999999999999 $273 $379 forward @7 unknown T -2.3999999999999999 -2.3999999999999999 -2.3999999999999999 2.3999999999999999 -2.3999999999999999 -2.3999999999999999 #
simple-snl-attrib $-1 -1 $-1 $-1 $175 1 1 1 1 1 1 1 1 1 1 1 1 0 1 0 1 1 1 @17 NEW_SIMPLE_ATTRIB 1 @9 ENTITY_ID 0 3 65 -2147483648 -1 #
vertex $380 -1 -1 $-1 $175 $381 #
vertex $382 -1 -1 $-1 $296 $383 #
straight-curve $-1 -1 -1 $-1 2.3999999999999999 0 -2.3999999999999999 0 -1 0 I I #
coedge $-1 -1 -1 $-1 $274 $272 $176 $285 forward $169 $-1 #
edge $384 -1 -1 $-1 $293 -2.3999999999999999 $288 2.3999999999999999 $284 $385 forward @7 unknown T -2.3999999999999999 -2.3999999999999999 2.3999999999999999 -2.3999999999999999 2.3999999999999999 2.3999999999999999 #
coedge $-1 -1 -1 $-1 $273 $177 $182 $296 forward $103 $-1 #
simple-snl-attrib $-1 -1 $-1 $-1 $178 1 1 1 1 1 1 1 1 1 1 1 1 0 1 0 1 1 1 @17 NEW_SIMPLE_ATTRIB 1 @9 ENTITY_ID 0 3 62 -2147483648 -1 #
vertex $386 -1 -1 $-1 $285 $387 #
straight-curve $-1 -1 -1 $-1 0 -2.3999999999999999 2.3999999999999999 1 0 0 I I #
coedge $-1 -1 -1 $-1 $277 $179 $272 $370 forward $270 $-1 #
coedge $-1 -1 -1 $-1 $179 $277 $181 $295 reversed $270 $-1 #
simple-snl-attrib $-1 -1 $-1 $-1 $180 1 1 1 1 1 1 1 1 1 1 1 1 0 1 0 1 1 1 @17 NEW_SIMPLE_ATTRIB 1 @9 ENTITY_ID 0 3 64 -2147483648 -1 #
vertex $388 -1 -1 $-1 $180 $389 #
straight-curve $-1 -1 -1 $-1 0 2.3999999999999999 2.3999999999999999 -1 0 0 I I #
edge $390 -1 -1 $-1 $186 -2.3999999999999999 $281 2.3999999999999999 $181 $391 forward @7 unknown T 2.3999999999999999 2.3999999999999999 -2.3999999999999999 2.3999999999999999 2.3999999999999999 2.3999999999999999 #
edge $392 -1 -1 $-1 $185 -2.3999999999999999 $282 2.3999999999999999 $182 $393 forward @7 unknown T 2.3999999999999999 -2.3999999999999999 -2.3999999999999999 2.3999999999999999 -2.3999999999999999 2.3999999999999999 #
simple-snl-attrib $-1 -1 $-1 $-1 $185 1 1 1 1 1 1 1 1 1 1 1 1 0 1 0 1 1 1 @17 NEW_SIMPLE_ATTRIB 1 @9 ENTITY_ID 0 3 41 -2147483648 -1 #
point $-1 -1 -1 $-1 2.3999999999999999 -2.3999999999999999 2.3999999999999999 #
simple-snl-attrib $-1 -1 $-1 $-1 $186 1 1 1 1 1 1 1 1 1 1 1 1 0 1 0 1 1 1 @17 NEW_SIMPLE_ATTRIB 1 @9 ENTITY_ID 0 3 42 -2147483648 -1 #
point $-1 -1 -1 $-1 2.3999999999999999 2.3999999999999999 2.3999999999999999 #
simple-snl-attrib $-1 -1 $-1 $-1 $189 1 1 1 1 1 1 1 1 1 1 1 1 0 1 0 1 1 1 @17 NEW_SIMPLE_ATTRIB 1 @9 ENTITY_ID 0 3 6 -2147483648 -1 #
plane-surface $-1 -1 -1 $-1 2.448 0 0 -1 0 0 0 -0 1 forward_v I I I I #
coedge $-1 -1 -1 $-1 $194 $192 $196 $308 reversed $112 $-1 #
edge $394 -1 -1 $-1 $209 -2.448 $312 2.448 $207 $395 forward @7 unknown T -2.448 2.448 -2.448 -2.448 2.448 2.448 #
simple-snl-attrib $-1 -1 $-1 $-1 $195 1 1 1 1 1 1 1 1 1 1 1 1 0 1 0 1 1 1 @17 NEW_SIMPLE_ATTRIB 1 @9 ENTITY_ID 0 3 45 -2147483648 -1 #
vertex $396 -1 -1 $-1 $308 $397 #
straight-curve $-1 -1 -1 $-1 -2.448 -2.448 0 0 0 -1 I I #
edge $398 -1 -1 $-1 $306 -2.448 $312 2.448 $303 $399 forward @7 unknown T -2.448 -2.448 -2.448 -2.448 2.448 -2.448 #
simple-snl-attrib $-1 -1 $-1 $-1 $197 1 1 1 1 1 1 1 1 1 1 1 1 0 1 0 1 1 1 @17 NEW_SIMPLE_ATTRIB 1 @9 ENTITY_ID 0 3 42 -2147483648 -1 #
straight-curve $-1 -1 -1 $-1 0 -2.448 -2.448 -1 0 0 I I #
simple-snl-attrib $-1 -1 $-1 $-1 $199 1 1 1 1 1 1 1 1 1 1 1 1 0 1 0 1 1 1 @17 NEW_SIMPLE_ATTRIB 1 @9 ENTITY_ID 0 3 44 -2147483648 -1 #
vertex $400 -1 -1 $-1 $199 $401 #
straight-curve $-1 -1 -1 $-1 0 2.448 -2.448 1 0 0 I I #
simple-snl-attrib $-1 -1 $-1 $-1 $201 1 1 1 1 1 1 1 1 1 1 1 1 0 1 0 1 1 1 @17 NEW_SIMPLE_ATTRIB 1 @9 ENTITY_ID 0 3 29 -2147483648 -1 #
point $-1 -1 -1 $-1 2.448 2.448 -2.448 #
simple-snl-attrib $-1 -1 $-1 $-1 $202 1 1 1 1 1 1 1 1 1 1 1 1 0 1 0 1 1 1 @17 NEW_SIMPLE_ATTRIB 1 @9 ENTITY_ID 0 3 30 -2147483648 -1 #
point $-1 -1 -1 $-1 2.448 -2.448 -2.448 #
simple-snl-attrib $-1 -1 $-1 $-1 $205 1 1 1 1 1 1 1 1 1 1 1 1 0 1 0 1 1 1 @17 NEW_SIMPLE_ATTRIB 1 @9 ENTITY_ID 0 3 39 -2147483648 -1 #
straight-curve $-1 -1 -1 $-1 -2.448 0 2.448 0 -1 0 I I #
simple-snl-attrib $-1 -1 $-1 $-1 $209 1 1 1 1 1 1 1 1 1 1 1 1 0 1 0 1 1 1 @17 NEW_SIMPLE_ATTRIB 1 @9 ENTITY_ID 0 3 27 -2147483648 -1 #
point $-1 -1 -1 $-1 -2.448 2.448 2.448 #
simple-snl-attrib $-1 -1 $-1 $-1 $213 1 1 1 1 1 1 1 1 1 1 1 1 0 1 0 1 1 1 @17 NEW_SIMPLE_ATTRIB 1 @9 ENTITY_ID 0 3 28 -2147483648 -1 #
point $-1 -1 -1 $-1 -2.448 -2.448 2.448 #
simple-snl-attrib $-1 -1 $-1 $-1 $215 1 1 1 1 1 1 1 1 1 1 1 1 0 1 0 1 1 1 @17 NEW_SIMPLE_ATTRIB 1 @9 ENTITY_ID 0 3 46 -2147483648 -1 #
straight-curve $-1 -1 -1 $-1 2.448 -2.448 0 0 0 -1 I I #
simple-snl-attrib $-1 -1 $-1 $-1 $216 1 1 1 1 1 1 1 1 1 1 1 1 0 1 0 1 1 1 @17 NEW_SIMPLE_ATTRIB 1 @9 ENTITY_ID 0 3 48 -2147483648 -1 #
straight-curve $-1 -1 -1 $-1 2.448 2.448 0 0 0 -1 I I #
simple-snl-attrib $-1 -1 $402 $222 $134 1 1 1 1 1 1 1 1 1 1 1 1 0 1 0 1 1 1 @17 NEW_SIMPLE_ATTRIB 1 @13 MERGE_PARTNER 0 4 1073573823 1 108 1 #
simple-snl-attrib $-1 -1 $403 $-1 $223 1 1 1 1 1 1 1 1 1 1 1 1 0 1 0 1 1 1 @17 NEW_SIMPLE_ATTRIB 1 @9 ENTITY_ID 0 3 76 -2147483648 -1 #
point $-1 -1 -1 $-1 -0.5 6.1232339957367648e-17 0.5 #
simple-snl-attrib $-1 -1 $-1 $225 $84 1 1 1 1 1 1 1 1 1 1 1 1 0 1 0 1 1 1 @17 NEW_SIMPLE_ATTRIB 1 @9 UNIQUE_ID 1 0 1 1056782342 #
simple-snl-attrib $-1 -1 $404 $226 $136 1 1 1 1 1 1 1 1 1 1 1 1 0 1 0 1 1 1 @17 NEW_SIMPLE_ATTRIB 1 @13 MERGE_PARTNER 0 4 1829976932 1 75 1 #
simple-snl-attrib $-1 -1 $-1 $229 $87 1 1 1 1 1 1 1 1 1 1 1 1 0 1 0 1 1 1 @17 NEW_SIMPLE_ATTRIB 1 @13 MERGE_PARTNER 0 4 1375803006 -1 24 0 #
simple-snl-attrib $-1 -1 $405 $-1 $231 1 1 1 1 1 1 1 1 1 1 1 1 0 1 0 1 1 1 @17 NEW_SIMPLE_ATTRIB 1 @9 ENTITY_ID 3 0.24999999999999983 -0.43301270189221935 0.5 3 108 1684212078 0 #
vertex $406 -1 -1 $-1 $231 $407 #
ellipse-curve $-1 -1 -1 $-1 0 0 0.5 0 0 1 -0.5 6.1232339957367648e-17 0 1 I I #
simple-snl-attrib $-1 -1 $408 $232 $145 1 1 1 1 1 1 1 1 1 1 1 1 0 1 0 1 1 1 @17 NEW_SIMPLE_ATTRIB 1 @13 MERGE_PARTNER 0 4 1056782342 1 135 0 #
simple-snl-attrib $-1 -1 $409 $-1 $233 1 1 1 1 1 1 1 1 1 1 1 1 0 1 0 1 1 1 @17 NEW_SIMPLE_ATTRIB 1 @9 ENTITY_ID 0 3 75 -2147483648 -1 #
point $-1 -1 -1 $-1 -0.5 6.1232339957367648e-17 -0.5 #
simple-snl-attrib $-1 -1 $-1 $-1 $236 1 1 1 1 1 1 1 1 1 1 1 1 0 1 0 1 1 1 @17 NEW_SIMPLE_ATTRIB 1 @9 ENTITY_ID 0 3 21 -2147483648 -1 #
plane-surface $-1 -1 -1 $-1 2.3999999999999999 0 0 -1 0 0 0 -0 1 forward_v I I I I #
coedge $-1 -1 -1 $-1 $241 $239 $243 $347 reversed $148 $-1 #
edge $410 -1 -1 $-1 $256 -2.3999999999999999 $351 2.3999999999999999 $254 $411 forward @7 unknown T -2.3999999999999999 2.3999999999999999 -2.3999999999999999 -2.3999999999999999 2.3999999999999999 2.3999999999999999 #
simple-snl-attrib $-1 -1 $-1 $-1 $242 1 1 1 1 1 1 1 1 1 1 1 1 0 1 0 1 1 1 @17 NEW_SIMPLE_ATTRIB 1 @9 ENTITY_ID 0 3 129 -2147483648 -1 #
vertex $412 -1 -1 $-1 $347 $413 #
straight-curve $-1 -1 -1 $-1 -2.3999999999999999 -2.3999999999999999 0 0 0 -1 I I #
edge $414 -1 -1 $-1 $345 -2.3999999999999999 $351 2.3999999999999999 $342 $415 forward @7 unknown T -2.3999999999999999 -2.3999999999999999 -2.3999999999999999 -2.3999999999999999 2.3999999999999999 -2.3999999999999999 #
simple-snl-attrib $-1 -1 $-1 $-1 $244 1 1 1 1 1 1 1 1 1 1 1 1 0 1 0 1 1 1 @17 NEW_SIMPLE_ATTRIB 1 @9 ENTITY_ID 0 3 126 -2147483648 -1 #
straight-curve $-1 -1 -1 $-1 0 -2.3999999999999999 -2.3999999999999999 -1 0 0 I I #
simple-snl-attrib $-1 -1 $-1 $-1 $246 1 1 1 1 1 1 1 1 1 1 1 1 0 1 0 1 1 1 @17 NEW_SIMPLE_ATTRIB 1 @9 ENTITY_ID 0 3 128 -2147483648 -1 #
vertex $416 -1 -1 $-1 $246 $417 #
straight-curve $-1 -1 -1 $-1 0 2.3999999999999999 -2.3999999999999999 1 0 0 I I #
simple-snl-attrib $-1 -1 $-1 $-1 $248 1 1 1 1 1 1 1 1 1 1 1 1 0 1 0 1 1 1 @17 NEW_SIMPLE_ATTRIB 1 @9 ENTITY_ID 0 3 89 -2147483648 -1 #
point $-1 -1 -1 $-1 2.3999999999999999 2.3999999999999999 -2.3999999999999999 #
simple-snl-attrib $-1 -1 $-1 $-1 $249 1 1 1 1 1 1 1 1 1 1 1 1 0 1 0 1 1 1 @17 NEW_SIMPLE_ATTRIB 1 @9 ENTITY_ID 0 3 90 -2147483648 -1 #
point $-1 -1 -1 $-1 2.3999999999999999 -2.3999999999999999 -2.3999999999999999 #
simple-snl-attrib $-1 -1 $-1 $-1 $252 1 1 1 1 1 1 1 1 1 1 1 1 0 1 0 1 1 1 @17 NEW_SIMPLE_ATTRIB 1 @9 ENTITY_ID 0 3 123 -2147483648 -1 #
straight-curve $-1 -1 -1 $-1 -2.3999999999999999 0 2.3999999999999999 0 -1 0 I I #
simple-snl-attrib $-1 -1 $-1 $-1 $256 1 1 1 1 1 1 1 1 1 1 1 1 0 1 0 1 1 1 @17 NEW_SIMPLE_ATTRIB 1 @9 ENTITY_ID 0 3 87 -2147483648 -1 #
point $-1 -1 -1 $-1 -2.3999999999999999 2.3999999999999999 2.3999999999999999 #
simple-snl-attrib $-1 -1 $-1 $-1 $260 1 1 1 1 1 1 1 1 1 1 1 1 0 1 0 1 1 1 @17 NEW_SIMPLE_ATTRIB 1 @9 ENTITY_ID 0 3 88 -2147483648 -1 #
point $-1 -1 -1 $-1 -2.3999999999999999 -2.3999999999999999 2.3999999999999999 #
simple-snl-attrib $-1 -1 $-1 $-1 $262 1 1 1 1 1 1 1 1 1 1 1 1 0 1 0 1 1 1 @17 NEW_SIMPLE_ATTRIB 1 @9 ENTITY_ID 0 3 130 -2147483648 -1 #
straight-curve $-1 -1 -1 $-1 2.3999999999999999 -2.3999999999999999 0 0 0 -1 I I #
simple-snl-attrib $-1 -1 $-1 $-1 $263 1 1 1 1 1 1 1 1 1 1 1 1 0 1 0 1 1 1 @17 NEW_SIMPLE_ATTRIB 1 @9 ENTITY_ID 0 3 132 -2147483648 -1 #
straight-curve $-1 -1 -1 $-1 2.3999999999999999 2.3999999999999999 0 0 0 -1 I I #
simple-snl-attrib $-1 -1 $-1 $-1 $269 1 1 1 1 1 1 1 1 1 1 1 1 0 1 0 1 1 1 @17 NEW_SIMPLE_ATTRIB 1 @9 ENTITY_ID 0 3 12 -2147483648 -1 #
plane-surface $-1 -1 -1 $-1 2.3999999999999999 0 0 -1 0 0 0 -0 1 forward_v I I I I #
coedge $-1 -1 -1 $-1 $272 $274 $276 $374 forward $169 $-1 #
edge $418 -1 -1 $-1 $293 -2.3999999999999999 $376 2.3999999999999999 $290 $419 forward @7 unknown T -2.3999999999999999 2.3999999999999999 -2.3999999999999999 -2.3999999999999999 2.3999999999999999 2.3999999999999999 #
simple-snl-attrib $-1 -1 $-1 $-1 $275 1 1 1 1 1 1 1 1 1 1 1 1 0 1 0 1 1 1 @17 NEW_SIMPLE_ATTRIB 1 @9 ENTITY_ID 0 3 69 -2147483648 -1 #
vertex $420 -1 -1 $-1 $374 $421 #
straight-curve $-1 -1 -1 $-1 -2.3999999999999999 -2.3999999999999999 0 0 0 -1 I I #
edge $422 -1 -1 $-1 $372 -2.3999999999999999 $376 2.3999999999999999 $369 $423 forward @7 unknown T -2.3999999999999999 -2.3999999999999999 -2.3999999999999999 -2.3999999999999999 2.3999999999999999 -2.3999999999999999 #
simple-snl-attrib $-1 -1 $-1 $-1 $278 1 1 1 1 1 1 1 1 1 1 1 1 0 1 0 1 1 1 @17 NEW_SIMPLE_ATTRIB 1 @9 ENTITY_ID 0 3 66 -2147483648 -1 #
vertex $424 -1 -1 $-1 $278 $425 #
straight-curve $-1 -1 -1 $-1 0 2.3999999999999999 -2.3999999999999999 1 0 0 I I #
simple-snl-attrib $-1 -1 $-1 $-1 $279 1 1 1 1 1 1 1 1 1 1 1 1 0 1 0 1 1 1 @17 NEW_SIMPLE_ATTRIB 1 @9 ENTITY_ID 0 3 68 -2147483648 -1 #
straight-curve $-1 -1 -1 $-1 0 -2.3999999999999999 -2.3999999999999999 -1 0 0 I I #
simple-snl-attrib $-1 -1 $-1 $-1 $281 1 1 1 1 1 1 1 1 1 1 1 1 0 1 0 1 1 1 @17 NEW_SIMPLE_ATTRIB 1 @9 ENTITY_ID 0 3 45 -2147483648 -1 #
point $-1 -1 -1 $-1 2.3999999999999999 2.3999999999999999 -2.3999999999999999 #
simple-snl-attrib $-1 -1 $-1 $-1 $282 1 1 1 1 1 1 1 1 1 1 1 1 0 1 0 1 1 1 @17 NEW_SIMPLE_ATTRIB 1 @9 ENTITY_ID 0 3 46 -2147483648 -1 #
point $-1 -1 -1 $-1 2.3999999999999999 -2.3999999999999999 -2.3999999999999999 #
simple-snl-attrib $-1 -1 $-1 $-1 $285 1 1 1 1 1 1 1 1 1 1 1 1 0 1 0 1 1 1 @17 NEW_SIMPLE_ATTRIB 1 @9 ENTITY_ID 0 3 63 -2147483648 -1 #
straight-curve $-1 -1 -1 $-1 -2.3999999999999999 0 2.3999999999999999 0 -1 0 I I #
simple-snl-attrib $-1 -1 $-1 $-1 $288 1 1 1 1 1 1 1 1 1 1 1 1 0 1 0 1 1 1 @17 NEW_SIMPLE_ATTRIB 1 @9 ENTITY_ID 0 3 43 -2147483648 -1 #
point $-1 -1 -1 $-1 -2.3999999999999999 -2.3999999999999999 2.3999999999999999 #
simple-snl-attrib $-1 -1 $-1 $-1 $293 1 1 1 1 1 1 1 1 1 1 1 1 0 1 0 1 1 1 @17 NEW_SIMPLE_ATTRIB 1 @9 ENTITY_ID 0 3 44 -2147483648 -1 #
point $-1 -1 -1 $-1 -2.3999999999999999 2.3999999999999999 2.3999999999999999 #
simple-snl-attrib $-1 -1 $-1 $-1 $295 1 1 1 1 1 1 1 1 1 1 1 1 0 1 0 1 1 1 @17 NEW_SIMPLE_ATTRIB 1 @9 ENTITY_ID 0 3 72 -2147483648 -1 #
straight-curve $-1 -1 -1 $-1 2.3999999999999999 2.3999999999999999 0 0 0 -1 I I #
simple-snl-attrib $-1 -1 $-1 $-1 $296 1 1 1 1 1 1 1 1 1 1 1 1 0 1 0 1 1 1 @17 NEW_SIMPLE_ATTRIB 1 @9 ENTITY_ID 0 3 70 -2147483648 -1 #
straight-curve $-1 -1 -1 $-1 2.3999999999999999 -2.3999999999999999 0 0 0 -1 I I #
simple-snl-attrib $-1 -1 $-1 $-1 $304 1 1 1 1 1 1 1 1 1 1 1 1 0 1 0 1 1 1 @17 NEW_SIMPLE_ATTRIB 1 @9 ENTITY_ID 0 3 47 -2147483648 -1 #
straight-curve $-1 -1 -1 $-1 -2.448 2.448 0 0 0 -1 I I #
simple-snl-attrib $-1 -1 $-1 $-1 $306 1 1 1 1 1 1 1 1 1 1 1 1 0 1 0 1 1 1 @17 NEW_SIMPLE_ATTRIB 1 @9 ENTITY_ID 0 3 31 -2147483648 -1 #
point $-1 -1 -1 $-1 -2.448 -2.448 -2.448 #
simple-snl-attrib $-1 -1 $-1 $-1 $308 1 1 1 1 1 1 1 1 1 1 1 1 0 1 0 1 1 1 @17 NEW_SIMPLE_ATTRIB 1 @9 ENTITY_ID 0 3 43 -2147483648 -1 #
straight-curve $-1 -1 -1 $-1 -2.448 0 -2.448 0 1 0 I I #
simple-snl-attrib $-1 -1 $-1 $-1 $312 1 1 1 1 1 1 1 1 1 1 1 1 0 1 0 1 1 1 @17 NEW_SIMPLE_ATTRIB 1 @9 ENTITY_ID 0 3 32 -2147483648 -1 #
point $-1 -1 -1 $-1 -2.448 2.448 -2.448 #
simple-snl-attrib $-1 -1 $-1 $328 $134 1 1 1 1 1 1 1 1 1 1 1 1 0 1 0 1 1 1 @17 NEW_SIMPLE_ATTRIB 1 @9 UNIQUE_ID 1 0 1 1073573823 #
simple-snl-attrib $-1 -1 $426 $329 $223 1 1 1 1 1 1 1 1 1 1 1 1 0 1 0 1 1 1 @17 NEW_SIMPLE_ATTRIB 1 @13 MERGE_PARTNER 0 4 1684212078 1 76 1 #
simple-snl-attrib $-1 -1 $-1 $332 $136 1 1 1 1 1 1 1 1 1 1 1 1 0 1 0 1 1 1 @17 NEW_SIMPLE_ATTRIB 1 @9 UNIQUE_ID 1 0 1 1829976932 #
simple-snl-attrib $-1 -1 $427 $334 $231 1 1 1 1 1 1 1 1 1 1 1 1 0 1 0 1 1 1 @17 NEW_SIMPLE_ATTRIB 1 @13 MERGE_PARTNER 0 4 1073573823 1 136 0 #
simple-snl-attrib $-1 -1 $428 $-1 $335 1 1 1 1 1 1 1 1 1 1 1 1 0 1 0 1 1 1 @17 NEW_SIMPLE_ATTRIB 1 @9 ENTITY_ID 0 3 76 -2147483648 -1 #
point $-1 -1 -1 $-1 -0.5 6.1232339957367648e-17 0.5 #
simple-snl-attrib $-1 -1 $-1 $337 $145 1 1 1 1 1 1 1 1 1 1 1 1 0 1 0 1 1 1 @17 NEW_SIMPLE_ATTRIB 1 @9 UNIQUE_ID 1 0 1 1056782342 #
simple-snl-attrib $-1 -1 $429 $338 $233 1 1 1 1 1 1 1 1 1 1 1 1 0 1 0 1 1 1 @17 NEW_SIMPLE_ATTRIB 1 @13 MERGE_PARTNER 0 4 1829976932 1 95 0 #
simple-snl-attrib $-1 -1 $-1 $-1 $343 1 1 1 1 1 1 1 1 1 1 1 1 0 1 0 1 1 1 @17 NEW_SIMPLE_ATTRIB 1 @9 ENTITY_ID 0 3 131 -2147483648 -1 #
straight-curve $-1 -1 -1 $-1 -2.3999999999999999 2.3999999999999999 0 0 0 -1 I I #
simple-snl-attrib $-1 -1 $-1 $-1 $345 1 1 1 1 1 1 1 1 1 1 1 1 0 1 0 1 1 1 @17 NEW_SIMPLE_ATTRIB 1 @9 ENTITY_ID 0 3 91 -2147483648 -1 #
point $-1 -1 -1 $-1 -2.3999999999999999 -2.3999999999999999 -2.3999999999999999 #
simple-snl-attrib $-1 -1 $-1 $-1 $347 1 1 1 1 1 1 1 1 1 1 1 1 0 1 0 1 1 1 @17 NEW_SIMPLE_ATTRIB 1 @9 ENTITY_ID 0 3 127 -2147483648 -1 #
straight-curve $-1 -1 -1 $-1 -2.3999999999999999 0 -2.3999999999999999 0 1 0 I I #
simple-snl-attrib $-1 -1 $-1 $-1 $351 1 1 1 1 1 1 1 1 1 1 1 1 0 1 0 1 1 1 @17 NEW_SIMPLE_ATTRIB 1 @9 ENTITY_ID 0 3 92 -2147483648 -1 #
point $-1 -1 -1 $-1 -2.3999999999999999 2.3999999999999999 -2.3999999999999999 #
simple-snl-attrib $-1 -1 $-1 $-1 $370 1 1 1 1 1 1 1 1 1 1 1 1 0 1 0 1 1 1 @17 NEW_SIMPLE_ATTRIB 1 @9 ENTITY_ID 0 3 71 -2147483648 -1 #
straight-curve $-1 -1 -1 $-1 -2.3999999999999999 2.3999999999999999 0 0 0 -1 I I #
simple-snl-attrib $-1 -1 $-1 $-1 $372 1 1 1 1 1 1 1 1 1 1 1 1 0 1 0 1 1 1 @17 NEW_SIMPLE_ATTRIB 1 @9 ENTITY_ID 0 3 48 -2147483648 -1 #
point $-1 -1 -1 $-1 -2.3999999999999999 -2.3999999999999999 -2.3999999999999999 #
simple-snl-attrib $-1 -1 $-1 $-1 $374 1 1 1 1 1 1 1 1 1 1 1 1 0 1 0 1 1 1 @17 NEW_SIMPLE_ATTRIB 1 @9 ENTITY_ID 0 3 67 -2147483648 -1 #
straight-curve $-1 -1 -1 $-1 -2.3999999999999999 0 -2.3999999999999999 0 1 0 I I #
simple-snl-attrib $-1 -1 $-1 $-1 $376 1 1 1 1 1 1 1 1 1 1 1 1 0 1 0 1 1 1 @17 NEW_SIMPLE_ATTRIB 1 @9 ENTITY_ID 0 3 47 -2147483648 -1 #
point $-1 -1 -1 $-1 -2.3999999999999999 2.3999999999999999 -2.3999999999999999 #
simple-snl-attrib $-1 -1 $-1 $403 $223 1 1 1 1 1 1 1 1 1 1 1 1 0 1 0 1 1 1 @17 NEW_SIMPLE_ATTRIB 1 @9 UNIQUE_ID 1 0 1 1684212078 #
simple-snl-attrib $-1 -1 $-1 $405 $231 1 1 1 1 1 1 1 1 1 1 1 1 0 1 0 1 1 1 @17 NEW_SIMPLE_ATTRIB 1 @9 UNIQUE_ID 1 0 1 1073573823 #
simple-snl-attrib $-1 -1 $430 $406 $335 1 1 1 1 1 1 1 1 1 1 1 1 0 1 0 1 1 1 @17 NEW_SIMPLE_ATTRIB 1 @13 MERGE_PARTNER 0 4 1684212078 1 96 0 #
simple-snl-attrib $-1 -1 $-1 $409 $233 1 1 1 1 1 1 1 1 1 1 1 1 0 1 0 1 1 1 @17 NEW_SIMPLE_ATTRIB 1 @9 UNIQUE_ID 1 0 1 1829976932 #
simple-snl-attrib $-1 -1 $-1 $428 $335 1 1 1 1 1 1 1 1 1 1 1 1 0 1 0 1 1 1 @17 NEW_SIMPLE_ATTRIB 1 @9 UNIQUE_ID 1 0 1 1684212078 #
End-of-ACIS-data 