1600 0 5 0           
14 Cubit  (iGeom) 17 ACIS 16.0.7 Linux 24 Tue Feb 22 15:27:32 2011 
1 9.9999999999999995e-07 1e-10 
body $5 -1 -1 $-1 $6 $-1 $-1 F #
body $7 -1 -1 $-1 $8 $-1 $-1 T -50 -50 -50 50 50 50 #
body $9 -1 -1 $-1 $10 $-1 $-1 T -67.200000000000003 -67.200000000000003 -67.200000000000003 67.200000000000003 67.200000000000003 67.200000000000003 #
body $11 -1 -1 $-1 $12 $-1 $-1 T -0.59999999999999998 19.399999999999999 -0.59999999999999998 0.59999999999999998 20.600000000000001 0.59999999999999998 #
body $13 -1 -1 $-1 $14 $-1 $-1 T -0.59999999999999998 -20.600000000000001 -0.59999999999999998 0.59999999999999998 -19.399999999999999 0.59999999999999998 #
simple-snl-attrib $-1 -1 $15 $-1 $0 1 1 1 1 1 1 1 1 1 1 1 1 0 1 0 1 1 1 @17 NEW_SIMPLE_ATTRIB 1 @9 ENTITY_ID 0 3 4 -2147483648 -1 #
lump $16 -1 -1 $-1 $-1 $17 $0 F #
simple-snl-attrib $-1 -1 $18 $-1 $1 1 1 1 1 1 1 1 1 1 1 1 1 0 1 0 1 1 1 @17 NEW_SIMPLE_ATTRIB 1 @9 ENTITY_ID 0 3 99 -2147483648 -1 #
lump $19 -1 -1 $-1 $-1 $20 $1 T -50 -50 -50 50 50 50 #
simple-snl-attrib $-1 -1 $21 $-1 $2 1 1 1 1 1 1 1 1 1 1 1 1 0 1 0 1 1 1 @17 NEW_SIMPLE_ATTRIB 1 @9 ENTITY_ID 0 3 102 -2147483648 -1 #
lump $22 -1 -1 $-1 $-1 $23 $2 T -67.200000000000003 -67.200000000000003 -67.200000000000003 67.200000000000003 67.200000000000003 67.200000000000003 #
simple-snl-attrib $-1 -1 $24 $-1 $3 1 1 1 1 1 1 1 1 1 1 1 1 0 1 0 1 1 1 @17 NEW_SIMPLE_ATTRIB 1 @9 ENTITY_ID 0 3 105 -2147483648 -1 #
lump $25 -1 -1 $-1 $-1 $26 $3 T -0.59999999999999998 19.399999999999999 -0.59999999999999998 0.59999999999999998 20.600000000000001 0.59999999999999998 #
simple-snl-attrib $-1 -1 $27 $-1 $4 1 1 1 1 1 1 1 1 1 1 1 1 0 1 0 1 1 1 @17 NEW_SIMPLE_ATTRIB 1 @9 ENTITY_ID 0 3 108 -2147483648 -1 #
lump $28 -1 -1 $-1 $-1 $29 $4 T -0.59999999999999998 -20.600000000000001 -0.59999999999999998 0.59999999999999998 -19.399999999999999 0.59999999999999998 #
simple-snl-attrib $-1 -1 $-1 $5 $0 1 1 1 1 1 1 1 1 1 1 1 1 0 1 0 1 1 1 @17 NEW_SIMPLE_ATTRIB 2 @5 GROUP @9 graveyard 0 7 1 1 101006568 0 0 0 0 #
simple-snl-attrib $-1 -1 $-1 $-1 $6 1 1 1 1 1 1 1 1 1 1 1 1 0 1 0 1 1 1 @17 NEW_SIMPLE_ATTRIB 1 @9 ENTITY_ID 0 3 1 -2147483648 -1 #
shell $-1 -1 -1 $-1 $30 $-1 $31 $-1 $6 T -68.543999999999997 -68.543999999999997 -68.543999999999997 68.543999999999997 68.543999999999997 68.543999999999997 #
simple-snl-attrib $-1 -1 $-1 $7 $1 1 1 1 1 1 1 1 1 1 1 1 1 0 1 0 1 1 1 @17 NEW_SIMPLE_ATTRIB 2 @11 ENTITY_NAME @10 MCNP_ID_60 0 0 #
simple-snl-attrib $-1 -1 $-1 $-1 $8 1 1 1 1 1 1 1 1 1 1 1 1 0 1 0 1 1 1 @17 NEW_SIMPLE_ATTRIB 1 @9 ENTITY_ID 0 3 2 -2147483648 -1 #
shell $-1 -1 -1 $-1 $32 $-1 $33 $-1 $8 T -50 -50 -50 50 50 50 #
simple-snl-attrib $-1 -1 $-1 $9 $2 1 1 1 1 1 1 1 1 1 1 1 1 0 1 0 1 1 1 @17 NEW_SIMPLE_ATTRIB 2 @11 ENTITY_NAME @10 MCNP_ID_70 0 0 #
simple-snl-attrib $-1 -1 $-1 $-1 $10 1 1 1 1 1 1 1 1 1 1 1 1 0 1 0 1 1 1 @17 NEW_SIMPLE_ATTRIB 1 @9 ENTITY_ID 0 3 3 -2147483648 -1 #
shell $-1 -1 -1 $-1 $34 $-1 $35 $-1 $10 T -67.200000000000003 -67.200000000000003 -67.200000000000003 67.200000000000003 67.200000000000003 67.200000000000003 #
simple-snl-attrib $-1 -1 $-1 $11 $3 1 1 1 1 1 1 1 1 1 1 1 1 0 1 0 1 1 1 @17 NEW_SIMPLE_ATTRIB 2 @11 ENTITY_NAME @10 MCNP_ID_90 0 0 #
simple-snl-attrib $-1 -1 $-1 $-1 $12 1 1 1 1 1 1 1 1 1 1 1 1 0 1 0 1 1 1 @17 NEW_SIMPLE_ATTRIB 1 @9 ENTITY_ID 0 3 4 -2147483648 -1 #
shell $-1 -1 -1 $-1 $36 $-1 $37 $-1 $12 T -0.59999999999999998 19.399999999999999 -0.59999999999999998 0.59999999999999998 20.600000000000001 0.59999999999999998 #
simple-snl-attrib $-1 -1 $38 $13 $4 1 1 1 1 1 1 1 1 1 1 1 1 0 1 0 1 1 1 @17 NEW_SIMPLE_ATTRIB 2 @5 GROUP @14 mat_1_rho_-0.5 0 7 1 2 144361650 0 0 0 0 #
simple-snl-attrib $-1 -1 $-1 $-1 $14 1 1 1 1 1 1 1 1 1 1 1 1 0 1 0 1 1 1 @17 NEW_SIMPLE_ATTRIB 1 @9 ENTITY_ID 0 3 5 -2147483648 -1 #
shell $-1 -1 -1 $-1 $-1 $-1 $39 $-1 $14 T -0.59999999999999998 -20.600000000000001 -0.59999999999999998 0.59999999999999998 -19.399999999999999 0.59999999999999998 #
shell $-1 -1 -1 $-1 $-1 $-1 $40 $-1 $6 T -67.200000000000003 -67.200000000000003 -67.200000000000003 67.200000000000003 67.200000000000003 67.200000000000003 #
face $41 -1 -1 $-1 $42 $43 $17 $-1 $44 forward single T -68.543999999999997 -68.543999999999997 68.543999999999997 68.543999999999997 68.543999999999997 68.543999999999997 F #
shell $-1 -1 -1 $-1 $45 $-1 $46 $-1 $8 T 4 -1.9999999999999991 -2.9999999999999991 6 1.9999999999999996 2.9999999999999991 #
face $47 -1 -1 $-1 $-1 $-1 $20 $-1 $48 forward single T -50 -50 -50 50 50 50 F #
shell $-1 -1 -1 $-1 $-1 $-1 $49 $-1 $10 T -50 -50 -50 50 50 50 #
face $50 -1 -1 $-1 $51 $52 $23 $-1 $53 forward single T -67.200000000000003 -67.200000000000003 67.200000000000003 67.200000000000003 67.200000000000003 67.200000000000003 F #
shell $-1 -1 -1 $-1 $-1 $-1 $54 $-1 $12 T -0.5 19.5 -0.5 0.5 20.5 0.5 #
face $55 -1 -1 $-1 $-1 $-1 $26 $-1 $56 forward single T -0.59999999999999998 19.399999999999999 -0.59999999999999998 0.59999999999999998 20.600000000000001 0.59999999999999998 F #
simple-snl-attrib $-1 -1 $-1 $27 $4 1 1 1 1 1 1 1 1 1 1 1 1 0 1 0 1 1 1 @17 NEW_SIMPLE_ATTRIB 2 @11 ENTITY_NAME @10 MCNP_ID_50 0 0 #
face $57 -1 -1 $-1 $-1 $-1 $29 $-1 $58 forward single T -0.59999999999999998 -20.600000000000001 -0.59999999999999998 0.59999999999999998 -19.399999999999999 0.59999999999999998 F #
face $59 -1 -1 $-1 $60 $61 $30 $-1 $62 reversed single T -67.200000000000003 -67.200000000000003 67.200000000000003 67.200000000000003 67.200000000000003 67.200000000000003 F #
simple-snl-attrib $-1 -1 $-1 $-1 $31 1 1 1 1 1 1 1 1 1 1 1 1 0 1 0 1 1 1 @17 NEW_SIMPLE_ATTRIB 1 @9 ENTITY_ID 0 3 1 -2147483648 -1 #
face $63 -1 -1 $-1 $64 $65 $17 $-1 $66 reversed single T -68.543999999999997 -68.543999999999997 -68.543999999999997 68.543999999999997 68.543999999999997 -68.543999999999997 F #
loop $-1 -1 -1 $-1 $-1 $67 $31 T -68.543999999999997 -68.543999999999997 68.543999999999997 68.543999999999997 68.543999999999997 68.543999999999997 unknown #
plane-surface $-1 -1 -1 $-1 0 0 68.543999999999997 0 0 1 1 0 0 forward_v I I I I #
shell $-1 -1 -1 $-1 $68 $-1 $69 $-1 $8 T -0.59999999999999998 19.399999999999999 -0.59999999999999998 0.59999999999999998 20.600000000000001 0.59999999999999998 #
face $70 -1 -1 $-1 $71 $72 $32 $-1 $73 reversed single T 4 -1.9999999999999991 -2.9999999999999991 6 1.9999999999999996 2.9999999999999991 F #
simple-snl-attrib $-1 -1 $74 $-1 $33 1 1 1 1 1 1 1 1 1 1 1 1 0 1 0 1 1 1 @17 NEW_SIMPLE_ATTRIB 1 @9 UNIQUE_ID 1 0 1 1925526424 #
sphere-surface $-1 -1 -1 $-1 0 0 0 50 1 0 0 0 0 1 forward_v I I I I #
face $75 -1 -1 $-1 $-1 $-1 $34 $-1 $76 reversed single T -50 -50 -50 50 50 50 F #
simple-snl-attrib $-1 -1 $-1 $-1 $35 1 1 1 1 1 1 1 1 1 1 1 1 0 1 0 1 1 1 @17 NEW_SIMPLE_ATTRIB 1 @9 ENTITY_ID 0 3 25 -2147483648 -1 #
face $77 -1 -1 $-1 $78 $79 $23 $-1 $80 reversed single T -67.200000000000003 -67.200000000000003 -67.200000000000003 67.200000000000003 67.200000000000003 -67.200000000000003 F #
loop $-1 -1 -1 $-1 $-1 $81 $35 T -67.200000000000003 -67.200000000000003 67.200000000000003 67.200000000000003 67.200000000000003 67.200000000000003 unknown #
plane-surface $-1 -1 -1 $-1 0 0 67.200000000000003 0 0 1 1 0 0 forward_v I I I I #
face $82 -1 -1 $-1 $-1 $-1 $36 $-1 $83 reversed single T -0.5 19.5 -0.5 0.5 20.5 0.5 F #
simple-snl-attrib $-1 -1 $84 $-1 $37 1 1 1 1 1 1 1 1 1 1 1 1 0 1 0 1 1 1 @17 NEW_SIMPLE_ATTRIB 1 @9 UNIQUE_ID 1 0 1 1224936571 #
sphere-surface $-1 -1 -1 $-1 0 20 0 0.59999999999999998 1 0 0 0 0 1 forward_v I I I I #
simple-snl-attrib $-1 -1 $85 $-1 $39 1 1 1 1 1 1 1 1 1 1 1 1 0 1 0 1 1 1 @17 NEW_SIMPLE_ATTRIB 1 @9 UNIQUE_ID 1 0 1 362701290 #
sphere-surface $-1 -1 -1 $-1 0 -20 0 0.59999999999999998 1 0 0 0 0 1 forward_v I I I I #
simple-snl-attrib $-1 -1 $-1 $-1 $40 1 1 1 1 1 1 1 1 1 1 1 1 0 1 0 1 1 1 @17 NEW_SIMPLE_ATTRIB 1 @9 ENTITY_ID 0 3 7 -2147483648 -1 #
face $86 -1 -1 $-1 $87 $88 $30 $-1 $89 forward single T -67.200000000000003 -67.200000000000003 -67.200000000000003 67.200000000000003 67.200000000000003 -67.200000000000003 F #
loop $-1 -1 -1 $-1 $-1 $90 $40 T -67.200000000000003 -67.200000000000003 67.200000000000003 67.200000000000003 67.200000000000003 67.200000000000003 unknown #
plane-surface $-1 -1 -1 $-1 0 0 67.200000000000003 0 0 1 1 0 0 forward_v I I I I #
simple-snl-attrib $-1 -1 $-1 $-1 $42 1 1 1 1 1 1 1 1 1 1 1 1 0 1 0 1 1 1 @17 NEW_SIMPLE_ATTRIB 1 @9 ENTITY_ID 0 3 2 -2147483648 -1 #
face $91 -1 -1 $-1 $92 $93 $17 $-1 $94 reversed single T -68.543999999999997 -68.543999999999997 -68.543999999999997 68.543999999999997 -68.543999999999997 68.543999999999997 F #
loop $-1 -1 -1 $-1 $-1 $95 $42 T -68.543999999999997 -68.543999999999997 -68.543999999999997 68.543999999999997 68.543999999999997 -68.543999999999997 unknown #
plane-surface $-1 -1 -1 $-1 0 0 -68.543999999999997 0 0 1 1 0 0 forward_v I I I I #
coedge $-1 -1 -1 $-1 $96 $97 $98 $99 forward $43 $-1 #
shell $-1 -1 -1 $-1 $100 $-1 $101 $-1 $8 T -0.59999999999999998 -20.600000000000001 -0.59999999999999998 0.59999999999999998 -19.399999999999999 0.59999999999999998 #
face $102 -1 -1 $-1 $-1 $-1 $45 $-1 $103 reversed single T -0.59999999999999998 19.399999999999999 -0.59999999999999998 0.59999999999999998 20.600000000000001 0.59999999999999998 F #
simple-snl-attrib $-1 -1 $-1 $-1 $46 1 1 1 1 1 1 1 1 1 1 1 1 0 1 0 1 1 1 @17 NEW_SIMPLE_ATTRIB 1 @9 ENTITY_ID 0 3 14 -2147483648 -1 #
face $104 -1 -1 $-1 $105 $106 $32 $-1 $107 reversed single T 4 -1.9999999999999991 -2.9999999999999991 4 1.9999999999999996 2.9999999999999991 F #
loop $-1 -1 -1 $-1 $108 $109 $46 T 4 -1.9999999999999991 -2.9999999999999991 4 1.9999999999999996 2.9999999999999991 unknown #
cone-surface $-1 -1 -1 $-1 5 -5.5511151231257827e-17 1.1102230246251565e-16 0.99999999999999978 -5.5511151231257827e-17 1.1102230246251565e-16 -1.6653345369377348e-16 3.3306690738754696e-16 2.9999999999999991 0.66666666666666663 I I 0 1 3 forward I I I I #
simple-snl-attrib $-1 -1 $110 $47 $33 1 1 1 1 1 1 1 1 1 1 1 1 0 1 0 1 1 1 @17 NEW_SIMPLE_ATTRIB 1 @9 ENTITY_ID 0 3 13 -2147483648 -1 #
simple-snl-attrib $-1 -1 $111 $-1 $49 1 1 1 1 1 1 1 1 1 1 1 1 0 1 0 1 1 1 @17 NEW_SIMPLE_ATTRIB 1 @9 UNIQUE_ID 1 0 1 1925526424 #
sphere-surface $-1 -1 -1 $-1 0 0 0 50 1 0 0 0 0 1 forward_v I I I I #
simple-snl-attrib $-1 -1 $-1 $-1 $51 1 1 1 1 1 1 1 1 1 1 1 1 0 1 0 1 1 1 @17 NEW_SIMPLE_ATTRIB 1 @9 ENTITY_ID 0 3 26 -2147483648 -1 #
face $112 -1 -1 $-1 $113 $114 $23 $-1 $115 reversed single T -67.200000000000003 -67.200000000000003 -67.200000000000003 67.200000000000003 -67.200000000000003 67.200000000000003 F #
loop $-1 -1 -1 $-1 $-1 $116 $51 T -67.200000000000003 -67.200000000000003 -67.200000000000003 67.200000000000003 67.200000000000003 -67.200000000000003 unknown #
plane-surface $-1 -1 -1 $-1 0 0 -67.200000000000003 0 0 1 1 0 0 forward_v I I I I #
coedge $-1 -1 -1 $-1 $117 $118 $119 $120 forward $52 $-1 #
simple-snl-attrib $-1 -1 $-1 $-1 $54 1 1 1 1 1 1 1 1 1 1 1 1 0 1 0 1 1 1 @17 NEW_SIMPLE_ATTRIB 1 @9 ENTITY_ID 0 3 33 -2147483648 -1 #
sphere-surface $-1 -1 -1 $-1 0 20 0 0.5 1 0 0 0 0 1 forward_v I I I I #
simple-snl-attrib $-1 -1 $121 $55 $37 1 1 1 1 1 1 1 1 1 1 1 1 0 1 0 1 1 1 @17 NEW_SIMPLE_ATTRIB 1 @9 ENTITY_ID 0 3 17 -2147483648 -1 #
simple-snl-attrib $-1 -1 $122 $57 $39 1 1 1 1 1 1 1 1 1 1 1 1 0 1 0 1 1 1 @17 NEW_SIMPLE_ATTRIB 1 @9 ENTITY_ID 0 3 18 -2147483648 -1 #
simple-snl-attrib $-1 -1 $-1 $-1 $60 1 1 1 1 1 1 1 1 1 1 1 1 0 1 0 1 1 1 @17 NEW_SIMPLE_ATTRIB 1 @9 ENTITY_ID 0 3 8 -2147483648 -1 #
face $123 -1 -1 $-1 $124 $125 $30 $-1 $126 forward single T -67.200000000000003 -67.200000000000003 -67.200000000000003 67.200000000000003 -67.200000000000003 67.200000000000003 F #
loop $-1 -1 -1 $-1 $-1 $127 $60 T -67.200000000000003 -67.200000000000003 -67.200000000000003 67.200000000000003 67.200000000000003 -67.200000000000003 unknown #
plane-surface $-1 -1 -1 $-1 0 0 -67.200000000000003 0 0 1 1 0 0 forward_v I I I I #
coedge $-1 -1 -1 $-1 $128 $129 $130 $131 reversed $61 $-1 #
simple-snl-attrib $-1 -1 $-1 $-1 $64 1 1 1 1 1 1 1 1 1 1 1 1 0 1 0 1 1 1 @17 NEW_SIMPLE_ATTRIB 1 @9 ENTITY_ID 0 3 3 -2147483648 -1 #
face $132 -1 -1 $-1 $133 $134 $17 $-1 $135 reversed single T -68.543999999999997 -68.543999999999997 -68.543999999999997 -68.543999999999997 68.543999999999997 68.543999999999997 F #
loop $-1 -1 -1 $-1 $-1 $136 $64 T -68.543999999999997 -68.543999999999997 -68.543999999999997 68.543999999999997 -68.543999999999997 68.543999999999997 unknown #
plane-surface $-1 -1 -1 $-1 0 -68.543999999999997 0 0 1 -0 -0 0 1 forward_v I I I I #
coedge $-1 -1 -1 $-1 $137 $138 $139 $140 forward $65 $-1 #
coedge $-1 -1 -1 $-1 $141 $67 $142 $143 forward $43 $-1 #
coedge $-1 -1 -1 $-1 $67 $141 $144 $145 forward $43 $-1 #
coedge $-1 -1 -1 $-1 $146 $147 $67 $99 reversed $148 $-1 #
edge $149 -1 -1 $-1 $150 -68.543999999999997 $151 68.543999999999997 $98 $152 forward @7 unknown T 68.543999999999997 -68.543999999999997 68.543999999999997 68.543999999999997 68.543999999999997 68.543999999999997 #
shell $-1 -1 -1 $-1 $153 $-1 $154 $-1 $8 T -4 -1.9999999999999991 -2.9999999999999991 -2 2 2.9999999999999991 #
face $155 -1 -1 $-1 $-1 $-1 $68 $-1 $156 reversed single T -0.59999999999999998 -20.600000000000001 -0.59999999999999998 0.59999999999999998 -19.399999999999999 0.59999999999999998 F #
simple-snl-attrib $-1 -1 $157 $-1 $69 1 1 1 1 1 1 1 1 1 1 1 1 0 1 0 1 1 1 @17 NEW_SIMPLE_ATTRIB 1 @9 UNIQUE_ID 1 0 1 1224936571 #
sphere-surface $-1 -1 -1 $-1 0 20 0 0.59999999999999998 1 0 0 0 0 1 forward_v I I I I #
simple-snl-attrib $-1 -1 $-1 $-1 $71 1 1 1 1 1 1 1 1 1 1 1 1 0 1 0 1 1 1 @17 NEW_SIMPLE_ATTRIB 1 @9 ENTITY_ID 0 3 15 -2147483648 -1 #
face $158 -1 -1 $-1 $-1 $159 $32 $-1 $160 reversed single T 6 -1.9999999999999991 -2.9999999999999991 6 1.9999999999999996 2.9999999999999991 F #
loop $-1 -1 -1 $-1 $-1 $161 $71 T 4 -1.9999999999999991 -2.9999999999999991 4 1.9999999999999996 2.9999999999999991 unknown #
plane-surface $-1 -1 -1 $-1 4 0 0 -0.99999999999999978 5.5511151231257827e-17 -1.1102230246251565e-16 -1.1102230246251565e-16 -0.99999999999999978 5.5511151231257827e-17 forward_v I I I I #
loop $-1 -1 -1 $-1 $-1 $162 $46 T 6 -1.9999999999999991 -2.9999999999999991 6 1.9999999999999996 2.9999999999999991 unknown #
coedge $-1 -1 -1 $-1 $109 $109 $161 $163 forward $72 $-1 #
simple-snl-attrib $-1 -1 $-1 $74 $33 1 1 1 1 1 1 1 1 1 1 1 1 0 1 0 1 1 1 @17 NEW_SIMPLE_ATTRIB 1 @13 MERGE_PARTNER 0 4 1925526424 1 340 1 #
simple-snl-attrib $-1 -1 $164 $75 $49 1 1 1 1 1 1 1 1 1 1 1 1 0 1 0 1 1 1 @17 NEW_SIMPLE_ATTRIB 1 @9 ENTITY_ID 0 3 13 -2147483648 -1 #
simple-snl-attrib $-1 -1 $-1 $-1 $78 1 1 1 1 1 1 1 1 1 1 1 1 0 1 0 1 1 1 @17 NEW_SIMPLE_ATTRIB 1 @9 ENTITY_ID 0 3 27 -2147483648 -1 #
face $165 -1 -1 $-1 $166 $167 $23 $-1 $168 reversed single T -67.200000000000003 -67.200000000000003 -67.200000000000003 -67.200000000000003 67.200000000000003 67.200000000000003 F #
loop $-1 -1 -1 $-1 $-1 $169 $78 T -67.200000000000003 -67.200000000000003 -67.200000000000003 67.200000000000003 -67.200000000000003 67.200000000000003 unknown #
plane-surface $-1 -1 -1 $-1 0 -67.200000000000003 0 0 1 -0 -0 0 1 forward_v I I I I #
coedge $-1 -1 -1 $-1 $170 $171 $172 $173 forward $79 $-1 #
coedge $-1 -1 -1 $-1 $174 $81 $175 $176 forward $52 $-1 #
coedge $-1 -1 -1 $-1 $81 $174 $177 $178 forward $52 $-1 #
coedge $-1 -1 -1 $-1 $179 $180 $81 $120 reversed $181 $-1 #
edge $182 -1 -1 $-1 $183 -67.200000000000003 $184 67.200000000000003 $119 $185 forward @7 unknown T 67.200000000000003 -67.200000000000003 67.200000000000003 67.200000000000003 67.200000000000003 67.200000000000003 #
simple-snl-attrib $-1 -1 $-1 $84 $37 1 1 1 1 1 1 1 1 1 1 1 1 0 1 0 1 1 1 @17 NEW_SIMPLE_ATTRIB 1 @13 MERGE_PARTNER 0 4 1224936571 -1 32 0 #
simple-snl-attrib $-1 -1 $-1 $85 $39 1 1 1 1 1 1 1 1 1 1 1 1 0 1 0 1 1 1 @17 NEW_SIMPLE_ATTRIB 1 @13 MERGE_PARTNER 0 4 362701290 -1 34 0 #
simple-snl-attrib $-1 -1 $-1 $-1 $87 1 1 1 1 1 1 1 1 1 1 1 1 0 1 0 1 1 1 @17 NEW_SIMPLE_ATTRIB 1 @9 ENTITY_ID 0 3 9 -2147483648 -1 #
face $186 -1 -1 $-1 $187 $188 $30 $-1 $189 forward single T -67.200000000000003 -67.200000000000003 -67.200000000000003 -67.200000000000003 67.200000000000003 67.200000000000003 F #
loop $-1 -1 -1 $-1 $-1 $190 $87 T -67.200000000000003 -67.200000000000003 -67.200000000000003 67.200000000000003 -67.200000000000003 67.200000000000003 unknown #
plane-surface $-1 -1 -1 $-1 0 -67.200000000000003 0 0 1 -0 -0 0 1 forward_v I I I I #
coedge $-1 -1 -1 $-1 $191 $192 $193 $194 reversed $88 $-1 #
coedge $-1 -1 -1 $-1 $195 $90 $196 $197 reversed $61 $-1 #
coedge $-1 -1 -1 $-1 $90 $195 $198 $199 reversed $61 $-1 #
coedge $-1 -1 -1 $-1 $200 $201 $90 $131 forward $202 $-1 #
edge $203 -1 -1 $-1 $204 -67.200000000000003 $205 67.200000000000003 $130 $206 forward @7 unknown T 67.200000000000003 -67.200000000000003 67.200000000000003 67.200000000000003 67.200000000000003 67.200000000000003 #
simple-snl-attrib $-1 -1 $-1 $-1 $92 1 1 1 1 1 1 1 1 1 1 1 1 0 1 0 1 1 1 @17 NEW_SIMPLE_ATTRIB 1 @9 ENTITY_ID 0 3 4 -2147483648 -1 #
face $207 -1 -1 $-1 $208 $209 $17 $-1 $210 reversed single T -68.543999999999997 68.543999999999997 -68.543999999999997 68.543999999999997 68.543999999999997 68.543999999999997 F #
loop $-1 -1 -1 $-1 $-1 $211 $92 T -68.543999999999997 -68.543999999999997 -68.543999999999997 -68.543999999999997 68.543999999999997 68.543999999999997 unknown #
plane-surface $-1 -1 -1 $-1 -68.543999999999997 0 0 1 0 0 0 0 -1 forward_v I I I I #
coedge $-1 -1 -1 $-1 $212 $144 $213 $214 forward $93 $-1 #
coedge $-1 -1 -1 $-1 $215 $95 $212 $216 forward $65 $-1 #
coedge $-1 -1 -1 $-1 $95 $215 $217 $218 forward $65 $-1 #
coedge $-1 -1 -1 $-1 $147 $146 $95 $140 reversed $148 $-1 #
edge $219 -1 -1 $-1 $220 -68.543999999999997 $221 68.543999999999997 $139 $222 forward @7 unknown T 68.543999999999997 -68.543999999999997 -68.543999999999997 68.543999999999997 68.543999999999997 -68.543999999999997 #
coedge $-1 -1 -1 $-1 $97 $96 $223 $224 forward $43 $-1 #
coedge $-1 -1 -1 $-1 $225 $226 $96 $143 reversed $209 $-1 #
edge $227 -1 -1 $-1 $151 -68.543999999999997 $228 68.543999999999997 $142 $229 forward @7 unknown T -68.543999999999997 68.543999999999997 68.543999999999997 68.543999999999997 68.543999999999997 68.543999999999997 #
coedge $-1 -1 -1 $-1 $136 $230 $97 $145 reversed $93 $-1 #
edge $231 -1 -1 $-1 $232 -68.543999999999997 $150 68.543999999999997 $144 $233 forward @7 unknown T -68.543999999999997 -68.543999999999997 68.543999999999997 68.543999999999997 -68.543999999999997 68.543999999999997 #
coedge $-1 -1 -1 $-1 $139 $98 $230 $234 forward $148 $-1 #
coedge $-1 -1 -1 $-1 $98 $139 $225 $235 reversed $148 $-1 #
loop $-1 -1 -1 $-1 $-1 $146 $208 T 68.543999999999997 -68.543999999999997 -68.543999999999997 68.543999999999997 68.543999999999997 68.543999999999997 unknown #
simple-snl-attrib $-1 -1 $-1 $-1 $99 1 1 1 1 1 1 1 1 1 1 1 1 0 1 0 1 1 1 @17 NEW_SIMPLE_ATTRIB 1 @9 ENTITY_ID 0 3 37 -2147483648 -1 #
vertex $236 -1 -1 $-1 $99 $237 #
vertex $238 -1 -1 $-1 $99 $239 #
straight-curve $-1 -1 -1 $-1 68.543999999999997 0 68.543999999999997 0 1 0 I I #
shell $-1 -1 -1 $-1 $-1 $-1 $240 $-1 $8 T -1.6653345369377351e-16 -1.9999999999999991 -2.9999999999999991 1.9999999999999998 1.9999999999999996 2.9999999999999991 #
face $241 -1 -1 $-1 $242 $243 $100 $-1 $244 reversed single T -4 -1.9999999999999991 -2.9999999999999991 -2 2 2.9999999999999991 F #
simple-snl-attrib $-1 -1 $245 $-1 $101 1 1 1 1 1 1 1 1 1 1 1 1 0 1 0 1 1 1 @17 NEW_SIMPLE_ATTRIB 1 @9 UNIQUE_ID 1 0 1 362701290 #
sphere-surface $-1 -1 -1 $-1 0 -20 0 0.59999999999999998 1 0 0 0 0 1 forward_v I I I I #
simple-snl-attrib $-1 -1 $246 $102 $69 1 1 1 1 1 1 1 1 1 1 1 1 0 1 0 1 1 1 @17 NEW_SIMPLE_ATTRIB 1 @9 ENTITY_ID 0 3 17 -2147483648 -1 #
simple-snl-attrib $-1 -1 $-1 $-1 $105 1 1 1 1 1 1 1 1 1 1 1 1 0 1 0 1 1 1 @17 NEW_SIMPLE_ATTRIB 1 @9 ENTITY_ID 0 3 16 -2147483648 -1 #
loop $-1 -1 -1 $-1 $-1 $247 $105 T 6 -1.9999999999999991 -2.9999999999999991 6 1.9999999999999996 2.9999999999999991 unknown #
plane-surface $-1 -1 -1 $-1 6 -1.1102230246251565e-16 2.2204460492503131e-16 0.99999999999999978 -5.5511151231257827e-17 1.1102230246251565e-16 1.1102230246251565e-16 0.99999999999999978 -5.5511151231257827e-17 forward_v I I I I #
coedge $-1 -1 -1 $-1 $161 $161 $109 $163 reversed $106 $-1 #
coedge $-1 -1 -1 $-1 $162 $162 $247 $248 forward $108 $-1 #
edge $249 -1 -1 $-1 $250 1.5707963267948966 $250 7.8539816339744828 $161 $251 forward @7 unknown T 4 -1.9999999999999991 -2.9999999999999991 4 1.9999999999999996 2.9999999999999991 #
simple-snl-attrib $-1 -1 $-1 $111 $49 1 1 1 1 1 1 1 1 1 1 1 1 0 1 0 1 1 1 @17 NEW_SIMPLE_ATTRIB 1 @13 MERGE_PARTNER 0 4 1925526424 -1 31 0 #
simple-snl-attrib $-1 -1 $-1 $-1 $113 1 1 1 1 1 1 1 1 1 1 1 1 0 1 0 1 1 1 @17 NEW_SIMPLE_ATTRIB 1 @9 ENTITY_ID 0 3 28 -2147483648 -1 #
face $252 -1 -1 $-1 $253 $254 $23 $-1 $255 reversed single T -67.200000000000003 67.200000000000003 -67.200000000000003 67.200000000000003 67.200000000000003 67.200000000000003 F #
loop $-1 -1 -1 $-1 $-1 $256 $113 T -67.200000000000003 -67.200000000000003 -67.200000000000003 -67.200000000000003 67.200000000000003 67.200000000000003 unknown #
plane-surface $-1 -1 -1 $-1 -67.200000000000003 0 0 1 0 0 0 0 -1 forward_v I I I I #
coedge $-1 -1 -1 $-1 $257 $177 $258 $259 forward $114 $-1 #
coedge $-1 -1 -1 $-1 $260 $116 $257 $261 forward $79 $-1 #
coedge $-1 -1 -1 $-1 $116 $260 $262 $263 forward $79 $-1 #
coedge $-1 -1 -1 $-1 $180 $179 $116 $173 reversed $181 $-1 #
edge $264 -1 -1 $-1 $265 -67.200000000000003 $266 67.200000000000003 $172 $267 forward @7 unknown T 67.200000000000003 -67.200000000000003 -67.200000000000003 67.200000000000003 67.200000000000003 -67.200000000000003 #
coedge $-1 -1 -1 $-1 $118 $117 $268 $269 forward $52 $-1 #
coedge $-1 -1 -1 $-1 $270 $271 $117 $176 reversed $254 $-1 #
edge $272 -1 -1 $-1 $184 -67.200000000000003 $273 67.200000000000003 $175 $274 forward @7 unknown T -67.200000000000003 67.200000000000003 67.200000000000003 67.200000000000003 67.200000000000003 67.200000000000003 #
coedge $-1 -1 -1 $-1 $169 $275 $118 $178 reversed $114 $-1 #
edge $276 -1 -1 $-1 $277 -67.200000000000003 $183 67.200000000000003 $177 $278 forward @7 unknown T -67.200000000000003 -67.200000000000003 67.200000000000003 67.200000000000003 -67.200000000000003 67.200000000000003 #
coedge $-1 -1 -1 $-1 $172 $119 $275 $279 forward $181 $-1 #
coedge $-1 -1 -1 $-1 $119 $172 $270 $280 reversed $181 $-1 #
loop $-1 -1 -1 $-1 $-1 $179 $253 T 67.200000000000003 -67.200000000000003 -67.200000000000003 67.200000000000003 67.200000000000003 67.200000000000003 unknown #
simple-snl-attrib $-1 -1 $-1 $-1 $120 1 1 1 1 1 1 1 1 1 1 1 1 0 1 0 1 1 1 @17 NEW_SIMPLE_ATTRIB 1 @9 ENTITY_ID 0 3 335 -2147483648 -1 #
vertex $281 -1 -1 $-1 $120 $282 #
vertex $283 -1 -1 $-1 $120 $284 #
straight-curve $-1 -1 -1 $-1 67.200000000000003 0 67.200000000000003 0 1 0 I I #
simple-snl-attrib $-1 -1 $-1 $-1 $124 1 1 1 1 1 1 1 1 1 1 1 1 0 1 0 1 1 1 @17 NEW_SIMPLE_ATTRIB 1 @9 ENTITY_ID 0 3 10 -2147483648 -1 #
face $285 -1 -1 $-1 $286 $287 $30 $-1 $288 forward single T -67.200000000000003 67.200000000000003 -67.200000000000003 67.200000000000003 67.200000000000003 67.200000000000003 F #
loop $-1 -1 -1 $-1 $-1 $289 $124 T -67.200000000000003 -67.200000000000003 -67.200000000000003 -67.200000000000003 67.200000000000003 67.200000000000003 unknown #
plane-surface $-1 -1 -1 $-1 -67.200000000000003 0 0 1 0 0 0 0 -1 forward_v I I I I #
coedge $-1 -1 -1 $-1 $196 $290 $291 $292 reversed $125 $-1 #
coedge $-1 -1 -1 $-1 $293 $127 $294 $295 reversed $88 $-1 #
coedge $-1 -1 -1 $-1 $127 $293 $290 $296 reversed $88 $-1 #
coedge $-1 -1 -1 $-1 $201 $200 $127 $194 forward $202 $-1 #
edge $297 -1 -1 $-1 $298 -67.200000000000003 $299 67.200000000000003 $193 $300 forward @7 unknown T 67.200000000000003 -67.200000000000003 -67.200000000000003 67.200000000000003 67.200000000000003 -67.200000000000003 #
coedge $-1 -1 -1 $-1 $129 $128 $301 $302 reversed $61 $-1 #
coedge $-1 -1 -1 $-1 $303 $190 $128 $197 forward $125 $-1 #
edge $304 -1 -1 $-1 $305 -67.200000000000003 $204 67.200000000000003 $196 $306 forward @7 unknown T -67.200000000000003 -67.200000000000003 67.200000000000003 67.200000000000003 -67.200000000000003 67.200000000000003 #
coedge $-1 -1 -1 $-1 $307 $308 $129 $199 forward $287 $-1 #
edge $309 -1 -1 $-1 $205 -67.200000000000003 $310 67.200000000000003 $198 $311 forward @7 unknown T -67.200000000000003 67.200000000000003 67.200000000000003 67.200000000000003 67.200000000000003 67.200000000000003 #
coedge $-1 -1 -1 $-1 $193 $130 $308 $312 forward $202 $-1 #
coedge $-1 -1 -1 $-1 $130 $193 $303 $313 reversed $202 $-1 #
loop $-1 -1 -1 $-1 $-1 $201 $286 T 67.200000000000003 -67.200000000000003 -67.200000000000003 67.200000000000003 67.200000000000003 67.200000000000003 unknown #
simple-snl-attrib $-1 -1 $-1 $-1 $131 1 1 1 1 1 1 1 1 1 1 1 1 0 1 0 1 1 1 @17 NEW_SIMPLE_ATTRIB 1 @9 ENTITY_ID 0 3 61 -2147483648 -1 #
vertex $314 -1 -1 $-1 $131 $315 #
vertex $316 -1 -1 $-1 $131 $317 #
straight-curve $-1 -1 -1 $-1 67.200000000000003 0 67.200000000000003 0 1 0 I I #
simple-snl-attrib $-1 -1 $-1 $-1 $133 1 1 1 1 1 1 1 1 1 1 1 1 0 1 0 1 1 1 @17 NEW_SIMPLE_ATTRIB 1 @9 ENTITY_ID 0 3 5 -2147483648 -1 #
face $318 -1 -1 $-1 $-1 $148 $17 $-1 $319 reversed single T 68.543999999999997 -68.543999999999997 -68.543999999999997 68.543999999999997 68.543999999999997 68.543999999999997 F #
loop $-1 -1 -1 $-1 $-1 $225 $133 T -68.543999999999997 68.543999999999997 -68.543999999999997 68.543999999999997 68.543999999999997 68.543999999999997 unknown #
plane-surface $-1 -1 -1 $-1 0 68.543999999999997 0 0 -1 0 0 0 -1 forward_v I I I I #
coedge $-1 -1 -1 $-1 $320 $223 $226 $321 forward $134 $-1 #
coedge $-1 -1 -1 $-1 $230 $136 $137 $216 reversed $93 $-1 #
coedge $-1 -1 -1 $-1 $223 $320 $136 $214 reversed $134 $-1 #
edge $322 -1 -1 $-1 $232 -68.543999999999997 $323 68.543999999999997 $213 $324 forward @7 unknown T -68.543999999999997 -68.543999999999997 -68.543999999999997 -68.543999999999997 -68.543999999999997 68.543999999999997 #
coedge $-1 -1 -1 $-1 $138 $137 $320 $325 forward $65 $-1 #
edge $326 -1 -1 $-1 $221 -68.543999999999997 $323 68.543999999999997 $212 $327 forward @7 unknown T -68.543999999999997 -68.543999999999997 -68.543999999999997 68.543999999999997 -68.543999999999997 -68.543999999999997 #
coedge $-1 -1 -1 $-1 $226 $225 $138 $218 reversed $209 $-1 #
edge $328 -1 -1 $-1 $329 -68.543999999999997 $220 68.543999999999997 $217 $330 forward @7 unknown T -68.543999999999997 68.543999999999997 -68.543999999999997 68.543999999999997 68.543999999999997 -68.543999999999997 #
simple-snl-attrib $-1 -1 $-1 $-1 $140 1 1 1 1 1 1 1 1 1 1 1 1 0 1 0 1 1 1 @17 NEW_SIMPLE_ATTRIB 1 @9 ENTITY_ID 0 3 41 -2147483648 -1 #
vertex $331 -1 -1 $-1 $140 $332 #
vertex $333 -1 -1 $-1 $234 $334 #
straight-curve $-1 -1 -1 $-1 68.543999999999997 0 -68.543999999999997 0 -1 0 I I #
coedge $-1 -1 -1 $-1 $211 $213 $141 $224 reversed $134 $-1 #
edge $335 -1 -1 $-1 $228 -68.543999999999997 $232 68.543999999999997 $223 $336 forward @7 unknown T -68.543999999999997 -68.543999999999997 68.543999999999997 -68.543999999999997 68.543999999999997 68.543999999999997 #
coedge $-1 -1 -1 $-1 $217 $142 $147 $235 forward $209 $-1 #
coedge $-1 -1 -1 $-1 $142 $217 $211 $321 reversed $209 $-1 #
simple-snl-attrib $-1 -1 $-1 $-1 $143 1 1 1 1 1 1 1 1 1 1 1 1 0 1 0 1 1 1 @17 NEW_SIMPLE_ATTRIB 1 @9 ENTITY_ID 0 3 38 -2147483648 -1 #
vertex $337 -1 -1 $-1 $143 $338 #
straight-curve $-1 -1 -1 $-1 0 68.543999999999997 68.543999999999997 -1 0 0 I I #
coedge $-1 -1 -1 $-1 $144 $212 $146 $234 reversed $93 $-1 #
simple-snl-attrib $-1 -1 $-1 $-1 $145 1 1 1 1 1 1 1 1 1 1 1 1 0 1 0 1 1 1 @17 NEW_SIMPLE_ATTRIB 1 @9 ENTITY_ID 0 3 40 -2147483648 -1 #
vertex $339 -1 -1 $-1 $224 $340 #
straight-curve $-1 -1 -1 $-1 0 -68.543999999999997 68.543999999999997 1 0 0 I I #
edge $341 -1 -1 $-1 $150 -68.543999999999997 $221 68.543999999999997 $146 $342 forward @7 unknown T 68.543999999999997 -68.543999999999997 -68.543999999999997 68.543999999999997 -68.543999999999997 68.543999999999997 #
edge $343 -1 -1 $-1 $151 -68.543999999999997 $220 68.543999999999997 $147 $344 forward @7 unknown T 68.543999999999997 68.543999999999997 -68.543999999999997 68.543999999999997 68.543999999999997 68.543999999999997 #
simple-snl-attrib $-1 -1 $-1 $-1 $150 1 1 1 1 1 1 1 1 1 1 1 1 0 1 0 1 1 1 @17 NEW_SIMPLE_ATTRIB 1 @9 ENTITY_ID 0 3 25 -2147483648 -1 #
point $-1 -1 -1 $-1 68.543999999999997 -68.543999999999997 68.543999999999997 #
simple-snl-attrib $-1 -1 $-1 $-1 $151 1 1 1 1 1 1 1 1 1 1 1 1 0 1 0 1 1 1 @17 NEW_SIMPLE_ATTRIB 1 @9 ENTITY_ID 0 3 26 -2147483648 -1 #
point $-1 -1 -1 $-1 68.543999999999997 68.543999999999997 68.543999999999997 #
face $345 -1 -1 $-1 $346 $347 $153 $-1 $348 reversed single T -1.6653345369377351e-16 -1.9999999999999991 -2.9999999999999991 1.9999999999999998 1.9999999999999996 2.9999999999999991 F #
simple-snl-attrib $-1 -1 $-1 $-1 $154 1 1 1 1 1 1 1 1 1 1 1 1 0 1 0 1 1 1 @17 NEW_SIMPLE_ATTRIB 1 @9 ENTITY_ID 0 3 19 -2147483648 -1 #
face $349 -1 -1 $-1 $350 $351 $100 $-1 $352 reversed single T -4 -1.9999999999999991 -2.9999999999999991 -4 2 2.9999999999999991 F #
loop $-1 -1 -1 $-1 $353 $354 $154 T -4 -1.9999999999999991 -2.9999999999999991 -4 2 2.9999999999999991 unknown #
cone-surface $-1 -1 -1 $-1 -3 0 1.1102230246251565e-16 0.99999999999999978 -5.5511151231257827e-17 1.1102230246251565e-16 -1.6653345369377348e-16 3.3306690738754696e-16 2.9999999999999991 0.66666666666666663 I I 0 1 3 forward I I I I #
simple-snl-attrib $-1 -1 $355 $155 $101 1 1 1 1 1 1 1 1 1 1 1 1 0 1 0 1 1 1 @17 NEW_SIMPLE_ATTRIB 1 @9 ENTITY_ID 0 3 18 -2147483648 -1 #
simple-snl-attrib $-1 -1 $-1 $157 $69 1 1 1 1 1 1 1 1 1 1 1 1 0 1 0 1 1 1 @17 NEW_SIMPLE_ATTRIB 1 @13 MERGE_PARTNER 0 4 1224936571 1 344 1 #
coedge $-1 -1 -1 $-1 $247 $247 $162 $248 reversed $159 $-1 #
edge $356 -1 -1 $-1 $357 -1.5707963267948966 $357 4.7123889803846897 $247 $358 forward @7 unknown T 6 -1.9999999999999991 -2.9999999999999991 6 1.9999999999999996 2.9999999999999991 #
simple-snl-attrib $-1 -1 $-1 $-1 $163 1 1 1 1 1 1 1 1 1 1 1 1 0 1 0 1 1 1 @17 NEW_SIMPLE_ATTRIB 1 @9 ENTITY_ID 0 3 317 -2147483648 -1 #
vertex $359 -1 -1 $-1 $163 $360 #
ellipse-curve $-1 -1 -1 $-1 4 0 0 -0.99999999999999978 5.5511151231257827e-17 -1.1102230246251565e-16 -1.6653345369377348e-16 3.3306690738754696e-16 2.9999999999999991 0.66666666666666663 I I #
simple-snl-attrib $-1 -1 $-1 $-1 $166 1 1 1 1 1 1 1 1 1 1 1 1 0 1 0 1 1 1 @17 NEW_SIMPLE_ATTRIB 1 @9 ENTITY_ID 0 3 29 -2147483648 -1 #
face $361 -1 -1 $-1 $-1 $181 $23 $-1 $362 reversed single T 67.200000000000003 -67.200000000000003 -67.200000000000003 67.200000000000003 67.200000000000003 67.200000000000003 F #
loop $-1 -1 -1 $-1 $-1 $270 $166 T -67.200000000000003 67.200000000000003 -67.200000000000003 67.200000000000003 67.200000000000003 67.200000000000003 unknown #
plane-surface $-1 -1 -1 $-1 0 67.200000000000003 0 0 -1 0 0 0 -1 forward_v I I I I #
coedge $-1 -1 -1 $-1 $363 $268 $271 $364 forward $167 $-1 #
coedge $-1 -1 -1 $-1 $275 $169 $170 $261 reversed $114 $-1 #
coedge $-1 -1 -1 $-1 $268 $363 $169 $259 reversed $167 $-1 #
edge $365 -1 -1 $-1 $277 -67.200000000000003 $366 67.200000000000003 $258 $367 forward @7 unknown T -67.200000000000003 -67.200000000000003 -67.200000000000003 -67.200000000000003 -67.200000000000003 67.200000000000003 #
coedge $-1 -1 -1 $-1 $171 $170 $363 $368 forward $79 $-1 #
edge $369 -1 -1 $-1 $266 -67.200000000000003 $366 67.200000000000003 $257 $370 forward @7 unknown T -67.200000000000003 -67.200000000000003 -67.200000000000003 67.200000000000003 -67.200000000000003 -67.200000000000003 #
coedge $-1 -1 -1 $-1 $271 $270 $171 $263 reversed $254 $-1 #
edge $371 -1 -1 $-1 $372 -67.200000000000003 $265 67.200000000000003 $262 $373 forward @7 unknown T -67.200000000000003 67.200000000000003 -67.200000000000003 67.200000000000003 67.200000000000003 -67.200000000000003 #
simple-snl-attrib $-1 -1 $-1 $-1 $173 1 1 1 1 1 1 1 1 1 1 1 1 0 1 0 1 1 1 @17 NEW_SIMPLE_ATTRIB 1 @9 ENTITY_ID 0 3 339 -2147483648 -1 #
vertex $374 -1 -1 $-1 $173 $375 #
vertex $376 -1 -1 $-1 $279 $377 #
straight-curve $-1 -1 -1 $-1 67.200000000000003 0 -67.200000000000003 0 -1 0 I I #
coedge $-1 -1 -1 $-1 $256 $258 $174 $269 reversed $167 $-1 #
edge $378 -1 -1 $-1 $273 -67.200000000000003 $277 67.200000000000003 $268 $379 forward @7 unknown T -67.200000000000003 -67.200000000000003 67.200000000000003 -67.200000000000003 67.200000000000003 67.200000000000003 #
coedge $-1 -1 -1 $-1 $262 $175 $180 $280 forward $254 $-1 #
coedge $-1 -1 -1 $-1 $175 $262 $256 $364 reversed $254 $-1 #
simple-snl-attrib $-1 -1 $-1 $-1 $176 1 1 1 1 1 1 1 1 1 1 1 1 0 1 0 1 1 1 @17 NEW_SIMPLE_ATTRIB 1 @9 ENTITY_ID 0 3 336 -2147483648 -1 #
vertex $380 -1 -1 $-1 $176 $381 #
straight-curve $-1 -1 -1 $-1 0 67.200000000000003 67.200000000000003 -1 0 0 I I #
coedge $-1 -1 -1 $-1 $177 $257 $179 $279 reversed $114 $-1 #
simple-snl-attrib $-1 -1 $-1 $-1 $178 1 1 1 1 1 1 1 1 1 1 1 1 0 1 0 1 1 1 @17 NEW_SIMPLE_ATTRIB 1 @9 ENTITY_ID 0 3 338 -2147483648 -1 #
vertex $382 -1 -1 $-1 $269 $383 #
straight-curve $-1 -1 -1 $-1 0 -67.200000000000003 67.200000000000003 1 0 0 I I #
edge $384 -1 -1 $-1 $183 -67.200000000000003 $266 67.200000000000003 $179 $385 forward @7 unknown T 67.200000000000003 -67.200000000000003 -67.200000000000003 67.200000000000003 -67.200000000000003 67.200000000000003 #
edge $386 -1 -1 $-1 $184 -67.200000000000003 $265 67.200000000000003 $180 $387 forward @7 unknown T 67.200000000000003 67.200000000000003 -67.200000000000003 67.200000000000003 67.200000000000003 67.200000000000003 #
simple-snl-attrib $-1 -1 $-1 $-1 $183 1 1 1 1 1 1 1 1 1 1 1 1 0 1 0 1 1 1 @17 NEW_SIMPLE_ATTRIB 1 @9 ENTITY_ID 0 3 243 -2147483648 -1 #
point $-1 -1 -1 $-1 67.200000000000003 -67.200000000000003 67.200000000000003 #
simple-snl-attrib $-1 -1 $-1 $-1 $184 1 1 1 1 1 1 1 1 1 1 1 1 0 1 0 1 1 1 @17 NEW_SIMPLE_ATTRIB 1 @9 ENTITY_ID 0 3 244 -2147483648 -1 #
point $-1 -1 -1 $-1 67.200000000000003 67.200000000000003 67.200000000000003 #
simple-snl-attrib $-1 -1 $-1 $-1 $187 1 1 1 1 1 1 1 1 1 1 1 1 0 1 0 1 1 1 @17 NEW_SIMPLE_ATTRIB 1 @9 ENTITY_ID 0 3 11 -2147483648 -1 #
face $388 -1 -1 $-1 $-1 $202 $30 $-1 $389 forward single T 67.200000000000003 -67.200000000000003 -67.200000000000003 67.200000000000003 67.200000000000003 67.200000000000003 F #
loop $-1 -1 -1 $-1 $-1 $308 $187 T -67.200000000000003 67.200000000000003 -67.200000000000003 67.200000000000003 67.200000000000003 67.200000000000003 unknown #
plane-surface $-1 -1 -1 $-1 0 67.200000000000003 0 0 -1 0 0 0 -1 forward_v I I I I #
coedge $-1 -1 -1 $-1 $301 $390 $307 $391 reversed $188 $-1 #
coedge $-1 -1 -1 $-1 $190 $303 $192 $296 forward $125 $-1 #
coedge $-1 -1 -1 $-1 $390 $301 $190 $292 forward $188 $-1 #
edge $392 -1 -1 $-1 $305 -67.200000000000003 $393 67.200000000000003 $291 $394 forward @7 unknown T -67.200000000000003 -67.200000000000003 -67.200000000000003 -67.200000000000003 -67.200000000000003 67.200000000000003 #
coedge $-1 -1 -1 $-1 $192 $191 $390 $395 reversed $88 $-1 #
coedge $-1 -1 -1 $-1 $308 $307 $191 $295 forward $287 $-1 #
edge $396 -1 -1 $-1 $397 -67.200000000000003 $298 67.200000000000003 $294 $398 forward @7 unknown T -67.200000000000003 67.200000000000003 -67.200000000000003 67.200000000000003 67.200000000000003 -67.200000000000003 #
edge $399 -1 -1 $-1 $299 -67.200000000000003 $393 67.200000000000003 $290 $400 forward @7 unknown T -67.200000000000003 -67.200000000000003 -67.200000000000003 67.200000000000003 -67.200000000000003 -67.200000000000003 #
simple-snl-attrib $-1 -1 $-1 $-1 $194 1 1 1 1 1 1 1 1 1 1 1 1 0 1 0 1 1 1 @17 NEW_SIMPLE_ATTRIB 1 @9 ENTITY_ID 0 3 65 -2147483648 -1 #
vertex $401 -1 -1 $-1 $194 $402 #
vertex $403 -1 -1 $-1 $313 $404 #
straight-curve $-1 -1 -1 $-1 67.200000000000003 0 -67.200000000000003 0 -1 0 I I #
coedge $-1 -1 -1 $-1 $291 $289 $195 $302 forward $188 $-1 #
edge $405 -1 -1 $-1 $310 -67.200000000000003 $305 67.200000000000003 $301 $406 forward @7 unknown T -67.200000000000003 -67.200000000000003 67.200000000000003 -67.200000000000003 67.200000000000003 67.200000000000003 #
coedge $-1 -1 -1 $-1 $290 $196 $201 $313 forward $125 $-1 #
simple-snl-attrib $-1 -1 $-1 $-1 $197 1 1 1 1 1 1 1 1 1 1 1 1 0 1 0 1 1 1 @17 NEW_SIMPLE_ATTRIB 1 @9 ENTITY_ID 0 3 62 -2147483648 -1 #
vertex $407 -1 -1 $-1 $302 $408 #
straight-curve $-1 -1 -1 $-1 0 -67.200000000000003 67.200000000000003 1 0 0 I I #
coedge $-1 -1 -1 $-1 $294 $198 $289 $391 forward $287 $-1 #
coedge $-1 -1 -1 $-1 $198 $294 $200 $312 reversed $287 $-1 #
simple-snl-attrib $-1 -1 $-1 $-1 $199 1 1 1 1 1 1 1 1 1 1 1 1 0 1 0 1 1 1 @17 NEW_SIMPLE_ATTRIB 1 @9 ENTITY_ID 0 3 64 -2147483648 -1 #
vertex $409 -1 -1 $-1 $199 $410 #
straight-curve $-1 -1 -1 $-1 0 67.200000000000003 67.200000000000003 -1 0 0 I I #
edge $411 -1 -1 $-1 $205 -67.200000000000003 $298 67.200000000000003 $200 $412 forward @7 unknown T 67.200000000000003 67.200000000000003 -67.200000000000003 67.200000000000003 67.200000000000003 67.200000000000003 #
edge $413 -1 -1 $-1 $204 -67.200000000000003 $299 67.200000000000003 $201 $414 forward @7 unknown T 67.200000000000003 -67.200000000000003 -67.200000000000003 67.200000000000003 -67.200000000000003 67.200000000000003 #
simple-snl-attrib $-1 -1 $-1 $-1 $204 1 1 1 1 1 1 1 1 1 1 1 1 0 1 0 1 1 1 @17 NEW_SIMPLE_ATTRIB 1 @9 ENTITY_ID 0 3 41 -2147483648 -1 #
point $-1 -1 -1 $-1 67.200000000000003 -67.200000000000003 67.200000000000003 #
simple-snl-attrib $-1 -1 $-1 $-1 $205 1 1 1 1 1 1 1 1 1 1 1 1 0 1 0 1 1 1 @17 NEW_SIMPLE_ATTRIB 1 @9 ENTITY_ID 0 3 42 -2147483648 -1 #
point $-1 -1 -1 $-1 67.200000000000003 67.200000000000003 67.200000000000003 #
simple-snl-attrib $-1 -1 $-1 $-1 $208 1 1 1 1 1 1 1 1 1 1 1 1 0 1 0 1 1 1 @17 NEW_SIMPLE_ATTRIB 1 @9 ENTITY_ID 0 3 6 -2147483648 -1 #
plane-surface $-1 -1 -1 $-1 68.543999999999997 0 0 -1 0 0 0 -0 1 forward_v I I I I #
coedge $-1 -1 -1 $-1 $213 $211 $215 $325 reversed $134 $-1 #
edge $415 -1 -1 $-1 $228 -68.543999999999997 $329 68.543999999999997 $226 $416 forward @7 unknown T -68.543999999999997 68.543999999999997 -68.543999999999997 -68.543999999999997 68.543999999999997 68.543999999999997 #
simple-snl-attrib $-1 -1 $-1 $-1 $214 1 1 1 1 1 1 1 1 1 1 1 1 0 1 0 1 1 1 @17 NEW_SIMPLE_ATTRIB 1 @9 ENTITY_ID 0 3 45 -2147483648 -1 #
vertex $417 -1 -1 $-1 $325 $418 #
straight-curve $-1 -1 -1 $-1 -68.543999999999997 -68.543999999999997 0 0 0 -1 I I #
edge $419 -1 -1 $-1 $323 -68.543999999999997 $329 68.543999999999997 $320 $420 forward @7 unknown T -68.543999999999997 -68.543999999999997 -68.543999999999997 -68.543999999999997 68.543999999999997 -68.543999999999997 #
simple-snl-attrib $-1 -1 $-1 $-1 $216 1 1 1 1 1 1 1 1 1 1 1 1 0 1 0 1 1 1 @17 NEW_SIMPLE_ATTRIB 1 @9 ENTITY_ID 0 3 42 -2147483648 -1 #
straight-curve $-1 -1 -1 $-1 0 -68.543999999999997 -68.543999999999997 -1 0 0 I I #
simple-snl-attrib $-1 -1 $-1 $-1 $218 1 1 1 1 1 1 1 1 1 1 1 1 0 1 0 1 1 1 @17 NEW_SIMPLE_ATTRIB 1 @9 ENTITY_ID 0 3 44 -2147483648 -1 #
vertex $421 -1 -1 $-1 $218 $422 #
straight-curve $-1 -1 -1 $-1 0 68.543999999999997 -68.543999999999997 1 0 0 I I #
simple-snl-attrib $-1 -1 $-1 $-1 $220 1 1 1 1 1 1 1 1 1 1 1 1 0 1 0 1 1 1 @17 NEW_SIMPLE_ATTRIB 1 @9 ENTITY_ID 0 3 29 -2147483648 -1 #
point $-1 -1 -1 $-1 68.543999999999997 68.543999999999997 -68.543999999999997 #
simple-snl-attrib $-1 -1 $-1 $-1 $221 1 1 1 1 1 1 1 1 1 1 1 1 0 1 0 1 1 1 @17 NEW_SIMPLE_ATTRIB 1 @9 ENTITY_ID 0 3 30 -2147483648 -1 #
point $-1 -1 -1 $-1 68.543999999999997 -68.543999999999997 -68.543999999999997 #
simple-snl-attrib $-1 -1 $-1 $-1 $224 1 1 1 1 1 1 1 1 1 1 1 1 0 1 0 1 1 1 @17 NEW_SIMPLE_ATTRIB 1 @9 ENTITY_ID 0 3 39 -2147483648 -1 #
straight-curve $-1 -1 -1 $-1 -68.543999999999997 0 68.543999999999997 0 -1 0 I I #
simple-snl-attrib $-1 -1 $-1 $-1 $228 1 1 1 1 1 1 1 1 1 1 1 1 0 1 0 1 1 1 @17 NEW_SIMPLE_ATTRIB 1 @9 ENTITY_ID 0 3 27 -2147483648 -1 #
point $-1 -1 -1 $-1 -68.543999999999997 68.543999999999997 68.543999999999997 #
simple-snl-attrib $-1 -1 $-1 $-1 $232 1 1 1 1 1 1 1 1 1 1 1 1 0 1 0 1 1 1 @17 NEW_SIMPLE_ATTRIB 1 @9 ENTITY_ID 0 3 28 -2147483648 -1 #
point $-1 -1 -1 $-1 -68.543999999999997 -68.543999999999997 68.543999999999997 #
simple-snl-attrib $-1 -1 $-1 $-1 $234 1 1 1 1 1 1 1 1 1 1 1 1 0 1 0 1 1 1 @17 NEW_SIMPLE_ATTRIB 1 @9 ENTITY_ID 0 3 46 -2147483648 -1 #
straight-curve $-1 -1 -1 $-1 68.543999999999997 -68.543999999999997 0 0 0 -1 I I #
simple-snl-attrib $-1 -1 $-1 $-1 $235 1 1 1 1 1 1 1 1 1 1 1 1 0 1 0 1 1 1 @17 NEW_SIMPLE_ATTRIB 1 @9 ENTITY_ID 0 3 48 -2147483648 -1 #
straight-curve $-1 -1 -1 $-1 68.543999999999997 68.543999999999997 0 0 0 -1 I I #
simple-snl-attrib $-1 -1 $-1 $-1 $240 1 1 1 1 1 1 1 1 1 1 1 1 0 1 0 1 1 1 @17 NEW_SIMPLE_ATTRIB 1 @9 ENTITY_ID 0 3 22 -2147483648 -1 #
face $423 -1 -1 $-1 $424 $425 $153 $-1 $426 reversed single T -1.6653345369377351e-16 -1.9999999999999991 -2.9999999999999991 2.2204460492503131e-16 1.9999999999999996 2.9999999999999991 F #
loop $-1 -1 -1 $-1 $427 $428 $240 T -1.6653345369377351e-16 -1.9999999999999991 -2.9999999999999991 2.2204460492503131e-16 1.9999999999999996 2.9999999999999991 unknown #
cone-surface $-1 -1 -1 $-1 0.99999999999999978 -5.5511151231257827e-17 1.1102230246251565e-16 0.99999999999999978 -5.5511151231257827e-17 1.1102230246251565e-16 -1.6653345369377348e-16 3.3306690738754696e-16 2.9999999999999991 0.66666666666666663 I I 0 1 3 forward I I I I #
simple-snl-attrib $-1 -1 $-1 $-1 $242 1 1 1 1 1 1 1 1 1 1 1 1 0 1 0 1 1 1 @17 NEW_SIMPLE_ATTRIB 1 @9 ENTITY_ID 0 3 20 -2147483648 -1 #
face $429 -1 -1 $-1 $-1 $430 $100 $-1 $431 reversed single T -2.0000000000000004 -1.9999999999999991 -2.9999999999999991 -2 2 2.9999999999999991 F #
loop $-1 -1 -1 $-1 $-1 $432 $242 T -4 -1.9999999999999991 -2.9999999999999991 -4 2 2.9999999999999991 unknown #
plane-surface $-1 -1 -1 $-1 -4 0 0 -0.99999999999999978 5.5511151231257827e-17 -1.1102230246251565e-16 -1.1102230246251565e-16 -0.99999999999999978 5.5511151231257827e-17 forward_v I I I I #
loop $-1 -1 -1 $-1 $-1 $433 $154 T -2.0000000000000004 -1.9999999999999991 -2.9999999999999991 -2 2 2.9999999999999991 unknown #
coedge $-1 -1 -1 $-1 $354 $354 $432 $434 forward $243 $-1 #
simple-snl-attrib $-1 -1 $-1 $245 $101 1 1 1 1 1 1 1 1 1 1 1 1 0 1 0 1 1 1 @17 NEW_SIMPLE_ATTRIB 1 @13 MERGE_PARTNER 0 4 362701290 1 345 1 #
simple-snl-attrib $-1 -1 $-1 $-1 $248 1 1 1 1 1 1 1 1 1 1 1 1 0 1 0 1 1 1 @17 NEW_SIMPLE_ATTRIB 1 @9 ENTITY_ID 0 3 318 -2147483648 -1 #
vertex $435 -1 -1 $-1 $248 $436 #
ellipse-curve $-1 -1 -1 $-1 6 -1.1102230246251565e-16 2.2204460492503131e-16 0.99999999999999978 -5.5511151231257827e-17 1.1102230246251565e-16 -1.6653345369377348e-16 3.3306690738754696e-16 2.9999999999999991 0.66666666666666663 I I #
simple-snl-attrib $-1 -1 $-1 $-1 $250 1 1 1 1 1 1 1 1 1 1 1 1 0 1 0 1 1 1 @17 NEW_SIMPLE_ATTRIB 1 @9 ENTITY_ID 0 3 229 -2147483648 -1 #
point $-1 -1 -1 $-1 4 1.9999999999999996 -1.1102230246251565e-16 #
simple-snl-attrib $-1 -1 $-1 $-1 $253 1 1 1 1 1 1 1 1 1 1 1 1 0 1 0 1 1 1 @17 NEW_SIMPLE_ATTRIB 1 @9 ENTITY_ID 0 3 30 -2147483648 -1 #
plane-surface $-1 -1 -1 $-1 67.200000000000003 0 0 -1 0 0 0 -0 1 forward_v I I I I #
coedge $-1 -1 -1 $-1 $258 $256 $260 $368 reversed $167 $-1 #
edge $437 -1 -1 $-1 $273 -67.200000000000003 $372 67.200000000000003 $271 $438 forward @7 unknown T -67.200000000000003 67.200000000000003 -67.200000000000003 -67.200000000000003 67.200000000000003 67.200000000000003 #
simple-snl-attrib $-1 -1 $-1 $-1 $259 1 1 1 1 1 1 1 1 1 1 1 1 0 1 0 1 1 1 @17 NEW_SIMPLE_ATTRIB 1 @9 ENTITY_ID 0 3 343 -2147483648 -1 #
vertex $439 -1 -1 $-1 $368 $440 #
straight-curve $-1 -1 -1 $-1 -67.200000000000003 -67.200000000000003 0 0 0 -1 I I #
edge $441 -1 -1 $-1 $366 -67.200000000000003 $372 67.200000000000003 $363 $442 forward @7 unknown T -67.200000000000003 -67.200000000000003 -67.200000000000003 -67.200000000000003 67.200000000000003 -67.200000000000003 #
simple-snl-attrib $-1 -1 $-1 $-1 $261 1 1 1 1 1 1 1 1 1 1 1 1 0 1 0 1 1 1 @17 NEW_SIMPLE_ATTRIB 1 @9 ENTITY_ID 0 3 340 -2147483648 -1 #
straight-curve $-1 -1 -1 $-1 0 -67.200000000000003 -67.200000000000003 -1 0 0 I I #
simple-snl-attrib $-1 -1 $-1 $-1 $263 1 1 1 1 1 1 1 1 1 1 1 1 0 1 0 1 1 1 @17 NEW_SIMPLE_ATTRIB 1 @9 ENTITY_ID 0 3 342 -2147483648 -1 #
vertex $443 -1 -1 $-1 $263 $444 #
straight-curve $-1 -1 -1 $-1 0 67.200000000000003 -67.200000000000003 1 0 0 I I #
simple-snl-attrib $-1 -1 $-1 $-1 $265 1 1 1 1 1 1 1 1 1 1 1 1 0 1 0 1 1 1 @17 NEW_SIMPLE_ATTRIB 1 @9 ENTITY_ID 0 3 247 -2147483648 -1 #
point $-1 -1 -1 $-1 67.200000000000003 67.200000000000003 -67.200000000000003 #
simple-snl-attrib $-1 -1 $-1 $-1 $266 1 1 1 1 1 1 1 1 1 1 1 1 0 1 0 1 1 1 @17 NEW_SIMPLE_ATTRIB 1 @9 ENTITY_ID 0 3 248 -2147483648 -1 #
point $-1 -1 -1 $-1 67.200000000000003 -67.200000000000003 -67.200000000000003 #
simple-snl-attrib $-1 -1 $-1 $-1 $269 1 1 1 1 1 1 1 1 1 1 1 1 0 1 0 1 1 1 @17 NEW_SIMPLE_ATTRIB 1 @9 ENTITY_ID 0 3 337 -2147483648 -1 #
straight-curve $-1 -1 -1 $-1 -67.200000000000003 0 67.200000000000003 0 -1 0 I I #
simple-snl-attrib $-1 -1 $-1 $-1 $273 1 1 1 1 1 1 1 1 1 1 1 1 0 1 0 1 1 1 @17 NEW_SIMPLE_ATTRIB 1 @9 ENTITY_ID 0 3 245 -2147483648 -1 #
point $-1 -1 -1 $-1 -67.200000000000003 67.200000000000003 67.200000000000003 #
simple-snl-attrib $-1 -1 $-1 $-1 $277 1 1 1 1 1 1 1 1 1 1 1 1 0 1 0 1 1 1 @17 NEW_SIMPLE_ATTRIB 1 @9 ENTITY_ID 0 3 246 -2147483648 -1 #
point $-1 -1 -1 $-1 -67.200000000000003 -67.200000000000003 67.200000000000003 #
simple-snl-attrib $-1 -1 $-1 $-1 $279 1 1 1 1 1 1 1 1 1 1 1 1 0 1 0 1 1 1 @17 NEW_SIMPLE_ATTRIB 1 @9 ENTITY_ID 0 3 344 -2147483648 -1 #
straight-curve $-1 -1 -1 $-1 67.200000000000003 -67.200000000000003 0 0 0 -1 I I #
simple-snl-attrib $-1 -1 $-1 $-1 $280 1 1 1 1 1 1 1 1 1 1 1 1 0 1 0 1 1 1 @17 NEW_SIMPLE_ATTRIB 1 @9 ENTITY_ID 0 3 346 -2147483648 -1 #
straight-curve $-1 -1 -1 $-1 67.200000000000003 67.200000000000003 0 0 0 -1 I I #
simple-snl-attrib $-1 -1 $-1 $-1 $286 1 1 1 1 1 1 1 1 1 1 1 1 0 1 0 1 1 1 @17 NEW_SIMPLE_ATTRIB 1 @9 ENTITY_ID 0 3 12 -2147483648 -1 #
plane-surface $-1 -1 -1 $-1 67.200000000000003 0 0 -1 0 0 0 -0 1 forward_v I I I I #
coedge $-1 -1 -1 $-1 $289 $291 $293 $395 forward $188 $-1 #
edge $445 -1 -1 $-1 $310 -67.200000000000003 $397 67.200000000000003 $307 $446 forward @7 unknown T -67.200000000000003 67.200000000000003 -67.200000000000003 -67.200000000000003 67.200000000000003 67.200000000000003 #
simple-snl-attrib $-1 -1 $-1 $-1 $292 1 1 1 1 1 1 1 1 1 1 1 1 0 1 0 1 1 1 @17 NEW_SIMPLE_ATTRIB 1 @9 ENTITY_ID 0 3 69 -2147483648 -1 #
vertex $447 -1 -1 $-1 $395 $448 #
straight-curve $-1 -1 -1 $-1 -67.200000000000003 -67.200000000000003 0 0 0 -1 I I #
edge $449 -1 -1 $-1 $393 -67.200000000000003 $397 67.200000000000003 $390 $450 forward @7 unknown T -67.200000000000003 -67.200000000000003 -67.200000000000003 -67.200000000000003 67.200000000000003 -67.200000000000003 #
simple-snl-attrib $-1 -1 $-1 $-1 $295 1 1 1 1 1 1 1 1 1 1 1 1 0 1 0 1 1 1 @17 NEW_SIMPLE_ATTRIB 1 @9 ENTITY_ID 0 3 66 -2147483648 -1 #
vertex $451 -1 -1 $-1 $295 $452 #
straight-curve $-1 -1 -1 $-1 0 67.200000000000003 -67.200000000000003 1 0 0 I I #
simple-snl-attrib $-1 -1 $-1 $-1 $296 1 1 1 1 1 1 1 1 1 1 1 1 0 1 0 1 1 1 @17 NEW_SIMPLE_ATTRIB 1 @9 ENTITY_ID 0 3 68 -2147483648 -1 #
straight-curve $-1 -1 -1 $-1 0 -67.200000000000003 -67.200000000000003 -1 0 0 I I #
simple-snl-attrib $-1 -1 $-1 $-1 $298 1 1 1 1 1 1 1 1 1 1 1 1 0 1 0 1 1 1 @17 NEW_SIMPLE_ATTRIB 1 @9 ENTITY_ID 0 3 45 -2147483648 -1 #
point $-1 -1 -1 $-1 67.200000000000003 67.200000000000003 -67.200000000000003 #
simple-snl-attrib $-1 -1 $-1 $-1 $299 1 1 1 1 1 1 1 1 1 1 1 1 0 1 0 1 1 1 @17 NEW_SIMPLE_ATTRIB 1 @9 ENTITY_ID 0 3 46 -2147483648 -1 #
point $-1 -1 -1 $-1 67.200000000000003 -67.200000000000003 -67.200000000000003 #
simple-snl-attrib $-1 -1 $-1 $-1 $302 1 1 1 1 1 1 1 1 1 1 1 1 0 1 0 1 1 1 @17 NEW_SIMPLE_ATTRIB 1 @9 ENTITY_ID 0 3 63 -2147483648 -1 #
straight-curve $-1 -1 -1 $-1 -67.200000000000003 0 67.200000000000003 0 -1 0 I I #
simple-snl-attrib $-1 -1 $-1 $-1 $305 1 1 1 1 1 1 1 1 1 1 1 1 0 1 0 1 1 1 @17 NEW_SIMPLE_ATTRIB 1 @9 ENTITY_ID 0 3 43 -2147483648 -1 #
point $-1 -1 -1 $-1 -67.200000000000003 -67.200000000000003 67.200000000000003 #
simple-snl-attrib $-1 -1 $-1 $-1 $310 1 1 1 1 1 1 1 1 1 1 1 1 0 1 0 1 1 1 @17 NEW_SIMPLE_ATTRIB 1 @9 ENTITY_ID 0 3 44 -2147483648 -1 #
point $-1 -1 -1 $-1 -67.200000000000003 67.200000000000003 67.200000000000003 #
simple-snl-attrib $-1 -1 $-1 $-1 $312 1 1 1 1 1 1 1 1 1 1 1 1 0 1 0 1 1 1 @17 NEW_SIMPLE_ATTRIB 1 @9 ENTITY_ID 0 3 72 -2147483648 -1 #
straight-curve $-1 -1 -1 $-1 67.200000000000003 67.200000000000003 0 0 0 -1 I I #
simple-snl-attrib $-1 -1 $-1 $-1 $313 1 1 1 1 1 1 1 1 1 1 1 1 0 1 0 1 1 1 @17 NEW_SIMPLE_ATTRIB 1 @9 ENTITY_ID 0 3 70 -2147483648 -1 #
straight-curve $-1 -1 -1 $-1 67.200000000000003 -67.200000000000003 0 0 0 -1 I I #
simple-snl-attrib $-1 -1 $-1 $-1 $321 1 1 1 1 1 1 1 1 1 1 1 1 0 1 0 1 1 1 @17 NEW_SIMPLE_ATTRIB 1 @9 ENTITY_ID 0 3 47 -2147483648 -1 #
straight-curve $-1 -1 -1 $-1 -68.543999999999997 68.543999999999997 0 0 0 -1 I I #
simple-snl-attrib $-1 -1 $-1 $-1 $323 1 1 1 1 1 1 1 1 1 1 1 1 0 1 0 1 1 1 @17 NEW_SIMPLE_ATTRIB 1 @9 ENTITY_ID 0 3 31 -2147483648 -1 #
point $-1 -1 -1 $-1 -68.543999999999997 -68.543999999999997 -68.543999999999997 #
simple-snl-attrib $-1 -1 $-1 $-1 $325 1 1 1 1 1 1 1 1 1 1 1 1 0 1 0 1 1 1 @17 NEW_SIMPLE_ATTRIB 1 @9 ENTITY_ID 0 3 43 -2147483648 -1 #
straight-curve $-1 -1 -1 $-1 -68.543999999999997 0 -68.543999999999997 0 1 0 I I #
simple-snl-attrib $-1 -1 $-1 $-1 $329 1 1 1 1 1 1 1 1 1 1 1 1 0 1 0 1 1 1 @17 NEW_SIMPLE_ATTRIB 1 @9 ENTITY_ID 0 3 32 -2147483648 -1 #
point $-1 -1 -1 $-1 -68.543999999999997 68.543999999999997 -68.543999999999997 #
simple-snl-attrib $-1 -1 $-1 $-1 $346 1 1 1 1 1 1 1 1 1 1 1 1 0 1 0 1 1 1 @17 NEW_SIMPLE_ATTRIB 1 @9 ENTITY_ID 0 3 23 -2147483648 -1 #
face $453 -1 -1 $-1 $-1 $454 $153 $-1 $455 reversed single T 1.9999999999999993 -1.9999999999999991 -2.9999999999999991 1.9999999999999998 1.9999999999999996 2.9999999999999991 F #
loop $-1 -1 -1 $-1 $-1 $456 $346 T -1.6653345369377351e-16 -1.9999999999999991 -2.9999999999999991 2.2204460492503131e-16 1.9999999999999996 2.9999999999999991 unknown #
plane-surface $-1 -1 -1 $-1 0 0 0 -0.99999999999999978 5.5511151231257827e-17 -1.1102230246251565e-16 -1.1102230246251565e-16 -0.99999999999999978 5.5511151231257827e-17 forward_v I I I I #
loop $-1 -1 -1 $-1 $-1 $457 $240 T 1.9999999999999993 -1.9999999999999991 -2.9999999999999991 1.9999999999999998 1.9999999999999996 2.9999999999999991 unknown #
coedge $-1 -1 -1 $-1 $428 $428 $456 $458 forward $347 $-1 #
simple-snl-attrib $-1 -1 $-1 $-1 $350 1 1 1 1 1 1 1 1 1 1 1 1 0 1 0 1 1 1 @17 NEW_SIMPLE_ATTRIB 1 @9 ENTITY_ID 0 3 21 -2147483648 -1 #
loop $-1 -1 -1 $-1 $-1 $459 $350 T -2.0000000000000004 -1.9999999999999991 -2.9999999999999991 -2 2 2.9999999999999991 unknown #
plane-surface $-1 -1 -1 $-1 -2.0000000000000004 0 2.2204460492503131e-16 0.99999999999999978 -5.5511151231257827e-17 1.1102230246251565e-16 1.1102230246251565e-16 0.99999999999999978 -5.5511151231257827e-17 forward_v I I I I #
coedge $-1 -1 -1 $-1 $432 $432 $354 $434 reversed $351 $-1 #
coedge $-1 -1 -1 $-1 $433 $433 $459 $460 forward $353 $-1 #
edge $461 -1 -1 $-1 $462 1.5707963267948966 $462 7.8539816339744828 $432 $463 forward @7 unknown T -4 -1.9999999999999991 -2.9999999999999991 -4 2 2.9999999999999991 #
simple-snl-attrib $-1 -1 $-1 $-1 $357 1 1 1 1 1 1 1 1 1 1 1 1 0 1 0 1 1 1 @17 NEW_SIMPLE_ATTRIB 1 @9 ENTITY_ID 0 3 230 -2147483648 -1 #
point $-1 -1 -1 $-1 6 1.9999999999999996 1.1102230246251565e-16 #
simple-snl-attrib $-1 -1 $-1 $-1 $364 1 1 1 1 1 1 1 1 1 1 1 1 0 1 0 1 1 1 @17 NEW_SIMPLE_ATTRIB 1 @9 ENTITY_ID 0 3 345 -2147483648 -1 #
straight-curve $-1 -1 -1 $-1 -67.200000000000003 67.200000000000003 0 0 0 -1 I I #
simple-snl-attrib $-1 -1 $-1 $-1 $366 1 1 1 1 1 1 1 1 1 1 1 1 0 1 0 1 1 1 @17 NEW_SIMPLE_ATTRIB 1 @9 ENTITY_ID 0 3 249 -2147483648 -1 #
point $-1 -1 -1 $-1 -67.200000000000003 -67.200000000000003 -67.200000000000003 #
simple-snl-attrib $-1 -1 $-1 $-1 $368 1 1 1 1 1 1 1 1 1 1 1 1 0 1 0 1 1 1 @17 NEW_SIMPLE_ATTRIB 1 @9 ENTITY_ID 0 3 341 -2147483648 -1 #
straight-curve $-1 -1 -1 $-1 -67.200000000000003 0 -67.200000000000003 0 1 0 I I #
simple-snl-attrib $-1 -1 $-1 $-1 $372 1 1 1 1 1 1 1 1 1 1 1 1 0 1 0 1 1 1 @17 NEW_SIMPLE_ATTRIB 1 @9 ENTITY_ID 0 3 250 -2147483648 -1 #
point $-1 -1 -1 $-1 -67.200000000000003 67.200000000000003 -67.200000000000003 #
simple-snl-attrib $-1 -1 $-1 $-1 $391 1 1 1 1 1 1 1 1 1 1 1 1 0 1 0 1 1 1 @17 NEW_SIMPLE_ATTRIB 1 @9 ENTITY_ID 0 3 71 -2147483648 -1 #
straight-curve $-1 -1 -1 $-1 -67.200000000000003 67.200000000000003 0 0 0 -1 I I #
simple-snl-attrib $-1 -1 $-1 $-1 $393 1 1 1 1 1 1 1 1 1 1 1 1 0 1 0 1 1 1 @17 NEW_SIMPLE_ATTRIB 1 @9 ENTITY_ID 0 3 48 -2147483648 -1 #
point $-1 -1 -1 $-1 -67.200000000000003 -67.200000000000003 -67.200000000000003 #
simple-snl-attrib $-1 -1 $-1 $-1 $395 1 1 1 1 1 1 1 1 1 1 1 1 0 1 0 1 1 1 @17 NEW_SIMPLE_ATTRIB 1 @9 ENTITY_ID 0 3 67 -2147483648 -1 #
straight-curve $-1 -1 -1 $-1 -67.200000000000003 0 -67.200000000000003 0 1 0 I I #
simple-snl-attrib $-1 -1 $-1 $-1 $397 1 1 1 1 1 1 1 1 1 1 1 1 0 1 0 1 1 1 @17 NEW_SIMPLE_ATTRIB 1 @9 ENTITY_ID 0 3 47 -2147483648 -1 #
point $-1 -1 -1 $-1 -67.200000000000003 67.200000000000003 -67.200000000000003 #
simple-snl-attrib $-1 -1 $-1 $-1 $424 1 1 1 1 1 1 1 1 1 1 1 1 0 1 0 1 1 1 @17 NEW_SIMPLE_ATTRIB 1 @9 ENTITY_ID 0 3 24 -2147483648 -1 #
loop $-1 -1 -1 $-1 $-1 $464 $424 T 1.9999999999999993 -1.9999999999999991 -2.9999999999999991 1.9999999999999998 1.9999999999999996 2.9999999999999991 unknown #
plane-surface $-1 -1 -1 $-1 1.9999999999999996 -1.1102230246251565e-16 2.2204460492503131e-16 0.99999999999999978 -5.5511151231257827e-17 1.1102230246251565e-16 1.1102230246251565e-16 0.99999999999999978 -5.5511151231257827e-17 forward_v I I I I #
coedge $-1 -1 -1 $-1 $456 $456 $428 $458 reversed $425 $-1 #
coedge $-1 -1 -1 $-1 $457 $457 $464 $465 forward $427 $-1 #
edge $466 -1 -1 $-1 $467 1.5707963267948966 $467 7.8539816339744828 $456 $468 forward @7 unknown T -1.6653345369377351e-16 -1.9999999999999991 -2.9999999999999991 2.2204460492503131e-16 1.9999999999999996 2.9999999999999991 #
coedge $-1 -1 -1 $-1 $459 $459 $433 $460 reversed $430 $-1 #
edge $469 -1 -1 $-1 $470 -1.5707963267948966 $470 4.7123889803846897 $459 $471 forward @7 unknown T -2.0000000000000004 -1.9999999999999991 -2.9999999999999991 -2 2 2.9999999999999991 #
simple-snl-attrib $-1 -1 $-1 $-1 $434 1 1 1 1 1 1 1 1 1 1 1 1 0 1 0 1 1 1 @17 NEW_SIMPLE_ATTRIB 1 @9 ENTITY_ID 0 3 319 -2147483648 -1 #
vertex $472 -1 -1 $-1 $434 $473 #
ellipse-curve $-1 -1 -1 $-1 -4 0 0 -0.99999999999999978 5.5511151231257827e-17 -1.1102230246251565e-16 -1.6653345369377348e-16 3.3306690738754696e-16 2.9999999999999991 0.66666666666666663 I I #
coedge $-1 -1 -1 $-1 $464 $464 $457 $465 reversed $454 $-1 #
edge $474 -1 -1 $-1 $475 -1.5707963267948966 $475 4.7123889803846897 $464 $476 forward @7 unknown T 1.9999999999999993 -1.9999999999999991 -2.9999999999999991 1.9999999999999998 1.9999999999999996 2.9999999999999991 #
simple-snl-attrib $-1 -1 $-1 $-1 $458 1 1 1 1 1 1 1 1 1 1 1 1 0 1 0 1 1 1 @17 NEW_SIMPLE_ATTRIB 1 @9 ENTITY_ID 0 3 321 -2147483648 -1 #
vertex $477 -1 -1 $-1 $458 $478 #
ellipse-curve $-1 -1 -1 $-1 0 0 0 -0.99999999999999978 5.5511151231257827e-17 -1.1102230246251565e-16 -1.6653345369377348e-16 3.3306690738754696e-16 2.9999999999999991 0.66666666666666663 I I #
simple-snl-attrib $-1 -1 $-1 $-1 $460 1 1 1 1 1 1 1 1 1 1 1 1 0 1 0 1 1 1 @17 NEW_SIMPLE_ATTRIB 1 @9 ENTITY_ID 0 3 320 -2147483648 -1 #
vertex $479 -1 -1 $-1 $460 $480 #
ellipse-curve $-1 -1 -1 $-1 -2.0000000000000004 0 2.2204460492503131e-16 0.99999999999999978 -5.5511151231257827e-17 1.1102230246251565e-16 -1.6653345369377348e-16 3.3306690738754696e-16 2.9999999999999991 0.66666666666666663 I I #
simple-snl-attrib $-1 -1 $-1 $-1 $462 1 1 1 1 1 1 1 1 1 1 1 1 0 1 0 1 1 1 @17 NEW_SIMPLE_ATTRIB 1 @9 ENTITY_ID 0 3 231 -2147483648 -1 #
point $-1 -1 -1 $-1 -4 2 -1.1102230246251565e-16 #
simple-snl-attrib $-1 -1 $-1 $-1 $465 1 1 1 1 1 1 1 1 1 1 1 1 0 1 0 1 1 1 @17 NEW_SIMPLE_ATTRIB 1 @9 ENTITY_ID 0 3 322 -2147483648 -1 #
vertex $481 -1 -1 $-1 $465 $482 #
ellipse-curve $-1 -1 -1 $-1 1.9999999999999996 -1.1102230246251565e-16 2.2204460492503131e-16 0.99999999999999978 -5.5511151231257827e-17 1.1102230246251565e-16 -1.6653345369377348e-16 3.3306690738754696e-16 2.9999999999999991 0.66666666666666663 I I #
simple-snl-attrib $-1 -1 $-1 $-1 $467 1 1 1 1 1 1 1 1 1 1 1 1 0 1 0 1 1 1 @17 NEW_SIMPLE_ATTRIB 1 @9 ENTITY_ID 0 3 233 -2147483648 -1 #
point $-1 -1 -1 $-1 2.2204460492503131e-16 1.9999999999999996 -1.1102230246251565e-16 #
simple-snl-attrib $-1 -1 $-1 $-1 $470 1 1 1 1 1 1 1 1 1 1 1 1 0 1 0 1 1 1 @17 NEW_SIMPLE_ATTRIB 1 @9 ENTITY_ID 0 3 232 -2147483648 -1 #
point $-1 -1 -1 $-1 -2 2 1.1102230246251565e-16 #
simple-snl-attrib $-1 -1 $-1 $-1 $475 1 1 1 1 1 1 1 1 1 1 1 1 0 1 0 1 1 1 @17 NEW_SIMPLE_ATTRIB 1 @9 ENTITY_ID 0 3 234 -2147483648 -1 #
point $-1 -1 -1 $-1 1.9999999999999998 1.9999999999999996 1.1102230246251565e-16 #
End-of-ACIS-data 