1600 0 6 0           
10 Cubit 12.0 17 ACIS 17.0.2 Linux 24 Tue Mar  2 14:43:33 2010 
1 9.9999999999999995e-07 1e-10 
body $6 -1 -1 $-1 $7 $-1 $8 T -1.002 -1.002 -1.002 1.002 1.002 1.002 #
body $9 -1 -1 $-1 $10 $-1 $11 T -1.0029999999999999 -1.0029999999999999 0 1.0029999999999999 1.0029999999999999 1.0029999999999999 #
body $12 -1 -1 $-1 $13 $-1 $14 T -1.0029999999999999 -1.0029999999999999 -1.0029999999999999 1.0029999999999999 1.0029999999999999 0 #
body $15 -1 -1 $-1 $16 $-1 $17 T -1.5 -1.5 -1.5 1.5 1.5 1.5 #
body $18 -1 -1 $-1 $19 $-1 $-1 T -1 -1 -1 1 1 1 #
body $20 -1 -1 $-1 $21 $-1 $22 T -1.0009999999999999 -1.0009999999999999 -1.0009999999999999 1.0009999999999999 1.0009999999999999 1.0009999999999999 #
simple-snl-attrib $-1 -1 $-1 $-1 $0 1 1 1 1 1 1 1 1 1 1 1 1 0 1 0 1 1 1 @17 NEW_SIMPLE_ATTRIB 1 @9 ENTITY_ID 0 3 2 -2147483648 -1 #
lump $23 -1 -1 $-1 $-1 $24 $0 T -1.002 -1.002 -1.002 1.002 1.002 1.002 #
transform $-1 -1 1 0 0 0 1 0 0 0 1 0 0 0 1 no_rotate no_reflect no_shear #
simple-snl-attrib $-1 -1 $-1 $-1 $1 1 1 1 1 1 1 1 1 1 1 1 1 0 1 0 1 1 1 @17 NEW_SIMPLE_ATTRIB 1 @9 ENTITY_ID 0 3 4 -2147483648 -1 #
lump $25 -1 -1 $-1 $-1 $26 $1 T -1.0029999999999999 -1.0029999999999999 0 1.0029999999999999 1.0029999999999999 1.0029999999999999 #
transform $-1 -1 1 0 0 0 1 0 0 0 1 0 0 0 1 no_rotate no_reflect no_shear #
simple-snl-attrib $-1 -1 $-1 $-1 $2 1 1 1 1 1 1 1 1 1 1 1 1 0 1 0 1 1 1 @17 NEW_SIMPLE_ATTRIB 1 @9 ENTITY_ID 0 3 7 -2147483648 -1 #
lump $27 -1 -1 $-1 $-1 $28 $2 T -1.0029999999999999 -1.0029999999999999 -1.0029999999999999 1.0029999999999999 1.0029999999999999 0 #
transform $-1 -1 1 0 0 0 1 0 0 0 1 0 0 0 1 no_rotate no_reflect no_shear #
simple-snl-attrib $-1 -1 $-1 $-1 $3 1 1 1 1 1 1 1 1 1 1 1 1 0 1 0 1 1 1 @17 NEW_SIMPLE_ATTRIB 1 @9 ENTITY_ID 0 3 9 -2147483648 -1 #
lump $29 -1 -1 $-1 $-1 $30 $3 T -1.5 -1.5 -1.5 1.5 1.5 1.5 #
transform $-1 -1 1 0 0 0 1 0 0 0 1 0 0 0 1 no_rotate no_reflect no_shear #
simple-snl-attrib $-1 -1 $-1 $-1 $4 1 1 1 1 1 1 1 1 1 1 1 1 0 1 0 1 1 1 @17 NEW_SIMPLE_ATTRIB 1 @9 ENTITY_ID 0 3 10 -2147483648 -1 #
lump $31 -1 -1 $-1 $-1 $32 $4 T -1 -1 -1 1 1 1 #
simple-snl-attrib $-1 -1 $-1 $-1 $5 1 1 1 1 1 1 1 1 1 1 1 1 0 1 0 1 1 1 @17 NEW_SIMPLE_ATTRIB 1 @9 ENTITY_ID 0 3 11 -2147483648 -1 #
lump $33 -1 -1 $-1 $-1 $34 $5 T -1.0009999999999999 -1.0009999999999999 -1.0009999999999999 1.0009999999999999 1.0009999999999999 1.0009999999999999 #
transform $-1 -1 1 0 0 0 1 0 0 0 1 0 0 0 1 no_rotate no_reflect no_shear #
simple-snl-attrib $-1 -1 $35 $-1 $7 1 1 1 1 1 1 1 1 1 1 1 1 0 1 0 1 1 1 @17 NEW_SIMPLE_ATTRIB 1 @9 ENTITY_ID 0 3 4 -2147483648 -1 #
shell $-1 -1 -1 $-1 $36 $-1 $37 $-1 $7 T -1.002 -1.002 -1.002 1.002 1.002 1.002 #
simple-snl-attrib $-1 -1 $38 $-1 $10 1 1 1 1 1 1 1 1 1 1 1 1 0 1 0 1 1 1 @17 NEW_SIMPLE_ATTRIB 1 @9 ENTITY_ID 0 3 5 -2147483648 -1 #
shell $-1 -1 -1 $-1 $-1 $-1 $39 $-1 $10 T -1.0029999999999999 -1.0029999999999999 0 1.0029999999999999 1.0029999999999999 1.0029999999999999 #
simple-snl-attrib $-1 -1 $40 $-1 $13 1 1 1 1 1 1 1 1 1 1 1 1 0 1 0 1 1 1 @17 NEW_SIMPLE_ATTRIB 1 @9 ENTITY_ID 0 3 8 -2147483648 -1 #
shell $-1 -1 -1 $-1 $-1 $-1 $41 $-1 $13 T -1.0029999999999999 -1.0029999999999999 -1.0029999999999999 1.0029999999999999 1.0029999999999999 0 #
simple-snl-attrib $-1 -1 $42 $-1 $16 1 1 1 1 1 1 1 1 1 1 1 1 0 1 0 1 1 1 @17 NEW_SIMPLE_ATTRIB 1 @9 ENTITY_ID 0 3 10 -2147483648 -1 #
shell $-1 -1 -1 $-1 $43 $-1 $44 $-1 $16 T -1.5 -1.5 -1.5 1.5 1.5 1.5 #
simple-snl-attrib $-1 -1 $45 $-1 $19 1 1 1 1 1 1 1 1 1 1 1 1 0 1 0 1 1 1 @17 NEW_SIMPLE_ATTRIB 1 @9 ENTITY_ID 0 3 11 -2147483648 -1 #
shell $-1 -1 -1 $-1 $-1 $-1 $46 $-1 $19 T -1 -1 -1 1 1 1 #
simple-snl-attrib $-1 -1 $47 $-1 $21 1 1 1 1 1 1 1 1 1 1 1 1 0 1 0 1 1 1 @17 NEW_SIMPLE_ATTRIB 1 @9 ENTITY_ID 0 3 12 -2147483648 -1 #
shell $-1 -1 -1 $-1 $48 $-1 $49 $-1 $21 T -1.0009999999999999 -1.0009999999999999 -1.0009999999999999 1.0009999999999999 1.0009999999999999 1.0009999999999999 #
simple-snl-attrib $-1 -1 $50 $23 $7 1 1 1 1 1 1 1 1 1 1 1 1 0 1 0 1 1 1 @17 NEW_SIMPLE_ATTRIB 2 @5 GROUP @12 mat_1_rho_-1 0 7 1 2 1515883924 0 0 0 0 #
shell $-1 -1 -1 $-1 $-1 $-1 $51 $-1 $7 T -1.0009999999999999 -1.0009999999999999 -1.0009999999999999 1.0009999999999999 1.0009999999999999 1.0009999999999999 #
face $52 -1 -1 $-1 $53 $54 $24 $-1 $55 forward single T -1.002 -1.002 -1.002 1.002 1.002 0 F #
simple-snl-attrib $-1 -1 $-1 $25 $10 1 1 1 1 1 1 1 1 1 1 1 1 0 1 0 1 1 1 @17 NEW_SIMPLE_ATTRIB 7 @16 GRAPHICS_OPTIONS @14 geometry color @10 mesh color @19 geometry visibility @15 mesh visibility @11 render mode @11 transparent 0 6 6 6 1 1 0 0 #
face $56 -1 -1 $-1 $57 $58 $26 $-1 $59 reversed single T -1.002 -1.002 0 1.002 1.002 1.002 F #
simple-snl-attrib $-1 -1 $-1 $27 $13 1 1 1 1 1 1 1 1 1 1 1 1 0 1 0 1 1 1 @17 NEW_SIMPLE_ATTRIB 7 @16 GRAPHICS_OPTIONS @14 geometry color @10 mesh color @19 geometry visibility @15 mesh visibility @11 render mode @11 transparent 0 6 2 2 1 1 0 0 #
face $60 -1 -1 $-1 $61 $62 $28 $-1 $63 reversed single T -1.002 -1.002 -1.002 1.002 1.002 0 F #
simple-snl-attrib $-1 -1 $64 $29 $16 1 1 1 1 1 1 1 1 1 1 1 1 0 1 0 1 1 1 @17 NEW_SIMPLE_ATTRIB 2 @5 GROUP @9 graveyard 0 7 1 6 2077372400 0 0 0 0 #
shell $-1 -1 -1 $-1 $-1 $-1 $65 $-1 $16 T -1.0029999999999999 -1.0029999999999999 -1.0029999999999999 1.0029999999999999 1.0029999999999999 1.0029999999999999 #
face $66 -1 -1 $-1 $67 $68 $30 $-1 $69 forward single T -1.5 -1.5 1.5 1.5 1.5 1.5 F #
simple-snl-attrib $-1 -1 $-1 $31 $19 1 1 1 1 1 1 1 1 1 1 1 1 0 1 0 1 1 1 @17 NEW_SIMPLE_ATTRIB 7 @16 GRAPHICS_OPTIONS @14 geometry color @10 mesh color @19 geometry visibility @15 mesh visibility @11 render mode @11 transparent 0 6 14 14 1 1 0 0 #
face $70 -1 -1 $-1 $-1 $-1 $32 $-1 $71 forward single T -1 -1 -1 1 1 1 F #
simple-snl-attrib $-1 -1 $72 $33 $21 1 1 1 1 1 1 1 1 1 1 1 1 0 1 0 1 1 1 @17 NEW_SIMPLE_ATTRIB 2 @5 GROUP @12 mat_1_rho_-1 0 7 1 2 1515883924 1 0 0 0 #
shell $-1 -1 -1 $-1 $-1 $-1 $73 $-1 $21 T -1 -1 -1 1 1 1 #
face $74 -1 -1 $-1 $-1 $-1 $34 $-1 $75 forward single T -1.0009999999999999 -1.0009999999999999 -1.0009999999999999 1.0009999999999999 1.0009999999999999 1.0009999999999999 F #
simple-snl-attrib $-1 -1 $-1 $35 $7 1 1 1 1 1 1 1 1 1 1 1 1 0 1 0 1 1 1 @17 NEW_SIMPLE_ATTRIB 7 @16 GRAPHICS_OPTIONS @14 geometry color @10 mesh color @19 geometry visibility @15 mesh visibility @11 render mode @11 transparent 0 6 5 5 1 1 0 0 #
face $76 -1 -1 $-1 $-1 $-1 $36 $-1 $77 reversed single T -1.0009999999999999 -1.0009999999999999 -1.0009999999999999 1.0009999999999999 1.0009999999999999 1.0009999999999999 F #
simple-snl-attrib $-1 -1 $78 $-1 $37 1 1 1 1 1 1 1 1 1 1 1 1 0 1 0 1 1 1 @17 NEW_SIMPLE_ATTRIB 1 @9 UNIQUE_ID 1 0 1 1167164538 #
face $79 -1 -1 $-1 $-1 $80 $24 $-1 $55 forward single T -1.002 -1.002 0 1.002 1.002 1.002 F #
loop $-1 -1 -1 $-1 $-1 $81 $37 T -1.002 -1.002 0 1.002 1.002 0 unknown #
sphere-surface $-1 -1 -1 $-1 0 0 0 1.002 1 0 0 0 0 1 forward_v I I I I #
simple-snl-attrib $-1 -1 $82 $-1 $39 1 1 1 1 1 1 1 1 1 1 1 1 0 1 0 1 1 1 @17 NEW_SIMPLE_ATTRIB 1 @9 UNIQUE_ID 1 0 1 796678613 #
face $83 -1 -1 $-1 $84 $85 $26 $-1 $86 reversed single T -1.0029999999999999 -1.0029999999999999 0 1.0029999999999999 1.0029999999999999 0 F #
loop $-1 -1 -1 $-1 $-1 $87 $39 T -1.002 -1.002 0 1.002 1.002 0 unknown #
sphere-surface $-1 -1 -1 $-1 0 0 0 1.002 1 0 0 0 0 1 forward_v I I I I #
simple-snl-attrib $-1 -1 $88 $-1 $41 1 1 1 1 1 1 1 1 1 1 1 1 0 1 0 1 1 1 @17 NEW_SIMPLE_ATTRIB 1 @9 UNIQUE_ID 1 0 1 1167164538 #
face $89 -1 -1 $-1 $90 $91 $28 $-1 $92 reversed single T -1.0029999999999999 -1.0029999999999999 0 1.0029999999999999 1.0029999999999999 0 F #
loop $-1 -1 -1 $-1 $-1 $93 $41 T -1.002 -1.002 0 1.002 1.002 0 unknown #
sphere-surface $-1 -1 -1 $-1 0 0 0 1.002 1 0 -0 0 0 -1 reverse_v I I I I #
simple-snl-attrib $-1 -1 $-1 $42 $16 1 1 1 1 1 1 1 1 1 1 1 1 0 1 0 1 1 1 @17 NEW_SIMPLE_ATTRIB 7 @16 GRAPHICS_OPTIONS @14 geometry color @10 mesh color @19 geometry visibility @15 mesh visibility @11 render mode @11 transparent 0 6 11 11 0 0 0 0 #
face $94 -1 -1 $-1 $95 $96 $43 $-1 $97 reversed single T -1.0029999999999999 -1.0029999999999999 0 1.0029999999999999 1.0029999999999999 1.0029999999999999 F #
simple-snl-attrib $-1 -1 $98 $-1 $44 1 1 1 1 1 1 1 1 1 1 1 1 0 1 0 1 1 1 @17 NEW_SIMPLE_ATTRIB 1 @9 ENTITY_ID 0 3 26 -2147483648 -1 #
face $99 -1 -1 $-1 $100 $101 $30 $-1 $102 reversed single T -1.5 -1.5 -1.5 1.5 1.5 -1.5 F #
loop $-1 -1 -1 $-1 $-1 $103 $44 T -1.5 -1.5 1.5 1.5 1.5 1.5 unknown #
plane-surface $-1 -1 -1 $-1 0 0 1.5 0 0 1 1 0 0 forward_v I I I I #
simple-snl-attrib $-1 -1 $104 $-1 $46 1 1 1 1 1 1 1 1 1 1 1 1 0 1 0 1 1 1 @17 NEW_SIMPLE_ATTRIB 1 @9 UNIQUE_ID 1 0 1 1101359735 #
sphere-surface $-1 -1 -1 $-1 0 0 0 1 1 0 0 0 0 1 forward_v I I I I #
simple-snl-attrib $-1 -1 $-1 $47 $21 1 1 1 1 1 1 1 1 1 1 1 1 0 1 0 1 1 1 @17 NEW_SIMPLE_ATTRIB 7 @16 GRAPHICS_OPTIONS @14 geometry color @10 mesh color @19 geometry visibility @15 mesh visibility @11 render mode @11 transparent 0 6 15 15 1 1 0 0 #
face $105 -1 -1 $-1 $-1 $-1 $48 $-1 $106 reversed single T -1 -1 -1 1 1 1 F #
simple-snl-attrib $-1 -1 $107 $-1 $49 1 1 1 1 1 1 1 1 1 1 1 1 0 1 0 1 1 1 @17 NEW_SIMPLE_ATTRIB 1 @9 UNIQUE_ID 1 0 1 1447405783 #
sphere-surface $-1 -1 -1 $-1 0 0 0 1.0009999999999999 1 0 0 0 0 1 forward_v I I I I #
simple-snl-attrib $-1 -1 $108 $-1 $51 1 1 1 1 1 1 1 1 1 1 1 1 0 1 0 1 1 1 @17 NEW_SIMPLE_ATTRIB 1 @9 UNIQUE_ID 1 0 1 1447405783 #
sphere-surface $-1 -1 -1 $-1 0 0 0 1.0009999999999999 1 0 0 0 0 1 forward_v I I I I #
simple-snl-attrib $-1 -1 $109 $52 $37 1 1 1 1 1 1 1 1 1 1 1 1 0 1 0 1 1 1 @17 NEW_SIMPLE_ATTRIB 1 @9 ENTITY_ID 0 3 17 1257961216 0 #
simple-snl-attrib $-1 -1 $110 $-1 $53 1 1 1 1 1 1 1 1 1 1 1 1 0 1 0 1 1 1 @17 NEW_SIMPLE_ATTRIB 1 @9 UNIQUE_ID 1 0 1 796678613 #
loop $-1 -1 -1 $-1 $-1 $111 $53 T -1.002 -1.002 0 1.002 1.002 0 unknown #
coedge $-1 -1 -1 $-1 $81 $81 $111 $112 reversed $54 $-1 #
simple-snl-attrib $-1 -1 $113 $56 $39 1 1 1 1 1 1 1 1 1 1 1 1 0 1 0 1 1 1 @17 NEW_SIMPLE_ATTRIB 1 @9 ENTITY_ID 0 3 15 1257961216 1 #
simple-snl-attrib $-1 -1 $114 $-1 $57 1 1 1 1 1 1 1 1 1 1 1 1 0 1 0 1 1 1 @17 NEW_SIMPLE_ATTRIB 1 @9 UNIQUE_ID 1 0 1 516095916 #
face $115 -1 -1 $-1 $-1 $116 $26 $-1 $117 forward single T -1.0029999999999999 -1.0029999999999999 0 1.0029999999999999 1.0029999999999999 1.0029999999999999 F #
loop $-1 -1 -1 $-1 $118 $119 $57 T -1.002 -1.002 0 1.002 1.002 0 hole $86 T #
plane-surface $-1 -1 -1 $-1 0 0 0 0 0 1 1 0 0 forward_v I I I I #
coedge $-1 -1 -1 $-1 $87 $87 $119 $120 reversed $58 $-1 #
simple-snl-attrib $-1 -1 $121 $60 $41 1 1 1 1 1 1 1 1 1 1 1 1 0 1 0 1 1 1 @17 NEW_SIMPLE_ATTRIB 1 @9 ENTITY_ID 0 3 17 1257961216 0 #
simple-snl-attrib $-1 -1 $122 $-1 $61 1 1 1 1 1 1 1 1 1 1 1 1 0 1 0 1 1 1 @17 NEW_SIMPLE_ATTRIB 1 @9 UNIQUE_ID 1 0 1 516095916 #
face $123 -1 -1 $-1 $-1 $124 $28 $-1 $125 forward single T -1.0029999999999999 -1.0029999999999999 -1.0029999999999999 1.0029999999999999 1.0029999999999999 0 F #
loop $-1 -1 -1 $-1 $126 $127 $61 T -1.002 -1.002 0 1.002 1.002 0 unknown #
plane-surface $-1 -1 -1 $-1 0 0 0 0 0 -1 1 0 -0 reverse_v I I I I #
coedge $-1 -1 -1 $-1 $93 $93 $127 $128 forward $62 $-1 #
simple-snl-attrib $-1 -1 $129 $-1 $65 1 1 1 1 1 1 1 1 1 1 1 1 0 1 0 1 1 1 @17 NEW_SIMPLE_ATTRIB 1 @9 UNIQUE_ID 1 0 1 1418728927 #
face $130 -1 -1 $-1 $-1 $131 $43 $-1 $97 reversed single T -1.0029999999999999 -1.0029999999999999 -1.0029999999999999 1.0029999999999999 1.0029999999999999 0 F #
loop $-1 -1 -1 $-1 $-1 $132 $65 T -1.0029999999999999 -1.0029999999999999 0 1.0029999999999999 1.0029999999999999 0 unknown #
sphere-surface $-1 -1 -1 $-1 0 0 0 1.0029999999999999 1 0 0 0 0 1 forward_v I I I I #
simple-snl-attrib $-1 -1 $133 $66 $44 1 1 1 1 1 1 1 1 1 1 1 1 0 1 0 1 1 1 @17 NEW_SIMPLE_ATTRIB 7 @16 GRAPHICS_OPTIONS @14 geometry color @10 mesh color @19 geometry visibility @15 mesh visibility @11 render mode @11 transparent 0 6 -1 -1 0 0 0 0 #
simple-snl-attrib $-1 -1 $134 $-1 $67 1 1 1 1 1 1 1 1 1 1 1 1 0 1 0 1 1 1 @17 NEW_SIMPLE_ATTRIB 1 @9 ENTITY_ID 0 3 27 -2147483648 -1 #
face $135 -1 -1 $-1 $136 $137 $30 $-1 $138 reversed single T -1.5 -1.5 -1.5 1.5 -1.5 1.5 F #
loop $-1 -1 -1 $-1 $-1 $139 $67 T -1.5 -1.5 -1.5 1.5 1.5 -1.5 unknown #
plane-surface $-1 -1 -1 $-1 0 0 -1.5 0 0 1 1 0 0 forward_v I I I I #
coedge $-1 -1 -1 $-1 $140 $141 $142 $143 forward $68 $-1 #
simple-snl-attrib $-1 -1 $144 $70 $46 1 1 1 1 1 1 1 1 1 1 1 1 0 1 0 1 1 1 @17 NEW_SIMPLE_ATTRIB 1 @9 ENTITY_ID 0 3 32 -2147483648 -1 #
simple-snl-attrib $-1 -1 $145 $-1 $73 1 1 1 1 1 1 1 1 1 1 1 1 0 1 0 1 1 1 @17 NEW_SIMPLE_ATTRIB 1 @9 UNIQUE_ID 1 0 1 1101359735 #
sphere-surface $-1 -1 -1 $-1 0 0 0 1 1 0 0 0 0 1 forward_v I I I I #
simple-snl-attrib $-1 -1 $146 $74 $49 1 1 1 1 1 1 1 1 1 1 1 1 0 1 0 1 1 1 @17 NEW_SIMPLE_ATTRIB 1 @9 ENTITY_ID 0 3 1 -2147483648 -1 #
simple-snl-attrib $-1 -1 $147 $76 $51 1 1 1 1 1 1 1 1 1 1 1 1 0 1 0 1 1 1 @17 NEW_SIMPLE_ATTRIB 1 @9 ENTITY_ID 0 3 1 -2147483648 -1 #
simple-snl-attrib $-1 -1 $148 $78 $37 1 1 1 1 1 1 1 1 1 1 1 1 0 1 0 1 1 1 @17 NEW_SIMPLE_ATTRIB 1 @13 MERGE_PARTNER 0 4 1167164538 -1 17 0 #
simple-snl-attrib $-1 -1 $149 $79 $53 1 1 1 1 1 1 1 1 1 1 1 1 0 1 0 1 1 1 @17 NEW_SIMPLE_ATTRIB 1 @9 ENTITY_ID 0 3 15 1257961216 1 #
coedge $-1 -1 -1 $-1 $111 $111 $81 $112 forward $80 $-1 #
edge $150 -1 -1 $-1 $151 -3.1415926535897931 $151 3.1415926535897931 $111 $152 forward @7 unknown T -1.002 -1.002 0 1.002 1.002 0 #
simple-snl-attrib $-1 -1 $153 $82 $39 1 1 1 1 1 1 1 1 1 1 1 1 0 1 0 1 1 1 @17 NEW_SIMPLE_ATTRIB 1 @13 MERGE_PARTNER 0 4 796678613 1 15 1 #
simple-snl-attrib $-1 -1 $154 $83 $57 1 1 1 1 1 1 1 1 1 1 1 1 0 1 0 1 1 1 @17 NEW_SIMPLE_ATTRIB 1 @9 ENTITY_ID 0 3 16 1257961216 0 #
simple-snl-attrib $-1 -1 $155 $-1 $84 1 1 1 1 1 1 1 1 1 1 1 1 0 1 0 1 1 1 @17 NEW_SIMPLE_ATTRIB 1 @9 UNIQUE_ID 1 0 1 1418728927 #
loop $-1 -1 -1 $-1 $-1 $156 $84 T -1.0029999999999999 -1.0029999999999999 0 1.0029999999999999 1.0029999999999999 0 unknown #
sphere-surface $-1 -1 -1 $-1 0 0 0 1.0029999999999999 1 0 0 0 0 1 forward_v I I I I #
loop $-1 -1 -1 $-1 $-1 $157 $57 T -1.0029999999999999 -1.0029999999999999 0 1.0029999999999999 1.0029999999999999 0 unknown #
coedge $-1 -1 -1 $-1 $119 $119 $87 $120 forward $85 $-1 #
edge $158 -1 -1 $-1 $159 -3.1415926535897931 $159 3.1415926535897931 $119 $160 forward @7 unknown T -1.002 -1.002 0 1.002 1.002 0 #
simple-snl-attrib $-1 -1 $161 $88 $41 1 1 1 1 1 1 1 1 1 1 1 1 0 1 0 1 1 1 @17 NEW_SIMPLE_ATTRIB 1 @13 MERGE_PARTNER 0 4 1167164538 1 17 1 #
simple-snl-attrib $-1 -1 $162 $89 $61 1 1 1 1 1 1 1 1 1 1 1 1 0 1 0 1 1 1 @17 NEW_SIMPLE_ATTRIB 1 @9 ENTITY_ID 0 3 16 1257961216 0 #
simple-snl-attrib $-1 -1 $163 $-1 $90 1 1 1 1 1 1 1 1 1 1 1 1 0 1 0 1 1 1 @17 NEW_SIMPLE_ATTRIB 1 @9 UNIQUE_ID 1 0 1 700455122 #
loop $-1 -1 -1 $-1 $-1 $164 $90 T -1.0029999999999999 -1.0029999999999999 0 1.0029999999999999 1.0029999999999999 0 unknown #
sphere-surface $-1 -1 -1 $-1 0 0 0 1.0029999999999999 1 0 -0 0 0 -1 reverse_v I I I I #
loop $-1 -1 -1 $-1 $-1 $165 $61 T -1.0029999999999999 -1.0029999999999999 0 1.0029999999999999 1.0029999999999999 0 unknown #
coedge $-1 -1 -1 $-1 $127 $127 $93 $128 reversed $91 $-1 #
edge $166 -1 -1 $-1 $167 -3.1415926535897931 $167 3.1415926535897931 $127 $168 forward @7 unknown T -1.002 -1.002 0 1.002 1.002 0 #
simple-snl-attrib $-1 -1 $169 $94 $65 1 1 1 1 1 1 1 1 1 1 1 1 0 1 0 1 1 1 @17 NEW_SIMPLE_ATTRIB 1 @9 ENTITY_ID 0 3 13 377931996 1 #
simple-snl-attrib $-1 -1 $170 $-1 $95 1 1 1 1 1 1 1 1 1 1 1 1 0 1 0 1 1 1 @17 NEW_SIMPLE_ATTRIB 1 @9 UNIQUE_ID 1 0 1 700455122 #
loop $-1 -1 -1 $-1 $-1 $171 $95 T -1.0029999999999999 -1.0029999999999999 0 1.0029999999999999 1.0029999999999999 0 unknown #
coedge $-1 -1 -1 $-1 $132 $132 $171 $172 reversed $96 $-1 #
simple-snl-attrib $-1 -1 $-1 $98 $44 1 1 1 1 1 1 1 1 1 1 1 1 0 1 0 1 1 1 @17 NEW_SIMPLE_ATTRIB 3 @13 MESH_INTERVAL @4 LIMP @4 LIMP 2 1 0 5 1 0 0 1 1 #
simple-snl-attrib $-1 -1 $173 $99 $67 1 1 1 1 1 1 1 1 1 1 1 1 0 1 0 1 1 1 @17 NEW_SIMPLE_ATTRIB 7 @16 GRAPHICS_OPTIONS @14 geometry color @10 mesh color @19 geometry visibility @15 mesh visibility @11 render mode @11 transparent 0 6 -1 -1 0 0 0 0 #
simple-snl-attrib $-1 -1 $174 $-1 $100 1 1 1 1 1 1 1 1 1 1 1 1 0 1 0 1 1 1 @17 NEW_SIMPLE_ATTRIB 1 @9 ENTITY_ID 0 3 28 -2147483648 -1 #
face $175 -1 -1 $-1 $176 $177 $30 $-1 $178 reversed single T -1.5 -1.5 -1.5 -1.5 1.5 1.5 F #
loop $-1 -1 -1 $-1 $-1 $179 $100 T -1.5 -1.5 -1.5 1.5 -1.5 1.5 unknown #
plane-surface $-1 -1 -1 $-1 0 -1.5 0 0 1 -0 -0 0 1 forward_v I I I I #
coedge $-1 -1 -1 $-1 $180 $181 $182 $183 forward $101 $-1 #
coedge $-1 -1 -1 $-1 $184 $103 $185 $186 forward $68 $-1 #
coedge $-1 -1 -1 $-1 $103 $184 $187 $188 forward $68 $-1 #
coedge $-1 -1 -1 $-1 $189 $190 $103 $143 reversed $191 $-1 #
edge $192 -1 -1 $-1 $193 -1.5 $194 1.5 $142 $195 forward @7 unknown T 1.5 -1.5 1.5 1.5 1.5 1.5 #
simple-snl-attrib $-1 -1 $196 $104 $46 1 1 1 1 1 1 1 1 1 1 1 1 0 1 0 1 1 1 @17 NEW_SIMPLE_ATTRIB 1 @13 MERGE_PARTNER 0 4 1101359735 1 32 1 #
simple-snl-attrib $-1 -1 $197 $105 $73 1 1 1 1 1 1 1 1 1 1 1 1 0 1 0 1 1 1 @17 NEW_SIMPLE_ATTRIB 1 @9 ENTITY_ID 0 3 32 -2147483648 -1 #
simple-snl-attrib $-1 -1 $198 $107 $49 1 1 1 1 1 1 1 1 1 1 1 1 0 1 0 1 1 1 @17 NEW_SIMPLE_ATTRIB 1 @13 MERGE_PARTNER 0 4 1447405783 -1 33 0 #
simple-snl-attrib $-1 -1 $199 $108 $51 1 1 1 1 1 1 1 1 1 1 1 1 0 1 0 1 1 1 @17 NEW_SIMPLE_ATTRIB 1 @13 MERGE_PARTNER 0 4 1447405783 1 4 1 #
simple-snl-attrib $-1 -1 $-1 $109 $37 1 1 1 1 1 1 1 1 1 1 1 1 0 1 0 1 1 1 @17 NEW_SIMPLE_ATTRIB 3 @13 MESH_INTERVAL @4 LIMP @4 LIMP 2 1 0 5 1 0 0 1 1 #
simple-snl-attrib $-1 -1 $200 $110 $53 1 1 1 1 1 1 1 1 1 1 1 1 0 1 0 1 1 1 @17 NEW_SIMPLE_ATTRIB 1 @13 MERGE_PARTNER 0 4 796678613 -1 15 0 #
simple-snl-attrib $-1 -1 $201 $-1 $112 1 1 1 1 1 1 1 1 1 1 1 1 0 1 0 1 1 1 @17 NEW_SIMPLE_ATTRIB 1 @9 UNIQUE_ID 1 0 1 1257961216 #
vertex $202 -1 -1 $-1 $112 $203 #
ellipse-curve $-1 -1 -1 $-1 0 0 0 0 0 1 0 -1.002 0 1 I I #
simple-snl-attrib $-1 -1 $-1 $113 $39 1 1 1 1 1 1 1 1 1 1 1 1 0 1 0 1 1 1 @17 NEW_SIMPLE_ATTRIB 3 @13 MESH_INTERVAL @4 LIMP @4 LIMP 2 1 0 5 1 0 0 1 1 #
simple-snl-attrib $-1 -1 $204 $114 $57 1 1 1 1 1 1 1 1 1 1 1 1 0 1 0 1 1 1 @17 NEW_SIMPLE_ATTRIB 1 @13 MERGE_PARTNER 0 4 516095916 1 16 1 #
simple-snl-attrib $-1 -1 $205 $115 $84 1 1 1 1 1 1 1 1 1 1 1 1 0 1 0 1 1 1 @17 NEW_SIMPLE_ATTRIB 1 @9 ENTITY_ID 0 3 13 377931996 1 #
coedge $-1 -1 -1 $-1 $156 $156 $157 $206 reversed $116 $-1 #
coedge $-1 -1 -1 $-1 $157 $157 $156 $206 forward $118 $-1 #
simple-snl-attrib $-1 -1 $207 $-1 $120 1 1 1 1 1 1 1 1 1 1 1 1 0 1 0 1 1 1 @17 NEW_SIMPLE_ATTRIB 1 @9 UNIQUE_ID 1 0 1 1257961216 #
vertex $208 -1 -1 $-1 $120 $209 #
ellipse-curve $-1 -1 -1 $-1 0 0 0 0 0 1 0 -1.002 0 1 I I #
simple-snl-attrib $-1 -1 $-1 $121 $41 1 1 1 1 1 1 1 1 1 1 1 1 0 1 0 1 1 1 @17 NEW_SIMPLE_ATTRIB 3 @13 MESH_INTERVAL @4 LIMP @4 LIMP 2 1 0 5 1 0 0 1 1 #
simple-snl-attrib $-1 -1 $210 $122 $61 1 1 1 1 1 1 1 1 1 1 1 1 0 1 0 1 1 1 @17 NEW_SIMPLE_ATTRIB 1 @13 MERGE_PARTNER 0 4 516095916 -1 18 0 #
simple-snl-attrib $-1 -1 $211 $123 $90 1 1 1 1 1 1 1 1 1 1 1 1 0 1 0 1 1 1 @17 NEW_SIMPLE_ATTRIB 1 @9 ENTITY_ID 0 3 19 377931996 0 #
coedge $-1 -1 -1 $-1 $164 $164 $165 $212 forward $124 $-1 #
coedge $-1 -1 -1 $-1 $165 $165 $164 $212 reversed $126 $-1 #
simple-snl-attrib $-1 -1 $213 $-1 $128 1 1 1 1 1 1 1 1 1 1 1 1 0 1 0 1 1 1 @17 NEW_SIMPLE_ATTRIB 1 @9 UNIQUE_ID 1 0 1 1257961216 #
vertex $214 -1 -1 $-1 $128 $215 #
ellipse-curve $-1 -1 -1 $-1 0 0 0 -0 -0 1 0 -1.002 0 1 I I #
simple-snl-attrib $-1 -1 $216 $129 $65 1 1 1 1 1 1 1 1 1 1 1 1 0 1 0 1 1 1 @17 NEW_SIMPLE_ATTRIB 2 @5 GROUP @22 tally_1_surf.current_n 0 7 1 5 950576140 1 0 0 0 #
simple-snl-attrib $-1 -1 $217 $130 $95 1 1 1 1 1 1 1 1 1 1 1 1 0 1 0 1 1 1 @17 NEW_SIMPLE_ATTRIB 1 @9 ENTITY_ID 0 3 19 377931996 0 #
coedge $-1 -1 -1 $-1 $171 $171 $132 $172 forward $131 $-1 #
edge $218 -1 -1 $-1 $219 0 $219 6.2831853071795862 $171 $220 forward @7 unknown T -1.0029999999999999 -1.0029999999999999 0 1.0029999999999999 1.0029999999999999 0 #
simple-snl-attrib $-1 -1 $-1 $134 $67 1 1 1 1 1 1 1 1 1 1 1 1 0 1 0 1 1 1 @17 NEW_SIMPLE_ATTRIB 3 @13 MESH_INTERVAL @4 LIMP @4 LIMP 2 1 0 5 1 0 0 1 1 #
simple-snl-attrib $-1 -1 $221 $135 $100 1 1 1 1 1 1 1 1 1 1 1 1 0 1 0 1 1 1 @17 NEW_SIMPLE_ATTRIB 7 @16 GRAPHICS_OPTIONS @14 geometry color @10 mesh color @19 geometry visibility @15 mesh visibility @11 render mode @11 transparent 0 6 -1 -1 0 0 0 0 #
simple-snl-attrib $-1 -1 $222 $-1 $136 1 1 1 1 1 1 1 1 1 1 1 1 0 1 0 1 1 1 @17 NEW_SIMPLE_ATTRIB 1 @9 ENTITY_ID 0 3 29 -2147483648 -1 #
face $223 -1 -1 $-1 $224 $225 $30 $-1 $226 reversed single T -1.5 1.5 -1.5 1.5 1.5 1.5 F #
loop $-1 -1 -1 $-1 $-1 $227 $136 T -1.5 -1.5 -1.5 -1.5 1.5 1.5 unknown #
plane-surface $-1 -1 -1 $-1 -1.5 0 0 1 0 0 0 0 -1 forward_v I I I I #
coedge $-1 -1 -1 $-1 $228 $187 $229 $230 forward $137 $-1 #
coedge $-1 -1 -1 $-1 $231 $139 $228 $232 forward $101 $-1 #
coedge $-1 -1 -1 $-1 $139 $231 $233 $234 forward $101 $-1 #
coedge $-1 -1 -1 $-1 $190 $189 $139 $183 reversed $191 $-1 #
edge $235 -1 -1 $-1 $236 -1.5 $237 1.5 $182 $238 forward @7 unknown T 1.5 -1.5 -1.5 1.5 1.5 -1.5 #
coedge $-1 -1 -1 $-1 $141 $140 $239 $240 forward $68 $-1 #
coedge $-1 -1 -1 $-1 $241 $242 $140 $186 reversed $225 $-1 #
edge $243 -1 -1 $-1 $194 -1.5 $244 1.5 $185 $245 forward @7 unknown T -1.5 1.5 1.5 1.5 1.5 1.5 #
coedge $-1 -1 -1 $-1 $179 $246 $141 $188 reversed $137 $-1 #
edge $247 -1 -1 $-1 $248 -1.5 $193 1.5 $187 $249 forward @7 unknown T -1.5 -1.5 1.5 1.5 -1.5 1.5 #
coedge $-1 -1 -1 $-1 $182 $142 $246 $250 forward $191 $-1 #
coedge $-1 -1 -1 $-1 $142 $182 $241 $251 reversed $191 $-1 #
loop $-1 -1 -1 $-1 $-1 $189 $224 T 1.5 -1.5 -1.5 1.5 1.5 1.5 unknown #
simple-snl-attrib $-1 -1 $252 $-1 $143 1 1 1 1 1 1 1 1 1 1 1 1 0 1 0 1 1 1 @17 NEW_SIMPLE_ATTRIB 1 @9 ENTITY_ID 0 3 29 -2147483648 -1 #
vertex $253 -1 -1 $-1 $143 $254 #
vertex $255 -1 -1 $-1 $143 $256 #
straight-curve $-1 -1 -1 $-1 1.5 0 1.5 0 1 0 I I #
simple-snl-attrib $-1 -1 $-1 $144 $46 1 1 1 1 1 1 1 1 1 1 1 1 0 1 0 1 1 1 @17 NEW_SIMPLE_ATTRIB 3 @13 MESH_INTERVAL @4 LIMP @4 LIMP 2 1 0 5 1 0 0 1 1 #
simple-snl-attrib $-1 -1 $257 $145 $73 1 1 1 1 1 1 1 1 1 1 1 1 0 1 0 1 1 1 @17 NEW_SIMPLE_ATTRIB 1 @13 MERGE_PARTNER 0 4 1101359735 -1 34 0 #
simple-snl-attrib $-1 -1 $-1 $146 $49 1 1 1 1 1 1 1 1 1 1 1 1 0 1 0 1 1 1 @17 NEW_SIMPLE_ATTRIB 3 @13 MESH_INTERVAL @4 LIMP @4 LIMP 2 1 0 5 1 0 0 1 1 #
simple-snl-attrib $-1 -1 $-1 $147 $51 1 1 1 1 1 1 1 1 1 1 1 1 0 1 0 1 1 1 @17 NEW_SIMPLE_ATTRIB 3 @13 MESH_INTERVAL @4 LIMP @4 LIMP 2 1 0 5 1 0 0 1 1 #
simple-snl-attrib $-1 -1 $-1 $149 $53 1 1 1 1 1 1 1 1 1 1 1 1 0 1 0 1 1 1 @17 NEW_SIMPLE_ATTRIB 3 @13 MESH_INTERVAL @4 LIMP @4 LIMP 2 1 0 5 1 0 0 1 1 #
simple-snl-attrib $-1 -1 $258 $150 $112 1 1 1 1 1 1 1 1 1 1 1 1 0 1 0 1 1 1 @17 NEW_SIMPLE_ATTRIB 1 @9 ENTITY_ID 3 -0.86775745459200748 -0.50099999999999989 0 3 14 312676816 0 #
simple-snl-attrib $-1 -1 $259 $-1 $151 1 1 1 1 1 1 1 1 1 1 1 1 0 1 0 1 1 1 @17 NEW_SIMPLE_ATTRIB 1 @9 UNIQUE_ID 1 0 1 312676816 #
point $-1 -1 -1 $-1 -1.2270960927456477e-16 1.002 0 #
simple-snl-attrib $-1 -1 $-1 $154 $57 1 1 1 1 1 1 1 1 1 1 1 1 0 1 0 1 1 1 @17 NEW_SIMPLE_ATTRIB 3 @13 MESH_INTERVAL @4 LIMP @4 LIMP 2 1 0 5 1 0 0 1 1 #
simple-snl-attrib $-1 -1 $260 $155 $84 1 1 1 1 1 1 1 1 1 1 1 1 0 1 0 1 1 1 @17 NEW_SIMPLE_ATTRIB 2 @5 GROUP @22 tally_1_surf.current_n 0 7 1 5 950576140 1 0 0 0 #
edge $261 -1 -1 $-1 $262 0 $262 6.2831853071795862 $156 $263 forward @7 unknown T -1.0029999999999999 -1.0029999999999999 0 1.0029999999999999 1.0029999999999999 0 #
simple-snl-attrib $-1 -1 $264 $158 $120 1 1 1 1 1 1 1 1 1 1 1 1 0 1 0 1 1 1 @17 NEW_SIMPLE_ATTRIB 1 @9 ENTITY_ID 3 -0.86775745459200748 -0.50099999999999989 0 3 14 312676816 0 #
simple-snl-attrib $-1 -1 $265 $-1 $159 1 1 1 1 1 1 1 1 1 1 1 1 0 1 0 1 1 1 @17 NEW_SIMPLE_ATTRIB 1 @9 UNIQUE_ID 1 0 1 312676816 #
point $-1 -1 -1 $-1 -1.2270960927456477e-16 1.002 0 #
simple-snl-attrib $-1 -1 $-1 $162 $61 1 1 1 1 1 1 1 1 1 1 1 1 0 1 0 1 1 1 @17 NEW_SIMPLE_ATTRIB 3 @13 MESH_INTERVAL @4 LIMP @4 LIMP 2 1 0 5 1 0 0 1 1 #
simple-snl-attrib $-1 -1 $266 $163 $90 1 1 1 1 1 1 1 1 1 1 1 1 0 1 0 1 1 1 @17 NEW_SIMPLE_ATTRIB 2 @5 GROUP @22 tally_1_surf.current_n 0 7 1 5 950576140 0 0 0 0 #
edge $267 -1 -1 $-1 $268 0 $268 6.2831853071795862 $164 $269 forward @7 unknown T -1.0029999999999999 -1.0029999999999999 0 1.0029999999999999 1.0029999999999999 0 #
simple-snl-attrib $-1 -1 $270 $166 $128 1 1 1 1 1 1 1 1 1 1 1 1 0 1 0 1 1 1 @17 NEW_SIMPLE_ATTRIB 1 @9 ENTITY_ID 3 -0.86775745459200748 -0.50099999999999989 0 3 14 312676816 0 #
simple-snl-attrib $-1 -1 $271 $-1 $167 1 1 1 1 1 1 1 1 1 1 1 1 0 1 0 1 1 1 @17 NEW_SIMPLE_ATTRIB 1 @9 UNIQUE_ID 1 0 1 312676816 #
point $-1 -1 -1 $-1 -1.2270960927456477e-16 1.002 0 #
simple-snl-attrib $-1 -1 $272 $169 $65 1 1 1 1 1 1 1 1 1 1 1 1 0 1 0 1 1 1 @17 NEW_SIMPLE_ATTRIB 1 @13 MERGE_PARTNER 0 4 1418728927 -1 35 0 #
simple-snl-attrib $-1 -1 $273 $170 $95 1 1 1 1 1 1 1 1 1 1 1 1 0 1 0 1 1 1 @17 NEW_SIMPLE_ATTRIB 2 @5 GROUP @22 tally_1_surf.current_n 0 7 1 5 950576140 0 0 0 0 #
simple-snl-attrib $-1 -1 $274 $-1 $172 1 1 1 1 1 1 1 1 1 1 1 1 0 1 0 1 1 1 @17 NEW_SIMPLE_ATTRIB 1 @9 UNIQUE_ID 1 0 1 377931996 #
vertex $275 -1 -1 $-1 $172 $276 #
ellipse-curve $-1 -1 -1 $-1 0 0 0 0 0 1 0 -1.0029999999999999 0 1 I I #
simple-snl-attrib $-1 -1 $-1 $174 $100 1 1 1 1 1 1 1 1 1 1 1 1 0 1 0 1 1 1 @17 NEW_SIMPLE_ATTRIB 3 @13 MESH_INTERVAL @4 LIMP @4 LIMP 2 1 0 5 1 0 0 1 1 #
simple-snl-attrib $-1 -1 $277 $175 $136 1 1 1 1 1 1 1 1 1 1 1 1 0 1 0 1 1 1 @17 NEW_SIMPLE_ATTRIB 7 @16 GRAPHICS_OPTIONS @14 geometry color @10 mesh color @19 geometry visibility @15 mesh visibility @11 render mode @11 transparent 0 6 -1 -1 0 0 0 0 #
simple-snl-attrib $-1 -1 $278 $-1 $176 1 1 1 1 1 1 1 1 1 1 1 1 0 1 0 1 1 1 @17 NEW_SIMPLE_ATTRIB 1 @9 ENTITY_ID 0 3 30 -2147483648 -1 #
face $279 -1 -1 $-1 $-1 $191 $30 $-1 $280 reversed single T 1.5 -1.5 -1.5 1.5 1.5 1.5 F #
loop $-1 -1 -1 $-1 $-1 $241 $176 T -1.5 1.5 -1.5 1.5 1.5 1.5 unknown #
plane-surface $-1 -1 -1 $-1 0 1.5 0 0 -1 0 0 0 -1 forward_v I I I I #
coedge $-1 -1 -1 $-1 $281 $239 $242 $282 forward $177 $-1 #
coedge $-1 -1 -1 $-1 $246 $179 $180 $232 reversed $137 $-1 #
coedge $-1 -1 -1 $-1 $239 $281 $179 $230 reversed $177 $-1 #
edge $283 -1 -1 $-1 $248 -1.5 $284 1.5 $229 $285 forward @7 unknown T -1.5 -1.5 -1.5 -1.5 -1.5 1.5 #
coedge $-1 -1 -1 $-1 $181 $180 $281 $286 forward $101 $-1 #
edge $287 -1 -1 $-1 $237 -1.5 $284 1.5 $228 $288 forward @7 unknown T -1.5 -1.5 -1.5 1.5 -1.5 -1.5 #
coedge $-1 -1 -1 $-1 $242 $241 $181 $234 reversed $225 $-1 #
edge $289 -1 -1 $-1 $290 -1.5 $236 1.5 $233 $291 forward @7 unknown T -1.5 1.5 -1.5 1.5 1.5 -1.5 #
simple-snl-attrib $-1 -1 $292 $-1 $183 1 1 1 1 1 1 1 1 1 1 1 1 0 1 0 1 1 1 @17 NEW_SIMPLE_ATTRIB 1 @9 ENTITY_ID 0 3 33 -2147483648 -1 #
vertex $293 -1 -1 $-1 $183 $294 #
vertex $295 -1 -1 $-1 $250 $296 #
straight-curve $-1 -1 -1 $-1 1.5 0 -1.5 0 -1 0 I I #
coedge $-1 -1 -1 $-1 $227 $229 $184 $240 reversed $177 $-1 #
edge $297 -1 -1 $-1 $244 -1.5 $248 1.5 $239 $298 forward @7 unknown T -1.5 -1.5 1.5 -1.5 1.5 1.5 #
coedge $-1 -1 -1 $-1 $233 $185 $190 $251 forward $225 $-1 #
coedge $-1 -1 -1 $-1 $185 $233 $227 $282 reversed $225 $-1 #
simple-snl-attrib $-1 -1 $299 $-1 $186 1 1 1 1 1 1 1 1 1 1 1 1 0 1 0 1 1 1 @17 NEW_SIMPLE_ATTRIB 1 @9 ENTITY_ID 0 3 30 -2147483648 -1 #
vertex $300 -1 -1 $-1 $186 $301 #
straight-curve $-1 -1 -1 $-1 0 1.5 1.5 -1 0 0 I I #
coedge $-1 -1 -1 $-1 $187 $228 $189 $250 reversed $137 $-1 #
simple-snl-attrib $-1 -1 $302 $-1 $188 1 1 1 1 1 1 1 1 1 1 1 1 0 1 0 1 1 1 @17 NEW_SIMPLE_ATTRIB 1 @9 ENTITY_ID 0 3 32 -2147483648 -1 #
vertex $303 -1 -1 $-1 $240 $304 #
straight-curve $-1 -1 -1 $-1 0 -1.5 1.5 1 0 0 I I #
edge $305 -1 -1 $-1 $193 -1.5 $237 1.5 $189 $306 forward @7 unknown T 1.5 -1.5 -1.5 1.5 -1.5 1.5 #
edge $307 -1 -1 $-1 $194 -1.5 $236 1.5 $190 $308 forward @7 unknown T 1.5 1.5 -1.5 1.5 1.5 1.5 #
simple-snl-attrib $-1 -1 $-1 $192 $143 1 1 1 1 1 1 1 1 1 1 1 1 0 1 0 1 1 1 @17 NEW_SIMPLE_ATTRIB 7 @16 GRAPHICS_OPTIONS @14 geometry color @10 mesh color @19 geometry visibility @15 mesh visibility @11 render mode @11 transparent 0 6 -1 -1 0 0 0 0 #
simple-snl-attrib $-1 -1 $309 $-1 $193 1 1 1 1 1 1 1 1 1 1 1 1 0 1 0 1 1 1 @17 NEW_SIMPLE_ATTRIB 1 @9 ENTITY_ID 0 3 21 -2147483648 -1 #
point $-1 -1 -1 $-1 1.5 -1.5 1.5 #
simple-snl-attrib $-1 -1 $310 $-1 $194 1 1 1 1 1 1 1 1 1 1 1 1 0 1 0 1 1 1 @17 NEW_SIMPLE_ATTRIB 1 @9 ENTITY_ID 0 3 22 -2147483648 -1 #
point $-1 -1 -1 $-1 1.5 1.5 1.5 #
simple-snl-attrib $-1 -1 $-1 $197 $73 1 1 1 1 1 1 1 1 1 1 1 1 0 1 0 1 1 1 @17 NEW_SIMPLE_ATTRIB 3 @13 MESH_INTERVAL @4 LIMP @4 LIMP 2 1 0 5 1 0 0 1 1 #
simple-snl-attrib $-1 -1 $-1 $201 $112 1 1 1 1 1 1 1 1 1 1 1 1 0 1 0 1 1 1 @17 NEW_SIMPLE_ATTRIB 1 @13 MERGE_PARTNER 0 4 1257961216 1 14 0 #
simple-snl-attrib $-1 -1 $311 $202 $151 1 1 1 1 1 1 1 1 1 1 1 1 0 1 0 1 1 1 @17 NEW_SIMPLE_ATTRIB 1 @9 ENTITY_ID 0 3 10 -2147483648 -1 #
simple-snl-attrib $-1 -1 $312 $205 $84 1 1 1 1 1 1 1 1 1 1 1 1 0 1 0 1 1 1 @17 NEW_SIMPLE_ATTRIB 1 @13 MERGE_PARTNER 0 4 1418728927 1 13 1 #
simple-snl-attrib $-1 -1 $313 $-1 $206 1 1 1 1 1 1 1 1 1 1 1 1 0 1 0 1 1 1 @17 NEW_SIMPLE_ATTRIB 1 @9 UNIQUE_ID 1 0 1 377931996 #
vertex $314 -1 -1 $-1 $206 $315 #
ellipse-curve $-1 -1 -1 $-1 0 0 0 -0 -0 -1 0 -1.0029999999999999 0 1 I I #
simple-snl-attrib $-1 -1 $-1 $207 $120 1 1 1 1 1 1 1 1 1 1 1 1 0 1 0 1 1 1 @17 NEW_SIMPLE_ATTRIB 1 @13 MERGE_PARTNER 0 4 1257961216 1 14 1 #
simple-snl-attrib $-1 -1 $316 $208 $159 1 1 1 1 1 1 1 1 1 1 1 1 0 1 0 1 1 1 @17 NEW_SIMPLE_ATTRIB 1 @9 ENTITY_ID 0 3 10 -2147483648 -1 #
simple-snl-attrib $-1 -1 $317 $211 $90 1 1 1 1 1 1 1 1 1 1 1 1 0 1 0 1 1 1 @17 NEW_SIMPLE_ATTRIB 1 @13 MERGE_PARTNER 0 4 700455122 1 19 1 #
simple-snl-attrib $-1 -1 $318 $-1 $212 1 1 1 1 1 1 1 1 1 1 1 1 0 1 0 1 1 1 @17 NEW_SIMPLE_ATTRIB 1 @9 UNIQUE_ID 1 0 1 377931996 #
vertex $319 -1 -1 $-1 $212 $320 #
ellipse-curve $-1 -1 -1 $-1 0 0 0 -0 -0 -1 0 -1.0029999999999999 0 1 I I #
simple-snl-attrib $-1 -1 $-1 $213 $128 1 1 1 1 1 1 1 1 1 1 1 1 0 1 0 1 1 1 @17 NEW_SIMPLE_ATTRIB 1 @13 MERGE_PARTNER 0 4 1257961216 1 15 0 #
simple-snl-attrib $-1 -1 $321 $214 $167 1 1 1 1 1 1 1 1 1 1 1 1 0 1 0 1 1 1 @17 NEW_SIMPLE_ATTRIB 1 @9 ENTITY_ID 0 3 10 -2147483648 -1 #
simple-snl-attrib $-1 -1 $-1 $216 $65 1 1 1 1 1 1 1 1 1 1 1 1 0 1 0 1 1 1 @17 NEW_SIMPLE_ATTRIB 3 @13 MESH_INTERVAL @4 LIMP @4 LIMP 2 1 0 5 1 0 0 1 1 #
simple-snl-attrib $-1 -1 $322 $217 $95 1 1 1 1 1 1 1 1 1 1 1 1 0 1 0 1 1 1 @17 NEW_SIMPLE_ATTRIB 1 @13 MERGE_PARTNER 0 4 700455122 -1 36 0 #
simple-snl-attrib $-1 -1 $323 $218 $172 1 1 1 1 1 1 1 1 1 1 1 1 0 1 0 1 1 1 @17 NEW_SIMPLE_ATTRIB 1 @9 ENTITY_ID 3 -0.86862347999579181 0.50149999999999972 0 3 13 1265517741 0 #
simple-snl-attrib $-1 -1 $324 $-1 $219 1 1 1 1 1 1 1 1 1 1 1 1 0 1 0 1 1 1 @17 NEW_SIMPLE_ATTRIB 1 @9 UNIQUE_ID 1 0 1 1265517741 #
point $-1 -1 -1 $-1 0 -1.0029999999999999 0 #
simple-snl-attrib $-1 -1 $-1 $222 $136 1 1 1 1 1 1 1 1 1 1 1 1 0 1 0 1 1 1 @17 NEW_SIMPLE_ATTRIB 3 @13 MESH_INTERVAL @4 LIMP @4 LIMP 2 1 0 5 1 0 0 1 1 #
simple-snl-attrib $-1 -1 $325 $223 $176 1 1 1 1 1 1 1 1 1 1 1 1 0 1 0 1 1 1 @17 NEW_SIMPLE_ATTRIB 7 @16 GRAPHICS_OPTIONS @14 geometry color @10 mesh color @19 geometry visibility @15 mesh visibility @11 render mode @11 transparent 0 6 -1 -1 0 0 0 0 #
simple-snl-attrib $-1 -1 $326 $-1 $224 1 1 1 1 1 1 1 1 1 1 1 1 0 1 0 1 1 1 @17 NEW_SIMPLE_ATTRIB 1 @9 ENTITY_ID 0 3 31 -2147483648 -1 #
plane-surface $-1 -1 -1 $-1 1.5 0 0 -1 0 0 0 -0 1 forward_v I I I I #
coedge $-1 -1 -1 $-1 $229 $227 $231 $286 reversed $177 $-1 #
edge $327 -1 -1 $-1 $244 -1.5 $290 1.5 $242 $328 forward @7 unknown T -1.5 1.5 -1.5 -1.5 1.5 1.5 #
simple-snl-attrib $-1 -1 $329 $-1 $230 1 1 1 1 1 1 1 1 1 1 1 1 0 1 0 1 1 1 @17 NEW_SIMPLE_ATTRIB 1 @9 ENTITY_ID 0 3 37 -2147483648 -1 #
vertex $330 -1 -1 $-1 $286 $331 #
straight-curve $-1 -1 -1 $-1 -1.5 -1.5 0 0 0 -1 I I #
edge $332 -1 -1 $-1 $284 -1.5 $290 1.5 $281 $333 forward @7 unknown T -1.5 -1.5 -1.5 -1.5 1.5 -1.5 #
simple-snl-attrib $-1 -1 $334 $-1 $232 1 1 1 1 1 1 1 1 1 1 1 1 0 1 0 1 1 1 @17 NEW_SIMPLE_ATTRIB 1 @9 ENTITY_ID 0 3 34 -2147483648 -1 #
straight-curve $-1 -1 -1 $-1 0 -1.5 -1.5 -1 0 0 I I #
simple-snl-attrib $-1 -1 $335 $-1 $234 1 1 1 1 1 1 1 1 1 1 1 1 0 1 0 1 1 1 @17 NEW_SIMPLE_ATTRIB 1 @9 ENTITY_ID 0 3 36 -2147483648 -1 #
vertex $336 -1 -1 $-1 $234 $337 #
straight-curve $-1 -1 -1 $-1 0 1.5 -1.5 1 0 0 I I #
simple-snl-attrib $-1 -1 $-1 $235 $183 1 1 1 1 1 1 1 1 1 1 1 1 0 1 0 1 1 1 @17 NEW_SIMPLE_ATTRIB 7 @16 GRAPHICS_OPTIONS @14 geometry color @10 mesh color @19 geometry visibility @15 mesh visibility @11 render mode @11 transparent 0 6 -1 -1 0 0 0 0 #
simple-snl-attrib $-1 -1 $338 $-1 $236 1 1 1 1 1 1 1 1 1 1 1 1 0 1 0 1 1 1 @17 NEW_SIMPLE_ATTRIB 1 @9 ENTITY_ID 0 3 25 -2147483648 -1 #
point $-1 -1 -1 $-1 1.5 1.5 -1.5 #
simple-snl-attrib $-1 -1 $339 $-1 $237 1 1 1 1 1 1 1 1 1 1 1 1 0 1 0 1 1 1 @17 NEW_SIMPLE_ATTRIB 1 @9 ENTITY_ID 0 3 26 -2147483648 -1 #
point $-1 -1 -1 $-1 1.5 -1.5 -1.5 #
simple-snl-attrib $-1 -1 $340 $-1 $240 1 1 1 1 1 1 1 1 1 1 1 1 0 1 0 1 1 1 @17 NEW_SIMPLE_ATTRIB 1 @9 ENTITY_ID 0 3 31 -2147483648 -1 #
straight-curve $-1 -1 -1 $-1 -1.5 0 1.5 0 -1 0 I I #
simple-snl-attrib $-1 -1 $-1 $243 $186 1 1 1 1 1 1 1 1 1 1 1 1 0 1 0 1 1 1 @17 NEW_SIMPLE_ATTRIB 7 @16 GRAPHICS_OPTIONS @14 geometry color @10 mesh color @19 geometry visibility @15 mesh visibility @11 render mode @11 transparent 0 6 -1 -1 0 0 0 0 #
simple-snl-attrib $-1 -1 $341 $-1 $244 1 1 1 1 1 1 1 1 1 1 1 1 0 1 0 1 1 1 @17 NEW_SIMPLE_ATTRIB 1 @9 ENTITY_ID 0 3 23 -2147483648 -1 #
point $-1 -1 -1 $-1 -1.5 1.5 1.5 #
simple-snl-attrib $-1 -1 $-1 $247 $188 1 1 1 1 1 1 1 1 1 1 1 1 0 1 0 1 1 1 @17 NEW_SIMPLE_ATTRIB 7 @16 GRAPHICS_OPTIONS @14 geometry color @10 mesh color @19 geometry visibility @15 mesh visibility @11 render mode @11 transparent 0 6 -1 -1 0 0 0 0 #
simple-snl-attrib $-1 -1 $342 $-1 $248 1 1 1 1 1 1 1 1 1 1 1 1 0 1 0 1 1 1 @17 NEW_SIMPLE_ATTRIB 1 @9 ENTITY_ID 0 3 24 -2147483648 -1 #
point $-1 -1 -1 $-1 -1.5 -1.5 1.5 #
simple-snl-attrib $-1 -1 $343 $-1 $250 1 1 1 1 1 1 1 1 1 1 1 1 0 1 0 1 1 1 @17 NEW_SIMPLE_ATTRIB 1 @9 ENTITY_ID 0 3 38 -2147483648 -1 #
straight-curve $-1 -1 -1 $-1 1.5 -1.5 0 0 0 -1 I I #
simple-snl-attrib $-1 -1 $344 $-1 $251 1 1 1 1 1 1 1 1 1 1 1 1 0 1 0 1 1 1 @17 NEW_SIMPLE_ATTRIB 1 @9 ENTITY_ID 0 3 40 -2147483648 -1 #
straight-curve $-1 -1 -1 $-1 1.5 1.5 0 0 0 -1 I I #
simple-snl-attrib $-1 -1 $-1 $253 $193 1 1 1 1 1 1 1 1 1 1 1 1 0 1 0 1 1 1 @17 NEW_SIMPLE_ATTRIB 7 @16 GRAPHICS_OPTIONS @14 geometry color @10 mesh color @19 geometry visibility @15 mesh visibility @11 render mode @11 transparent 0 6 -1 -1 0 0 0 0 #
simple-snl-attrib $-1 -1 $-1 $255 $194 1 1 1 1 1 1 1 1 1 1 1 1 0 1 0 1 1 1 @17 NEW_SIMPLE_ATTRIB 7 @16 GRAPHICS_OPTIONS @14 geometry color @10 mesh color @19 geometry visibility @15 mesh visibility @11 render mode @11 transparent 0 6 -1 -1 0 0 0 0 #
simple-snl-attrib $-1 -1 $-1 $259 $151 1 1 1 1 1 1 1 1 1 1 1 1 0 1 0 1 1 1 @17 NEW_SIMPLE_ATTRIB 1 @13 MERGE_PARTNER 0 4 312676816 1 10 0 #
simple-snl-attrib $-1 -1 $-1 $260 $84 1 1 1 1 1 1 1 1 1 1 1 1 0 1 0 1 1 1 @17 NEW_SIMPLE_ATTRIB 3 @13 MESH_INTERVAL @4 LIMP @4 LIMP 2 1 0 5 1 0 0 1 1 #
simple-snl-attrib $-1 -1 $345 $261 $206 1 1 1 1 1 1 1 1 1 1 1 1 0 1 0 1 1 1 @17 NEW_SIMPLE_ATTRIB 1 @9 ENTITY_ID 3 -0.86862347999579181 0.50149999999999972 0 3 13 1265517741 0 #
simple-snl-attrib $-1 -1 $346 $-1 $262 1 1 1 1 1 1 1 1 1 1 1 1 0 1 0 1 1 1 @17 NEW_SIMPLE_ATTRIB 1 @9 UNIQUE_ID 1 0 1 1265517741 #
point $-1 -1 -1 $-1 0 -1.0029999999999999 0 #
simple-snl-attrib $-1 -1 $-1 $265 $159 1 1 1 1 1 1 1 1 1 1 1 1 0 1 0 1 1 1 @17 NEW_SIMPLE_ATTRIB 1 @13 MERGE_PARTNER 0 4 312676816 1 10 1 #
simple-snl-attrib $-1 -1 $-1 $266 $90 1 1 1 1 1 1 1 1 1 1 1 1 0 1 0 1 1 1 @17 NEW_SIMPLE_ATTRIB 3 @13 MESH_INTERVAL @4 LIMP @4 LIMP 2 1 0 5 1 0 0 1 1 #
simple-snl-attrib $-1 -1 $347 $267 $212 1 1 1 1 1 1 1 1 1 1 1 1 0 1 0 1 1 1 @17 NEW_SIMPLE_ATTRIB 1 @9 ENTITY_ID 3 -0.86862347999579181 0.50149999999999972 0 3 13 1265517741 0 #
simple-snl-attrib $-1 -1 $348 $-1 $268 1 1 1 1 1 1 1 1 1 1 1 1 0 1 0 1 1 1 @17 NEW_SIMPLE_ATTRIB 1 @9 UNIQUE_ID 1 0 1 1265517741 #
point $-1 -1 -1 $-1 0 -1.0029999999999999 0 #
simple-snl-attrib $-1 -1 $-1 $271 $167 1 1 1 1 1 1 1 1 1 1 1 1 0 1 0 1 1 1 @17 NEW_SIMPLE_ATTRIB 1 @13 MERGE_PARTNER 0 4 312676816 1 11 0 #
simple-snl-attrib $-1 -1 $-1 $273 $95 1 1 1 1 1 1 1 1 1 1 1 1 0 1 0 1 1 1 @17 NEW_SIMPLE_ATTRIB 3 @13 MESH_INTERVAL @4 LIMP @4 LIMP 2 1 0 5 1 0 0 1 1 #
simple-snl-attrib $-1 -1 $-1 $274 $172 1 1 1 1 1 1 1 1 1 1 1 1 0 1 0 1 1 1 @17 NEW_SIMPLE_ATTRIB 1 @13 MERGE_PARTNER 0 4 377931996 -1 42 0 #
simple-snl-attrib $-1 -1 $349 $275 $219 1 1 1 1 1 1 1 1 1 1 1 1 0 1 0 1 1 1 @17 NEW_SIMPLE_ATTRIB 1 @9 ENTITY_ID 0 3 9 -2147483648 -1 #
simple-snl-attrib $-1 -1 $-1 $278 $176 1 1 1 1 1 1 1 1 1 1 1 1 0 1 0 1 1 1 @17 NEW_SIMPLE_ATTRIB 3 @13 MESH_INTERVAL @4 LIMP @4 LIMP 2 1 0 5 1 0 0 1 1 #
simple-snl-attrib $-1 -1 $350 $279 $224 1 1 1 1 1 1 1 1 1 1 1 1 0 1 0 1 1 1 @17 NEW_SIMPLE_ATTRIB 7 @16 GRAPHICS_OPTIONS @14 geometry color @10 mesh color @19 geometry visibility @15 mesh visibility @11 render mode @11 transparent 0 6 -1 -1 0 0 0 0 #
simple-snl-attrib $-1 -1 $351 $-1 $282 1 1 1 1 1 1 1 1 1 1 1 1 0 1 0 1 1 1 @17 NEW_SIMPLE_ATTRIB 1 @9 ENTITY_ID 0 3 39 -2147483648 -1 #
straight-curve $-1 -1 -1 $-1 -1.5 1.5 0 0 0 -1 I I #
simple-snl-attrib $-1 -1 $-1 $283 $230 1 1 1 1 1 1 1 1 1 1 1 1 0 1 0 1 1 1 @17 NEW_SIMPLE_ATTRIB 7 @16 GRAPHICS_OPTIONS @14 geometry color @10 mesh color @19 geometry visibility @15 mesh visibility @11 render mode @11 transparent 0 6 -1 -1 0 0 0 0 #
simple-snl-attrib $-1 -1 $352 $-1 $284 1 1 1 1 1 1 1 1 1 1 1 1 0 1 0 1 1 1 @17 NEW_SIMPLE_ATTRIB 1 @9 ENTITY_ID 0 3 27 -2147483648 -1 #
point $-1 -1 -1 $-1 -1.5 -1.5 -1.5 #
simple-snl-attrib $-1 -1 $353 $-1 $286 1 1 1 1 1 1 1 1 1 1 1 1 0 1 0 1 1 1 @17 NEW_SIMPLE_ATTRIB 1 @9 ENTITY_ID 0 3 35 -2147483648 -1 #
straight-curve $-1 -1 -1 $-1 -1.5 0 -1.5 0 1 0 I I #
simple-snl-attrib $-1 -1 $-1 $287 $232 1 1 1 1 1 1 1 1 1 1 1 1 0 1 0 1 1 1 @17 NEW_SIMPLE_ATTRIB 7 @16 GRAPHICS_OPTIONS @14 geometry color @10 mesh color @19 geometry visibility @15 mesh visibility @11 render mode @11 transparent 0 6 -1 -1 0 0 0 0 #
simple-snl-attrib $-1 -1 $-1 $289 $234 1 1 1 1 1 1 1 1 1 1 1 1 0 1 0 1 1 1 @17 NEW_SIMPLE_ATTRIB 7 @16 GRAPHICS_OPTIONS @14 geometry color @10 mesh color @19 geometry visibility @15 mesh visibility @11 render mode @11 transparent 0 6 -1 -1 0 0 0 0 #
simple-snl-attrib $-1 -1 $354 $-1 $290 1 1 1 1 1 1 1 1 1 1 1 1 0 1 0 1 1 1 @17 NEW_SIMPLE_ATTRIB 1 @9 ENTITY_ID 0 3 28 -2147483648 -1 #
point $-1 -1 -1 $-1 -1.5 1.5 -1.5 #
simple-snl-attrib $-1 -1 $-1 $293 $236 1 1 1 1 1 1 1 1 1 1 1 1 0 1 0 1 1 1 @17 NEW_SIMPLE_ATTRIB 7 @16 GRAPHICS_OPTIONS @14 geometry color @10 mesh color @19 geometry visibility @15 mesh visibility @11 render mode @11 transparent 0 6 -1 -1 0 0 0 0 #
simple-snl-attrib $-1 -1 $-1 $295 $237 1 1 1 1 1 1 1 1 1 1 1 1 0 1 0 1 1 1 @17 NEW_SIMPLE_ATTRIB 7 @16 GRAPHICS_OPTIONS @14 geometry color @10 mesh color @19 geometry visibility @15 mesh visibility @11 render mode @11 transparent 0 6 -1 -1 0 0 0 0 #
simple-snl-attrib $-1 -1 $-1 $297 $240 1 1 1 1 1 1 1 1 1 1 1 1 0 1 0 1 1 1 @17 NEW_SIMPLE_ATTRIB 7 @16 GRAPHICS_OPTIONS @14 geometry color @10 mesh color @19 geometry visibility @15 mesh visibility @11 render mode @11 transparent 0 6 -1 -1 0 0 0 0 #
simple-snl-attrib $-1 -1 $-1 $300 $244 1 1 1 1 1 1 1 1 1 1 1 1 0 1 0 1 1 1 @17 NEW_SIMPLE_ATTRIB 7 @16 GRAPHICS_OPTIONS @14 geometry color @10 mesh color @19 geometry visibility @15 mesh visibility @11 render mode @11 transparent 0 6 -1 -1 0 0 0 0 #
simple-snl-attrib $-1 -1 $-1 $303 $248 1 1 1 1 1 1 1 1 1 1 1 1 0 1 0 1 1 1 @17 NEW_SIMPLE_ATTRIB 7 @16 GRAPHICS_OPTIONS @14 geometry color @10 mesh color @19 geometry visibility @15 mesh visibility @11 render mode @11 transparent 0 6 -1 -1 0 0 0 0 #
simple-snl-attrib $-1 -1 $-1 $305 $250 1 1 1 1 1 1 1 1 1 1 1 1 0 1 0 1 1 1 @17 NEW_SIMPLE_ATTRIB 7 @16 GRAPHICS_OPTIONS @14 geometry color @10 mesh color @19 geometry visibility @15 mesh visibility @11 render mode @11 transparent 0 6 -1 -1 0 0 0 0 #
simple-snl-attrib $-1 -1 $-1 $307 $251 1 1 1 1 1 1 1 1 1 1 1 1 0 1 0 1 1 1 @17 NEW_SIMPLE_ATTRIB 7 @16 GRAPHICS_OPTIONS @14 geometry color @10 mesh color @19 geometry visibility @15 mesh visibility @11 render mode @11 transparent 0 6 -1 -1 0 0 0 0 #
simple-snl-attrib $-1 -1 $-1 $313 $206 1 1 1 1 1 1 1 1 1 1 1 1 0 1 0 1 1 1 @17 NEW_SIMPLE_ATTRIB 1 @13 MERGE_PARTNER 0 4 377931996 1 13 1 #
simple-snl-attrib $-1 -1 $355 $314 $262 1 1 1 1 1 1 1 1 1 1 1 1 0 1 0 1 1 1 @17 NEW_SIMPLE_ATTRIB 1 @9 ENTITY_ID 0 3 9 -2147483648 -1 #
simple-snl-attrib $-1 -1 $-1 $318 $212 1 1 1 1 1 1 1 1 1 1 1 1 0 1 0 1 1 1 @17 NEW_SIMPLE_ATTRIB 1 @13 MERGE_PARTNER 0 4 377931996 1 16 0 #
simple-snl-attrib $-1 -1 $356 $319 $268 1 1 1 1 1 1 1 1 1 1 1 1 0 1 0 1 1 1 @17 NEW_SIMPLE_ATTRIB 1 @9 ENTITY_ID 0 3 9 -2147483648 -1 #
simple-snl-attrib $-1 -1 $-1 $324 $219 1 1 1 1 1 1 1 1 1 1 1 1 0 1 0 1 1 1 @17 NEW_SIMPLE_ATTRIB 1 @13 MERGE_PARTNER 0 4 1265517741 1 30 0 #
simple-snl-attrib $-1 -1 $-1 $326 $224 1 1 1 1 1 1 1 1 1 1 1 1 0 1 0 1 1 1 @17 NEW_SIMPLE_ATTRIB 3 @13 MESH_INTERVAL @4 LIMP @4 LIMP 2 1 0 5 1 0 0 1 1 #
simple-snl-attrib $-1 -1 $-1 $327 $282 1 1 1 1 1 1 1 1 1 1 1 1 0 1 0 1 1 1 @17 NEW_SIMPLE_ATTRIB 7 @16 GRAPHICS_OPTIONS @14 geometry color @10 mesh color @19 geometry visibility @15 mesh visibility @11 render mode @11 transparent 0 6 -1 -1 0 0 0 0 #
simple-snl-attrib $-1 -1 $-1 $330 $284 1 1 1 1 1 1 1 1 1 1 1 1 0 1 0 1 1 1 @17 NEW_SIMPLE_ATTRIB 7 @16 GRAPHICS_OPTIONS @14 geometry color @10 mesh color @19 geometry visibility @15 mesh visibility @11 render mode @11 transparent 0 6 -1 -1 0 0 0 0 #
simple-snl-attrib $-1 -1 $-1 $332 $286 1 1 1 1 1 1 1 1 1 1 1 1 0 1 0 1 1 1 @17 NEW_SIMPLE_ATTRIB 7 @16 GRAPHICS_OPTIONS @14 geometry color @10 mesh color @19 geometry visibility @15 mesh visibility @11 render mode @11 transparent 0 6 -1 -1 0 0 0 0 #
simple-snl-attrib $-1 -1 $-1 $336 $290 1 1 1 1 1 1 1 1 1 1 1 1 0 1 0 1 1 1 @17 NEW_SIMPLE_ATTRIB 7 @16 GRAPHICS_OPTIONS @14 geometry color @10 mesh color @19 geometry visibility @15 mesh visibility @11 render mode @11 transparent 0 6 -1 -1 0 0 0 0 #
simple-snl-attrib $-1 -1 $-1 $346 $262 1 1 1 1 1 1 1 1 1 1 1 1 0 1 0 1 1 1 @17 NEW_SIMPLE_ATTRIB 1 @13 MERGE_PARTNER 0 4 1265517741 1 9 1 #
simple-snl-attrib $-1 -1 $-1 $348 $268 1 1 1 1 1 1 1 1 1 1 1 1 0 1 0 1 1 1 @17 NEW_SIMPLE_ATTRIB 1 @13 MERGE_PARTNER 0 4 1265517741 1 12 0 #
End-of-ACIS-data 