1600 0 4 0           
10 Cubit 12.2 17 ACIS 19.0.2 Linux 24 Mon Mar 28 10:21:29 2011 
1 9.9999999999999995e-07 1e-10 
body $4 -1 -1 $-1 $5 $-1 $-1 T -0.5 -0.5 -0.5 0.5 0.5 0.5 #
body $6 -1 -1 $-1 $7 $-1 $-1 T -8.7774000000000001 -8.7774000000000001 -8.7774000000000001 8.7774000000000001 8.7774000000000001 8.7774000000000001 #
body $8 -1 -1 $-1 $9 $-1 $-1 T -27.5 -27.5 -27.5 27.5 27.5 27.5 #
body $10 -1 -1 $-1 $11 $-1 $-1 T -25 -25 -25 25 25 25 #
integer_attrib-name_attrib-gen-attrib $-1 -1 $12 $-1 $0 2 1 1 1 1 1 1 1 1 1 1 1 1 1 0 1 1 1 @8 CUBIT_ID 2 #
lump $13 -1 -1 $-1 $-1 $14 $0 T -0.5 -0.5 -0.5 0.5 0.5 0.5 #
integer_attrib-name_attrib-gen-attrib $-1 -1 $15 $-1 $1 2 1 1 1 1 1 1 1 1 1 1 1 1 1 0 1 1 1 @8 CUBIT_ID 3 #
lump $16 -1 -1 $-1 $-1 $17 $1 T -8.7774000000000001 -8.7774000000000001 -8.7774000000000001 8.7774000000000001 8.7774000000000001 8.7774000000000001 #
integer_attrib-name_attrib-gen-attrib $-1 -1 $18 $-1 $2 2 1 1 1 1 1 1 1 1 1 1 1 1 1 0 1 1 1 @8 CUBIT_ID 5 #
lump $19 -1 -1 $-1 $-1 $20 $2 T -27.5 -27.5 -27.5 27.5 27.5 27.5 #
integer_attrib-name_attrib-gen-attrib $-1 -1 $21 $-1 $3 2 1 1 1 1 1 1 1 1 1 1 1 1 1 0 1 1 1 @8 CUBIT_ID 7 #
lump $22 -1 -1 $-1 $-1 $23 $3 T -25 -25 -25 25 25 25 #
simple-snl-attrib $-1 -1 $-1 $4 $0 1 1 1 1 1 1 1 1 1 1 1 1 0 1 0 1 1 1 @17 NEW_SIMPLE_ATTRIB 1 @9 ENTITY_ID 0 3 2 -2147483648 -1 #
integer_attrib-name_attrib-gen-attrib $-1 -1 $24 $-1 $5 2 1 1 1 1 1 1 1 1 1 1 1 1 1 0 1 1 1 @8 CUBIT_ID 2 #
shell $-1 -1 -1 $-1 $-1 $-1 $25 $-1 $5 T -0.5 -0.5 -0.5 0.5 0.5 0.5 #
simple-snl-attrib $-1 -1 $-1 $6 $1 1 1 1 1 1 1 1 1 1 1 1 1 0 1 0 1 1 1 @17 NEW_SIMPLE_ATTRIB 1 @9 ENTITY_ID 0 3 3 -2147483648 -1 #
integer_attrib-name_attrib-gen-attrib $-1 -1 $26 $-1 $7 2 1 1 1 1 1 1 1 1 1 1 1 1 1 0 1 1 1 @8 CUBIT_ID 3 #
shell $-1 -1 -1 $-1 $27 $-1 $28 $-1 $7 T -8.7774000000000001 -8.7774000000000001 -8.7774000000000001 8.7774000000000001 8.7774000000000001 8.7774000000000001 #
simple-snl-attrib $-1 -1 $-1 $8 $2 1 1 1 1 1 1 1 1 1 1 1 1 0 1 0 1 1 1 @17 NEW_SIMPLE_ATTRIB 1 @9 ENTITY_ID 0 3 5 -2147483648 -1 #
integer_attrib-name_attrib-gen-attrib $-1 -1 $29 $-1 $9 2 1 1 1 1 1 1 1 1 1 1 1 1 1 0 1 1 1 @8 CUBIT_ID 6 #
shell $-1 -1 -1 $-1 $30 $-1 $31 $-1 $9 T -27.5 -27.5 -27.5 27.5 27.5 27.5 #
simple-snl-attrib $-1 -1 $-1 $10 $3 1 1 1 1 1 1 1 1 1 1 1 1 0 1 0 1 1 1 @17 NEW_SIMPLE_ATTRIB 1 @9 ENTITY_ID 0 3 7 -2147483648 -1 #
integer_attrib-name_attrib-gen-attrib $-1 -1 $32 $-1 $11 2 1 1 1 1 1 1 1 1 1 1 1 1 1 0 1 1 1 @8 CUBIT_ID 8 #
shell $-1 -1 -1 $-1 $33 $-1 $34 $-1 $11 T -25 -25 -25 25 25 25 #
simple-snl-attrib $-1 -1 $35 $13 $5 1 1 1 1 1 1 1 1 1 1 1 1 0 1 0 1 1 1 @17 NEW_SIMPLE_ATTRIB 1 @9 ENTITY_ID 0 3 2 -2147483648 -1 #
face $36 -1 -1 $-1 $-1 $-1 $14 $-1 $37 forward single T -0.5 -0.5 -0.5 0.5 0.5 0.5 F #
simple-snl-attrib $-1 -1 $38 $16 $7 1 1 1 1 1 1 1 1 1 1 1 1 0 1 0 1 1 1 @17 NEW_SIMPLE_ATTRIB 1 @9 ENTITY_ID 0 3 3 -2147483648 -1 #
shell $-1 -1 -1 $-1 $-1 $-1 $39 $-1 $7 T -0.5 -0.5 -0.5 0.5 0.5 0.5 #
face $40 -1 -1 $-1 $-1 $-1 $17 $-1 $41 forward single T -8.7774000000000001 -8.7774000000000001 -8.7774000000000001 8.7774000000000001 8.7774000000000001 8.7774000000000001 F #
simple-snl-attrib $-1 -1 $42 $19 $9 1 1 1 1 1 1 1 1 1 1 1 1 0 1 0 1 1 1 @17 NEW_SIMPLE_ATTRIB 1 @9 ENTITY_ID 0 3 6 -2147483648 -1 #
shell $-1 -1 -1 $-1 $-1 $-1 $43 $-1 $9 T -25 -25 -25 25 25 25 #
face $44 -1 -1 $-1 $45 $46 $20 $-1 $47 forward single T -27.5 -27.5 27.5 27.5 27.5 27.5 F #
simple-snl-attrib $-1 -1 $48 $22 $11 1 1 1 1 1 1 1 1 1 1 1 1 0 1 0 1 1 1 @17 NEW_SIMPLE_ATTRIB 1 @9 ENTITY_ID 0 3 8 -2147483648 -1 #
shell $-1 -1 -1 $-1 $-1 $-1 $49 $-1 $11 T -8.7774000000000001 -8.7774000000000001 -8.7774000000000001 8.7774000000000001 8.7774000000000001 8.7774000000000001 #
face $50 -1 -1 $-1 $51 $52 $23 $-1 $53 forward single T -25 -25 25 25 25 25 F #
simple-snl-attrib $-1 -1 $54 $24 $5 1 1 1 1 1 1 1 1 1 1 1 1 0 1 0 1 1 1 @17 NEW_SIMPLE_ATTRIB 2 @5 GROUP @16 mat_1_rho_-18.74 0 7 1 3 854846393 0 0 0 0 #
integer_attrib-name_attrib-gen-attrib $-1 -1 $55 $-1 $25 2 1 1 1 1 1 1 1 1 1 1 1 1 1 0 1 1 1 @8 CUBIT_ID 2 #
sphere-surface $-1 -1 -1 $-1 0 0 0 0.5 1 0 0 0 0 1 forward_v I I I I #
simple-snl-attrib $-1 -1 $56 $26 $7 1 1 1 1 1 1 1 1 1 1 1 1 0 1 0 1 1 1 @17 NEW_SIMPLE_ATTRIB 2 @5 GROUP @16 mat_1_rho_-18.74 0 7 1 3 854846393 1 0 0 0 #
face $57 -1 -1 $-1 $-1 $-1 $27 $-1 $58 reversed single T -0.5 -0.5 -0.5 0.5 0.5 0.5 F #
integer_attrib-name_attrib-gen-attrib $-1 -1 $59 $-1 $28 2 1 1 1 1 1 1 1 1 1 1 1 1 1 0 1 1 1 @8 CUBIT_ID 3 #
sphere-surface $-1 -1 -1 $-1 0 0 0 8.7774000000000001 1 0 0 0 0 1 forward_v I I I I #
simple-snl-attrib $-1 -1 $60 $29 $9 1 1 1 1 1 1 1 1 1 1 1 1 0 1 0 1 1 1 @17 NEW_SIMPLE_ATTRIB 2 @5 GROUP @9 graveyard 0 7 1 2 924447960 0 0 0 0 #
face $61 -1 -1 $-1 $62 $63 $30 $-1 $64 reversed single T -25 -25 25 25 25 25 F #
integer_attrib-name_attrib-gen-attrib $-1 -1 $65 $-1 $31 2 1 1 1 1 1 1 1 1 1 1 1 1 1 0 1 1 1 @8 CUBIT_ID 11 #
face $66 -1 -1 $-1 $67 $68 $20 $-1 $69 reversed single T -27.5 -27.5 -27.5 27.5 27.5 -27.5 F #
loop $-1 -1 -1 $-1 $-1 $70 $31 T -27.5 -27.5 27.5 27.5 27.5 27.5 periphery $47 F #
plane-surface $-1 -1 -1 $-1 0 0 27.5 0 0 1 1 0 0 forward_v I I I I #
simple-snl-attrib $-1 -1 $-1 $32 $11 1 1 1 1 1 1 1 1 1 1 1 1 0 1 0 1 1 1 @17 NEW_SIMPLE_ATTRIB 7 @16 GRAPHICS_OPTIONS @14 geometry color @10 mesh color @19 geometry visibility @15 mesh visibility @11 render mode @11 transparent 0 6 11 11 1 1 0 0 #
face $71 -1 -1 $-1 $-1 $-1 $33 $-1 $72 reversed single T -8.7774000000000001 -8.7774000000000001 -8.7774000000000001 8.7774000000000001 8.7774000000000001 8.7774000000000001 F #
integer_attrib-name_attrib-gen-attrib $-1 -1 $73 $-1 $34 2 1 1 1 1 1 1 1 1 1 1 1 1 1 0 1 1 1 @8 CUBIT_ID 17 #
face $74 -1 -1 $-1 $75 $76 $23 $-1 $77 reversed single T -25 -25 -25 25 25 -25 F #
loop $-1 -1 -1 $-1 $-1 $78 $34 T -25 -25 25 25 25 25 unknown #
plane-surface $-1 -1 -1 $-1 0 0 25 0 0 1 1 0 0 forward_v I I I I #
simple-snl-attrib $-1 -1 $-1 $35 $5 1 1 1 1 1 1 1 1 1 1 1 1 0 1 0 1 1 1 @17 NEW_SIMPLE_ATTRIB 7 @16 GRAPHICS_OPTIONS @14 geometry color @10 mesh color @19 geometry visibility @15 mesh visibility @11 render mode @11 transparent 0 6 5 5 1 1 0 0 #
simple-snl-attrib $-1 -1 $79 $36 $25 1 1 1 1 1 1 1 1 1 1 1 1 0 1 0 1 1 1 @17 NEW_SIMPLE_ATTRIB 1 @9 UNIQUE_ID 1 0 1 1965851089 #
simple-snl-attrib $-1 -1 $-1 $38 $7 1 1 1 1 1 1 1 1 1 1 1 1 0 1 0 1 1 1 @17 NEW_SIMPLE_ATTRIB 7 @16 GRAPHICS_OPTIONS @14 geometry color @10 mesh color @19 geometry visibility @15 mesh visibility @11 render mode @11 transparent 0 6 6 6 1 1 0 0 #
integer_attrib-name_attrib-gen-attrib $-1 -1 $80 $-1 $39 2 1 1 1 1 1 1 1 1 1 1 1 1 1 0 1 1 1 @8 CUBIT_ID 2 #
sphere-surface $-1 -1 -1 $-1 0 0 0 0.5 1 0 0 0 0 1 forward_v I I I I #
simple-snl-attrib $-1 -1 $81 $40 $28 1 1 1 1 1 1 1 1 1 1 1 1 0 1 0 1 1 1 @17 NEW_SIMPLE_ATTRIB 1 @9 UNIQUE_ID 1 0 1 1504333962 #
simple-snl-attrib $-1 -1 $-1 $42 $9 1 1 1 1 1 1 1 1 1 1 1 1 0 1 0 1 1 1 @17 NEW_SIMPLE_ATTRIB 7 @16 GRAPHICS_OPTIONS @14 geometry color @10 mesh color @19 geometry visibility @15 mesh visibility @11 render mode @11 transparent 0 6 9 9 1 1 0 0 #
integer_attrib-name_attrib-gen-attrib $-1 -1 $82 $-1 $43 2 1 1 1 1 1 1 1 1 1 1 1 1 1 0 1 1 1 @8 CUBIT_ID 17 #
face $83 -1 -1 $-1 $84 $85 $30 $-1 $86 forward single T -25 -25 -25 25 25 -25 F #
loop $-1 -1 -1 $-1 $-1 $87 $43 T -25 -25 25 25 25 25 unknown #
plane-surface $-1 -1 -1 $-1 0 0 25 0 0 1 1 0 0 forward_v I I I I #
simple-snl-attrib $-1 -1 $88 $44 $31 1 1 1 1 1 1 1 1 1 1 1 1 0 1 0 1 1 1 @17 NEW_SIMPLE_ATTRIB 1 @9 ENTITY_ID 0 3 11 -2147483648 -1 #
integer_attrib-name_attrib-gen-attrib $-1 -1 $89 $-1 $45 2 1 1 1 1 1 1 1 1 1 1 1 1 1 0 1 1 1 @8 CUBIT_ID 12 #
face $90 -1 -1 $-1 $91 $92 $20 $-1 $93 reversed single T -27.5 -27.5 -27.5 27.5 -27.5 27.5 F #
loop $-1 -1 -1 $-1 $-1 $94 $45 T -27.5 -27.5 -27.5 27.5 27.5 -27.5 unknown #
plane-surface $-1 -1 -1 $-1 0 0 -27.5 0 0 1 1 0 0 forward_v I I I I #
coedge $-1 -1 -1 $-1 $95 $96 $97 $98 forward $46 $-1 #
integer_attrib-name_attrib-gen-attrib $-1 -1 $99 $-1 $49 2 1 1 1 1 1 1 1 1 1 1 1 1 1 0 1 1 1 @8 CUBIT_ID 3 #
sphere-surface $-1 -1 -1 $-1 0 0 0 8.7774000000000001 1 0 0 0 0 1 forward_v I I I I #
simple-snl-attrib $-1 -1 $100 $50 $34 1 1 1 1 1 1 1 1 1 1 1 1 0 1 0 1 1 1 @17 NEW_SIMPLE_ATTRIB 1 @9 UNIQUE_ID 1 0 1 225139147 #
integer_attrib-name_attrib-gen-attrib $-1 -1 $101 $-1 $51 2 1 1 1 1 1 1 1 1 1 1 1 1 1 0 1 1 1 @8 CUBIT_ID 18 #
face $102 -1 -1 $-1 $103 $104 $23 $-1 $105 reversed single T -25 -25 -25 25 -25 25 F #
loop $-1 -1 -1 $-1 $-1 $106 $51 T -25 -25 -25 25 25 -25 unknown #
plane-surface $-1 -1 -1 $-1 0 0 -25 0 0 1 1 0 0 forward_v I I I I #
coedge $-1 -1 -1 $-1 $107 $108 $109 $110 forward $52 $-1 #
simple-snl-attrib $-1 -1 $111 $55 $25 1 1 1 1 1 1 1 1 1 1 1 1 0 1 0 1 1 1 @17 NEW_SIMPLE_ATTRIB 1 @9 ENTITY_ID 0 3 2 -2147483648 -1 #
simple-snl-attrib $-1 -1 $112 $57 $39 1 1 1 1 1 1 1 1 1 1 1 1 0 1 0 1 1 1 @17 NEW_SIMPLE_ATTRIB 1 @9 UNIQUE_ID 1 0 1 1965851089 #
simple-snl-attrib $-1 -1 $113 $59 $28 1 1 1 1 1 1 1 1 1 1 1 1 0 1 0 1 1 1 @17 NEW_SIMPLE_ATTRIB 1 @9 ENTITY_ID 0 3 3 -2147483648 -1 #
simple-snl-attrib $-1 -1 $114 $61 $43 1 1 1 1 1 1 1 1 1 1 1 1 0 1 0 1 1 1 @17 NEW_SIMPLE_ATTRIB 1 @9 UNIQUE_ID 1 0 1 225139147 #
integer_attrib-name_attrib-gen-attrib $-1 -1 $115 $-1 $62 2 1 1 1 1 1 1 1 1 1 1 1 1 1 0 1 1 1 @8 CUBIT_ID 18 #
face $116 -1 -1 $-1 $117 $118 $30 $-1 $119 forward single T -25 -25 -25 25 -25 25 F #
loop $-1 -1 -1 $-1 $-1 $120 $62 T -25 -25 -25 25 25 -25 unknown #
plane-surface $-1 -1 -1 $-1 0 0 -25 0 0 1 1 0 0 forward_v I I I I #
coedge $-1 -1 -1 $-1 $121 $122 $123 $124 reversed $63 $-1 #
simple-snl-attrib $-1 -1 $-1 $65 $31 1 1 1 1 1 1 1 1 1 1 1 1 0 1 0 1 1 1 @17 NEW_SIMPLE_ATTRIB 3 @13 MESH_INTERVAL @4 LIMP @4 LIMP 2 1 0 5 1 0 0 1 1 #
simple-snl-attrib $-1 -1 $125 $66 $45 1 1 1 1 1 1 1 1 1 1 1 1 0 1 0 1 1 1 @17 NEW_SIMPLE_ATTRIB 1 @9 ENTITY_ID 0 3 12 -2147483648 -1 #
integer_attrib-name_attrib-gen-attrib $-1 -1 $126 $-1 $67 2 1 1 1 1 1 1 1 1 1 1 1 1 1 0 1 1 1 @8 CUBIT_ID 13 #
face $127 -1 -1 $-1 $128 $129 $20 $-1 $130 reversed single T -27.5 -27.5 -27.5 -27.5 27.5 27.5 F #
loop $-1 -1 -1 $-1 $-1 $131 $67 T -27.5 -27.5 -27.5 27.5 -27.5 27.5 unknown #
plane-surface $-1 -1 -1 $-1 0 -27.5 0 0 1 -0 -0 0 1 forward_v I I I I #
coedge $-1 -1 -1 $-1 $132 $133 $134 $135 forward $68 $-1 #
coedge $-1 -1 -1 $-1 $136 $70 $137 $138 forward $46 $-1 #
coedge $-1 -1 -1 $-1 $70 $136 $139 $140 forward $46 $-1 #
coedge $-1 -1 -1 $-1 $141 $142 $70 $98 reversed $143 $-1 #
edge $144 -1 -1 $-1 $145 -27.5 $146 27.5 $97 $147 forward @7 unknown T 27.5 -27.5 27.5 27.5 27.5 27.5 #
simple-snl-attrib $-1 -1 $148 $71 $49 1 1 1 1 1 1 1 1 1 1 1 1 0 1 0 1 1 1 @17 NEW_SIMPLE_ATTRIB 1 @9 UNIQUE_ID 1 0 1 1504333962 #
simple-snl-attrib $-1 -1 $149 $73 $34 1 1 1 1 1 1 1 1 1 1 1 1 0 1 0 1 1 1 @17 NEW_SIMPLE_ATTRIB 1 @9 ENTITY_ID 0 3 17 2084367992 1 #
simple-snl-attrib $-1 -1 $150 $74 $51 1 1 1 1 1 1 1 1 1 1 1 1 0 1 0 1 1 1 @17 NEW_SIMPLE_ATTRIB 1 @9 UNIQUE_ID 1 0 1 1874543462 #
integer_attrib-name_attrib-gen-attrib $-1 -1 $151 $-1 $75 2 1 1 1 1 1 1 1 1 1 1 1 1 1 0 1 1 1 @8 CUBIT_ID 19 #
face $152 -1 -1 $-1 $153 $154 $23 $-1 $155 reversed single T -25 -25 -25 -25 25 25 F #
loop $-1 -1 -1 $-1 $-1 $156 $75 T -25 -25 -25 25 -25 25 unknown #
plane-surface $-1 -1 -1 $-1 0 -25 0 0 1 -0 -0 0 1 forward_v I I I I #
coedge $-1 -1 -1 $-1 $157 $158 $159 $160 forward $76 $-1 #
coedge $-1 -1 -1 $-1 $161 $78 $162 $163 forward $52 $-1 #
coedge $-1 -1 -1 $-1 $78 $161 $164 $165 forward $52 $-1 #
coedge $-1 -1 -1 $-1 $166 $167 $78 $110 reversed $168 $-1 #
edge $169 -1 -1 $-1 $170 -25 $171 25 $109 $172 forward @7 unknown T 25 -25 25 25 25 25 #
simple-snl-attrib $-1 -1 $173 $79 $25 1 1 1 1 1 1 1 1 1 1 1 1 0 1 0 1 1 1 @17 NEW_SIMPLE_ATTRIB 1 @13 MERGE_PARTNER 0 4 1965851089 1 2 1 #
simple-snl-attrib $-1 -1 $174 $80 $39 1 1 1 1 1 1 1 1 1 1 1 1 0 1 0 1 1 1 @17 NEW_SIMPLE_ATTRIB 1 @9 ENTITY_ID 0 3 2 -2147483648 -1 #
simple-snl-attrib $-1 -1 $175 $81 $28 1 1 1 1 1 1 1 1 1 1 1 1 0 1 0 1 1 1 @17 NEW_SIMPLE_ATTRIB 1 @13 MERGE_PARTNER 0 4 1504333962 1 3 1 #
simple-snl-attrib $-1 -1 $176 $82 $43 1 1 1 1 1 1 1 1 1 1 1 1 0 1 0 1 1 1 @17 NEW_SIMPLE_ATTRIB 1 @9 ENTITY_ID 0 3 17 2084367992 1 #
simple-snl-attrib $-1 -1 $177 $83 $62 1 1 1 1 1 1 1 1 1 1 1 1 0 1 0 1 1 1 @17 NEW_SIMPLE_ATTRIB 1 @9 UNIQUE_ID 1 0 1 1874543462 #
integer_attrib-name_attrib-gen-attrib $-1 -1 $178 $-1 $84 2 1 1 1 1 1 1 1 1 1 1 1 1 1 0 1 1 1 @8 CUBIT_ID 19 #
face $179 -1 -1 $-1 $180 $181 $30 $-1 $182 forward single T -25 -25 -25 -25 25 25 F #
loop $-1 -1 -1 $-1 $-1 $183 $84 T -25 -25 -25 25 -25 25 periphery $119 F #
plane-surface $-1 -1 -1 $-1 0 -25 0 0 1 -0 -0 0 1 forward_v I I I I #
coedge $-1 -1 -1 $-1 $184 $185 $186 $187 reversed $85 $-1 #
coedge $-1 -1 -1 $-1 $188 $87 $189 $190 reversed $63 $-1 #
coedge $-1 -1 -1 $-1 $87 $188 $191 $192 reversed $63 $-1 #
coedge $-1 -1 -1 $-1 $193 $194 $87 $124 forward $195 $-1 #
edge $196 -1 -1 $-1 $197 -25 $198 25 $123 $199 forward @7 unknown T 25 -25 25 25 25 25 #
simple-snl-attrib $-1 -1 $-1 $89 $45 1 1 1 1 1 1 1 1 1 1 1 1 0 1 0 1 1 1 @17 NEW_SIMPLE_ATTRIB 3 @13 MESH_INTERVAL @4 LIMP @4 LIMP 2 1 0 5 1 0 0 1 1 #
simple-snl-attrib $-1 -1 $200 $90 $67 1 1 1 1 1 1 1 1 1 1 1 1 0 1 0 1 1 1 @17 NEW_SIMPLE_ATTRIB 1 @9 ENTITY_ID 0 3 13 -2147483648 -1 #
integer_attrib-name_attrib-gen-attrib $-1 -1 $201 $-1 $91 2 1 1 1 1 1 1 1 1 1 1 1 1 1 0 1 1 1 @8 CUBIT_ID 14 #
face $202 -1 -1 $-1 $203 $204 $20 $-1 $205 reversed single T -27.5 27.5 -27.5 27.5 27.5 27.5 F #
loop $-1 -1 -1 $-1 $-1 $206 $91 T -27.5 -27.5 -27.5 -27.5 27.5 27.5 periphery $130 T #
plane-surface $-1 -1 -1 $-1 -27.5 0 0 1 0 0 0 0 -1 forward_v I I I I #
coedge $-1 -1 -1 $-1 $207 $139 $208 $209 forward $92 $-1 #
coedge $-1 -1 -1 $-1 $210 $94 $207 $211 forward $68 $-1 #
coedge $-1 -1 -1 $-1 $94 $210 $212 $213 forward $68 $-1 #
coedge $-1 -1 -1 $-1 $142 $141 $94 $135 reversed $143 $-1 #
edge $214 -1 -1 $-1 $215 -27.5 $216 27.5 $134 $217 forward @7 unknown T 27.5 -27.5 -27.5 27.5 27.5 -27.5 #
coedge $-1 -1 -1 $-1 $96 $95 $218 $219 forward $46 $-1 #
coedge $-1 -1 -1 $-1 $220 $221 $95 $138 reversed $204 $-1 #
edge $222 -1 -1 $-1 $146 -27.5 $223 27.5 $137 $224 forward @7 unknown T -27.5 27.5 27.5 27.5 27.5 27.5 #
coedge $-1 -1 -1 $-1 $131 $225 $96 $140 reversed $92 $-1 #
edge $226 -1 -1 $-1 $227 -27.5 $145 27.5 $139 $228 forward @7 unknown T -27.5 -27.5 27.5 27.5 -27.5 27.5 #
coedge $-1 -1 -1 $-1 $134 $97 $225 $229 forward $143 $-1 #
coedge $-1 -1 -1 $-1 $97 $134 $220 $230 reversed $143 $-1 #
loop $-1 -1 -1 $-1 $-1 $141 $203 T 27.5 -27.5 -27.5 27.5 27.5 27.5 unknown #
integer_attrib-name_attrib-gen-attrib $-1 -1 $231 $-1 $98 2 1 1 1 1 1 1 1 1 1 1 1 1 1 0 1 1 1 @8 CUBIT_ID 13 #
vertex $232 -1 -1 $-1 $98 $233 #
vertex $234 -1 -1 $-1 $98 $235 #
straight-curve $-1 -1 -1 $-1 27.5 0 27.5 0 1 0 I I #
simple-snl-attrib $-1 -1 $236 $99 $49 1 1 1 1 1 1 1 1 1 1 1 1 0 1 0 1 1 1 @17 NEW_SIMPLE_ATTRIB 1 @9 ENTITY_ID 0 3 3 -2147483648 -1 #
simple-snl-attrib $-1 -1 $237 $100 $34 1 1 1 1 1 1 1 1 1 1 1 1 0 1 0 1 1 1 @17 NEW_SIMPLE_ATTRIB 1 @13 MERGE_PARTNER 0 4 225139147 -1 29 0 #
simple-snl-attrib $-1 -1 $238 $101 $51 1 1 1 1 1 1 1 1 1 1 1 1 0 1 0 1 1 1 @17 NEW_SIMPLE_ATTRIB 1 @9 ENTITY_ID 0 3 18 1041500053 1 #
simple-snl-attrib $-1 -1 $239 $102 $75 1 1 1 1 1 1 1 1 1 1 1 1 0 1 0 1 1 1 @17 NEW_SIMPLE_ATTRIB 1 @9 UNIQUE_ID 1 0 1 1024183900 #
integer_attrib-name_attrib-gen-attrib $-1 -1 $240 $-1 $103 2 1 1 1 1 1 1 1 1 1 1 1 1 1 0 1 1 1 @8 CUBIT_ID 20 #
face $241 -1 -1 $-1 $242 $243 $23 $-1 $244 reversed single T -25 25 -25 25 25 25 F #
loop $-1 -1 -1 $-1 $-1 $245 $103 T -25 -25 -25 -25 25 25 periphery $155 T #
plane-surface $-1 -1 -1 $-1 -25 0 0 1 0 0 0 0 -1 forward_v I I I I #
coedge $-1 -1 -1 $-1 $246 $164 $247 $248 forward $104 $-1 #
coedge $-1 -1 -1 $-1 $249 $106 $246 $250 forward $76 $-1 #
coedge $-1 -1 -1 $-1 $106 $249 $251 $252 forward $76 $-1 #
coedge $-1 -1 -1 $-1 $167 $166 $106 $160 reversed $168 $-1 #
edge $253 -1 -1 $-1 $254 -25 $255 25 $159 $256 forward @7 unknown T 25 -25 -25 25 25 -25 #
coedge $-1 -1 -1 $-1 $108 $107 $257 $258 forward $52 $-1 #
coedge $-1 -1 -1 $-1 $259 $260 $107 $163 reversed $243 $-1 #
edge $261 -1 -1 $-1 $171 -25 $262 25 $162 $263 forward @7 unknown T -25 25 25 25 25 25 #
coedge $-1 -1 -1 $-1 $156 $264 $108 $165 reversed $104 $-1 #
edge $265 -1 -1 $-1 $266 -25 $170 25 $164 $267 forward @7 unknown T -25 -25 25 25 -25 25 #
coedge $-1 -1 -1 $-1 $159 $109 $264 $268 forward $168 $-1 #
coedge $-1 -1 -1 $-1 $109 $159 $259 $269 reversed $168 $-1 #
loop $-1 -1 -1 $-1 $-1 $166 $242 T 25 -25 -25 25 25 25 periphery $270 T #
integer_attrib-name_attrib-gen-attrib $-1 -1 $271 $-1 $110 2 1 1 1 1 1 1 1 1 1 1 1 1 1 0 1 1 1 @8 CUBIT_ID 25 #
vertex $272 -1 -1 $-1 $110 $273 #
vertex $274 -1 -1 $-1 $110 $275 #
straight-curve $-1 -1 -1 $-1 25 0 25 0 1 0 I I #
simple-snl-attrib $-1 -1 $-1 $111 $25 1 1 1 1 1 1 1 1 1 1 1 1 0 1 0 1 1 1 @17 NEW_SIMPLE_ATTRIB 3 @13 MESH_INTERVAL @4 LIMP @4 LIMP 2 1 0 5 1 0 0 1 1 #
simple-snl-attrib $-1 -1 $276 $112 $39 1 1 1 1 1 1 1 1 1 1 1 1 0 1 0 1 1 1 @17 NEW_SIMPLE_ATTRIB 1 @13 MERGE_PARTNER 0 4 1965851089 -1 4 0 #
simple-snl-attrib $-1 -1 $-1 $113 $28 1 1 1 1 1 1 1 1 1 1 1 1 0 1 0 1 1 1 @17 NEW_SIMPLE_ATTRIB 3 @13 MESH_INTERVAL @4 LIMP @4 LIMP 2 1 0 5 1 0 0 1 1 #
simple-snl-attrib $-1 -1 $277 $114 $43 1 1 1 1 1 1 1 1 1 1 1 1 0 1 0 1 1 1 @17 NEW_SIMPLE_ATTRIB 1 @13 MERGE_PARTNER 0 4 225139147 1 17 1 #
simple-snl-attrib $-1 -1 $278 $115 $62 1 1 1 1 1 1 1 1 1 1 1 1 0 1 0 1 1 1 @17 NEW_SIMPLE_ATTRIB 1 @9 ENTITY_ID 0 3 18 1041500053 1 #
simple-snl-attrib $-1 -1 $279 $116 $84 1 1 1 1 1 1 1 1 1 1 1 1 0 1 0 1 1 1 @17 NEW_SIMPLE_ATTRIB 1 @9 UNIQUE_ID 1 0 1 1024183900 #
integer_attrib-name_attrib-gen-attrib $-1 -1 $280 $-1 $117 2 1 1 1 1 1 1 1 1 1 1 1 1 1 0 1 1 1 @8 CUBIT_ID 20 #
face $281 -1 -1 $-1 $282 $283 $30 $-1 $284 forward single T -25 25 -25 25 25 25 F #
loop $-1 -1 -1 $-1 $-1 $285 $117 T -25 -25 -25 -25 25 25 unknown #
plane-surface $-1 -1 -1 $-1 -25 0 0 1 0 0 0 0 -1 forward_v I I I I #
coedge $-1 -1 -1 $-1 $189 $286 $287 $288 reversed $118 $-1 #
coedge $-1 -1 -1 $-1 $289 $120 $290 $291 reversed $85 $-1 #
coedge $-1 -1 -1 $-1 $120 $289 $286 $292 reversed $85 $-1 #
coedge $-1 -1 -1 $-1 $194 $193 $120 $187 forward $195 $-1 #
edge $293 -1 -1 $-1 $294 -25 $295 25 $186 $296 forward @7 unknown T 25 -25 -25 25 25 -25 #
coedge $-1 -1 -1 $-1 $122 $121 $297 $298 reversed $63 $-1 #
coedge $-1 -1 -1 $-1 $299 $183 $121 $190 forward $118 $-1 #
edge $300 -1 -1 $-1 $301 -25 $197 25 $189 $302 forward @7 unknown T -25 -25 25 25 -25 25 #
coedge $-1 -1 -1 $-1 $303 $304 $122 $192 forward $283 $-1 #
edge $305 -1 -1 $-1 $198 -25 $306 25 $191 $307 forward @7 unknown T -25 25 25 25 25 25 #
coedge $-1 -1 -1 $-1 $186 $123 $304 $308 forward $195 $-1 #
coedge $-1 -1 -1 $-1 $123 $186 $299 $309 reversed $195 $-1 #
loop $-1 -1 -1 $-1 $-1 $194 $282 T 25 -25 -25 25 25 25 unknown #
integer_attrib-name_attrib-gen-attrib $-1 -1 $310 $-1 $124 2 1 1 1 1 1 1 1 1 1 1 1 1 1 0 1 1 1 @8 CUBIT_ID 25 #
vertex $311 -1 -1 $-1 $124 $312 #
vertex $313 -1 -1 $-1 $124 $314 #
straight-curve $-1 -1 -1 $-1 25 0 25 0 1 0 I I #
simple-snl-attrib $-1 -1 $-1 $126 $67 1 1 1 1 1 1 1 1 1 1 1 1 0 1 0 1 1 1 @17 NEW_SIMPLE_ATTRIB 3 @13 MESH_INTERVAL @4 LIMP @4 LIMP 2 1 0 5 1 0 0 1 1 #
simple-snl-attrib $-1 -1 $315 $127 $91 1 1 1 1 1 1 1 1 1 1 1 1 0 1 0 1 1 1 @17 NEW_SIMPLE_ATTRIB 1 @9 ENTITY_ID 0 3 14 -2147483648 -1 #
integer_attrib-name_attrib-gen-attrib $-1 -1 $316 $-1 $128 2 1 1 1 1 1 1 1 1 1 1 1 1 1 0 1 1 1 @8 CUBIT_ID 15 #
face $317 -1 -1 $-1 $-1 $143 $20 $-1 $318 reversed single T 27.5 -27.5 -27.5 27.5 27.5 27.5 F #
loop $-1 -1 -1 $-1 $-1 $220 $128 T -27.5 27.5 -27.5 27.5 27.5 27.5 unknown #
plane-surface $-1 -1 -1 $-1 0 27.5 0 0 -1 0 0 0 -1 forward_v I I I I #
coedge $-1 -1 -1 $-1 $319 $218 $221 $320 forward $129 $-1 #
coedge $-1 -1 -1 $-1 $225 $131 $132 $211 reversed $92 $-1 #
coedge $-1 -1 -1 $-1 $218 $319 $131 $209 reversed $129 $-1 #
edge $321 -1 -1 $-1 $227 -27.5 $322 27.5 $208 $323 forward @7 unknown T -27.5 -27.5 -27.5 -27.5 -27.5 27.5 #
coedge $-1 -1 -1 $-1 $133 $132 $319 $324 forward $68 $-1 #
edge $325 -1 -1 $-1 $216 -27.5 $322 27.5 $207 $326 forward @7 unknown T -27.5 -27.5 -27.5 27.5 -27.5 -27.5 #
coedge $-1 -1 -1 $-1 $221 $220 $133 $213 reversed $204 $-1 #
edge $327 -1 -1 $-1 $328 -27.5 $215 27.5 $212 $329 forward @7 unknown T -27.5 27.5 -27.5 27.5 27.5 -27.5 #
integer_attrib-name_attrib-gen-attrib $-1 -1 $330 $-1 $135 2 1 1 1 1 1 1 1 1 1 1 1 1 1 0 1 1 1 @8 CUBIT_ID 17 #
vertex $331 -1 -1 $-1 $135 $332 #
vertex $333 -1 -1 $-1 $229 $334 #
straight-curve $-1 -1 -1 $-1 27.5 0 -27.5 0 -1 0 I I #
coedge $-1 -1 -1 $-1 $206 $208 $136 $219 reversed $129 $-1 #
edge $335 -1 -1 $-1 $223 -27.5 $227 27.5 $218 $336 forward @7 unknown T -27.5 -27.5 27.5 -27.5 27.5 27.5 #
coedge $-1 -1 -1 $-1 $212 $137 $142 $230 forward $204 $-1 #
coedge $-1 -1 -1 $-1 $137 $212 $206 $320 reversed $204 $-1 #
integer_attrib-name_attrib-gen-attrib $-1 -1 $337 $-1 $138 2 1 1 1 1 1 1 1 1 1 1 1 1 1 0 1 1 1 @8 CUBIT_ID 14 #
vertex $338 -1 -1 $-1 $138 $339 #
straight-curve $-1 -1 -1 $-1 0 27.5 27.5 -1 0 0 I I #
coedge $-1 -1 -1 $-1 $139 $207 $141 $229 reversed $92 $-1 #
integer_attrib-name_attrib-gen-attrib $-1 -1 $340 $-1 $140 2 1 1 1 1 1 1 1 1 1 1 1 1 1 0 1 1 1 @8 CUBIT_ID 16 #
vertex $341 -1 -1 $-1 $219 $342 #
straight-curve $-1 -1 -1 $-1 0 -27.5 27.5 1 0 0 I I #
edge $343 -1 -1 $-1 $145 -27.5 $216 27.5 $141 $344 forward @7 unknown T 27.5 -27.5 -27.5 27.5 -27.5 27.5 #
edge $345 -1 -1 $-1 $146 -27.5 $215 27.5 $142 $346 forward @7 unknown T 27.5 27.5 -27.5 27.5 27.5 27.5 #
simple-snl-attrib $-1 -1 $-1 $144 $98 1 1 1 1 1 1 1 1 1 1 1 1 0 1 0 1 1 1 @17 NEW_SIMPLE_ATTRIB 1 @9 ENTITY_ID 0 3 13 -2147483648 -1 #
integer_attrib-name_attrib-gen-attrib $-1 -1 $347 $-1 $145 2 1 1 1 1 1 1 1 1 1 1 1 1 1 0 1 1 1 @8 CUBIT_ID 9 #
point $-1 -1 -1 $-1 27.5 -27.5 27.5 #
integer_attrib-name_attrib-gen-attrib $-1 -1 $348 $-1 $146 2 1 1 1 1 1 1 1 1 1 1 1 1 1 0 1 1 1 @8 CUBIT_ID 10 #
point $-1 -1 -1 $-1 27.5 27.5 27.5 #
simple-snl-attrib $-1 -1 $349 $148 $49 1 1 1 1 1 1 1 1 1 1 1 1 0 1 0 1 1 1 @17 NEW_SIMPLE_ATTRIB 1 @13 MERGE_PARTNER 0 4 1504333962 -1 35 0 #
simple-snl-attrib $-1 -1 $-1 $149 $34 1 1 1 1 1 1 1 1 1 1 1 1 0 1 0 1 1 1 @17 NEW_SIMPLE_ATTRIB 3 @13 MESH_INTERVAL @4 LIMP @4 LIMP 2 1 0 5 1 0 0 1 1 #
simple-snl-attrib $-1 -1 $350 $150 $51 1 1 1 1 1 1 1 1 1 1 1 1 0 1 0 1 1 1 @17 NEW_SIMPLE_ATTRIB 1 @13 MERGE_PARTNER 0 4 1874543462 -1 30 0 #
simple-snl-attrib $-1 -1 $351 $151 $75 1 1 1 1 1 1 1 1 1 1 1 1 0 1 0 1 1 1 @17 NEW_SIMPLE_ATTRIB 1 @9 ENTITY_ID 0 3 19 6148892 1 #
simple-snl-attrib $-1 -1 $352 $152 $103 1 1 1 1 1 1 1 1 1 1 1 1 0 1 0 1 1 1 @17 NEW_SIMPLE_ATTRIB 1 @9 UNIQUE_ID 1 0 1 175281207 #
integer_attrib-name_attrib-gen-attrib $-1 -1 $353 $-1 $153 2 1 1 1 1 1 1 1 1 1 1 1 1 1 0 1 1 1 @8 CUBIT_ID 21 #
face $354 -1 -1 $-1 $-1 $168 $23 $-1 $270 reversed single T 25 -25 -25 25 25 25 F #
loop $-1 -1 -1 $-1 $-1 $259 $153 T -25 25 -25 25 25 25 unknown #
plane-surface $-1 -1 -1 $-1 0 25 0 0 -1 0 0 0 -1 forward_v I I I I #
coedge $-1 -1 -1 $-1 $355 $257 $260 $356 forward $154 $-1 #
coedge $-1 -1 -1 $-1 $264 $156 $157 $250 reversed $104 $-1 #
coedge $-1 -1 -1 $-1 $257 $355 $156 $248 reversed $154 $-1 #
edge $357 -1 -1 $-1 $266 -25 $358 25 $247 $359 forward @7 unknown T -25 -25 -25 -25 -25 25 #
coedge $-1 -1 -1 $-1 $158 $157 $355 $360 forward $76 $-1 #
edge $361 -1 -1 $-1 $255 -25 $358 25 $246 $362 forward @7 unknown T -25 -25 -25 25 -25 -25 #
coedge $-1 -1 -1 $-1 $260 $259 $158 $252 reversed $243 $-1 #
edge $363 -1 -1 $-1 $364 -25 $254 25 $251 $365 forward @7 unknown T -25 25 -25 25 25 -25 #
integer_attrib-name_attrib-gen-attrib $-1 -1 $366 $-1 $160 2 1 1 1 1 1 1 1 1 1 1 1 1 1 0 1 1 1 @8 CUBIT_ID 29 #
vertex $367 -1 -1 $-1 $160 $368 #
vertex $369 -1 -1 $-1 $268 $370 #
straight-curve $-1 -1 -1 $-1 25 0 -25 0 -1 0 I I #
coedge $-1 -1 -1 $-1 $245 $247 $161 $258 reversed $154 $-1 #
edge $371 -1 -1 $-1 $262 -25 $266 25 $257 $372 forward @7 unknown T -25 -25 25 -25 25 25 #
coedge $-1 -1 -1 $-1 $251 $162 $167 $269 forward $243 $-1 #
coedge $-1 -1 -1 $-1 $162 $251 $245 $356 reversed $243 $-1 #
integer_attrib-name_attrib-gen-attrib $-1 -1 $373 $-1 $163 2 1 1 1 1 1 1 1 1 1 1 1 1 1 0 1 1 1 @8 CUBIT_ID 28 #
vertex $374 -1 -1 $-1 $163 $375 #
straight-curve $-1 -1 -1 $-1 0 25 25 -1 0 0 I I #
coedge $-1 -1 -1 $-1 $164 $246 $166 $268 reversed $104 $-1 #
integer_attrib-name_attrib-gen-attrib $-1 -1 $376 $-1 $165 2 1 1 1 1 1 1 1 1 1 1 1 1 1 0 1 1 1 @8 CUBIT_ID 26 #
vertex $377 -1 -1 $-1 $258 $378 #
straight-curve $-1 -1 -1 $-1 0 -25 25 1 0 0 I I #
edge $379 -1 -1 $-1 $170 -25 $255 25 $166 $380 forward @7 unknown T 25 -25 -25 25 -25 25 #
edge $381 -1 -1 $-1 $171 -25 $254 25 $167 $382 forward @7 unknown T 25 25 -25 25 25 25 #
plane-surface $-1 -1 -1 $-1 25 0 0 -1 0 0 0 -0 1 forward_v I I I I #
simple-snl-attrib $-1 -1 $383 $169 $110 1 1 1 1 1 1 1 1 1 1 1 1 0 1 0 1 1 1 @17 NEW_SIMPLE_ATTRIB 1 @9 ENTITY_ID 0 3 25 1340825946 0 #
integer_attrib-name_attrib-gen-attrib $-1 -1 $384 $-1 $170 2 1 1 1 1 1 1 1 1 1 1 1 1 1 0 1 1 1 @8 CUBIT_ID 17 #
point $-1 -1 -1 $-1 25 -25 25 #
integer_attrib-name_attrib-gen-attrib $-1 -1 $385 $-1 $171 2 1 1 1 1 1 1 1 1 1 1 1 1 1 0 1 1 1 @8 CUBIT_ID 18 #
point $-1 -1 -1 $-1 25 25 25 #
simple-snl-attrib $-1 -1 $-1 $174 $39 1 1 1 1 1 1 1 1 1 1 1 1 0 1 0 1 1 1 @17 NEW_SIMPLE_ATTRIB 3 @13 MESH_INTERVAL @4 LIMP @4 LIMP 2 1 0 5 1 0 0 1 1 #
simple-snl-attrib $-1 -1 $-1 $176 $43 1 1 1 1 1 1 1 1 1 1 1 1 0 1 0 1 1 1 @17 NEW_SIMPLE_ATTRIB 3 @13 MESH_INTERVAL @4 LIMP @4 LIMP 2 1 0 5 1 0 0 1 1 #
simple-snl-attrib $-1 -1 $386 $177 $62 1 1 1 1 1 1 1 1 1 1 1 1 0 1 0 1 1 1 @17 NEW_SIMPLE_ATTRIB 1 @13 MERGE_PARTNER 0 4 1874543462 1 18 1 #
simple-snl-attrib $-1 -1 $387 $178 $84 1 1 1 1 1 1 1 1 1 1 1 1 0 1 0 1 1 1 @17 NEW_SIMPLE_ATTRIB 1 @9 ENTITY_ID 0 3 19 6148892 1 #
simple-snl-attrib $-1 -1 $388 $179 $117 1 1 1 1 1 1 1 1 1 1 1 1 0 1 0 1 1 1 @17 NEW_SIMPLE_ATTRIB 1 @9 UNIQUE_ID 1 0 1 175281207 #
integer_attrib-name_attrib-gen-attrib $-1 -1 $389 $-1 $180 2 1 1 1 1 1 1 1 1 1 1 1 1 1 0 1 1 1 @8 CUBIT_ID 21 #
face $390 -1 -1 $-1 $-1 $195 $30 $-1 $391 forward single T 25 -25 -25 25 25 25 F #
loop $-1 -1 -1 $-1 $-1 $304 $180 T -25 25 -25 25 25 25 unknown #
plane-surface $-1 -1 -1 $-1 0 25 0 0 -1 0 0 0 -1 forward_v I I I I #
coedge $-1 -1 -1 $-1 $297 $392 $303 $393 reversed $181 $-1 #
coedge $-1 -1 -1 $-1 $183 $299 $185 $292 forward $118 $-1 #
coedge $-1 -1 -1 $-1 $392 $297 $183 $288 forward $181 $-1 #
edge $394 -1 -1 $-1 $301 -25 $395 25 $287 $396 forward @7 unknown T -25 -25 -25 -25 -25 25 #
coedge $-1 -1 -1 $-1 $185 $184 $392 $397 reversed $85 $-1 #
coedge $-1 -1 -1 $-1 $304 $303 $184 $291 forward $283 $-1 #
edge $398 -1 -1 $-1 $399 -25 $294 25 $290 $400 forward @7 unknown T -25 25 -25 25 25 -25 #
edge $401 -1 -1 $-1 $295 -25 $395 25 $286 $402 forward @7 unknown T -25 -25 -25 25 -25 -25 #
integer_attrib-name_attrib-gen-attrib $-1 -1 $403 $-1 $187 2 1 1 1 1 1 1 1 1 1 1 1 1 1 0 1 1 1 @8 CUBIT_ID 29 #
vertex $404 -1 -1 $-1 $187 $405 #
vertex $406 -1 -1 $-1 $309 $407 #
straight-curve $-1 -1 -1 $-1 25 0 -25 0 -1 0 I I #
coedge $-1 -1 -1 $-1 $287 $285 $188 $298 forward $181 $-1 #
edge $408 -1 -1 $-1 $306 -25 $301 25 $297 $409 forward @7 unknown T -25 -25 25 -25 25 25 #
coedge $-1 -1 -1 $-1 $286 $189 $194 $309 forward $118 $-1 #
integer_attrib-name_attrib-gen-attrib $-1 -1 $410 $-1 $190 2 1 1 1 1 1 1 1 1 1 1 1 1 1 0 1 1 1 @8 CUBIT_ID 26 #
vertex $411 -1 -1 $-1 $298 $412 #
straight-curve $-1 -1 -1 $-1 0 -25 25 1 0 0 I I #
coedge $-1 -1 -1 $-1 $290 $191 $285 $393 forward $283 $-1 #
coedge $-1 -1 -1 $-1 $191 $290 $193 $308 reversed $283 $-1 #
integer_attrib-name_attrib-gen-attrib $-1 -1 $413 $-1 $192 2 1 1 1 1 1 1 1 1 1 1 1 1 1 0 1 1 1 @8 CUBIT_ID 28 #
vertex $414 -1 -1 $-1 $192 $415 #
straight-curve $-1 -1 -1 $-1 0 25 25 -1 0 0 I I #
edge $416 -1 -1 $-1 $198 -25 $294 25 $193 $417 forward @7 unknown T 25 25 -25 25 25 25 #
edge $418 -1 -1 $-1 $197 -25 $295 25 $194 $419 forward @7 unknown T 25 -25 -25 25 -25 25 #
simple-snl-attrib $-1 -1 $420 $196 $124 1 1 1 1 1 1 1 1 1 1 1 1 0 1 0 1 1 1 @17 NEW_SIMPLE_ATTRIB 1 @9 ENTITY_ID 0 3 25 1340825946 0 #
integer_attrib-name_attrib-gen-attrib $-1 -1 $421 $-1 $197 2 1 1 1 1 1 1 1 1 1 1 1 1 1 0 1 1 1 @8 CUBIT_ID 17 #
point $-1 -1 -1 $-1 25 -25 25 #
integer_attrib-name_attrib-gen-attrib $-1 -1 $422 $-1 $198 2 1 1 1 1 1 1 1 1 1 1 1 1 1 0 1 1 1 @8 CUBIT_ID 18 #
point $-1 -1 -1 $-1 25 25 25 #
simple-snl-attrib $-1 -1 $-1 $201 $91 1 1 1 1 1 1 1 1 1 1 1 1 0 1 0 1 1 1 @17 NEW_SIMPLE_ATTRIB 3 @13 MESH_INTERVAL @4 LIMP @4 LIMP 2 1 0 5 1 0 0 1 1 #
simple-snl-attrib $-1 -1 $423 $202 $128 1 1 1 1 1 1 1 1 1 1 1 1 0 1 0 1 1 1 @17 NEW_SIMPLE_ATTRIB 1 @9 ENTITY_ID 0 3 15 -2147483648 -1 #
integer_attrib-name_attrib-gen-attrib $-1 -1 $424 $-1 $203 2 1 1 1 1 1 1 1 1 1 1 1 1 1 0 1 1 1 @8 CUBIT_ID 16 #
plane-surface $-1 -1 -1 $-1 27.5 0 0 -1 0 0 0 -0 1 forward_v I I I I #
coedge $-1 -1 -1 $-1 $208 $206 $210 $324 reversed $129 $-1 #
edge $425 -1 -1 $-1 $223 -27.5 $328 27.5 $221 $426 forward @7 unknown T -27.5 27.5 -27.5 -27.5 27.5 27.5 #
integer_attrib-name_attrib-gen-attrib $-1 -1 $427 $-1 $209 2 1 1 1 1 1 1 1 1 1 1 1 1 1 0 1 1 1 @8 CUBIT_ID 21 #
vertex $428 -1 -1 $-1 $324 $429 #
straight-curve $-1 -1 -1 $-1 -27.5 -27.5 0 0 0 -1 I I #
edge $430 -1 -1 $-1 $322 -27.5 $328 27.5 $319 $431 forward @7 unknown T -27.5 -27.5 -27.5 -27.5 27.5 -27.5 #
integer_attrib-name_attrib-gen-attrib $-1 -1 $432 $-1 $211 2 1 1 1 1 1 1 1 1 1 1 1 1 1 0 1 1 1 @8 CUBIT_ID 18 #
straight-curve $-1 -1 -1 $-1 0 -27.5 -27.5 -1 0 0 I I #
integer_attrib-name_attrib-gen-attrib $-1 -1 $433 $-1 $213 2 1 1 1 1 1 1 1 1 1 1 1 1 1 0 1 1 1 @8 CUBIT_ID 20 #
vertex $434 -1 -1 $-1 $213 $435 #
straight-curve $-1 -1 -1 $-1 0 27.5 -27.5 1 0 0 I I #
simple-snl-attrib $-1 -1 $-1 $214 $135 1 1 1 1 1 1 1 1 1 1 1 1 0 1 0 1 1 1 @17 NEW_SIMPLE_ATTRIB 1 @9 ENTITY_ID 0 3 17 -2147483648 -1 #
integer_attrib-name_attrib-gen-attrib $-1 -1 $436 $-1 $215 2 1 1 1 1 1 1 1 1 1 1 1 1 1 0 1 1 1 @8 CUBIT_ID 13 #
point $-1 -1 -1 $-1 27.5 27.5 -27.5 #
integer_attrib-name_attrib-gen-attrib $-1 -1 $437 $-1 $216 2 1 1 1 1 1 1 1 1 1 1 1 1 1 0 1 1 1 @8 CUBIT_ID 14 #
point $-1 -1 -1 $-1 27.5 -27.5 -27.5 #
integer_attrib-name_attrib-gen-attrib $-1 -1 $438 $-1 $219 2 1 1 1 1 1 1 1 1 1 1 1 1 1 0 1 1 1 @8 CUBIT_ID 15 #
straight-curve $-1 -1 -1 $-1 -27.5 0 27.5 0 -1 0 I I #
simple-snl-attrib $-1 -1 $-1 $222 $138 1 1 1 1 1 1 1 1 1 1 1 1 0 1 0 1 1 1 @17 NEW_SIMPLE_ATTRIB 1 @9 ENTITY_ID 0 3 14 -2147483648 -1 #
integer_attrib-name_attrib-gen-attrib $-1 -1 $439 $-1 $223 2 1 1 1 1 1 1 1 1 1 1 1 1 1 0 1 1 1 @8 CUBIT_ID 11 #
point $-1 -1 -1 $-1 -27.5 27.5 27.5 #
simple-snl-attrib $-1 -1 $-1 $226 $140 1 1 1 1 1 1 1 1 1 1 1 1 0 1 0 1 1 1 @17 NEW_SIMPLE_ATTRIB 1 @9 ENTITY_ID 0 3 16 -2147483648 -1 #
integer_attrib-name_attrib-gen-attrib $-1 -1 $440 $-1 $227 2 1 1 1 1 1 1 1 1 1 1 1 1 1 0 1 1 1 @8 CUBIT_ID 12 #
point $-1 -1 -1 $-1 -27.5 -27.5 27.5 #
integer_attrib-name_attrib-gen-attrib $-1 -1 $441 $-1 $229 2 1 1 1 1 1 1 1 1 1 1 1 1 1 0 1 1 1 @8 CUBIT_ID 22 #
straight-curve $-1 -1 -1 $-1 27.5 -27.5 0 0 0 -1 I I #
integer_attrib-name_attrib-gen-attrib $-1 -1 $442 $-1 $230 2 1 1 1 1 1 1 1 1 1 1 1 1 1 0 1 1 1 @8 CUBIT_ID 24 #
straight-curve $-1 -1 -1 $-1 27.5 27.5 0 0 0 -1 I I #
simple-snl-attrib $-1 -1 $-1 $232 $145 1 1 1 1 1 1 1 1 1 1 1 1 0 1 0 1 1 1 @17 NEW_SIMPLE_ATTRIB 1 @9 ENTITY_ID 0 3 9 -2147483648 -1 #
simple-snl-attrib $-1 -1 $-1 $234 $146 1 1 1 1 1 1 1 1 1 1 1 1 0 1 0 1 1 1 @17 NEW_SIMPLE_ATTRIB 1 @9 ENTITY_ID 0 3 10 -2147483648 -1 #
simple-snl-attrib $-1 -1 $-1 $236 $49 1 1 1 1 1 1 1 1 1 1 1 1 0 1 0 1 1 1 @17 NEW_SIMPLE_ATTRIB 3 @13 MESH_INTERVAL @4 LIMP @4 LIMP 2 1 0 5 1 0 0 1 1 #
simple-snl-attrib $-1 -1 $-1 $238 $51 1 1 1 1 1 1 1 1 1 1 1 1 0 1 0 1 1 1 @17 NEW_SIMPLE_ATTRIB 3 @13 MESH_INTERVAL @4 LIMP @4 LIMP 2 1 0 5 1 0 0 1 1 #
simple-snl-attrib $-1 -1 $443 $239 $75 1 1 1 1 1 1 1 1 1 1 1 1 0 1 0 1 1 1 @17 NEW_SIMPLE_ATTRIB 1 @13 MERGE_PARTNER 0 4 1024183900 -1 31 0 #
simple-snl-attrib $-1 -1 $444 $240 $103 1 1 1 1 1 1 1 1 1 1 1 1 0 1 0 1 1 1 @17 NEW_SIMPLE_ATTRIB 1 @9 ENTITY_ID 0 3 20 823390300 1 #
simple-snl-attrib $-1 -1 $445 $241 $153 1 1 1 1 1 1 1 1 1 1 1 1 0 1 0 1 1 1 @17 NEW_SIMPLE_ATTRIB 1 @9 UNIQUE_ID 1 0 1 1410860328 #
integer_attrib-name_attrib-gen-attrib $-1 -1 $446 $-1 $242 2 1 1 1 1 1 1 1 1 1 1 1 1 1 0 1 1 1 @8 CUBIT_ID 22 #
coedge $-1 -1 -1 $-1 $247 $245 $249 $360 reversed $154 $-1 #
edge $447 -1 -1 $-1 $262 -25 $364 25 $260 $448 forward @7 unknown T -25 25 -25 -25 25 25 #
integer_attrib-name_attrib-gen-attrib $-1 -1 $449 $-1 $248 2 1 1 1 1 1 1 1 1 1 1 1 1 1 0 1 1 1 @8 CUBIT_ID 33 #
vertex $450 -1 -1 $-1 $360 $451 #
straight-curve $-1 -1 -1 $-1 -25 -25 0 0 0 -1 I I #
edge $452 -1 -1 $-1 $358 -25 $364 25 $355 $453 forward @7 unknown T -25 -25 -25 -25 25 -25 #
integer_attrib-name_attrib-gen-attrib $-1 -1 $454 $-1 $250 2 1 1 1 1 1 1 1 1 1 1 1 1 1 0 1 1 1 @8 CUBIT_ID 32 #
straight-curve $-1 -1 -1 $-1 0 -25 -25 -1 0 0 I I #
integer_attrib-name_attrib-gen-attrib $-1 -1 $455 $-1 $252 2 1 1 1 1 1 1 1 1 1 1 1 1 1 0 1 1 1 @8 CUBIT_ID 30 #
vertex $456 -1 -1 $-1 $252 $457 #
straight-curve $-1 -1 -1 $-1 0 25 -25 1 0 0 I I #
simple-snl-attrib $-1 -1 $458 $253 $160 1 1 1 1 1 1 1 1 1 1 1 1 0 1 0 1 1 1 @17 NEW_SIMPLE_ATTRIB 1 @9 ENTITY_ID 0 3 29 988367580 0 #
integer_attrib-name_attrib-gen-attrib $-1 -1 $459 $-1 $254 2 1 1 1 1 1 1 1 1 1 1 1 1 1 0 1 1 1 @8 CUBIT_ID 21 #
point $-1 -1 -1 $-1 25 25 -25 #
integer_attrib-name_attrib-gen-attrib $-1 -1 $460 $-1 $255 2 1 1 1 1 1 1 1 1 1 1 1 1 1 0 1 1 1 @8 CUBIT_ID 22 #
point $-1 -1 -1 $-1 25 -25 -25 #
integer_attrib-name_attrib-gen-attrib $-1 -1 $461 $-1 $258 2 1 1 1 1 1 1 1 1 1 1 1 1 1 0 1 1 1 @8 CUBIT_ID 27 #
straight-curve $-1 -1 -1 $-1 -25 0 25 0 -1 0 I I #
simple-snl-attrib $-1 -1 $462 $261 $163 1 1 1 1 1 1 1 1 1 1 1 1 0 1 0 1 1 1 @17 NEW_SIMPLE_ATTRIB 1 @9 UNIQUE_ID 1 0 1 473126202 #
integer_attrib-name_attrib-gen-attrib $-1 -1 $463 $-1 $262 2 1 1 1 1 1 1 1 1 1 1 1 1 1 0 1 1 1 @8 CUBIT_ID 20 #
point $-1 -1 -1 $-1 -25 25 25 #
simple-snl-attrib $-1 -1 $464 $265 $165 1 1 1 1 1 1 1 1 1 1 1 1 0 1 0 1 1 1 @17 NEW_SIMPLE_ATTRIB 1 @9 UNIQUE_ID 1 0 1 1180010250 #
integer_attrib-name_attrib-gen-attrib $-1 -1 $465 $-1 $266 2 1 1 1 1 1 1 1 1 1 1 1 1 1 0 1 1 1 @8 CUBIT_ID 19 #
point $-1 -1 -1 $-1 -25 -25 25 #
integer_attrib-name_attrib-gen-attrib $-1 -1 $466 $-1 $268 2 1 1 1 1 1 1 1 1 1 1 1 1 1 0 1 1 1 @8 CUBIT_ID 34 #
straight-curve $-1 -1 -1 $-1 25 -25 0 0 0 -1 I I #
integer_attrib-name_attrib-gen-attrib $-1 -1 $467 $-1 $269 2 1 1 1 1 1 1 1 1 1 1 1 1 1 0 1 1 1 @8 CUBIT_ID 36 #
straight-curve $-1 -1 -1 $-1 25 25 0 0 0 -1 I I #
simple-snl-attrib $-1 -1 $468 $271 $110 1 1 1 1 1 1 1 1 1 1 1 1 0 1 0 1 1 1 @17 NEW_SIMPLE_ATTRIB 1 @13 MERGE_PARTNER 0 4 2084367992 1 49 0 #
simple-snl-attrib $-1 -1 $469 $272 $170 1 1 1 1 1 1 1 1 1 1 1 1 0 1 0 1 1 1 @17 NEW_SIMPLE_ATTRIB 1 @9 ENTITY_ID 0 3 17 -2147483648 -1 #
simple-snl-attrib $-1 -1 $470 $274 $171 1 1 1 1 1 1 1 1 1 1 1 1 0 1 0 1 1 1 @17 NEW_SIMPLE_ATTRIB 1 @9 ENTITY_ID 0 3 18 -2147483648 -1 #
simple-snl-attrib $-1 -1 $-1 $278 $62 1 1 1 1 1 1 1 1 1 1 1 1 0 1 0 1 1 1 @17 NEW_SIMPLE_ATTRIB 3 @13 MESH_INTERVAL @4 LIMP @4 LIMP 2 1 0 5 1 0 0 1 1 #
simple-snl-attrib $-1 -1 $471 $279 $84 1 1 1 1 1 1 1 1 1 1 1 1 0 1 0 1 1 1 @17 NEW_SIMPLE_ATTRIB 1 @13 MERGE_PARTNER 0 4 1024183900 1 19 1 #
simple-snl-attrib $-1 -1 $472 $280 $117 1 1 1 1 1 1 1 1 1 1 1 1 0 1 0 1 1 1 @17 NEW_SIMPLE_ATTRIB 1 @9 ENTITY_ID 0 3 20 823390300 1 #
simple-snl-attrib $-1 -1 $473 $281 $180 1 1 1 1 1 1 1 1 1 1 1 1 0 1 0 1 1 1 @17 NEW_SIMPLE_ATTRIB 1 @9 UNIQUE_ID 1 0 1 1410860328 #
integer_attrib-name_attrib-gen-attrib $-1 -1 $474 $-1 $282 2 1 1 1 1 1 1 1 1 1 1 1 1 1 0 1 1 1 @8 CUBIT_ID 22 #
plane-surface $-1 -1 -1 $-1 25 0 0 -1 0 0 0 -0 1 forward_v I I I I #
coedge $-1 -1 -1 $-1 $285 $287 $289 $397 forward $181 $-1 #
edge $475 -1 -1 $-1 $306 -25 $399 25 $303 $476 forward @7 unknown T -25 25 -25 -25 25 25 #
integer_attrib-name_attrib-gen-attrib $-1 -1 $477 $-1 $288 2 1 1 1 1 1 1 1 1 1 1 1 1 1 0 1 1 1 @8 CUBIT_ID 33 #
vertex $478 -1 -1 $-1 $397 $479 #
straight-curve $-1 -1 -1 $-1 -25 -25 0 0 0 -1 I I #
edge $480 -1 -1 $-1 $395 -25 $399 25 $392 $481 forward @7 unknown T -25 -25 -25 -25 25 -25 #
integer_attrib-name_attrib-gen-attrib $-1 -1 $482 $-1 $291 2 1 1 1 1 1 1 1 1 1 1 1 1 1 0 1 1 1 @8 CUBIT_ID 30 #
vertex $483 -1 -1 $-1 $291 $484 #
straight-curve $-1 -1 -1 $-1 0 25 -25 1 0 0 I I #
integer_attrib-name_attrib-gen-attrib $-1 -1 $485 $-1 $292 2 1 1 1 1 1 1 1 1 1 1 1 1 1 0 1 1 1 @8 CUBIT_ID 32 #
straight-curve $-1 -1 -1 $-1 0 -25 -25 -1 0 0 I I #
simple-snl-attrib $-1 -1 $486 $293 $187 1 1 1 1 1 1 1 1 1 1 1 1 0 1 0 1 1 1 @17 NEW_SIMPLE_ATTRIB 1 @9 ENTITY_ID 0 3 29 988367580 0 #
integer_attrib-name_attrib-gen-attrib $-1 -1 $487 $-1 $294 2 1 1 1 1 1 1 1 1 1 1 1 1 1 0 1 1 1 @8 CUBIT_ID 21 #
point $-1 -1 -1 $-1 25 25 -25 #
integer_attrib-name_attrib-gen-attrib $-1 -1 $488 $-1 $295 2 1 1 1 1 1 1 1 1 1 1 1 1 1 0 1 1 1 @8 CUBIT_ID 22 #
point $-1 -1 -1 $-1 25 -25 -25 #
integer_attrib-name_attrib-gen-attrib $-1 -1 $489 $-1 $298 2 1 1 1 1 1 1 1 1 1 1 1 1 1 0 1 1 1 @8 CUBIT_ID 27 #
straight-curve $-1 -1 -1 $-1 -25 0 25 0 -1 0 I I #
simple-snl-attrib $-1 -1 $490 $300 $190 1 1 1 1 1 1 1 1 1 1 1 1 0 1 0 1 1 1 @17 NEW_SIMPLE_ATTRIB 1 @9 UNIQUE_ID 1 0 1 1180010250 #
integer_attrib-name_attrib-gen-attrib $-1 -1 $491 $-1 $301 2 1 1 1 1 1 1 1 1 1 1 1 1 1 0 1 1 1 @8 CUBIT_ID 19 #
point $-1 -1 -1 $-1 -25 -25 25 #
simple-snl-attrib $-1 -1 $492 $305 $192 1 1 1 1 1 1 1 1 1 1 1 1 0 1 0 1 1 1 @17 NEW_SIMPLE_ATTRIB 1 @9 UNIQUE_ID 1 0 1 473126202 #
integer_attrib-name_attrib-gen-attrib $-1 -1 $493 $-1 $306 2 1 1 1 1 1 1 1 1 1 1 1 1 1 0 1 1 1 @8 CUBIT_ID 20 #
point $-1 -1 -1 $-1 -25 25 25 #
integer_attrib-name_attrib-gen-attrib $-1 -1 $494 $-1 $308 2 1 1 1 1 1 1 1 1 1 1 1 1 1 0 1 1 1 @8 CUBIT_ID 36 #
straight-curve $-1 -1 -1 $-1 25 25 0 0 0 -1 I I #
integer_attrib-name_attrib-gen-attrib $-1 -1 $495 $-1 $309 2 1 1 1 1 1 1 1 1 1 1 1 1 1 0 1 1 1 @8 CUBIT_ID 34 #
straight-curve $-1 -1 -1 $-1 25 -25 0 0 0 -1 I I #
simple-snl-attrib $-1 -1 $496 $310 $124 1 1 1 1 1 1 1 1 1 1 1 1 0 1 0 1 1 1 @17 NEW_SIMPLE_ATTRIB 1 @13 MERGE_PARTNER 0 4 2084367992 1 25 1 #
simple-snl-attrib $-1 -1 $497 $311 $197 1 1 1 1 1 1 1 1 1 1 1 1 0 1 0 1 1 1 @17 NEW_SIMPLE_ATTRIB 1 @9 ENTITY_ID 0 3 17 -2147483648 -1 #
simple-snl-attrib $-1 -1 $498 $313 $198 1 1 1 1 1 1 1 1 1 1 1 1 0 1 0 1 1 1 @17 NEW_SIMPLE_ATTRIB 1 @9 ENTITY_ID 0 3 18 -2147483648 -1 #
simple-snl-attrib $-1 -1 $-1 $316 $128 1 1 1 1 1 1 1 1 1 1 1 1 0 1 0 1 1 1 @17 NEW_SIMPLE_ATTRIB 3 @13 MESH_INTERVAL @4 LIMP @4 LIMP 2 1 0 5 1 0 0 1 1 #
simple-snl-attrib $-1 -1 $499 $317 $203 1 1 1 1 1 1 1 1 1 1 1 1 0 1 0 1 1 1 @17 NEW_SIMPLE_ATTRIB 1 @9 ENTITY_ID 0 3 16 -2147483648 -1 #
integer_attrib-name_attrib-gen-attrib $-1 -1 $500 $-1 $320 2 1 1 1 1 1 1 1 1 1 1 1 1 1 0 1 1 1 @8 CUBIT_ID 23 #
straight-curve $-1 -1 -1 $-1 -27.5 27.5 0 0 0 -1 I I #
simple-snl-attrib $-1 -1 $-1 $321 $209 1 1 1 1 1 1 1 1 1 1 1 1 0 1 0 1 1 1 @17 NEW_SIMPLE_ATTRIB 1 @9 ENTITY_ID 0 3 21 -2147483648 -1 #
integer_attrib-name_attrib-gen-attrib $-1 -1 $501 $-1 $322 2 1 1 1 1 1 1 1 1 1 1 1 1 1 0 1 1 1 @8 CUBIT_ID 15 #
point $-1 -1 -1 $-1 -27.5 -27.5 -27.5 #
integer_attrib-name_attrib-gen-attrib $-1 -1 $502 $-1 $324 2 1 1 1 1 1 1 1 1 1 1 1 1 1 0 1 1 1 @8 CUBIT_ID 19 #
straight-curve $-1 -1 -1 $-1 -27.5 0 -27.5 0 1 0 I I #
simple-snl-attrib $-1 -1 $-1 $325 $211 1 1 1 1 1 1 1 1 1 1 1 1 0 1 0 1 1 1 @17 NEW_SIMPLE_ATTRIB 1 @9 ENTITY_ID 0 3 18 -2147483648 -1 #
simple-snl-attrib $-1 -1 $-1 $327 $213 1 1 1 1 1 1 1 1 1 1 1 1 0 1 0 1 1 1 @17 NEW_SIMPLE_ATTRIB 1 @9 ENTITY_ID 0 3 20 -2147483648 -1 #
integer_attrib-name_attrib-gen-attrib $-1 -1 $503 $-1 $328 2 1 1 1 1 1 1 1 1 1 1 1 1 1 0 1 1 1 @8 CUBIT_ID 16 #
point $-1 -1 -1 $-1 -27.5 27.5 -27.5 #
simple-snl-attrib $-1 -1 $-1 $331 $215 1 1 1 1 1 1 1 1 1 1 1 1 0 1 0 1 1 1 @17 NEW_SIMPLE_ATTRIB 1 @9 ENTITY_ID 0 3 13 -2147483648 -1 #
simple-snl-attrib $-1 -1 $-1 $333 $216 1 1 1 1 1 1 1 1 1 1 1 1 0 1 0 1 1 1 @17 NEW_SIMPLE_ATTRIB 1 @9 ENTITY_ID 0 3 14 -2147483648 -1 #
simple-snl-attrib $-1 -1 $-1 $335 $219 1 1 1 1 1 1 1 1 1 1 1 1 0 1 0 1 1 1 @17 NEW_SIMPLE_ATTRIB 1 @9 ENTITY_ID 0 3 15 -2147483648 -1 #
simple-snl-attrib $-1 -1 $-1 $338 $223 1 1 1 1 1 1 1 1 1 1 1 1 0 1 0 1 1 1 @17 NEW_SIMPLE_ATTRIB 1 @9 ENTITY_ID 0 3 11 -2147483648 -1 #
simple-snl-attrib $-1 -1 $-1 $341 $227 1 1 1 1 1 1 1 1 1 1 1 1 0 1 0 1 1 1 @17 NEW_SIMPLE_ATTRIB 1 @9 ENTITY_ID 0 3 12 -2147483648 -1 #
simple-snl-attrib $-1 -1 $-1 $343 $229 1 1 1 1 1 1 1 1 1 1 1 1 0 1 0 1 1 1 @17 NEW_SIMPLE_ATTRIB 1 @9 ENTITY_ID 0 3 22 -2147483648 -1 #
simple-snl-attrib $-1 -1 $-1 $345 $230 1 1 1 1 1 1 1 1 1 1 1 1 0 1 0 1 1 1 @17 NEW_SIMPLE_ATTRIB 1 @9 ENTITY_ID 0 3 24 -2147483648 -1 #
simple-snl-attrib $-1 -1 $-1 $351 $75 1 1 1 1 1 1 1 1 1 1 1 1 0 1 0 1 1 1 @17 NEW_SIMPLE_ATTRIB 3 @13 MESH_INTERVAL @4 LIMP @4 LIMP 2 1 0 5 1 0 0 1 1 #
simple-snl-attrib $-1 -1 $504 $352 $103 1 1 1 1 1 1 1 1 1 1 1 1 0 1 0 1 1 1 @17 NEW_SIMPLE_ATTRIB 1 @13 MERGE_PARTNER 0 4 175281207 -1 32 0 #
simple-snl-attrib $-1 -1 $505 $353 $153 1 1 1 1 1 1 1 1 1 1 1 1 0 1 0 1 1 1 @17 NEW_SIMPLE_ATTRIB 1 @9 ENTITY_ID 0 3 21 537029179 1 #
simple-snl-attrib $-1 -1 $506 $354 $242 1 1 1 1 1 1 1 1 1 1 1 1 0 1 0 1 1 1 @17 NEW_SIMPLE_ATTRIB 1 @9 UNIQUE_ID 1 0 1 35853092 #
integer_attrib-name_attrib-gen-attrib $-1 -1 $507 $-1 $356 2 1 1 1 1 1 1 1 1 1 1 1 1 1 0 1 1 1 @8 CUBIT_ID 35 #
straight-curve $-1 -1 -1 $-1 -25 25 0 0 0 -1 I I #
simple-snl-attrib $-1 -1 $508 $357 $248 1 1 1 1 1 1 1 1 1 1 1 1 0 1 0 1 1 1 @17 NEW_SIMPLE_ATTRIB 1 @9 ENTITY_ID 0 3 33 1466405394 0 #
integer_attrib-name_attrib-gen-attrib $-1 -1 $509 $-1 $358 2 1 1 1 1 1 1 1 1 1 1 1 1 1 0 1 1 1 @8 CUBIT_ID 24 #
point $-1 -1 -1 $-1 -25 -25 -25 #
integer_attrib-name_attrib-gen-attrib $-1 -1 $510 $-1 $360 2 1 1 1 1 1 1 1 1 1 1 1 1 1 0 1 1 1 @8 CUBIT_ID 31 #
straight-curve $-1 -1 -1 $-1 -25 0 -25 0 1 0 I I #
simple-snl-attrib $-1 -1 $511 $361 $250 1 1 1 1 1 1 1 1 1 1 1 1 0 1 0 1 1 1 @17 NEW_SIMPLE_ATTRIB 1 @9 UNIQUE_ID 1 0 1 1326005546 #
simple-snl-attrib $-1 -1 $512 $363 $252 1 1 1 1 1 1 1 1 1 1 1 1 0 1 0 1 1 1 @17 NEW_SIMPLE_ATTRIB 1 @9 UNIQUE_ID 1 0 1 993590109 #
integer_attrib-name_attrib-gen-attrib $-1 -1 $513 $-1 $364 2 1 1 1 1 1 1 1 1 1 1 1 1 1 0 1 1 1 @8 CUBIT_ID 23 #
point $-1 -1 -1 $-1 -25 25 -25 #
simple-snl-attrib $-1 -1 $514 $366 $160 1 1 1 1 1 1 1 1 1 1 1 1 0 1 0 1 1 1 @17 NEW_SIMPLE_ATTRIB 1 @13 MERGE_PARTNER 0 4 1041500053 1 53 0 #
simple-snl-attrib $-1 -1 $515 $367 $254 1 1 1 1 1 1 1 1 1 1 1 1 0 1 0 1 1 1 @17 NEW_SIMPLE_ATTRIB 1 @9 ENTITY_ID 0 3 21 -2147483648 -1 #
simple-snl-attrib $-1 -1 $516 $369 $255 1 1 1 1 1 1 1 1 1 1 1 1 0 1 0 1 1 1 @17 NEW_SIMPLE_ATTRIB 1 @9 ENTITY_ID 0 3 22 -2147483648 -1 #
simple-snl-attrib $-1 -1 $517 $371 $258 1 1 1 1 1 1 1 1 1 1 1 1 0 1 0 1 1 1 @17 NEW_SIMPLE_ATTRIB 1 @9 UNIQUE_ID 1 0 1 624725525 #
simple-snl-attrib $-1 -1 $518 $373 $163 1 1 1 1 1 1 1 1 1 1 1 1 0 1 0 1 1 1 @17 NEW_SIMPLE_ATTRIB 1 @9 ENTITY_ID 0 3 28 1016994001 0 #
simple-snl-attrib $-1 -1 $519 $374 $262 1 1 1 1 1 1 1 1 1 1 1 1 0 1 0 1 1 1 @17 NEW_SIMPLE_ATTRIB 1 @9 ENTITY_ID 0 3 20 -2147483648 -1 #
simple-snl-attrib $-1 -1 $520 $376 $165 1 1 1 1 1 1 1 1 1 1 1 1 0 1 0 1 1 1 @17 NEW_SIMPLE_ATTRIB 1 @9 ENTITY_ID 0 3 26 1466405394 0 #
simple-snl-attrib $-1 -1 $521 $377 $266 1 1 1 1 1 1 1 1 1 1 1 1 0 1 0 1 1 1 @17 NEW_SIMPLE_ATTRIB 1 @9 ENTITY_ID 0 3 19 -2147483648 -1 #
simple-snl-attrib $-1 -1 $522 $379 $268 1 1 1 1 1 1 1 1 1 1 1 1 0 1 0 1 1 1 @17 NEW_SIMPLE_ATTRIB 1 @9 ENTITY_ID 0 3 34 1340825946 0 #
simple-snl-attrib $-1 -1 $523 $381 $269 1 1 1 1 1 1 1 1 1 1 1 1 0 1 0 1 1 1 @17 NEW_SIMPLE_ATTRIB 1 @9 ENTITY_ID 0 3 36 1016994001 0 #
simple-snl-attrib $-1 -1 $-1 $383 $110 1 1 1 1 1 1 1 1 1 1 1 1 0 1 0 1 1 1 @17 NEW_SIMPLE_ATTRIB 1 @9 UNIQUE_ID 1 0 1 2084367992 #
simple-snl-attrib $-1 -1 $524 $384 $170 1 1 1 1 1 1 1 1 1 1 1 1 0 1 0 1 1 1 @17 NEW_SIMPLE_ATTRIB 1 @13 MERGE_PARTNER 0 4 1340825946 1 33 0 #
simple-snl-attrib $-1 -1 $525 $385 $171 1 1 1 1 1 1 1 1 1 1 1 1 0 1 0 1 1 1 @17 NEW_SIMPLE_ATTRIB 1 @13 MERGE_PARTNER 0 4 1016994001 1 34 0 #
simple-snl-attrib $-1 -1 $-1 $387 $84 1 1 1 1 1 1 1 1 1 1 1 1 0 1 0 1 1 1 @17 NEW_SIMPLE_ATTRIB 3 @13 MESH_INTERVAL @4 LIMP @4 LIMP 2 1 0 5 1 0 0 1 1 #
simple-snl-attrib $-1 -1 $526 $388 $117 1 1 1 1 1 1 1 1 1 1 1 1 0 1 0 1 1 1 @17 NEW_SIMPLE_ATTRIB 1 @13 MERGE_PARTNER 0 4 175281207 1 20 1 #
simple-snl-attrib $-1 -1 $527 $389 $180 1 1 1 1 1 1 1 1 1 1 1 1 0 1 0 1 1 1 @17 NEW_SIMPLE_ATTRIB 1 @9 ENTITY_ID 0 3 21 537029179 1 #
simple-snl-attrib $-1 -1 $528 $390 $282 1 1 1 1 1 1 1 1 1 1 1 1 0 1 0 1 1 1 @17 NEW_SIMPLE_ATTRIB 1 @9 UNIQUE_ID 1 0 1 35853092 #
integer_attrib-name_attrib-gen-attrib $-1 -1 $529 $-1 $393 2 1 1 1 1 1 1 1 1 1 1 1 1 1 0 1 1 1 @8 CUBIT_ID 35 #
straight-curve $-1 -1 -1 $-1 -25 25 0 0 0 -1 I I #
simple-snl-attrib $-1 -1 $530 $394 $288 1 1 1 1 1 1 1 1 1 1 1 1 0 1 0 1 1 1 @17 NEW_SIMPLE_ATTRIB 1 @9 ENTITY_ID 0 3 33 1466405394 0 #
integer_attrib-name_attrib-gen-attrib $-1 -1 $531 $-1 $395 2 1 1 1 1 1 1 1 1 1 1 1 1 1 0 1 1 1 @8 CUBIT_ID 24 #
point $-1 -1 -1 $-1 -25 -25 -25 #
integer_attrib-name_attrib-gen-attrib $-1 -1 $532 $-1 $397 2 1 1 1 1 1 1 1 1 1 1 1 1 1 0 1 1 1 @8 CUBIT_ID 31 #
straight-curve $-1 -1 -1 $-1 -25 0 -25 0 1 0 I I #
simple-snl-attrib $-1 -1 $533 $398 $291 1 1 1 1 1 1 1 1 1 1 1 1 0 1 0 1 1 1 @17 NEW_SIMPLE_ATTRIB 1 @9 UNIQUE_ID 1 0 1 993590109 #
integer_attrib-name_attrib-gen-attrib $-1 -1 $534 $-1 $399 2 1 1 1 1 1 1 1 1 1 1 1 1 1 0 1 1 1 @8 CUBIT_ID 23 #
point $-1 -1 -1 $-1 -25 25 -25 #
simple-snl-attrib $-1 -1 $535 $401 $292 1 1 1 1 1 1 1 1 1 1 1 1 0 1 0 1 1 1 @17 NEW_SIMPLE_ATTRIB 1 @9 UNIQUE_ID 1 0 1 1326005546 #
simple-snl-attrib $-1 -1 $536 $403 $187 1 1 1 1 1 1 1 1 1 1 1 1 0 1 0 1 1 1 @17 NEW_SIMPLE_ATTRIB 1 @13 MERGE_PARTNER 0 4 1041500053 1 29 1 #
simple-snl-attrib $-1 -1 $537 $404 $294 1 1 1 1 1 1 1 1 1 1 1 1 0 1 0 1 1 1 @17 NEW_SIMPLE_ATTRIB 1 @9 ENTITY_ID 0 3 21 -2147483648 -1 #
simple-snl-attrib $-1 -1 $538 $406 $295 1 1 1 1 1 1 1 1 1 1 1 1 0 1 0 1 1 1 @17 NEW_SIMPLE_ATTRIB 1 @9 ENTITY_ID 0 3 22 -2147483648 -1 #
simple-snl-attrib $-1 -1 $539 $408 $298 1 1 1 1 1 1 1 1 1 1 1 1 0 1 0 1 1 1 @17 NEW_SIMPLE_ATTRIB 1 @9 UNIQUE_ID 1 0 1 624725525 #
simple-snl-attrib $-1 -1 $540 $410 $190 1 1 1 1 1 1 1 1 1 1 1 1 0 1 0 1 1 1 @17 NEW_SIMPLE_ATTRIB 1 @9 ENTITY_ID 0 3 26 1466405394 0 #
simple-snl-attrib $-1 -1 $541 $411 $301 1 1 1 1 1 1 1 1 1 1 1 1 0 1 0 1 1 1 @17 NEW_SIMPLE_ATTRIB 1 @9 ENTITY_ID 0 3 19 -2147483648 -1 #
simple-snl-attrib $-1 -1 $542 $413 $192 1 1 1 1 1 1 1 1 1 1 1 1 0 1 0 1 1 1 @17 NEW_SIMPLE_ATTRIB 1 @9 ENTITY_ID 0 3 28 1016994001 0 #
simple-snl-attrib $-1 -1 $543 $414 $306 1 1 1 1 1 1 1 1 1 1 1 1 0 1 0 1 1 1 @17 NEW_SIMPLE_ATTRIB 1 @9 ENTITY_ID 0 3 20 -2147483648 -1 #
simple-snl-attrib $-1 -1 $544 $416 $308 1 1 1 1 1 1 1 1 1 1 1 1 0 1 0 1 1 1 @17 NEW_SIMPLE_ATTRIB 1 @9 ENTITY_ID 0 3 36 1016994001 0 #
simple-snl-attrib $-1 -1 $545 $418 $309 1 1 1 1 1 1 1 1 1 1 1 1 0 1 0 1 1 1 @17 NEW_SIMPLE_ATTRIB 1 @9 ENTITY_ID 0 3 34 1340825946 0 #
simple-snl-attrib $-1 -1 $-1 $420 $124 1 1 1 1 1 1 1 1 1 1 1 1 0 1 0 1 1 1 @17 NEW_SIMPLE_ATTRIB 1 @9 UNIQUE_ID 1 0 1 2084367992 #
simple-snl-attrib $-1 -1 $546 $421 $197 1 1 1 1 1 1 1 1 1 1 1 1 0 1 0 1 1 1 @17 NEW_SIMPLE_ATTRIB 1 @13 MERGE_PARTNER 0 4 1340825946 1 17 1 #
simple-snl-attrib $-1 -1 $547 $422 $198 1 1 1 1 1 1 1 1 1 1 1 1 0 1 0 1 1 1 @17 NEW_SIMPLE_ATTRIB 1 @13 MERGE_PARTNER 0 4 1016994001 1 18 1 #
simple-snl-attrib $-1 -1 $-1 $424 $203 1 1 1 1 1 1 1 1 1 1 1 1 0 1 0 1 1 1 @17 NEW_SIMPLE_ATTRIB 3 @13 MESH_INTERVAL @4 LIMP @4 LIMP 2 1 0 5 1 0 0 1 1 #
simple-snl-attrib $-1 -1 $-1 $425 $320 1 1 1 1 1 1 1 1 1 1 1 1 0 1 0 1 1 1 @17 NEW_SIMPLE_ATTRIB 1 @9 ENTITY_ID 0 3 23 -2147483648 -1 #
simple-snl-attrib $-1 -1 $-1 $428 $322 1 1 1 1 1 1 1 1 1 1 1 1 0 1 0 1 1 1 @17 NEW_SIMPLE_ATTRIB 1 @9 ENTITY_ID 0 3 15 -2147483648 -1 #
simple-snl-attrib $-1 -1 $-1 $430 $324 1 1 1 1 1 1 1 1 1 1 1 1 0 1 0 1 1 1 @17 NEW_SIMPLE_ATTRIB 1 @9 ENTITY_ID 0 3 19 -2147483648 -1 #
simple-snl-attrib $-1 -1 $-1 $434 $328 1 1 1 1 1 1 1 1 1 1 1 1 0 1 0 1 1 1 @17 NEW_SIMPLE_ATTRIB 1 @9 ENTITY_ID 0 3 16 -2147483648 -1 #
simple-snl-attrib $-1 -1 $-1 $444 $103 1 1 1 1 1 1 1 1 1 1 1 1 0 1 0 1 1 1 @17 NEW_SIMPLE_ATTRIB 3 @13 MESH_INTERVAL @4 LIMP @4 LIMP 2 1 0 5 1 0 0 1 1 #
simple-snl-attrib $-1 -1 $548 $445 $153 1 1 1 1 1 1 1 1 1 1 1 1 0 1 0 1 1 1 @17 NEW_SIMPLE_ATTRIB 1 @13 MERGE_PARTNER 0 4 1410860328 -1 33 0 #
simple-snl-attrib $-1 -1 $549 $446 $242 1 1 1 1 1 1 1 1 1 1 1 1 0 1 0 1 1 1 @17 NEW_SIMPLE_ATTRIB 1 @9 ENTITY_ID 0 3 22 1980765338 1 #
simple-snl-attrib $-1 -1 $550 $447 $356 1 1 1 1 1 1 1 1 1 1 1 1 0 1 0 1 1 1 @17 NEW_SIMPLE_ATTRIB 1 @9 ENTITY_ID 0 3 35 145375150 0 #
simple-snl-attrib $-1 -1 $551 $449 $248 1 1 1 1 1 1 1 1 1 1 1 1 0 1 0 1 1 1 @17 NEW_SIMPLE_ATTRIB 1 @13 MERGE_PARTNER 0 4 6148892 1 57 0 #
simple-snl-attrib $-1 -1 $552 $450 $358 1 1 1 1 1 1 1 1 1 1 1 1 0 1 0 1 1 1 @17 NEW_SIMPLE_ATTRIB 1 @9 ENTITY_ID 0 3 24 -2147483648 -1 #
simple-snl-attrib $-1 -1 $553 $452 $360 1 1 1 1 1 1 1 1 1 1 1 1 0 1 0 1 1 1 @17 NEW_SIMPLE_ATTRIB 1 @9 UNIQUE_ID 1 0 1 1103660025 #
simple-snl-attrib $-1 -1 $554 $454 $250 1 1 1 1 1 1 1 1 1 1 1 1 0 1 0 1 1 1 @17 NEW_SIMPLE_ATTRIB 1 @9 ENTITY_ID 0 3 32 1775569411 0 #
simple-snl-attrib $-1 -1 $555 $455 $252 1 1 1 1 1 1 1 1 1 1 1 1 0 1 0 1 1 1 @17 NEW_SIMPLE_ATTRIB 1 @9 ENTITY_ID 0 3 30 1077076286 0 #
simple-snl-attrib $-1 -1 $556 $456 $364 1 1 1 1 1 1 1 1 1 1 1 1 0 1 0 1 1 1 @17 NEW_SIMPLE_ATTRIB 1 @9 ENTITY_ID 0 3 23 -2147483648 -1 #
simple-snl-attrib $-1 -1 $-1 $458 $160 1 1 1 1 1 1 1 1 1 1 1 1 0 1 0 1 1 1 @17 NEW_SIMPLE_ATTRIB 1 @9 UNIQUE_ID 1 0 1 1041500053 #
simple-snl-attrib $-1 -1 $557 $459 $254 1 1 1 1 1 1 1 1 1 1 1 1 0 1 0 1 1 1 @17 NEW_SIMPLE_ATTRIB 1 @13 MERGE_PARTNER 0 4 988367580 1 37 0 #
simple-snl-attrib $-1 -1 $558 $460 $255 1 1 1 1 1 1 1 1 1 1 1 1 0 1 0 1 1 1 @17 NEW_SIMPLE_ATTRIB 1 @13 MERGE_PARTNER 0 4 1775569411 1 38 0 #
simple-snl-attrib $-1 -1 $559 $461 $258 1 1 1 1 1 1 1 1 1 1 1 1 0 1 0 1 1 1 @17 NEW_SIMPLE_ATTRIB 1 @9 ENTITY_ID 0 3 27 145375150 0 #
simple-snl-attrib $-1 -1 $-1 $462 $163 1 1 1 1 1 1 1 1 1 1 1 1 0 1 0 1 1 1 @17 NEW_SIMPLE_ATTRIB 1 @13 MERGE_PARTNER 0 4 473126202 1 50 0 #
simple-snl-attrib $-1 -1 $560 $463 $262 1 1 1 1 1 1 1 1 1 1 1 1 0 1 0 1 1 1 @17 NEW_SIMPLE_ATTRIB 1 @13 MERGE_PARTNER 0 4 145375150 1 35 0 #
simple-snl-attrib $-1 -1 $-1 $464 $165 1 1 1 1 1 1 1 1 1 1 1 1 0 1 0 1 1 1 @17 NEW_SIMPLE_ATTRIB 1 @13 MERGE_PARTNER 0 4 1180010250 1 52 0 #
simple-snl-attrib $-1 -1 $561 $465 $266 1 1 1 1 1 1 1 1 1 1 1 1 0 1 0 1 1 1 @17 NEW_SIMPLE_ATTRIB 1 @13 MERGE_PARTNER 0 4 1466405394 1 36 0 #
simple-snl-attrib $-1 -1 $562 $466 $268 1 1 1 1 1 1 1 1 1 1 1 1 0 1 0 1 1 1 @17 NEW_SIMPLE_ATTRIB 1 @13 MERGE_PARTNER 0 4 1980765338 1 58 0 #
simple-snl-attrib $-1 -1 $563 $467 $269 1 1 1 1 1 1 1 1 1 1 1 1 0 1 0 1 1 1 @17 NEW_SIMPLE_ATTRIB 1 @13 MERGE_PARTNER 0 4 537029179 1 60 0 #
simple-snl-attrib $-1 -1 $-1 $469 $170 1 1 1 1 1 1 1 1 1 1 1 1 0 1 0 1 1 1 @17 NEW_SIMPLE_ATTRIB 1 @9 UNIQUE_ID 1 0 1 1340825946 #
simple-snl-attrib $-1 -1 $-1 $470 $171 1 1 1 1 1 1 1 1 1 1 1 1 0 1 0 1 1 1 @17 NEW_SIMPLE_ATTRIB 1 @9 UNIQUE_ID 1 0 1 1016994001 #
simple-snl-attrib $-1 -1 $-1 $472 $117 1 1 1 1 1 1 1 1 1 1 1 1 0 1 0 1 1 1 @17 NEW_SIMPLE_ATTRIB 3 @13 MESH_INTERVAL @4 LIMP @4 LIMP 2 1 0 5 1 0 0 1 1 #
simple-snl-attrib $-1 -1 $564 $473 $180 1 1 1 1 1 1 1 1 1 1 1 1 0 1 0 1 1 1 @17 NEW_SIMPLE_ATTRIB 1 @13 MERGE_PARTNER 0 4 1410860328 1 21 1 #
simple-snl-attrib $-1 -1 $565 $474 $282 1 1 1 1 1 1 1 1 1 1 1 1 0 1 0 1 1 1 @17 NEW_SIMPLE_ATTRIB 1 @9 ENTITY_ID 0 3 22 1980765338 1 #
simple-snl-attrib $-1 -1 $566 $475 $393 1 1 1 1 1 1 1 1 1 1 1 1 0 1 0 1 1 1 @17 NEW_SIMPLE_ATTRIB 1 @9 ENTITY_ID 0 3 35 145375150 0 #
simple-snl-attrib $-1 -1 $567 $477 $288 1 1 1 1 1 1 1 1 1 1 1 1 0 1 0 1 1 1 @17 NEW_SIMPLE_ATTRIB 1 @13 MERGE_PARTNER 0 4 6148892 1 33 1 #
simple-snl-attrib $-1 -1 $568 $478 $395 1 1 1 1 1 1 1 1 1 1 1 1 0 1 0 1 1 1 @17 NEW_SIMPLE_ATTRIB 1 @9 ENTITY_ID 0 3 24 -2147483648 -1 #
simple-snl-attrib $-1 -1 $569 $480 $397 1 1 1 1 1 1 1 1 1 1 1 1 0 1 0 1 1 1 @17 NEW_SIMPLE_ATTRIB 1 @9 UNIQUE_ID 1 0 1 1103660025 #
simple-snl-attrib $-1 -1 $570 $482 $291 1 1 1 1 1 1 1 1 1 1 1 1 0 1 0 1 1 1 @17 NEW_SIMPLE_ATTRIB 1 @9 ENTITY_ID 0 3 30 1077076286 0 #
simple-snl-attrib $-1 -1 $571 $483 $399 1 1 1 1 1 1 1 1 1 1 1 1 0 1 0 1 1 1 @17 NEW_SIMPLE_ATTRIB 1 @9 ENTITY_ID 0 3 23 -2147483648 -1 #
simple-snl-attrib $-1 -1 $572 $485 $292 1 1 1 1 1 1 1 1 1 1 1 1 0 1 0 1 1 1 @17 NEW_SIMPLE_ATTRIB 1 @9 ENTITY_ID 0 3 32 1775569411 0 #
simple-snl-attrib $-1 -1 $-1 $486 $187 1 1 1 1 1 1 1 1 1 1 1 1 0 1 0 1 1 1 @17 NEW_SIMPLE_ATTRIB 1 @9 UNIQUE_ID 1 0 1 1041500053 #
simple-snl-attrib $-1 -1 $573 $487 $294 1 1 1 1 1 1 1 1 1 1 1 1 0 1 0 1 1 1 @17 NEW_SIMPLE_ATTRIB 1 @13 MERGE_PARTNER 0 4 988367580 1 21 1 #
simple-snl-attrib $-1 -1 $574 $488 $295 1 1 1 1 1 1 1 1 1 1 1 1 0 1 0 1 1 1 @17 NEW_SIMPLE_ATTRIB 1 @13 MERGE_PARTNER 0 4 1775569411 1 22 1 #
simple-snl-attrib $-1 -1 $575 $489 $298 1 1 1 1 1 1 1 1 1 1 1 1 0 1 0 1 1 1 @17 NEW_SIMPLE_ATTRIB 1 @9 ENTITY_ID 0 3 27 145375150 0 #
simple-snl-attrib $-1 -1 $-1 $490 $190 1 1 1 1 1 1 1 1 1 1 1 1 0 1 0 1 1 1 @17 NEW_SIMPLE_ATTRIB 1 @13 MERGE_PARTNER 0 4 1180010250 1 26 1 #
simple-snl-attrib $-1 -1 $576 $491 $301 1 1 1 1 1 1 1 1 1 1 1 1 0 1 0 1 1 1 @17 NEW_SIMPLE_ATTRIB 1 @13 MERGE_PARTNER 0 4 1466405394 1 19 1 #
simple-snl-attrib $-1 -1 $-1 $492 $192 1 1 1 1 1 1 1 1 1 1 1 1 0 1 0 1 1 1 @17 NEW_SIMPLE_ATTRIB 1 @13 MERGE_PARTNER 0 4 473126202 1 28 1 #
simple-snl-attrib $-1 -1 $577 $493 $306 1 1 1 1 1 1 1 1 1 1 1 1 0 1 0 1 1 1 @17 NEW_SIMPLE_ATTRIB 1 @13 MERGE_PARTNER 0 4 145375150 1 20 1 #
simple-snl-attrib $-1 -1 $578 $494 $308 1 1 1 1 1 1 1 1 1 1 1 1 0 1 0 1 1 1 @17 NEW_SIMPLE_ATTRIB 1 @13 MERGE_PARTNER 0 4 537029179 1 36 1 #
simple-snl-attrib $-1 -1 $579 $495 $309 1 1 1 1 1 1 1 1 1 1 1 1 0 1 0 1 1 1 @17 NEW_SIMPLE_ATTRIB 1 @13 MERGE_PARTNER 0 4 1980765338 1 34 1 #
simple-snl-attrib $-1 -1 $-1 $497 $197 1 1 1 1 1 1 1 1 1 1 1 1 0 1 0 1 1 1 @17 NEW_SIMPLE_ATTRIB 1 @9 UNIQUE_ID 1 0 1 1340825946 #
simple-snl-attrib $-1 -1 $-1 $498 $198 1 1 1 1 1 1 1 1 1 1 1 1 0 1 0 1 1 1 @17 NEW_SIMPLE_ATTRIB 1 @9 UNIQUE_ID 1 0 1 1016994001 #
simple-snl-attrib $-1 -1 $-1 $505 $153 1 1 1 1 1 1 1 1 1 1 1 1 0 1 0 1 1 1 @17 NEW_SIMPLE_ATTRIB 3 @13 MESH_INTERVAL @4 LIMP @4 LIMP 2 1 0 5 1 0 0 1 1 #
simple-snl-attrib $-1 -1 $580 $506 $242 1 1 1 1 1 1 1 1 1 1 1 1 0 1 0 1 1 1 @17 NEW_SIMPLE_ATTRIB 1 @13 MERGE_PARTNER 0 4 35853092 -1 34 0 #
simple-snl-attrib $-1 -1 $581 $507 $356 1 1 1 1 1 1 1 1 1 1 1 1 0 1 0 1 1 1 @17 NEW_SIMPLE_ATTRIB 1 @13 MERGE_PARTNER 0 4 823390300 1 59 0 #
simple-snl-attrib $-1 -1 $-1 $508 $248 1 1 1 1 1 1 1 1 1 1 1 1 0 1 0 1 1 1 @17 NEW_SIMPLE_ATTRIB 1 @9 UNIQUE_ID 1 0 1 6148892 #
simple-snl-attrib $-1 -1 $582 $509 $358 1 1 1 1 1 1 1 1 1 1 1 1 0 1 0 1 1 1 @17 NEW_SIMPLE_ATTRIB 1 @13 MERGE_PARTNER 0 4 718782729 1 39 0 #
simple-snl-attrib $-1 -1 $583 $510 $360 1 1 1 1 1 1 1 1 1 1 1 1 0 1 0 1 1 1 @17 NEW_SIMPLE_ATTRIB 1 @9 ENTITY_ID 0 3 31 718782729 0 #
simple-snl-attrib $-1 -1 $-1 $511 $250 1 1 1 1 1 1 1 1 1 1 1 1 0 1 0 1 1 1 @17 NEW_SIMPLE_ATTRIB 1 @13 MERGE_PARTNER 0 4 1326005546 1 54 0 #
simple-snl-attrib $-1 -1 $-1 $512 $252 1 1 1 1 1 1 1 1 1 1 1 1 0 1 0 1 1 1 @17 NEW_SIMPLE_ATTRIB 1 @13 MERGE_PARTNER 0 4 993590109 1 56 0 #
simple-snl-attrib $-1 -1 $584 $513 $364 1 1 1 1 1 1 1 1 1 1 1 1 0 1 0 1 1 1 @17 NEW_SIMPLE_ATTRIB 1 @13 MERGE_PARTNER 0 4 1077076286 1 40 0 #
simple-snl-attrib $-1 -1 $-1 $515 $254 1 1 1 1 1 1 1 1 1 1 1 1 0 1 0 1 1 1 @17 NEW_SIMPLE_ATTRIB 1 @9 UNIQUE_ID 1 0 1 988367580 #
simple-snl-attrib $-1 -1 $-1 $516 $255 1 1 1 1 1 1 1 1 1 1 1 1 0 1 0 1 1 1 @17 NEW_SIMPLE_ATTRIB 1 @9 UNIQUE_ID 1 0 1 1775569411 #
simple-snl-attrib $-1 -1 $-1 $517 $258 1 1 1 1 1 1 1 1 1 1 1 1 0 1 0 1 1 1 @17 NEW_SIMPLE_ATTRIB 1 @13 MERGE_PARTNER 0 4 624725525 1 51 0 #
simple-snl-attrib $-1 -1 $-1 $519 $262 1 1 1 1 1 1 1 1 1 1 1 1 0 1 0 1 1 1 @17 NEW_SIMPLE_ATTRIB 1 @9 UNIQUE_ID 1 0 1 145375150 #
simple-snl-attrib $-1 -1 $-1 $521 $266 1 1 1 1 1 1 1 1 1 1 1 1 0 1 0 1 1 1 @17 NEW_SIMPLE_ATTRIB 1 @9 UNIQUE_ID 1 0 1 1466405394 #
simple-snl-attrib $-1 -1 $-1 $522 $268 1 1 1 1 1 1 1 1 1 1 1 1 0 1 0 1 1 1 @17 NEW_SIMPLE_ATTRIB 1 @9 UNIQUE_ID 1 0 1 1980765338 #
simple-snl-attrib $-1 -1 $-1 $523 $269 1 1 1 1 1 1 1 1 1 1 1 1 0 1 0 1 1 1 @17 NEW_SIMPLE_ATTRIB 1 @9 UNIQUE_ID 1 0 1 537029179 #
simple-snl-attrib $-1 -1 $-1 $527 $180 1 1 1 1 1 1 1 1 1 1 1 1 0 1 0 1 1 1 @17 NEW_SIMPLE_ATTRIB 3 @13 MESH_INTERVAL @4 LIMP @4 LIMP 2 1 0 5 1 0 0 1 1 #
simple-snl-attrib $-1 -1 $585 $528 $282 1 1 1 1 1 1 1 1 1 1 1 1 0 1 0 1 1 1 @17 NEW_SIMPLE_ATTRIB 1 @13 MERGE_PARTNER 0 4 35853092 1 22 1 #
simple-snl-attrib $-1 -1 $586 $529 $393 1 1 1 1 1 1 1 1 1 1 1 1 0 1 0 1 1 1 @17 NEW_SIMPLE_ATTRIB 1 @13 MERGE_PARTNER 0 4 823390300 1 35 1 #
simple-snl-attrib $-1 -1 $-1 $530 $288 1 1 1 1 1 1 1 1 1 1 1 1 0 1 0 1 1 1 @17 NEW_SIMPLE_ATTRIB 1 @9 UNIQUE_ID 1 0 1 6148892 #
simple-snl-attrib $-1 -1 $587 $531 $395 1 1 1 1 1 1 1 1 1 1 1 1 0 1 0 1 1 1 @17 NEW_SIMPLE_ATTRIB 1 @13 MERGE_PARTNER 0 4 718782729 1 24 1 #
simple-snl-attrib $-1 -1 $588 $532 $397 1 1 1 1 1 1 1 1 1 1 1 1 0 1 0 1 1 1 @17 NEW_SIMPLE_ATTRIB 1 @9 ENTITY_ID 0 3 31 718782729 0 #
simple-snl-attrib $-1 -1 $-1 $533 $291 1 1 1 1 1 1 1 1 1 1 1 1 0 1 0 1 1 1 @17 NEW_SIMPLE_ATTRIB 1 @13 MERGE_PARTNER 0 4 993590109 1 30 1 #
simple-snl-attrib $-1 -1 $589 $534 $399 1 1 1 1 1 1 1 1 1 1 1 1 0 1 0 1 1 1 @17 NEW_SIMPLE_ATTRIB 1 @13 MERGE_PARTNER 0 4 1077076286 1 23 1 #
simple-snl-attrib $-1 -1 $-1 $535 $292 1 1 1 1 1 1 1 1 1 1 1 1 0 1 0 1 1 1 @17 NEW_SIMPLE_ATTRIB 1 @13 MERGE_PARTNER 0 4 1326005546 1 32 1 #
simple-snl-attrib $-1 -1 $-1 $537 $294 1 1 1 1 1 1 1 1 1 1 1 1 0 1 0 1 1 1 @17 NEW_SIMPLE_ATTRIB 1 @9 UNIQUE_ID 1 0 1 988367580 #
simple-snl-attrib $-1 -1 $-1 $538 $295 1 1 1 1 1 1 1 1 1 1 1 1 0 1 0 1 1 1 @17 NEW_SIMPLE_ATTRIB 1 @9 UNIQUE_ID 1 0 1 1775569411 #
simple-snl-attrib $-1 -1 $-1 $539 $298 1 1 1 1 1 1 1 1 1 1 1 1 0 1 0 1 1 1 @17 NEW_SIMPLE_ATTRIB 1 @13 MERGE_PARTNER 0 4 624725525 1 27 1 #
simple-snl-attrib $-1 -1 $-1 $541 $301 1 1 1 1 1 1 1 1 1 1 1 1 0 1 0 1 1 1 @17 NEW_SIMPLE_ATTRIB 1 @9 UNIQUE_ID 1 0 1 1466405394 #
simple-snl-attrib $-1 -1 $-1 $543 $306 1 1 1 1 1 1 1 1 1 1 1 1 0 1 0 1 1 1 @17 NEW_SIMPLE_ATTRIB 1 @9 UNIQUE_ID 1 0 1 145375150 #
simple-snl-attrib $-1 -1 $-1 $544 $308 1 1 1 1 1 1 1 1 1 1 1 1 0 1 0 1 1 1 @17 NEW_SIMPLE_ATTRIB 1 @9 UNIQUE_ID 1 0 1 537029179 #
simple-snl-attrib $-1 -1 $-1 $545 $309 1 1 1 1 1 1 1 1 1 1 1 1 0 1 0 1 1 1 @17 NEW_SIMPLE_ATTRIB 1 @9 UNIQUE_ID 1 0 1 1980765338 #
simple-snl-attrib $-1 -1 $-1 $549 $242 1 1 1 1 1 1 1 1 1 1 1 1 0 1 0 1 1 1 @17 NEW_SIMPLE_ATTRIB 3 @13 MESH_INTERVAL @4 LIMP @4 LIMP 2 1 0 5 1 0 0 1 1 #
simple-snl-attrib $-1 -1 $-1 $550 $356 1 1 1 1 1 1 1 1 1 1 1 1 0 1 0 1 1 1 @17 NEW_SIMPLE_ATTRIB 1 @9 UNIQUE_ID 1 0 1 823390300 #
simple-snl-attrib $-1 -1 $-1 $552 $358 1 1 1 1 1 1 1 1 1 1 1 1 0 1 0 1 1 1 @17 NEW_SIMPLE_ATTRIB 1 @9 UNIQUE_ID 1 0 1 718782729 #
simple-snl-attrib $-1 -1 $-1 $553 $360 1 1 1 1 1 1 1 1 1 1 1 1 0 1 0 1 1 1 @17 NEW_SIMPLE_ATTRIB 1 @13 MERGE_PARTNER 0 4 1103660025 1 55 0 #
simple-snl-attrib $-1 -1 $-1 $556 $364 1 1 1 1 1 1 1 1 1 1 1 1 0 1 0 1 1 1 @17 NEW_SIMPLE_ATTRIB 1 @9 UNIQUE_ID 1 0 1 1077076286 #
simple-snl-attrib $-1 -1 $-1 $565 $282 1 1 1 1 1 1 1 1 1 1 1 1 0 1 0 1 1 1 @17 NEW_SIMPLE_ATTRIB 3 @13 MESH_INTERVAL @4 LIMP @4 LIMP 2 1 0 5 1 0 0 1 1 #
simple-snl-attrib $-1 -1 $-1 $566 $393 1 1 1 1 1 1 1 1 1 1 1 1 0 1 0 1 1 1 @17 NEW_SIMPLE_ATTRIB 1 @9 UNIQUE_ID 1 0 1 823390300 #
simple-snl-attrib $-1 -1 $-1 $568 $395 1 1 1 1 1 1 1 1 1 1 1 1 0 1 0 1 1 1 @17 NEW_SIMPLE_ATTRIB 1 @9 UNIQUE_ID 1 0 1 718782729 #
simple-snl-attrib $-1 -1 $-1 $569 $397 1 1 1 1 1 1 1 1 1 1 1 1 0 1 0 1 1 1 @17 NEW_SIMPLE_ATTRIB 1 @13 MERGE_PARTNER 0 4 1103660025 1 31 1 #
simple-snl-attrib $-1 -1 $-1 $571 $399 1 1 1 1 1 1 1 1 1 1 1 1 0 1 0 1 1 1 @17 NEW_SIMPLE_ATTRIB 1 @9 UNIQUE_ID 1 0 1 1077076286 #
End-of-ACIS-data 