1600 0 7 0           
14 Cubit  (iGeom) 17 ACIS 16.0.7 Linux 24 Tue Feb 22 15:24:29 2011 
1 9.9999999999999995e-07 1e-10 
body $7 -1 -1 $-1 $8 $-1 $-1 F #
body $9 -1 -1 $-1 $10 $-1 $-1 T -5 -5 -5 5 5 5 #
body $11 -1 -1 $-1 $12 $-1 $-1 T -10 -10 -10 10 10 10 #
body $13 -1 -1 $-1 $14 $-1 $-1 T -15 -15 -15 15 15 15 #
body $15 -1 -1 $-1 $16 $-1 $-1 T 7 -0.5 -0.5 8 0.5 0.5 #
body $17 -1 -1 $-1 $18 $-1 $-1 T -8 -0.5 -0.5 -7 0.5 0.5 #
body $19 -1 -1 $-1 $20 $-1 $-1 T -18 -18 -18 18 18 18 #
simple-snl-attrib $-1 -1 $21 $-1 $0 1 1 1 1 1 1 1 1 1 1 1 1 0 1 0 1 1 1 @17 NEW_SIMPLE_ATTRIB 1 @9 ENTITY_ID 0 3 4 -2147483648 -1 #
lump $22 -1 -1 $-1 $-1 $23 $0 F #
simple-snl-attrib $-1 -1 $24 $-1 $1 1 1 1 1 1 1 1 1 1 1 1 1 0 1 0 1 1 1 @17 NEW_SIMPLE_ATTRIB 1 @9 ENTITY_ID 0 3 40 -2147483648 -1 #
lump $25 -1 -1 $-1 $-1 $26 $1 T -5 -5 -5 5 5 5 #
simple-snl-attrib $-1 -1 $27 $-1 $2 1 1 1 1 1 1 1 1 1 1 1 1 0 1 0 1 1 1 @17 NEW_SIMPLE_ATTRIB 1 @9 ENTITY_ID 0 3 43 -2147483648 -1 #
lump $28 -1 -1 $-1 $-1 $29 $2 T -10 -10 -10 10 10 10 #
simple-snl-attrib $-1 -1 $30 $-1 $3 1 1 1 1 1 1 1 1 1 1 1 1 0 1 0 1 1 1 @17 NEW_SIMPLE_ATTRIB 1 @9 ENTITY_ID 0 3 46 -2147483648 -1 #
lump $31 -1 -1 $-1 $-1 $32 $3 T -15 -15 -15 15 15 15 #
simple-snl-attrib $-1 -1 $33 $-1 $4 1 1 1 1 1 1 1 1 1 1 1 1 0 1 0 1 1 1 @17 NEW_SIMPLE_ATTRIB 1 @9 ENTITY_ID 0 3 49 -2147483648 -1 #
lump $34 -1 -1 $-1 $-1 $35 $4 T 7 -0.5 -0.5 8 0.5 0.5 #
simple-snl-attrib $-1 -1 $36 $-1 $5 1 1 1 1 1 1 1 1 1 1 1 1 0 1 0 1 1 1 @17 NEW_SIMPLE_ATTRIB 1 @9 ENTITY_ID 0 3 52 -2147483648 -1 #
lump $37 -1 -1 $-1 $-1 $38 $5 T -8 -0.5 -0.5 -7 0.5 0.5 #
simple-snl-attrib $-1 -1 $39 $-1 $6 1 1 1 1 1 1 1 1 1 1 1 1 0 1 0 1 1 1 @17 NEW_SIMPLE_ATTRIB 1 @9 ENTITY_ID 0 3 55 -2147483648 -1 #
lump $40 -1 -1 $-1 $-1 $41 $6 T -18 -18 -18 18 18 18 #
simple-snl-attrib $-1 -1 $-1 $7 $0 1 1 1 1 1 1 1 1 1 1 1 1 0 1 0 1 1 1 @17 NEW_SIMPLE_ATTRIB 2 @5 GROUP @9 graveyard 0 7 1 1 1482219762 0 0 0 0 #
simple-snl-attrib $-1 -1 $-1 $-1 $8 1 1 1 1 1 1 1 1 1 1 1 1 0 1 0 1 1 1 @17 NEW_SIMPLE_ATTRIB 1 @9 ENTITY_ID 0 3 1 -2147483648 -1 #
shell $-1 -1 -1 $-1 $42 $-1 $43 $-1 $8 T -18.359999999999999 -18.359999999999999 -18.359999999999999 18.359999999999999 18.359999999999999 18.359999999999999 #
simple-snl-attrib $-1 -1 $44 $9 $1 1 1 1 1 1 1 1 1 1 1 1 1 0 1 0 1 1 1 @17 NEW_SIMPLE_ATTRIB 2 @5 GROUP @14 mat_1_rho_-2.7 0 7 1 2 273092651 0 0 0 0 #
simple-snl-attrib $-1 -1 $-1 $-1 $10 1 1 1 1 1 1 1 1 1 1 1 1 0 1 0 1 1 1 @17 NEW_SIMPLE_ATTRIB 1 @9 ENTITY_ID 0 3 2 -2147483648 -1 #
shell $-1 -1 -1 $-1 $-1 $-1 $45 $-1 $10 T -5 -5 -5 5 5 5 #
simple-snl-attrib $-1 -1 $46 $11 $2 1 1 1 1 1 1 1 1 1 1 1 1 0 1 0 1 1 1 @17 NEW_SIMPLE_ATTRIB 2 @5 GROUP @14 mat_1_rho_-2.7 0 7 1 2 273092651 1 0 0 0 #
simple-snl-attrib $-1 -1 $-1 $-1 $12 1 1 1 1 1 1 1 1 1 1 1 1 0 1 0 1 1 1 @17 NEW_SIMPLE_ATTRIB 1 @9 ENTITY_ID 0 3 3 -2147483648 -1 #
shell $-1 -1 -1 $-1 $47 $-1 $48 $-1 $12 T -10 -10 -10 10 10 10 #
simple-snl-attrib $-1 -1 $49 $13 $3 1 1 1 1 1 1 1 1 1 1 1 1 0 1 0 1 1 1 @17 NEW_SIMPLE_ATTRIB 2 @5 GROUP @14 mat_1_rho_-2.7 0 7 1 2 273092651 2 0 0 0 #
simple-snl-attrib $-1 -1 $-1 $-1 $14 1 1 1 1 1 1 1 1 1 1 1 1 0 1 0 1 1 1 @17 NEW_SIMPLE_ATTRIB 1 @9 ENTITY_ID 0 3 4 -2147483648 -1 #
shell $-1 -1 -1 $-1 $50 $-1 $51 $-1 $14 T -15 -15 -15 15 15 15 #
simple-snl-attrib $-1 -1 $52 $15 $4 1 1 1 1 1 1 1 1 1 1 1 1 0 1 0 1 1 1 @17 NEW_SIMPLE_ATTRIB 2 @5 GROUP @14 mat_1_rho_-2.7 0 7 1 2 273092651 3 0 0 0 #
simple-snl-attrib $-1 -1 $-1 $-1 $16 1 1 1 1 1 1 1 1 1 1 1 1 0 1 0 1 1 1 @17 NEW_SIMPLE_ATTRIB 1 @9 ENTITY_ID 0 3 5 -2147483648 -1 #
shell $-1 -1 -1 $-1 $-1 $-1 $53 $-1 $16 T 7 -0.5 -0.5 8 0.5 0.5 #
simple-snl-attrib $-1 -1 $54 $17 $5 1 1 1 1 1 1 1 1 1 1 1 1 0 1 0 1 1 1 @17 NEW_SIMPLE_ATTRIB 2 @5 GROUP @14 mat_1_rho_-2.7 0 7 1 2 273092651 4 0 0 0 #
simple-snl-attrib $-1 -1 $-1 $-1 $18 1 1 1 1 1 1 1 1 1 1 1 1 0 1 0 1 1 1 @17 NEW_SIMPLE_ATTRIB 1 @9 ENTITY_ID 0 3 6 -2147483648 -1 #
shell $-1 -1 -1 $-1 $-1 $-1 $55 $-1 $18 T -8 -0.5 -0.5 -7 0.5 0.5 #
simple-snl-attrib $-1 -1 $-1 $19 $6 1 1 1 1 1 1 1 1 1 1 1 1 0 1 0 1 1 1 @17 NEW_SIMPLE_ATTRIB 2 @11 ENTITY_NAME @9 MCNP_ID_9 0 0 #
simple-snl-attrib $-1 -1 $-1 $-1 $20 1 1 1 1 1 1 1 1 1 1 1 1 0 1 0 1 1 1 @17 NEW_SIMPLE_ATTRIB 1 @9 ENTITY_ID 0 3 7 -2147483648 -1 #
shell $-1 -1 -1 $-1 $56 $-1 $57 $-1 $20 T -18 -18 -18 18 18 18 #
shell $-1 -1 -1 $-1 $-1 $-1 $58 $-1 $8 T -18 -18 -18 18 18 18 #
face $59 -1 -1 $-1 $60 $61 $23 $-1 $62 forward single T -18.359999999999999 -18.359999999999999 18.359999999999999 18.359999999999999 18.359999999999999 18.359999999999999 F #
simple-snl-attrib $-1 -1 $-1 $24 $1 1 1 1 1 1 1 1 1 1 1 1 1 0 1 0 1 1 1 @17 NEW_SIMPLE_ATTRIB 2 @11 ENTITY_NAME @9 MCNP_ID_1 0 0 #
face $63 -1 -1 $-1 $-1 $-1 $26 $-1 $64 forward single T -5 -5 -5 5 5 5 F #
simple-snl-attrib $-1 -1 $-1 $27 $2 1 1 1 1 1 1 1 1 1 1 1 1 0 1 0 1 1 1 @17 NEW_SIMPLE_ATTRIB 2 @11 ENTITY_NAME @9 MCNP_ID_2 0 0 #
shell $-1 -1 -1 $-1 $65 $-1 $66 $-1 $12 T -8 -0.5 -0.5 -7 0.5 0.5 #
face $67 -1 -1 $-1 $-1 $-1 $29 $-1 $68 forward single T -10 -10 -10 10 10 10 F #
simple-snl-attrib $-1 -1 $-1 $30 $3 1 1 1 1 1 1 1 1 1 1 1 1 0 1 0 1 1 1 @17 NEW_SIMPLE_ATTRIB 2 @11 ENTITY_NAME @9 MCNP_ID_3 0 0 #
shell $-1 -1 -1 $-1 $-1 $-1 $69 $-1 $14 T -10 -10 -10 10 10 10 #
face $70 -1 -1 $-1 $-1 $-1 $32 $-1 $71 forward single T -15 -15 -15 15 15 15 F #
simple-snl-attrib $-1 -1 $-1 $33 $4 1 1 1 1 1 1 1 1 1 1 1 1 0 1 0 1 1 1 @17 NEW_SIMPLE_ATTRIB 2 @11 ENTITY_NAME @9 MCNP_ID_4 0 0 #
face $72 -1 -1 $-1 $-1 $-1 $35 $-1 $73 forward single T 7 -0.5 -0.5 8 0.5 0.5 F #
simple-snl-attrib $-1 -1 $-1 $36 $5 1 1 1 1 1 1 1 1 1 1 1 1 0 1 0 1 1 1 @17 NEW_SIMPLE_ATTRIB 2 @11 ENTITY_NAME @9 MCNP_ID_5 0 0 #
face $74 -1 -1 $-1 $-1 $-1 $38 $-1 $75 forward single T -8 -0.5 -0.5 -7 0.5 0.5 F #
shell $-1 -1 -1 $-1 $-1 $-1 $76 $-1 $20 T -15 -15 -15 15 15 15 #
face $77 -1 -1 $-1 $78 $79 $41 $-1 $80 forward single T -18 -18 18 18 18 18 F #
face $81 -1 -1 $-1 $82 $83 $42 $-1 $84 reversed single T -18 -18 18 18 18 18 F #
simple-snl-attrib $-1 -1 $-1 $-1 $43 1 1 1 1 1 1 1 1 1 1 1 1 0 1 0 1 1 1 @17 NEW_SIMPLE_ATTRIB 1 @9 ENTITY_ID 0 3 1 -2147483648 -1 #
face $85 -1 -1 $-1 $86 $87 $23 $-1 $88 reversed single T -18.359999999999999 -18.359999999999999 -18.359999999999999 18.359999999999999 18.359999999999999 -18.359999999999999 F #
loop $-1 -1 -1 $-1 $-1 $89 $43 T -18.359999999999999 -18.359999999999999 18.359999999999999 18.359999999999999 18.359999999999999 18.359999999999999 unknown #
plane-surface $-1 -1 -1 $-1 0 0 18.359999999999999 0 0 1 1 0 0 forward_v I I I I #
simple-snl-attrib $-1 -1 $90 $-1 $45 1 1 1 1 1 1 1 1 1 1 1 1 0 1 0 1 1 1 @17 NEW_SIMPLE_ATTRIB 1 @9 UNIQUE_ID 1 0 1 1692747604 #
sphere-surface $-1 -1 -1 $-1 0 0 0 5 1 0 0 0 0 1 forward_v I I I I #
shell $-1 -1 -1 $-1 $91 $-1 $92 $-1 $12 T 7 -0.5 -0.5 8 0.5 0.5 #
face $93 -1 -1 $-1 $-1 $-1 $47 $-1 $94 reversed single T -8 -0.5 -0.5 -7 0.5 0.5 F #
simple-snl-attrib $-1 -1 $95 $-1 $48 1 1 1 1 1 1 1 1 1 1 1 1 0 1 0 1 1 1 @17 NEW_SIMPLE_ATTRIB 1 @9 UNIQUE_ID 1 0 1 192595623 #
sphere-surface $-1 -1 -1 $-1 0 0 0 10 1 0 0 0 0 1 forward_v I I I I #
face $96 -1 -1 $-1 $-1 $-1 $50 $-1 $97 reversed single T -10 -10 -10 10 10 10 F #
simple-snl-attrib $-1 -1 $98 $-1 $51 1 1 1 1 1 1 1 1 1 1 1 1 0 1 0 1 1 1 @17 NEW_SIMPLE_ATTRIB 1 @9 UNIQUE_ID 1 0 1 1448682075 #
sphere-surface $-1 -1 -1 $-1 0 0 0 15 1 0 0 0 0 1 forward_v I I I I #
simple-snl-attrib $-1 -1 $99 $-1 $53 1 1 1 1 1 1 1 1 1 1 1 1 0 1 0 1 1 1 @17 NEW_SIMPLE_ATTRIB 1 @9 UNIQUE_ID 1 0 1 1631095697 #
sphere-surface $-1 -1 -1 $-1 7.5 0 0 0.5 1 0 0 0 0 1 forward_v I I I I #
simple-snl-attrib $-1 -1 $100 $-1 $55 1 1 1 1 1 1 1 1 1 1 1 1 0 1 0 1 1 1 @17 NEW_SIMPLE_ATTRIB 1 @9 UNIQUE_ID 1 0 1 378111442 #
sphere-surface $-1 -1 -1 $-1 -7.5 0 0 0.5 1 0 0 0 0 1 forward_v I I I I #
face $101 -1 -1 $-1 $-1 $-1 $56 $-1 $102 reversed single T -15 -15 -15 15 15 15 F #
simple-snl-attrib $-1 -1 $-1 $-1 $57 1 1 1 1 1 1 1 1 1 1 1 1 0 1 0 1 1 1 @17 NEW_SIMPLE_ATTRIB 1 @9 ENTITY_ID 0 3 22 -2147483648 -1 #
face $103 -1 -1 $-1 $104 $105 $41 $-1 $106 reversed single T -18 -18 -18 18 18 -18 F #
loop $-1 -1 -1 $-1 $-1 $107 $57 T -18 -18 18 18 18 18 unknown #
plane-surface $-1 -1 -1 $-1 0 0 18 0 0 1 1 0 0 forward_v I I I I #
simple-snl-attrib $-1 -1 $-1 $-1 $58 1 1 1 1 1 1 1 1 1 1 1 1 0 1 0 1 1 1 @17 NEW_SIMPLE_ATTRIB 1 @9 ENTITY_ID 0 3 7 -2147483648 -1 #
face $108 -1 -1 $-1 $109 $110 $42 $-1 $111 forward single T -18 -18 -18 18 18 -18 F #
loop $-1 -1 -1 $-1 $-1 $112 $58 T -18 -18 18 18 18 18 unknown #
plane-surface $-1 -1 -1 $-1 0 0 18 0 0 1 1 0 0 forward_v I I I I #
simple-snl-attrib $-1 -1 $-1 $-1 $60 1 1 1 1 1 1 1 1 1 1 1 1 0 1 0 1 1 1 @17 NEW_SIMPLE_ATTRIB 1 @9 ENTITY_ID 0 3 2 -2147483648 -1 #
face $113 -1 -1 $-1 $114 $115 $23 $-1 $116 reversed single T -18.359999999999999 -18.359999999999999 -18.359999999999999 18.359999999999999 -18.359999999999999 18.359999999999999 F #
loop $-1 -1 -1 $-1 $-1 $117 $60 T -18.359999999999999 -18.359999999999999 -18.359999999999999 18.359999999999999 18.359999999999999 -18.359999999999999 unknown #
plane-surface $-1 -1 -1 $-1 0 0 -18.359999999999999 0 0 1 1 0 0 forward_v I I I I #
coedge $-1 -1 -1 $-1 $118 $119 $120 $121 forward $61 $-1 #
simple-snl-attrib $-1 -1 $122 $63 $45 1 1 1 1 1 1 1 1 1 1 1 1 0 1 0 1 1 1 @17 NEW_SIMPLE_ATTRIB 1 @9 ENTITY_ID 0 3 13 -2147483648 -1 #
shell $-1 -1 -1 $-1 $-1 $-1 $123 $-1 $12 T -5 -5 -5 5 5 5 #
face $124 -1 -1 $-1 $-1 $-1 $65 $-1 $125 reversed single T 7 -0.5 -0.5 8 0.5 0.5 F #
simple-snl-attrib $-1 -1 $126 $-1 $66 1 1 1 1 1 1 1 1 1 1 1 1 0 1 0 1 1 1 @17 NEW_SIMPLE_ATTRIB 1 @9 UNIQUE_ID 1 0 1 378111442 #
sphere-surface $-1 -1 -1 $-1 -7.5 0 0 0.5 1 0 0 0 0 1 forward_v I I I I #
simple-snl-attrib $-1 -1 $127 $67 $48 1 1 1 1 1 1 1 1 1 1 1 1 0 1 0 1 1 1 @17 NEW_SIMPLE_ATTRIB 1 @9 ENTITY_ID 0 3 14 -2147483648 -1 #
simple-snl-attrib $-1 -1 $128 $-1 $69 1 1 1 1 1 1 1 1 1 1 1 1 0 1 0 1 1 1 @17 NEW_SIMPLE_ATTRIB 1 @9 UNIQUE_ID 1 0 1 192595623 #
sphere-surface $-1 -1 -1 $-1 0 0 0 10 1 0 0 0 0 1 forward_v I I I I #
simple-snl-attrib $-1 -1 $129 $70 $51 1 1 1 1 1 1 1 1 1 1 1 1 0 1 0 1 1 1 @17 NEW_SIMPLE_ATTRIB 1 @9 ENTITY_ID 0 3 18 -2147483648 -1 #
simple-snl-attrib $-1 -1 $130 $72 $53 1 1 1 1 1 1 1 1 1 1 1 1 0 1 0 1 1 1 @17 NEW_SIMPLE_ATTRIB 1 @9 ENTITY_ID 0 3 16 -2147483648 -1 #
simple-snl-attrib $-1 -1 $131 $74 $55 1 1 1 1 1 1 1 1 1 1 1 1 0 1 0 1 1 1 @17 NEW_SIMPLE_ATTRIB 1 @9 ENTITY_ID 0 3 15 -2147483648 -1 #
simple-snl-attrib $-1 -1 $132 $-1 $76 1 1 1 1 1 1 1 1 1 1 1 1 0 1 0 1 1 1 @17 NEW_SIMPLE_ATTRIB 1 @9 UNIQUE_ID 1 0 1 1448682075 #
sphere-surface $-1 -1 -1 $-1 0 0 0 15 1 0 0 0 0 1 forward_v I I I I #
simple-snl-attrib $-1 -1 $-1 $-1 $78 1 1 1 1 1 1 1 1 1 1 1 1 0 1 0 1 1 1 @17 NEW_SIMPLE_ATTRIB 1 @9 ENTITY_ID 0 3 23 -2147483648 -1 #
face $133 -1 -1 $-1 $134 $135 $41 $-1 $136 reversed single T -18 -18 -18 18 -18 18 F #
loop $-1 -1 -1 $-1 $-1 $137 $78 T -18 -18 -18 18 18 -18 unknown #
plane-surface $-1 -1 -1 $-1 0 0 -18 0 0 1 1 0 0 forward_v I I I I #
coedge $-1 -1 -1 $-1 $138 $139 $140 $141 forward $79 $-1 #
simple-snl-attrib $-1 -1 $-1 $-1 $82 1 1 1 1 1 1 1 1 1 1 1 1 0 1 0 1 1 1 @17 NEW_SIMPLE_ATTRIB 1 @9 ENTITY_ID 0 3 8 -2147483648 -1 #
face $142 -1 -1 $-1 $143 $144 $42 $-1 $145 forward single T -18 -18 -18 18 -18 18 F #
loop $-1 -1 -1 $-1 $-1 $146 $82 T -18 -18 -18 18 18 -18 unknown #
plane-surface $-1 -1 -1 $-1 0 0 -18 0 0 1 1 0 0 forward_v I I I I #
coedge $-1 -1 -1 $-1 $147 $148 $149 $150 reversed $83 $-1 #
simple-snl-attrib $-1 -1 $-1 $-1 $86 1 1 1 1 1 1 1 1 1 1 1 1 0 1 0 1 1 1 @17 NEW_SIMPLE_ATTRIB 1 @9 ENTITY_ID 0 3 3 -2147483648 -1 #
face $151 -1 -1 $-1 $152 $153 $23 $-1 $154 reversed single T -18.359999999999999 -18.359999999999999 -18.359999999999999 -18.359999999999999 18.359999999999999 18.359999999999999 F #
loop $-1 -1 -1 $-1 $-1 $155 $86 T -18.359999999999999 -18.359999999999999 -18.359999999999999 18.359999999999999 -18.359999999999999 18.359999999999999 unknown #
plane-surface $-1 -1 -1 $-1 0 -18.359999999999999 0 0 1 -0 -0 0 1 forward_v I I I I #
coedge $-1 -1 -1 $-1 $156 $157 $158 $159 forward $87 $-1 #
coedge $-1 -1 -1 $-1 $160 $89 $161 $162 forward $61 $-1 #
coedge $-1 -1 -1 $-1 $89 $160 $163 $164 forward $61 $-1 #
coedge $-1 -1 -1 $-1 $165 $166 $89 $121 reversed $167 $-1 #
edge $168 -1 -1 $-1 $169 -18.359999999999999 $170 18.359999999999999 $120 $171 forward @7 unknown T 18.359999999999999 -18.359999999999999 18.359999999999999 18.359999999999999 18.359999999999999 18.359999999999999 #
simple-snl-attrib $-1 -1 $-1 $90 $45 1 1 1 1 1 1 1 1 1 1 1 1 0 1 0 1 1 1 @17 NEW_SIMPLE_ATTRIB 1 @13 MERGE_PARTNER 0 4 1692747604 1 100 1 #
face $172 -1 -1 $-1 $-1 $-1 $91 $-1 $173 reversed single T -5 -5 -5 5 5 5 F #
simple-snl-attrib $-1 -1 $174 $-1 $92 1 1 1 1 1 1 1 1 1 1 1 1 0 1 0 1 1 1 @17 NEW_SIMPLE_ATTRIB 1 @9 UNIQUE_ID 1 0 1 1631095697 #
sphere-surface $-1 -1 -1 $-1 7.5 0 0 0.5 1 0 0 0 0 1 forward_v I I I I #
simple-snl-attrib $-1 -1 $175 $93 $66 1 1 1 1 1 1 1 1 1 1 1 1 0 1 0 1 1 1 @17 NEW_SIMPLE_ATTRIB 1 @9 ENTITY_ID 0 3 15 -2147483648 -1 #
simple-snl-attrib $-1 -1 $-1 $95 $48 1 1 1 1 1 1 1 1 1 1 1 1 0 1 0 1 1 1 @17 NEW_SIMPLE_ATTRIB 1 @13 MERGE_PARTNER 0 4 192595623 1 117 1 #
simple-snl-attrib $-1 -1 $176 $96 $69 1 1 1 1 1 1 1 1 1 1 1 1 0 1 0 1 1 1 @17 NEW_SIMPLE_ATTRIB 1 @9 ENTITY_ID 0 3 14 -2147483648 -1 #
simple-snl-attrib $-1 -1 $-1 $98 $51 1 1 1 1 1 1 1 1 1 1 1 1 0 1 0 1 1 1 @17 NEW_SIMPLE_ATTRIB 1 @13 MERGE_PARTNER 0 4 1448682075 1 135 1 #
simple-snl-attrib $-1 -1 $-1 $99 $53 1 1 1 1 1 1 1 1 1 1 1 1 0 1 0 1 1 1 @17 NEW_SIMPLE_ATTRIB 1 @13 MERGE_PARTNER 0 4 1631095697 -1 20 0 #
simple-snl-attrib $-1 -1 $-1 $100 $55 1 1 1 1 1 1 1 1 1 1 1 1 0 1 0 1 1 1 @17 NEW_SIMPLE_ATTRIB 1 @13 MERGE_PARTNER 0 4 378111442 -1 21 0 #
simple-snl-attrib $-1 -1 $177 $101 $76 1 1 1 1 1 1 1 1 1 1 1 1 0 1 0 1 1 1 @17 NEW_SIMPLE_ATTRIB 1 @9 ENTITY_ID 0 3 18 -2147483648 -1 #
simple-snl-attrib $-1 -1 $-1 $-1 $104 1 1 1 1 1 1 1 1 1 1 1 1 0 1 0 1 1 1 @17 NEW_SIMPLE_ATTRIB 1 @9 ENTITY_ID 0 3 24 -2147483648 -1 #
face $178 -1 -1 $-1 $179 $180 $41 $-1 $181 reversed single T -18 -18 -18 -18 18 18 F #
loop $-1 -1 -1 $-1 $-1 $182 $104 T -18 -18 -18 18 -18 18 unknown #
plane-surface $-1 -1 -1 $-1 0 -18 0 0 1 -0 -0 0 1 forward_v I I I I #
coedge $-1 -1 -1 $-1 $183 $184 $185 $186 forward $105 $-1 #
coedge $-1 -1 -1 $-1 $187 $107 $188 $189 forward $79 $-1 #
coedge $-1 -1 -1 $-1 $107 $187 $190 $191 forward $79 $-1 #
coedge $-1 -1 -1 $-1 $192 $193 $107 $141 reversed $194 $-1 #
edge $195 -1 -1 $-1 $196 -18 $197 18 $140 $198 forward @7 unknown T 18 -18 18 18 18 18 #
simple-snl-attrib $-1 -1 $-1 $-1 $109 1 1 1 1 1 1 1 1 1 1 1 1 0 1 0 1 1 1 @17 NEW_SIMPLE_ATTRIB 1 @9 ENTITY_ID 0 3 9 -2147483648 -1 #
face $199 -1 -1 $-1 $200 $201 $42 $-1 $202 forward single T -18 -18 -18 -18 18 18 F #
loop $-1 -1 -1 $-1 $-1 $203 $109 T -18 -18 -18 18 -18 18 unknown #
plane-surface $-1 -1 -1 $-1 0 -18 0 0 1 -0 -0 0 1 forward_v I I I I #
coedge $-1 -1 -1 $-1 $204 $205 $206 $207 reversed $110 $-1 #
coedge $-1 -1 -1 $-1 $208 $112 $209 $210 reversed $83 $-1 #
coedge $-1 -1 -1 $-1 $112 $208 $211 $212 reversed $83 $-1 #
coedge $-1 -1 -1 $-1 $213 $214 $112 $150 forward $215 $-1 #
edge $216 -1 -1 $-1 $217 -18 $218 18 $149 $219 forward @7 unknown T 18 -18 18 18 18 18 #
simple-snl-attrib $-1 -1 $-1 $-1 $114 1 1 1 1 1 1 1 1 1 1 1 1 0 1 0 1 1 1 @17 NEW_SIMPLE_ATTRIB 1 @9 ENTITY_ID 0 3 4 -2147483648 -1 #
face $220 -1 -1 $-1 $221 $222 $23 $-1 $223 reversed single T -18.359999999999999 18.359999999999999 -18.359999999999999 18.359999999999999 18.359999999999999 18.359999999999999 F #
loop $-1 -1 -1 $-1 $-1 $224 $114 T -18.359999999999999 -18.359999999999999 -18.359999999999999 -18.359999999999999 18.359999999999999 18.359999999999999 unknown #
plane-surface $-1 -1 -1 $-1 -18.359999999999999 0 0 1 0 0 0 0 -1 forward_v I I I I #
coedge $-1 -1 -1 $-1 $225 $163 $226 $227 forward $115 $-1 #
coedge $-1 -1 -1 $-1 $228 $117 $225 $229 forward $87 $-1 #
coedge $-1 -1 -1 $-1 $117 $228 $230 $231 forward $87 $-1 #
coedge $-1 -1 -1 $-1 $166 $165 $117 $159 reversed $167 $-1 #
edge $232 -1 -1 $-1 $233 -18.359999999999999 $234 18.359999999999999 $158 $235 forward @7 unknown T 18.359999999999999 -18.359999999999999 -18.359999999999999 18.359999999999999 18.359999999999999 -18.359999999999999 #
coedge $-1 -1 -1 $-1 $119 $118 $236 $237 forward $61 $-1 #
coedge $-1 -1 -1 $-1 $238 $239 $118 $162 reversed $222 $-1 #
edge $240 -1 -1 $-1 $170 -18.359999999999999 $241 18.359999999999999 $161 $242 forward @7 unknown T -18.359999999999999 18.359999999999999 18.359999999999999 18.359999999999999 18.359999999999999 18.359999999999999 #
coedge $-1 -1 -1 $-1 $155 $243 $119 $164 reversed $115 $-1 #
edge $244 -1 -1 $-1 $245 -18.359999999999999 $169 18.359999999999999 $163 $246 forward @7 unknown T -18.359999999999999 -18.359999999999999 18.359999999999999 18.359999999999999 -18.359999999999999 18.359999999999999 #
coedge $-1 -1 -1 $-1 $158 $120 $243 $247 forward $167 $-1 #
coedge $-1 -1 -1 $-1 $120 $158 $238 $248 reversed $167 $-1 #
loop $-1 -1 -1 $-1 $-1 $165 $221 T 18.359999999999999 -18.359999999999999 -18.359999999999999 18.359999999999999 18.359999999999999 18.359999999999999 unknown #
simple-snl-attrib $-1 -1 $-1 $-1 $121 1 1 1 1 1 1 1 1 1 1 1 1 0 1 0 1 1 1 @17 NEW_SIMPLE_ATTRIB 1 @9 ENTITY_ID 0 3 37 -2147483648 -1 #
vertex $249 -1 -1 $-1 $121 $250 #
vertex $251 -1 -1 $-1 $121 $252 #
straight-curve $-1 -1 -1 $-1 18.359999999999999 0 18.359999999999999 0 1 0 I I #
simple-snl-attrib $-1 -1 $253 $-1 $123 1 1 1 1 1 1 1 1 1 1 1 1 0 1 0 1 1 1 @17 NEW_SIMPLE_ATTRIB 1 @9 UNIQUE_ID 1 0 1 1692747604 #
sphere-surface $-1 -1 -1 $-1 0 0 0 5 1 0 0 0 0 1 forward_v I I I I #
simple-snl-attrib $-1 -1 $254 $124 $92 1 1 1 1 1 1 1 1 1 1 1 1 0 1 0 1 1 1 @17 NEW_SIMPLE_ATTRIB 1 @9 ENTITY_ID 0 3 16 -2147483648 -1 #
simple-snl-attrib $-1 -1 $-1 $126 $66 1 1 1 1 1 1 1 1 1 1 1 1 0 1 0 1 1 1 @17 NEW_SIMPLE_ATTRIB 1 @13 MERGE_PARTNER 0 4 378111442 1 118 1 #
simple-snl-attrib $-1 -1 $-1 $128 $69 1 1 1 1 1 1 1 1 1 1 1 1 0 1 0 1 1 1 @17 NEW_SIMPLE_ATTRIB 1 @13 MERGE_PARTNER 0 4 192595623 -1 19 0 #
simple-snl-attrib $-1 -1 $-1 $132 $76 1 1 1 1 1 1 1 1 1 1 1 1 0 1 0 1 1 1 @17 NEW_SIMPLE_ATTRIB 1 @13 MERGE_PARTNER 0 4 1448682075 -1 28 0 #
simple-snl-attrib $-1 -1 $-1 $-1 $134 1 1 1 1 1 1 1 1 1 1 1 1 0 1 0 1 1 1 @17 NEW_SIMPLE_ATTRIB 1 @9 ENTITY_ID 0 3 25 -2147483648 -1 #
face $255 -1 -1 $-1 $256 $257 $41 $-1 $258 reversed single T -18 18 -18 18 18 18 F #
loop $-1 -1 -1 $-1 $-1 $259 $134 T -18 -18 -18 -18 18 18 unknown #
plane-surface $-1 -1 -1 $-1 -18 0 0 1 0 0 0 0 -1 forward_v I I I I #
coedge $-1 -1 -1 $-1 $260 $190 $261 $262 forward $135 $-1 #
coedge $-1 -1 -1 $-1 $263 $137 $260 $264 forward $105 $-1 #
coedge $-1 -1 -1 $-1 $137 $263 $265 $266 forward $105 $-1 #
coedge $-1 -1 -1 $-1 $193 $192 $137 $186 reversed $194 $-1 #
edge $267 -1 -1 $-1 $268 -18 $269 18 $185 $270 forward @7 unknown T 18 -18 -18 18 18 -18 #
coedge $-1 -1 -1 $-1 $139 $138 $271 $272 forward $79 $-1 #
coedge $-1 -1 -1 $-1 $273 $274 $138 $189 reversed $257 $-1 #
edge $275 -1 -1 $-1 $197 -18 $276 18 $188 $277 forward @7 unknown T -18 18 18 18 18 18 #
coedge $-1 -1 -1 $-1 $182 $278 $139 $191 reversed $135 $-1 #
edge $279 -1 -1 $-1 $280 -18 $196 18 $190 $281 forward @7 unknown T -18 -18 18 18 -18 18 #
coedge $-1 -1 -1 $-1 $185 $140 $278 $282 forward $194 $-1 #
coedge $-1 -1 -1 $-1 $140 $185 $273 $283 reversed $194 $-1 #
loop $-1 -1 -1 $-1 $-1 $192 $256 T 18 -18 -18 18 18 18 unknown #
simple-snl-attrib $-1 -1 $-1 $-1 $141 1 1 1 1 1 1 1 1 1 1 1 1 0 1 0 1 1 1 @17 NEW_SIMPLE_ATTRIB 1 @9 ENTITY_ID 0 3 205 -2147483648 -1 #
vertex $284 -1 -1 $-1 $141 $285 #
vertex $286 -1 -1 $-1 $141 $287 #
straight-curve $-1 -1 -1 $-1 18 0 18 0 1 0 I I #
simple-snl-attrib $-1 -1 $-1 $-1 $143 1 1 1 1 1 1 1 1 1 1 1 1 0 1 0 1 1 1 @17 NEW_SIMPLE_ATTRIB 1 @9 ENTITY_ID 0 3 10 -2147483648 -1 #
face $288 -1 -1 $-1 $289 $290 $42 $-1 $291 forward single T -18 18 -18 18 18 18 F #
loop $-1 -1 -1 $-1 $-1 $292 $143 T -18 -18 -18 -18 18 18 unknown #
plane-surface $-1 -1 -1 $-1 -18 0 0 1 0 0 0 0 -1 forward_v I I I I #
coedge $-1 -1 -1 $-1 $209 $293 $294 $295 reversed $144 $-1 #
coedge $-1 -1 -1 $-1 $296 $146 $297 $298 reversed $110 $-1 #
coedge $-1 -1 -1 $-1 $146 $296 $293 $299 reversed $110 $-1 #
coedge $-1 -1 -1 $-1 $214 $213 $146 $207 forward $215 $-1 #
edge $300 -1 -1 $-1 $301 -18 $302 18 $206 $303 forward @7 unknown T 18 -18 -18 18 18 -18 #
coedge $-1 -1 -1 $-1 $148 $147 $304 $305 reversed $83 $-1 #
coedge $-1 -1 -1 $-1 $306 $203 $147 $210 forward $144 $-1 #
edge $307 -1 -1 $-1 $308 -18 $217 18 $209 $309 forward @7 unknown T -18 -18 18 18 -18 18 #
coedge $-1 -1 -1 $-1 $310 $311 $148 $212 forward $290 $-1 #
edge $312 -1 -1 $-1 $218 -18 $313 18 $211 $314 forward @7 unknown T -18 18 18 18 18 18 #
coedge $-1 -1 -1 $-1 $206 $149 $311 $315 forward $215 $-1 #
coedge $-1 -1 -1 $-1 $149 $206 $306 $316 reversed $215 $-1 #
loop $-1 -1 -1 $-1 $-1 $214 $289 T 18 -18 -18 18 18 18 unknown #
simple-snl-attrib $-1 -1 $-1 $-1 $150 1 1 1 1 1 1 1 1 1 1 1 1 0 1 0 1 1 1 @17 NEW_SIMPLE_ATTRIB 1 @9 ENTITY_ID 0 3 61 -2147483648 -1 #
vertex $317 -1 -1 $-1 $150 $318 #
vertex $319 -1 -1 $-1 $150 $320 #
straight-curve $-1 -1 -1 $-1 18 0 18 0 1 0 I I #
simple-snl-attrib $-1 -1 $-1 $-1 $152 1 1 1 1 1 1 1 1 1 1 1 1 0 1 0 1 1 1 @17 NEW_SIMPLE_ATTRIB 1 @9 ENTITY_ID 0 3 5 -2147483648 -1 #
face $321 -1 -1 $-1 $-1 $167 $23 $-1 $322 reversed single T 18.359999999999999 -18.359999999999999 -18.359999999999999 18.359999999999999 18.359999999999999 18.359999999999999 F #
loop $-1 -1 -1 $-1 $-1 $238 $152 T -18.359999999999999 18.359999999999999 -18.359999999999999 18.359999999999999 18.359999999999999 18.359999999999999 unknown #
plane-surface $-1 -1 -1 $-1 0 18.359999999999999 0 0 -1 0 0 0 -1 forward_v I I I I #
coedge $-1 -1 -1 $-1 $323 $236 $239 $324 forward $153 $-1 #
coedge $-1 -1 -1 $-1 $243 $155 $156 $229 reversed $115 $-1 #
coedge $-1 -1 -1 $-1 $236 $323 $155 $227 reversed $153 $-1 #
edge $325 -1 -1 $-1 $245 -18.359999999999999 $326 18.359999999999999 $226 $327 forward @7 unknown T -18.359999999999999 -18.359999999999999 -18.359999999999999 -18.359999999999999 -18.359999999999999 18.359999999999999 #
coedge $-1 -1 -1 $-1 $157 $156 $323 $328 forward $87 $-1 #
edge $329 -1 -1 $-1 $234 -18.359999999999999 $326 18.359999999999999 $225 $330 forward @7 unknown T -18.359999999999999 -18.359999999999999 -18.359999999999999 18.359999999999999 -18.359999999999999 -18.359999999999999 #
coedge $-1 -1 -1 $-1 $239 $238 $157 $231 reversed $222 $-1 #
edge $331 -1 -1 $-1 $332 -18.359999999999999 $233 18.359999999999999 $230 $333 forward @7 unknown T -18.359999999999999 18.359999999999999 -18.359999999999999 18.359999999999999 18.359999999999999 -18.359999999999999 #
simple-snl-attrib $-1 -1 $-1 $-1 $159 1 1 1 1 1 1 1 1 1 1 1 1 0 1 0 1 1 1 @17 NEW_SIMPLE_ATTRIB 1 @9 ENTITY_ID 0 3 41 -2147483648 -1 #
vertex $334 -1 -1 $-1 $159 $335 #
vertex $336 -1 -1 $-1 $247 $337 #
straight-curve $-1 -1 -1 $-1 18.359999999999999 0 -18.359999999999999 0 -1 0 I I #
coedge $-1 -1 -1 $-1 $224 $226 $160 $237 reversed $153 $-1 #
edge $338 -1 -1 $-1 $241 -18.359999999999999 $245 18.359999999999999 $236 $339 forward @7 unknown T -18.359999999999999 -18.359999999999999 18.359999999999999 -18.359999999999999 18.359999999999999 18.359999999999999 #
coedge $-1 -1 -1 $-1 $230 $161 $166 $248 forward $222 $-1 #
coedge $-1 -1 -1 $-1 $161 $230 $224 $324 reversed $222 $-1 #
simple-snl-attrib $-1 -1 $-1 $-1 $162 1 1 1 1 1 1 1 1 1 1 1 1 0 1 0 1 1 1 @17 NEW_SIMPLE_ATTRIB 1 @9 ENTITY_ID 0 3 38 -2147483648 -1 #
vertex $340 -1 -1 $-1 $162 $341 #
straight-curve $-1 -1 -1 $-1 0 18.359999999999999 18.359999999999999 -1 0 0 I I #
coedge $-1 -1 -1 $-1 $163 $225 $165 $247 reversed $115 $-1 #
simple-snl-attrib $-1 -1 $-1 $-1 $164 1 1 1 1 1 1 1 1 1 1 1 1 0 1 0 1 1 1 @17 NEW_SIMPLE_ATTRIB 1 @9 ENTITY_ID 0 3 40 -2147483648 -1 #
vertex $342 -1 -1 $-1 $237 $343 #
straight-curve $-1 -1 -1 $-1 0 -18.359999999999999 18.359999999999999 1 0 0 I I #
edge $344 -1 -1 $-1 $169 -18.359999999999999 $234 18.359999999999999 $165 $345 forward @7 unknown T 18.359999999999999 -18.359999999999999 -18.359999999999999 18.359999999999999 -18.359999999999999 18.359999999999999 #
edge $346 -1 -1 $-1 $170 -18.359999999999999 $233 18.359999999999999 $166 $347 forward @7 unknown T 18.359999999999999 18.359999999999999 -18.359999999999999 18.359999999999999 18.359999999999999 18.359999999999999 #
simple-snl-attrib $-1 -1 $-1 $-1 $169 1 1 1 1 1 1 1 1 1 1 1 1 0 1 0 1 1 1 @17 NEW_SIMPLE_ATTRIB 1 @9 ENTITY_ID 0 3 25 -2147483648 -1 #
point $-1 -1 -1 $-1 18.359999999999999 -18.359999999999999 18.359999999999999 #
simple-snl-attrib $-1 -1 $-1 $-1 $170 1 1 1 1 1 1 1 1 1 1 1 1 0 1 0 1 1 1 @17 NEW_SIMPLE_ATTRIB 1 @9 ENTITY_ID 0 3 26 -2147483648 -1 #
point $-1 -1 -1 $-1 18.359999999999999 18.359999999999999 18.359999999999999 #
simple-snl-attrib $-1 -1 $348 $172 $123 1 1 1 1 1 1 1 1 1 1 1 1 0 1 0 1 1 1 @17 NEW_SIMPLE_ATTRIB 1 @9 ENTITY_ID 0 3 13 -2147483648 -1 #
simple-snl-attrib $-1 -1 $-1 $174 $92 1 1 1 1 1 1 1 1 1 1 1 1 0 1 0 1 1 1 @17 NEW_SIMPLE_ATTRIB 1 @13 MERGE_PARTNER 0 4 1631095697 1 119 1 #
simple-snl-attrib $-1 -1 $-1 $-1 $179 1 1 1 1 1 1 1 1 1 1 1 1 0 1 0 1 1 1 @17 NEW_SIMPLE_ATTRIB 1 @9 ENTITY_ID 0 3 26 -2147483648 -1 #
face $349 -1 -1 $-1 $-1 $194 $41 $-1 $350 reversed single T 18 -18 -18 18 18 18 F #
loop $-1 -1 -1 $-1 $-1 $273 $179 T -18 18 -18 18 18 18 unknown #
plane-surface $-1 -1 -1 $-1 0 18 0 0 -1 0 0 0 -1 forward_v I I I I #
coedge $-1 -1 -1 $-1 $351 $271 $274 $352 forward $180 $-1 #
coedge $-1 -1 -1 $-1 $278 $182 $183 $264 reversed $135 $-1 #
coedge $-1 -1 -1 $-1 $271 $351 $182 $262 reversed $180 $-1 #
edge $353 -1 -1 $-1 $280 -18 $354 18 $261 $355 forward @7 unknown T -18 -18 -18 -18 -18 18 #
coedge $-1 -1 -1 $-1 $184 $183 $351 $356 forward $105 $-1 #
edge $357 -1 -1 $-1 $269 -18 $354 18 $260 $358 forward @7 unknown T -18 -18 -18 18 -18 -18 #
coedge $-1 -1 -1 $-1 $274 $273 $184 $266 reversed $257 $-1 #
edge $359 -1 -1 $-1 $360 -18 $268 18 $265 $361 forward @7 unknown T -18 18 -18 18 18 -18 #
simple-snl-attrib $-1 -1 $-1 $-1 $186 1 1 1 1 1 1 1 1 1 1 1 1 0 1 0 1 1 1 @17 NEW_SIMPLE_ATTRIB 1 @9 ENTITY_ID 0 3 209 -2147483648 -1 #
vertex $362 -1 -1 $-1 $186 $363 #
vertex $364 -1 -1 $-1 $282 $365 #
straight-curve $-1 -1 -1 $-1 18 0 -18 0 -1 0 I I #
coedge $-1 -1 -1 $-1 $259 $261 $187 $272 reversed $180 $-1 #
edge $366 -1 -1 $-1 $276 -18 $280 18 $271 $367 forward @7 unknown T -18 -18 18 -18 18 18 #
coedge $-1 -1 -1 $-1 $265 $188 $193 $283 forward $257 $-1 #
coedge $-1 -1 -1 $-1 $188 $265 $259 $352 reversed $257 $-1 #
simple-snl-attrib $-1 -1 $-1 $-1 $189 1 1 1 1 1 1 1 1 1 1 1 1 0 1 0 1 1 1 @17 NEW_SIMPLE_ATTRIB 1 @9 ENTITY_ID 0 3 206 -2147483648 -1 #
vertex $368 -1 -1 $-1 $189 $369 #
straight-curve $-1 -1 -1 $-1 0 18 18 -1 0 0 I I #
coedge $-1 -1 -1 $-1 $190 $260 $192 $282 reversed $135 $-1 #
simple-snl-attrib $-1 -1 $-1 $-1 $191 1 1 1 1 1 1 1 1 1 1 1 1 0 1 0 1 1 1 @17 NEW_SIMPLE_ATTRIB 1 @9 ENTITY_ID 0 3 208 -2147483648 -1 #
vertex $370 -1 -1 $-1 $272 $371 #
straight-curve $-1 -1 -1 $-1 0 -18 18 1 0 0 I I #
edge $372 -1 -1 $-1 $196 -18 $269 18 $192 $373 forward @7 unknown T 18 -18 -18 18 -18 18 #
edge $374 -1 -1 $-1 $197 -18 $268 18 $193 $375 forward @7 unknown T 18 18 -18 18 18 18 #
simple-snl-attrib $-1 -1 $-1 $-1 $196 1 1 1 1 1 1 1 1 1 1 1 1 0 1 0 1 1 1 @17 NEW_SIMPLE_ATTRIB 1 @9 ENTITY_ID 0 3 137 -2147483648 -1 #
point $-1 -1 -1 $-1 18 -18 18 #
simple-snl-attrib $-1 -1 $-1 $-1 $197 1 1 1 1 1 1 1 1 1 1 1 1 0 1 0 1 1 1 @17 NEW_SIMPLE_ATTRIB 1 @9 ENTITY_ID 0 3 138 -2147483648 -1 #
point $-1 -1 -1 $-1 18 18 18 #
simple-snl-attrib $-1 -1 $-1 $-1 $200 1 1 1 1 1 1 1 1 1 1 1 1 0 1 0 1 1 1 @17 NEW_SIMPLE_ATTRIB 1 @9 ENTITY_ID 0 3 11 -2147483648 -1 #
face $376 -1 -1 $-1 $-1 $215 $42 $-1 $377 forward single T 18 -18 -18 18 18 18 F #
loop $-1 -1 -1 $-1 $-1 $311 $200 T -18 18 -18 18 18 18 unknown #
plane-surface $-1 -1 -1 $-1 0 18 0 0 -1 0 0 0 -1 forward_v I I I I #
coedge $-1 -1 -1 $-1 $304 $378 $310 $379 reversed $201 $-1 #
coedge $-1 -1 -1 $-1 $203 $306 $205 $299 forward $144 $-1 #
coedge $-1 -1 -1 $-1 $378 $304 $203 $295 forward $201 $-1 #
edge $380 -1 -1 $-1 $308 -18 $381 18 $294 $382 forward @7 unknown T -18 -18 -18 -18 -18 18 #
coedge $-1 -1 -1 $-1 $205 $204 $378 $383 reversed $110 $-1 #
coedge $-1 -1 -1 $-1 $311 $310 $204 $298 forward $290 $-1 #
edge $384 -1 -1 $-1 $385 -18 $301 18 $297 $386 forward @7 unknown T -18 18 -18 18 18 -18 #
edge $387 -1 -1 $-1 $302 -18 $381 18 $293 $388 forward @7 unknown T -18 -18 -18 18 -18 -18 #
simple-snl-attrib $-1 -1 $-1 $-1 $207 1 1 1 1 1 1 1 1 1 1 1 1 0 1 0 1 1 1 @17 NEW_SIMPLE_ATTRIB 1 @9 ENTITY_ID 0 3 65 -2147483648 -1 #
vertex $389 -1 -1 $-1 $207 $390 #
vertex $391 -1 -1 $-1 $316 $392 #
straight-curve $-1 -1 -1 $-1 18 0 -18 0 -1 0 I I #
coedge $-1 -1 -1 $-1 $294 $292 $208 $305 forward $201 $-1 #
edge $393 -1 -1 $-1 $313 -18 $308 18 $304 $394 forward @7 unknown T -18 -18 18 -18 18 18 #
coedge $-1 -1 -1 $-1 $293 $209 $214 $316 forward $144 $-1 #
simple-snl-attrib $-1 -1 $-1 $-1 $210 1 1 1 1 1 1 1 1 1 1 1 1 0 1 0 1 1 1 @17 NEW_SIMPLE_ATTRIB 1 @9 ENTITY_ID 0 3 62 -2147483648 -1 #
vertex $395 -1 -1 $-1 $305 $396 #
straight-curve $-1 -1 -1 $-1 0 -18 18 1 0 0 I I #
coedge $-1 -1 -1 $-1 $297 $211 $292 $379 forward $290 $-1 #
coedge $-1 -1 -1 $-1 $211 $297 $213 $315 reversed $290 $-1 #
simple-snl-attrib $-1 -1 $-1 $-1 $212 1 1 1 1 1 1 1 1 1 1 1 1 0 1 0 1 1 1 @17 NEW_SIMPLE_ATTRIB 1 @9 ENTITY_ID 0 3 64 -2147483648 -1 #
vertex $397 -1 -1 $-1 $212 $398 #
straight-curve $-1 -1 -1 $-1 0 18 18 -1 0 0 I I #
edge $399 -1 -1 $-1 $218 -18 $301 18 $213 $400 forward @7 unknown T 18 18 -18 18 18 18 #
edge $401 -1 -1 $-1 $217 -18 $302 18 $214 $402 forward @7 unknown T 18 -18 -18 18 -18 18 #
simple-snl-attrib $-1 -1 $-1 $-1 $217 1 1 1 1 1 1 1 1 1 1 1 1 0 1 0 1 1 1 @17 NEW_SIMPLE_ATTRIB 1 @9 ENTITY_ID 0 3 41 -2147483648 -1 #
point $-1 -1 -1 $-1 18 -18 18 #
simple-snl-attrib $-1 -1 $-1 $-1 $218 1 1 1 1 1 1 1 1 1 1 1 1 0 1 0 1 1 1 @17 NEW_SIMPLE_ATTRIB 1 @9 ENTITY_ID 0 3 42 -2147483648 -1 #
point $-1 -1 -1 $-1 18 18 18 #
simple-snl-attrib $-1 -1 $-1 $-1 $221 1 1 1 1 1 1 1 1 1 1 1 1 0 1 0 1 1 1 @17 NEW_SIMPLE_ATTRIB 1 @9 ENTITY_ID 0 3 6 -2147483648 -1 #
plane-surface $-1 -1 -1 $-1 18.359999999999999 0 0 -1 0 0 0 -0 1 forward_v I I I I #
coedge $-1 -1 -1 $-1 $226 $224 $228 $328 reversed $153 $-1 #
edge $403 -1 -1 $-1 $241 -18.359999999999999 $332 18.359999999999999 $239 $404 forward @7 unknown T -18.359999999999999 18.359999999999999 -18.359999999999999 -18.359999999999999 18.359999999999999 18.359999999999999 #
simple-snl-attrib $-1 -1 $-1 $-1 $227 1 1 1 1 1 1 1 1 1 1 1 1 0 1 0 1 1 1 @17 NEW_SIMPLE_ATTRIB 1 @9 ENTITY_ID 0 3 45 -2147483648 -1 #
vertex $405 -1 -1 $-1 $328 $406 #
straight-curve $-1 -1 -1 $-1 -18.359999999999999 -18.359999999999999 0 0 0 -1 I I #
edge $407 -1 -1 $-1 $326 -18.359999999999999 $332 18.359999999999999 $323 $408 forward @7 unknown T -18.359999999999999 -18.359999999999999 -18.359999999999999 -18.359999999999999 18.359999999999999 -18.359999999999999 #
simple-snl-attrib $-1 -1 $-1 $-1 $229 1 1 1 1 1 1 1 1 1 1 1 1 0 1 0 1 1 1 @17 NEW_SIMPLE_ATTRIB 1 @9 ENTITY_ID 0 3 42 -2147483648 -1 #
straight-curve $-1 -1 -1 $-1 0 -18.359999999999999 -18.359999999999999 -1 0 0 I I #
simple-snl-attrib $-1 -1 $-1 $-1 $231 1 1 1 1 1 1 1 1 1 1 1 1 0 1 0 1 1 1 @17 NEW_SIMPLE_ATTRIB 1 @9 ENTITY_ID 0 3 44 -2147483648 -1 #
vertex $409 -1 -1 $-1 $231 $410 #
straight-curve $-1 -1 -1 $-1 0 18.359999999999999 -18.359999999999999 1 0 0 I I #
simple-snl-attrib $-1 -1 $-1 $-1 $233 1 1 1 1 1 1 1 1 1 1 1 1 0 1 0 1 1 1 @17 NEW_SIMPLE_ATTRIB 1 @9 ENTITY_ID 0 3 29 -2147483648 -1 #
point $-1 -1 -1 $-1 18.359999999999999 18.359999999999999 -18.359999999999999 #
simple-snl-attrib $-1 -1 $-1 $-1 $234 1 1 1 1 1 1 1 1 1 1 1 1 0 1 0 1 1 1 @17 NEW_SIMPLE_ATTRIB 1 @9 ENTITY_ID 0 3 30 -2147483648 -1 #
point $-1 -1 -1 $-1 18.359999999999999 -18.359999999999999 -18.359999999999999 #
simple-snl-attrib $-1 -1 $-1 $-1 $237 1 1 1 1 1 1 1 1 1 1 1 1 0 1 0 1 1 1 @17 NEW_SIMPLE_ATTRIB 1 @9 ENTITY_ID 0 3 39 -2147483648 -1 #
straight-curve $-1 -1 -1 $-1 -18.359999999999999 0 18.359999999999999 0 -1 0 I I #
simple-snl-attrib $-1 -1 $-1 $-1 $241 1 1 1 1 1 1 1 1 1 1 1 1 0 1 0 1 1 1 @17 NEW_SIMPLE_ATTRIB 1 @9 ENTITY_ID 0 3 27 -2147483648 -1 #
point $-1 -1 -1 $-1 -18.359999999999999 18.359999999999999 18.359999999999999 #
simple-snl-attrib $-1 -1 $-1 $-1 $245 1 1 1 1 1 1 1 1 1 1 1 1 0 1 0 1 1 1 @17 NEW_SIMPLE_ATTRIB 1 @9 ENTITY_ID 0 3 28 -2147483648 -1 #
point $-1 -1 -1 $-1 -18.359999999999999 -18.359999999999999 18.359999999999999 #
simple-snl-attrib $-1 -1 $-1 $-1 $247 1 1 1 1 1 1 1 1 1 1 1 1 0 1 0 1 1 1 @17 NEW_SIMPLE_ATTRIB 1 @9 ENTITY_ID 0 3 46 -2147483648 -1 #
straight-curve $-1 -1 -1 $-1 18.359999999999999 -18.359999999999999 0 0 0 -1 I I #
simple-snl-attrib $-1 -1 $-1 $-1 $248 1 1 1 1 1 1 1 1 1 1 1 1 0 1 0 1 1 1 @17 NEW_SIMPLE_ATTRIB 1 @9 ENTITY_ID 0 3 48 -2147483648 -1 #
straight-curve $-1 -1 -1 $-1 18.359999999999999 18.359999999999999 0 0 0 -1 I I #
simple-snl-attrib $-1 -1 $-1 $253 $123 1 1 1 1 1 1 1 1 1 1 1 1 0 1 0 1 1 1 @17 NEW_SIMPLE_ATTRIB 1 @13 MERGE_PARTNER 0 4 1692747604 -1 17 0 #
simple-snl-attrib $-1 -1 $-1 $-1 $256 1 1 1 1 1 1 1 1 1 1 1 1 0 1 0 1 1 1 @17 NEW_SIMPLE_ATTRIB 1 @9 ENTITY_ID 0 3 27 -2147483648 -1 #
plane-surface $-1 -1 -1 $-1 18 0 0 -1 0 0 0 -0 1 forward_v I I I I #
coedge $-1 -1 -1 $-1 $261 $259 $263 $356 reversed $180 $-1 #
edge $411 -1 -1 $-1 $276 -18 $360 18 $274 $412 forward @7 unknown T -18 18 -18 -18 18 18 #
simple-snl-attrib $-1 -1 $-1 $-1 $262 1 1 1 1 1 1 1 1 1 1 1 1 0 1 0 1 1 1 @17 NEW_SIMPLE_ATTRIB 1 @9 ENTITY_ID 0 3 213 -2147483648 -1 #
vertex $413 -1 -1 $-1 $356 $414 #
straight-curve $-1 -1 -1 $-1 -18 -18 0 0 0 -1 I I #
edge $415 -1 -1 $-1 $354 -18 $360 18 $351 $416 forward @7 unknown T -18 -18 -18 -18 18 -18 #
simple-snl-attrib $-1 -1 $-1 $-1 $264 1 1 1 1 1 1 1 1 1 1 1 1 0 1 0 1 1 1 @17 NEW_SIMPLE_ATTRIB 1 @9 ENTITY_ID 0 3 210 -2147483648 -1 #
straight-curve $-1 -1 -1 $-1 0 -18 -18 -1 0 0 I I #
simple-snl-attrib $-1 -1 $-1 $-1 $266 1 1 1 1 1 1 1 1 1 1 1 1 0 1 0 1 1 1 @17 NEW_SIMPLE_ATTRIB 1 @9 ENTITY_ID 0 3 212 -2147483648 -1 #
vertex $417 -1 -1 $-1 $266 $418 #
straight-curve $-1 -1 -1 $-1 0 18 -18 1 0 0 I I #
simple-snl-attrib $-1 -1 $-1 $-1 $268 1 1 1 1 1 1 1 1 1 1 1 1 0 1 0 1 1 1 @17 NEW_SIMPLE_ATTRIB 1 @9 ENTITY_ID 0 3 141 -2147483648 -1 #
point $-1 -1 -1 $-1 18 18 -18 #
simple-snl-attrib $-1 -1 $-1 $-1 $269 1 1 1 1 1 1 1 1 1 1 1 1 0 1 0 1 1 1 @17 NEW_SIMPLE_ATTRIB 1 @9 ENTITY_ID 0 3 142 -2147483648 -1 #
point $-1 -1 -1 $-1 18 -18 -18 #
simple-snl-attrib $-1 -1 $-1 $-1 $272 1 1 1 1 1 1 1 1 1 1 1 1 0 1 0 1 1 1 @17 NEW_SIMPLE_ATTRIB 1 @9 ENTITY_ID 0 3 207 -2147483648 -1 #
straight-curve $-1 -1 -1 $-1 -18 0 18 0 -1 0 I I #
simple-snl-attrib $-1 -1 $-1 $-1 $276 1 1 1 1 1 1 1 1 1 1 1 1 0 1 0 1 1 1 @17 NEW_SIMPLE_ATTRIB 1 @9 ENTITY_ID 0 3 139 -2147483648 -1 #
point $-1 -1 -1 $-1 -18 18 18 #
simple-snl-attrib $-1 -1 $-1 $-1 $280 1 1 1 1 1 1 1 1 1 1 1 1 0 1 0 1 1 1 @17 NEW_SIMPLE_ATTRIB 1 @9 ENTITY_ID 0 3 140 -2147483648 -1 #
point $-1 -1 -1 $-1 -18 -18 18 #
simple-snl-attrib $-1 -1 $-1 $-1 $282 1 1 1 1 1 1 1 1 1 1 1 1 0 1 0 1 1 1 @17 NEW_SIMPLE_ATTRIB 1 @9 ENTITY_ID 0 3 214 -2147483648 -1 #
straight-curve $-1 -1 -1 $-1 18 -18 0 0 0 -1 I I #
simple-snl-attrib $-1 -1 $-1 $-1 $283 1 1 1 1 1 1 1 1 1 1 1 1 0 1 0 1 1 1 @17 NEW_SIMPLE_ATTRIB 1 @9 ENTITY_ID 0 3 216 -2147483648 -1 #
straight-curve $-1 -1 -1 $-1 18 18 0 0 0 -1 I I #
simple-snl-attrib $-1 -1 $-1 $-1 $289 1 1 1 1 1 1 1 1 1 1 1 1 0 1 0 1 1 1 @17 NEW_SIMPLE_ATTRIB 1 @9 ENTITY_ID 0 3 12 -2147483648 -1 #
plane-surface $-1 -1 -1 $-1 18 0 0 -1 0 0 0 -0 1 forward_v I I I I #
coedge $-1 -1 -1 $-1 $292 $294 $296 $383 forward $201 $-1 #
edge $419 -1 -1 $-1 $313 -18 $385 18 $310 $420 forward @7 unknown T -18 18 -18 -18 18 18 #
simple-snl-attrib $-1 -1 $-1 $-1 $295 1 1 1 1 1 1 1 1 1 1 1 1 0 1 0 1 1 1 @17 NEW_SIMPLE_ATTRIB 1 @9 ENTITY_ID 0 3 69 -2147483648 -1 #
vertex $421 -1 -1 $-1 $383 $422 #
straight-curve $-1 -1 -1 $-1 -18 -18 0 0 0 -1 I I #
edge $423 -1 -1 $-1 $381 -18 $385 18 $378 $424 forward @7 unknown T -18 -18 -18 -18 18 -18 #
simple-snl-attrib $-1 -1 $-1 $-1 $298 1 1 1 1 1 1 1 1 1 1 1 1 0 1 0 1 1 1 @17 NEW_SIMPLE_ATTRIB 1 @9 ENTITY_ID 0 3 66 -2147483648 -1 #
vertex $425 -1 -1 $-1 $298 $426 #
straight-curve $-1 -1 -1 $-1 0 18 -18 1 0 0 I I #
simple-snl-attrib $-1 -1 $-1 $-1 $299 1 1 1 1 1 1 1 1 1 1 1 1 0 1 0 1 1 1 @17 NEW_SIMPLE_ATTRIB 1 @9 ENTITY_ID 0 3 68 -2147483648 -1 #
straight-curve $-1 -1 -1 $-1 0 -18 -18 -1 0 0 I I #
simple-snl-attrib $-1 -1 $-1 $-1 $301 1 1 1 1 1 1 1 1 1 1 1 1 0 1 0 1 1 1 @17 NEW_SIMPLE_ATTRIB 1 @9 ENTITY_ID 0 3 45 -2147483648 -1 #
point $-1 -1 -1 $-1 18 18 -18 #
simple-snl-attrib $-1 -1 $-1 $-1 $302 1 1 1 1 1 1 1 1 1 1 1 1 0 1 0 1 1 1 @17 NEW_SIMPLE_ATTRIB 1 @9 ENTITY_ID 0 3 46 -2147483648 -1 #
point $-1 -1 -1 $-1 18 -18 -18 #
simple-snl-attrib $-1 -1 $-1 $-1 $305 1 1 1 1 1 1 1 1 1 1 1 1 0 1 0 1 1 1 @17 NEW_SIMPLE_ATTRIB 1 @9 ENTITY_ID 0 3 63 -2147483648 -1 #
straight-curve $-1 -1 -1 $-1 -18 0 18 0 -1 0 I I #
simple-snl-attrib $-1 -1 $-1 $-1 $308 1 1 1 1 1 1 1 1 1 1 1 1 0 1 0 1 1 1 @17 NEW_SIMPLE_ATTRIB 1 @9 ENTITY_ID 0 3 43 -2147483648 -1 #
point $-1 -1 -1 $-1 -18 -18 18 #
simple-snl-attrib $-1 -1 $-1 $-1 $313 1 1 1 1 1 1 1 1 1 1 1 1 0 1 0 1 1 1 @17 NEW_SIMPLE_ATTRIB 1 @9 ENTITY_ID 0 3 44 -2147483648 -1 #
point $-1 -1 -1 $-1 -18 18 18 #
simple-snl-attrib $-1 -1 $-1 $-1 $315 1 1 1 1 1 1 1 1 1 1 1 1 0 1 0 1 1 1 @17 NEW_SIMPLE_ATTRIB 1 @9 ENTITY_ID 0 3 72 -2147483648 -1 #
straight-curve $-1 -1 -1 $-1 18 18 0 0 0 -1 I I #
simple-snl-attrib $-1 -1 $-1 $-1 $316 1 1 1 1 1 1 1 1 1 1 1 1 0 1 0 1 1 1 @17 NEW_SIMPLE_ATTRIB 1 @9 ENTITY_ID 0 3 70 -2147483648 -1 #
straight-curve $-1 -1 -1 $-1 18 -18 0 0 0 -1 I I #
simple-snl-attrib $-1 -1 $-1 $-1 $324 1 1 1 1 1 1 1 1 1 1 1 1 0 1 0 1 1 1 @17 NEW_SIMPLE_ATTRIB 1 @9 ENTITY_ID 0 3 47 -2147483648 -1 #
straight-curve $-1 -1 -1 $-1 -18.359999999999999 18.359999999999999 0 0 0 -1 I I #
simple-snl-attrib $-1 -1 $-1 $-1 $326 1 1 1 1 1 1 1 1 1 1 1 1 0 1 0 1 1 1 @17 NEW_SIMPLE_ATTRIB 1 @9 ENTITY_ID 0 3 31 -2147483648 -1 #
point $-1 -1 -1 $-1 -18.359999999999999 -18.359999999999999 -18.359999999999999 #
simple-snl-attrib $-1 -1 $-1 $-1 $328 1 1 1 1 1 1 1 1 1 1 1 1 0 1 0 1 1 1 @17 NEW_SIMPLE_ATTRIB 1 @9 ENTITY_ID 0 3 43 -2147483648 -1 #
straight-curve $-1 -1 -1 $-1 -18.359999999999999 0 -18.359999999999999 0 1 0 I I #
simple-snl-attrib $-1 -1 $-1 $-1 $332 1 1 1 1 1 1 1 1 1 1 1 1 0 1 0 1 1 1 @17 NEW_SIMPLE_ATTRIB 1 @9 ENTITY_ID 0 3 32 -2147483648 -1 #
point $-1 -1 -1 $-1 -18.359999999999999 18.359999999999999 -18.359999999999999 #
simple-snl-attrib $-1 -1 $-1 $-1 $352 1 1 1 1 1 1 1 1 1 1 1 1 0 1 0 1 1 1 @17 NEW_SIMPLE_ATTRIB 1 @9 ENTITY_ID 0 3 215 -2147483648 -1 #
straight-curve $-1 -1 -1 $-1 -18 18 0 0 0 -1 I I #
simple-snl-attrib $-1 -1 $-1 $-1 $354 1 1 1 1 1 1 1 1 1 1 1 1 0 1 0 1 1 1 @17 NEW_SIMPLE_ATTRIB 1 @9 ENTITY_ID 0 3 143 -2147483648 -1 #
point $-1 -1 -1 $-1 -18 -18 -18 #
simple-snl-attrib $-1 -1 $-1 $-1 $356 1 1 1 1 1 1 1 1 1 1 1 1 0 1 0 1 1 1 @17 NEW_SIMPLE_ATTRIB 1 @9 ENTITY_ID 0 3 211 -2147483648 -1 #
straight-curve $-1 -1 -1 $-1 -18 0 -18 0 1 0 I I #
simple-snl-attrib $-1 -1 $-1 $-1 $360 1 1 1 1 1 1 1 1 1 1 1 1 0 1 0 1 1 1 @17 NEW_SIMPLE_ATTRIB 1 @9 ENTITY_ID 0 3 144 -2147483648 -1 #
point $-1 -1 -1 $-1 -18 18 -18 #
simple-snl-attrib $-1 -1 $-1 $-1 $379 1 1 1 1 1 1 1 1 1 1 1 1 0 1 0 1 1 1 @17 NEW_SIMPLE_ATTRIB 1 @9 ENTITY_ID 0 3 71 -2147483648 -1 #
straight-curve $-1 -1 -1 $-1 -18 18 0 0 0 -1 I I #
simple-snl-attrib $-1 -1 $-1 $-1 $381 1 1 1 1 1 1 1 1 1 1 1 1 0 1 0 1 1 1 @17 NEW_SIMPLE_ATTRIB 1 @9 ENTITY_ID 0 3 48 -2147483648 -1 #
point $-1 -1 -1 $-1 -18 -18 -18 #
simple-snl-attrib $-1 -1 $-1 $-1 $383 1 1 1 1 1 1 1 1 1 1 1 1 0 1 0 1 1 1 @17 NEW_SIMPLE_ATTRIB 1 @9 ENTITY_ID 0 3 67 -2147483648 -1 #
straight-curve $-1 -1 -1 $-1 -18 0 -18 0 1 0 I I #
simple-snl-attrib $-1 -1 $-1 $-1 $385 1 1 1 1 1 1 1 1 1 1 1 1 0 1 0 1 1 1 @17 NEW_SIMPLE_ATTRIB 1 @9 ENTITY_ID 0 3 47 -2147483648 -1 #
point $-1 -1 -1 $-1 -18 18 -18 #
End-of-ACIS-data 