1600 0 12 0           
14 Cubit  (iGeom) 17 ACIS 16.0.7 Linux 24 Mon Mar 14 16:45:57 2011 
1 9.9999999999999995e-07 1e-10 
body $12 -1 -1 $-1 $13 $-1 $-1 F #
body $14 -1 -1 $-1 $15 $-1 $-1 T -0.001 -0.001 -0.001 0.001 0.001 0.001 #
body $16 -1 -1 $-1 $17 $-1 $-1 T -0.002 -0.002 -0.002 0.002 0.002 0.002 #
body $18 -1 -1 $-1 $19 $-1 $-1 T -0.0030000000000000001 -0.0030000000000000001 -0.0030000000000000001 0.0030000000000000001 0.0030000000000000001 0.0030000000000000001 #
body $20 -1 -1 $-1 $21 $-1 $-1 T -0.0040000000000000001 -0.0040000000000000001 -0.0040000000000000001 0.0040000000000000001 0.0040000000000000001 0.0040000000000000001 #
body $22 -1 -1 $-1 $23 $-1 $-1 T -0.0050000000000000001 -0.0050000000000000001 -0.0050000000000000001 0.0050000000000000001 0.0050000000000000001 0.0050000000000000001 #
body $24 -1 -1 $-1 $25 $-1 $-1 T -0.0060000000000000001 -0.0060000000000000001 -0.0060000000000000001 0.0060000000000000001 0.0060000000000000001 0.0060000000000000001 #
body $26 -1 -1 $-1 $27 $-1 $-1 T -0.0070000000000000001 -0.0070000000000000001 -0.0070000000000000001 0.0070000000000000001 0.0070000000000000001 0.0070000000000000001 #
body $28 -1 -1 $-1 $29 $-1 $-1 T -0.0080000000000000002 -0.0080000000000000002 -0.0080000000000000002 0.0080000000000000002 0.0080000000000000002 0.0080000000000000002 #
body $30 -1 -1 $-1 $31 $-1 $-1 T -0.0089999999999999993 -0.0089999999999999993 -0.0089999999999999993 0.0089999999999999993 0.0089999999999999993 0.0089999999999999993 #
body $32 -1 -1 $-1 $33 $-1 $-1 T -10 -10 -10 10 10 10 #
body $34 -1 -1 $-1 $35 $-1 $-1 T -12 -12 -12 12 12 12 #
simple-snl-attrib $-1 -1 $36 $-1 $0 1 1 1 1 1 1 1 1 1 1 1 1 0 1 0 1 1 1 @17 NEW_SIMPLE_ATTRIB 1 @9 ENTITY_ID 0 3 4 -2147483648 -1 #
lump $37 -1 -1 $-1 $-1 $38 $0 F #
simple-snl-attrib $-1 -1 $39 $-1 $1 1 1 1 1 1 1 1 1 1 1 1 1 0 1 0 1 1 1 @17 NEW_SIMPLE_ATTRIB 1 @9 ENTITY_ID 0 3 75 -2147483648 -1 #
lump $40 -1 -1 $-1 $-1 $41 $1 T -0.001 -0.001 -0.001 0.001 0.001 0.001 #
simple-snl-attrib $-1 -1 $42 $-1 $2 1 1 1 1 1 1 1 1 1 1 1 1 0 1 0 1 1 1 @17 NEW_SIMPLE_ATTRIB 1 @9 ENTITY_ID 0 3 78 -2147483648 -1 #
lump $43 -1 -1 $-1 $-1 $44 $2 T -0.002 -0.002 -0.002 0.002 0.002 0.002 #
simple-snl-attrib $-1 -1 $45 $-1 $3 1 1 1 1 1 1 1 1 1 1 1 1 0 1 0 1 1 1 @17 NEW_SIMPLE_ATTRIB 1 @9 ENTITY_ID 0 3 81 -2147483648 -1 #
lump $46 -1 -1 $-1 $-1 $47 $3 T -0.0030000000000000001 -0.0030000000000000001 -0.0030000000000000001 0.0030000000000000001 0.0030000000000000001 0.0030000000000000001 #
simple-snl-attrib $-1 -1 $48 $-1 $4 1 1 1 1 1 1 1 1 1 1 1 1 0 1 0 1 1 1 @17 NEW_SIMPLE_ATTRIB 1 @9 ENTITY_ID 0 3 84 -2147483648 -1 #
lump $49 -1 -1 $-1 $-1 $50 $4 T -0.0040000000000000001 -0.0040000000000000001 -0.0040000000000000001 0.0040000000000000001 0.0040000000000000001 0.0040000000000000001 #
simple-snl-attrib $-1 -1 $51 $-1 $5 1 1 1 1 1 1 1 1 1 1 1 1 0 1 0 1 1 1 @17 NEW_SIMPLE_ATTRIB 1 @9 ENTITY_ID 0 3 87 -2147483648 -1 #
lump $52 -1 -1 $-1 $-1 $53 $5 T -0.0050000000000000001 -0.0050000000000000001 -0.0050000000000000001 0.0050000000000000001 0.0050000000000000001 0.0050000000000000001 #
simple-snl-attrib $-1 -1 $54 $-1 $6 1 1 1 1 1 1 1 1 1 1 1 1 0 1 0 1 1 1 @17 NEW_SIMPLE_ATTRIB 1 @9 ENTITY_ID 0 3 90 -2147483648 -1 #
lump $55 -1 -1 $-1 $-1 $56 $6 T -0.0060000000000000001 -0.0060000000000000001 -0.0060000000000000001 0.0060000000000000001 0.0060000000000000001 0.0060000000000000001 #
simple-snl-attrib $-1 -1 $57 $-1 $7 1 1 1 1 1 1 1 1 1 1 1 1 0 1 0 1 1 1 @17 NEW_SIMPLE_ATTRIB 1 @9 ENTITY_ID 0 3 93 -2147483648 -1 #
lump $58 -1 -1 $-1 $-1 $59 $7 T -0.0070000000000000001 -0.0070000000000000001 -0.0070000000000000001 0.0070000000000000001 0.0070000000000000001 0.0070000000000000001 #
simple-snl-attrib $-1 -1 $60 $-1 $8 1 1 1 1 1 1 1 1 1 1 1 1 0 1 0 1 1 1 @17 NEW_SIMPLE_ATTRIB 1 @9 ENTITY_ID 0 3 96 -2147483648 -1 #
lump $61 -1 -1 $-1 $-1 $62 $8 T -0.0080000000000000002 -0.0080000000000000002 -0.0080000000000000002 0.0080000000000000002 0.0080000000000000002 0.0080000000000000002 #
simple-snl-attrib $-1 -1 $63 $-1 $9 1 1 1 1 1 1 1 1 1 1 1 1 0 1 0 1 1 1 @17 NEW_SIMPLE_ATTRIB 1 @9 ENTITY_ID 0 3 99 -2147483648 -1 #
lump $64 -1 -1 $-1 $-1 $65 $9 T -0.0089999999999999993 -0.0089999999999999993 -0.0089999999999999993 0.0089999999999999993 0.0089999999999999993 0.0089999999999999993 #
simple-snl-attrib $-1 -1 $66 $-1 $10 1 1 1 1 1 1 1 1 1 1 1 1 0 1 0 1 1 1 @17 NEW_SIMPLE_ATTRIB 1 @9 ENTITY_ID 0 3 102 -2147483648 -1 #
lump $67 -1 -1 $-1 $-1 $68 $10 T -10 -10 -10 10 10 10 #
simple-snl-attrib $-1 -1 $69 $-1 $11 1 1 1 1 1 1 1 1 1 1 1 1 0 1 0 1 1 1 @17 NEW_SIMPLE_ATTRIB 1 @9 ENTITY_ID 0 3 105 -2147483648 -1 #
lump $70 -1 -1 $-1 $-1 $71 $11 T -12 -12 -12 12 12 12 #
simple-snl-attrib $-1 -1 $-1 $12 $0 1 1 1 1 1 1 1 1 1 1 1 1 0 1 0 1 1 1 @17 NEW_SIMPLE_ATTRIB 2 @5 GROUP @9 graveyard 0 7 1 1 1445170726 0 0 0 0 #
simple-snl-attrib $-1 -1 $-1 $-1 $13 1 1 1 1 1 1 1 1 1 1 1 1 0 1 0 1 1 1 @17 NEW_SIMPLE_ATTRIB 1 @9 ENTITY_ID 0 3 1 -2147483648 -1 #
shell $-1 -1 -1 $-1 $72 $-1 $73 $-1 $13 T -12.24 -12.24 -12.24 12.24 12.24 12.24 #
simple-snl-attrib $-1 -1 $74 $14 $1 1 1 1 1 1 1 1 1 1 1 1 1 0 1 0 1 1 1 @17 NEW_SIMPLE_ATTRIB 2 @5 GROUP @16 mat_1_rho_-10000 0 7 1 2 2065663823 0 0 0 0 #
simple-snl-attrib $-1 -1 $-1 $-1 $15 1 1 1 1 1 1 1 1 1 1 1 1 0 1 0 1 1 1 @17 NEW_SIMPLE_ATTRIB 1 @9 ENTITY_ID 0 3 2 -2147483648 -1 #
shell $-1 -1 -1 $-1 $-1 $-1 $75 $-1 $15 T -0.001 -0.001 -0.001 0.001 0.001 0.001 #
simple-snl-attrib $-1 -1 $76 $16 $2 1 1 1 1 1 1 1 1 1 1 1 1 0 1 0 1 1 1 @17 NEW_SIMPLE_ATTRIB 2 @5 GROUP @16 mat_1_rho_-10000 0 7 1 2 2065663823 1 0 0 0 #
simple-snl-attrib $-1 -1 $-1 $-1 $17 1 1 1 1 1 1 1 1 1 1 1 1 0 1 0 1 1 1 @17 NEW_SIMPLE_ATTRIB 1 @9 ENTITY_ID 0 3 3 -2147483648 -1 #
shell $-1 -1 -1 $-1 $77 $-1 $78 $-1 $17 T -0.002 -0.002 -0.002 0.002 0.002 0.002 #
simple-snl-attrib $-1 -1 $79 $18 $3 1 1 1 1 1 1 1 1 1 1 1 1 0 1 0 1 1 1 @17 NEW_SIMPLE_ATTRIB 2 @5 GROUP @16 mat_1_rho_-10000 0 7 1 2 2065663823 2 0 0 0 #
simple-snl-attrib $-1 -1 $-1 $-1 $19 1 1 1 1 1 1 1 1 1 1 1 1 0 1 0 1 1 1 @17 NEW_SIMPLE_ATTRIB 1 @9 ENTITY_ID 0 3 4 -2147483648 -1 #
shell $-1 -1 -1 $-1 $80 $-1 $81 $-1 $19 T -0.0030000000000000001 -0.0030000000000000001 -0.0030000000000000001 0.0030000000000000001 0.0030000000000000001 0.0030000000000000001 #
simple-snl-attrib $-1 -1 $82 $20 $4 1 1 1 1 1 1 1 1 1 1 1 1 0 1 0 1 1 1 @17 NEW_SIMPLE_ATTRIB 2 @5 GROUP @16 mat_1_rho_-10000 0 7 1 2 2065663823 3 0 0 0 #
simple-snl-attrib $-1 -1 $-1 $-1 $21 1 1 1 1 1 1 1 1 1 1 1 1 0 1 0 1 1 1 @17 NEW_SIMPLE_ATTRIB 1 @9 ENTITY_ID 0 3 5 -2147483648 -1 #
shell $-1 -1 -1 $-1 $83 $-1 $84 $-1 $21 T -0.0040000000000000001 -0.0040000000000000001 -0.0040000000000000001 0.0040000000000000001 0.0040000000000000001 0.0040000000000000001 #
simple-snl-attrib $-1 -1 $85 $22 $5 1 1 1 1 1 1 1 1 1 1 1 1 0 1 0 1 1 1 @17 NEW_SIMPLE_ATTRIB 2 @5 GROUP @16 mat_1_rho_-10000 0 7 1 2 2065663823 4 0 0 0 #
simple-snl-attrib $-1 -1 $-1 $-1 $23 1 1 1 1 1 1 1 1 1 1 1 1 0 1 0 1 1 1 @17 NEW_SIMPLE_ATTRIB 1 @9 ENTITY_ID 0 3 6 -2147483648 -1 #
shell $-1 -1 -1 $-1 $86 $-1 $87 $-1 $23 T -0.0050000000000000001 -0.0050000000000000001 -0.0050000000000000001 0.0050000000000000001 0.0050000000000000001 0.0050000000000000001 #
simple-snl-attrib $-1 -1 $88 $24 $6 1 1 1 1 1 1 1 1 1 1 1 1 0 1 0 1 1 1 @17 NEW_SIMPLE_ATTRIB 2 @5 GROUP @16 mat_1_rho_-10000 0 7 1 2 2065663823 5 0 0 0 #
simple-snl-attrib $-1 -1 $-1 $-1 $25 1 1 1 1 1 1 1 1 1 1 1 1 0 1 0 1 1 1 @17 NEW_SIMPLE_ATTRIB 1 @9 ENTITY_ID 0 3 7 -2147483648 -1 #
shell $-1 -1 -1 $-1 $89 $-1 $90 $-1 $25 T -0.0060000000000000001 -0.0060000000000000001 -0.0060000000000000001 0.0060000000000000001 0.0060000000000000001 0.0060000000000000001 #
simple-snl-attrib $-1 -1 $91 $26 $7 1 1 1 1 1 1 1 1 1 1 1 1 0 1 0 1 1 1 @17 NEW_SIMPLE_ATTRIB 2 @5 GROUP @16 mat_1_rho_-10000 0 7 1 2 2065663823 6 0 0 0 #
simple-snl-attrib $-1 -1 $-1 $-1 $27 1 1 1 1 1 1 1 1 1 1 1 1 0 1 0 1 1 1 @17 NEW_SIMPLE_ATTRIB 1 @9 ENTITY_ID 0 3 8 -2147483648 -1 #
shell $-1 -1 -1 $-1 $92 $-1 $93 $-1 $27 T -0.0070000000000000001 -0.0070000000000000001 -0.0070000000000000001 0.0070000000000000001 0.0070000000000000001 0.0070000000000000001 #
simple-snl-attrib $-1 -1 $94 $28 $8 1 1 1 1 1 1 1 1 1 1 1 1 0 1 0 1 1 1 @17 NEW_SIMPLE_ATTRIB 2 @5 GROUP @16 mat_1_rho_-10000 0 7 1 2 2065663823 7 0 0 0 #
simple-snl-attrib $-1 -1 $-1 $-1 $29 1 1 1 1 1 1 1 1 1 1 1 1 0 1 0 1 1 1 @17 NEW_SIMPLE_ATTRIB 1 @9 ENTITY_ID 0 3 9 -2147483648 -1 #
shell $-1 -1 -1 $-1 $95 $-1 $96 $-1 $29 T -0.0080000000000000002 -0.0080000000000000002 -0.0080000000000000002 0.0080000000000000002 0.0080000000000000002 0.0080000000000000002 #
simple-snl-attrib $-1 -1 $97 $30 $9 1 1 1 1 1 1 1 1 1 1 1 1 0 1 0 1 1 1 @17 NEW_SIMPLE_ATTRIB 2 @5 GROUP @16 mat_1_rho_-10000 0 7 1 2 2065663823 8 0 0 0 #
simple-snl-attrib $-1 -1 $-1 $-1 $31 1 1 1 1 1 1 1 1 1 1 1 1 0 1 0 1 1 1 @17 NEW_SIMPLE_ATTRIB 1 @9 ENTITY_ID 0 3 10 -2147483648 -1 #
shell $-1 -1 -1 $-1 $98 $-1 $99 $-1 $31 T -0.0089999999999999993 -0.0089999999999999993 -0.0089999999999999993 0.0089999999999999993 0.0089999999999999993 0.0089999999999999993 #
simple-snl-attrib $-1 -1 $100 $32 $10 1 1 1 1 1 1 1 1 1 1 1 1 0 1 0 1 1 1 @17 NEW_SIMPLE_ATTRIB 2 @5 GROUP @16 mat_1_rho_-10000 0 7 1 2 2065663823 9 0 0 0 #
simple-snl-attrib $-1 -1 $-1 $-1 $33 1 1 1 1 1 1 1 1 1 1 1 1 0 1 0 1 1 1 @17 NEW_SIMPLE_ATTRIB 1 @9 ENTITY_ID 0 3 11 -2147483648 -1 #
shell $-1 -1 -1 $-1 $101 $-1 $102 $-1 $33 T -10 -10 -10 10 10 10 #
simple-snl-attrib $-1 -1 $-1 $34 $11 1 1 1 1 1 1 1 1 1 1 1 1 0 1 0 1 1 1 @17 NEW_SIMPLE_ATTRIB 2 @11 ENTITY_NAME @10 MCNP_ID_11 0 0 #
simple-snl-attrib $-1 -1 $-1 $-1 $35 1 1 1 1 1 1 1 1 1 1 1 1 0 1 0 1 1 1 @17 NEW_SIMPLE_ATTRIB 1 @9 ENTITY_ID 0 3 12 -2147483648 -1 #
shell $-1 -1 -1 $-1 $103 $-1 $104 $-1 $35 T -12 -12 -12 12 12 12 #
shell $-1 -1 -1 $-1 $-1 $-1 $105 $-1 $13 T -12 -12 -12 12 12 12 #
face $106 -1 -1 $-1 $107 $108 $38 $-1 $109 forward single T -12.24 -12.24 12.24 12.24 12.24 12.24 F #
simple-snl-attrib $-1 -1 $-1 $39 $1 1 1 1 1 1 1 1 1 1 1 1 1 0 1 0 1 1 1 @17 NEW_SIMPLE_ATTRIB 2 @11 ENTITY_NAME @9 MCNP_ID_1 0 0 #
face $110 -1 -1 $-1 $-1 $-1 $41 $-1 $111 forward single T -0.001 -0.001 -0.001 0.001 0.001 0.001 F #
simple-snl-attrib $-1 -1 $-1 $42 $2 1 1 1 1 1 1 1 1 1 1 1 1 0 1 0 1 1 1 @17 NEW_SIMPLE_ATTRIB 2 @11 ENTITY_NAME @9 MCNP_ID_2 0 0 #
shell $-1 -1 -1 $-1 $-1 $-1 $112 $-1 $17 T -0.001 -0.001 -0.001 0.001 0.001 0.001 #
face $113 -1 -1 $-1 $-1 $-1 $44 $-1 $114 forward single T -0.002 -0.002 -0.002 0.002 0.002 0.002 F #
simple-snl-attrib $-1 -1 $-1 $45 $3 1 1 1 1 1 1 1 1 1 1 1 1 0 1 0 1 1 1 @17 NEW_SIMPLE_ATTRIB 2 @11 ENTITY_NAME @9 MCNP_ID_3 0 0 #
shell $-1 -1 -1 $-1 $-1 $-1 $115 $-1 $19 T -0.002 -0.002 -0.002 0.002 0.002 0.002 #
face $116 -1 -1 $-1 $-1 $-1 $47 $-1 $117 forward single T -0.0030000000000000001 -0.0030000000000000001 -0.0030000000000000001 0.0030000000000000001 0.0030000000000000001 0.0030000000000000001 F #
simple-snl-attrib $-1 -1 $-1 $48 $4 1 1 1 1 1 1 1 1 1 1 1 1 0 1 0 1 1 1 @17 NEW_SIMPLE_ATTRIB 2 @11 ENTITY_NAME @9 MCNP_ID_4 0 0 #
shell $-1 -1 -1 $-1 $-1 $-1 $118 $-1 $21 T -0.0030000000000000001 -0.0030000000000000001 -0.0030000000000000001 0.0030000000000000001 0.0030000000000000001 0.0030000000000000001 #
face $119 -1 -1 $-1 $-1 $-1 $50 $-1 $120 forward single T -0.0040000000000000001 -0.0040000000000000001 -0.0040000000000000001 0.0040000000000000001 0.0040000000000000001 0.0040000000000000001 F #
simple-snl-attrib $-1 -1 $-1 $51 $5 1 1 1 1 1 1 1 1 1 1 1 1 0 1 0 1 1 1 @17 NEW_SIMPLE_ATTRIB 2 @11 ENTITY_NAME @9 MCNP_ID_5 0 0 #
shell $-1 -1 -1 $-1 $-1 $-1 $121 $-1 $23 T -0.0040000000000000001 -0.0040000000000000001 -0.0040000000000000001 0.0040000000000000001 0.0040000000000000001 0.0040000000000000001 #
face $122 -1 -1 $-1 $-1 $-1 $53 $-1 $123 forward single T -0.0050000000000000001 -0.0050000000000000001 -0.0050000000000000001 0.0050000000000000001 0.0050000000000000001 0.0050000000000000001 F #
simple-snl-attrib $-1 -1 $-1 $54 $6 1 1 1 1 1 1 1 1 1 1 1 1 0 1 0 1 1 1 @17 NEW_SIMPLE_ATTRIB 2 @11 ENTITY_NAME @9 MCNP_ID_6 0 0 #
shell $-1 -1 -1 $-1 $-1 $-1 $124 $-1 $25 T -0.0050000000000000001 -0.0050000000000000001 -0.0050000000000000001 0.0050000000000000001 0.0050000000000000001 0.0050000000000000001 #
face $125 -1 -1 $-1 $-1 $-1 $56 $-1 $126 forward single T -0.0060000000000000001 -0.0060000000000000001 -0.0060000000000000001 0.0060000000000000001 0.0060000000000000001 0.0060000000000000001 F #
simple-snl-attrib $-1 -1 $-1 $57 $7 1 1 1 1 1 1 1 1 1 1 1 1 0 1 0 1 1 1 @17 NEW_SIMPLE_ATTRIB 2 @11 ENTITY_NAME @9 MCNP_ID_7 0 0 #
shell $-1 -1 -1 $-1 $-1 $-1 $127 $-1 $27 T -0.0060000000000000001 -0.0060000000000000001 -0.0060000000000000001 0.0060000000000000001 0.0060000000000000001 0.0060000000000000001 #
face $128 -1 -1 $-1 $-1 $-1 $59 $-1 $129 forward single T -0.0070000000000000001 -0.0070000000000000001 -0.0070000000000000001 0.0070000000000000001 0.0070000000000000001 0.0070000000000000001 F #
simple-snl-attrib $-1 -1 $-1 $60 $8 1 1 1 1 1 1 1 1 1 1 1 1 0 1 0 1 1 1 @17 NEW_SIMPLE_ATTRIB 2 @11 ENTITY_NAME @9 MCNP_ID_8 0 0 #
shell $-1 -1 -1 $-1 $-1 $-1 $130 $-1 $29 T -0.0070000000000000001 -0.0070000000000000001 -0.0070000000000000001 0.0070000000000000001 0.0070000000000000001 0.0070000000000000001 #
face $131 -1 -1 $-1 $-1 $-1 $62 $-1 $132 forward single T -0.0080000000000000002 -0.0080000000000000002 -0.0080000000000000002 0.0080000000000000002 0.0080000000000000002 0.0080000000000000002 F #
simple-snl-attrib $-1 -1 $-1 $63 $9 1 1 1 1 1 1 1 1 1 1 1 1 0 1 0 1 1 1 @17 NEW_SIMPLE_ATTRIB 2 @11 ENTITY_NAME @9 MCNP_ID_9 0 0 #
shell $-1 -1 -1 $-1 $-1 $-1 $133 $-1 $31 T -0.0080000000000000002 -0.0080000000000000002 -0.0080000000000000002 0.0080000000000000002 0.0080000000000000002 0.0080000000000000002 #
face $134 -1 -1 $-1 $-1 $-1 $65 $-1 $135 forward single T -0.0089999999999999993 -0.0089999999999999993 -0.0089999999999999993 0.0089999999999999993 0.0089999999999999993 0.0089999999999999993 F #
simple-snl-attrib $-1 -1 $-1 $66 $10 1 1 1 1 1 1 1 1 1 1 1 1 0 1 0 1 1 1 @17 NEW_SIMPLE_ATTRIB 2 @11 ENTITY_NAME @10 MCNP_ID_10 0 0 #
shell $-1 -1 -1 $-1 $-1 $-1 $136 $-1 $33 T -0.0089999999999999993 -0.0089999999999999993 -0.0089999999999999993 0.0089999999999999993 0.0089999999999999993 0.0089999999999999993 #
face $137 -1 -1 $-1 $-1 $-1 $68 $-1 $138 forward single T -10 -10 -10 10 10 10 F #
shell $-1 -1 -1 $-1 $-1 $-1 $139 $-1 $35 T -10 -10 -10 10 10 10 #
face $140 -1 -1 $-1 $141 $142 $71 $-1 $143 forward single T -12 -12 12 12 12 12 F #
face $144 -1 -1 $-1 $145 $146 $72 $-1 $147 reversed single T -12 -12 12 12 12 12 F #
simple-snl-attrib $-1 -1 $-1 $-1 $73 1 1 1 1 1 1 1 1 1 1 1 1 0 1 0 1 1 1 @17 NEW_SIMPLE_ATTRIB 1 @9 ENTITY_ID 0 3 1 -2147483648 -1 #
face $148 -1 -1 $-1 $149 $150 $38 $-1 $151 reversed single T -12.24 -12.24 -12.24 12.24 12.24 -12.24 F #
loop $-1 -1 -1 $-1 $-1 $152 $73 T -12.24 -12.24 12.24 12.24 12.24 12.24 unknown #
plane-surface $-1 -1 -1 $-1 0 0 12.24 0 0 1 1 0 0 forward_v I I I I #
simple-snl-attrib $-1 -1 $153 $-1 $75 1 1 1 1 1 1 1 1 1 1 1 1 0 1 0 1 1 1 @17 NEW_SIMPLE_ATTRIB 1 @9 UNIQUE_ID 1 0 1 1757289618 #
sphere-surface $-1 -1 -1 $-1 0 0 0 0.001 1 0 0 0 0 1 forward_v I I I I #
face $154 -1 -1 $-1 $-1 $-1 $77 $-1 $155 reversed single T -0.001 -0.001 -0.001 0.001 0.001 0.001 F #
simple-snl-attrib $-1 -1 $156 $-1 $78 1 1 1 1 1 1 1 1 1 1 1 1 0 1 0 1 1 1 @17 NEW_SIMPLE_ATTRIB 1 @9 UNIQUE_ID 1 0 1 1408098281 #
sphere-surface $-1 -1 -1 $-1 0 0 0 0.002 1 0 0 0 0 1 forward_v I I I I #
face $157 -1 -1 $-1 $-1 $-1 $80 $-1 $158 reversed single T -0.002 -0.002 -0.002 0.002 0.002 0.002 F #
simple-snl-attrib $-1 -1 $159 $-1 $81 1 1 1 1 1 1 1 1 1 1 1 1 0 1 0 1 1 1 @17 NEW_SIMPLE_ATTRIB 1 @9 UNIQUE_ID 1 0 1 390546543 #
sphere-surface $-1 -1 -1 $-1 0 0 0 0.0030000000000000001 1 0 0 0 0 1 forward_v I I I I #
face $160 -1 -1 $-1 $-1 $-1 $83 $-1 $161 reversed single T -0.0030000000000000001 -0.0030000000000000001 -0.0030000000000000001 0.0030000000000000001 0.0030000000000000001 0.0030000000000000001 F #
simple-snl-attrib $-1 -1 $162 $-1 $84 1 1 1 1 1 1 1 1 1 1 1 1 0 1 0 1 1 1 @17 NEW_SIMPLE_ATTRIB 1 @9 UNIQUE_ID 1 0 1 842022962 #
sphere-surface $-1 -1 -1 $-1 0 0 0 0.0040000000000000001 1 0 0 0 0 1 forward_v I I I I #
face $163 -1 -1 $-1 $-1 $-1 $86 $-1 $164 reversed single T -0.0040000000000000001 -0.0040000000000000001 -0.0040000000000000001 0.0040000000000000001 0.0040000000000000001 0.0040000000000000001 F #
simple-snl-attrib $-1 -1 $165 $-1 $87 1 1 1 1 1 1 1 1 1 1 1 1 0 1 0 1 1 1 @17 NEW_SIMPLE_ATTRIB 1 @9 UNIQUE_ID 1 0 1 454109290 #
sphere-surface $-1 -1 -1 $-1 0 0 0 0.0050000000000000001 1 0 0 0 0 1 forward_v I I I I #
face $166 -1 -1 $-1 $-1 $-1 $89 $-1 $167 reversed single T -0.0050000000000000001 -0.0050000000000000001 -0.0050000000000000001 0.0050000000000000001 0.0050000000000000001 0.0050000000000000001 F #
simple-snl-attrib $-1 -1 $168 $-1 $90 1 1 1 1 1 1 1 1 1 1 1 1 0 1 0 1 1 1 @17 NEW_SIMPLE_ATTRIB 1 @9 UNIQUE_ID 1 0 1 551935669 #
sphere-surface $-1 -1 -1 $-1 0 0 0 0.0060000000000000001 1 0 0 0 0 1 forward_v I I I I #
face $169 -1 -1 $-1 $-1 $-1 $92 $-1 $170 reversed single T -0.0060000000000000001 -0.0060000000000000001 -0.0060000000000000001 0.0060000000000000001 0.0060000000000000001 0.0060000000000000001 F #
simple-snl-attrib $-1 -1 $171 $-1 $93 1 1 1 1 1 1 1 1 1 1 1 1 0 1 0 1 1 1 @17 NEW_SIMPLE_ATTRIB 1 @9 UNIQUE_ID 1 0 1 1416561116 #
sphere-surface $-1 -1 -1 $-1 0 0 0 0.0070000000000000001 1 0 0 0 0 1 forward_v I I I I #
face $172 -1 -1 $-1 $-1 $-1 $95 $-1 $173 reversed single T -0.0070000000000000001 -0.0070000000000000001 -0.0070000000000000001 0.0070000000000000001 0.0070000000000000001 0.0070000000000000001 F #
simple-snl-attrib $-1 -1 $174 $-1 $96 1 1 1 1 1 1 1 1 1 1 1 1 0 1 0 1 1 1 @17 NEW_SIMPLE_ATTRIB 1 @9 UNIQUE_ID 1 0 1 815187119 #
sphere-surface $-1 -1 -1 $-1 0 0 0 0.0080000000000000002 1 0 0 0 0 1 forward_v I I I I #
face $175 -1 -1 $-1 $-1 $-1 $98 $-1 $176 reversed single T -0.0080000000000000002 -0.0080000000000000002 -0.0080000000000000002 0.0080000000000000002 0.0080000000000000002 0.0080000000000000002 F #
simple-snl-attrib $-1 -1 $177 $-1 $99 1 1 1 1 1 1 1 1 1 1 1 1 0 1 0 1 1 1 @17 NEW_SIMPLE_ATTRIB 1 @9 UNIQUE_ID 1 0 1 951010165 #
sphere-surface $-1 -1 -1 $-1 0 0 0 0.0089999999999999993 1 0 0 0 0 1 forward_v I I I I #
face $178 -1 -1 $-1 $-1 $-1 $101 $-1 $179 reversed single T -0.0089999999999999993 -0.0089999999999999993 -0.0089999999999999993 0.0089999999999999993 0.0089999999999999993 0.0089999999999999993 F #
simple-snl-attrib $-1 -1 $180 $-1 $102 1 1 1 1 1 1 1 1 1 1 1 1 0 1 0 1 1 1 @17 NEW_SIMPLE_ATTRIB 1 @9 UNIQUE_ID 1 0 1 585892330 #
sphere-surface $-1 -1 -1 $-1 0 0 0 10 1 0 0 0 0 1 forward_v I I I I #
face $181 -1 -1 $-1 $-1 $-1 $103 $-1 $182 reversed single T -10 -10 -10 10 10 10 F #
simple-snl-attrib $-1 -1 $-1 $-1 $104 1 1 1 1 1 1 1 1 1 1 1 1 0 1 0 1 1 1 @17 NEW_SIMPLE_ATTRIB 1 @9 ENTITY_ID 0 3 32 -2147483648 -1 #
face $183 -1 -1 $-1 $184 $185 $71 $-1 $186 reversed single T -12 -12 -12 12 12 -12 F #
loop $-1 -1 -1 $-1 $-1 $187 $104 T -12 -12 12 12 12 12 unknown #
plane-surface $-1 -1 -1 $-1 0 0 12 0 0 1 1 0 0 forward_v I I I I #
simple-snl-attrib $-1 -1 $-1 $-1 $105 1 1 1 1 1 1 1 1 1 1 1 1 0 1 0 1 1 1 @17 NEW_SIMPLE_ATTRIB 1 @9 ENTITY_ID 0 3 7 -2147483648 -1 #
face $188 -1 -1 $-1 $189 $190 $72 $-1 $191 forward single T -12 -12 -12 12 12 -12 F #
loop $-1 -1 -1 $-1 $-1 $192 $105 T -12 -12 12 12 12 12 unknown #
plane-surface $-1 -1 -1 $-1 0 0 12 0 0 1 1 0 0 forward_v I I I I #
simple-snl-attrib $-1 -1 $-1 $-1 $107 1 1 1 1 1 1 1 1 1 1 1 1 0 1 0 1 1 1 @17 NEW_SIMPLE_ATTRIB 1 @9 ENTITY_ID 0 3 2 -2147483648 -1 #
face $193 -1 -1 $-1 $194 $195 $38 $-1 $196 reversed single T -12.24 -12.24 -12.24 12.24 -12.24 12.24 F #
loop $-1 -1 -1 $-1 $-1 $197 $107 T -12.24 -12.24 -12.24 12.24 12.24 -12.24 unknown #
plane-surface $-1 -1 -1 $-1 0 0 -12.24 0 0 1 1 0 0 forward_v I I I I #
coedge $-1 -1 -1 $-1 $198 $199 $200 $201 forward $108 $-1 #
simple-snl-attrib $-1 -1 $202 $110 $75 1 1 1 1 1 1 1 1 1 1 1 1 0 1 0 1 1 1 @17 NEW_SIMPLE_ATTRIB 1 @9 ENTITY_ID 0 3 13 -2147483648 -1 #
simple-snl-attrib $-1 -1 $203 $-1 $112 1 1 1 1 1 1 1 1 1 1 1 1 0 1 0 1 1 1 @17 NEW_SIMPLE_ATTRIB 1 @9 UNIQUE_ID 1 0 1 1757289618 #
sphere-surface $-1 -1 -1 $-1 0 0 0 0.001 1 0 0 0 0 1 forward_v I I I I #
simple-snl-attrib $-1 -1 $204 $113 $78 1 1 1 1 1 1 1 1 1 1 1 1 0 1 0 1 1 1 @17 NEW_SIMPLE_ATTRIB 1 @9 ENTITY_ID 0 3 14 -2147483648 -1 #
simple-snl-attrib $-1 -1 $205 $-1 $115 1 1 1 1 1 1 1 1 1 1 1 1 0 1 0 1 1 1 @17 NEW_SIMPLE_ATTRIB 1 @9 UNIQUE_ID 1 0 1 1408098281 #
sphere-surface $-1 -1 -1 $-1 0 0 0 0.002 1 0 0 0 0 1 forward_v I I I I #
simple-snl-attrib $-1 -1 $206 $116 $81 1 1 1 1 1 1 1 1 1 1 1 1 0 1 0 1 1 1 @17 NEW_SIMPLE_ATTRIB 1 @9 ENTITY_ID 0 3 16 -2147483648 -1 #
simple-snl-attrib $-1 -1 $207 $-1 $118 1 1 1 1 1 1 1 1 1 1 1 1 0 1 0 1 1 1 @17 NEW_SIMPLE_ATTRIB 1 @9 UNIQUE_ID 1 0 1 390546543 #
sphere-surface $-1 -1 -1 $-1 0 0 0 0.0030000000000000001 1 0 0 0 0 1 forward_v I I I I #
simple-snl-attrib $-1 -1 $208 $119 $84 1 1 1 1 1 1 1 1 1 1 1 1 0 1 0 1 1 1 @17 NEW_SIMPLE_ATTRIB 1 @9 ENTITY_ID 0 3 18 -2147483648 -1 #
simple-snl-attrib $-1 -1 $209 $-1 $121 1 1 1 1 1 1 1 1 1 1 1 1 0 1 0 1 1 1 @17 NEW_SIMPLE_ATTRIB 1 @9 UNIQUE_ID 1 0 1 842022962 #
sphere-surface $-1 -1 -1 $-1 0 0 0 0.0040000000000000001 1 0 0 0 0 1 forward_v I I I I #
simple-snl-attrib $-1 -1 $210 $122 $87 1 1 1 1 1 1 1 1 1 1 1 1 0 1 0 1 1 1 @17 NEW_SIMPLE_ATTRIB 1 @9 ENTITY_ID 0 3 20 -2147483648 -1 #
simple-snl-attrib $-1 -1 $211 $-1 $124 1 1 1 1 1 1 1 1 1 1 1 1 0 1 0 1 1 1 @17 NEW_SIMPLE_ATTRIB 1 @9 UNIQUE_ID 1 0 1 454109290 #
sphere-surface $-1 -1 -1 $-1 0 0 0 0.0050000000000000001 1 0 0 0 0 1 forward_v I I I I #
simple-snl-attrib $-1 -1 $212 $125 $90 1 1 1 1 1 1 1 1 1 1 1 1 0 1 0 1 1 1 @17 NEW_SIMPLE_ATTRIB 1 @9 ENTITY_ID 0 3 22 -2147483648 -1 #
simple-snl-attrib $-1 -1 $213 $-1 $127 1 1 1 1 1 1 1 1 1 1 1 1 0 1 0 1 1 1 @17 NEW_SIMPLE_ATTRIB 1 @9 UNIQUE_ID 1 0 1 551935669 #
sphere-surface $-1 -1 -1 $-1 0 0 0 0.0060000000000000001 1 0 0 0 0 1 forward_v I I I I #
simple-snl-attrib $-1 -1 $214 $128 $93 1 1 1 1 1 1 1 1 1 1 1 1 0 1 0 1 1 1 @17 NEW_SIMPLE_ATTRIB 1 @9 ENTITY_ID 0 3 24 -2147483648 -1 #
simple-snl-attrib $-1 -1 $215 $-1 $130 1 1 1 1 1 1 1 1 1 1 1 1 0 1 0 1 1 1 @17 NEW_SIMPLE_ATTRIB 1 @9 UNIQUE_ID 1 0 1 1416561116 #
sphere-surface $-1 -1 -1 $-1 0 0 0 0.0070000000000000001 1 0 0 0 0 1 forward_v I I I I #
simple-snl-attrib $-1 -1 $216 $131 $96 1 1 1 1 1 1 1 1 1 1 1 1 0 1 0 1 1 1 @17 NEW_SIMPLE_ATTRIB 1 @9 ENTITY_ID 0 3 26 -2147483648 -1 #
simple-snl-attrib $-1 -1 $217 $-1 $133 1 1 1 1 1 1 1 1 1 1 1 1 0 1 0 1 1 1 @17 NEW_SIMPLE_ATTRIB 1 @9 UNIQUE_ID 1 0 1 815187119 #
sphere-surface $-1 -1 -1 $-1 0 0 0 0.0080000000000000002 1 0 0 0 0 1 forward_v I I I I #
simple-snl-attrib $-1 -1 $218 $134 $99 1 1 1 1 1 1 1 1 1 1 1 1 0 1 0 1 1 1 @17 NEW_SIMPLE_ATTRIB 1 @9 ENTITY_ID 0 3 28 -2147483648 -1 #
simple-snl-attrib $-1 -1 $219 $-1 $136 1 1 1 1 1 1 1 1 1 1 1 1 0 1 0 1 1 1 @17 NEW_SIMPLE_ATTRIB 1 @9 UNIQUE_ID 1 0 1 951010165 #
sphere-surface $-1 -1 -1 $-1 0 0 0 0.0089999999999999993 1 0 0 0 0 1 forward_v I I I I #
simple-snl-attrib $-1 -1 $220 $137 $102 1 1 1 1 1 1 1 1 1 1 1 1 0 1 0 1 1 1 @17 NEW_SIMPLE_ATTRIB 1 @9 ENTITY_ID 0 3 30 -2147483648 -1 #
simple-snl-attrib $-1 -1 $221 $-1 $139 1 1 1 1 1 1 1 1 1 1 1 1 0 1 0 1 1 1 @17 NEW_SIMPLE_ATTRIB 1 @9 UNIQUE_ID 1 0 1 585892330 #
sphere-surface $-1 -1 -1 $-1 0 0 0 10 1 0 0 0 0 1 forward_v I I I I #
simple-snl-attrib $-1 -1 $-1 $-1 $141 1 1 1 1 1 1 1 1 1 1 1 1 0 1 0 1 1 1 @17 NEW_SIMPLE_ATTRIB 1 @9 ENTITY_ID 0 3 33 -2147483648 -1 #
face $222 -1 -1 $-1 $223 $224 $71 $-1 $225 reversed single T -12 -12 -12 12 -12 12 F #
loop $-1 -1 -1 $-1 $-1 $226 $141 T -12 -12 -12 12 12 -12 unknown #
plane-surface $-1 -1 -1 $-1 0 0 -12 0 0 1 1 0 0 forward_v I I I I #
coedge $-1 -1 -1 $-1 $227 $228 $229 $230 forward $142 $-1 #
simple-snl-attrib $-1 -1 $-1 $-1 $145 1 1 1 1 1 1 1 1 1 1 1 1 0 1 0 1 1 1 @17 NEW_SIMPLE_ATTRIB 1 @9 ENTITY_ID 0 3 8 -2147483648 -1 #
face $231 -1 -1 $-1 $232 $233 $72 $-1 $234 forward single T -12 -12 -12 12 -12 12 F #
loop $-1 -1 -1 $-1 $-1 $235 $145 T -12 -12 -12 12 12 -12 unknown #
plane-surface $-1 -1 -1 $-1 0 0 -12 0 0 1 1 0 0 forward_v I I I I #
coedge $-1 -1 -1 $-1 $236 $237 $238 $239 reversed $146 $-1 #
simple-snl-attrib $-1 -1 $-1 $-1 $149 1 1 1 1 1 1 1 1 1 1 1 1 0 1 0 1 1 1 @17 NEW_SIMPLE_ATTRIB 1 @9 ENTITY_ID 0 3 3 -2147483648 -1 #
face $240 -1 -1 $-1 $241 $242 $38 $-1 $243 reversed single T -12.24 -12.24 -12.24 -12.24 12.24 12.24 F #
loop $-1 -1 -1 $-1 $-1 $244 $149 T -12.24 -12.24 -12.24 12.24 -12.24 12.24 unknown #
plane-surface $-1 -1 -1 $-1 0 -12.24 0 0 1 -0 -0 0 1 forward_v I I I I #
coedge $-1 -1 -1 $-1 $245 $246 $247 $248 forward $150 $-1 #
coedge $-1 -1 -1 $-1 $249 $152 $250 $251 forward $108 $-1 #
coedge $-1 -1 -1 $-1 $152 $249 $252 $253 forward $108 $-1 #
coedge $-1 -1 -1 $-1 $254 $255 $152 $201 reversed $256 $-1 #
edge $257 -1 -1 $-1 $258 -12.24 $259 12.24 $200 $260 forward @7 unknown T 12.24 -12.24 12.24 12.24 12.24 12.24 #
simple-snl-attrib $-1 -1 $-1 $153 $75 1 1 1 1 1 1 1 1 1 1 1 1 0 1 0 1 1 1 @17 NEW_SIMPLE_ATTRIB 1 @13 MERGE_PARTNER 0 4 1757289618 1 146 1 #
simple-snl-attrib $-1 -1 $261 $154 $112 1 1 1 1 1 1 1 1 1 1 1 1 0 1 0 1 1 1 @17 NEW_SIMPLE_ATTRIB 1 @9 ENTITY_ID 0 3 13 -2147483648 -1 #
simple-snl-attrib $-1 -1 $-1 $156 $78 1 1 1 1 1 1 1 1 1 1 1 1 0 1 0 1 1 1 @17 NEW_SIMPLE_ATTRIB 1 @13 MERGE_PARTNER 0 4 1408098281 1 161 1 #
simple-snl-attrib $-1 -1 $262 $157 $115 1 1 1 1 1 1 1 1 1 1 1 1 0 1 0 1 1 1 @17 NEW_SIMPLE_ATTRIB 1 @9 ENTITY_ID 0 3 14 -2147483648 -1 #
simple-snl-attrib $-1 -1 $-1 $159 $81 1 1 1 1 1 1 1 1 1 1 1 1 0 1 0 1 1 1 @17 NEW_SIMPLE_ATTRIB 1 @13 MERGE_PARTNER 0 4 390546543 1 177 1 #
simple-snl-attrib $-1 -1 $263 $160 $118 1 1 1 1 1 1 1 1 1 1 1 1 0 1 0 1 1 1 @17 NEW_SIMPLE_ATTRIB 1 @9 ENTITY_ID 0 3 16 -2147483648 -1 #
simple-snl-attrib $-1 -1 $-1 $162 $84 1 1 1 1 1 1 1 1 1 1 1 1 0 1 0 1 1 1 @17 NEW_SIMPLE_ATTRIB 1 @13 MERGE_PARTNER 0 4 842022962 1 193 1 #
simple-snl-attrib $-1 -1 $264 $163 $121 1 1 1 1 1 1 1 1 1 1 1 1 0 1 0 1 1 1 @17 NEW_SIMPLE_ATTRIB 1 @9 ENTITY_ID 0 3 18 -2147483648 -1 #
simple-snl-attrib $-1 -1 $-1 $165 $87 1 1 1 1 1 1 1 1 1 1 1 1 0 1 0 1 1 1 @17 NEW_SIMPLE_ATTRIB 1 @13 MERGE_PARTNER 0 4 454109290 1 209 1 #
simple-snl-attrib $-1 -1 $265 $166 $124 1 1 1 1 1 1 1 1 1 1 1 1 0 1 0 1 1 1 @17 NEW_SIMPLE_ATTRIB 1 @9 ENTITY_ID 0 3 20 -2147483648 -1 #
simple-snl-attrib $-1 -1 $-1 $168 $90 1 1 1 1 1 1 1 1 1 1 1 1 0 1 0 1 1 1 @17 NEW_SIMPLE_ATTRIB 1 @13 MERGE_PARTNER 0 4 551935669 1 225 1 #
simple-snl-attrib $-1 -1 $266 $169 $127 1 1 1 1 1 1 1 1 1 1 1 1 0 1 0 1 1 1 @17 NEW_SIMPLE_ATTRIB 1 @9 ENTITY_ID 0 3 22 -2147483648 -1 #
simple-snl-attrib $-1 -1 $-1 $171 $93 1 1 1 1 1 1 1 1 1 1 1 1 0 1 0 1 1 1 @17 NEW_SIMPLE_ATTRIB 1 @13 MERGE_PARTNER 0 4 1416561116 1 241 1 #
simple-snl-attrib $-1 -1 $267 $172 $130 1 1 1 1 1 1 1 1 1 1 1 1 0 1 0 1 1 1 @17 NEW_SIMPLE_ATTRIB 1 @9 ENTITY_ID 0 3 24 -2147483648 -1 #
simple-snl-attrib $-1 -1 $-1 $174 $96 1 1 1 1 1 1 1 1 1 1 1 1 0 1 0 1 1 1 @17 NEW_SIMPLE_ATTRIB 1 @13 MERGE_PARTNER 0 4 815187119 1 257 1 #
simple-snl-attrib $-1 -1 $268 $175 $133 1 1 1 1 1 1 1 1 1 1 1 1 0 1 0 1 1 1 @17 NEW_SIMPLE_ATTRIB 1 @9 ENTITY_ID 0 3 26 -2147483648 -1 #
simple-snl-attrib $-1 -1 $-1 $177 $99 1 1 1 1 1 1 1 1 1 1 1 1 0 1 0 1 1 1 @17 NEW_SIMPLE_ATTRIB 1 @13 MERGE_PARTNER 0 4 951010165 1 273 1 #
simple-snl-attrib $-1 -1 $269 $178 $136 1 1 1 1 1 1 1 1 1 1 1 1 0 1 0 1 1 1 @17 NEW_SIMPLE_ATTRIB 1 @9 ENTITY_ID 0 3 28 -2147483648 -1 #
simple-snl-attrib $-1 -1 $-1 $180 $102 1 1 1 1 1 1 1 1 1 1 1 1 0 1 0 1 1 1 @17 NEW_SIMPLE_ATTRIB 1 @13 MERGE_PARTNER 0 4 585892330 1 289 1 #
simple-snl-attrib $-1 -1 $270 $181 $139 1 1 1 1 1 1 1 1 1 1 1 1 0 1 0 1 1 1 @17 NEW_SIMPLE_ATTRIB 1 @9 ENTITY_ID 0 3 30 -2147483648 -1 #
simple-snl-attrib $-1 -1 $-1 $-1 $184 1 1 1 1 1 1 1 1 1 1 1 1 0 1 0 1 1 1 @17 NEW_SIMPLE_ATTRIB 1 @9 ENTITY_ID 0 3 34 -2147483648 -1 #
face $271 -1 -1 $-1 $272 $273 $71 $-1 $274 reversed single T -12 -12 -12 -12 12 12 F #
loop $-1 -1 -1 $-1 $-1 $275 $184 T -12 -12 -12 12 -12 12 unknown #
plane-surface $-1 -1 -1 $-1 0 -12 0 0 1 -0 -0 0 1 forward_v I I I I #
coedge $-1 -1 -1 $-1 $276 $277 $278 $279 forward $185 $-1 #
coedge $-1 -1 -1 $-1 $280 $187 $281 $282 forward $142 $-1 #
coedge $-1 -1 -1 $-1 $187 $280 $283 $284 forward $142 $-1 #
coedge $-1 -1 -1 $-1 $285 $286 $187 $230 reversed $287 $-1 #
edge $288 -1 -1 $-1 $289 -12 $290 12 $229 $291 forward @7 unknown T 12 -12 12 12 12 12 #
simple-snl-attrib $-1 -1 $-1 $-1 $189 1 1 1 1 1 1 1 1 1 1 1 1 0 1 0 1 1 1 @17 NEW_SIMPLE_ATTRIB 1 @9 ENTITY_ID 0 3 9 -2147483648 -1 #
face $292 -1 -1 $-1 $293 $294 $72 $-1 $295 forward single T -12 -12 -12 -12 12 12 F #
loop $-1 -1 -1 $-1 $-1 $296 $189 T -12 -12 -12 12 -12 12 unknown #
plane-surface $-1 -1 -1 $-1 0 -12 0 0 1 -0 -0 0 1 forward_v I I I I #
coedge $-1 -1 -1 $-1 $297 $298 $299 $300 reversed $190 $-1 #
coedge $-1 -1 -1 $-1 $301 $192 $302 $303 reversed $146 $-1 #
coedge $-1 -1 -1 $-1 $192 $301 $304 $305 reversed $146 $-1 #
coedge $-1 -1 -1 $-1 $306 $307 $192 $239 forward $308 $-1 #
edge $309 -1 -1 $-1 $310 -12 $311 12 $238 $312 forward @7 unknown T 12 -12 12 12 12 12 #
simple-snl-attrib $-1 -1 $-1 $-1 $194 1 1 1 1 1 1 1 1 1 1 1 1 0 1 0 1 1 1 @17 NEW_SIMPLE_ATTRIB 1 @9 ENTITY_ID 0 3 4 -2147483648 -1 #
face $313 -1 -1 $-1 $314 $315 $38 $-1 $316 reversed single T -12.24 12.24 -12.24 12.24 12.24 12.24 F #
loop $-1 -1 -1 $-1 $-1 $317 $194 T -12.24 -12.24 -12.24 -12.24 12.24 12.24 unknown #
plane-surface $-1 -1 -1 $-1 -12.24 0 0 1 0 0 0 0 -1 forward_v I I I I #
coedge $-1 -1 -1 $-1 $318 $252 $319 $320 forward $195 $-1 #
coedge $-1 -1 -1 $-1 $321 $197 $318 $322 forward $150 $-1 #
coedge $-1 -1 -1 $-1 $197 $321 $323 $324 forward $150 $-1 #
coedge $-1 -1 -1 $-1 $255 $254 $197 $248 reversed $256 $-1 #
edge $325 -1 -1 $-1 $326 -12.24 $327 12.24 $247 $328 forward @7 unknown T 12.24 -12.24 -12.24 12.24 12.24 -12.24 #
coedge $-1 -1 -1 $-1 $199 $198 $329 $330 forward $108 $-1 #
coedge $-1 -1 -1 $-1 $331 $332 $198 $251 reversed $315 $-1 #
edge $333 -1 -1 $-1 $259 -12.24 $334 12.24 $250 $335 forward @7 unknown T -12.24 12.24 12.24 12.24 12.24 12.24 #
coedge $-1 -1 -1 $-1 $244 $336 $199 $253 reversed $195 $-1 #
edge $337 -1 -1 $-1 $338 -12.24 $258 12.24 $252 $339 forward @7 unknown T -12.24 -12.24 12.24 12.24 -12.24 12.24 #
coedge $-1 -1 -1 $-1 $247 $200 $336 $340 forward $256 $-1 #
coedge $-1 -1 -1 $-1 $200 $247 $331 $341 reversed $256 $-1 #
loop $-1 -1 -1 $-1 $-1 $254 $314 T 12.24 -12.24 -12.24 12.24 12.24 12.24 unknown #
simple-snl-attrib $-1 -1 $-1 $-1 $201 1 1 1 1 1 1 1 1 1 1 1 1 0 1 0 1 1 1 @17 NEW_SIMPLE_ATTRIB 1 @9 ENTITY_ID 0 3 37 -2147483648 -1 #
vertex $342 -1 -1 $-1 $201 $343 #
vertex $344 -1 -1 $-1 $201 $345 #
straight-curve $-1 -1 -1 $-1 12.24 0 12.24 0 1 0 I I #
simple-snl-attrib $-1 -1 $-1 $203 $112 1 1 1 1 1 1 1 1 1 1 1 1 0 1 0 1 1 1 @17 NEW_SIMPLE_ATTRIB 1 @13 MERGE_PARTNER 0 4 1757289618 -1 15 0 #
simple-snl-attrib $-1 -1 $-1 $205 $115 1 1 1 1 1 1 1 1 1 1 1 1 0 1 0 1 1 1 @17 NEW_SIMPLE_ATTRIB 1 @13 MERGE_PARTNER 0 4 1408098281 -1 17 0 #
simple-snl-attrib $-1 -1 $-1 $207 $118 1 1 1 1 1 1 1 1 1 1 1 1 0 1 0 1 1 1 @17 NEW_SIMPLE_ATTRIB 1 @13 MERGE_PARTNER 0 4 390546543 -1 19 0 #
simple-snl-attrib $-1 -1 $-1 $209 $121 1 1 1 1 1 1 1 1 1 1 1 1 0 1 0 1 1 1 @17 NEW_SIMPLE_ATTRIB 1 @13 MERGE_PARTNER 0 4 842022962 -1 21 0 #
simple-snl-attrib $-1 -1 $-1 $211 $124 1 1 1 1 1 1 1 1 1 1 1 1 0 1 0 1 1 1 @17 NEW_SIMPLE_ATTRIB 1 @13 MERGE_PARTNER 0 4 454109290 -1 23 0 #
simple-snl-attrib $-1 -1 $-1 $213 $127 1 1 1 1 1 1 1 1 1 1 1 1 0 1 0 1 1 1 @17 NEW_SIMPLE_ATTRIB 1 @13 MERGE_PARTNER 0 4 551935669 -1 25 0 #
simple-snl-attrib $-1 -1 $-1 $215 $130 1 1 1 1 1 1 1 1 1 1 1 1 0 1 0 1 1 1 @17 NEW_SIMPLE_ATTRIB 1 @13 MERGE_PARTNER 0 4 1416561116 -1 27 0 #
simple-snl-attrib $-1 -1 $-1 $217 $133 1 1 1 1 1 1 1 1 1 1 1 1 0 1 0 1 1 1 @17 NEW_SIMPLE_ATTRIB 1 @13 MERGE_PARTNER 0 4 815187119 -1 29 0 #
simple-snl-attrib $-1 -1 $-1 $219 $136 1 1 1 1 1 1 1 1 1 1 1 1 0 1 0 1 1 1 @17 NEW_SIMPLE_ATTRIB 1 @13 MERGE_PARTNER 0 4 951010165 -1 31 0 #
simple-snl-attrib $-1 -1 $-1 $221 $139 1 1 1 1 1 1 1 1 1 1 1 1 0 1 0 1 1 1 @17 NEW_SIMPLE_ATTRIB 1 @13 MERGE_PARTNER 0 4 585892330 -1 38 0 #
simple-snl-attrib $-1 -1 $-1 $-1 $223 1 1 1 1 1 1 1 1 1 1 1 1 0 1 0 1 1 1 @17 NEW_SIMPLE_ATTRIB 1 @9 ENTITY_ID 0 3 35 -2147483648 -1 #
face $346 -1 -1 $-1 $347 $348 $71 $-1 $349 reversed single T -12 12 -12 12 12 12 F #
loop $-1 -1 -1 $-1 $-1 $350 $223 T -12 -12 -12 -12 12 12 unknown #
plane-surface $-1 -1 -1 $-1 -12 0 0 1 0 0 0 0 -1 forward_v I I I I #
coedge $-1 -1 -1 $-1 $351 $283 $352 $353 forward $224 $-1 #
coedge $-1 -1 -1 $-1 $354 $226 $351 $355 forward $185 $-1 #
coedge $-1 -1 -1 $-1 $226 $354 $356 $357 forward $185 $-1 #
coedge $-1 -1 -1 $-1 $286 $285 $226 $279 reversed $287 $-1 #
edge $358 -1 -1 $-1 $359 -12 $360 12 $278 $361 forward @7 unknown T 12 -12 -12 12 12 -12 #
coedge $-1 -1 -1 $-1 $228 $227 $362 $363 forward $142 $-1 #
coedge $-1 -1 -1 $-1 $364 $365 $227 $282 reversed $348 $-1 #
edge $366 -1 -1 $-1 $290 -12 $367 12 $281 $368 forward @7 unknown T -12 12 12 12 12 12 #
coedge $-1 -1 -1 $-1 $275 $369 $228 $284 reversed $224 $-1 #
edge $370 -1 -1 $-1 $371 -12 $289 12 $283 $372 forward @7 unknown T -12 -12 12 12 -12 12 #
coedge $-1 -1 -1 $-1 $278 $229 $369 $373 forward $287 $-1 #
coedge $-1 -1 -1 $-1 $229 $278 $364 $374 reversed $287 $-1 #
loop $-1 -1 -1 $-1 $-1 $285 $347 T 12 -12 -12 12 12 12 unknown #
simple-snl-attrib $-1 -1 $-1 $-1 $230 1 1 1 1 1 1 1 1 1 1 1 1 0 1 0 1 1 1 @17 NEW_SIMPLE_ATTRIB 1 @9 ENTITY_ID 0 3 325 -2147483648 -1 #
vertex $375 -1 -1 $-1 $230 $376 #
vertex $377 -1 -1 $-1 $230 $378 #
straight-curve $-1 -1 -1 $-1 12 0 12 0 1 0 I I #
simple-snl-attrib $-1 -1 $-1 $-1 $232 1 1 1 1 1 1 1 1 1 1 1 1 0 1 0 1 1 1 @17 NEW_SIMPLE_ATTRIB 1 @9 ENTITY_ID 0 3 10 -2147483648 -1 #
face $379 -1 -1 $-1 $380 $381 $72 $-1 $382 forward single T -12 12 -12 12 12 12 F #
loop $-1 -1 -1 $-1 $-1 $383 $232 T -12 -12 -12 -12 12 12 unknown #
plane-surface $-1 -1 -1 $-1 -12 0 0 1 0 0 0 0 -1 forward_v I I I I #
coedge $-1 -1 -1 $-1 $302 $384 $385 $386 reversed $233 $-1 #
coedge $-1 -1 -1 $-1 $387 $235 $388 $389 reversed $190 $-1 #
coedge $-1 -1 -1 $-1 $235 $387 $384 $390 reversed $190 $-1 #
coedge $-1 -1 -1 $-1 $307 $306 $235 $300 forward $308 $-1 #
edge $391 -1 -1 $-1 $392 -12 $393 12 $299 $394 forward @7 unknown T 12 -12 -12 12 12 -12 #
coedge $-1 -1 -1 $-1 $237 $236 $395 $396 reversed $146 $-1 #
coedge $-1 -1 -1 $-1 $397 $296 $236 $303 forward $233 $-1 #
edge $398 -1 -1 $-1 $399 -12 $310 12 $302 $400 forward @7 unknown T -12 -12 12 12 -12 12 #
coedge $-1 -1 -1 $-1 $401 $402 $237 $305 forward $381 $-1 #
edge $403 -1 -1 $-1 $311 -12 $404 12 $304 $405 forward @7 unknown T -12 12 12 12 12 12 #
coedge $-1 -1 -1 $-1 $299 $238 $402 $406 forward $308 $-1 #
coedge $-1 -1 -1 $-1 $238 $299 $397 $407 reversed $308 $-1 #
loop $-1 -1 -1 $-1 $-1 $307 $380 T 12 -12 -12 12 12 12 unknown #
simple-snl-attrib $-1 -1 $-1 $-1 $239 1 1 1 1 1 1 1 1 1 1 1 1 0 1 0 1 1 1 @17 NEW_SIMPLE_ATTRIB 1 @9 ENTITY_ID 0 3 61 -2147483648 -1 #
vertex $408 -1 -1 $-1 $239 $409 #
vertex $410 -1 -1 $-1 $239 $411 #
straight-curve $-1 -1 -1 $-1 12 0 12 0 1 0 I I #
simple-snl-attrib $-1 -1 $-1 $-1 $241 1 1 1 1 1 1 1 1 1 1 1 1 0 1 0 1 1 1 @17 NEW_SIMPLE_ATTRIB 1 @9 ENTITY_ID 0 3 5 -2147483648 -1 #
face $412 -1 -1 $-1 $-1 $256 $38 $-1 $413 reversed single T 12.24 -12.24 -12.24 12.24 12.24 12.24 F #
loop $-1 -1 -1 $-1 $-1 $331 $241 T -12.24 12.24 -12.24 12.24 12.24 12.24 unknown #
plane-surface $-1 -1 -1 $-1 0 12.24 0 0 -1 0 0 0 -1 forward_v I I I I #
coedge $-1 -1 -1 $-1 $414 $329 $332 $415 forward $242 $-1 #
coedge $-1 -1 -1 $-1 $336 $244 $245 $322 reversed $195 $-1 #
coedge $-1 -1 -1 $-1 $329 $414 $244 $320 reversed $242 $-1 #
edge $416 -1 -1 $-1 $338 -12.24 $417 12.24 $319 $418 forward @7 unknown T -12.24 -12.24 -12.24 -12.24 -12.24 12.24 #
coedge $-1 -1 -1 $-1 $246 $245 $414 $419 forward $150 $-1 #
edge $420 -1 -1 $-1 $327 -12.24 $417 12.24 $318 $421 forward @7 unknown T -12.24 -12.24 -12.24 12.24 -12.24 -12.24 #
coedge $-1 -1 -1 $-1 $332 $331 $246 $324 reversed $315 $-1 #
edge $422 -1 -1 $-1 $423 -12.24 $326 12.24 $323 $424 forward @7 unknown T -12.24 12.24 -12.24 12.24 12.24 -12.24 #
simple-snl-attrib $-1 -1 $-1 $-1 $248 1 1 1 1 1 1 1 1 1 1 1 1 0 1 0 1 1 1 @17 NEW_SIMPLE_ATTRIB 1 @9 ENTITY_ID 0 3 41 -2147483648 -1 #
vertex $425 -1 -1 $-1 $248 $426 #
vertex $427 -1 -1 $-1 $340 $428 #
straight-curve $-1 -1 -1 $-1 12.24 0 -12.24 0 -1 0 I I #
coedge $-1 -1 -1 $-1 $317 $319 $249 $330 reversed $242 $-1 #
edge $429 -1 -1 $-1 $334 -12.24 $338 12.24 $329 $430 forward @7 unknown T -12.24 -12.24 12.24 -12.24 12.24 12.24 #
coedge $-1 -1 -1 $-1 $323 $250 $255 $341 forward $315 $-1 #
coedge $-1 -1 -1 $-1 $250 $323 $317 $415 reversed $315 $-1 #
simple-snl-attrib $-1 -1 $-1 $-1 $251 1 1 1 1 1 1 1 1 1 1 1 1 0 1 0 1 1 1 @17 NEW_SIMPLE_ATTRIB 1 @9 ENTITY_ID 0 3 38 -2147483648 -1 #
vertex $431 -1 -1 $-1 $251 $432 #
straight-curve $-1 -1 -1 $-1 0 12.24 12.24 -1 0 0 I I #
coedge $-1 -1 -1 $-1 $252 $318 $254 $340 reversed $195 $-1 #
simple-snl-attrib $-1 -1 $-1 $-1 $253 1 1 1 1 1 1 1 1 1 1 1 1 0 1 0 1 1 1 @17 NEW_SIMPLE_ATTRIB 1 @9 ENTITY_ID 0 3 40 -2147483648 -1 #
vertex $433 -1 -1 $-1 $330 $434 #
straight-curve $-1 -1 -1 $-1 0 -12.24 12.24 1 0 0 I I #
edge $435 -1 -1 $-1 $258 -12.24 $327 12.24 $254 $436 forward @7 unknown T 12.24 -12.24 -12.24 12.24 -12.24 12.24 #
edge $437 -1 -1 $-1 $259 -12.24 $326 12.24 $255 $438 forward @7 unknown T 12.24 12.24 -12.24 12.24 12.24 12.24 #
simple-snl-attrib $-1 -1 $-1 $-1 $258 1 1 1 1 1 1 1 1 1 1 1 1 0 1 0 1 1 1 @17 NEW_SIMPLE_ATTRIB 1 @9 ENTITY_ID 0 3 25 -2147483648 -1 #
point $-1 -1 -1 $-1 12.24 -12.24 12.24 #
simple-snl-attrib $-1 -1 $-1 $-1 $259 1 1 1 1 1 1 1 1 1 1 1 1 0 1 0 1 1 1 @17 NEW_SIMPLE_ATTRIB 1 @9 ENTITY_ID 0 3 26 -2147483648 -1 #
point $-1 -1 -1 $-1 12.24 12.24 12.24 #
simple-snl-attrib $-1 -1 $-1 $-1 $272 1 1 1 1 1 1 1 1 1 1 1 1 0 1 0 1 1 1 @17 NEW_SIMPLE_ATTRIB 1 @9 ENTITY_ID 0 3 36 -2147483648 -1 #
face $439 -1 -1 $-1 $-1 $287 $71 $-1 $440 reversed single T 12 -12 -12 12 12 12 F #
loop $-1 -1 -1 $-1 $-1 $364 $272 T -12 12 -12 12 12 12 unknown #
plane-surface $-1 -1 -1 $-1 0 12 0 0 -1 0 0 0 -1 forward_v I I I I #
coedge $-1 -1 -1 $-1 $441 $362 $365 $442 forward $273 $-1 #
coedge $-1 -1 -1 $-1 $369 $275 $276 $355 reversed $224 $-1 #
coedge $-1 -1 -1 $-1 $362 $441 $275 $353 reversed $273 $-1 #
edge $443 -1 -1 $-1 $371 -12 $444 12 $352 $445 forward @7 unknown T -12 -12 -12 -12 -12 12 #
coedge $-1 -1 -1 $-1 $277 $276 $441 $446 forward $185 $-1 #
edge $447 -1 -1 $-1 $360 -12 $444 12 $351 $448 forward @7 unknown T -12 -12 -12 12 -12 -12 #
coedge $-1 -1 -1 $-1 $365 $364 $277 $357 reversed $348 $-1 #
edge $449 -1 -1 $-1 $450 -12 $359 12 $356 $451 forward @7 unknown T -12 12 -12 12 12 -12 #
simple-snl-attrib $-1 -1 $-1 $-1 $279 1 1 1 1 1 1 1 1 1 1 1 1 0 1 0 1 1 1 @17 NEW_SIMPLE_ATTRIB 1 @9 ENTITY_ID 0 3 329 -2147483648 -1 #
vertex $452 -1 -1 $-1 $279 $453 #
vertex $454 -1 -1 $-1 $373 $455 #
straight-curve $-1 -1 -1 $-1 12 0 -12 0 -1 0 I I #
coedge $-1 -1 -1 $-1 $350 $352 $280 $363 reversed $273 $-1 #
edge $456 -1 -1 $-1 $367 -12 $371 12 $362 $457 forward @7 unknown T -12 -12 12 -12 12 12 #
coedge $-1 -1 -1 $-1 $356 $281 $286 $374 forward $348 $-1 #
coedge $-1 -1 -1 $-1 $281 $356 $350 $442 reversed $348 $-1 #
simple-snl-attrib $-1 -1 $-1 $-1 $282 1 1 1 1 1 1 1 1 1 1 1 1 0 1 0 1 1 1 @17 NEW_SIMPLE_ATTRIB 1 @9 ENTITY_ID 0 3 326 -2147483648 -1 #
vertex $458 -1 -1 $-1 $282 $459 #
straight-curve $-1 -1 -1 $-1 0 12 12 -1 0 0 I I #
coedge $-1 -1 -1 $-1 $283 $351 $285 $373 reversed $224 $-1 #
simple-snl-attrib $-1 -1 $-1 $-1 $284 1 1 1 1 1 1 1 1 1 1 1 1 0 1 0 1 1 1 @17 NEW_SIMPLE_ATTRIB 1 @9 ENTITY_ID 0 3 328 -2147483648 -1 #
vertex $460 -1 -1 $-1 $363 $461 #
straight-curve $-1 -1 -1 $-1 0 -12 12 1 0 0 I I #
edge $462 -1 -1 $-1 $289 -12 $360 12 $285 $463 forward @7 unknown T 12 -12 -12 12 -12 12 #
edge $464 -1 -1 $-1 $290 -12 $359 12 $286 $465 forward @7 unknown T 12 12 -12 12 12 12 #
simple-snl-attrib $-1 -1 $-1 $-1 $289 1 1 1 1 1 1 1 1 1 1 1 1 0 1 0 1 1 1 @17 NEW_SIMPLE_ATTRIB 1 @9 ENTITY_ID 0 3 217 -2147483648 -1 #
point $-1 -1 -1 $-1 12 -12 12 #
simple-snl-attrib $-1 -1 $-1 $-1 $290 1 1 1 1 1 1 1 1 1 1 1 1 0 1 0 1 1 1 @17 NEW_SIMPLE_ATTRIB 1 @9 ENTITY_ID 0 3 218 -2147483648 -1 #
point $-1 -1 -1 $-1 12 12 12 #
simple-snl-attrib $-1 -1 $-1 $-1 $293 1 1 1 1 1 1 1 1 1 1 1 1 0 1 0 1 1 1 @17 NEW_SIMPLE_ATTRIB 1 @9 ENTITY_ID 0 3 11 -2147483648 -1 #
face $466 -1 -1 $-1 $-1 $308 $72 $-1 $467 forward single T 12 -12 -12 12 12 12 F #
loop $-1 -1 -1 $-1 $-1 $402 $293 T -12 12 -12 12 12 12 unknown #
plane-surface $-1 -1 -1 $-1 0 12 0 0 -1 0 0 0 -1 forward_v I I I I #
coedge $-1 -1 -1 $-1 $395 $468 $401 $469 reversed $294 $-1 #
coedge $-1 -1 -1 $-1 $296 $397 $298 $390 forward $233 $-1 #
coedge $-1 -1 -1 $-1 $468 $395 $296 $386 forward $294 $-1 #
edge $470 -1 -1 $-1 $399 -12 $471 12 $385 $472 forward @7 unknown T -12 -12 -12 -12 -12 12 #
coedge $-1 -1 -1 $-1 $298 $297 $468 $473 reversed $190 $-1 #
coedge $-1 -1 -1 $-1 $402 $401 $297 $389 forward $381 $-1 #
edge $474 -1 -1 $-1 $475 -12 $392 12 $388 $476 forward @7 unknown T -12 12 -12 12 12 -12 #
edge $477 -1 -1 $-1 $393 -12 $471 12 $384 $478 forward @7 unknown T -12 -12 -12 12 -12 -12 #
simple-snl-attrib $-1 -1 $-1 $-1 $300 1 1 1 1 1 1 1 1 1 1 1 1 0 1 0 1 1 1 @17 NEW_SIMPLE_ATTRIB 1 @9 ENTITY_ID 0 3 65 -2147483648 -1 #
vertex $479 -1 -1 $-1 $300 $480 #
vertex $481 -1 -1 $-1 $407 $482 #
straight-curve $-1 -1 -1 $-1 12 0 -12 0 -1 0 I I #
coedge $-1 -1 -1 $-1 $385 $383 $301 $396 forward $294 $-1 #
edge $483 -1 -1 $-1 $404 -12 $399 12 $395 $484 forward @7 unknown T -12 -12 12 -12 12 12 #
coedge $-1 -1 -1 $-1 $384 $302 $307 $407 forward $233 $-1 #
simple-snl-attrib $-1 -1 $-1 $-1 $303 1 1 1 1 1 1 1 1 1 1 1 1 0 1 0 1 1 1 @17 NEW_SIMPLE_ATTRIB 1 @9 ENTITY_ID 0 3 62 -2147483648 -1 #
vertex $485 -1 -1 $-1 $396 $486 #
straight-curve $-1 -1 -1 $-1 0 -12 12 1 0 0 I I #
coedge $-1 -1 -1 $-1 $388 $304 $383 $469 forward $381 $-1 #
coedge $-1 -1 -1 $-1 $304 $388 $306 $406 reversed $381 $-1 #
simple-snl-attrib $-1 -1 $-1 $-1 $305 1 1 1 1 1 1 1 1 1 1 1 1 0 1 0 1 1 1 @17 NEW_SIMPLE_ATTRIB 1 @9 ENTITY_ID 0 3 64 -2147483648 -1 #
vertex $487 -1 -1 $-1 $305 $488 #
straight-curve $-1 -1 -1 $-1 0 12 12 -1 0 0 I I #
edge $489 -1 -1 $-1 $311 -12 $392 12 $306 $490 forward @7 unknown T 12 12 -12 12 12 12 #
edge $491 -1 -1 $-1 $310 -12 $393 12 $307 $492 forward @7 unknown T 12 -12 -12 12 -12 12 #
simple-snl-attrib $-1 -1 $-1 $-1 $310 1 1 1 1 1 1 1 1 1 1 1 1 0 1 0 1 1 1 @17 NEW_SIMPLE_ATTRIB 1 @9 ENTITY_ID 0 3 41 -2147483648 -1 #
point $-1 -1 -1 $-1 12 -12 12 #
simple-snl-attrib $-1 -1 $-1 $-1 $311 1 1 1 1 1 1 1 1 1 1 1 1 0 1 0 1 1 1 @17 NEW_SIMPLE_ATTRIB 1 @9 ENTITY_ID 0 3 42 -2147483648 -1 #
point $-1 -1 -1 $-1 12 12 12 #
simple-snl-attrib $-1 -1 $-1 $-1 $314 1 1 1 1 1 1 1 1 1 1 1 1 0 1 0 1 1 1 @17 NEW_SIMPLE_ATTRIB 1 @9 ENTITY_ID 0 3 6 -2147483648 -1 #
plane-surface $-1 -1 -1 $-1 12.24 0 0 -1 0 0 0 -0 1 forward_v I I I I #
coedge $-1 -1 -1 $-1 $319 $317 $321 $419 reversed $242 $-1 #
edge $493 -1 -1 $-1 $334 -12.24 $423 12.24 $332 $494 forward @7 unknown T -12.24 12.24 -12.24 -12.24 12.24 12.24 #
simple-snl-attrib $-1 -1 $-1 $-1 $320 1 1 1 1 1 1 1 1 1 1 1 1 0 1 0 1 1 1 @17 NEW_SIMPLE_ATTRIB 1 @9 ENTITY_ID 0 3 45 -2147483648 -1 #
vertex $495 -1 -1 $-1 $419 $496 #
straight-curve $-1 -1 -1 $-1 -12.24 -12.24 0 0 0 -1 I I #
edge $497 -1 -1 $-1 $417 -12.24 $423 12.24 $414 $498 forward @7 unknown T -12.24 -12.24 -12.24 -12.24 12.24 -12.24 #
simple-snl-attrib $-1 -1 $-1 $-1 $322 1 1 1 1 1 1 1 1 1 1 1 1 0 1 0 1 1 1 @17 NEW_SIMPLE_ATTRIB 1 @9 ENTITY_ID 0 3 42 -2147483648 -1 #
straight-curve $-1 -1 -1 $-1 0 -12.24 -12.24 -1 0 0 I I #
simple-snl-attrib $-1 -1 $-1 $-1 $324 1 1 1 1 1 1 1 1 1 1 1 1 0 1 0 1 1 1 @17 NEW_SIMPLE_ATTRIB 1 @9 ENTITY_ID 0 3 44 -2147483648 -1 #
vertex $499 -1 -1 $-1 $324 $500 #
straight-curve $-1 -1 -1 $-1 0 12.24 -12.24 1 0 0 I I #
simple-snl-attrib $-1 -1 $-1 $-1 $326 1 1 1 1 1 1 1 1 1 1 1 1 0 1 0 1 1 1 @17 NEW_SIMPLE_ATTRIB 1 @9 ENTITY_ID 0 3 29 -2147483648 -1 #
point $-1 -1 -1 $-1 12.24 12.24 -12.24 #
simple-snl-attrib $-1 -1 $-1 $-1 $327 1 1 1 1 1 1 1 1 1 1 1 1 0 1 0 1 1 1 @17 NEW_SIMPLE_ATTRIB 1 @9 ENTITY_ID 0 3 30 -2147483648 -1 #
point $-1 -1 -1 $-1 12.24 -12.24 -12.24 #
simple-snl-attrib $-1 -1 $-1 $-1 $330 1 1 1 1 1 1 1 1 1 1 1 1 0 1 0 1 1 1 @17 NEW_SIMPLE_ATTRIB 1 @9 ENTITY_ID 0 3 39 -2147483648 -1 #
straight-curve $-1 -1 -1 $-1 -12.24 0 12.24 0 -1 0 I I #
simple-snl-attrib $-1 -1 $-1 $-1 $334 1 1 1 1 1 1 1 1 1 1 1 1 0 1 0 1 1 1 @17 NEW_SIMPLE_ATTRIB 1 @9 ENTITY_ID 0 3 27 -2147483648 -1 #
point $-1 -1 -1 $-1 -12.24 12.24 12.24 #
simple-snl-attrib $-1 -1 $-1 $-1 $338 1 1 1 1 1 1 1 1 1 1 1 1 0 1 0 1 1 1 @17 NEW_SIMPLE_ATTRIB 1 @9 ENTITY_ID 0 3 28 -2147483648 -1 #
point $-1 -1 -1 $-1 -12.24 -12.24 12.24 #
simple-snl-attrib $-1 -1 $-1 $-1 $340 1 1 1 1 1 1 1 1 1 1 1 1 0 1 0 1 1 1 @17 NEW_SIMPLE_ATTRIB 1 @9 ENTITY_ID 0 3 46 -2147483648 -1 #
straight-curve $-1 -1 -1 $-1 12.24 -12.24 0 0 0 -1 I I #
simple-snl-attrib $-1 -1 $-1 $-1 $341 1 1 1 1 1 1 1 1 1 1 1 1 0 1 0 1 1 1 @17 NEW_SIMPLE_ATTRIB 1 @9 ENTITY_ID 0 3 48 -2147483648 -1 #
straight-curve $-1 -1 -1 $-1 12.24 12.24 0 0 0 -1 I I #
simple-snl-attrib $-1 -1 $-1 $-1 $347 1 1 1 1 1 1 1 1 1 1 1 1 0 1 0 1 1 1 @17 NEW_SIMPLE_ATTRIB 1 @9 ENTITY_ID 0 3 37 -2147483648 -1 #
plane-surface $-1 -1 -1 $-1 12 0 0 -1 0 0 0 -0 1 forward_v I I I I #
coedge $-1 -1 -1 $-1 $352 $350 $354 $446 reversed $273 $-1 #
edge $501 -1 -1 $-1 $367 -12 $450 12 $365 $502 forward @7 unknown T -12 12 -12 -12 12 12 #
simple-snl-attrib $-1 -1 $-1 $-1 $353 1 1 1 1 1 1 1 1 1 1 1 1 0 1 0 1 1 1 @17 NEW_SIMPLE_ATTRIB 1 @9 ENTITY_ID 0 3 333 -2147483648 -1 #
vertex $503 -1 -1 $-1 $446 $504 #
straight-curve $-1 -1 -1 $-1 -12 -12 0 0 0 -1 I I #
edge $505 -1 -1 $-1 $444 -12 $450 12 $441 $506 forward @7 unknown T -12 -12 -12 -12 12 -12 #
simple-snl-attrib $-1 -1 $-1 $-1 $355 1 1 1 1 1 1 1 1 1 1 1 1 0 1 0 1 1 1 @17 NEW_SIMPLE_ATTRIB 1 @9 ENTITY_ID 0 3 330 -2147483648 -1 #
straight-curve $-1 -1 -1 $-1 0 -12 -12 -1 0 0 I I #
simple-snl-attrib $-1 -1 $-1 $-1 $357 1 1 1 1 1 1 1 1 1 1 1 1 0 1 0 1 1 1 @17 NEW_SIMPLE_ATTRIB 1 @9 ENTITY_ID 0 3 332 -2147483648 -1 #
vertex $507 -1 -1 $-1 $357 $508 #
straight-curve $-1 -1 -1 $-1 0 12 -12 1 0 0 I I #
simple-snl-attrib $-1 -1 $-1 $-1 $359 1 1 1 1 1 1 1 1 1 1 1 1 0 1 0 1 1 1 @17 NEW_SIMPLE_ATTRIB 1 @9 ENTITY_ID 0 3 221 -2147483648 -1 #
point $-1 -1 -1 $-1 12 12 -12 #
simple-snl-attrib $-1 -1 $-1 $-1 $360 1 1 1 1 1 1 1 1 1 1 1 1 0 1 0 1 1 1 @17 NEW_SIMPLE_ATTRIB 1 @9 ENTITY_ID 0 3 222 -2147483648 -1 #
point $-1 -1 -1 $-1 12 -12 -12 #
simple-snl-attrib $-1 -1 $-1 $-1 $363 1 1 1 1 1 1 1 1 1 1 1 1 0 1 0 1 1 1 @17 NEW_SIMPLE_ATTRIB 1 @9 ENTITY_ID 0 3 327 -2147483648 -1 #
straight-curve $-1 -1 -1 $-1 -12 0 12 0 -1 0 I I #
simple-snl-attrib $-1 -1 $-1 $-1 $367 1 1 1 1 1 1 1 1 1 1 1 1 0 1 0 1 1 1 @17 NEW_SIMPLE_ATTRIB 1 @9 ENTITY_ID 0 3 219 -2147483648 -1 #
point $-1 -1 -1 $-1 -12 12 12 #
simple-snl-attrib $-1 -1 $-1 $-1 $371 1 1 1 1 1 1 1 1 1 1 1 1 0 1 0 1 1 1 @17 NEW_SIMPLE_ATTRIB 1 @9 ENTITY_ID 0 3 220 -2147483648 -1 #
point $-1 -1 -1 $-1 -12 -12 12 #
simple-snl-attrib $-1 -1 $-1 $-1 $373 1 1 1 1 1 1 1 1 1 1 1 1 0 1 0 1 1 1 @17 NEW_SIMPLE_ATTRIB 1 @9 ENTITY_ID 0 3 334 -2147483648 -1 #
straight-curve $-1 -1 -1 $-1 12 -12 0 0 0 -1 I I #
simple-snl-attrib $-1 -1 $-1 $-1 $374 1 1 1 1 1 1 1 1 1 1 1 1 0 1 0 1 1 1 @17 NEW_SIMPLE_ATTRIB 1 @9 ENTITY_ID 0 3 336 -2147483648 -1 #
straight-curve $-1 -1 -1 $-1 12 12 0 0 0 -1 I I #
simple-snl-attrib $-1 -1 $-1 $-1 $380 1 1 1 1 1 1 1 1 1 1 1 1 0 1 0 1 1 1 @17 NEW_SIMPLE_ATTRIB 1 @9 ENTITY_ID 0 3 12 -2147483648 -1 #
plane-surface $-1 -1 -1 $-1 12 0 0 -1 0 0 0 -0 1 forward_v I I I I #
coedge $-1 -1 -1 $-1 $383 $385 $387 $473 forward $294 $-1 #
edge $509 -1 -1 $-1 $404 -12 $475 12 $401 $510 forward @7 unknown T -12 12 -12 -12 12 12 #
simple-snl-attrib $-1 -1 $-1 $-1 $386 1 1 1 1 1 1 1 1 1 1 1 1 0 1 0 1 1 1 @17 NEW_SIMPLE_ATTRIB 1 @9 ENTITY_ID 0 3 69 -2147483648 -1 #
vertex $511 -1 -1 $-1 $473 $512 #
straight-curve $-1 -1 -1 $-1 -12 -12 0 0 0 -1 I I #
edge $513 -1 -1 $-1 $471 -12 $475 12 $468 $514 forward @7 unknown T -12 -12 -12 -12 12 -12 #
simple-snl-attrib $-1 -1 $-1 $-1 $389 1 1 1 1 1 1 1 1 1 1 1 1 0 1 0 1 1 1 @17 NEW_SIMPLE_ATTRIB 1 @9 ENTITY_ID 0 3 66 -2147483648 -1 #
vertex $515 -1 -1 $-1 $389 $516 #
straight-curve $-1 -1 -1 $-1 0 12 -12 1 0 0 I I #
simple-snl-attrib $-1 -1 $-1 $-1 $390 1 1 1 1 1 1 1 1 1 1 1 1 0 1 0 1 1 1 @17 NEW_SIMPLE_ATTRIB 1 @9 ENTITY_ID 0 3 68 -2147483648 -1 #
straight-curve $-1 -1 -1 $-1 0 -12 -12 -1 0 0 I I #
simple-snl-attrib $-1 -1 $-1 $-1 $392 1 1 1 1 1 1 1 1 1 1 1 1 0 1 0 1 1 1 @17 NEW_SIMPLE_ATTRIB 1 @9 ENTITY_ID 0 3 45 -2147483648 -1 #
point $-1 -1 -1 $-1 12 12 -12 #
simple-snl-attrib $-1 -1 $-1 $-1 $393 1 1 1 1 1 1 1 1 1 1 1 1 0 1 0 1 1 1 @17 NEW_SIMPLE_ATTRIB 1 @9 ENTITY_ID 0 3 46 -2147483648 -1 #
point $-1 -1 -1 $-1 12 -12 -12 #
simple-snl-attrib $-1 -1 $-1 $-1 $396 1 1 1 1 1 1 1 1 1 1 1 1 0 1 0 1 1 1 @17 NEW_SIMPLE_ATTRIB 1 @9 ENTITY_ID 0 3 63 -2147483648 -1 #
straight-curve $-1 -1 -1 $-1 -12 0 12 0 -1 0 I I #
simple-snl-attrib $-1 -1 $-1 $-1 $399 1 1 1 1 1 1 1 1 1 1 1 1 0 1 0 1 1 1 @17 NEW_SIMPLE_ATTRIB 1 @9 ENTITY_ID 0 3 43 -2147483648 -1 #
point $-1 -1 -1 $-1 -12 -12 12 #
simple-snl-attrib $-1 -1 $-1 $-1 $404 1 1 1 1 1 1 1 1 1 1 1 1 0 1 0 1 1 1 @17 NEW_SIMPLE_ATTRIB 1 @9 ENTITY_ID 0 3 44 -2147483648 -1 #
point $-1 -1 -1 $-1 -12 12 12 #
simple-snl-attrib $-1 -1 $-1 $-1 $406 1 1 1 1 1 1 1 1 1 1 1 1 0 1 0 1 1 1 @17 NEW_SIMPLE_ATTRIB 1 @9 ENTITY_ID 0 3 72 -2147483648 -1 #
straight-curve $-1 -1 -1 $-1 12 12 0 0 0 -1 I I #
simple-snl-attrib $-1 -1 $-1 $-1 $407 1 1 1 1 1 1 1 1 1 1 1 1 0 1 0 1 1 1 @17 NEW_SIMPLE_ATTRIB 1 @9 ENTITY_ID 0 3 70 -2147483648 -1 #
straight-curve $-1 -1 -1 $-1 12 -12 0 0 0 -1 I I #
simple-snl-attrib $-1 -1 $-1 $-1 $415 1 1 1 1 1 1 1 1 1 1 1 1 0 1 0 1 1 1 @17 NEW_SIMPLE_ATTRIB 1 @9 ENTITY_ID 0 3 47 -2147483648 -1 #
straight-curve $-1 -1 -1 $-1 -12.24 12.24 0 0 0 -1 I I #
simple-snl-attrib $-1 -1 $-1 $-1 $417 1 1 1 1 1 1 1 1 1 1 1 1 0 1 0 1 1 1 @17 NEW_SIMPLE_ATTRIB 1 @9 ENTITY_ID 0 3 31 -2147483648 -1 #
point $-1 -1 -1 $-1 -12.24 -12.24 -12.24 #
simple-snl-attrib $-1 -1 $-1 $-1 $419 1 1 1 1 1 1 1 1 1 1 1 1 0 1 0 1 1 1 @17 NEW_SIMPLE_ATTRIB 1 @9 ENTITY_ID 0 3 43 -2147483648 -1 #
straight-curve $-1 -1 -1 $-1 -12.24 0 -12.24 0 1 0 I I #
simple-snl-attrib $-1 -1 $-1 $-1 $423 1 1 1 1 1 1 1 1 1 1 1 1 0 1 0 1 1 1 @17 NEW_SIMPLE_ATTRIB 1 @9 ENTITY_ID 0 3 32 -2147483648 -1 #
point $-1 -1 -1 $-1 -12.24 12.24 -12.24 #
simple-snl-attrib $-1 -1 $-1 $-1 $442 1 1 1 1 1 1 1 1 1 1 1 1 0 1 0 1 1 1 @17 NEW_SIMPLE_ATTRIB 1 @9 ENTITY_ID 0 3 335 -2147483648 -1 #
straight-curve $-1 -1 -1 $-1 -12 12 0 0 0 -1 I I #
simple-snl-attrib $-1 -1 $-1 $-1 $444 1 1 1 1 1 1 1 1 1 1 1 1 0 1 0 1 1 1 @17 NEW_SIMPLE_ATTRIB 1 @9 ENTITY_ID 0 3 223 -2147483648 -1 #
point $-1 -1 -1 $-1 -12 -12 -12 #
simple-snl-attrib $-1 -1 $-1 $-1 $446 1 1 1 1 1 1 1 1 1 1 1 1 0 1 0 1 1 1 @17 NEW_SIMPLE_ATTRIB 1 @9 ENTITY_ID 0 3 331 -2147483648 -1 #
straight-curve $-1 -1 -1 $-1 -12 0 -12 0 1 0 I I #
simple-snl-attrib $-1 -1 $-1 $-1 $450 1 1 1 1 1 1 1 1 1 1 1 1 0 1 0 1 1 1 @17 NEW_SIMPLE_ATTRIB 1 @9 ENTITY_ID 0 3 224 -2147483648 -1 #
point $-1 -1 -1 $-1 -12 12 -12 #
simple-snl-attrib $-1 -1 $-1 $-1 $469 1 1 1 1 1 1 1 1 1 1 1 1 0 1 0 1 1 1 @17 NEW_SIMPLE_ATTRIB 1 @9 ENTITY_ID 0 3 71 -2147483648 -1 #
straight-curve $-1 -1 -1 $-1 -12 12 0 0 0 -1 I I #
simple-snl-attrib $-1 -1 $-1 $-1 $471 1 1 1 1 1 1 1 1 1 1 1 1 0 1 0 1 1 1 @17 NEW_SIMPLE_ATTRIB 1 @9 ENTITY_ID 0 3 48 -2147483648 -1 #
point $-1 -1 -1 $-1 -12 -12 -12 #
simple-snl-attrib $-1 -1 $-1 $-1 $473 1 1 1 1 1 1 1 1 1 1 1 1 0 1 0 1 1 1 @17 NEW_SIMPLE_ATTRIB 1 @9 ENTITY_ID 0 3 67 -2147483648 -1 #
straight-curve $-1 -1 -1 $-1 -12 0 -12 0 1 0 I I #
simple-snl-attrib $-1 -1 $-1 $-1 $475 1 1 1 1 1 1 1 1 1 1 1 1 0 1 0 1 1 1 @17 NEW_SIMPLE_ATTRIB 1 @9 ENTITY_ID 0 3 47 -2147483648 -1 #
point $-1 -1 -1 $-1 -12 12 -12 #
End-of-ACIS-data 