1900 0 2 0           
10 Cubit 12.2 17 ACIS 19.0.2 Linux 24 Mon Jul  9 14:34:11 2012 
1 9.9999999999999995e-07 1e-10 
body $2 -1 -1 $-1 $3 $-1 $4 T -1 -1 -1 1 1 1 #
body $5 -1 -1 $-1 $6 $-1 $7 T -3 -3 -3 3 3 3 #
integer_attrib-name_attrib-gen-attrib $-1 -1 $8 $-1 $0 2 1 1 1 1 1 1 1 1 1 1 1 1 1 0 1 1 1 @8 CUBIT_ID 1 #
lump $9 -1 -1 $-1 $-1 $10 $0 T -1 -1 -1 1 1 1 #
transform $-1 -1 1 0 0 0 1 0 0 0 1 0 0 0 1 no_rotate no_reflect no_shear #
integer_attrib-name_attrib-gen-attrib $-1 -1 $11 $-1 $1 2 1 1 1 1 1 1 1 1 1 1 1 1 1 0 1 1 1 @8 CUBIT_ID 4 #
lump $12 -1 -1 $-1 $-1 $13 $1 T -3 -3 -3 3 3 3 #
transform $-1 -1 1 0 0 0 1 0 0 0 1 0 0 0 1 no_rotate no_reflect no_shear #
simple-snl-attrib $-1 -1 $-1 $2 $0 1 1 1 1 1 1 1 1 1 1 1 1 0 1 0 1 1 1 @17 NEW_SIMPLE_ATTRIB 1 @9 ENTITY_ID 0 3 1 -2147483648 -1 #
integer_attrib-name_attrib-gen-attrib $-1 -1 $14 $-1 $3 2 1 1 1 1 1 1 1 1 1 1 1 1 1 0 1 1 1 @8 CUBIT_ID 1 #
shell $-1 -1 -1 $-1 $-1 $-1 $15 $-1 $3 T -1 -1 -1 1 1 1 #
simple-snl-attrib $-1 -1 $-1 $5 $1 1 1 1 1 1 1 1 1 1 1 1 1 0 1 0 1 1 1 @17 NEW_SIMPLE_ATTRIB 1 @9 ENTITY_ID 0 3 4 -2147483648 -1 #
integer_attrib-name_attrib-gen-attrib $-1 -1 $16 $-1 $6 2 1 1 1 1 1 1 1 1 1 1 1 1 1 0 1 1 1 @8 CUBIT_ID 4 #
shell $-1 -1 -1 $-1 $17 $-1 $18 $-1 $6 T -3 -3 -3 3 3 3 #
simple-snl-attrib $-1 -1 $19 $9 $3 1 1 1 1 1 1 1 1 1 1 1 1 0 1 0 1 1 1 @17 NEW_SIMPLE_ATTRIB 1 @9 ENTITY_ID 0 3 1 -2147483648 -1 #
face $20 -1 -1 $-1 $21 $22 $10 $-1 $23 forward single T -1 -1 1 1 1 1 F #
simple-snl-attrib $-1 -1 $24 $12 $6 1 1 1 1 1 1 1 1 1 1 1 1 0 1 0 1 1 1 @17 NEW_SIMPLE_ATTRIB 1 @9 ENTITY_ID 0 3 4 -2147483648 -1 #
shell $-1 -1 -1 $-1 $-1 $-1 $25 $-1 $6 T -2.5 -2.5 -2.5 2.5 2.5 2.5 #
face $26 -1 -1 $-1 $27 $28 $13 $-1 $29 forward single T -3 -3 3 3 3 3 F #
simple-snl-attrib $-1 -1 $30 $14 $3 1 1 1 1 1 1 1 1 1 1 1 1 0 1 0 1 1 1 @17 NEW_SIMPLE_ATTRIB 7 @5 GROUP @19 tally_1.cell.flux.n @22 tally_1.cell.heating.n @15 mat_2_rho_-19.1 @22 tally_1.cell.fission.n @22 tally_1.pulse.height.p @8 picked@A 0 27 6 4 7 8 9 10 11 1038071058 135405481 1535551153 1453376282 98091505 1590169356 0 0 0 0 0 0 0 0 0 0 0 0 0 0 #
integer_attrib-name_attrib-gen-attrib $-1 -1 $31 $-1 $15 2 1 1 1 1 1 1 1 1 1 1 1 1 1 0 1 1 1 @8 CUBIT_ID 1 #
face $32 -1 -1 $-1 $33 $34 $10 $-1 $35 reversed single T -1 -1 -1 1 1 -1 F #
loop $-1 -1 -1 $-1 $-1 $36 $15 T -1 -1 1 1 1 1 unknown #
plane-surface $-1 -1 -1 $-1 0 0 1 0 0 1 1 0 0 forward_v I I I I #
simple-snl-attrib $-1 -1 $37 $16 $6 1 1 1 1 1 1 1 1 1 1 1 1 0 1 0 1 1 1 @17 NEW_SIMPLE_ATTRIB 3 @5 GROUP @9 graveyard @17 mat_1_rho_-1_comp 0 11 2 3 2 1311422948 1509010026 0 0 0 0 0 0 #
face $38 -1 -1 $-1 $39 $40 $17 $-1 $41 reversed single T -2.5 -2.5 2.5 2.5 2.5 2.5 F #
integer_attrib-name_attrib-gen-attrib $-1 -1 $42 $-1 $18 2 1 1 1 1 1 1 1 1 1 1 1 1 1 0 1 1 1 @8 CUBIT_ID 19 #
face $43 -1 -1 $-1 $44 $45 $13 $-1 $46 reversed single T -3 -3 -3 3 3 -3 F #
loop $-1 -1 -1 $-1 $-1 $47 $18 T -3 -3 3 3 3 3 periphery $29 F #
plane-surface $-1 -1 -1 $-1 0 0 3 0 0 1 1 0 0 forward_v I I I I #
simple-snl-attrib $-1 -1 $-1 $19 $3 1 1 1 1 1 1 1 1 1 1 1 1 0 1 0 1 1 1 @17 NEW_SIMPLE_ATTRIB 7 @16 GRAPHICS_OPTIONS @14 geometry color @10 mesh color @19 geometry visibility @15 mesh visibility @11 render mode @11 transparent 0 6 4 4 1 1 0 0 #
simple-snl-attrib $-1 -1 $48 $20 $15 1 1 1 1 1 1 1 1 1 1 1 1 0 1 0 1 1 1 @17 NEW_SIMPLE_ATTRIB 1 @9 ENTITY_ID 0 3 1 -2147483648 -1 #
integer_attrib-name_attrib-gen-attrib $-1 -1 $49 $-1 $21 2 1 1 1 1 1 1 1 1 1 1 1 1 1 0 1 1 1 @8 CUBIT_ID 2 #
face $50 -1 -1 $-1 $51 $52 $10 $-1 $53 reversed single T -1 -1 -1 1 -1 1 F #
loop $-1 -1 -1 $-1 $-1 $54 $21 T -1 -1 -1 1 1 -1 unknown #
plane-surface $-1 -1 -1 $-1 0 0 -1 0 0 1 1 0 0 forward_v I I I I #
coedge $-1 -1 -1 $-1 $55 $56 $57 $58 forward $22 $-1 #
simple-snl-attrib $-1 -1 $-1 $24 $6 1 1 1 1 1 1 1 1 1 1 1 1 0 1 0 1 1 1 @17 NEW_SIMPLE_ATTRIB 7 @16 GRAPHICS_OPTIONS @14 geometry color @10 mesh color @19 geometry visibility @15 mesh visibility @11 render mode @11 transparent 0 6 7 7 1 1 0 0 #
integer_attrib-name_attrib-gen-attrib $-1 -1 $59 $-1 $25 2 1 1 1 1 1 1 1 1 1 1 1 1 1 0 1 1 1 @8 CUBIT_ID 25 #
face $60 -1 -1 $-1 $61 $62 $17 $-1 $63 forward single T -2.5 -2.5 -2.5 2.5 2.5 -2.5 F #
loop $-1 -1 -1 $-1 $-1 $64 $25 T -2.5 -2.5 2.5 2.5 2.5 2.5 unknown #
plane-surface $-1 -1 -1 $-1 0 0 2.5 0 0 1 1 0 0 forward_v I I I I #
simple-snl-attrib $-1 -1 $65 $26 $18 1 1 1 1 1 1 1 1 1 1 1 1 0 1 0 1 1 1 @17 NEW_SIMPLE_ATTRIB 1 @9 ENTITY_ID 0 3 19 -2147483648 -1 #
integer_attrib-name_attrib-gen-attrib $-1 -1 $66 $-1 $27 2 1 1 1 1 1 1 1 1 1 1 1 1 1 0 1 1 1 @8 CUBIT_ID 20 #
face $67 -1 -1 $-1 $68 $69 $13 $-1 $70 reversed single T -3 -3 -3 3 -3 3 F #
loop $-1 -1 -1 $-1 $-1 $71 $27 T -3 -3 -3 3 3 -3 unknown #
plane-surface $-1 -1 -1 $-1 0 0 -3 0 0 1 1 0 0 forward_v I I I I #
coedge $-1 -1 -1 $-1 $72 $73 $74 $75 forward $28 $-1 #
simple-snl-attrib $-1 -1 $76 $31 $15 1 1 1 1 1 1 1 1 1 1 1 1 0 1 0 1 1 1 @17 NEW_SIMPLE_ATTRIB 3 @5 GROUP @22 tally_1.surf.current.n @19 tally_1.surf.flux.n 0 11 2 5 6 1707806395 753805244 0 0 0 0 0 0 #
simple-snl-attrib $-1 -1 $77 $32 $21 1 1 1 1 1 1 1 1 1 1 1 1 0 1 0 1 1 1 @17 NEW_SIMPLE_ATTRIB 1 @9 ENTITY_ID 0 3 2 -2147483648 -1 #
integer_attrib-name_attrib-gen-attrib $-1 -1 $78 $-1 $33 2 1 1 1 1 1 1 1 1 1 1 1 1 1 0 1 1 1 @8 CUBIT_ID 3 #
face $79 -1 -1 $-1 $80 $81 $10 $-1 $82 reversed single T -1 -1 -1 -1 1 1 F #
loop $-1 -1 -1 $-1 $-1 $83 $33 T -1 -1 -1 1 -1 1 unknown #
plane-surface $-1 -1 -1 $-1 0 -1 0 0 1 -0 -0 0 1 forward_v I I I I #
coedge $-1 -1 -1 $-1 $84 $85 $86 $87 forward $34 $-1 #
coedge $-1 -1 -1 $-1 $88 $36 $89 $90 forward $22 $-1 #
coedge $-1 -1 -1 $-1 $36 $88 $91 $92 forward $22 $-1 #
coedge $-1 -1 -1 $-1 $93 $94 $36 $58 reversed $95 $-1 #
edge $96 -1 -1 $-1 $97 -1 $98 1 $57 $99 forward @7 unknown T 1 -1 1 1 1 1 #
simple-snl-attrib $-1 -1 $100 $38 $25 1 1 1 1 1 1 1 1 1 1 1 1 0 1 0 1 1 1 @17 NEW_SIMPLE_ATTRIB 1 @9 ENTITY_ID 0 3 25 -2147483648 -1 #
integer_attrib-name_attrib-gen-attrib $-1 -1 $101 $-1 $39 2 1 1 1 1 1 1 1 1 1 1 1 1 1 0 1 1 1 @8 CUBIT_ID 26 #
face $102 -1 -1 $-1 $103 $104 $17 $-1 $105 forward single T -2.5 -2.5 -2.5 2.5 -2.5 2.5 F #
loop $-1 -1 -1 $-1 $-1 $106 $39 T -2.5 -2.5 -2.5 2.5 2.5 -2.5 unknown #
plane-surface $-1 -1 -1 $-1 0 0 -2.5 0 0 1 1 0 0 forward_v I I I I #
coedge $-1 -1 -1 $-1 $107 $108 $109 $110 reversed $40 $-1 #
simple-snl-attrib $-1 -1 $-1 $42 $18 1 1 1 1 1 1 1 1 1 1 1 1 0 1 0 1 1 1 @17 NEW_SIMPLE_ATTRIB 3 @13 MESH_INTERVAL @4 LIMP @4 LIMP 2 1 0 5 1 0 0 1 1 #
simple-snl-attrib $-1 -1 $111 $43 $27 1 1 1 1 1 1 1 1 1 1 1 1 0 1 0 1 1 1 @17 NEW_SIMPLE_ATTRIB 1 @9 ENTITY_ID 0 3 20 -2147483648 -1 #
integer_attrib-name_attrib-gen-attrib $-1 -1 $112 $-1 $44 2 1 1 1 1 1 1 1 1 1 1 1 1 1 0 1 1 1 @8 CUBIT_ID 21 #
face $113 -1 -1 $-1 $114 $115 $13 $-1 $116 reversed single T -3 -3 -3 -3 3 3 F #
loop $-1 -1 -1 $-1 $-1 $117 $44 T -3 -3 -3 3 -3 3 unknown #
plane-surface $-1 -1 -1 $-1 0 -3 0 0 1 -0 -0 0 1 forward_v I I I I #
coedge $-1 -1 -1 $-1 $118 $119 $120 $121 forward $45 $-1 #
coedge $-1 -1 -1 $-1 $122 $47 $123 $124 forward $28 $-1 #
coedge $-1 -1 -1 $-1 $47 $122 $125 $126 forward $28 $-1 #
coedge $-1 -1 -1 $-1 $127 $128 $47 $75 reversed $129 $-1 #
edge $130 -1 -1 $-1 $131 -3 $132 3 $74 $133 forward @7 unknown T 3 -3 3 3 3 3 #
simple-snl-attrib $-1 -1 $-1 $48 $15 1 1 1 1 1 1 1 1 1 1 1 1 0 1 0 1 1 1 @17 NEW_SIMPLE_ATTRIB 3 @13 MESH_INTERVAL @4 LIMP @4 LIMP 2 1 0 5 1 0 0 1 1 #
simple-snl-attrib $-1 -1 $-1 $49 $21 1 1 1 1 1 1 1 1 1 1 1 1 0 1 0 1 1 1 @17 NEW_SIMPLE_ATTRIB 3 @13 MESH_INTERVAL @4 LIMP @4 LIMP 2 1 0 5 1 0 0 1 1 #
simple-snl-attrib $-1 -1 $134 $50 $33 1 1 1 1 1 1 1 1 1 1 1 1 0 1 0 1 1 1 @17 NEW_SIMPLE_ATTRIB 1 @9 ENTITY_ID 0 3 3 -2147483648 -1 #
integer_attrib-name_attrib-gen-attrib $-1 -1 $135 $-1 $51 2 1 1 1 1 1 1 1 1 1 1 1 1 1 0 1 1 1 @8 CUBIT_ID 4 #
face $136 -1 -1 $-1 $137 $138 $10 $-1 $139 reversed single T -1 1 -1 1 1 1 F #
loop $-1 -1 -1 $-1 $-1 $140 $51 T -1 -1 -1 -1 1 1 unknown #
plane-surface $-1 -1 -1 $-1 -1 0 0 1 0 0 0 0 -1 forward_v I I I I #
coedge $-1 -1 -1 $-1 $141 $91 $142 $143 forward $52 $-1 #
coedge $-1 -1 -1 $-1 $144 $54 $141 $145 forward $34 $-1 #
coedge $-1 -1 -1 $-1 $54 $144 $146 $147 forward $34 $-1 #
coedge $-1 -1 -1 $-1 $94 $93 $54 $87 reversed $95 $-1 #
edge $148 -1 -1 $-1 $149 -1 $150 1 $86 $151 forward @7 unknown T 1 -1 -1 1 1 -1 #
coedge $-1 -1 -1 $-1 $56 $55 $152 $153 forward $22 $-1 #
coedge $-1 -1 -1 $-1 $154 $155 $55 $90 reversed $138 $-1 #
edge $156 -1 -1 $-1 $98 -1 $157 1 $89 $158 forward @7 unknown T -1 1 1 1 1 1 #
coedge $-1 -1 -1 $-1 $83 $159 $56 $92 reversed $52 $-1 #
edge $160 -1 -1 $-1 $161 -1 $97 1 $91 $162 forward @7 unknown T -1 -1 1 1 -1 1 #
coedge $-1 -1 -1 $-1 $86 $57 $159 $163 forward $95 $-1 #
coedge $-1 -1 -1 $-1 $57 $86 $154 $164 reversed $95 $-1 #
loop $-1 -1 -1 $-1 $-1 $93 $137 T 1 -1 -1 1 1 1 unknown #
integer_attrib-name_attrib-gen-attrib $-1 -1 $165 $-1 $58 2 1 1 1 1 1 1 1 1 1 1 1 1 1 0 1 1 1 @8 CUBIT_ID 1 #
vertex $166 -1 -1 $-1 $58 $167 #
vertex $168 -1 -1 $-1 $58 $169 #
straight-curve $-1 -1 -1 $-1 1 0 1 0 1 0 I I #
simple-snl-attrib $-1 -1 $-1 $59 $25 1 1 1 1 1 1 1 1 1 1 1 1 0 1 0 1 1 1 @17 NEW_SIMPLE_ATTRIB 3 @13 MESH_INTERVAL @4 LIMP @4 LIMP 2 1 0 5 1 0 0 1 1 #
simple-snl-attrib $-1 -1 $170 $60 $39 1 1 1 1 1 1 1 1 1 1 1 1 0 1 0 1 1 1 @17 NEW_SIMPLE_ATTRIB 1 @9 ENTITY_ID 0 3 26 -2147483648 -1 #
integer_attrib-name_attrib-gen-attrib $-1 -1 $171 $-1 $61 2 1 1 1 1 1 1 1 1 1 1 1 1 1 0 1 1 1 @8 CUBIT_ID 27 #
face $172 -1 -1 $-1 $173 $174 $17 $-1 $175 forward single T -2.5 -2.5 -2.5 -2.5 2.5 2.5 F #
loop $-1 -1 -1 $-1 $-1 $176 $61 T -2.5 -2.5 -2.5 2.5 -2.5 2.5 periphery $105 F #
plane-surface $-1 -1 -1 $-1 0 -2.5 0 0 1 -0 -0 0 1 forward_v I I I I #
coedge $-1 -1 -1 $-1 $177 $178 $179 $180 reversed $62 $-1 #
coedge $-1 -1 -1 $-1 $181 $64 $182 $183 reversed $40 $-1 #
coedge $-1 -1 -1 $-1 $64 $181 $184 $185 reversed $40 $-1 #
coedge $-1 -1 -1 $-1 $186 $187 $64 $110 forward $188 $-1 #
edge $189 -1 -1 $-1 $190 -2.5 $191 2.5 $109 $192 forward @7 unknown T 2.5 -2.5 2.5 2.5 2.5 2.5 #
simple-snl-attrib $-1 -1 $-1 $66 $27 1 1 1 1 1 1 1 1 1 1 1 1 0 1 0 1 1 1 @17 NEW_SIMPLE_ATTRIB 3 @13 MESH_INTERVAL @4 LIMP @4 LIMP 2 1 0 5 1 0 0 1 1 #
simple-snl-attrib $-1 -1 $193 $67 $44 1 1 1 1 1 1 1 1 1 1 1 1 0 1 0 1 1 1 @17 NEW_SIMPLE_ATTRIB 1 @9 ENTITY_ID 0 3 21 -2147483648 -1 #
integer_attrib-name_attrib-gen-attrib $-1 -1 $194 $-1 $68 2 1 1 1 1 1 1 1 1 1 1 1 1 1 0 1 1 1 @8 CUBIT_ID 22 #
face $195 -1 -1 $-1 $196 $197 $13 $-1 $198 reversed single T -3 3 -3 3 3 3 F #
loop $-1 -1 -1 $-1 $-1 $199 $68 T -3 -3 -3 -3 3 3 periphery $116 T #
plane-surface $-1 -1 -1 $-1 -3 0 0 1 0 0 0 0 -1 forward_v I I I I #
coedge $-1 -1 -1 $-1 $200 $125 $201 $202 forward $69 $-1 #
coedge $-1 -1 -1 $-1 $203 $71 $200 $204 forward $45 $-1 #
coedge $-1 -1 -1 $-1 $71 $203 $205 $206 forward $45 $-1 #
coedge $-1 -1 -1 $-1 $128 $127 $71 $121 reversed $129 $-1 #
edge $207 -1 -1 $-1 $208 -3 $209 3 $120 $210 forward @7 unknown T 3 -3 -3 3 3 -3 #
coedge $-1 -1 -1 $-1 $73 $72 $211 $212 forward $28 $-1 #
coedge $-1 -1 -1 $-1 $213 $214 $72 $124 reversed $197 $-1 #
edge $215 -1 -1 $-1 $132 -3 $216 3 $123 $217 forward @7 unknown T -3 3 3 3 3 3 #
coedge $-1 -1 -1 $-1 $117 $218 $73 $126 reversed $69 $-1 #
edge $219 -1 -1 $-1 $220 -3 $131 3 $125 $221 forward @7 unknown T -3 -3 3 3 -3 3 #
coedge $-1 -1 -1 $-1 $120 $74 $218 $222 forward $129 $-1 #
coedge $-1 -1 -1 $-1 $74 $120 $213 $223 reversed $129 $-1 #
loop $-1 -1 -1 $-1 $-1 $127 $196 T 3 -3 -3 3 3 3 unknown #
integer_attrib-name_attrib-gen-attrib $-1 -1 $224 $-1 $75 2 1 1 1 1 1 1 1 1 1 1 1 1 1 0 1 1 1 @8 CUBIT_ID 37 #
vertex $225 -1 -1 $-1 $75 $226 #
vertex $227 -1 -1 $-1 $75 $228 #
straight-curve $-1 -1 -1 $-1 3 0 3 0 1 0 I I #
simple-snl-attrib $-1 -1 $-1 $78 $33 1 1 1 1 1 1 1 1 1 1 1 1 0 1 0 1 1 1 @17 NEW_SIMPLE_ATTRIB 3 @13 MESH_INTERVAL @4 LIMP @4 LIMP 2 1 0 5 1 0 0 1 1 #
simple-snl-attrib $-1 -1 $229 $79 $51 1 1 1 1 1 1 1 1 1 1 1 1 0 1 0 1 1 1 @17 NEW_SIMPLE_ATTRIB 1 @9 ENTITY_ID 0 3 4 -2147483648 -1 #
integer_attrib-name_attrib-gen-attrib $-1 -1 $230 $-1 $80 2 1 1 1 1 1 1 1 1 1 1 1 1 1 0 1 1 1 @8 CUBIT_ID 5 #
face $231 -1 -1 $-1 $-1 $95 $10 $-1 $232 reversed single T 1 -1 -1 1 1 1 F #
loop $-1 -1 -1 $-1 $-1 $154 $80 T -1 1 -1 1 1 1 unknown #
plane-surface $-1 -1 -1 $-1 0 1 0 0 -1 0 0 0 -1 forward_v I I I I #
coedge $-1 -1 -1 $-1 $233 $152 $155 $234 forward $81 $-1 #
coedge $-1 -1 -1 $-1 $159 $83 $84 $145 reversed $52 $-1 #
coedge $-1 -1 -1 $-1 $152 $233 $83 $143 reversed $81 $-1 #
edge $235 -1 -1 $-1 $161 -1 $236 1 $142 $237 forward @7 unknown T -1 -1 -1 -1 -1 1 #
coedge $-1 -1 -1 $-1 $85 $84 $233 $238 forward $34 $-1 #
edge $239 -1 -1 $-1 $150 -1 $236 1 $141 $240 forward @7 unknown T -1 -1 -1 1 -1 -1 #
coedge $-1 -1 -1 $-1 $155 $154 $85 $147 reversed $138 $-1 #
edge $241 -1 -1 $-1 $242 -1 $149 1 $146 $243 forward @7 unknown T -1 1 -1 1 1 -1 #
integer_attrib-name_attrib-gen-attrib $-1 -1 $244 $-1 $87 2 1 1 1 1 1 1 1 1 1 1 1 1 1 0 1 1 1 @8 CUBIT_ID 5 #
vertex $245 -1 -1 $-1 $87 $246 #
vertex $247 -1 -1 $-1 $163 $248 #
straight-curve $-1 -1 -1 $-1 1 0 -1 0 -1 0 I I #
coedge $-1 -1 -1 $-1 $140 $142 $88 $153 reversed $81 $-1 #
edge $249 -1 -1 $-1 $157 -1 $161 1 $152 $250 forward @7 unknown T -1 -1 1 -1 1 1 #
coedge $-1 -1 -1 $-1 $146 $89 $94 $164 forward $138 $-1 #
coedge $-1 -1 -1 $-1 $89 $146 $140 $234 reversed $138 $-1 #
integer_attrib-name_attrib-gen-attrib $-1 -1 $251 $-1 $90 2 1 1 1 1 1 1 1 1 1 1 1 1 1 0 1 1 1 @8 CUBIT_ID 2 #
vertex $252 -1 -1 $-1 $90 $253 #
straight-curve $-1 -1 -1 $-1 0 1 1 -1 0 0 I I #
coedge $-1 -1 -1 $-1 $91 $141 $93 $163 reversed $52 $-1 #
integer_attrib-name_attrib-gen-attrib $-1 -1 $254 $-1 $92 2 1 1 1 1 1 1 1 1 1 1 1 1 1 0 1 1 1 @8 CUBIT_ID 4 #
vertex $255 -1 -1 $-1 $153 $256 #
straight-curve $-1 -1 -1 $-1 0 -1 1 1 0 0 I I #
edge $257 -1 -1 $-1 $97 -1 $150 1 $93 $258 forward @7 unknown T 1 -1 -1 1 -1 1 #
edge $259 -1 -1 $-1 $98 -1 $149 1 $94 $260 forward @7 unknown T 1 1 -1 1 1 1 #
simple-snl-attrib $-1 -1 $-1 $96 $58 1 1 1 1 1 1 1 1 1 1 1 1 0 1 0 1 1 1 @17 NEW_SIMPLE_ATTRIB 1 @9 ENTITY_ID 0 3 1 -2147483648 -1 #
integer_attrib-name_attrib-gen-attrib $-1 -1 $261 $-1 $97 2 1 1 1 1 1 1 1 1 1 1 1 1 1 0 1 1 1 @8 CUBIT_ID 1 #
point $-1 -1 -1 $-1 1 -1 1 #
integer_attrib-name_attrib-gen-attrib $-1 -1 $262 $-1 $98 2 1 1 1 1 1 1 1 1 1 1 1 1 1 0 1 1 1 @8 CUBIT_ID 2 #
point $-1 -1 -1 $-1 1 1 1 #
simple-snl-attrib $-1 -1 $-1 $101 $39 1 1 1 1 1 1 1 1 1 1 1 1 0 1 0 1 1 1 @17 NEW_SIMPLE_ATTRIB 3 @13 MESH_INTERVAL @4 LIMP @4 LIMP 2 1 0 5 1 0 0 1 1 #
simple-snl-attrib $-1 -1 $263 $102 $61 1 1 1 1 1 1 1 1 1 1 1 1 0 1 0 1 1 1 @17 NEW_SIMPLE_ATTRIB 1 @9 ENTITY_ID 0 3 27 -2147483648 -1 #
integer_attrib-name_attrib-gen-attrib $-1 -1 $264 $-1 $103 2 1 1 1 1 1 1 1 1 1 1 1 1 1 0 1 1 1 @8 CUBIT_ID 28 #
face $265 -1 -1 $-1 $266 $267 $17 $-1 $268 forward single T -2.5 2.5 -2.5 2.5 2.5 2.5 F #
loop $-1 -1 -1 $-1 $-1 $269 $103 T -2.5 -2.5 -2.5 -2.5 2.5 2.5 unknown #
plane-surface $-1 -1 -1 $-1 -2.5 0 0 1 0 0 0 0 -1 forward_v I I I I #
coedge $-1 -1 -1 $-1 $182 $270 $271 $272 reversed $104 $-1 #
coedge $-1 -1 -1 $-1 $273 $106 $274 $275 reversed $62 $-1 #
coedge $-1 -1 -1 $-1 $106 $273 $270 $276 reversed $62 $-1 #
coedge $-1 -1 -1 $-1 $187 $186 $106 $180 forward $188 $-1 #
edge $277 -1 -1 $-1 $278 -2.5 $279 2.5 $179 $280 forward @7 unknown T 2.5 -2.5 -2.5 2.5 2.5 -2.5 #
coedge $-1 -1 -1 $-1 $108 $107 $281 $282 reversed $40 $-1 #
coedge $-1 -1 -1 $-1 $283 $176 $107 $183 forward $104 $-1 #
edge $284 -1 -1 $-1 $285 -2.5 $190 2.5 $182 $286 forward @7 unknown T -2.5 -2.5 2.5 2.5 -2.5 2.5 #
coedge $-1 -1 -1 $-1 $287 $288 $108 $185 forward $267 $-1 #
edge $289 -1 -1 $-1 $191 -2.5 $290 2.5 $184 $291 forward @7 unknown T -2.5 2.5 2.5 2.5 2.5 2.5 #
coedge $-1 -1 -1 $-1 $179 $109 $288 $292 forward $188 $-1 #
coedge $-1 -1 -1 $-1 $109 $179 $283 $293 reversed $188 $-1 #
loop $-1 -1 -1 $-1 $-1 $187 $266 T 2.5 -2.5 -2.5 2.5 2.5 2.5 unknown #
integer_attrib-name_attrib-gen-attrib $-1 -1 $294 $-1 $110 2 1 1 1 1 1 1 1 1 1 1 1 1 1 0 1 1 1 @8 CUBIT_ID 49 #
vertex $295 -1 -1 $-1 $110 $296 #
vertex $297 -1 -1 $-1 $110 $298 #
straight-curve $-1 -1 -1 $-1 2.5 0 2.5 0 1 0 I I #
simple-snl-attrib $-1 -1 $-1 $112 $44 1 1 1 1 1 1 1 1 1 1 1 1 0 1 0 1 1 1 @17 NEW_SIMPLE_ATTRIB 3 @13 MESH_INTERVAL @4 LIMP @4 LIMP 2 1 0 5 1 0 0 1 1 #
simple-snl-attrib $-1 -1 $299 $113 $68 1 1 1 1 1 1 1 1 1 1 1 1 0 1 0 1 1 1 @17 NEW_SIMPLE_ATTRIB 1 @9 ENTITY_ID 0 3 22 -2147483648 -1 #
integer_attrib-name_attrib-gen-attrib $-1 -1 $300 $-1 $114 2 1 1 1 1 1 1 1 1 1 1 1 1 1 0 1 1 1 @8 CUBIT_ID 23 #
face $301 -1 -1 $-1 $-1 $129 $13 $-1 $302 reversed single T 3 -3 -3 3 3 3 F #
loop $-1 -1 -1 $-1 $-1 $213 $114 T -3 3 -3 3 3 3 unknown #
plane-surface $-1 -1 -1 $-1 0 3 0 0 -1 0 0 0 -1 forward_v I I I I #
coedge $-1 -1 -1 $-1 $303 $211 $214 $304 forward $115 $-1 #
coedge $-1 -1 -1 $-1 $218 $117 $118 $204 reversed $69 $-1 #
coedge $-1 -1 -1 $-1 $211 $303 $117 $202 reversed $115 $-1 #
edge $305 -1 -1 $-1 $220 -3 $306 3 $201 $307 forward @7 unknown T -3 -3 -3 -3 -3 3 #
coedge $-1 -1 -1 $-1 $119 $118 $303 $308 forward $45 $-1 #
edge $309 -1 -1 $-1 $209 -3 $306 3 $200 $310 forward @7 unknown T -3 -3 -3 3 -3 -3 #
coedge $-1 -1 -1 $-1 $214 $213 $119 $206 reversed $197 $-1 #
edge $311 -1 -1 $-1 $312 -3 $208 3 $205 $313 forward @7 unknown T -3 3 -3 3 3 -3 #
integer_attrib-name_attrib-gen-attrib $-1 -1 $314 $-1 $121 2 1 1 1 1 1 1 1 1 1 1 1 1 1 0 1 1 1 @8 CUBIT_ID 41 #
vertex $315 -1 -1 $-1 $121 $316 #
vertex $317 -1 -1 $-1 $222 $318 #
straight-curve $-1 -1 -1 $-1 3 0 -3 0 -1 0 I I #
coedge $-1 -1 -1 $-1 $199 $201 $122 $212 reversed $115 $-1 #
edge $319 -1 -1 $-1 $216 -3 $220 3 $211 $320 forward @7 unknown T -3 -3 3 -3 3 3 #
coedge $-1 -1 -1 $-1 $205 $123 $128 $223 forward $197 $-1 #
coedge $-1 -1 -1 $-1 $123 $205 $199 $304 reversed $197 $-1 #
integer_attrib-name_attrib-gen-attrib $-1 -1 $321 $-1 $124 2 1 1 1 1 1 1 1 1 1 1 1 1 1 0 1 1 1 @8 CUBIT_ID 38 #
vertex $322 -1 -1 $-1 $124 $323 #
straight-curve $-1 -1 -1 $-1 0 3 3 -1 0 0 I I #
coedge $-1 -1 -1 $-1 $125 $200 $127 $222 reversed $69 $-1 #
integer_attrib-name_attrib-gen-attrib $-1 -1 $324 $-1 $126 2 1 1 1 1 1 1 1 1 1 1 1 1 1 0 1 1 1 @8 CUBIT_ID 40 #
vertex $325 -1 -1 $-1 $212 $326 #
straight-curve $-1 -1 -1 $-1 0 -3 3 1 0 0 I I #
edge $327 -1 -1 $-1 $131 -3 $209 3 $127 $328 forward @7 unknown T 3 -3 -3 3 -3 3 #
edge $329 -1 -1 $-1 $132 -3 $208 3 $128 $330 forward @7 unknown T 3 3 -3 3 3 3 #
simple-snl-attrib $-1 -1 $-1 $130 $75 1 1 1 1 1 1 1 1 1 1 1 1 0 1 0 1 1 1 @17 NEW_SIMPLE_ATTRIB 1 @9 ENTITY_ID 0 3 37 -2147483648 -1 #
integer_attrib-name_attrib-gen-attrib $-1 -1 $331 $-1 $131 2 1 1 1 1 1 1 1 1 1 1 1 1 1 0 1 1 1 @8 CUBIT_ID 25 #
point $-1 -1 -1 $-1 3 -3 3 #
integer_attrib-name_attrib-gen-attrib $-1 -1 $332 $-1 $132 2 1 1 1 1 1 1 1 1 1 1 1 1 1 0 1 1 1 @8 CUBIT_ID 26 #
point $-1 -1 -1 $-1 3 3 3 #
simple-snl-attrib $-1 -1 $-1 $135 $51 1 1 1 1 1 1 1 1 1 1 1 1 0 1 0 1 1 1 @17 NEW_SIMPLE_ATTRIB 3 @13 MESH_INTERVAL @4 LIMP @4 LIMP 2 1 0 5 1 0 0 1 1 #
simple-snl-attrib $-1 -1 $333 $136 $80 1 1 1 1 1 1 1 1 1 1 1 1 0 1 0 1 1 1 @17 NEW_SIMPLE_ATTRIB 1 @9 ENTITY_ID 0 3 5 -2147483648 -1 #
integer_attrib-name_attrib-gen-attrib $-1 -1 $334 $-1 $137 2 1 1 1 1 1 1 1 1 1 1 1 1 1 0 1 1 1 @8 CUBIT_ID 6 #
plane-surface $-1 -1 -1 $-1 1 0 0 -1 0 0 0 -0 1 forward_v I I I I #
coedge $-1 -1 -1 $-1 $142 $140 $144 $238 reversed $81 $-1 #
edge $335 -1 -1 $-1 $157 -1 $242 1 $155 $336 forward @7 unknown T -1 1 -1 -1 1 1 #
integer_attrib-name_attrib-gen-attrib $-1 -1 $337 $-1 $143 2 1 1 1 1 1 1 1 1 1 1 1 1 1 0 1 1 1 @8 CUBIT_ID 9 #
vertex $338 -1 -1 $-1 $238 $339 #
straight-curve $-1 -1 -1 $-1 -1 -1 0 0 0 -1 I I #
edge $340 -1 -1 $-1 $236 -1 $242 1 $233 $341 forward @7 unknown T -1 -1 -1 -1 1 -1 #
integer_attrib-name_attrib-gen-attrib $-1 -1 $342 $-1 $145 2 1 1 1 1 1 1 1 1 1 1 1 1 1 0 1 1 1 @8 CUBIT_ID 6 #
straight-curve $-1 -1 -1 $-1 0 -1 -1 -1 0 0 I I #
integer_attrib-name_attrib-gen-attrib $-1 -1 $343 $-1 $147 2 1 1 1 1 1 1 1 1 1 1 1 1 1 0 1 1 1 @8 CUBIT_ID 8 #
vertex $344 -1 -1 $-1 $147 $345 #
straight-curve $-1 -1 -1 $-1 0 1 -1 1 0 0 I I #
simple-snl-attrib $-1 -1 $-1 $148 $87 1 1 1 1 1 1 1 1 1 1 1 1 0 1 0 1 1 1 @17 NEW_SIMPLE_ATTRIB 1 @9 ENTITY_ID 0 3 5 -2147483648 -1 #
integer_attrib-name_attrib-gen-attrib $-1 -1 $346 $-1 $149 2 1 1 1 1 1 1 1 1 1 1 1 1 1 0 1 1 1 @8 CUBIT_ID 5 #
point $-1 -1 -1 $-1 1 1 -1 #
integer_attrib-name_attrib-gen-attrib $-1 -1 $347 $-1 $150 2 1 1 1 1 1 1 1 1 1 1 1 1 1 0 1 1 1 @8 CUBIT_ID 6 #
point $-1 -1 -1 $-1 1 -1 -1 #
integer_attrib-name_attrib-gen-attrib $-1 -1 $348 $-1 $153 2 1 1 1 1 1 1 1 1 1 1 1 1 1 0 1 1 1 @8 CUBIT_ID 3 #
straight-curve $-1 -1 -1 $-1 -1 0 1 0 -1 0 I I #
simple-snl-attrib $-1 -1 $-1 $156 $90 1 1 1 1 1 1 1 1 1 1 1 1 0 1 0 1 1 1 @17 NEW_SIMPLE_ATTRIB 1 @9 ENTITY_ID 0 3 2 -2147483648 -1 #
integer_attrib-name_attrib-gen-attrib $-1 -1 $349 $-1 $157 2 1 1 1 1 1 1 1 1 1 1 1 1 1 0 1 1 1 @8 CUBIT_ID 3 #
point $-1 -1 -1 $-1 -1 1 1 #
simple-snl-attrib $-1 -1 $-1 $160 $92 1 1 1 1 1 1 1 1 1 1 1 1 0 1 0 1 1 1 @17 NEW_SIMPLE_ATTRIB 1 @9 ENTITY_ID 0 3 4 -2147483648 -1 #
integer_attrib-name_attrib-gen-attrib $-1 -1 $350 $-1 $161 2 1 1 1 1 1 1 1 1 1 1 1 1 1 0 1 1 1 @8 CUBIT_ID 4 #
point $-1 -1 -1 $-1 -1 -1 1 #
integer_attrib-name_attrib-gen-attrib $-1 -1 $351 $-1 $163 2 1 1 1 1 1 1 1 1 1 1 1 1 1 0 1 1 1 @8 CUBIT_ID 10 #
straight-curve $-1 -1 -1 $-1 1 -1 0 0 0 -1 I I #
integer_attrib-name_attrib-gen-attrib $-1 -1 $352 $-1 $164 2 1 1 1 1 1 1 1 1 1 1 1 1 1 0 1 1 1 @8 CUBIT_ID 12 #
straight-curve $-1 -1 -1 $-1 1 1 0 0 0 -1 I I #
simple-snl-attrib $-1 -1 $-1 $166 $97 1 1 1 1 1 1 1 1 1 1 1 1 0 1 0 1 1 1 @17 NEW_SIMPLE_ATTRIB 1 @9 ENTITY_ID 0 3 1 -2147483648 -1 #
simple-snl-attrib $-1 -1 $-1 $168 $98 1 1 1 1 1 1 1 1 1 1 1 1 0 1 0 1 1 1 @17 NEW_SIMPLE_ATTRIB 1 @9 ENTITY_ID 0 3 2 -2147483648 -1 #
simple-snl-attrib $-1 -1 $-1 $171 $61 1 1 1 1 1 1 1 1 1 1 1 1 0 1 0 1 1 1 @17 NEW_SIMPLE_ATTRIB 3 @13 MESH_INTERVAL @4 LIMP @4 LIMP 2 1 0 5 1 0 0 1 1 #
simple-snl-attrib $-1 -1 $353 $172 $103 1 1 1 1 1 1 1 1 1 1 1 1 0 1 0 1 1 1 @17 NEW_SIMPLE_ATTRIB 1 @9 ENTITY_ID 0 3 28 -2147483648 -1 #
integer_attrib-name_attrib-gen-attrib $-1 -1 $354 $-1 $173 2 1 1 1 1 1 1 1 1 1 1 1 1 1 0 1 1 1 @8 CUBIT_ID 29 #
face $355 -1 -1 $-1 $-1 $188 $17 $-1 $356 forward single T 2.5 -2.5 -2.5 2.5 2.5 2.5 F #
loop $-1 -1 -1 $-1 $-1 $288 $173 T -2.5 2.5 -2.5 2.5 2.5 2.5 unknown #
plane-surface $-1 -1 -1 $-1 0 2.5 0 0 -1 0 0 0 -1 forward_v I I I I #
coedge $-1 -1 -1 $-1 $281 $357 $287 $358 reversed $174 $-1 #
coedge $-1 -1 -1 $-1 $176 $283 $178 $276 forward $104 $-1 #
coedge $-1 -1 -1 $-1 $357 $281 $176 $272 forward $174 $-1 #
edge $359 -1 -1 $-1 $285 -2.5 $360 2.5 $271 $361 forward @7 unknown T -2.5 -2.5 -2.5 -2.5 -2.5 2.5 #
coedge $-1 -1 -1 $-1 $178 $177 $357 $362 reversed $62 $-1 #
coedge $-1 -1 -1 $-1 $288 $287 $177 $275 forward $267 $-1 #
edge $363 -1 -1 $-1 $364 -2.5 $278 2.5 $274 $365 forward @7 unknown T -2.5 2.5 -2.5 2.5 2.5 -2.5 #
edge $366 -1 -1 $-1 $279 -2.5 $360 2.5 $270 $367 forward @7 unknown T -2.5 -2.5 -2.5 2.5 -2.5 -2.5 #
integer_attrib-name_attrib-gen-attrib $-1 -1 $368 $-1 $180 2 1 1 1 1 1 1 1 1 1 1 1 1 1 0 1 1 1 @8 CUBIT_ID 53 #
vertex $369 -1 -1 $-1 $180 $370 #
vertex $371 -1 -1 $-1 $293 $372 #
straight-curve $-1 -1 -1 $-1 2.5 0 -2.5 0 -1 0 I I #
coedge $-1 -1 -1 $-1 $271 $269 $181 $282 forward $174 $-1 #
edge $373 -1 -1 $-1 $290 -2.5 $285 2.5 $281 $374 forward @7 unknown T -2.5 -2.5 2.5 -2.5 2.5 2.5 #
coedge $-1 -1 -1 $-1 $270 $182 $187 $293 forward $104 $-1 #
integer_attrib-name_attrib-gen-attrib $-1 -1 $375 $-1 $183 2 1 1 1 1 1 1 1 1 1 1 1 1 1 0 1 1 1 @8 CUBIT_ID 50 #
vertex $376 -1 -1 $-1 $282 $377 #
straight-curve $-1 -1 -1 $-1 0 -2.5 2.5 1 0 0 I I #
coedge $-1 -1 -1 $-1 $274 $184 $269 $358 forward $267 $-1 #
coedge $-1 -1 -1 $-1 $184 $274 $186 $292 reversed $267 $-1 #
integer_attrib-name_attrib-gen-attrib $-1 -1 $378 $-1 $185 2 1 1 1 1 1 1 1 1 1 1 1 1 1 0 1 1 1 @8 CUBIT_ID 52 #
vertex $379 -1 -1 $-1 $185 $380 #
straight-curve $-1 -1 -1 $-1 0 2.5 2.5 -1 0 0 I I #
edge $381 -1 -1 $-1 $191 -2.5 $278 2.5 $186 $382 forward @7 unknown T 2.5 2.5 -2.5 2.5 2.5 2.5 #
edge $383 -1 -1 $-1 $190 -2.5 $279 2.5 $187 $384 forward @7 unknown T 2.5 -2.5 -2.5 2.5 -2.5 2.5 #
simple-snl-attrib $-1 -1 $-1 $189 $110 1 1 1 1 1 1 1 1 1 1 1 1 0 1 0 1 1 1 @17 NEW_SIMPLE_ATTRIB 1 @9 ENTITY_ID 0 3 49 -2147483648 -1 #
integer_attrib-name_attrib-gen-attrib $-1 -1 $385 $-1 $190 2 1 1 1 1 1 1 1 1 1 1 1 1 1 0 1 1 1 @8 CUBIT_ID 33 #
point $-1 -1 -1 $-1 2.5 -2.5 2.5 #
integer_attrib-name_attrib-gen-attrib $-1 -1 $386 $-1 $191 2 1 1 1 1 1 1 1 1 1 1 1 1 1 0 1 1 1 @8 CUBIT_ID 34 #
point $-1 -1 -1 $-1 2.5 2.5 2.5 #
simple-snl-attrib $-1 -1 $-1 $194 $68 1 1 1 1 1 1 1 1 1 1 1 1 0 1 0 1 1 1 @17 NEW_SIMPLE_ATTRIB 3 @13 MESH_INTERVAL @4 LIMP @4 LIMP 2 1 0 5 1 0 0 1 1 #
simple-snl-attrib $-1 -1 $387 $195 $114 1 1 1 1 1 1 1 1 1 1 1 1 0 1 0 1 1 1 @17 NEW_SIMPLE_ATTRIB 1 @9 ENTITY_ID 0 3 23 -2147483648 -1 #
integer_attrib-name_attrib-gen-attrib $-1 -1 $388 $-1 $196 2 1 1 1 1 1 1 1 1 1 1 1 1 1 0 1 1 1 @8 CUBIT_ID 24 #
plane-surface $-1 -1 -1 $-1 3 0 0 -1 0 0 0 -0 1 forward_v I I I I #
coedge $-1 -1 -1 $-1 $201 $199 $203 $308 reversed $115 $-1 #
edge $389 -1 -1 $-1 $216 -3 $312 3 $214 $390 forward @7 unknown T -3 3 -3 -3 3 3 #
integer_attrib-name_attrib-gen-attrib $-1 -1 $391 $-1 $202 2 1 1 1 1 1 1 1 1 1 1 1 1 1 0 1 1 1 @8 CUBIT_ID 45 #
vertex $392 -1 -1 $-1 $308 $393 #
straight-curve $-1 -1 -1 $-1 -3 -3 0 0 0 -1 I I #
edge $394 -1 -1 $-1 $306 -3 $312 3 $303 $395 forward @7 unknown T -3 -3 -3 -3 3 -3 #
integer_attrib-name_attrib-gen-attrib $-1 -1 $396 $-1 $204 2 1 1 1 1 1 1 1 1 1 1 1 1 1 0 1 1 1 @8 CUBIT_ID 42 #
straight-curve $-1 -1 -1 $-1 0 -3 -3 -1 0 0 I I #
integer_attrib-name_attrib-gen-attrib $-1 -1 $397 $-1 $206 2 1 1 1 1 1 1 1 1 1 1 1 1 1 0 1 1 1 @8 CUBIT_ID 44 #
vertex $398 -1 -1 $-1 $206 $399 #
straight-curve $-1 -1 -1 $-1 0 3 -3 1 0 0 I I #
simple-snl-attrib $-1 -1 $-1 $207 $121 1 1 1 1 1 1 1 1 1 1 1 1 0 1 0 1 1 1 @17 NEW_SIMPLE_ATTRIB 1 @9 ENTITY_ID 0 3 41 -2147483648 -1 #
integer_attrib-name_attrib-gen-attrib $-1 -1 $400 $-1 $208 2 1 1 1 1 1 1 1 1 1 1 1 1 1 0 1 1 1 @8 CUBIT_ID 29 #
point $-1 -1 -1 $-1 3 3 -3 #
integer_attrib-name_attrib-gen-attrib $-1 -1 $401 $-1 $209 2 1 1 1 1 1 1 1 1 1 1 1 1 1 0 1 1 1 @8 CUBIT_ID 30 #
point $-1 -1 -1 $-1 3 -3 -3 #
integer_attrib-name_attrib-gen-attrib $-1 -1 $402 $-1 $212 2 1 1 1 1 1 1 1 1 1 1 1 1 1 0 1 1 1 @8 CUBIT_ID 39 #
straight-curve $-1 -1 -1 $-1 -3 0 3 0 -1 0 I I #
simple-snl-attrib $-1 -1 $-1 $215 $124 1 1 1 1 1 1 1 1 1 1 1 1 0 1 0 1 1 1 @17 NEW_SIMPLE_ATTRIB 1 @9 ENTITY_ID 0 3 38 -2147483648 -1 #
integer_attrib-name_attrib-gen-attrib $-1 -1 $403 $-1 $216 2 1 1 1 1 1 1 1 1 1 1 1 1 1 0 1 1 1 @8 CUBIT_ID 27 #
point $-1 -1 -1 $-1 -3 3 3 #
simple-snl-attrib $-1 -1 $-1 $219 $126 1 1 1 1 1 1 1 1 1 1 1 1 0 1 0 1 1 1 @17 NEW_SIMPLE_ATTRIB 1 @9 ENTITY_ID 0 3 40 -2147483648 -1 #
integer_attrib-name_attrib-gen-attrib $-1 -1 $404 $-1 $220 2 1 1 1 1 1 1 1 1 1 1 1 1 1 0 1 1 1 @8 CUBIT_ID 28 #
point $-1 -1 -1 $-1 -3 -3 3 #
integer_attrib-name_attrib-gen-attrib $-1 -1 $405 $-1 $222 2 1 1 1 1 1 1 1 1 1 1 1 1 1 0 1 1 1 @8 CUBIT_ID 46 #
straight-curve $-1 -1 -1 $-1 3 -3 0 0 0 -1 I I #
integer_attrib-name_attrib-gen-attrib $-1 -1 $406 $-1 $223 2 1 1 1 1 1 1 1 1 1 1 1 1 1 0 1 1 1 @8 CUBIT_ID 48 #
straight-curve $-1 -1 -1 $-1 3 3 0 0 0 -1 I I #
simple-snl-attrib $-1 -1 $-1 $225 $131 1 1 1 1 1 1 1 1 1 1 1 1 0 1 0 1 1 1 @17 NEW_SIMPLE_ATTRIB 1 @9 ENTITY_ID 0 3 25 -2147483648 -1 #
simple-snl-attrib $-1 -1 $-1 $227 $132 1 1 1 1 1 1 1 1 1 1 1 1 0 1 0 1 1 1 @17 NEW_SIMPLE_ATTRIB 1 @9 ENTITY_ID 0 3 26 -2147483648 -1 #
simple-snl-attrib $-1 -1 $-1 $230 $80 1 1 1 1 1 1 1 1 1 1 1 1 0 1 0 1 1 1 @17 NEW_SIMPLE_ATTRIB 3 @13 MESH_INTERVAL @4 LIMP @4 LIMP 2 1 0 5 1 0 0 1 1 #
simple-snl-attrib $-1 -1 $407 $231 $137 1 1 1 1 1 1 1 1 1 1 1 1 0 1 0 1 1 1 @17 NEW_SIMPLE_ATTRIB 1 @9 ENTITY_ID 0 3 6 -2147483648 -1 #
integer_attrib-name_attrib-gen-attrib $-1 -1 $408 $-1 $234 2 1 1 1 1 1 1 1 1 1 1 1 1 1 0 1 1 1 @8 CUBIT_ID 11 #
straight-curve $-1 -1 -1 $-1 -1 1 0 0 0 -1 I I #
simple-snl-attrib $-1 -1 $-1 $235 $143 1 1 1 1 1 1 1 1 1 1 1 1 0 1 0 1 1 1 @17 NEW_SIMPLE_ATTRIB 1 @9 ENTITY_ID 0 3 9 -2147483648 -1 #
integer_attrib-name_attrib-gen-attrib $-1 -1 $409 $-1 $236 2 1 1 1 1 1 1 1 1 1 1 1 1 1 0 1 1 1 @8 CUBIT_ID 7 #
point $-1 -1 -1 $-1 -1 -1 -1 #
integer_attrib-name_attrib-gen-attrib $-1 -1 $410 $-1 $238 2 1 1 1 1 1 1 1 1 1 1 1 1 1 0 1 1 1 @8 CUBIT_ID 7 #
straight-curve $-1 -1 -1 $-1 -1 0 -1 0 1 0 I I #
simple-snl-attrib $-1 -1 $-1 $239 $145 1 1 1 1 1 1 1 1 1 1 1 1 0 1 0 1 1 1 @17 NEW_SIMPLE_ATTRIB 1 @9 ENTITY_ID 0 3 6 -2147483648 -1 #
simple-snl-attrib $-1 -1 $-1 $241 $147 1 1 1 1 1 1 1 1 1 1 1 1 0 1 0 1 1 1 @17 NEW_SIMPLE_ATTRIB 1 @9 ENTITY_ID 0 3 8 -2147483648 -1 #
integer_attrib-name_attrib-gen-attrib $-1 -1 $411 $-1 $242 2 1 1 1 1 1 1 1 1 1 1 1 1 1 0 1 1 1 @8 CUBIT_ID 8 #
point $-1 -1 -1 $-1 -1 1 -1 #
simple-snl-attrib $-1 -1 $-1 $245 $149 1 1 1 1 1 1 1 1 1 1 1 1 0 1 0 1 1 1 @17 NEW_SIMPLE_ATTRIB 1 @9 ENTITY_ID 0 3 5 -2147483648 -1 #
simple-snl-attrib $-1 -1 $-1 $247 $150 1 1 1 1 1 1 1 1 1 1 1 1 0 1 0 1 1 1 @17 NEW_SIMPLE_ATTRIB 1 @9 ENTITY_ID 0 3 6 -2147483648 -1 #
simple-snl-attrib $-1 -1 $-1 $249 $153 1 1 1 1 1 1 1 1 1 1 1 1 0 1 0 1 1 1 @17 NEW_SIMPLE_ATTRIB 1 @9 ENTITY_ID 0 3 3 -2147483648 -1 #
simple-snl-attrib $-1 -1 $-1 $252 $157 1 1 1 1 1 1 1 1 1 1 1 1 0 1 0 1 1 1 @17 NEW_SIMPLE_ATTRIB 1 @9 ENTITY_ID 0 3 3 -2147483648 -1 #
simple-snl-attrib $-1 -1 $-1 $255 $161 1 1 1 1 1 1 1 1 1 1 1 1 0 1 0 1 1 1 @17 NEW_SIMPLE_ATTRIB 1 @9 ENTITY_ID 0 3 4 -2147483648 -1 #
simple-snl-attrib $-1 -1 $-1 $257 $163 1 1 1 1 1 1 1 1 1 1 1 1 0 1 0 1 1 1 @17 NEW_SIMPLE_ATTRIB 1 @9 ENTITY_ID 0 3 10 -2147483648 -1 #
simple-snl-attrib $-1 -1 $-1 $259 $164 1 1 1 1 1 1 1 1 1 1 1 1 0 1 0 1 1 1 @17 NEW_SIMPLE_ATTRIB 1 @9 ENTITY_ID 0 3 12 -2147483648 -1 #
simple-snl-attrib $-1 -1 $-1 $264 $103 1 1 1 1 1 1 1 1 1 1 1 1 0 1 0 1 1 1 @17 NEW_SIMPLE_ATTRIB 3 @13 MESH_INTERVAL @4 LIMP @4 LIMP 2 1 0 5 1 0 0 1 1 #
simple-snl-attrib $-1 -1 $412 $265 $173 1 1 1 1 1 1 1 1 1 1 1 1 0 1 0 1 1 1 @17 NEW_SIMPLE_ATTRIB 1 @9 ENTITY_ID 0 3 29 -2147483648 -1 #
integer_attrib-name_attrib-gen-attrib $-1 -1 $413 $-1 $266 2 1 1 1 1 1 1 1 1 1 1 1 1 1 0 1 1 1 @8 CUBIT_ID 30 #
plane-surface $-1 -1 -1 $-1 2.5 0 0 -1 0 0 0 -0 1 forward_v I I I I #
coedge $-1 -1 -1 $-1 $269 $271 $273 $362 forward $174 $-1 #
edge $414 -1 -1 $-1 $290 -2.5 $364 2.5 $287 $415 forward @7 unknown T -2.5 2.5 -2.5 -2.5 2.5 2.5 #
integer_attrib-name_attrib-gen-attrib $-1 -1 $416 $-1 $272 2 1 1 1 1 1 1 1 1 1 1 1 1 1 0 1 1 1 @8 CUBIT_ID 57 #
vertex $417 -1 -1 $-1 $362 $418 #
straight-curve $-1 -1 -1 $-1 -2.5 -2.5 0 0 0 -1 I I #
edge $419 -1 -1 $-1 $360 -2.5 $364 2.5 $357 $420 forward @7 unknown T -2.5 -2.5 -2.5 -2.5 2.5 -2.5 #
integer_attrib-name_attrib-gen-attrib $-1 -1 $421 $-1 $275 2 1 1 1 1 1 1 1 1 1 1 1 1 1 0 1 1 1 @8 CUBIT_ID 54 #
vertex $422 -1 -1 $-1 $275 $423 #
straight-curve $-1 -1 -1 $-1 0 2.5 -2.5 1 0 0 I I #
integer_attrib-name_attrib-gen-attrib $-1 -1 $424 $-1 $276 2 1 1 1 1 1 1 1 1 1 1 1 1 1 0 1 1 1 @8 CUBIT_ID 56 #
straight-curve $-1 -1 -1 $-1 0 -2.5 -2.5 -1 0 0 I I #
simple-snl-attrib $-1 -1 $-1 $277 $180 1 1 1 1 1 1 1 1 1 1 1 1 0 1 0 1 1 1 @17 NEW_SIMPLE_ATTRIB 1 @9 ENTITY_ID 0 3 53 -2147483648 -1 #
integer_attrib-name_attrib-gen-attrib $-1 -1 $425 $-1 $278 2 1 1 1 1 1 1 1 1 1 1 1 1 1 0 1 1 1 @8 CUBIT_ID 37 #
point $-1 -1 -1 $-1 2.5 2.5 -2.5 #
integer_attrib-name_attrib-gen-attrib $-1 -1 $426 $-1 $279 2 1 1 1 1 1 1 1 1 1 1 1 1 1 0 1 1 1 @8 CUBIT_ID 38 #
point $-1 -1 -1 $-1 2.5 -2.5 -2.5 #
integer_attrib-name_attrib-gen-attrib $-1 -1 $427 $-1 $282 2 1 1 1 1 1 1 1 1 1 1 1 1 1 0 1 1 1 @8 CUBIT_ID 51 #
straight-curve $-1 -1 -1 $-1 -2.5 0 2.5 0 -1 0 I I #
simple-snl-attrib $-1 -1 $-1 $284 $183 1 1 1 1 1 1 1 1 1 1 1 1 0 1 0 1 1 1 @17 NEW_SIMPLE_ATTRIB 1 @9 ENTITY_ID 0 3 50 -2147483648 -1 #
integer_attrib-name_attrib-gen-attrib $-1 -1 $428 $-1 $285 2 1 1 1 1 1 1 1 1 1 1 1 1 1 0 1 1 1 @8 CUBIT_ID 35 #
point $-1 -1 -1 $-1 -2.5 -2.5 2.5 #
simple-snl-attrib $-1 -1 $-1 $289 $185 1 1 1 1 1 1 1 1 1 1 1 1 0 1 0 1 1 1 @17 NEW_SIMPLE_ATTRIB 1 @9 ENTITY_ID 0 3 52 -2147483648 -1 #
integer_attrib-name_attrib-gen-attrib $-1 -1 $429 $-1 $290 2 1 1 1 1 1 1 1 1 1 1 1 1 1 0 1 1 1 @8 CUBIT_ID 36 #
point $-1 -1 -1 $-1 -2.5 2.5 2.5 #
integer_attrib-name_attrib-gen-attrib $-1 -1 $430 $-1 $292 2 1 1 1 1 1 1 1 1 1 1 1 1 1 0 1 1 1 @8 CUBIT_ID 60 #
straight-curve $-1 -1 -1 $-1 2.5 2.5 0 0 0 -1 I I #
integer_attrib-name_attrib-gen-attrib $-1 -1 $431 $-1 $293 2 1 1 1 1 1 1 1 1 1 1 1 1 1 0 1 1 1 @8 CUBIT_ID 58 #
straight-curve $-1 -1 -1 $-1 2.5 -2.5 0 0 0 -1 I I #
simple-snl-attrib $-1 -1 $-1 $295 $190 1 1 1 1 1 1 1 1 1 1 1 1 0 1 0 1 1 1 @17 NEW_SIMPLE_ATTRIB 1 @9 ENTITY_ID 0 3 33 -2147483648 -1 #
simple-snl-attrib $-1 -1 $-1 $297 $191 1 1 1 1 1 1 1 1 1 1 1 1 0 1 0 1 1 1 @17 NEW_SIMPLE_ATTRIB 1 @9 ENTITY_ID 0 3 34 -2147483648 -1 #
simple-snl-attrib $-1 -1 $-1 $300 $114 1 1 1 1 1 1 1 1 1 1 1 1 0 1 0 1 1 1 @17 NEW_SIMPLE_ATTRIB 3 @13 MESH_INTERVAL @4 LIMP @4 LIMP 2 1 0 5 1 0 0 1 1 #
simple-snl-attrib $-1 -1 $432 $301 $196 1 1 1 1 1 1 1 1 1 1 1 1 0 1 0 1 1 1 @17 NEW_SIMPLE_ATTRIB 1 @9 ENTITY_ID 0 3 24 -2147483648 -1 #
integer_attrib-name_attrib-gen-attrib $-1 -1 $433 $-1 $304 2 1 1 1 1 1 1 1 1 1 1 1 1 1 0 1 1 1 @8 CUBIT_ID 47 #
straight-curve $-1 -1 -1 $-1 -3 3 0 0 0 -1 I I #
simple-snl-attrib $-1 -1 $-1 $305 $202 1 1 1 1 1 1 1 1 1 1 1 1 0 1 0 1 1 1 @17 NEW_SIMPLE_ATTRIB 1 @9 ENTITY_ID 0 3 45 -2147483648 -1 #
integer_attrib-name_attrib-gen-attrib $-1 -1 $434 $-1 $306 2 1 1 1 1 1 1 1 1 1 1 1 1 1 0 1 1 1 @8 CUBIT_ID 31 #
point $-1 -1 -1 $-1 -3 -3 -3 #
integer_attrib-name_attrib-gen-attrib $-1 -1 $435 $-1 $308 2 1 1 1 1 1 1 1 1 1 1 1 1 1 0 1 1 1 @8 CUBIT_ID 43 #
straight-curve $-1 -1 -1 $-1 -3 0 -3 0 1 0 I I #
simple-snl-attrib $-1 -1 $-1 $309 $204 1 1 1 1 1 1 1 1 1 1 1 1 0 1 0 1 1 1 @17 NEW_SIMPLE_ATTRIB 1 @9 ENTITY_ID 0 3 42 -2147483648 -1 #
simple-snl-attrib $-1 -1 $-1 $311 $206 1 1 1 1 1 1 1 1 1 1 1 1 0 1 0 1 1 1 @17 NEW_SIMPLE_ATTRIB 1 @9 ENTITY_ID 0 3 44 -2147483648 -1 #
integer_attrib-name_attrib-gen-attrib $-1 -1 $436 $-1 $312 2 1 1 1 1 1 1 1 1 1 1 1 1 1 0 1 1 1 @8 CUBIT_ID 32 #
point $-1 -1 -1 $-1 -3 3 -3 #
simple-snl-attrib $-1 -1 $-1 $315 $208 1 1 1 1 1 1 1 1 1 1 1 1 0 1 0 1 1 1 @17 NEW_SIMPLE_ATTRIB 1 @9 ENTITY_ID 0 3 29 -2147483648 -1 #
simple-snl-attrib $-1 -1 $-1 $317 $209 1 1 1 1 1 1 1 1 1 1 1 1 0 1 0 1 1 1 @17 NEW_SIMPLE_ATTRIB 1 @9 ENTITY_ID 0 3 30 -2147483648 -1 #
simple-snl-attrib $-1 -1 $-1 $319 $212 1 1 1 1 1 1 1 1 1 1 1 1 0 1 0 1 1 1 @17 NEW_SIMPLE_ATTRIB 1 @9 ENTITY_ID 0 3 39 -2147483648 -1 #
simple-snl-attrib $-1 -1 $-1 $322 $216 1 1 1 1 1 1 1 1 1 1 1 1 0 1 0 1 1 1 @17 NEW_SIMPLE_ATTRIB 1 @9 ENTITY_ID 0 3 27 -2147483648 -1 #
simple-snl-attrib $-1 -1 $-1 $325 $220 1 1 1 1 1 1 1 1 1 1 1 1 0 1 0 1 1 1 @17 NEW_SIMPLE_ATTRIB 1 @9 ENTITY_ID 0 3 28 -2147483648 -1 #
simple-snl-attrib $-1 -1 $-1 $327 $222 1 1 1 1 1 1 1 1 1 1 1 1 0 1 0 1 1 1 @17 NEW_SIMPLE_ATTRIB 1 @9 ENTITY_ID 0 3 46 -2147483648 -1 #
simple-snl-attrib $-1 -1 $-1 $329 $223 1 1 1 1 1 1 1 1 1 1 1 1 0 1 0 1 1 1 @17 NEW_SIMPLE_ATTRIB 1 @9 ENTITY_ID 0 3 48 -2147483648 -1 #
simple-snl-attrib $-1 -1 $-1 $334 $137 1 1 1 1 1 1 1 1 1 1 1 1 0 1 0 1 1 1 @17 NEW_SIMPLE_ATTRIB 3 @13 MESH_INTERVAL @4 LIMP @4 LIMP 2 1 0 5 1 0 0 1 1 #
simple-snl-attrib $-1 -1 $-1 $335 $234 1 1 1 1 1 1 1 1 1 1 1 1 0 1 0 1 1 1 @17 NEW_SIMPLE_ATTRIB 1 @9 ENTITY_ID 0 3 11 -2147483648 -1 #
simple-snl-attrib $-1 -1 $-1 $338 $236 1 1 1 1 1 1 1 1 1 1 1 1 0 1 0 1 1 1 @17 NEW_SIMPLE_ATTRIB 1 @9 ENTITY_ID 0 3 7 -2147483648 -1 #
simple-snl-attrib $-1 -1 $-1 $340 $238 1 1 1 1 1 1 1 1 1 1 1 1 0 1 0 1 1 1 @17 NEW_SIMPLE_ATTRIB 1 @9 ENTITY_ID 0 3 7 -2147483648 -1 #
simple-snl-attrib $-1 -1 $-1 $344 $242 1 1 1 1 1 1 1 1 1 1 1 1 0 1 0 1 1 1 @17 NEW_SIMPLE_ATTRIB 1 @9 ENTITY_ID 0 3 8 -2147483648 -1 #
simple-snl-attrib $-1 -1 $-1 $354 $173 1 1 1 1 1 1 1 1 1 1 1 1 0 1 0 1 1 1 @17 NEW_SIMPLE_ATTRIB 3 @13 MESH_INTERVAL @4 LIMP @4 LIMP 2 1 0 5 1 0 0 1 1 #
simple-snl-attrib $-1 -1 $437 $355 $266 1 1 1 1 1 1 1 1 1 1 1 1 0 1 0 1 1 1 @17 NEW_SIMPLE_ATTRIB 1 @9 ENTITY_ID 0 3 30 -2147483648 -1 #
integer_attrib-name_attrib-gen-attrib $-1 -1 $438 $-1 $358 2 1 1 1 1 1 1 1 1 1 1 1 1 1 0 1 1 1 @8 CUBIT_ID 59 #
straight-curve $-1 -1 -1 $-1 -2.5 2.5 0 0 0 -1 I I #
simple-snl-attrib $-1 -1 $-1 $359 $272 1 1 1 1 1 1 1 1 1 1 1 1 0 1 0 1 1 1 @17 NEW_SIMPLE_ATTRIB 1 @9 ENTITY_ID 0 3 57 -2147483648 -1 #
integer_attrib-name_attrib-gen-attrib $-1 -1 $439 $-1 $360 2 1 1 1 1 1 1 1 1 1 1 1 1 1 0 1 1 1 @8 CUBIT_ID 40 #
point $-1 -1 -1 $-1 -2.5 -2.5 -2.5 #
integer_attrib-name_attrib-gen-attrib $-1 -1 $440 $-1 $362 2 1 1 1 1 1 1 1 1 1 1 1 1 1 0 1 1 1 @8 CUBIT_ID 55 #
straight-curve $-1 -1 -1 $-1 -2.5 0 -2.5 0 1 0 I I #
simple-snl-attrib $-1 -1 $-1 $363 $275 1 1 1 1 1 1 1 1 1 1 1 1 0 1 0 1 1 1 @17 NEW_SIMPLE_ATTRIB 1 @9 ENTITY_ID 0 3 54 -2147483648 -1 #
integer_attrib-name_attrib-gen-attrib $-1 -1 $441 $-1 $364 2 1 1 1 1 1 1 1 1 1 1 1 1 1 0 1 1 1 @8 CUBIT_ID 39 #
point $-1 -1 -1 $-1 -2.5 2.5 -2.5 #
simple-snl-attrib $-1 -1 $-1 $366 $276 1 1 1 1 1 1 1 1 1 1 1 1 0 1 0 1 1 1 @17 NEW_SIMPLE_ATTRIB 1 @9 ENTITY_ID 0 3 56 -2147483648 -1 #
simple-snl-attrib $-1 -1 $-1 $369 $278 1 1 1 1 1 1 1 1 1 1 1 1 0 1 0 1 1 1 @17 NEW_SIMPLE_ATTRIB 1 @9 ENTITY_ID 0 3 37 -2147483648 -1 #
simple-snl-attrib $-1 -1 $-1 $371 $279 1 1 1 1 1 1 1 1 1 1 1 1 0 1 0 1 1 1 @17 NEW_SIMPLE_ATTRIB 1 @9 ENTITY_ID 0 3 38 -2147483648 -1 #
simple-snl-attrib $-1 -1 $-1 $373 $282 1 1 1 1 1 1 1 1 1 1 1 1 0 1 0 1 1 1 @17 NEW_SIMPLE_ATTRIB 1 @9 ENTITY_ID 0 3 51 -2147483648 -1 #
simple-snl-attrib $-1 -1 $-1 $376 $285 1 1 1 1 1 1 1 1 1 1 1 1 0 1 0 1 1 1 @17 NEW_SIMPLE_ATTRIB 1 @9 ENTITY_ID 0 3 35 -2147483648 -1 #
simple-snl-attrib $-1 -1 $-1 $379 $290 1 1 1 1 1 1 1 1 1 1 1 1 0 1 0 1 1 1 @17 NEW_SIMPLE_ATTRIB 1 @9 ENTITY_ID 0 3 36 -2147483648 -1 #
simple-snl-attrib $-1 -1 $-1 $381 $292 1 1 1 1 1 1 1 1 1 1 1 1 0 1 0 1 1 1 @17 NEW_SIMPLE_ATTRIB 1 @9 ENTITY_ID 0 3 60 -2147483648 -1 #
simple-snl-attrib $-1 -1 $-1 $383 $293 1 1 1 1 1 1 1 1 1 1 1 1 0 1 0 1 1 1 @17 NEW_SIMPLE_ATTRIB 1 @9 ENTITY_ID 0 3 58 -2147483648 -1 #
simple-snl-attrib $-1 -1 $-1 $388 $196 1 1 1 1 1 1 1 1 1 1 1 1 0 1 0 1 1 1 @17 NEW_SIMPLE_ATTRIB 3 @13 MESH_INTERVAL @4 LIMP @4 LIMP 2 1 0 5 1 0 0 1 1 #
simple-snl-attrib $-1 -1 $-1 $389 $304 1 1 1 1 1 1 1 1 1 1 1 1 0 1 0 1 1 1 @17 NEW_SIMPLE_ATTRIB 1 @9 ENTITY_ID 0 3 47 -2147483648 -1 #
simple-snl-attrib $-1 -1 $-1 $392 $306 1 1 1 1 1 1 1 1 1 1 1 1 0 1 0 1 1 1 @17 NEW_SIMPLE_ATTRIB 1 @9 ENTITY_ID 0 3 31 -2147483648 -1 #
simple-snl-attrib $-1 -1 $-1 $394 $308 1 1 1 1 1 1 1 1 1 1 1 1 0 1 0 1 1 1 @17 NEW_SIMPLE_ATTRIB 1 @9 ENTITY_ID 0 3 43 -2147483648 -1 #
simple-snl-attrib $-1 -1 $-1 $398 $312 1 1 1 1 1 1 1 1 1 1 1 1 0 1 0 1 1 1 @17 NEW_SIMPLE_ATTRIB 1 @9 ENTITY_ID 0 3 32 -2147483648 -1 #
simple-snl-attrib $-1 -1 $-1 $413 $266 1 1 1 1 1 1 1 1 1 1 1 1 0 1 0 1 1 1 @17 NEW_SIMPLE_ATTRIB 3 @13 MESH_INTERVAL @4 LIMP @4 LIMP 2 1 0 5 1 0 0 1 1 #
simple-snl-attrib $-1 -1 $-1 $414 $358 1 1 1 1 1 1 1 1 1 1 1 1 0 1 0 1 1 1 @17 NEW_SIMPLE_ATTRIB 1 @9 ENTITY_ID 0 3 59 -2147483648 -1 #
simple-snl-attrib $-1 -1 $-1 $417 $360 1 1 1 1 1 1 1 1 1 1 1 1 0 1 0 1 1 1 @17 NEW_SIMPLE_ATTRIB 1 @9 ENTITY_ID 0 3 40 -2147483648 -1 #
simple-snl-attrib $-1 -1 $-1 $419 $362 1 1 1 1 1 1 1 1 1 1 1 1 0 1 0 1 1 1 @17 NEW_SIMPLE_ATTRIB 1 @9 ENTITY_ID 0 3 55 -2147483648 -1 #
simple-snl-attrib $-1 -1 $-1 $422 $364 1 1 1 1 1 1 1 1 1 1 1 1 0 1 0 1 1 1 @17 NEW_SIMPLE_ATTRIB 1 @9 ENTITY_ID 0 3 39 -2147483648 -1 #
End-of-ACIS-data 