1600 0 7 0           
14 Cubit  (iGeom) 17 ACIS 16.0.7 Linux 24 Tue Feb 22 12:35:36 2011 
1 9.9999999999999995e-07 1e-10 
body $7 -1 -1 $-1 $8 $-1 $-1 F #
body $9 -1 -1 $-1 $10 $-1 $-1 T -5 -5 -5 5 5 5 #
body $11 -1 -1 $-1 $12 $-1 $-1 T -7 -7 -7 7 6.7283928571428602 7 #
body $13 -1 -1 $-1 $14 $-1 $-1 T -10 -10 -10 10 10 10 #
body $15 -1 -1 $-1 $16 $-1 $-1 T -12 -12 -12 12 12 12 #
body $17 -1 -1 $-1 $18 $-1 $-1 T -1.95 5.0499999999999998 -1.95 1.95 8.9499999999999993 1.95 #
body $19 -1 -1 $-1 $20 $-1 $-1 T -0.29999999999999999 6.7000000000000002 -0.29999999999999999 0.29999999999999999 7.2999999999999998 0.29999999999999999 #
simple-snl-attrib $-1 -1 $21 $-1 $0 1 1 1 1 1 1 1 1 1 1 1 1 0 1 0 1 1 1 @17 NEW_SIMPLE_ATTRIB 1 @9 ENTITY_ID 0 3 4 -2147483648 -1 #
lump $22 -1 -1 $-1 $-1 $23 $0 F #
simple-snl-attrib $-1 -1 $24 $-1 $1 1 1 1 1 1 1 1 1 1 1 1 1 0 1 0 1 1 1 @17 NEW_SIMPLE_ATTRIB 1 @9 ENTITY_ID 0 3 46 -2147483648 -1 #
lump $25 -1 -1 $-1 $-1 $26 $1 T -5 -5 -5 5 5 5 #
simple-snl-attrib $-1 -1 $27 $-1 $2 1 1 1 1 1 1 1 1 1 1 1 1 0 1 0 1 1 1 @17 NEW_SIMPLE_ATTRIB 1 @9 ENTITY_ID 0 3 49 -2147483648 -1 #
lump $28 -1 -1 $-1 $-1 $29 $2 T -7 -7 -7 7 6.7283928571428602 7 #
simple-snl-attrib $-1 -1 $30 $-1 $3 1 1 1 1 1 1 1 1 1 1 1 1 0 1 0 1 1 1 @17 NEW_SIMPLE_ATTRIB 1 @9 ENTITY_ID 0 3 52 -2147483648 -1 #
lump $31 -1 -1 $-1 $-1 $32 $3 T -10 -10 -10 10 10 10 #
simple-snl-attrib $-1 -1 $33 $-1 $4 1 1 1 1 1 1 1 1 1 1 1 1 0 1 0 1 1 1 @17 NEW_SIMPLE_ATTRIB 1 @9 ENTITY_ID 0 3 55 -2147483648 -1 #
lump $34 -1 -1 $-1 $-1 $35 $4 T -12 -12 -12 12 12 12 #
simple-snl-attrib $-1 -1 $36 $-1 $5 1 1 1 1 1 1 1 1 1 1 1 1 0 1 0 1 1 1 @17 NEW_SIMPLE_ATTRIB 1 @9 ENTITY_ID 0 3 58 -2147483648 -1 #
lump $37 -1 -1 $-1 $-1 $38 $5 T -1.95 5.0499999999999998 -1.95 1.95 8.9499999999999993 1.95 #
simple-snl-attrib $-1 -1 $39 $-1 $6 1 1 1 1 1 1 1 1 1 1 1 1 0 1 0 1 1 1 @17 NEW_SIMPLE_ATTRIB 1 @9 ENTITY_ID 0 3 61 -2147483648 -1 #
lump $40 -1 -1 $-1 $-1 $41 $6 T -0.29999999999999999 6.7000000000000002 -0.29999999999999999 0.29999999999999999 7.2999999999999998 0.29999999999999999 #
simple-snl-attrib $-1 -1 $-1 $7 $0 1 1 1 1 1 1 1 1 1 1 1 1 0 1 0 1 1 1 @17 NEW_SIMPLE_ATTRIB 2 @5 GROUP @9 graveyard 0 7 1 1 1826260154 0 0 0 0 #
simple-snl-attrib $-1 -1 $-1 $-1 $8 1 1 1 1 1 1 1 1 1 1 1 1 0 1 0 1 1 1 @17 NEW_SIMPLE_ATTRIB 1 @9 ENTITY_ID 0 3 1 -2147483648 -1 #
shell $-1 -1 -1 $-1 $42 $-1 $43 $-1 $8 T -12.24 -12.24 -12.24 12.24 12.24 12.24 #
simple-snl-attrib $-1 -1 $44 $9 $1 1 1 1 1 1 1 1 1 1 1 1 1 0 1 0 1 1 1 @17 NEW_SIMPLE_ATTRIB 2 @5 GROUP @15 mat_1_rho_-2.45 0 7 1 2 1099499804 0 0 0 0 #
simple-snl-attrib $-1 -1 $-1 $-1 $10 1 1 1 1 1 1 1 1 1 1 1 1 0 1 0 1 1 1 @17 NEW_SIMPLE_ATTRIB 1 @9 ENTITY_ID 0 3 2 -2147483648 -1 #
shell $-1 -1 -1 $-1 $-1 $-1 $45 $-1 $10 T -5 -5 -5 5 5 5 #
simple-snl-attrib $-1 -1 $46 $11 $2 1 1 1 1 1 1 1 1 1 1 1 1 0 1 0 1 1 1 @17 NEW_SIMPLE_ATTRIB 2 @5 GROUP @14 mat_2_rho_-2.7 0 7 1 3 1187613238 0 0 0 0 #
simple-snl-attrib $-1 -1 $-1 $-1 $12 1 1 1 1 1 1 1 1 1 1 1 1 0 1 0 1 1 1 @17 NEW_SIMPLE_ATTRIB 1 @9 ENTITY_ID 0 3 3 -2147483648 -1 #
shell $-1 -1 -1 $-1 $47 $-1 $48 $-1 $12 T -7 -7 -7 7 6.7283928571428602 7 #
simple-snl-attrib $-1 -1 $49 $13 $3 1 1 1 1 1 1 1 1 1 1 1 1 0 1 0 1 1 1 @17 NEW_SIMPLE_ATTRIB 2 @5 GROUP @14 mat_2_rho_-2.7 0 7 1 3 1187613238 1 0 0 0 #
simple-snl-attrib $-1 -1 $-1 $-1 $14 1 1 1 1 1 1 1 1 1 1 1 1 0 1 0 1 1 1 @17 NEW_SIMPLE_ATTRIB 1 @9 ENTITY_ID 0 3 4 -2147483648 -1 #
shell $-1 -1 -1 $-1 $50 $-1 $51 $-1 $14 T -10 -10 -10 10 10 10 #
simple-snl-attrib $-1 -1 $-1 $15 $4 1 1 1 1 1 1 1 1 1 1 1 1 0 1 0 1 1 1 @17 NEW_SIMPLE_ATTRIB 2 @11 ENTITY_NAME @9 MCNP_ID_4 0 0 #
simple-snl-attrib $-1 -1 $-1 $-1 $16 1 1 1 1 1 1 1 1 1 1 1 1 0 1 0 1 1 1 @17 NEW_SIMPLE_ATTRIB 1 @9 ENTITY_ID 0 3 5 -2147483648 -1 #
shell $-1 -1 -1 $-1 $52 $-1 $53 $-1 $16 T -12 -12 -12 12 12 12 #
simple-snl-attrib $-1 -1 $54 $17 $5 1 1 1 1 1 1 1 1 1 1 1 1 0 1 0 1 1 1 @17 NEW_SIMPLE_ATTRIB 2 @5 GROUP @14 mat_2_rho_-2.7 0 7 1 3 1187613238 2 0 0 0 #
simple-snl-attrib $-1 -1 $-1 $-1 $18 1 1 1 1 1 1 1 1 1 1 1 1 0 1 0 1 1 1 @17 NEW_SIMPLE_ATTRIB 1 @9 ENTITY_ID 0 3 6 -2147483648 -1 #
shell $-1 -1 -1 $-1 $55 $-1 $56 $-1 $18 T -1.95 5.0499999999999998 -1.95 1.95 8.9499999999999993 1.95 #
simple-snl-attrib $-1 -1 $57 $19 $6 1 1 1 1 1 1 1 1 1 1 1 1 0 1 0 1 1 1 @17 NEW_SIMPLE_ATTRIB 2 @5 GROUP @14 mat_2_rho_-2.7 0 7 1 3 1187613238 3 0 0 0 #
simple-snl-attrib $-1 -1 $-1 $-1 $20 1 1 1 1 1 1 1 1 1 1 1 1 0 1 0 1 1 1 @17 NEW_SIMPLE_ATTRIB 1 @9 ENTITY_ID 0 3 7 -2147483648 -1 #
shell $-1 -1 -1 $-1 $-1 $-1 $58 $-1 $20 T -0.29999999999999999 6.7000000000000002 -0.29999999999999999 0.29999999999999999 7.2999999999999998 0.29999999999999999 #
shell $-1 -1 -1 $-1 $-1 $-1 $59 $-1 $8 T -12 -12 -12 12 12 12 #
face $60 -1 -1 $-1 $61 $62 $23 $-1 $63 forward single T -12.24 -12.24 12.24 12.24 12.24 12.24 F #
simple-snl-attrib $-1 -1 $-1 $24 $1 1 1 1 1 1 1 1 1 1 1 1 1 0 1 0 1 1 1 @17 NEW_SIMPLE_ATTRIB 2 @11 ENTITY_NAME @9 MCNP_ID_1 0 0 #
face $64 -1 -1 $-1 $-1 $-1 $26 $-1 $65 forward single T -5 -5 -5 5 5 5 F #
simple-snl-attrib $-1 -1 $-1 $27 $2 1 1 1 1 1 1 1 1 1 1 1 1 0 1 0 1 1 1 @17 NEW_SIMPLE_ATTRIB 2 @11 ENTITY_NAME @9 MCNP_ID_2 0 0 #
shell $-1 -1 -1 $-1 $-1 $-1 $66 $-1 $12 T -5 -5 -5 5 5 5 #
face $67 -1 -1 $-1 $68 $69 $29 $-1 $70 forward single T -7 -7 -7 7 6.7283928571428602 7 F #
simple-snl-attrib $-1 -1 $-1 $30 $3 1 1 1 1 1 1 1 1 1 1 1 1 0 1 0 1 1 1 @17 NEW_SIMPLE_ATTRIB 2 @11 ENTITY_NAME @9 MCNP_ID_3 0 0 #
shell $-1 -1 -1 $-1 $-1 $-1 $71 $-1 $14 T -7 -7 -7 7 8.9499999999999993 7 #
face $72 -1 -1 $-1 $-1 $-1 $32 $-1 $73 forward single T -10 -10 -10 10 10 10 F #
shell $-1 -1 -1 $-1 $-1 $-1 $74 $-1 $16 T -10 -10 -10 10 10 10 #
face $75 -1 -1 $-1 $76 $77 $35 $-1 $78 forward single T -12 -12 12 12 12 12 F #
simple-snl-attrib $-1 -1 $-1 $36 $5 1 1 1 1 1 1 1 1 1 1 1 1 0 1 0 1 1 1 @17 NEW_SIMPLE_ATTRIB 2 @11 ENTITY_NAME @9 MCNP_ID_5 0 0 #
shell $-1 -1 -1 $-1 $-1 $-1 $79 $-1 $18 T -0.29999999999999999 6.7000000000000002 -0.29999999999999999 0.29999999999999999 7.2999999999999998 0.29999999999999999 #
face $80 -1 -1 $-1 $81 $82 $38 $-1 $83 forward single T -1.9309918591099706 5.0499999999999998 -1.9309918591099706 1.9309918591099706 6.7283928571428602 1.9309918591099706 F #
simple-snl-attrib $-1 -1 $-1 $39 $6 1 1 1 1 1 1 1 1 1 1 1 1 0 1 0 1 1 1 @17 NEW_SIMPLE_ATTRIB 2 @11 ENTITY_NAME @9 MCNP_ID_6 0 0 #
face $84 -1 -1 $-1 $-1 $-1 $41 $-1 $85 forward single T -0.29999999999999999 6.7000000000000002 -0.29999999999999999 0.29999999999999999 7.2999999999999998 0.29999999999999999 F #
face $86 -1 -1 $-1 $87 $88 $42 $-1 $89 reversed single T -12 -12 12 12 12 12 F #
simple-snl-attrib $-1 -1 $-1 $-1 $43 1 1 1 1 1 1 1 1 1 1 1 1 0 1 0 1 1 1 @17 NEW_SIMPLE_ATTRIB 1 @9 ENTITY_ID 0 3 1 -2147483648 -1 #
face $90 -1 -1 $-1 $91 $92 $23 $-1 $93 reversed single T -12.24 -12.24 -12.24 12.24 12.24 -12.24 F #
loop $-1 -1 -1 $-1 $-1 $94 $43 T -12.24 -12.24 12.24 12.24 12.24 12.24 unknown #
plane-surface $-1 -1 -1 $-1 0 0 12.24 0 0 1 1 0 0 forward_v I I I I #
simple-snl-attrib $-1 -1 $95 $-1 $45 1 1 1 1 1 1 1 1 1 1 1 1 0 1 0 1 1 1 @17 NEW_SIMPLE_ATTRIB 1 @9 UNIQUE_ID 1 0 1 888529935 #
sphere-surface $-1 -1 -1 $-1 0 0 0 5 1 0 0 0 0 1 forward_v I I I I #
face $96 -1 -1 $-1 $-1 $-1 $47 $-1 $97 reversed single T -5 -5 -5 5 5 5 F #
simple-snl-attrib $-1 -1 $98 $-1 $48 1 1 1 1 1 1 1 1 1 1 1 1 0 1 0 1 1 1 @17 NEW_SIMPLE_ATTRIB 1 @9 UNIQUE_ID 1 0 1 277283119 #
face $99 -1 -1 $-1 $-1 $100 $29 $-1 $101 reversed single T -1.9309918591099706 5.0499999999999998 -1.9309918591099706 1.9309918591099706 6.7283928571428602 1.9309918591099706 F #
loop $-1 -1 -1 $-1 $-1 $102 $48 T -1.9309918591099706 6.7283928571428602 -1.9309918591099706 1.9309918591099706 6.7283928571428602 1.9309918591099706 unknown #
sphere-surface $-1 -1 -1 $-1 0 0 0 7 1 0 0 0 0 1 forward_v I I I I #
face $103 -1 -1 $-1 $104 $105 $50 $-1 $106 reversed single T -7 -7 -7 7 6.7283928571428602 7 F #
simple-snl-attrib $-1 -1 $107 $-1 $51 1 1 1 1 1 1 1 1 1 1 1 1 0 1 0 1 1 1 @17 NEW_SIMPLE_ATTRIB 1 @9 UNIQUE_ID 1 0 1 1873929715 #
sphere-surface $-1 -1 -1 $-1 0 0 0 10 1 0 0 0 0 1 forward_v I I I I #
face $108 -1 -1 $-1 $-1 $-1 $52 $-1 $109 reversed single T -10 -10 -10 10 10 10 F #
simple-snl-attrib $-1 -1 $-1 $-1 $53 1 1 1 1 1 1 1 1 1 1 1 1 0 1 0 1 1 1 @17 NEW_SIMPLE_ATTRIB 1 @9 ENTITY_ID 0 3 20 -2147483648 -1 #
face $110 -1 -1 $-1 $111 $112 $35 $-1 $113 reversed single T -12 -12 -12 12 12 -12 F #
loop $-1 -1 -1 $-1 $-1 $114 $53 T -12 -12 12 12 12 12 unknown #
plane-surface $-1 -1 -1 $-1 0 0 12 0 0 1 1 0 0 forward_v I I I I #
face $115 -1 -1 $-1 $-1 $-1 $55 $-1 $116 reversed single T -0.29999999999999999 6.7000000000000002 -0.29999999999999999 0.29999999999999999 7.2999999999999998 0.29999999999999999 F #
simple-snl-attrib $-1 -1 $117 $-1 $56 1 1 1 1 1 1 1 1 1 1 1 1 0 1 0 1 1 1 @17 NEW_SIMPLE_ATTRIB 1 @9 UNIQUE_ID 1 0 1 1605231781 #
face $118 -1 -1 $-1 $-1 $119 $38 $-1 $83 forward single T -1.95 6.7283928571428602 -1.95 1.95 8.9499999999999993 1.95 F #
loop $-1 -1 -1 $-1 $-1 $120 $56 T -1.9309918591099706 6.7283928571428602 -1.9309918591099706 1.9309918591099706 6.7283928571428602 1.9309918591099706 unknown #
sphere-surface $-1 -1 -1 $-1 0 7 0 1.95 1 0 0 0 0 1 forward_v I I I I #
simple-snl-attrib $-1 -1 $121 $-1 $58 1 1 1 1 1 1 1 1 1 1 1 1 0 1 0 1 1 1 @17 NEW_SIMPLE_ATTRIB 1 @9 UNIQUE_ID 1 0 1 1384557925 #
sphere-surface $-1 -1 -1 $-1 0 7 0 0.29999999999999999 1 0 0 0 0 1 forward_v I I I I #
simple-snl-attrib $-1 -1 $-1 $-1 $59 1 1 1 1 1 1 1 1 1 1 1 1 0 1 0 1 1 1 @17 NEW_SIMPLE_ATTRIB 1 @9 ENTITY_ID 0 3 7 -2147483648 -1 #
face $122 -1 -1 $-1 $123 $124 $42 $-1 $125 forward single T -12 -12 -12 12 12 -12 F #
loop $-1 -1 -1 $-1 $-1 $126 $59 T -12 -12 12 12 12 12 unknown #
plane-surface $-1 -1 -1 $-1 0 0 12 0 0 1 1 0 0 forward_v I I I I #
simple-snl-attrib $-1 -1 $-1 $-1 $61 1 1 1 1 1 1 1 1 1 1 1 1 0 1 0 1 1 1 @17 NEW_SIMPLE_ATTRIB 1 @9 ENTITY_ID 0 3 2 -2147483648 -1 #
face $127 -1 -1 $-1 $128 $129 $23 $-1 $130 reversed single T -12.24 -12.24 -12.24 12.24 -12.24 12.24 F #
loop $-1 -1 -1 $-1 $-1 $131 $61 T -12.24 -12.24 -12.24 12.24 12.24 -12.24 unknown #
plane-surface $-1 -1 -1 $-1 0 0 -12.24 0 0 1 1 0 0 forward_v I I I I #
coedge $-1 -1 -1 $-1 $132 $133 $134 $135 forward $62 $-1 #
simple-snl-attrib $-1 -1 $136 $64 $45 1 1 1 1 1 1 1 1 1 1 1 1 0 1 0 1 1 1 @17 NEW_SIMPLE_ATTRIB 1 @9 ENTITY_ID 0 3 13 -2147483648 -1 #
simple-snl-attrib $-1 -1 $137 $-1 $66 1 1 1 1 1 1 1 1 1 1 1 1 0 1 0 1 1 1 @17 NEW_SIMPLE_ATTRIB 1 @9 UNIQUE_ID 1 0 1 888529935 #
sphere-surface $-1 -1 -1 $-1 0 0 0 5 1 0 0 0 0 1 forward_v I I I I #
simple-snl-attrib $-1 -1 $138 $67 $48 1 1 1 1 1 1 1 1 1 1 1 1 0 1 0 1 1 1 @17 NEW_SIMPLE_ATTRIB 1 @9 ENTITY_ID 0 3 14 1900038617 0 #
simple-snl-attrib $-1 -1 $139 $-1 $68 1 1 1 1 1 1 1 1 1 1 1 1 0 1 0 1 1 1 @17 NEW_SIMPLE_ATTRIB 1 @9 UNIQUE_ID 1 0 1 1605231781 #
loop $-1 -1 -1 $-1 $-1 $140 $68 T -1.9309918591099706 6.7283928571428602 -1.9309918591099706 1.9309918591099706 6.7283928571428602 1.9309918591099706 unknown #
sphere-surface $-1 -1 -1 $-1 0 7 0 1.95 1 0 0 0 0 1 forward_v I I I I #
coedge $-1 -1 -1 $-1 $141 $141 $140 $142 forward $69 $-1 #
simple-snl-attrib $-1 -1 $143 $-1 $71 1 1 1 1 1 1 1 1 1 1 1 1 0 1 0 1 1 1 @17 NEW_SIMPLE_ATTRIB 1 @9 UNIQUE_ID 1 0 1 277283119 #
face $144 -1 -1 $-1 $-1 $145 $50 $-1 $146 reversed single T -1.95 6.7283928571428602 -1.95 1.95 8.9499999999999993 1.95 F #
loop $-1 -1 -1 $-1 $-1 $147 $71 T -1.9309918591099706 6.7283928571428602 -1.9309918591099706 1.9309918591099706 6.7283928571428602 1.9309918591099706 unknown #
sphere-surface $-1 -1 -1 $-1 0 0 0 7 1 0 0 0 0 1 forward_v I I I I #
simple-snl-attrib $-1 -1 $148 $72 $51 1 1 1 1 1 1 1 1 1 1 1 1 0 1 0 1 1 1 @17 NEW_SIMPLE_ATTRIB 1 @9 ENTITY_ID 0 3 17 -2147483648 -1 #
simple-snl-attrib $-1 -1 $149 $-1 $74 1 1 1 1 1 1 1 1 1 1 1 1 0 1 0 1 1 1 @17 NEW_SIMPLE_ATTRIB 1 @9 UNIQUE_ID 1 0 1 1873929715 #
sphere-surface $-1 -1 -1 $-1 0 0 0 10 1 0 0 0 0 1 forward_v I I I I #
simple-snl-attrib $-1 -1 $-1 $-1 $76 1 1 1 1 1 1 1 1 1 1 1 1 0 1 0 1 1 1 @17 NEW_SIMPLE_ATTRIB 1 @9 ENTITY_ID 0 3 21 -2147483648 -1 #
face $150 -1 -1 $-1 $151 $152 $35 $-1 $153 reversed single T -12 -12 -12 12 -12 12 F #
loop $-1 -1 -1 $-1 $-1 $154 $76 T -12 -12 -12 12 12 -12 unknown #
plane-surface $-1 -1 -1 $-1 0 0 -12 0 0 1 1 0 0 forward_v I I I I #
coedge $-1 -1 -1 $-1 $155 $156 $157 $158 forward $77 $-1 #
simple-snl-attrib $-1 -1 $159 $-1 $79 1 1 1 1 1 1 1 1 1 1 1 1 0 1 0 1 1 1 @17 NEW_SIMPLE_ATTRIB 1 @9 UNIQUE_ID 1 0 1 1384557925 #
sphere-surface $-1 -1 -1 $-1 0 7 0 0.29999999999999999 1 0 0 0 0 1 forward_v I I I I #
simple-snl-attrib $-1 -1 $160 $80 $56 1 1 1 1 1 1 1 1 1 1 1 1 0 1 0 1 1 1 @17 NEW_SIMPLE_ATTRIB 1 @9 ENTITY_ID 0 3 15 1900038617 1 #
simple-snl-attrib $-1 -1 $161 $-1 $81 1 1 1 1 1 1 1 1 1 1 1 1 0 1 0 1 1 1 @17 NEW_SIMPLE_ATTRIB 1 @9 UNIQUE_ID 1 0 1 523958745 #
loop $-1 -1 -1 $-1 $-1 $162 $81 T -1.9309918591099706 6.7283928571428602 -1.9309918591099706 1.9309918591099706 6.7283928571428602 1.9309918591099706 unknown #
coedge $-1 -1 -1 $-1 $163 $163 $162 $164 reversed $82 $-1 #
simple-snl-attrib $-1 -1 $165 $84 $58 1 1 1 1 1 1 1 1 1 1 1 1 0 1 0 1 1 1 @17 NEW_SIMPLE_ATTRIB 1 @9 ENTITY_ID 0 3 28 -2147483648 -1 #
simple-snl-attrib $-1 -1 $-1 $-1 $87 1 1 1 1 1 1 1 1 1 1 1 1 0 1 0 1 1 1 @17 NEW_SIMPLE_ATTRIB 1 @9 ENTITY_ID 0 3 8 -2147483648 -1 #
face $166 -1 -1 $-1 $167 $168 $42 $-1 $169 forward single T -12 -12 -12 12 -12 12 F #
loop $-1 -1 -1 $-1 $-1 $170 $87 T -12 -12 -12 12 12 -12 unknown #
plane-surface $-1 -1 -1 $-1 0 0 -12 0 0 1 1 0 0 forward_v I I I I #
coedge $-1 -1 -1 $-1 $171 $172 $173 $174 reversed $88 $-1 #
simple-snl-attrib $-1 -1 $-1 $-1 $91 1 1 1 1 1 1 1 1 1 1 1 1 0 1 0 1 1 1 @17 NEW_SIMPLE_ATTRIB 1 @9 ENTITY_ID 0 3 3 -2147483648 -1 #
face $175 -1 -1 $-1 $176 $177 $23 $-1 $178 reversed single T -12.24 -12.24 -12.24 -12.24 12.24 12.24 F #
loop $-1 -1 -1 $-1 $-1 $179 $91 T -12.24 -12.24 -12.24 12.24 -12.24 12.24 unknown #
plane-surface $-1 -1 -1 $-1 0 -12.24 0 0 1 -0 -0 0 1 forward_v I I I I #
coedge $-1 -1 -1 $-1 $180 $181 $182 $183 forward $92 $-1 #
coedge $-1 -1 -1 $-1 $184 $94 $185 $186 forward $62 $-1 #
coedge $-1 -1 -1 $-1 $94 $184 $187 $188 forward $62 $-1 #
coedge $-1 -1 -1 $-1 $189 $190 $94 $135 reversed $191 $-1 #
edge $192 -1 -1 $-1 $193 -12.24 $194 12.24 $134 $195 forward @7 unknown T 12.24 -12.24 12.24 12.24 12.24 12.24 #
simple-snl-attrib $-1 -1 $-1 $95 $45 1 1 1 1 1 1 1 1 1 1 1 1 0 1 0 1 1 1 @17 NEW_SIMPLE_ATTRIB 1 @13 MERGE_PARTNER 0 4 888529935 1 109 1 #
simple-snl-attrib $-1 -1 $196 $96 $66 1 1 1 1 1 1 1 1 1 1 1 1 0 1 0 1 1 1 @17 NEW_SIMPLE_ATTRIB 1 @9 ENTITY_ID 0 3 13 -2147483648 -1 #
simple-snl-attrib $-1 -1 $-1 $98 $48 1 1 1 1 1 1 1 1 1 1 1 1 0 1 0 1 1 1 @17 NEW_SIMPLE_ATTRIB 1 @13 MERGE_PARTNER 0 4 277283119 1 125 1 #
simple-snl-attrib $-1 -1 $197 $99 $68 1 1 1 1 1 1 1 1 1 1 1 1 0 1 0 1 1 1 @17 NEW_SIMPLE_ATTRIB 1 @9 ENTITY_ID 0 3 15 1900038617 1 #
coedge $-1 -1 -1 $-1 $198 $198 $102 $142 reversed $100 $-1 #
coedge $-1 -1 -1 $-1 $102 $102 $198 $199 forward $69 $-1 #
edge $200 -1 -1 $-1 $201 -3.1415926535897931 $202 -1.224646799147353e-16 $140 $203 forward @7 unknown T 2.364782999438622e-16 6.7283928571428602 -1.9309918591099706 1.9309918591099706 6.7283928571428602 1.9309918591099706 #
simple-snl-attrib $-1 -1 $204 $103 $71 1 1 1 1 1 1 1 1 1 1 1 1 0 1 0 1 1 1 @17 NEW_SIMPLE_ATTRIB 1 @9 ENTITY_ID 0 3 14 1900038617 0 #
simple-snl-attrib $-1 -1 $205 $-1 $104 1 1 1 1 1 1 1 1 1 1 1 1 0 1 0 1 1 1 @17 NEW_SIMPLE_ATTRIB 1 @9 UNIQUE_ID 1 0 1 523958745 #
loop $-1 -1 -1 $-1 $-1 $206 $104 T -1.9309918591099706 6.7283928571428602 -1.9309918591099706 1.9309918591099706 6.7283928571428602 1.9309918591099706 unknown #
sphere-surface $-1 -1 -1 $-1 0 7 0 1.95 1 0 0 0 0 1 forward_v I I I I #
coedge $-1 -1 -1 $-1 $207 $207 $206 $208 forward $105 $-1 #
simple-snl-attrib $-1 -1 $-1 $107 $51 1 1 1 1 1 1 1 1 1 1 1 1 0 1 0 1 1 1 @17 NEW_SIMPLE_ATTRIB 1 @13 MERGE_PARTNER 0 4 1873929715 1 143 1 #
simple-snl-attrib $-1 -1 $209 $108 $74 1 1 1 1 1 1 1 1 1 1 1 1 0 1 0 1 1 1 @17 NEW_SIMPLE_ATTRIB 1 @9 ENTITY_ID 0 3 17 -2147483648 -1 #
simple-snl-attrib $-1 -1 $-1 $-1 $111 1 1 1 1 1 1 1 1 1 1 1 1 0 1 0 1 1 1 @17 NEW_SIMPLE_ATTRIB 1 @9 ENTITY_ID 0 3 22 -2147483648 -1 #
face $210 -1 -1 $-1 $211 $212 $35 $-1 $213 reversed single T -12 -12 -12 -12 12 12 F #
loop $-1 -1 -1 $-1 $-1 $214 $111 T -12 -12 -12 12 -12 12 unknown #
plane-surface $-1 -1 -1 $-1 0 -12 0 0 1 -0 -0 0 1 forward_v I I I I #
coedge $-1 -1 -1 $-1 $215 $216 $217 $218 forward $112 $-1 #
coedge $-1 -1 -1 $-1 $219 $114 $220 $221 forward $77 $-1 #
coedge $-1 -1 -1 $-1 $114 $219 $222 $223 forward $77 $-1 #
coedge $-1 -1 -1 $-1 $224 $225 $114 $158 reversed $226 $-1 #
edge $227 -1 -1 $-1 $228 -12 $229 12 $157 $230 forward @7 unknown T 12 -12 12 12 12 12 #
simple-snl-attrib $-1 -1 $231 $115 $79 1 1 1 1 1 1 1 1 1 1 1 1 0 1 0 1 1 1 @17 NEW_SIMPLE_ATTRIB 1 @9 ENTITY_ID 0 3 28 -2147483648 -1 #
simple-snl-attrib $-1 -1 $-1 $117 $56 1 1 1 1 1 1 1 1 1 1 1 1 0 1 0 1 1 1 @17 NEW_SIMPLE_ATTRIB 1 @13 MERGE_PARTNER 0 4 1605231781 -1 30 0 #
simple-snl-attrib $-1 -1 $232 $118 $81 1 1 1 1 1 1 1 1 1 1 1 1 0 1 0 1 1 1 @17 NEW_SIMPLE_ATTRIB 1 @9 ENTITY_ID 0 3 19 1900038617 0 #
coedge $-1 -1 -1 $-1 $233 $233 $120 $164 forward $119 $-1 #
coedge $-1 -1 -1 $-1 $120 $120 $233 $234 reversed $82 $-1 #
edge $235 -1 -1 $-1 $236 -3.1415926535897931 $237 -1.224646799147353e-16 $162 $238 forward @7 unknown T 2.364782999438622e-16 6.7283928571428602 -1.9309918591099706 1.9309918591099706 6.7283928571428602 1.9309918591099706 #
simple-snl-attrib $-1 -1 $-1 $121 $58 1 1 1 1 1 1 1 1 1 1 1 1 0 1 0 1 1 1 @17 NEW_SIMPLE_ATTRIB 1 @13 MERGE_PARTNER 0 4 1384557925 -1 29 0 #
simple-snl-attrib $-1 -1 $-1 $-1 $123 1 1 1 1 1 1 1 1 1 1 1 1 0 1 0 1 1 1 @17 NEW_SIMPLE_ATTRIB 1 @9 ENTITY_ID 0 3 9 -2147483648 -1 #
face $239 -1 -1 $-1 $240 $241 $42 $-1 $242 forward single T -12 -12 -12 -12 12 12 F #
loop $-1 -1 -1 $-1 $-1 $243 $123 T -12 -12 -12 12 -12 12 unknown #
plane-surface $-1 -1 -1 $-1 0 -12 0 0 1 -0 -0 0 1 forward_v I I I I #
coedge $-1 -1 -1 $-1 $244 $245 $246 $247 reversed $124 $-1 #
coedge $-1 -1 -1 $-1 $248 $126 $249 $250 reversed $88 $-1 #
coedge $-1 -1 -1 $-1 $126 $248 $251 $252 reversed $88 $-1 #
coedge $-1 -1 -1 $-1 $253 $254 $126 $174 forward $255 $-1 #
edge $256 -1 -1 $-1 $257 -12 $258 12 $173 $259 forward @7 unknown T 12 -12 12 12 12 12 #
simple-snl-attrib $-1 -1 $-1 $-1 $128 1 1 1 1 1 1 1 1 1 1 1 1 0 1 0 1 1 1 @17 NEW_SIMPLE_ATTRIB 1 @9 ENTITY_ID 0 3 4 -2147483648 -1 #
face $260 -1 -1 $-1 $261 $262 $23 $-1 $263 reversed single T -12.24 12.24 -12.24 12.24 12.24 12.24 F #
loop $-1 -1 -1 $-1 $-1 $264 $128 T -12.24 -12.24 -12.24 -12.24 12.24 12.24 unknown #
plane-surface $-1 -1 -1 $-1 -12.24 0 0 1 0 0 0 0 -1 forward_v I I I I #
coedge $-1 -1 -1 $-1 $265 $187 $266 $267 forward $129 $-1 #
coedge $-1 -1 -1 $-1 $268 $131 $265 $269 forward $92 $-1 #
coedge $-1 -1 -1 $-1 $131 $268 $270 $271 forward $92 $-1 #
coedge $-1 -1 -1 $-1 $190 $189 $131 $183 reversed $191 $-1 #
edge $272 -1 -1 $-1 $273 -12.24 $274 12.24 $182 $275 forward @7 unknown T 12.24 -12.24 -12.24 12.24 12.24 -12.24 #
coedge $-1 -1 -1 $-1 $133 $132 $276 $277 forward $62 $-1 #
coedge $-1 -1 -1 $-1 $278 $279 $132 $186 reversed $262 $-1 #
edge $280 -1 -1 $-1 $194 -12.24 $281 12.24 $185 $282 forward @7 unknown T -12.24 12.24 12.24 12.24 12.24 12.24 #
coedge $-1 -1 -1 $-1 $179 $283 $133 $188 reversed $129 $-1 #
edge $284 -1 -1 $-1 $285 -12.24 $193 12.24 $187 $286 forward @7 unknown T -12.24 -12.24 12.24 12.24 -12.24 12.24 #
coedge $-1 -1 -1 $-1 $182 $134 $283 $287 forward $191 $-1 #
coedge $-1 -1 -1 $-1 $134 $182 $278 $288 reversed $191 $-1 #
loop $-1 -1 -1 $-1 $-1 $189 $261 T 12.24 -12.24 -12.24 12.24 12.24 12.24 unknown #
simple-snl-attrib $-1 -1 $-1 $-1 $135 1 1 1 1 1 1 1 1 1 1 1 1 0 1 0 1 1 1 @17 NEW_SIMPLE_ATTRIB 1 @9 ENTITY_ID 0 3 37 -2147483648 -1 #
vertex $289 -1 -1 $-1 $135 $290 #
vertex $291 -1 -1 $-1 $135 $292 #
straight-curve $-1 -1 -1 $-1 12.24 0 12.24 0 1 0 I I #
simple-snl-attrib $-1 -1 $-1 $137 $66 1 1 1 1 1 1 1 1 1 1 1 1 0 1 0 1 1 1 @17 NEW_SIMPLE_ATTRIB 1 @13 MERGE_PARTNER 0 4 888529935 -1 16 0 #
simple-snl-attrib $-1 -1 $-1 $139 $68 1 1 1 1 1 1 1 1 1 1 1 1 0 1 0 1 1 1 @17 NEW_SIMPLE_ATTRIB 1 @13 MERGE_PARTNER 0 4 1605231781 1 126 1 #
coedge $-1 -1 -1 $-1 $140 $140 $141 $199 reversed $100 $-1 #
edge $293 -1 -1 $-1 $202 -1.224646799147353e-16 $201 3.1415926535897931 $198 $203 forward @7 unknown T -1.9309918591099706 6.7283928571428602 -1.9309918591099706 2.364782999438622e-16 6.7283928571428602 1.9309918591099706 #
simple-snl-attrib $-1 -1 $294 $-1 $142 1 1 1 1 1 1 1 1 1 1 1 1 0 1 0 1 1 1 @17 NEW_SIMPLE_ATTRIB 2 @14 SOURCE_FEATURE @7 IMPRINT 0 0 #
vertex $295 -1 -1 $-1 $199 $296 #
vertex $297 -1 -1 $-1 $199 $298 #
ellipse-curve $-1 -1 -1 $-1 0 6.7283928571428602 0 -0 -1 -0 0 0 1.9309918591099706 1 I I #
simple-snl-attrib $-1 -1 $-1 $143 $71 1 1 1 1 1 1 1 1 1 1 1 1 0 1 0 1 1 1 @17 NEW_SIMPLE_ATTRIB 1 @13 MERGE_PARTNER 0 4 277283119 -1 18 0 #
simple-snl-attrib $-1 -1 $299 $144 $104 1 1 1 1 1 1 1 1 1 1 1 1 0 1 0 1 1 1 @17 NEW_SIMPLE_ATTRIB 1 @9 ENTITY_ID 0 3 19 1900038617 0 #
coedge $-1 -1 -1 $-1 $300 $300 $147 $208 reversed $145 $-1 #
coedge $-1 -1 -1 $-1 $147 $147 $300 $301 forward $105 $-1 #
edge $302 -1 -1 $-1 $303 -3.1415926535897931 $304 -1.224646799147353e-16 $206 $305 forward @7 unknown T 2.364782999438622e-16 6.7283928571428602 -1.9309918591099706 1.9309918591099706 6.7283928571428602 1.9309918591099706 #
simple-snl-attrib $-1 -1 $-1 $149 $74 1 1 1 1 1 1 1 1 1 1 1 1 0 1 0 1 1 1 @17 NEW_SIMPLE_ATTRIB 1 @13 MERGE_PARTNER 0 4 1873929715 -1 26 0 #
simple-snl-attrib $-1 -1 $-1 $-1 $151 1 1 1 1 1 1 1 1 1 1 1 1 0 1 0 1 1 1 @17 NEW_SIMPLE_ATTRIB 1 @9 ENTITY_ID 0 3 23 -2147483648 -1 #
face $306 -1 -1 $-1 $307 $308 $35 $-1 $309 reversed single T -12 12 -12 12 12 12 F #
loop $-1 -1 -1 $-1 $-1 $310 $151 T -12 -12 -12 -12 12 12 unknown #
plane-surface $-1 -1 -1 $-1 -12 0 0 1 0 0 0 0 -1 forward_v I I I I #
coedge $-1 -1 -1 $-1 $311 $222 $312 $313 forward $152 $-1 #
coedge $-1 -1 -1 $-1 $314 $154 $311 $315 forward $112 $-1 #
coedge $-1 -1 -1 $-1 $154 $314 $316 $317 forward $112 $-1 #
coedge $-1 -1 -1 $-1 $225 $224 $154 $218 reversed $226 $-1 #
edge $318 -1 -1 $-1 $319 -12 $320 12 $217 $321 forward @7 unknown T 12 -12 -12 12 12 -12 #
coedge $-1 -1 -1 $-1 $156 $155 $322 $323 forward $77 $-1 #
coedge $-1 -1 -1 $-1 $324 $325 $155 $221 reversed $308 $-1 #
edge $326 -1 -1 $-1 $229 -12 $327 12 $220 $328 forward @7 unknown T -12 12 12 12 12 12 #
coedge $-1 -1 -1 $-1 $214 $329 $156 $223 reversed $152 $-1 #
edge $330 -1 -1 $-1 $331 -12 $228 12 $222 $332 forward @7 unknown T -12 -12 12 12 -12 12 #
coedge $-1 -1 -1 $-1 $217 $157 $329 $333 forward $226 $-1 #
coedge $-1 -1 -1 $-1 $157 $217 $324 $334 reversed $226 $-1 #
loop $-1 -1 -1 $-1 $-1 $224 $307 T 12 -12 -12 12 12 12 unknown #
simple-snl-attrib $-1 -1 $-1 $-1 $158 1 1 1 1 1 1 1 1 1 1 1 1 0 1 0 1 1 1 @17 NEW_SIMPLE_ATTRIB 1 @9 ENTITY_ID 0 3 164 -2147483648 -1 #
vertex $335 -1 -1 $-1 $158 $336 #
vertex $337 -1 -1 $-1 $158 $338 #
straight-curve $-1 -1 -1 $-1 12 0 12 0 1 0 I I #
simple-snl-attrib $-1 -1 $-1 $159 $79 1 1 1 1 1 1 1 1 1 1 1 1 0 1 0 1 1 1 @17 NEW_SIMPLE_ATTRIB 1 @13 MERGE_PARTNER 0 4 1384557925 1 176 1 #
simple-snl-attrib $-1 -1 $-1 $161 $81 1 1 1 1 1 1 1 1 1 1 1 1 0 1 0 1 1 1 @17 NEW_SIMPLE_ATTRIB 1 @13 MERGE_PARTNER 0 4 523958745 -1 31 0 #
coedge $-1 -1 -1 $-1 $162 $162 $163 $234 forward $119 $-1 #
edge $339 -1 -1 $-1 $237 -1.224646799147353e-16 $236 3.1415926535897931 $233 $340 forward @7 unknown T -1.9309918591099706 6.7283928571428602 -1.9309918591099706 2.364782999438622e-16 6.7283928571428602 1.9309918591099706 #
simple-snl-attrib $-1 -1 $341 $-1 $164 1 1 1 1 1 1 1 1 1 1 1 1 0 1 0 1 1 1 @17 NEW_SIMPLE_ATTRIB 2 @14 SOURCE_FEATURE @7 IMPRINT 0 0 #
vertex $342 -1 -1 $-1 $164 $343 #
vertex $344 -1 -1 $-1 $164 $345 #
ellipse-curve $-1 -1 -1 $-1 0 6.7283928571428602 0 0 1 0 0 0 -1.9309918591099706 1 I I #
simple-snl-attrib $-1 -1 $-1 $-1 $167 1 1 1 1 1 1 1 1 1 1 1 1 0 1 0 1 1 1 @17 NEW_SIMPLE_ATTRIB 1 @9 ENTITY_ID 0 3 10 -2147483648 -1 #
face $346 -1 -1 $-1 $347 $348 $42 $-1 $349 forward single T -12 12 -12 12 12 12 F #
loop $-1 -1 -1 $-1 $-1 $350 $167 T -12 -12 -12 -12 12 12 unknown #
plane-surface $-1 -1 -1 $-1 -12 0 0 1 0 0 0 0 -1 forward_v I I I I #
coedge $-1 -1 -1 $-1 $249 $351 $352 $353 reversed $168 $-1 #
coedge $-1 -1 -1 $-1 $354 $170 $355 $356 reversed $124 $-1 #
coedge $-1 -1 -1 $-1 $170 $354 $351 $357 reversed $124 $-1 #
coedge $-1 -1 -1 $-1 $254 $253 $170 $247 forward $255 $-1 #
edge $358 -1 -1 $-1 $359 -12 $360 12 $246 $361 forward @7 unknown T 12 -12 -12 12 12 -12 #
coedge $-1 -1 -1 $-1 $172 $171 $362 $363 reversed $88 $-1 #
coedge $-1 -1 -1 $-1 $364 $243 $171 $250 forward $168 $-1 #
edge $365 -1 -1 $-1 $366 -12 $257 12 $249 $367 forward @7 unknown T -12 -12 12 12 -12 12 #
coedge $-1 -1 -1 $-1 $368 $369 $172 $252 forward $348 $-1 #
edge $370 -1 -1 $-1 $258 -12 $371 12 $251 $372 forward @7 unknown T -12 12 12 12 12 12 #
coedge $-1 -1 -1 $-1 $246 $173 $369 $373 forward $255 $-1 #
coedge $-1 -1 -1 $-1 $173 $246 $364 $374 reversed $255 $-1 #
loop $-1 -1 -1 $-1 $-1 $254 $347 T 12 -12 -12 12 12 12 unknown #
simple-snl-attrib $-1 -1 $-1 $-1 $174 1 1 1 1 1 1 1 1 1 1 1 1 0 1 0 1 1 1 @17 NEW_SIMPLE_ATTRIB 1 @9 ENTITY_ID 0 3 61 -2147483648 -1 #
vertex $375 -1 -1 $-1 $174 $376 #
vertex $377 -1 -1 $-1 $174 $378 #
straight-curve $-1 -1 -1 $-1 12 0 12 0 1 0 I I #
simple-snl-attrib $-1 -1 $-1 $-1 $176 1 1 1 1 1 1 1 1 1 1 1 1 0 1 0 1 1 1 @17 NEW_SIMPLE_ATTRIB 1 @9 ENTITY_ID 0 3 5 -2147483648 -1 #
face $379 -1 -1 $-1 $-1 $191 $23 $-1 $380 reversed single T 12.24 -12.24 -12.24 12.24 12.24 12.24 F #
loop $-1 -1 -1 $-1 $-1 $278 $176 T -12.24 12.24 -12.24 12.24 12.24 12.24 unknown #
plane-surface $-1 -1 -1 $-1 0 12.24 0 0 -1 0 0 0 -1 forward_v I I I I #
coedge $-1 -1 -1 $-1 $381 $276 $279 $382 forward $177 $-1 #
coedge $-1 -1 -1 $-1 $283 $179 $180 $269 reversed $129 $-1 #
coedge $-1 -1 -1 $-1 $276 $381 $179 $267 reversed $177 $-1 #
edge $383 -1 -1 $-1 $285 -12.24 $384 12.24 $266 $385 forward @7 unknown T -12.24 -12.24 -12.24 -12.24 -12.24 12.24 #
coedge $-1 -1 -1 $-1 $181 $180 $381 $386 forward $92 $-1 #
edge $387 -1 -1 $-1 $274 -12.24 $384 12.24 $265 $388 forward @7 unknown T -12.24 -12.24 -12.24 12.24 -12.24 -12.24 #
coedge $-1 -1 -1 $-1 $279 $278 $181 $271 reversed $262 $-1 #
edge $389 -1 -1 $-1 $390 -12.24 $273 12.24 $270 $391 forward @7 unknown T -12.24 12.24 -12.24 12.24 12.24 -12.24 #
simple-snl-attrib $-1 -1 $-1 $-1 $183 1 1 1 1 1 1 1 1 1 1 1 1 0 1 0 1 1 1 @17 NEW_SIMPLE_ATTRIB 1 @9 ENTITY_ID 0 3 41 -2147483648 -1 #
vertex $392 -1 -1 $-1 $183 $393 #
vertex $394 -1 -1 $-1 $287 $395 #
straight-curve $-1 -1 -1 $-1 12.24 0 -12.24 0 -1 0 I I #
coedge $-1 -1 -1 $-1 $264 $266 $184 $277 reversed $177 $-1 #
edge $396 -1 -1 $-1 $281 -12.24 $285 12.24 $276 $397 forward @7 unknown T -12.24 -12.24 12.24 -12.24 12.24 12.24 #
coedge $-1 -1 -1 $-1 $270 $185 $190 $288 forward $262 $-1 #
coedge $-1 -1 -1 $-1 $185 $270 $264 $382 reversed $262 $-1 #
simple-snl-attrib $-1 -1 $-1 $-1 $186 1 1 1 1 1 1 1 1 1 1 1 1 0 1 0 1 1 1 @17 NEW_SIMPLE_ATTRIB 1 @9 ENTITY_ID 0 3 38 -2147483648 -1 #
vertex $398 -1 -1 $-1 $186 $399 #
straight-curve $-1 -1 -1 $-1 0 12.24 12.24 -1 0 0 I I #
coedge $-1 -1 -1 $-1 $187 $265 $189 $287 reversed $129 $-1 #
simple-snl-attrib $-1 -1 $-1 $-1 $188 1 1 1 1 1 1 1 1 1 1 1 1 0 1 0 1 1 1 @17 NEW_SIMPLE_ATTRIB 1 @9 ENTITY_ID 0 3 40 -2147483648 -1 #
vertex $400 -1 -1 $-1 $277 $401 #
straight-curve $-1 -1 -1 $-1 0 -12.24 12.24 1 0 0 I I #
edge $402 -1 -1 $-1 $193 -12.24 $274 12.24 $189 $403 forward @7 unknown T 12.24 -12.24 -12.24 12.24 -12.24 12.24 #
edge $404 -1 -1 $-1 $194 -12.24 $273 12.24 $190 $405 forward @7 unknown T 12.24 12.24 -12.24 12.24 12.24 12.24 #
simple-snl-attrib $-1 -1 $-1 $-1 $193 1 1 1 1 1 1 1 1 1 1 1 1 0 1 0 1 1 1 @17 NEW_SIMPLE_ATTRIB 1 @9 ENTITY_ID 0 3 25 -2147483648 -1 #
point $-1 -1 -1 $-1 12.24 -12.24 12.24 #
simple-snl-attrib $-1 -1 $-1 $-1 $194 1 1 1 1 1 1 1 1 1 1 1 1 0 1 0 1 1 1 @17 NEW_SIMPLE_ATTRIB 1 @9 ENTITY_ID 0 3 26 -2147483648 -1 #
point $-1 -1 -1 $-1 12.24 12.24 12.24 #
simple-snl-attrib $-1 -1 $406 $-1 $199 1 1 1 1 1 1 1 1 1 1 1 1 0 1 0 1 1 1 @17 NEW_SIMPLE_ATTRIB 2 @14 SOURCE_FEATURE @7 IMPRINT 0 0 #
simple-snl-attrib $-1 -1 $407 $200 $142 1 1 1 1 1 1 1 1 1 1 1 1 0 1 0 1 1 1 @17 NEW_SIMPLE_ATTRIB 1 @9 ENTITY_ID 0 3 224 517944542 0 #
simple-snl-attrib $-1 -1 $408 $-1 $201 1 1 1 1 1 1 1 1 1 1 1 1 0 1 0 1 1 1 @17 NEW_SIMPLE_ATTRIB 1 @9 ENTITY_ID 0 3 85 -2147483648 -1 #
point $-1 -1 -1 $-1 2.364782999438622e-16 6.7283928571428602 -1.9309918591099706 #
simple-snl-attrib $-1 -1 $409 $-1 $202 1 1 1 1 1 1 1 1 1 1 1 1 0 1 0 1 1 1 @17 NEW_SIMPLE_ATTRIB 1 @9 ENTITY_ID 0 3 103 -2147483648 -1 #
point $-1 -1 -1 $-1 2.364782999438622e-16 6.7283928571428602 1.9309918591099706 #
simple-snl-attrib $-1 -1 $-1 $205 $104 1 1 1 1 1 1 1 1 1 1 1 1 0 1 0 1 1 1 @17 NEW_SIMPLE_ATTRIB 1 @13 MERGE_PARTNER 0 4 523958745 1 145 1 #
coedge $-1 -1 -1 $-1 $206 $206 $207 $301 reversed $145 $-1 #
edge $410 -1 -1 $-1 $304 -1.224646799147353e-16 $303 3.1415926535897931 $300 $411 forward @7 unknown T -1.9309918591099706 6.7283928571428602 -1.9309918591099706 2.364782999438622e-16 6.7283928571428602 1.9309918591099706 #
simple-snl-attrib $-1 -1 $412 $-1 $208 1 1 1 1 1 1 1 1 1 1 1 1 0 1 0 1 1 1 @17 NEW_SIMPLE_ATTRIB 2 @14 SOURCE_FEATURE @7 IMPRINT 0 0 #
vertex $413 -1 -1 $-1 $301 $414 #
vertex $415 -1 -1 $-1 $301 $416 #
ellipse-curve $-1 -1 -1 $-1 0 6.7283928571428602 0 0 1 0 0 0 -1.9309918591099706 1 I I #
simple-snl-attrib $-1 -1 $-1 $-1 $211 1 1 1 1 1 1 1 1 1 1 1 1 0 1 0 1 1 1 @17 NEW_SIMPLE_ATTRIB 1 @9 ENTITY_ID 0 3 24 -2147483648 -1 #
face $417 -1 -1 $-1 $-1 $226 $35 $-1 $418 reversed single T 12 -12 -12 12 12 12 F #
loop $-1 -1 -1 $-1 $-1 $324 $211 T -12 12 -12 12 12 12 unknown #
plane-surface $-1 -1 -1 $-1 0 12 0 0 -1 0 0 0 -1 forward_v I I I I #
coedge $-1 -1 -1 $-1 $419 $322 $325 $420 forward $212 $-1 #
coedge $-1 -1 -1 $-1 $329 $214 $215 $315 reversed $152 $-1 #
coedge $-1 -1 -1 $-1 $322 $419 $214 $313 reversed $212 $-1 #
edge $421 -1 -1 $-1 $331 -12 $422 12 $312 $423 forward @7 unknown T -12 -12 -12 -12 -12 12 #
coedge $-1 -1 -1 $-1 $216 $215 $419 $424 forward $112 $-1 #
edge $425 -1 -1 $-1 $320 -12 $422 12 $311 $426 forward @7 unknown T -12 -12 -12 12 -12 -12 #
coedge $-1 -1 -1 $-1 $325 $324 $216 $317 reversed $308 $-1 #
edge $427 -1 -1 $-1 $428 -12 $319 12 $316 $429 forward @7 unknown T -12 12 -12 12 12 -12 #
simple-snl-attrib $-1 -1 $-1 $-1 $218 1 1 1 1 1 1 1 1 1 1 1 1 0 1 0 1 1 1 @17 NEW_SIMPLE_ATTRIB 1 @9 ENTITY_ID 0 3 168 -2147483648 -1 #
vertex $430 -1 -1 $-1 $218 $431 #
vertex $432 -1 -1 $-1 $333 $433 #
straight-curve $-1 -1 -1 $-1 12 0 -12 0 -1 0 I I #
coedge $-1 -1 -1 $-1 $310 $312 $219 $323 reversed $212 $-1 #
edge $434 -1 -1 $-1 $327 -12 $331 12 $322 $435 forward @7 unknown T -12 -12 12 -12 12 12 #
coedge $-1 -1 -1 $-1 $316 $220 $225 $334 forward $308 $-1 #
coedge $-1 -1 -1 $-1 $220 $316 $310 $420 reversed $308 $-1 #
simple-snl-attrib $-1 -1 $-1 $-1 $221 1 1 1 1 1 1 1 1 1 1 1 1 0 1 0 1 1 1 @17 NEW_SIMPLE_ATTRIB 1 @9 ENTITY_ID 0 3 165 -2147483648 -1 #
vertex $436 -1 -1 $-1 $221 $437 #
straight-curve $-1 -1 -1 $-1 0 12 12 -1 0 0 I I #
coedge $-1 -1 -1 $-1 $222 $311 $224 $333 reversed $152 $-1 #
simple-snl-attrib $-1 -1 $-1 $-1 $223 1 1 1 1 1 1 1 1 1 1 1 1 0 1 0 1 1 1 @17 NEW_SIMPLE_ATTRIB 1 @9 ENTITY_ID 0 3 167 -2147483648 -1 #
vertex $438 -1 -1 $-1 $323 $439 #
straight-curve $-1 -1 -1 $-1 0 -12 12 1 0 0 I I #
edge $440 -1 -1 $-1 $228 -12 $320 12 $224 $441 forward @7 unknown T 12 -12 -12 12 -12 12 #
edge $442 -1 -1 $-1 $229 -12 $319 12 $225 $443 forward @7 unknown T 12 12 -12 12 12 12 #
simple-snl-attrib $-1 -1 $-1 $-1 $228 1 1 1 1 1 1 1 1 1 1 1 1 0 1 0 1 1 1 @17 NEW_SIMPLE_ATTRIB 1 @9 ENTITY_ID 0 3 112 -2147483648 -1 #
point $-1 -1 -1 $-1 12 -12 12 #
simple-snl-attrib $-1 -1 $-1 $-1 $229 1 1 1 1 1 1 1 1 1 1 1 1 0 1 0 1 1 1 @17 NEW_SIMPLE_ATTRIB 1 @9 ENTITY_ID 0 3 113 -2147483648 -1 #
point $-1 -1 -1 $-1 12 12 12 #
simple-snl-attrib $-1 -1 $444 $-1 $234 1 1 1 1 1 1 1 1 1 1 1 1 0 1 0 1 1 1 @17 NEW_SIMPLE_ATTRIB 2 @14 SOURCE_FEATURE @7 IMPRINT 0 0 #
ellipse-curve $-1 -1 -1 $-1 0 6.7283928571428602 0 0 1 0 0 0 -1.9309918591099706 1 I I #
simple-snl-attrib $-1 -1 $445 $235 $164 1 1 1 1 1 1 1 1 1 1 1 1 0 1 0 1 1 1 @17 NEW_SIMPLE_ATTRIB 1 @9 ENTITY_ID 0 3 224 517944542 0 #
simple-snl-attrib $-1 -1 $446 $-1 $236 1 1 1 1 1 1 1 1 1 1 1 1 0 1 0 1 1 1 @17 NEW_SIMPLE_ATTRIB 1 @9 ENTITY_ID 0 3 103 -2147483648 -1 #
point $-1 -1 -1 $-1 2.364782999438622e-16 6.7283928571428602 1.9309918591099706 #
simple-snl-attrib $-1 -1 $447 $-1 $237 1 1 1 1 1 1 1 1 1 1 1 1 0 1 0 1 1 1 @17 NEW_SIMPLE_ATTRIB 1 @9 ENTITY_ID 0 3 85 -2147483648 -1 #
point $-1 -1 -1 $-1 2.364782999438622e-16 6.7283928571428602 -1.9309918591099706 #
simple-snl-attrib $-1 -1 $-1 $-1 $240 1 1 1 1 1 1 1 1 1 1 1 1 0 1 0 1 1 1 @17 NEW_SIMPLE_ATTRIB 1 @9 ENTITY_ID 0 3 11 -2147483648 -1 #
face $448 -1 -1 $-1 $-1 $255 $42 $-1 $449 forward single T 12 -12 -12 12 12 12 F #
loop $-1 -1 -1 $-1 $-1 $369 $240 T -12 12 -12 12 12 12 unknown #
plane-surface $-1 -1 -1 $-1 0 12 0 0 -1 0 0 0 -1 forward_v I I I I #
coedge $-1 -1 -1 $-1 $362 $450 $368 $451 reversed $241 $-1 #
coedge $-1 -1 -1 $-1 $243 $364 $245 $357 forward $168 $-1 #
coedge $-1 -1 -1 $-1 $450 $362 $243 $353 forward $241 $-1 #
edge $452 -1 -1 $-1 $366 -12 $453 12 $352 $454 forward @7 unknown T -12 -12 -12 -12 -12 12 #
coedge $-1 -1 -1 $-1 $245 $244 $450 $455 reversed $124 $-1 #
coedge $-1 -1 -1 $-1 $369 $368 $244 $356 forward $348 $-1 #
edge $456 -1 -1 $-1 $457 -12 $359 12 $355 $458 forward @7 unknown T -12 12 -12 12 12 -12 #
edge $459 -1 -1 $-1 $360 -12 $453 12 $351 $460 forward @7 unknown T -12 -12 -12 12 -12 -12 #
simple-snl-attrib $-1 -1 $-1 $-1 $247 1 1 1 1 1 1 1 1 1 1 1 1 0 1 0 1 1 1 @17 NEW_SIMPLE_ATTRIB 1 @9 ENTITY_ID 0 3 65 -2147483648 -1 #
vertex $461 -1 -1 $-1 $247 $462 #
vertex $463 -1 -1 $-1 $374 $464 #
straight-curve $-1 -1 -1 $-1 12 0 -12 0 -1 0 I I #
coedge $-1 -1 -1 $-1 $352 $350 $248 $363 forward $241 $-1 #
edge $465 -1 -1 $-1 $371 -12 $366 12 $362 $466 forward @7 unknown T -12 -12 12 -12 12 12 #
coedge $-1 -1 -1 $-1 $351 $249 $254 $374 forward $168 $-1 #
simple-snl-attrib $-1 -1 $-1 $-1 $250 1 1 1 1 1 1 1 1 1 1 1 1 0 1 0 1 1 1 @17 NEW_SIMPLE_ATTRIB 1 @9 ENTITY_ID 0 3 62 -2147483648 -1 #
vertex $467 -1 -1 $-1 $363 $468 #
straight-curve $-1 -1 -1 $-1 0 -12 12 1 0 0 I I #
coedge $-1 -1 -1 $-1 $355 $251 $350 $451 forward $348 $-1 #
coedge $-1 -1 -1 $-1 $251 $355 $253 $373 reversed $348 $-1 #
simple-snl-attrib $-1 -1 $-1 $-1 $252 1 1 1 1 1 1 1 1 1 1 1 1 0 1 0 1 1 1 @17 NEW_SIMPLE_ATTRIB 1 @9 ENTITY_ID 0 3 64 -2147483648 -1 #
vertex $469 -1 -1 $-1 $252 $470 #
straight-curve $-1 -1 -1 $-1 0 12 12 -1 0 0 I I #
edge $471 -1 -1 $-1 $258 -12 $359 12 $253 $472 forward @7 unknown T 12 12 -12 12 12 12 #
edge $473 -1 -1 $-1 $257 -12 $360 12 $254 $474 forward @7 unknown T 12 -12 -12 12 -12 12 #
simple-snl-attrib $-1 -1 $-1 $-1 $257 1 1 1 1 1 1 1 1 1 1 1 1 0 1 0 1 1 1 @17 NEW_SIMPLE_ATTRIB 1 @9 ENTITY_ID 0 3 41 -2147483648 -1 #
point $-1 -1 -1 $-1 12 -12 12 #
simple-snl-attrib $-1 -1 $-1 $-1 $258 1 1 1 1 1 1 1 1 1 1 1 1 0 1 0 1 1 1 @17 NEW_SIMPLE_ATTRIB 1 @9 ENTITY_ID 0 3 42 -2147483648 -1 #
point $-1 -1 -1 $-1 12 12 12 #
simple-snl-attrib $-1 -1 $-1 $-1 $261 1 1 1 1 1 1 1 1 1 1 1 1 0 1 0 1 1 1 @17 NEW_SIMPLE_ATTRIB 1 @9 ENTITY_ID 0 3 6 -2147483648 -1 #
plane-surface $-1 -1 -1 $-1 12.24 0 0 -1 0 0 0 -0 1 forward_v I I I I #
coedge $-1 -1 -1 $-1 $266 $264 $268 $386 reversed $177 $-1 #
edge $475 -1 -1 $-1 $281 -12.24 $390 12.24 $279 $476 forward @7 unknown T -12.24 12.24 -12.24 -12.24 12.24 12.24 #
simple-snl-attrib $-1 -1 $-1 $-1 $267 1 1 1 1 1 1 1 1 1 1 1 1 0 1 0 1 1 1 @17 NEW_SIMPLE_ATTRIB 1 @9 ENTITY_ID 0 3 45 -2147483648 -1 #
vertex $477 -1 -1 $-1 $386 $478 #
straight-curve $-1 -1 -1 $-1 -12.24 -12.24 0 0 0 -1 I I #
edge $479 -1 -1 $-1 $384 -12.24 $390 12.24 $381 $480 forward @7 unknown T -12.24 -12.24 -12.24 -12.24 12.24 -12.24 #
simple-snl-attrib $-1 -1 $-1 $-1 $269 1 1 1 1 1 1 1 1 1 1 1 1 0 1 0 1 1 1 @17 NEW_SIMPLE_ATTRIB 1 @9 ENTITY_ID 0 3 42 -2147483648 -1 #
straight-curve $-1 -1 -1 $-1 0 -12.24 -12.24 -1 0 0 I I #
simple-snl-attrib $-1 -1 $-1 $-1 $271 1 1 1 1 1 1 1 1 1 1 1 1 0 1 0 1 1 1 @17 NEW_SIMPLE_ATTRIB 1 @9 ENTITY_ID 0 3 44 -2147483648 -1 #
vertex $481 -1 -1 $-1 $271 $482 #
straight-curve $-1 -1 -1 $-1 0 12.24 -12.24 1 0 0 I I #
simple-snl-attrib $-1 -1 $-1 $-1 $273 1 1 1 1 1 1 1 1 1 1 1 1 0 1 0 1 1 1 @17 NEW_SIMPLE_ATTRIB 1 @9 ENTITY_ID 0 3 29 -2147483648 -1 #
point $-1 -1 -1 $-1 12.24 12.24 -12.24 #
simple-snl-attrib $-1 -1 $-1 $-1 $274 1 1 1 1 1 1 1 1 1 1 1 1 0 1 0 1 1 1 @17 NEW_SIMPLE_ATTRIB 1 @9 ENTITY_ID 0 3 30 -2147483648 -1 #
point $-1 -1 -1 $-1 12.24 -12.24 -12.24 #
simple-snl-attrib $-1 -1 $-1 $-1 $277 1 1 1 1 1 1 1 1 1 1 1 1 0 1 0 1 1 1 @17 NEW_SIMPLE_ATTRIB 1 @9 ENTITY_ID 0 3 39 -2147483648 -1 #
straight-curve $-1 -1 -1 $-1 -12.24 0 12.24 0 -1 0 I I #
simple-snl-attrib $-1 -1 $-1 $-1 $281 1 1 1 1 1 1 1 1 1 1 1 1 0 1 0 1 1 1 @17 NEW_SIMPLE_ATTRIB 1 @9 ENTITY_ID 0 3 27 -2147483648 -1 #
point $-1 -1 -1 $-1 -12.24 12.24 12.24 #
simple-snl-attrib $-1 -1 $-1 $-1 $285 1 1 1 1 1 1 1 1 1 1 1 1 0 1 0 1 1 1 @17 NEW_SIMPLE_ATTRIB 1 @9 ENTITY_ID 0 3 28 -2147483648 -1 #
point $-1 -1 -1 $-1 -12.24 -12.24 12.24 #
simple-snl-attrib $-1 -1 $-1 $-1 $287 1 1 1 1 1 1 1 1 1 1 1 1 0 1 0 1 1 1 @17 NEW_SIMPLE_ATTRIB 1 @9 ENTITY_ID 0 3 46 -2147483648 -1 #
straight-curve $-1 -1 -1 $-1 12.24 -12.24 0 0 0 -1 I I #
simple-snl-attrib $-1 -1 $-1 $-1 $288 1 1 1 1 1 1 1 1 1 1 1 1 0 1 0 1 1 1 @17 NEW_SIMPLE_ATTRIB 1 @9 ENTITY_ID 0 3 48 -2147483648 -1 #
straight-curve $-1 -1 -1 $-1 12.24 12.24 0 0 0 -1 I I #
simple-snl-attrib $-1 -1 $483 $293 $199 1 1 1 1 1 1 1 1 1 1 1 1 0 1 0 1 1 1 @17 NEW_SIMPLE_ATTRIB 1 @9 UNIQUE_ID 1 0 1 1811948375 #
simple-snl-attrib $-1 -1 $484 $294 $142 1 1 1 1 1 1 1 1 1 1 1 1 0 1 0 1 1 1 @17 NEW_SIMPLE_ATTRIB 1 @13 MERGE_PARTNER 0 4 1900038617 1 224 1 #
simple-snl-attrib $-1 -1 $485 $295 $201 1 1 1 1 1 1 1 1 1 1 1 1 0 1 0 1 1 1 @17 NEW_SIMPLE_ATTRIB 1 @13 MERGE_PARTNER 0 4 517944542 1 85 1 #
simple-snl-attrib $-1 -1 $486 $297 $202 1 1 1 1 1 1 1 1 1 1 1 1 0 1 0 1 1 1 @17 NEW_SIMPLE_ATTRIB 1 @13 MERGE_PARTNER 0 4 1012388996 1 152 0 #
simple-snl-attrib $-1 -1 $487 $-1 $301 1 1 1 1 1 1 1 1 1 1 1 1 0 1 0 1 1 1 @17 NEW_SIMPLE_ATTRIB 2 @14 SOURCE_FEATURE @7 IMPRINT 0 0 #
ellipse-curve $-1 -1 -1 $-1 0 6.7283928571428602 0 0 1 0 0 0 -1.9309918591099706 1 I I #
simple-snl-attrib $-1 -1 $488 $302 $208 1 1 1 1 1 1 1 1 1 1 1 1 0 1 0 1 1 1 @17 NEW_SIMPLE_ATTRIB 1 @9 ENTITY_ID 0 3 224 517944542 0 #
simple-snl-attrib $-1 -1 $489 $-1 $303 1 1 1 1 1 1 1 1 1 1 1 1 0 1 0 1 1 1 @17 NEW_SIMPLE_ATTRIB 1 @9 ENTITY_ID 0 3 103 -2147483648 -1 #
point $-1 -1 -1 $-1 2.364782999438622e-16 6.7283928571428602 1.9309918591099706 #
simple-snl-attrib $-1 -1 $490 $-1 $304 1 1 1 1 1 1 1 1 1 1 1 1 0 1 0 1 1 1 @17 NEW_SIMPLE_ATTRIB 1 @9 ENTITY_ID 0 3 85 -2147483648 -1 #
point $-1 -1 -1 $-1 2.364782999438622e-16 6.7283928571428602 -1.9309918591099706 #
simple-snl-attrib $-1 -1 $-1 $-1 $307 1 1 1 1 1 1 1 1 1 1 1 1 0 1 0 1 1 1 @17 NEW_SIMPLE_ATTRIB 1 @9 ENTITY_ID 0 3 25 -2147483648 -1 #
plane-surface $-1 -1 -1 $-1 12 0 0 -1 0 0 0 -0 1 forward_v I I I I #
coedge $-1 -1 -1 $-1 $312 $310 $314 $424 reversed $212 $-1 #
edge $491 -1 -1 $-1 $327 -12 $428 12 $325 $492 forward @7 unknown T -12 12 -12 -12 12 12 #
simple-snl-attrib $-1 -1 $-1 $-1 $313 1 1 1 1 1 1 1 1 1 1 1 1 0 1 0 1 1 1 @17 NEW_SIMPLE_ATTRIB 1 @9 ENTITY_ID 0 3 172 -2147483648 -1 #
vertex $493 -1 -1 $-1 $424 $494 #
straight-curve $-1 -1 -1 $-1 -12 -12 0 0 0 -1 I I #
edge $495 -1 -1 $-1 $422 -12 $428 12 $419 $496 forward @7 unknown T -12 -12 -12 -12 12 -12 #
simple-snl-attrib $-1 -1 $-1 $-1 $315 1 1 1 1 1 1 1 1 1 1 1 1 0 1 0 1 1 1 @17 NEW_SIMPLE_ATTRIB 1 @9 ENTITY_ID 0 3 169 -2147483648 -1 #
straight-curve $-1 -1 -1 $-1 0 -12 -12 -1 0 0 I I #
simple-snl-attrib $-1 -1 $-1 $-1 $317 1 1 1 1 1 1 1 1 1 1 1 1 0 1 0 1 1 1 @17 NEW_SIMPLE_ATTRIB 1 @9 ENTITY_ID 0 3 171 -2147483648 -1 #
vertex $497 -1 -1 $-1 $317 $498 #
straight-curve $-1 -1 -1 $-1 0 12 -12 1 0 0 I I #
simple-snl-attrib $-1 -1 $-1 $-1 $319 1 1 1 1 1 1 1 1 1 1 1 1 0 1 0 1 1 1 @17 NEW_SIMPLE_ATTRIB 1 @9 ENTITY_ID 0 3 116 -2147483648 -1 #
point $-1 -1 -1 $-1 12 12 -12 #
simple-snl-attrib $-1 -1 $-1 $-1 $320 1 1 1 1 1 1 1 1 1 1 1 1 0 1 0 1 1 1 @17 NEW_SIMPLE_ATTRIB 1 @9 ENTITY_ID 0 3 117 -2147483648 -1 #
point $-1 -1 -1 $-1 12 -12 -12 #
simple-snl-attrib $-1 -1 $-1 $-1 $323 1 1 1 1 1 1 1 1 1 1 1 1 0 1 0 1 1 1 @17 NEW_SIMPLE_ATTRIB 1 @9 ENTITY_ID 0 3 166 -2147483648 -1 #
straight-curve $-1 -1 -1 $-1 -12 0 12 0 -1 0 I I #
simple-snl-attrib $-1 -1 $-1 $-1 $327 1 1 1 1 1 1 1 1 1 1 1 1 0 1 0 1 1 1 @17 NEW_SIMPLE_ATTRIB 1 @9 ENTITY_ID 0 3 114 -2147483648 -1 #
point $-1 -1 -1 $-1 -12 12 12 #
simple-snl-attrib $-1 -1 $-1 $-1 $331 1 1 1 1 1 1 1 1 1 1 1 1 0 1 0 1 1 1 @17 NEW_SIMPLE_ATTRIB 1 @9 ENTITY_ID 0 3 115 -2147483648 -1 #
point $-1 -1 -1 $-1 -12 -12 12 #
simple-snl-attrib $-1 -1 $-1 $-1 $333 1 1 1 1 1 1 1 1 1 1 1 1 0 1 0 1 1 1 @17 NEW_SIMPLE_ATTRIB 1 @9 ENTITY_ID 0 3 173 -2147483648 -1 #
straight-curve $-1 -1 -1 $-1 12 -12 0 0 0 -1 I I #
simple-snl-attrib $-1 -1 $-1 $-1 $334 1 1 1 1 1 1 1 1 1 1 1 1 0 1 0 1 1 1 @17 NEW_SIMPLE_ATTRIB 1 @9 ENTITY_ID 0 3 175 -2147483648 -1 #
straight-curve $-1 -1 -1 $-1 12 12 0 0 0 -1 I I #
simple-snl-attrib $-1 -1 $499 $339 $234 1 1 1 1 1 1 1 1 1 1 1 1 0 1 0 1 1 1 @17 NEW_SIMPLE_ATTRIB 1 @9 UNIQUE_ID 1 0 1 1811948375 #
simple-snl-attrib $-1 -1 $500 $341 $164 1 1 1 1 1 1 1 1 1 1 1 1 0 1 0 1 1 1 @17 NEW_SIMPLE_ATTRIB 1 @13 MERGE_PARTNER 0 4 1900038617 -1 228 0 #
simple-snl-attrib $-1 -1 $501 $342 $236 1 1 1 1 1 1 1 1 1 1 1 1 0 1 0 1 1 1 @17 NEW_SIMPLE_ATTRIB 1 @13 MERGE_PARTNER 0 4 1012388996 1 154 0 #
simple-snl-attrib $-1 -1 $502 $344 $237 1 1 1 1 1 1 1 1 1 1 1 1 0 1 0 1 1 1 @17 NEW_SIMPLE_ATTRIB 1 @13 MERGE_PARTNER 0 4 517944542 1 155 0 #
simple-snl-attrib $-1 -1 $-1 $-1 $347 1 1 1 1 1 1 1 1 1 1 1 1 0 1 0 1 1 1 @17 NEW_SIMPLE_ATTRIB 1 @9 ENTITY_ID 0 3 12 -2147483648 -1 #
plane-surface $-1 -1 -1 $-1 12 0 0 -1 0 0 0 -0 1 forward_v I I I I #
coedge $-1 -1 -1 $-1 $350 $352 $354 $455 forward $241 $-1 #
edge $503 -1 -1 $-1 $371 -12 $457 12 $368 $504 forward @7 unknown T -12 12 -12 -12 12 12 #
simple-snl-attrib $-1 -1 $-1 $-1 $353 1 1 1 1 1 1 1 1 1 1 1 1 0 1 0 1 1 1 @17 NEW_SIMPLE_ATTRIB 1 @9 ENTITY_ID 0 3 69 -2147483648 -1 #
vertex $505 -1 -1 $-1 $455 $506 #
straight-curve $-1 -1 -1 $-1 -12 -12 0 0 0 -1 I I #
edge $507 -1 -1 $-1 $453 -12 $457 12 $450 $508 forward @7 unknown T -12 -12 -12 -12 12 -12 #
simple-snl-attrib $-1 -1 $-1 $-1 $356 1 1 1 1 1 1 1 1 1 1 1 1 0 1 0 1 1 1 @17 NEW_SIMPLE_ATTRIB 1 @9 ENTITY_ID 0 3 66 -2147483648 -1 #
vertex $509 -1 -1 $-1 $356 $510 #
straight-curve $-1 -1 -1 $-1 0 12 -12 1 0 0 I I #
simple-snl-attrib $-1 -1 $-1 $-1 $357 1 1 1 1 1 1 1 1 1 1 1 1 0 1 0 1 1 1 @17 NEW_SIMPLE_ATTRIB 1 @9 ENTITY_ID 0 3 68 -2147483648 -1 #
straight-curve $-1 -1 -1 $-1 0 -12 -12 -1 0 0 I I #
simple-snl-attrib $-1 -1 $-1 $-1 $359 1 1 1 1 1 1 1 1 1 1 1 1 0 1 0 1 1 1 @17 NEW_SIMPLE_ATTRIB 1 @9 ENTITY_ID 0 3 45 -2147483648 -1 #
point $-1 -1 -1 $-1 12 12 -12 #
simple-snl-attrib $-1 -1 $-1 $-1 $360 1 1 1 1 1 1 1 1 1 1 1 1 0 1 0 1 1 1 @17 NEW_SIMPLE_ATTRIB 1 @9 ENTITY_ID 0 3 46 -2147483648 -1 #
point $-1 -1 -1 $-1 12 -12 -12 #
simple-snl-attrib $-1 -1 $-1 $-1 $363 1 1 1 1 1 1 1 1 1 1 1 1 0 1 0 1 1 1 @17 NEW_SIMPLE_ATTRIB 1 @9 ENTITY_ID 0 3 63 -2147483648 -1 #
straight-curve $-1 -1 -1 $-1 -12 0 12 0 -1 0 I I #
simple-snl-attrib $-1 -1 $-1 $-1 $366 1 1 1 1 1 1 1 1 1 1 1 1 0 1 0 1 1 1 @17 NEW_SIMPLE_ATTRIB 1 @9 ENTITY_ID 0 3 43 -2147483648 -1 #
point $-1 -1 -1 $-1 -12 -12 12 #
simple-snl-attrib $-1 -1 $-1 $-1 $371 1 1 1 1 1 1 1 1 1 1 1 1 0 1 0 1 1 1 @17 NEW_SIMPLE_ATTRIB 1 @9 ENTITY_ID 0 3 44 -2147483648 -1 #
point $-1 -1 -1 $-1 -12 12 12 #
simple-snl-attrib $-1 -1 $-1 $-1 $373 1 1 1 1 1 1 1 1 1 1 1 1 0 1 0 1 1 1 @17 NEW_SIMPLE_ATTRIB 1 @9 ENTITY_ID 0 3 72 -2147483648 -1 #
straight-curve $-1 -1 -1 $-1 12 12 0 0 0 -1 I I #
simple-snl-attrib $-1 -1 $-1 $-1 $374 1 1 1 1 1 1 1 1 1 1 1 1 0 1 0 1 1 1 @17 NEW_SIMPLE_ATTRIB 1 @9 ENTITY_ID 0 3 70 -2147483648 -1 #
straight-curve $-1 -1 -1 $-1 12 -12 0 0 0 -1 I I #
simple-snl-attrib $-1 -1 $-1 $-1 $382 1 1 1 1 1 1 1 1 1 1 1 1 0 1 0 1 1 1 @17 NEW_SIMPLE_ATTRIB 1 @9 ENTITY_ID 0 3 47 -2147483648 -1 #
straight-curve $-1 -1 -1 $-1 -12.24 12.24 0 0 0 -1 I I #
simple-snl-attrib $-1 -1 $-1 $-1 $384 1 1 1 1 1 1 1 1 1 1 1 1 0 1 0 1 1 1 @17 NEW_SIMPLE_ATTRIB 1 @9 ENTITY_ID 0 3 31 -2147483648 -1 #
point $-1 -1 -1 $-1 -12.24 -12.24 -12.24 #
simple-snl-attrib $-1 -1 $-1 $-1 $386 1 1 1 1 1 1 1 1 1 1 1 1 0 1 0 1 1 1 @17 NEW_SIMPLE_ATTRIB 1 @9 ENTITY_ID 0 3 43 -2147483648 -1 #
straight-curve $-1 -1 -1 $-1 -12.24 0 -12.24 0 1 0 I I #
simple-snl-attrib $-1 -1 $-1 $-1 $390 1 1 1 1 1 1 1 1 1 1 1 1 0 1 0 1 1 1 @17 NEW_SIMPLE_ATTRIB 1 @9 ENTITY_ID 0 3 32 -2147483648 -1 #
point $-1 -1 -1 $-1 -12.24 12.24 -12.24 #
simple-snl-attrib $-1 -1 $511 $406 $199 1 1 1 1 1 1 1 1 1 1 1 1 0 1 0 1 1 1 @17 NEW_SIMPLE_ATTRIB 1 @9 ENTITY_ID 0 3 225 1012388996 0 #
simple-snl-attrib $-1 -1 $-1 $407 $142 1 1 1 1 1 1 1 1 1 1 1 1 0 1 0 1 1 1 @17 NEW_SIMPLE_ATTRIB 1 @9 UNIQUE_ID 1 0 1 1900038617 #
simple-snl-attrib $-1 -1 $-1 $408 $201 1 1 1 1 1 1 1 1 1 1 1 1 0 1 0 1 1 1 @17 NEW_SIMPLE_ATTRIB 1 @9 UNIQUE_ID 1 0 1 517944542 #
simple-snl-attrib $-1 -1 $-1 $409 $202 1 1 1 1 1 1 1 1 1 1 1 1 0 1 0 1 1 1 @17 NEW_SIMPLE_ATTRIB 1 @9 UNIQUE_ID 1 0 1 1012388996 #
simple-snl-attrib $-1 -1 $512 $410 $301 1 1 1 1 1 1 1 1 1 1 1 1 0 1 0 1 1 1 @17 NEW_SIMPLE_ATTRIB 1 @9 UNIQUE_ID 1 0 1 1811948375 #
simple-snl-attrib $-1 -1 $513 $412 $208 1 1 1 1 1 1 1 1 1 1 1 1 0 1 0 1 1 1 @17 NEW_SIMPLE_ATTRIB 1 @13 MERGE_PARTNER 0 4 1900038617 -1 226 0 #
simple-snl-attrib $-1 -1 $514 $413 $303 1 1 1 1 1 1 1 1 1 1 1 1 0 1 0 1 1 1 @17 NEW_SIMPLE_ATTRIB 1 @13 MERGE_PARTNER 0 4 1012388996 1 103 1 #
simple-snl-attrib $-1 -1 $515 $415 $304 1 1 1 1 1 1 1 1 1 1 1 1 0 1 0 1 1 1 @17 NEW_SIMPLE_ATTRIB 1 @13 MERGE_PARTNER 0 4 517944542 1 153 0 #
simple-snl-attrib $-1 -1 $-1 $-1 $420 1 1 1 1 1 1 1 1 1 1 1 1 0 1 0 1 1 1 @17 NEW_SIMPLE_ATTRIB 1 @9 ENTITY_ID 0 3 174 -2147483648 -1 #
straight-curve $-1 -1 -1 $-1 -12 12 0 0 0 -1 I I #
simple-snl-attrib $-1 -1 $-1 $-1 $422 1 1 1 1 1 1 1 1 1 1 1 1 0 1 0 1 1 1 @17 NEW_SIMPLE_ATTRIB 1 @9 ENTITY_ID 0 3 118 -2147483648 -1 #
point $-1 -1 -1 $-1 -12 -12 -12 #
simple-snl-attrib $-1 -1 $-1 $-1 $424 1 1 1 1 1 1 1 1 1 1 1 1 0 1 0 1 1 1 @17 NEW_SIMPLE_ATTRIB 1 @9 ENTITY_ID 0 3 170 -2147483648 -1 #
straight-curve $-1 -1 -1 $-1 -12 0 -12 0 1 0 I I #
simple-snl-attrib $-1 -1 $-1 $-1 $428 1 1 1 1 1 1 1 1 1 1 1 1 0 1 0 1 1 1 @17 NEW_SIMPLE_ATTRIB 1 @9 ENTITY_ID 0 3 119 -2147483648 -1 #
point $-1 -1 -1 $-1 -12 12 -12 #
simple-snl-attrib $-1 -1 $516 $444 $234 1 1 1 1 1 1 1 1 1 1 1 1 0 1 0 1 1 1 @17 NEW_SIMPLE_ATTRIB 1 @9 ENTITY_ID 0 3 225 1012388996 0 #
simple-snl-attrib $-1 -1 $-1 $445 $164 1 1 1 1 1 1 1 1 1 1 1 1 0 1 0 1 1 1 @17 NEW_SIMPLE_ATTRIB 1 @9 UNIQUE_ID 1 0 1 1900038617 #
simple-snl-attrib $-1 -1 $-1 $446 $236 1 1 1 1 1 1 1 1 1 1 1 1 0 1 0 1 1 1 @17 NEW_SIMPLE_ATTRIB 1 @9 UNIQUE_ID 1 0 1 1012388996 #
simple-snl-attrib $-1 -1 $-1 $447 $237 1 1 1 1 1 1 1 1 1 1 1 1 0 1 0 1 1 1 @17 NEW_SIMPLE_ATTRIB 1 @9 UNIQUE_ID 1 0 1 517944542 #
simple-snl-attrib $-1 -1 $-1 $-1 $451 1 1 1 1 1 1 1 1 1 1 1 1 0 1 0 1 1 1 @17 NEW_SIMPLE_ATTRIB 1 @9 ENTITY_ID 0 3 71 -2147483648 -1 #
straight-curve $-1 -1 -1 $-1 -12 12 0 0 0 -1 I I #
simple-snl-attrib $-1 -1 $-1 $-1 $453 1 1 1 1 1 1 1 1 1 1 1 1 0 1 0 1 1 1 @17 NEW_SIMPLE_ATTRIB 1 @9 ENTITY_ID 0 3 48 -2147483648 -1 #
point $-1 -1 -1 $-1 -12 -12 -12 #
simple-snl-attrib $-1 -1 $-1 $-1 $455 1 1 1 1 1 1 1 1 1 1 1 1 0 1 0 1 1 1 @17 NEW_SIMPLE_ATTRIB 1 @9 ENTITY_ID 0 3 67 -2147483648 -1 #
straight-curve $-1 -1 -1 $-1 -12 0 -12 0 1 0 I I #
simple-snl-attrib $-1 -1 $-1 $-1 $457 1 1 1 1 1 1 1 1 1 1 1 1 0 1 0 1 1 1 @17 NEW_SIMPLE_ATTRIB 1 @9 ENTITY_ID 0 3 47 -2147483648 -1 #
point $-1 -1 -1 $-1 -12 12 -12 #
simple-snl-attrib $-1 -1 $-1 $483 $199 1 1 1 1 1 1 1 1 1 1 1 1 0 1 0 1 1 1 @17 NEW_SIMPLE_ATTRIB 1 @13 MERGE_PARTNER 0 4 1811948375 1 225 1 #
simple-snl-attrib $-1 -1 $517 $487 $301 1 1 1 1 1 1 1 1 1 1 1 1 0 1 0 1 1 1 @17 NEW_SIMPLE_ATTRIB 1 @9 ENTITY_ID 0 3 225 1012388996 0 #
simple-snl-attrib $-1 -1 $-1 $488 $208 1 1 1 1 1 1 1 1 1 1 1 1 0 1 0 1 1 1 @17 NEW_SIMPLE_ATTRIB 1 @9 UNIQUE_ID 1 0 1 1900038617 #
simple-snl-attrib $-1 -1 $-1 $489 $303 1 1 1 1 1 1 1 1 1 1 1 1 0 1 0 1 1 1 @17 NEW_SIMPLE_ATTRIB 1 @9 UNIQUE_ID 1 0 1 1012388996 #
simple-snl-attrib $-1 -1 $-1 $490 $304 1 1 1 1 1 1 1 1 1 1 1 1 0 1 0 1 1 1 @17 NEW_SIMPLE_ATTRIB 1 @9 UNIQUE_ID 1 0 1 517944542 #
simple-snl-attrib $-1 -1 $-1 $499 $234 1 1 1 1 1 1 1 1 1 1 1 1 0 1 0 1 1 1 @17 NEW_SIMPLE_ATTRIB 1 @13 MERGE_PARTNER 0 4 1811948375 -1 229 0 #
simple-snl-attrib $-1 -1 $-1 $512 $301 1 1 1 1 1 1 1 1 1 1 1 1 0 1 0 1 1 1 @17 NEW_SIMPLE_ATTRIB 1 @13 MERGE_PARTNER 0 4 1811948375 -1 227 0 #
End-of-ACIS-data 