1600 0 5 0           
14 Cubit  (iGeom) 17 ACIS 16.0.7 Linux 24 Tue Feb 22 12:35:32 2011 
1 9.9999999999999995e-07 1e-10 
body $5 -1 -1 $-1 $6 $-1 $-1 F #
body $7 -1 -1 $-1 $8 $-1 $-1 T -5 -5 -5 5 5 5 #
body $9 -1 -1 $-1 $10 $-1 $-1 T -7 -7 -7 7 7 7 #
body $11 -1 -1 $-1 $12 $-1 $-1 T -9 -9 -9 9 9 9 #
body $13 -1 -1 $-1 $14 $-1 $-1 T -10.799999999999999 -10.799999999999999 -10.799999999999999 10.799999999999999 10.799999999999999 10.799999999999999 #
simple-snl-attrib $-1 -1 $15 $-1 $0 1 1 1 1 1 1 1 1 1 1 1 1 0 1 0 1 1 1 @17 NEW_SIMPLE_ATTRIB 1 @9 ENTITY_ID 0 3 4 -2147483648 -1 #
lump $16 -1 -1 $-1 $-1 $17 $0 F #
simple-snl-attrib $-1 -1 $18 $-1 $1 1 1 1 1 1 1 1 1 1 1 1 1 0 1 0 1 1 1 @17 NEW_SIMPLE_ATTRIB 1 @9 ENTITY_ID 0 3 26 -2147483648 -1 #
lump $19 -1 -1 $-1 $-1 $20 $1 T -5 -5 -5 5 5 5 #
simple-snl-attrib $-1 -1 $21 $-1 $2 1 1 1 1 1 1 1 1 1 1 1 1 0 1 0 1 1 1 @17 NEW_SIMPLE_ATTRIB 1 @9 ENTITY_ID 0 3 29 -2147483648 -1 #
lump $22 -1 -1 $-1 $-1 $23 $2 T -7 -7 -7 7 7 7 #
simple-snl-attrib $-1 -1 $24 $-1 $3 1 1 1 1 1 1 1 1 1 1 1 1 0 1 0 1 1 1 @17 NEW_SIMPLE_ATTRIB 1 @9 ENTITY_ID 0 3 32 -2147483648 -1 #
lump $25 -1 -1 $-1 $-1 $26 $3 T -9 -9 -9 9 9 9 #
simple-snl-attrib $-1 -1 $27 $-1 $4 1 1 1 1 1 1 1 1 1 1 1 1 0 1 0 1 1 1 @17 NEW_SIMPLE_ATTRIB 1 @9 ENTITY_ID 0 3 35 -2147483648 -1 #
lump $28 -1 -1 $-1 $-1 $29 $4 T -10.799999999999999 -10.799999999999999 -10.799999999999999 10.799999999999999 10.799999999999999 10.799999999999999 #
simple-snl-attrib $-1 -1 $-1 $5 $0 1 1 1 1 1 1 1 1 1 1 1 1 0 1 0 1 1 1 @17 NEW_SIMPLE_ATTRIB 2 @5 GROUP @9 graveyard 0 7 1 1 788576224 0 0 0 0 #
simple-snl-attrib $-1 -1 $-1 $-1 $6 1 1 1 1 1 1 1 1 1 1 1 1 0 1 0 1 1 1 @17 NEW_SIMPLE_ATTRIB 1 @9 ENTITY_ID 0 3 1 -2147483648 -1 #
shell $-1 -1 -1 $-1 $30 $-1 $31 $-1 $6 T -11.015999999999998 -11.015999999999998 -11.015999999999998 11.015999999999998 11.015999999999998 11.015999999999998 #
simple-snl-attrib $-1 -1 $32 $7 $1 1 1 1 1 1 1 1 1 1 1 1 1 0 1 0 1 1 1 @17 NEW_SIMPLE_ATTRIB 2 @5 GROUP @15 mat_1_rho_-2.25 0 7 1 2 1489564746 0 0 0 0 #
simple-snl-attrib $-1 -1 $-1 $-1 $8 1 1 1 1 1 1 1 1 1 1 1 1 0 1 0 1 1 1 @17 NEW_SIMPLE_ATTRIB 1 @9 ENTITY_ID 0 3 2 -2147483648 -1 #
shell $-1 -1 -1 $-1 $-1 $-1 $33 $-1 $8 T -5 -5 -5 5 5 5 #
simple-snl-attrib $-1 -1 $34 $9 $2 1 1 1 1 1 1 1 1 1 1 1 1 0 1 0 1 1 1 @17 NEW_SIMPLE_ATTRIB 2 @5 GROUP @15 mat_2_rho_-8.95 0 7 1 3 1286865100 0 0 0 0 #
simple-snl-attrib $-1 -1 $-1 $-1 $10 1 1 1 1 1 1 1 1 1 1 1 1 0 1 0 1 1 1 @17 NEW_SIMPLE_ATTRIB 1 @9 ENTITY_ID 0 3 3 -2147483648 -1 #
shell $-1 -1 -1 $-1 $35 $-1 $36 $-1 $10 T -7 -7 -7 7 7 7 #
simple-snl-attrib $-1 -1 $-1 $11 $3 1 1 1 1 1 1 1 1 1 1 1 1 0 1 0 1 1 1 @17 NEW_SIMPLE_ATTRIB 2 @11 ENTITY_NAME @9 MCNP_ID_3 0 0 #
simple-snl-attrib $-1 -1 $-1 $-1 $12 1 1 1 1 1 1 1 1 1 1 1 1 0 1 0 1 1 1 @17 NEW_SIMPLE_ATTRIB 1 @9 ENTITY_ID 0 3 4 -2147483648 -1 #
shell $-1 -1 -1 $-1 $37 $-1 $38 $-1 $12 T -9 -9 -9 9 9 9 #
simple-snl-attrib $-1 -1 $-1 $13 $4 1 1 1 1 1 1 1 1 1 1 1 1 0 1 0 1 1 1 @17 NEW_SIMPLE_ATTRIB 2 @11 ENTITY_NAME @9 MCNP_ID_4 0 0 #
simple-snl-attrib $-1 -1 $-1 $-1 $14 1 1 1 1 1 1 1 1 1 1 1 1 0 1 0 1 1 1 @17 NEW_SIMPLE_ATTRIB 1 @9 ENTITY_ID 0 3 5 -2147483648 -1 #
shell $-1 -1 -1 $-1 $39 $-1 $40 $-1 $14 T -10.799999999999999 -10.799999999999999 -10.799999999999999 10.799999999999999 10.799999999999999 10.799999999999999 #
shell $-1 -1 -1 $-1 $-1 $-1 $41 $-1 $6 T -10.799999999999999 -10.799999999999999 -10.799999999999999 10.799999999999999 10.799999999999999 10.799999999999999 #
face $42 -1 -1 $-1 $43 $44 $17 $-1 $45 forward single T -11.015999999999998 -11.015999999999998 11.015999999999998 11.015999999999998 11.015999999999998 11.015999999999998 F #
simple-snl-attrib $-1 -1 $-1 $18 $1 1 1 1 1 1 1 1 1 1 1 1 1 0 1 0 1 1 1 @17 NEW_SIMPLE_ATTRIB 2 @11 ENTITY_NAME @9 MCNP_ID_1 0 0 #
face $46 -1 -1 $-1 $-1 $-1 $20 $-1 $47 forward single T -5 -5 -5 5 5 5 F #
simple-snl-attrib $-1 -1 $-1 $21 $2 1 1 1 1 1 1 1 1 1 1 1 1 0 1 0 1 1 1 @17 NEW_SIMPLE_ATTRIB 2 @11 ENTITY_NAME @9 MCNP_ID_2 0 0 #
shell $-1 -1 -1 $-1 $-1 $-1 $48 $-1 $10 T -5 -5 -5 5 5 5 #
face $49 -1 -1 $-1 $-1 $-1 $23 $-1 $50 forward single T -7 -7 -7 7 7 7 F #
shell $-1 -1 -1 $-1 $-1 $-1 $51 $-1 $12 T -7 -7 -7 7 7 7 #
face $52 -1 -1 $-1 $-1 $-1 $26 $-1 $53 forward single T -9 -9 -9 9 9 9 F #
shell $-1 -1 -1 $-1 $-1 $-1 $54 $-1 $14 T -9 -9 -9 9 9 9 #
face $55 -1 -1 $-1 $56 $57 $29 $-1 $58 forward single T -10.799999999999999 -10.799999999999999 10.799999999999999 10.799999999999999 10.799999999999999 10.799999999999999 F #
face $59 -1 -1 $-1 $60 $61 $30 $-1 $62 reversed single T -10.799999999999999 -10.799999999999999 10.799999999999999 10.799999999999999 10.799999999999999 10.799999999999999 F #
simple-snl-attrib $-1 -1 $-1 $-1 $31 1 1 1 1 1 1 1 1 1 1 1 1 0 1 0 1 1 1 @17 NEW_SIMPLE_ATTRIB 1 @9 ENTITY_ID 0 3 1 -2147483648 -1 #
face $63 -1 -1 $-1 $64 $65 $17 $-1 $66 reversed single T -11.015999999999998 -11.015999999999998 -11.015999999999998 11.015999999999998 11.015999999999998 -11.015999999999998 F #
loop $-1 -1 -1 $-1 $-1 $67 $31 T -11.015999999999998 -11.015999999999998 11.015999999999998 11.015999999999998 11.015999999999998 11.015999999999998 unknown #
plane-surface $-1 -1 -1 $-1 0 0 11.015999999999998 0 0 1 1 0 0 forward_v I I I I #
simple-snl-attrib $-1 -1 $68 $-1 $33 1 1 1 1 1 1 1 1 1 1 1 1 0 1 0 1 1 1 @17 NEW_SIMPLE_ATTRIB 1 @9 UNIQUE_ID 1 0 1 110828219 #
sphere-surface $-1 -1 -1 $-1 0 0 0 5 1 0 0 0 0 1 forward_v I I I I #
face $69 -1 -1 $-1 $-1 $-1 $35 $-1 $70 reversed single T -5 -5 -5 5 5 5 F #
simple-snl-attrib $-1 -1 $71 $-1 $36 1 1 1 1 1 1 1 1 1 1 1 1 0 1 0 1 1 1 @17 NEW_SIMPLE_ATTRIB 1 @9 UNIQUE_ID 1 0 1 326294191 #
sphere-surface $-1 -1 -1 $-1 0 0 0 7 1 0 0 0 0 1 forward_v I I I I #
face $72 -1 -1 $-1 $-1 $-1 $37 $-1 $73 reversed single T -7 -7 -7 7 7 7 F #
simple-snl-attrib $-1 -1 $74 $-1 $38 1 1 1 1 1 1 1 1 1 1 1 1 0 1 0 1 1 1 @17 NEW_SIMPLE_ATTRIB 1 @9 UNIQUE_ID 1 0 1 2141899537 #
sphere-surface $-1 -1 -1 $-1 0 0 0 9 1 0 0 0 0 1 forward_v I I I I #
face $75 -1 -1 $-1 $-1 $-1 $39 $-1 $76 reversed single T -9 -9 -9 9 9 9 F #
simple-snl-attrib $-1 -1 $-1 $-1 $40 1 1 1 1 1 1 1 1 1 1 1 1 0 1 0 1 1 1 @17 NEW_SIMPLE_ATTRIB 1 @9 ENTITY_ID 0 3 18 -2147483648 -1 #
face $77 -1 -1 $-1 $78 $79 $29 $-1 $80 reversed single T -10.799999999999999 -10.799999999999999 -10.799999999999999 10.799999999999999 10.799999999999999 -10.799999999999999 F #
loop $-1 -1 -1 $-1 $-1 $81 $40 T -10.799999999999999 -10.799999999999999 10.799999999999999 10.799999999999999 10.799999999999999 10.799999999999999 unknown #
plane-surface $-1 -1 -1 $-1 0 0 10.799999999999999 0 0 1 1 0 0 forward_v I I I I #
simple-snl-attrib $-1 -1 $-1 $-1 $41 1 1 1 1 1 1 1 1 1 1 1 1 0 1 0 1 1 1 @17 NEW_SIMPLE_ATTRIB 1 @9 ENTITY_ID 0 3 7 -2147483648 -1 #
face $82 -1 -1 $-1 $83 $84 $30 $-1 $85 forward single T -10.799999999999999 -10.799999999999999 -10.799999999999999 10.799999999999999 10.799999999999999 -10.799999999999999 F #
loop $-1 -1 -1 $-1 $-1 $86 $41 T -10.799999999999999 -10.799999999999999 10.799999999999999 10.799999999999999 10.799999999999999 10.799999999999999 unknown #
plane-surface $-1 -1 -1 $-1 0 0 10.799999999999999 0 0 1 1 0 0 forward_v I I I I #
simple-snl-attrib $-1 -1 $-1 $-1 $43 1 1 1 1 1 1 1 1 1 1 1 1 0 1 0 1 1 1 @17 NEW_SIMPLE_ATTRIB 1 @9 ENTITY_ID 0 3 2 -2147483648 -1 #
face $87 -1 -1 $-1 $88 $89 $17 $-1 $90 reversed single T -11.015999999999998 -11.015999999999998 -11.015999999999998 11.015999999999998 -11.015999999999998 11.015999999999998 F #
loop $-1 -1 -1 $-1 $-1 $91 $43 T -11.015999999999998 -11.015999999999998 -11.015999999999998 11.015999999999998 11.015999999999998 -11.015999999999998 unknown #
plane-surface $-1 -1 -1 $-1 0 0 -11.015999999999998 0 0 1 1 0 0 forward_v I I I I #
coedge $-1 -1 -1 $-1 $92 $93 $94 $95 forward $44 $-1 #
simple-snl-attrib $-1 -1 $96 $46 $33 1 1 1 1 1 1 1 1 1 1 1 1 0 1 0 1 1 1 @17 NEW_SIMPLE_ATTRIB 1 @9 ENTITY_ID 0 3 13 -2147483648 -1 #
simple-snl-attrib $-1 -1 $97 $-1 $48 1 1 1 1 1 1 1 1 1 1 1 1 0 1 0 1 1 1 @17 NEW_SIMPLE_ATTRIB 1 @9 UNIQUE_ID 1 0 1 110828219 #
sphere-surface $-1 -1 -1 $-1 0 0 0 5 1 0 0 0 0 1 forward_v I I I I #
simple-snl-attrib $-1 -1 $98 $49 $36 1 1 1 1 1 1 1 1 1 1 1 1 0 1 0 1 1 1 @17 NEW_SIMPLE_ATTRIB 1 @9 ENTITY_ID 0 3 14 -2147483648 -1 #
simple-snl-attrib $-1 -1 $99 $-1 $51 1 1 1 1 1 1 1 1 1 1 1 1 0 1 0 1 1 1 @17 NEW_SIMPLE_ATTRIB 1 @9 UNIQUE_ID 1 0 1 326294191 #
sphere-surface $-1 -1 -1 $-1 0 0 0 7 1 0 0 0 0 1 forward_v I I I I #
simple-snl-attrib $-1 -1 $100 $52 $38 1 1 1 1 1 1 1 1 1 1 1 1 0 1 0 1 1 1 @17 NEW_SIMPLE_ATTRIB 1 @9 ENTITY_ID 0 3 16 -2147483648 -1 #
simple-snl-attrib $-1 -1 $101 $-1 $54 1 1 1 1 1 1 1 1 1 1 1 1 0 1 0 1 1 1 @17 NEW_SIMPLE_ATTRIB 1 @9 UNIQUE_ID 1 0 1 2141899537 #
sphere-surface $-1 -1 -1 $-1 0 0 0 9 1 0 0 0 0 1 forward_v I I I I #
simple-snl-attrib $-1 -1 $-1 $-1 $56 1 1 1 1 1 1 1 1 1 1 1 1 0 1 0 1 1 1 @17 NEW_SIMPLE_ATTRIB 1 @9 ENTITY_ID 0 3 19 -2147483648 -1 #
face $102 -1 -1 $-1 $103 $104 $29 $-1 $105 reversed single T -10.799999999999999 -10.799999999999999 -10.799999999999999 10.799999999999999 -10.799999999999999 10.799999999999999 F #
loop $-1 -1 -1 $-1 $-1 $106 $56 T -10.799999999999999 -10.799999999999999 -10.799999999999999 10.799999999999999 10.799999999999999 -10.799999999999999 unknown #
plane-surface $-1 -1 -1 $-1 0 0 -10.799999999999999 0 0 1 1 0 0 forward_v I I I I #
coedge $-1 -1 -1 $-1 $107 $108 $109 $110 forward $57 $-1 #
simple-snl-attrib $-1 -1 $-1 $-1 $60 1 1 1 1 1 1 1 1 1 1 1 1 0 1 0 1 1 1 @17 NEW_SIMPLE_ATTRIB 1 @9 ENTITY_ID 0 3 8 -2147483648 -1 #
face $111 -1 -1 $-1 $112 $113 $30 $-1 $114 forward single T -10.799999999999999 -10.799999999999999 -10.799999999999999 10.799999999999999 -10.799999999999999 10.799999999999999 F #
loop $-1 -1 -1 $-1 $-1 $115 $60 T -10.799999999999999 -10.799999999999999 -10.799999999999999 10.799999999999999 10.799999999999999 -10.799999999999999 unknown #
plane-surface $-1 -1 -1 $-1 0 0 -10.799999999999999 0 0 1 1 0 0 forward_v I I I I #
coedge $-1 -1 -1 $-1 $116 $117 $118 $119 reversed $61 $-1 #
simple-snl-attrib $-1 -1 $-1 $-1 $64 1 1 1 1 1 1 1 1 1 1 1 1 0 1 0 1 1 1 @17 NEW_SIMPLE_ATTRIB 1 @9 ENTITY_ID 0 3 3 -2147483648 -1 #
face $120 -1 -1 $-1 $121 $122 $17 $-1 $123 reversed single T -11.015999999999998 -11.015999999999998 -11.015999999999998 -11.015999999999998 11.015999999999998 11.015999999999998 F #
loop $-1 -1 -1 $-1 $-1 $124 $64 T -11.015999999999998 -11.015999999999998 -11.015999999999998 11.015999999999998 -11.015999999999998 11.015999999999998 unknown #
plane-surface $-1 -1 -1 $-1 0 -11.015999999999998 0 0 1 -0 -0 0 1 forward_v I I I I #
coedge $-1 -1 -1 $-1 $125 $126 $127 $128 forward $65 $-1 #
coedge $-1 -1 -1 $-1 $129 $67 $130 $131 forward $44 $-1 #
coedge $-1 -1 -1 $-1 $67 $129 $132 $133 forward $44 $-1 #
coedge $-1 -1 -1 $-1 $134 $135 $67 $95 reversed $136 $-1 #
edge $137 -1 -1 $-1 $138 -11.015999999999998 $139 11.015999999999998 $94 $140 forward @7 unknown T 11.015999999999998 -11.015999999999998 11.015999999999998 11.015999999999998 11.015999999999998 11.015999999999998 #
simple-snl-attrib $-1 -1 $-1 $68 $33 1 1 1 1 1 1 1 1 1 1 1 1 0 1 0 1 1 1 @17 NEW_SIMPLE_ATTRIB 1 @13 MERGE_PARTNER 0 4 110828219 1 76 1 #
simple-snl-attrib $-1 -1 $141 $69 $48 1 1 1 1 1 1 1 1 1 1 1 1 0 1 0 1 1 1 @17 NEW_SIMPLE_ATTRIB 1 @9 ENTITY_ID 0 3 13 -2147483648 -1 #
simple-snl-attrib $-1 -1 $-1 $71 $36 1 1 1 1 1 1 1 1 1 1 1 1 0 1 0 1 1 1 @17 NEW_SIMPLE_ATTRIB 1 @13 MERGE_PARTNER 0 4 326294191 1 91 1 #
simple-snl-attrib $-1 -1 $142 $72 $51 1 1 1 1 1 1 1 1 1 1 1 1 0 1 0 1 1 1 @17 NEW_SIMPLE_ATTRIB 1 @9 ENTITY_ID 0 3 14 -2147483648 -1 #
simple-snl-attrib $-1 -1 $-1 $74 $38 1 1 1 1 1 1 1 1 1 1 1 1 0 1 0 1 1 1 @17 NEW_SIMPLE_ATTRIB 1 @13 MERGE_PARTNER 0 4 2141899537 1 107 1 #
simple-snl-attrib $-1 -1 $143 $75 $54 1 1 1 1 1 1 1 1 1 1 1 1 0 1 0 1 1 1 @17 NEW_SIMPLE_ATTRIB 1 @9 ENTITY_ID 0 3 16 -2147483648 -1 #
simple-snl-attrib $-1 -1 $-1 $-1 $78 1 1 1 1 1 1 1 1 1 1 1 1 0 1 0 1 1 1 @17 NEW_SIMPLE_ATTRIB 1 @9 ENTITY_ID 0 3 20 -2147483648 -1 #
face $144 -1 -1 $-1 $145 $146 $29 $-1 $147 reversed single T -10.799999999999999 -10.799999999999999 -10.799999999999999 -10.799999999999999 10.799999999999999 10.799999999999999 F #
loop $-1 -1 -1 $-1 $-1 $148 $78 T -10.799999999999999 -10.799999999999999 -10.799999999999999 10.799999999999999 -10.799999999999999 10.799999999999999 unknown #
plane-surface $-1 -1 -1 $-1 0 -10.799999999999999 0 0 1 -0 -0 0 1 forward_v I I I I #
coedge $-1 -1 -1 $-1 $149 $150 $151 $152 forward $79 $-1 #
coedge $-1 -1 -1 $-1 $153 $81 $154 $155 forward $57 $-1 #
coedge $-1 -1 -1 $-1 $81 $153 $156 $157 forward $57 $-1 #
coedge $-1 -1 -1 $-1 $158 $159 $81 $110 reversed $160 $-1 #
edge $161 -1 -1 $-1 $162 -10.799999999999999 $163 10.799999999999999 $109 $164 forward @7 unknown T 10.799999999999999 -10.799999999999999 10.799999999999999 10.799999999999999 10.799999999999999 10.799999999999999 #
simple-snl-attrib $-1 -1 $-1 $-1 $83 1 1 1 1 1 1 1 1 1 1 1 1 0 1 0 1 1 1 @17 NEW_SIMPLE_ATTRIB 1 @9 ENTITY_ID 0 3 9 -2147483648 -1 #
face $165 -1 -1 $-1 $166 $167 $30 $-1 $168 forward single T -10.799999999999999 -10.799999999999999 -10.799999999999999 -10.799999999999999 10.799999999999999 10.799999999999999 F #
loop $-1 -1 -1 $-1 $-1 $169 $83 T -10.799999999999999 -10.799999999999999 -10.799999999999999 10.799999999999999 -10.799999999999999 10.799999999999999 unknown #
plane-surface $-1 -1 -1 $-1 0 -10.799999999999999 0 0 1 -0 -0 0 1 forward_v I I I I #
coedge $-1 -1 -1 $-1 $170 $171 $172 $173 reversed $84 $-1 #
coedge $-1 -1 -1 $-1 $174 $86 $175 $176 reversed $61 $-1 #
coedge $-1 -1 -1 $-1 $86 $174 $177 $178 reversed $61 $-1 #
coedge $-1 -1 -1 $-1 $179 $180 $86 $119 forward $181 $-1 #
edge $182 -1 -1 $-1 $183 -10.799999999999999 $184 10.799999999999999 $118 $185 forward @7 unknown T 10.799999999999999 -10.799999999999999 10.799999999999999 10.799999999999999 10.799999999999999 10.799999999999999 #
simple-snl-attrib $-1 -1 $-1 $-1 $88 1 1 1 1 1 1 1 1 1 1 1 1 0 1 0 1 1 1 @17 NEW_SIMPLE_ATTRIB 1 @9 ENTITY_ID 0 3 4 -2147483648 -1 #
face $186 -1 -1 $-1 $187 $188 $17 $-1 $189 reversed single T -11.015999999999998 11.015999999999998 -11.015999999999998 11.015999999999998 11.015999999999998 11.015999999999998 F #
loop $-1 -1 -1 $-1 $-1 $190 $88 T -11.015999999999998 -11.015999999999998 -11.015999999999998 -11.015999999999998 11.015999999999998 11.015999999999998 unknown #
plane-surface $-1 -1 -1 $-1 -11.015999999999998 0 0 1 0 0 0 0 -1 forward_v I I I I #
coedge $-1 -1 -1 $-1 $191 $132 $192 $193 forward $89 $-1 #
coedge $-1 -1 -1 $-1 $194 $91 $191 $195 forward $65 $-1 #
coedge $-1 -1 -1 $-1 $91 $194 $196 $197 forward $65 $-1 #
coedge $-1 -1 -1 $-1 $135 $134 $91 $128 reversed $136 $-1 #
edge $198 -1 -1 $-1 $199 -11.015999999999998 $200 11.015999999999998 $127 $201 forward @7 unknown T 11.015999999999998 -11.015999999999998 -11.015999999999998 11.015999999999998 11.015999999999998 -11.015999999999998 #
coedge $-1 -1 -1 $-1 $93 $92 $202 $203 forward $44 $-1 #
coedge $-1 -1 -1 $-1 $204 $205 $92 $131 reversed $188 $-1 #
edge $206 -1 -1 $-1 $139 -11.015999999999998 $207 11.015999999999998 $130 $208 forward @7 unknown T -11.015999999999998 11.015999999999998 11.015999999999998 11.015999999999998 11.015999999999998 11.015999999999998 #
coedge $-1 -1 -1 $-1 $124 $209 $93 $133 reversed $89 $-1 #
edge $210 -1 -1 $-1 $211 -11.015999999999998 $138 11.015999999999998 $132 $212 forward @7 unknown T -11.015999999999998 -11.015999999999998 11.015999999999998 11.015999999999998 -11.015999999999998 11.015999999999998 #
coedge $-1 -1 -1 $-1 $127 $94 $209 $213 forward $136 $-1 #
coedge $-1 -1 -1 $-1 $94 $127 $204 $214 reversed $136 $-1 #
loop $-1 -1 -1 $-1 $-1 $134 $187 T 11.015999999999998 -11.015999999999998 -11.015999999999998 11.015999999999998 11.015999999999998 11.015999999999998 unknown #
simple-snl-attrib $-1 -1 $-1 $-1 $95 1 1 1 1 1 1 1 1 1 1 1 1 0 1 0 1 1 1 @17 NEW_SIMPLE_ATTRIB 1 @9 ENTITY_ID 0 3 37 -2147483648 -1 #
vertex $215 -1 -1 $-1 $95 $216 #
vertex $217 -1 -1 $-1 $95 $218 #
straight-curve $-1 -1 -1 $-1 11.015999999999998 0 11.015999999999998 0 1 0 I I #
simple-snl-attrib $-1 -1 $-1 $97 $48 1 1 1 1 1 1 1 1 1 1 1 1 0 1 0 1 1 1 @17 NEW_SIMPLE_ATTRIB 1 @13 MERGE_PARTNER 0 4 110828219 -1 15 0 #
simple-snl-attrib $-1 -1 $-1 $99 $51 1 1 1 1 1 1 1 1 1 1 1 1 0 1 0 1 1 1 @17 NEW_SIMPLE_ATTRIB 1 @13 MERGE_PARTNER 0 4 326294191 -1 17 0 #
simple-snl-attrib $-1 -1 $-1 $101 $54 1 1 1 1 1 1 1 1 1 1 1 1 0 1 0 1 1 1 @17 NEW_SIMPLE_ATTRIB 1 @13 MERGE_PARTNER 0 4 2141899537 -1 24 0 #
simple-snl-attrib $-1 -1 $-1 $-1 $103 1 1 1 1 1 1 1 1 1 1 1 1 0 1 0 1 1 1 @17 NEW_SIMPLE_ATTRIB 1 @9 ENTITY_ID 0 3 21 -2147483648 -1 #
face $219 -1 -1 $-1 $220 $221 $29 $-1 $222 reversed single T -10.799999999999999 10.799999999999999 -10.799999999999999 10.799999999999999 10.799999999999999 10.799999999999999 F #
loop $-1 -1 -1 $-1 $-1 $223 $103 T -10.799999999999999 -10.799999999999999 -10.799999999999999 -10.799999999999999 10.799999999999999 10.799999999999999 unknown #
plane-surface $-1 -1 -1 $-1 -10.799999999999999 0 0 1 0 0 0 0 -1 forward_v I I I I #
coedge $-1 -1 -1 $-1 $224 $156 $225 $226 forward $104 $-1 #
coedge $-1 -1 -1 $-1 $227 $106 $224 $228 forward $79 $-1 #
coedge $-1 -1 -1 $-1 $106 $227 $229 $230 forward $79 $-1 #
coedge $-1 -1 -1 $-1 $159 $158 $106 $152 reversed $160 $-1 #
edge $231 -1 -1 $-1 $232 -10.799999999999999 $233 10.799999999999999 $151 $234 forward @7 unknown T 10.799999999999999 -10.799999999999999 -10.799999999999999 10.799999999999999 10.799999999999999 -10.799999999999999 #
coedge $-1 -1 -1 $-1 $108 $107 $235 $236 forward $57 $-1 #
coedge $-1 -1 -1 $-1 $237 $238 $107 $155 reversed $221 $-1 #
edge $239 -1 -1 $-1 $163 -10.799999999999999 $240 10.799999999999999 $154 $241 forward @7 unknown T -10.799999999999999 10.799999999999999 10.799999999999999 10.799999999999999 10.799999999999999 10.799999999999999 #
coedge $-1 -1 -1 $-1 $148 $242 $108 $157 reversed $104 $-1 #
edge $243 -1 -1 $-1 $244 -10.799999999999999 $162 10.799999999999999 $156 $245 forward @7 unknown T -10.799999999999999 -10.799999999999999 10.799999999999999 10.799999999999999 -10.799999999999999 10.799999999999999 #
coedge $-1 -1 -1 $-1 $151 $109 $242 $246 forward $160 $-1 #
coedge $-1 -1 -1 $-1 $109 $151 $237 $247 reversed $160 $-1 #
loop $-1 -1 -1 $-1 $-1 $158 $220 T 10.799999999999999 -10.799999999999999 -10.799999999999999 10.799999999999999 10.799999999999999 10.799999999999999 unknown #
simple-snl-attrib $-1 -1 $-1 $-1 $110 1 1 1 1 1 1 1 1 1 1 1 1 0 1 0 1 1 1 @17 NEW_SIMPLE_ATTRIB 1 @9 ENTITY_ID 0 3 157 -2147483648 -1 #
vertex $248 -1 -1 $-1 $110 $249 #
vertex $250 -1 -1 $-1 $110 $251 #
straight-curve $-1 -1 -1 $-1 10.799999999999999 0 10.799999999999999 0 1 0 I I #
simple-snl-attrib $-1 -1 $-1 $-1 $112 1 1 1 1 1 1 1 1 1 1 1 1 0 1 0 1 1 1 @17 NEW_SIMPLE_ATTRIB 1 @9 ENTITY_ID 0 3 10 -2147483648 -1 #
face $252 -1 -1 $-1 $253 $254 $30 $-1 $255 forward single T -10.799999999999999 10.799999999999999 -10.799999999999999 10.799999999999999 10.799999999999999 10.799999999999999 F #
loop $-1 -1 -1 $-1 $-1 $256 $112 T -10.799999999999999 -10.799999999999999 -10.799999999999999 -10.799999999999999 10.799999999999999 10.799999999999999 unknown #
plane-surface $-1 -1 -1 $-1 -10.799999999999999 0 0 1 0 0 0 0 -1 forward_v I I I I #
coedge $-1 -1 -1 $-1 $175 $257 $258 $259 reversed $113 $-1 #
coedge $-1 -1 -1 $-1 $260 $115 $261 $262 reversed $84 $-1 #
coedge $-1 -1 -1 $-1 $115 $260 $257 $263 reversed $84 $-1 #
coedge $-1 -1 -1 $-1 $180 $179 $115 $173 forward $181 $-1 #
edge $264 -1 -1 $-1 $265 -10.799999999999999 $266 10.799999999999999 $172 $267 forward @7 unknown T 10.799999999999999 -10.799999999999999 -10.799999999999999 10.799999999999999 10.799999999999999 -10.799999999999999 #
coedge $-1 -1 -1 $-1 $117 $116 $268 $269 reversed $61 $-1 #
coedge $-1 -1 -1 $-1 $270 $169 $116 $176 forward $113 $-1 #
edge $271 -1 -1 $-1 $272 -10.799999999999999 $183 10.799999999999999 $175 $273 forward @7 unknown T -10.799999999999999 -10.799999999999999 10.799999999999999 10.799999999999999 -10.799999999999999 10.799999999999999 #
coedge $-1 -1 -1 $-1 $274 $275 $117 $178 forward $254 $-1 #
edge $276 -1 -1 $-1 $184 -10.799999999999999 $277 10.799999999999999 $177 $278 forward @7 unknown T -10.799999999999999 10.799999999999999 10.799999999999999 10.799999999999999 10.799999999999999 10.799999999999999 #
coedge $-1 -1 -1 $-1 $172 $118 $275 $279 forward $181 $-1 #
coedge $-1 -1 -1 $-1 $118 $172 $270 $280 reversed $181 $-1 #
loop $-1 -1 -1 $-1 $-1 $180 $253 T 10.799999999999999 -10.799999999999999 -10.799999999999999 10.799999999999999 10.799999999999999 10.799999999999999 unknown #
simple-snl-attrib $-1 -1 $-1 $-1 $119 1 1 1 1 1 1 1 1 1 1 1 1 0 1 0 1 1 1 @17 NEW_SIMPLE_ATTRIB 1 @9 ENTITY_ID 0 3 61 -2147483648 -1 #
vertex $281 -1 -1 $-1 $119 $282 #
vertex $283 -1 -1 $-1 $119 $284 #
straight-curve $-1 -1 -1 $-1 10.799999999999999 0 10.799999999999999 0 1 0 I I #
simple-snl-attrib $-1 -1 $-1 $-1 $121 1 1 1 1 1 1 1 1 1 1 1 1 0 1 0 1 1 1 @17 NEW_SIMPLE_ATTRIB 1 @9 ENTITY_ID 0 3 5 -2147483648 -1 #
face $285 -1 -1 $-1 $-1 $136 $17 $-1 $286 reversed single T 11.015999999999998 -11.015999999999998 -11.015999999999998 11.015999999999998 11.015999999999998 11.015999999999998 F #
loop $-1 -1 -1 $-1 $-1 $204 $121 T -11.015999999999998 11.015999999999998 -11.015999999999998 11.015999999999998 11.015999999999998 11.015999999999998 unknown #
plane-surface $-1 -1 -1 $-1 0 11.015999999999998 0 0 -1 0 0 0 -1 forward_v I I I I #
coedge $-1 -1 -1 $-1 $287 $202 $205 $288 forward $122 $-1 #
coedge $-1 -1 -1 $-1 $209 $124 $125 $195 reversed $89 $-1 #
coedge $-1 -1 -1 $-1 $202 $287 $124 $193 reversed $122 $-1 #
edge $289 -1 -1 $-1 $211 -11.015999999999998 $290 11.015999999999998 $192 $291 forward @7 unknown T -11.015999999999998 -11.015999999999998 -11.015999999999998 -11.015999999999998 -11.015999999999998 11.015999999999998 #
coedge $-1 -1 -1 $-1 $126 $125 $287 $292 forward $65 $-1 #
edge $293 -1 -1 $-1 $200 -11.015999999999998 $290 11.015999999999998 $191 $294 forward @7 unknown T -11.015999999999998 -11.015999999999998 -11.015999999999998 11.015999999999998 -11.015999999999998 -11.015999999999998 #
coedge $-1 -1 -1 $-1 $205 $204 $126 $197 reversed $188 $-1 #
edge $295 -1 -1 $-1 $296 -11.015999999999998 $199 11.015999999999998 $196 $297 forward @7 unknown T -11.015999999999998 11.015999999999998 -11.015999999999998 11.015999999999998 11.015999999999998 -11.015999999999998 #
simple-snl-attrib $-1 -1 $-1 $-1 $128 1 1 1 1 1 1 1 1 1 1 1 1 0 1 0 1 1 1 @17 NEW_SIMPLE_ATTRIB 1 @9 ENTITY_ID 0 3 41 -2147483648 -1 #
vertex $298 -1 -1 $-1 $128 $299 #
vertex $300 -1 -1 $-1 $213 $301 #
straight-curve $-1 -1 -1 $-1 11.015999999999998 0 -11.015999999999998 0 -1 0 I I #
coedge $-1 -1 -1 $-1 $190 $192 $129 $203 reversed $122 $-1 #
edge $302 -1 -1 $-1 $207 -11.015999999999998 $211 11.015999999999998 $202 $303 forward @7 unknown T -11.015999999999998 -11.015999999999998 11.015999999999998 -11.015999999999998 11.015999999999998 11.015999999999998 #
coedge $-1 -1 -1 $-1 $196 $130 $135 $214 forward $188 $-1 #
coedge $-1 -1 -1 $-1 $130 $196 $190 $288 reversed $188 $-1 #
simple-snl-attrib $-1 -1 $-1 $-1 $131 1 1 1 1 1 1 1 1 1 1 1 1 0 1 0 1 1 1 @17 NEW_SIMPLE_ATTRIB 1 @9 ENTITY_ID 0 3 38 -2147483648 -1 #
vertex $304 -1 -1 $-1 $131 $305 #
straight-curve $-1 -1 -1 $-1 0 11.015999999999998 11.015999999999998 -1 0 0 I I #
coedge $-1 -1 -1 $-1 $132 $191 $134 $213 reversed $89 $-1 #
simple-snl-attrib $-1 -1 $-1 $-1 $133 1 1 1 1 1 1 1 1 1 1 1 1 0 1 0 1 1 1 @17 NEW_SIMPLE_ATTRIB 1 @9 ENTITY_ID 0 3 40 -2147483648 -1 #
vertex $306 -1 -1 $-1 $203 $307 #
straight-curve $-1 -1 -1 $-1 0 -11.015999999999998 11.015999999999998 1 0 0 I I #
edge $308 -1 -1 $-1 $138 -11.015999999999998 $200 11.015999999999998 $134 $309 forward @7 unknown T 11.015999999999998 -11.015999999999998 -11.015999999999998 11.015999999999998 -11.015999999999998 11.015999999999998 #
edge $310 -1 -1 $-1 $139 -11.015999999999998 $199 11.015999999999998 $135 $311 forward @7 unknown T 11.015999999999998 11.015999999999998 -11.015999999999998 11.015999999999998 11.015999999999998 11.015999999999998 #
simple-snl-attrib $-1 -1 $-1 $-1 $138 1 1 1 1 1 1 1 1 1 1 1 1 0 1 0 1 1 1 @17 NEW_SIMPLE_ATTRIB 1 @9 ENTITY_ID 0 3 25 -2147483648 -1 #
point $-1 -1 -1 $-1 11.015999999999998 -11.015999999999998 11.015999999999998 #
simple-snl-attrib $-1 -1 $-1 $-1 $139 1 1 1 1 1 1 1 1 1 1 1 1 0 1 0 1 1 1 @17 NEW_SIMPLE_ATTRIB 1 @9 ENTITY_ID 0 3 26 -2147483648 -1 #
point $-1 -1 -1 $-1 11.015999999999998 11.015999999999998 11.015999999999998 #
simple-snl-attrib $-1 -1 $-1 $-1 $145 1 1 1 1 1 1 1 1 1 1 1 1 0 1 0 1 1 1 @17 NEW_SIMPLE_ATTRIB 1 @9 ENTITY_ID 0 3 22 -2147483648 -1 #
face $312 -1 -1 $-1 $-1 $160 $29 $-1 $313 reversed single T 10.799999999999999 -10.799999999999999 -10.799999999999999 10.799999999999999 10.799999999999999 10.799999999999999 F #
loop $-1 -1 -1 $-1 $-1 $237 $145 T -10.799999999999999 10.799999999999999 -10.799999999999999 10.799999999999999 10.799999999999999 10.799999999999999 unknown #
plane-surface $-1 -1 -1 $-1 0 10.799999999999999 0 0 -1 0 0 0 -1 forward_v I I I I #
coedge $-1 -1 -1 $-1 $314 $235 $238 $315 forward $146 $-1 #
coedge $-1 -1 -1 $-1 $242 $148 $149 $228 reversed $104 $-1 #
coedge $-1 -1 -1 $-1 $235 $314 $148 $226 reversed $146 $-1 #
edge $316 -1 -1 $-1 $244 -10.799999999999999 $317 10.799999999999999 $225 $318 forward @7 unknown T -10.799999999999999 -10.799999999999999 -10.799999999999999 -10.799999999999999 -10.799999999999999 10.799999999999999 #
coedge $-1 -1 -1 $-1 $150 $149 $314 $319 forward $79 $-1 #
edge $320 -1 -1 $-1 $233 -10.799999999999999 $317 10.799999999999999 $224 $321 forward @7 unknown T -10.799999999999999 -10.799999999999999 -10.799999999999999 10.799999999999999 -10.799999999999999 -10.799999999999999 #
coedge $-1 -1 -1 $-1 $238 $237 $150 $230 reversed $221 $-1 #
edge $322 -1 -1 $-1 $323 -10.799999999999999 $232 10.799999999999999 $229 $324 forward @7 unknown T -10.799999999999999 10.799999999999999 -10.799999999999999 10.799999999999999 10.799999999999999 -10.799999999999999 #
simple-snl-attrib $-1 -1 $-1 $-1 $152 1 1 1 1 1 1 1 1 1 1 1 1 0 1 0 1 1 1 @17 NEW_SIMPLE_ATTRIB 1 @9 ENTITY_ID 0 3 161 -2147483648 -1 #
vertex $325 -1 -1 $-1 $152 $326 #
vertex $327 -1 -1 $-1 $246 $328 #
straight-curve $-1 -1 -1 $-1 10.799999999999999 0 -10.799999999999999 0 -1 0 I I #
coedge $-1 -1 -1 $-1 $223 $225 $153 $236 reversed $146 $-1 #
edge $329 -1 -1 $-1 $240 -10.799999999999999 $244 10.799999999999999 $235 $330 forward @7 unknown T -10.799999999999999 -10.799999999999999 10.799999999999999 -10.799999999999999 10.799999999999999 10.799999999999999 #
coedge $-1 -1 -1 $-1 $229 $154 $159 $247 forward $221 $-1 #
coedge $-1 -1 -1 $-1 $154 $229 $223 $315 reversed $221 $-1 #
simple-snl-attrib $-1 -1 $-1 $-1 $155 1 1 1 1 1 1 1 1 1 1 1 1 0 1 0 1 1 1 @17 NEW_SIMPLE_ATTRIB 1 @9 ENTITY_ID 0 3 158 -2147483648 -1 #
vertex $331 -1 -1 $-1 $155 $332 #
straight-curve $-1 -1 -1 $-1 0 10.799999999999999 10.799999999999999 -1 0 0 I I #
coedge $-1 -1 -1 $-1 $156 $224 $158 $246 reversed $104 $-1 #
simple-snl-attrib $-1 -1 $-1 $-1 $157 1 1 1 1 1 1 1 1 1 1 1 1 0 1 0 1 1 1 @17 NEW_SIMPLE_ATTRIB 1 @9 ENTITY_ID 0 3 160 -2147483648 -1 #
vertex $333 -1 -1 $-1 $236 $334 #
straight-curve $-1 -1 -1 $-1 0 -10.799999999999999 10.799999999999999 1 0 0 I I #
edge $335 -1 -1 $-1 $162 -10.799999999999999 $233 10.799999999999999 $158 $336 forward @7 unknown T 10.799999999999999 -10.799999999999999 -10.799999999999999 10.799999999999999 -10.799999999999999 10.799999999999999 #
edge $337 -1 -1 $-1 $163 -10.799999999999999 $232 10.799999999999999 $159 $338 forward @7 unknown T 10.799999999999999 10.799999999999999 -10.799999999999999 10.799999999999999 10.799999999999999 10.799999999999999 #
simple-snl-attrib $-1 -1 $-1 $-1 $162 1 1 1 1 1 1 1 1 1 1 1 1 0 1 0 1 1 1 @17 NEW_SIMPLE_ATTRIB 1 @9 ENTITY_ID 0 3 105 -2147483648 -1 #
point $-1 -1 -1 $-1 10.799999999999999 -10.799999999999999 10.799999999999999 #
simple-snl-attrib $-1 -1 $-1 $-1 $163 1 1 1 1 1 1 1 1 1 1 1 1 0 1 0 1 1 1 @17 NEW_SIMPLE_ATTRIB 1 @9 ENTITY_ID 0 3 106 -2147483648 -1 #
point $-1 -1 -1 $-1 10.799999999999999 10.799999999999999 10.799999999999999 #
simple-snl-attrib $-1 -1 $-1 $-1 $166 1 1 1 1 1 1 1 1 1 1 1 1 0 1 0 1 1 1 @17 NEW_SIMPLE_ATTRIB 1 @9 ENTITY_ID 0 3 11 -2147483648 -1 #
face $339 -1 -1 $-1 $-1 $181 $30 $-1 $340 forward single T 10.799999999999999 -10.799999999999999 -10.799999999999999 10.799999999999999 10.799999999999999 10.799999999999999 F #
loop $-1 -1 -1 $-1 $-1 $275 $166 T -10.799999999999999 10.799999999999999 -10.799999999999999 10.799999999999999 10.799999999999999 10.799999999999999 unknown #
plane-surface $-1 -1 -1 $-1 0 10.799999999999999 0 0 -1 0 0 0 -1 forward_v I I I I #
coedge $-1 -1 -1 $-1 $268 $341 $274 $342 reversed $167 $-1 #
coedge $-1 -1 -1 $-1 $169 $270 $171 $263 forward $113 $-1 #
coedge $-1 -1 -1 $-1 $341 $268 $169 $259 forward $167 $-1 #
edge $343 -1 -1 $-1 $272 -10.799999999999999 $344 10.799999999999999 $258 $345 forward @7 unknown T -10.799999999999999 -10.799999999999999 -10.799999999999999 -10.799999999999999 -10.799999999999999 10.799999999999999 #
coedge $-1 -1 -1 $-1 $171 $170 $341 $346 reversed $84 $-1 #
coedge $-1 -1 -1 $-1 $275 $274 $170 $262 forward $254 $-1 #
edge $347 -1 -1 $-1 $348 -10.799999999999999 $265 10.799999999999999 $261 $349 forward @7 unknown T -10.799999999999999 10.799999999999999 -10.799999999999999 10.799999999999999 10.799999999999999 -10.799999999999999 #
edge $350 -1 -1 $-1 $266 -10.799999999999999 $344 10.799999999999999 $257 $351 forward @7 unknown T -10.799999999999999 -10.799999999999999 -10.799999999999999 10.799999999999999 -10.799999999999999 -10.799999999999999 #
simple-snl-attrib $-1 -1 $-1 $-1 $173 1 1 1 1 1 1 1 1 1 1 1 1 0 1 0 1 1 1 @17 NEW_SIMPLE_ATTRIB 1 @9 ENTITY_ID 0 3 65 -2147483648 -1 #
vertex $352 -1 -1 $-1 $173 $353 #
vertex $354 -1 -1 $-1 $280 $355 #
straight-curve $-1 -1 -1 $-1 10.799999999999999 0 -10.799999999999999 0 -1 0 I I #
coedge $-1 -1 -1 $-1 $258 $256 $174 $269 forward $167 $-1 #
edge $356 -1 -1 $-1 $277 -10.799999999999999 $272 10.799999999999999 $268 $357 forward @7 unknown T -10.799999999999999 -10.799999999999999 10.799999999999999 -10.799999999999999 10.799999999999999 10.799999999999999 #
coedge $-1 -1 -1 $-1 $257 $175 $180 $280 forward $113 $-1 #
simple-snl-attrib $-1 -1 $-1 $-1 $176 1 1 1 1 1 1 1 1 1 1 1 1 0 1 0 1 1 1 @17 NEW_SIMPLE_ATTRIB 1 @9 ENTITY_ID 0 3 62 -2147483648 -1 #
vertex $358 -1 -1 $-1 $269 $359 #
straight-curve $-1 -1 -1 $-1 0 -10.799999999999999 10.799999999999999 1 0 0 I I #
coedge $-1 -1 -1 $-1 $261 $177 $256 $342 forward $254 $-1 #
coedge $-1 -1 -1 $-1 $177 $261 $179 $279 reversed $254 $-1 #
simple-snl-attrib $-1 -1 $-1 $-1 $178 1 1 1 1 1 1 1 1 1 1 1 1 0 1 0 1 1 1 @17 NEW_SIMPLE_ATTRIB 1 @9 ENTITY_ID 0 3 64 -2147483648 -1 #
vertex $360 -1 -1 $-1 $178 $361 #
straight-curve $-1 -1 -1 $-1 0 10.799999999999999 10.799999999999999 -1 0 0 I I #
edge $362 -1 -1 $-1 $184 -10.799999999999999 $265 10.799999999999999 $179 $363 forward @7 unknown T 10.799999999999999 10.799999999999999 -10.799999999999999 10.799999999999999 10.799999999999999 10.799999999999999 #
edge $364 -1 -1 $-1 $183 -10.799999999999999 $266 10.799999999999999 $180 $365 forward @7 unknown T 10.799999999999999 -10.799999999999999 -10.799999999999999 10.799999999999999 -10.799999999999999 10.799999999999999 #
simple-snl-attrib $-1 -1 $-1 $-1 $183 1 1 1 1 1 1 1 1 1 1 1 1 0 1 0 1 1 1 @17 NEW_SIMPLE_ATTRIB 1 @9 ENTITY_ID 0 3 41 -2147483648 -1 #
point $-1 -1 -1 $-1 10.799999999999999 -10.799999999999999 10.799999999999999 #
simple-snl-attrib $-1 -1 $-1 $-1 $184 1 1 1 1 1 1 1 1 1 1 1 1 0 1 0 1 1 1 @17 NEW_SIMPLE_ATTRIB 1 @9 ENTITY_ID 0 3 42 -2147483648 -1 #
point $-1 -1 -1 $-1 10.799999999999999 10.799999999999999 10.799999999999999 #
simple-snl-attrib $-1 -1 $-1 $-1 $187 1 1 1 1 1 1 1 1 1 1 1 1 0 1 0 1 1 1 @17 NEW_SIMPLE_ATTRIB 1 @9 ENTITY_ID 0 3 6 -2147483648 -1 #
plane-surface $-1 -1 -1 $-1 11.015999999999998 0 0 -1 0 0 0 -0 1 forward_v I I I I #
coedge $-1 -1 -1 $-1 $192 $190 $194 $292 reversed $122 $-1 #
edge $366 -1 -1 $-1 $207 -11.015999999999998 $296 11.015999999999998 $205 $367 forward @7 unknown T -11.015999999999998 11.015999999999998 -11.015999999999998 -11.015999999999998 11.015999999999998 11.015999999999998 #
simple-snl-attrib $-1 -1 $-1 $-1 $193 1 1 1 1 1 1 1 1 1 1 1 1 0 1 0 1 1 1 @17 NEW_SIMPLE_ATTRIB 1 @9 ENTITY_ID 0 3 45 -2147483648 -1 #
vertex $368 -1 -1 $-1 $292 $369 #
straight-curve $-1 -1 -1 $-1 -11.015999999999998 -11.015999999999998 0 0 0 -1 I I #
edge $370 -1 -1 $-1 $290 -11.015999999999998 $296 11.015999999999998 $287 $371 forward @7 unknown T -11.015999999999998 -11.015999999999998 -11.015999999999998 -11.015999999999998 11.015999999999998 -11.015999999999998 #
simple-snl-attrib $-1 -1 $-1 $-1 $195 1 1 1 1 1 1 1 1 1 1 1 1 0 1 0 1 1 1 @17 NEW_SIMPLE_ATTRIB 1 @9 ENTITY_ID 0 3 42 -2147483648 -1 #
straight-curve $-1 -1 -1 $-1 0 -11.015999999999998 -11.015999999999998 -1 0 0 I I #
simple-snl-attrib $-1 -1 $-1 $-1 $197 1 1 1 1 1 1 1 1 1 1 1 1 0 1 0 1 1 1 @17 NEW_SIMPLE_ATTRIB 1 @9 ENTITY_ID 0 3 44 -2147483648 -1 #
vertex $372 -1 -1 $-1 $197 $373 #
straight-curve $-1 -1 -1 $-1 0 11.015999999999998 -11.015999999999998 1 0 0 I I #
simple-snl-attrib $-1 -1 $-1 $-1 $199 1 1 1 1 1 1 1 1 1 1 1 1 0 1 0 1 1 1 @17 NEW_SIMPLE_ATTRIB 1 @9 ENTITY_ID 0 3 29 -2147483648 -1 #
point $-1 -1 -1 $-1 11.015999999999998 11.015999999999998 -11.015999999999998 #
simple-snl-attrib $-1 -1 $-1 $-1 $200 1 1 1 1 1 1 1 1 1 1 1 1 0 1 0 1 1 1 @17 NEW_SIMPLE_ATTRIB 1 @9 ENTITY_ID 0 3 30 -2147483648 -1 #
point $-1 -1 -1 $-1 11.015999999999998 -11.015999999999998 -11.015999999999998 #
simple-snl-attrib $-1 -1 $-1 $-1 $203 1 1 1 1 1 1 1 1 1 1 1 1 0 1 0 1 1 1 @17 NEW_SIMPLE_ATTRIB 1 @9 ENTITY_ID 0 3 39 -2147483648 -1 #
straight-curve $-1 -1 -1 $-1 -11.015999999999998 0 11.015999999999998 0 -1 0 I I #
simple-snl-attrib $-1 -1 $-1 $-1 $207 1 1 1 1 1 1 1 1 1 1 1 1 0 1 0 1 1 1 @17 NEW_SIMPLE_ATTRIB 1 @9 ENTITY_ID 0 3 27 -2147483648 -1 #
point $-1 -1 -1 $-1 -11.015999999999998 11.015999999999998 11.015999999999998 #
simple-snl-attrib $-1 -1 $-1 $-1 $211 1 1 1 1 1 1 1 1 1 1 1 1 0 1 0 1 1 1 @17 NEW_SIMPLE_ATTRIB 1 @9 ENTITY_ID 0 3 28 -2147483648 -1 #
point $-1 -1 -1 $-1 -11.015999999999998 -11.015999999999998 11.015999999999998 #
simple-snl-attrib $-1 -1 $-1 $-1 $213 1 1 1 1 1 1 1 1 1 1 1 1 0 1 0 1 1 1 @17 NEW_SIMPLE_ATTRIB 1 @9 ENTITY_ID 0 3 46 -2147483648 -1 #
straight-curve $-1 -1 -1 $-1 11.015999999999998 -11.015999999999998 0 0 0 -1 I I #
simple-snl-attrib $-1 -1 $-1 $-1 $214 1 1 1 1 1 1 1 1 1 1 1 1 0 1 0 1 1 1 @17 NEW_SIMPLE_ATTRIB 1 @9 ENTITY_ID 0 3 48 -2147483648 -1 #
straight-curve $-1 -1 -1 $-1 11.015999999999998 11.015999999999998 0 0 0 -1 I I #
simple-snl-attrib $-1 -1 $-1 $-1 $220 1 1 1 1 1 1 1 1 1 1 1 1 0 1 0 1 1 1 @17 NEW_SIMPLE_ATTRIB 1 @9 ENTITY_ID 0 3 23 -2147483648 -1 #
plane-surface $-1 -1 -1 $-1 10.799999999999999 0 0 -1 0 0 0 -0 1 forward_v I I I I #
coedge $-1 -1 -1 $-1 $225 $223 $227 $319 reversed $146 $-1 #
edge $374 -1 -1 $-1 $240 -10.799999999999999 $323 10.799999999999999 $238 $375 forward @7 unknown T -10.799999999999999 10.799999999999999 -10.799999999999999 -10.799999999999999 10.799999999999999 10.799999999999999 #
simple-snl-attrib $-1 -1 $-1 $-1 $226 1 1 1 1 1 1 1 1 1 1 1 1 0 1 0 1 1 1 @17 NEW_SIMPLE_ATTRIB 1 @9 ENTITY_ID 0 3 165 -2147483648 -1 #
vertex $376 -1 -1 $-1 $319 $377 #
straight-curve $-1 -1 -1 $-1 -10.799999999999999 -10.799999999999999 0 0 0 -1 I I #
edge $378 -1 -1 $-1 $317 -10.799999999999999 $323 10.799999999999999 $314 $379 forward @7 unknown T -10.799999999999999 -10.799999999999999 -10.799999999999999 -10.799999999999999 10.799999999999999 -10.799999999999999 #
simple-snl-attrib $-1 -1 $-1 $-1 $228 1 1 1 1 1 1 1 1 1 1 1 1 0 1 0 1 1 1 @17 NEW_SIMPLE_ATTRIB 1 @9 ENTITY_ID 0 3 162 -2147483648 -1 #
straight-curve $-1 -1 -1 $-1 0 -10.799999999999999 -10.799999999999999 -1 0 0 I I #
simple-snl-attrib $-1 -1 $-1 $-1 $230 1 1 1 1 1 1 1 1 1 1 1 1 0 1 0 1 1 1 @17 NEW_SIMPLE_ATTRIB 1 @9 ENTITY_ID 0 3 164 -2147483648 -1 #
vertex $380 -1 -1 $-1 $230 $381 #
straight-curve $-1 -1 -1 $-1 0 10.799999999999999 -10.799999999999999 1 0 0 I I #
simple-snl-attrib $-1 -1 $-1 $-1 $232 1 1 1 1 1 1 1 1 1 1 1 1 0 1 0 1 1 1 @17 NEW_SIMPLE_ATTRIB 1 @9 ENTITY_ID 0 3 109 -2147483648 -1 #
point $-1 -1 -1 $-1 10.799999999999999 10.799999999999999 -10.799999999999999 #
simple-snl-attrib $-1 -1 $-1 $-1 $233 1 1 1 1 1 1 1 1 1 1 1 1 0 1 0 1 1 1 @17 NEW_SIMPLE_ATTRIB 1 @9 ENTITY_ID 0 3 110 -2147483648 -1 #
point $-1 -1 -1 $-1 10.799999999999999 -10.799999999999999 -10.799999999999999 #
simple-snl-attrib $-1 -1 $-1 $-1 $236 1 1 1 1 1 1 1 1 1 1 1 1 0 1 0 1 1 1 @17 NEW_SIMPLE_ATTRIB 1 @9 ENTITY_ID 0 3 159 -2147483648 -1 #
straight-curve $-1 -1 -1 $-1 -10.799999999999999 0 10.799999999999999 0 -1 0 I I #
simple-snl-attrib $-1 -1 $-1 $-1 $240 1 1 1 1 1 1 1 1 1 1 1 1 0 1 0 1 1 1 @17 NEW_SIMPLE_ATTRIB 1 @9 ENTITY_ID 0 3 107 -2147483648 -1 #
point $-1 -1 -1 $-1 -10.799999999999999 10.799999999999999 10.799999999999999 #
simple-snl-attrib $-1 -1 $-1 $-1 $244 1 1 1 1 1 1 1 1 1 1 1 1 0 1 0 1 1 1 @17 NEW_SIMPLE_ATTRIB 1 @9 ENTITY_ID 0 3 108 -2147483648 -1 #
point $-1 -1 -1 $-1 -10.799999999999999 -10.799999999999999 10.799999999999999 #
simple-snl-attrib $-1 -1 $-1 $-1 $246 1 1 1 1 1 1 1 1 1 1 1 1 0 1 0 1 1 1 @17 NEW_SIMPLE_ATTRIB 1 @9 ENTITY_ID 0 3 166 -2147483648 -1 #
straight-curve $-1 -1 -1 $-1 10.799999999999999 -10.799999999999999 0 0 0 -1 I I #
simple-snl-attrib $-1 -1 $-1 $-1 $247 1 1 1 1 1 1 1 1 1 1 1 1 0 1 0 1 1 1 @17 NEW_SIMPLE_ATTRIB 1 @9 ENTITY_ID 0 3 168 -2147483648 -1 #
straight-curve $-1 -1 -1 $-1 10.799999999999999 10.799999999999999 0 0 0 -1 I I #
simple-snl-attrib $-1 -1 $-1 $-1 $253 1 1 1 1 1 1 1 1 1 1 1 1 0 1 0 1 1 1 @17 NEW_SIMPLE_ATTRIB 1 @9 ENTITY_ID 0 3 12 -2147483648 -1 #
plane-surface $-1 -1 -1 $-1 10.799999999999999 0 0 -1 0 0 0 -0 1 forward_v I I I I #
coedge $-1 -1 -1 $-1 $256 $258 $260 $346 forward $167 $-1 #
edge $382 -1 -1 $-1 $277 -10.799999999999999 $348 10.799999999999999 $274 $383 forward @7 unknown T -10.799999999999999 10.799999999999999 -10.799999999999999 -10.799999999999999 10.799999999999999 10.799999999999999 #
simple-snl-attrib $-1 -1 $-1 $-1 $259 1 1 1 1 1 1 1 1 1 1 1 1 0 1 0 1 1 1 @17 NEW_SIMPLE_ATTRIB 1 @9 ENTITY_ID 0 3 69 -2147483648 -1 #
vertex $384 -1 -1 $-1 $346 $385 #
straight-curve $-1 -1 -1 $-1 -10.799999999999999 -10.799999999999999 0 0 0 -1 I I #
edge $386 -1 -1 $-1 $344 -10.799999999999999 $348 10.799999999999999 $341 $387 forward @7 unknown T -10.799999999999999 -10.799999999999999 -10.799999999999999 -10.799999999999999 10.799999999999999 -10.799999999999999 #
simple-snl-attrib $-1 -1 $-1 $-1 $262 1 1 1 1 1 1 1 1 1 1 1 1 0 1 0 1 1 1 @17 NEW_SIMPLE_ATTRIB 1 @9 ENTITY_ID 0 3 66 -2147483648 -1 #
vertex $388 -1 -1 $-1 $262 $389 #
straight-curve $-1 -1 -1 $-1 0 10.799999999999999 -10.799999999999999 1 0 0 I I #
simple-snl-attrib $-1 -1 $-1 $-1 $263 1 1 1 1 1 1 1 1 1 1 1 1 0 1 0 1 1 1 @17 NEW_SIMPLE_ATTRIB 1 @9 ENTITY_ID 0 3 68 -2147483648 -1 #
straight-curve $-1 -1 -1 $-1 0 -10.799999999999999 -10.799999999999999 -1 0 0 I I #
simple-snl-attrib $-1 -1 $-1 $-1 $265 1 1 1 1 1 1 1 1 1 1 1 1 0 1 0 1 1 1 @17 NEW_SIMPLE_ATTRIB 1 @9 ENTITY_ID 0 3 45 -2147483648 -1 #
point $-1 -1 -1 $-1 10.799999999999999 10.799999999999999 -10.799999999999999 #
simple-snl-attrib $-1 -1 $-1 $-1 $266 1 1 1 1 1 1 1 1 1 1 1 1 0 1 0 1 1 1 @17 NEW_SIMPLE_ATTRIB 1 @9 ENTITY_ID 0 3 46 -2147483648 -1 #
point $-1 -1 -1 $-1 10.799999999999999 -10.799999999999999 -10.799999999999999 #
simple-snl-attrib $-1 -1 $-1 $-1 $269 1 1 1 1 1 1 1 1 1 1 1 1 0 1 0 1 1 1 @17 NEW_SIMPLE_ATTRIB 1 @9 ENTITY_ID 0 3 63 -2147483648 -1 #
straight-curve $-1 -1 -1 $-1 -10.799999999999999 0 10.799999999999999 0 -1 0 I I #
simple-snl-attrib $-1 -1 $-1 $-1 $272 1 1 1 1 1 1 1 1 1 1 1 1 0 1 0 1 1 1 @17 NEW_SIMPLE_ATTRIB 1 @9 ENTITY_ID 0 3 43 -2147483648 -1 #
point $-1 -1 -1 $-1 -10.799999999999999 -10.799999999999999 10.799999999999999 #
simple-snl-attrib $-1 -1 $-1 $-1 $277 1 1 1 1 1 1 1 1 1 1 1 1 0 1 0 1 1 1 @17 NEW_SIMPLE_ATTRIB 1 @9 ENTITY_ID 0 3 44 -2147483648 -1 #
point $-1 -1 -1 $-1 -10.799999999999999 10.799999999999999 10.799999999999999 #
simple-snl-attrib $-1 -1 $-1 $-1 $279 1 1 1 1 1 1 1 1 1 1 1 1 0 1 0 1 1 1 @17 NEW_SIMPLE_ATTRIB 1 @9 ENTITY_ID 0 3 72 -2147483648 -1 #
straight-curve $-1 -1 -1 $-1 10.799999999999999 10.799999999999999 0 0 0 -1 I I #
simple-snl-attrib $-1 -1 $-1 $-1 $280 1 1 1 1 1 1 1 1 1 1 1 1 0 1 0 1 1 1 @17 NEW_SIMPLE_ATTRIB 1 @9 ENTITY_ID 0 3 70 -2147483648 -1 #
straight-curve $-1 -1 -1 $-1 10.799999999999999 -10.799999999999999 0 0 0 -1 I I #
simple-snl-attrib $-1 -1 $-1 $-1 $288 1 1 1 1 1 1 1 1 1 1 1 1 0 1 0 1 1 1 @17 NEW_SIMPLE_ATTRIB 1 @9 ENTITY_ID 0 3 47 -2147483648 -1 #
straight-curve $-1 -1 -1 $-1 -11.015999999999998 11.015999999999998 0 0 0 -1 I I #
simple-snl-attrib $-1 -1 $-1 $-1 $290 1 1 1 1 1 1 1 1 1 1 1 1 0 1 0 1 1 1 @17 NEW_SIMPLE_ATTRIB 1 @9 ENTITY_ID 0 3 31 -2147483648 -1 #
point $-1 -1 -1 $-1 -11.015999999999998 -11.015999999999998 -11.015999999999998 #
simple-snl-attrib $-1 -1 $-1 $-1 $292 1 1 1 1 1 1 1 1 1 1 1 1 0 1 0 1 1 1 @17 NEW_SIMPLE_ATTRIB 1 @9 ENTITY_ID 0 3 43 -2147483648 -1 #
straight-curve $-1 -1 -1 $-1 -11.015999999999998 0 -11.015999999999998 0 1 0 I I #
simple-snl-attrib $-1 -1 $-1 $-1 $296 1 1 1 1 1 1 1 1 1 1 1 1 0 1 0 1 1 1 @17 NEW_SIMPLE_ATTRIB 1 @9 ENTITY_ID 0 3 32 -2147483648 -1 #
point $-1 -1 -1 $-1 -11.015999999999998 11.015999999999998 -11.015999999999998 #
simple-snl-attrib $-1 -1 $-1 $-1 $315 1 1 1 1 1 1 1 1 1 1 1 1 0 1 0 1 1 1 @17 NEW_SIMPLE_ATTRIB 1 @9 ENTITY_ID 0 3 167 -2147483648 -1 #
straight-curve $-1 -1 -1 $-1 -10.799999999999999 10.799999999999999 0 0 0 -1 I I #
simple-snl-attrib $-1 -1 $-1 $-1 $317 1 1 1 1 1 1 1 1 1 1 1 1 0 1 0 1 1 1 @17 NEW_SIMPLE_ATTRIB 1 @9 ENTITY_ID 0 3 111 -2147483648 -1 #
point $-1 -1 -1 $-1 -10.799999999999999 -10.799999999999999 -10.799999999999999 #
simple-snl-attrib $-1 -1 $-1 $-1 $319 1 1 1 1 1 1 1 1 1 1 1 1 0 1 0 1 1 1 @17 NEW_SIMPLE_ATTRIB 1 @9 ENTITY_ID 0 3 163 -2147483648 -1 #
straight-curve $-1 -1 -1 $-1 -10.799999999999999 0 -10.799999999999999 0 1 0 I I #
simple-snl-attrib $-1 -1 $-1 $-1 $323 1 1 1 1 1 1 1 1 1 1 1 1 0 1 0 1 1 1 @17 NEW_SIMPLE_ATTRIB 1 @9 ENTITY_ID 0 3 112 -2147483648 -1 #
point $-1 -1 -1 $-1 -10.799999999999999 10.799999999999999 -10.799999999999999 #
simple-snl-attrib $-1 -1 $-1 $-1 $342 1 1 1 1 1 1 1 1 1 1 1 1 0 1 0 1 1 1 @17 NEW_SIMPLE_ATTRIB 1 @9 ENTITY_ID 0 3 71 -2147483648 -1 #
straight-curve $-1 -1 -1 $-1 -10.799999999999999 10.799999999999999 0 0 0 -1 I I #
simple-snl-attrib $-1 -1 $-1 $-1 $344 1 1 1 1 1 1 1 1 1 1 1 1 0 1 0 1 1 1 @17 NEW_SIMPLE_ATTRIB 1 @9 ENTITY_ID 0 3 48 -2147483648 -1 #
point $-1 -1 -1 $-1 -10.799999999999999 -10.799999999999999 -10.799999999999999 #
simple-snl-attrib $-1 -1 $-1 $-1 $346 1 1 1 1 1 1 1 1 1 1 1 1 0 1 0 1 1 1 @17 NEW_SIMPLE_ATTRIB 1 @9 ENTITY_ID 0 3 67 -2147483648 -1 #
straight-curve $-1 -1 -1 $-1 -10.799999999999999 0 -10.799999999999999 0 1 0 I I #
simple-snl-attrib $-1 -1 $-1 $-1 $348 1 1 1 1 1 1 1 1 1 1 1 1 0 1 0 1 1 1 @17 NEW_SIMPLE_ATTRIB 1 @9 ENTITY_ID 0 3 47 -2147483648 -1 #
point $-1 -1 -1 $-1 -10.799999999999999 10.799999999999999 -10.799999999999999 #
End-of-ACIS-data 