1600 0 4 0           
14 Cubit  (iGeom) 17 ACIS 16.0.7 Linux 24 Tue Feb 22 15:27:31 2011 
1 9.9999999999999995e-07 1e-10 
body $4 -1 -1 $-1 $5 $-1 $-1 F #
body $6 -1 -1 $-1 $7 $-1 $-1 T -1 -1 -1 1 1 1 #
body $8 -1 -1 $-1 $9 $-1 $-1 T -2 -2 -2 2 2 2 #
body $10 -1 -1 $-1 $11 $-1 $-1 T -2.3999999999999999 -2.3999999999999999 -2.3999999999999999 2.3999999999999999 2.3999999999999999 2.3999999999999999 #
simple-snl-attrib $-1 -1 $12 $-1 $0 1 1 1 1 1 1 1 1 1 1 1 1 0 1 0 1 1 1 @17 NEW_SIMPLE_ATTRIB 1 @9 ENTITY_ID 0 3 4 -2147483648 -1 #
lump $13 -1 -1 $-1 $-1 $14 $0 F #
simple-snl-attrib $-1 -1 $15 $-1 $1 1 1 1 1 1 1 1 1 1 1 1 1 0 1 0 1 1 1 @17 NEW_SIMPLE_ATTRIB 1 @9 ENTITY_ID 0 3 19 -2147483648 -1 #
lump $16 -1 -1 $-1 $-1 $17 $1 T -1 -1 -1 1 1 1 #
simple-snl-attrib $-1 -1 $18 $-1 $2 1 1 1 1 1 1 1 1 1 1 1 1 0 1 0 1 1 1 @17 NEW_SIMPLE_ATTRIB 1 @9 ENTITY_ID 0 3 22 -2147483648 -1 #
lump $19 -1 -1 $-1 $-1 $20 $2 T -2 -2 -2 2 2 2 #
simple-snl-attrib $-1 -1 $21 $-1 $3 1 1 1 1 1 1 1 1 1 1 1 1 0 1 0 1 1 1 @17 NEW_SIMPLE_ATTRIB 1 @9 ENTITY_ID 0 3 25 -2147483648 -1 #
lump $22 -1 -1 $-1 $-1 $23 $3 T -2.3999999999999999 -2.3999999999999999 -2.3999999999999999 2.3999999999999999 2.3999999999999999 2.3999999999999999 #
simple-snl-attrib $-1 -1 $-1 $4 $0 1 1 1 1 1 1 1 1 1 1 1 1 0 1 0 1 1 1 @17 NEW_SIMPLE_ATTRIB 2 @5 GROUP @9 graveyard 0 7 1 1 378456497 0 0 0 0 #
simple-snl-attrib $-1 -1 $-1 $-1 $5 1 1 1 1 1 1 1 1 1 1 1 1 0 1 0 1 1 1 @17 NEW_SIMPLE_ATTRIB 1 @9 ENTITY_ID 0 3 1 -2147483648 -1 #
shell $-1 -1 -1 $-1 $24 $-1 $25 $-1 $5 T -2.448 -2.448 -2.448 2.448 2.448 2.448 #
simple-snl-attrib $-1 -1 $26 $6 $1 1 1 1 1 1 1 1 1 1 1 1 1 0 1 0 1 1 1 @17 NEW_SIMPLE_ATTRIB 2 @5 GROUP @12 mat_1_rho_-1 0 7 1 2 778748798 0 0 0 0 #
simple-snl-attrib $-1 -1 $-1 $-1 $7 1 1 1 1 1 1 1 1 1 1 1 1 0 1 0 1 1 1 @17 NEW_SIMPLE_ATTRIB 1 @9 ENTITY_ID 0 3 2 -2147483648 -1 #
shell $-1 -1 -1 $-1 $-1 $-1 $27 $-1 $7 T -1 -1 -1 1 1 1 #
simple-snl-attrib $-1 -1 $-1 $8 $2 1 1 1 1 1 1 1 1 1 1 1 1 0 1 0 1 1 1 @17 NEW_SIMPLE_ATTRIB 2 @11 ENTITY_NAME @9 MCNP_ID_2 0 0 #
simple-snl-attrib $-1 -1 $-1 $-1 $9 1 1 1 1 1 1 1 1 1 1 1 1 0 1 0 1 1 1 @17 NEW_SIMPLE_ATTRIB 1 @9 ENTITY_ID 0 3 3 -2147483648 -1 #
shell $-1 -1 -1 $-1 $28 $-1 $29 $-1 $9 T -2 -2 -2 2 2 2 #
simple-snl-attrib $-1 -1 $-1 $10 $3 1 1 1 1 1 1 1 1 1 1 1 1 0 1 0 1 1 1 @17 NEW_SIMPLE_ATTRIB 2 @11 ENTITY_NAME @11 MCNP_ID_666 0 0 #
simple-snl-attrib $-1 -1 $-1 $-1 $11 1 1 1 1 1 1 1 1 1 1 1 1 0 1 0 1 1 1 @17 NEW_SIMPLE_ATTRIB 1 @9 ENTITY_ID 0 3 4 -2147483648 -1 #
shell $-1 -1 -1 $-1 $30 $-1 $31 $-1 $11 T -2.3999999999999999 -2.3999999999999999 -2.3999999999999999 2.3999999999999999 2.3999999999999999 2.3999999999999999 #
shell $-1 -1 -1 $-1 $-1 $-1 $32 $-1 $5 T -2.3999999999999999 -2.3999999999999999 -2.3999999999999999 2.3999999999999999 2.3999999999999999 2.3999999999999999 #
face $33 -1 -1 $-1 $34 $35 $14 $-1 $36 forward single T -2.448 -2.448 2.448 2.448 2.448 2.448 F #
simple-snl-attrib $-1 -1 $-1 $15 $1 1 1 1 1 1 1 1 1 1 1 1 1 0 1 0 1 1 1 @17 NEW_SIMPLE_ATTRIB 2 @11 ENTITY_NAME @9 MCNP_ID_1 0 0 #
face $37 -1 -1 $-1 $-1 $-1 $17 $-1 $38 forward single T -1 -1 -1 1 1 1 F #
shell $-1 -1 -1 $-1 $-1 $-1 $39 $-1 $9 T -1 -1 -1 1 1 1 #
face $40 -1 -1 $-1 $-1 $-1 $20 $-1 $41 forward single T -2 -2 -2 2 2 2 F #
shell $-1 -1 -1 $-1 $-1 $-1 $42 $-1 $11 T -2 -2 -2 2 2 2 #
face $43 -1 -1 $-1 $44 $45 $23 $-1 $46 forward single T -2.3999999999999999 -2.3999999999999999 2.3999999999999999 2.3999999999999999 2.3999999999999999 2.3999999999999999 F #
face $47 -1 -1 $-1 $48 $49 $24 $-1 $50 reversed single T -2.3999999999999999 -2.3999999999999999 2.3999999999999999 2.3999999999999999 2.3999999999999999 2.3999999999999999 F #
simple-snl-attrib $-1 -1 $-1 $-1 $25 1 1 1 1 1 1 1 1 1 1 1 1 0 1 0 1 1 1 @17 NEW_SIMPLE_ATTRIB 1 @9 ENTITY_ID 0 3 1 -2147483648 -1 #
face $51 -1 -1 $-1 $52 $53 $14 $-1 $54 reversed single T -2.448 -2.448 -2.448 2.448 2.448 -2.448 F #
loop $-1 -1 -1 $-1 $-1 $55 $25 T -2.448 -2.448 2.448 2.448 2.448 2.448 unknown #
plane-surface $-1 -1 -1 $-1 0 0 2.448 0 0 1 1 0 0 forward_v I I I I #
simple-snl-attrib $-1 -1 $56 $-1 $27 1 1 1 1 1 1 1 1 1 1 1 1 0 1 0 1 1 1 @17 NEW_SIMPLE_ATTRIB 1 @9 UNIQUE_ID 1 0 1 2132720322 #
sphere-surface $-1 -1 -1 $-1 0 0 0 1 1 0 0 0 0 1 forward_v I I I I #
face $57 -1 -1 $-1 $-1 $-1 $28 $-1 $58 reversed single T -1 -1 -1 1 1 1 F #
simple-snl-attrib $-1 -1 $59 $-1 $29 1 1 1 1 1 1 1 1 1 1 1 1 0 1 0 1 1 1 @17 NEW_SIMPLE_ATTRIB 1 @9 UNIQUE_ID 1 0 1 199359721 #
sphere-surface $-1 -1 -1 $-1 0 0 0 2 1 0 0 0 0 1 forward_v I I I I #
face $60 -1 -1 $-1 $-1 $-1 $30 $-1 $61 reversed single T -2 -2 -2 2 2 2 F #
simple-snl-attrib $-1 -1 $-1 $-1 $31 1 1 1 1 1 1 1 1 1 1 1 1 0 1 0 1 1 1 @17 NEW_SIMPLE_ATTRIB 1 @9 ENTITY_ID 0 3 16 -2147483648 -1 #
face $62 -1 -1 $-1 $63 $64 $23 $-1 $65 reversed single T -2.3999999999999999 -2.3999999999999999 -2.3999999999999999 2.3999999999999999 2.3999999999999999 -2.3999999999999999 F #
loop $-1 -1 -1 $-1 $-1 $66 $31 T -2.3999999999999999 -2.3999999999999999 2.3999999999999999 2.3999999999999999 2.3999999999999999 2.3999999999999999 unknown #
plane-surface $-1 -1 -1 $-1 0 0 2.3999999999999999 0 0 1 1 0 0 forward_v I I I I #
simple-snl-attrib $-1 -1 $-1 $-1 $32 1 1 1 1 1 1 1 1 1 1 1 1 0 1 0 1 1 1 @17 NEW_SIMPLE_ATTRIB 1 @9 ENTITY_ID 0 3 7 -2147483648 -1 #
face $67 -1 -1 $-1 $68 $69 $24 $-1 $70 forward single T -2.3999999999999999 -2.3999999999999999 -2.3999999999999999 2.3999999999999999 2.3999999999999999 -2.3999999999999999 F #
loop $-1 -1 -1 $-1 $-1 $71 $32 T -2.3999999999999999 -2.3999999999999999 2.3999999999999999 2.3999999999999999 2.3999999999999999 2.3999999999999999 unknown #
plane-surface $-1 -1 -1 $-1 0 0 2.3999999999999999 0 0 1 1 0 0 forward_v I I I I #
simple-snl-attrib $-1 -1 $-1 $-1 $34 1 1 1 1 1 1 1 1 1 1 1 1 0 1 0 1 1 1 @17 NEW_SIMPLE_ATTRIB 1 @9 ENTITY_ID 0 3 2 -2147483648 -1 #
face $72 -1 -1 $-1 $73 $74 $14 $-1 $75 reversed single T -2.448 -2.448 -2.448 2.448 -2.448 2.448 F #
loop $-1 -1 -1 $-1 $-1 $76 $34 T -2.448 -2.448 -2.448 2.448 2.448 -2.448 unknown #
plane-surface $-1 -1 -1 $-1 0 0 -2.448 0 0 1 1 0 0 forward_v I I I I #
coedge $-1 -1 -1 $-1 $77 $78 $79 $80 forward $35 $-1 #
simple-snl-attrib $-1 -1 $81 $37 $27 1 1 1 1 1 1 1 1 1 1 1 1 0 1 0 1 1 1 @17 NEW_SIMPLE_ATTRIB 1 @9 ENTITY_ID 0 3 13 -2147483648 -1 #
simple-snl-attrib $-1 -1 $82 $-1 $39 1 1 1 1 1 1 1 1 1 1 1 1 0 1 0 1 1 1 @17 NEW_SIMPLE_ATTRIB 1 @9 UNIQUE_ID 1 0 1 2132720322 #
sphere-surface $-1 -1 -1 $-1 0 0 0 1 1 0 0 0 0 1 forward_v I I I I #
simple-snl-attrib $-1 -1 $83 $40 $29 1 1 1 1 1 1 1 1 1 1 1 1 0 1 0 1 1 1 @17 NEW_SIMPLE_ATTRIB 1 @9 ENTITY_ID 0 3 14 -2147483648 -1 #
simple-snl-attrib $-1 -1 $84 $-1 $42 1 1 1 1 1 1 1 1 1 1 1 1 0 1 0 1 1 1 @17 NEW_SIMPLE_ATTRIB 1 @9 UNIQUE_ID 1 0 1 199359721 #
sphere-surface $-1 -1 -1 $-1 0 0 0 2 1 0 0 0 0 1 forward_v I I I I #
simple-snl-attrib $-1 -1 $-1 $-1 $44 1 1 1 1 1 1 1 1 1 1 1 1 0 1 0 1 1 1 @17 NEW_SIMPLE_ATTRIB 1 @9 ENTITY_ID 0 3 17 -2147483648 -1 #
face $85 -1 -1 $-1 $86 $87 $23 $-1 $88 reversed single T -2.3999999999999999 -2.3999999999999999 -2.3999999999999999 2.3999999999999999 -2.3999999999999999 2.3999999999999999 F #
loop $-1 -1 -1 $-1 $-1 $89 $44 T -2.3999999999999999 -2.3999999999999999 -2.3999999999999999 2.3999999999999999 2.3999999999999999 -2.3999999999999999 unknown #
plane-surface $-1 -1 -1 $-1 0 0 -2.3999999999999999 0 0 1 1 0 0 forward_v I I I I #
coedge $-1 -1 -1 $-1 $90 $91 $92 $93 forward $45 $-1 #
simple-snl-attrib $-1 -1 $-1 $-1 $48 1 1 1 1 1 1 1 1 1 1 1 1 0 1 0 1 1 1 @17 NEW_SIMPLE_ATTRIB 1 @9 ENTITY_ID 0 3 8 -2147483648 -1 #
face $94 -1 -1 $-1 $95 $96 $24 $-1 $97 forward single T -2.3999999999999999 -2.3999999999999999 -2.3999999999999999 2.3999999999999999 -2.3999999999999999 2.3999999999999999 F #
loop $-1 -1 -1 $-1 $-1 $98 $48 T -2.3999999999999999 -2.3999999999999999 -2.3999999999999999 2.3999999999999999 2.3999999999999999 -2.3999999999999999 unknown #
plane-surface $-1 -1 -1 $-1 0 0 -2.3999999999999999 0 0 1 1 0 0 forward_v I I I I #
coedge $-1 -1 -1 $-1 $99 $100 $101 $102 reversed $49 $-1 #
simple-snl-attrib $-1 -1 $-1 $-1 $52 1 1 1 1 1 1 1 1 1 1 1 1 0 1 0 1 1 1 @17 NEW_SIMPLE_ATTRIB 1 @9 ENTITY_ID 0 3 3 -2147483648 -1 #
face $103 -1 -1 $-1 $104 $105 $14 $-1 $106 reversed single T -2.448 -2.448 -2.448 -2.448 2.448 2.448 F #
loop $-1 -1 -1 $-1 $-1 $107 $52 T -2.448 -2.448 -2.448 2.448 -2.448 2.448 unknown #
plane-surface $-1 -1 -1 $-1 0 -2.448 0 0 1 -0 -0 0 1 forward_v I I I I #
coedge $-1 -1 -1 $-1 $108 $109 $110 $111 forward $53 $-1 #
coedge $-1 -1 -1 $-1 $112 $55 $113 $114 forward $35 $-1 #
coedge $-1 -1 -1 $-1 $55 $112 $115 $116 forward $35 $-1 #
coedge $-1 -1 -1 $-1 $117 $118 $55 $80 reversed $119 $-1 #
edge $120 -1 -1 $-1 $121 -2.448 $122 2.448 $79 $123 forward @7 unknown T 2.448 -2.448 2.448 2.448 2.448 2.448 #
simple-snl-attrib $-1 -1 $-1 $56 $27 1 1 1 1 1 1 1 1 1 1 1 1 0 1 0 1 1 1 @17 NEW_SIMPLE_ATTRIB 1 @13 MERGE_PARTNER 0 4 2132720322 1 66 1 #
simple-snl-attrib $-1 -1 $124 $57 $39 1 1 1 1 1 1 1 1 1 1 1 1 0 1 0 1 1 1 @17 NEW_SIMPLE_ATTRIB 1 @9 ENTITY_ID 0 3 13 -2147483648 -1 #
simple-snl-attrib $-1 -1 $-1 $59 $29 1 1 1 1 1 1 1 1 1 1 1 1 0 1 0 1 1 1 @17 NEW_SIMPLE_ATTRIB 1 @13 MERGE_PARTNER 0 4 199359721 1 81 1 #
simple-snl-attrib $-1 -1 $125 $60 $42 1 1 1 1 1 1 1 1 1 1 1 1 0 1 0 1 1 1 @17 NEW_SIMPLE_ATTRIB 1 @9 ENTITY_ID 0 3 14 -2147483648 -1 #
simple-snl-attrib $-1 -1 $-1 $-1 $63 1 1 1 1 1 1 1 1 1 1 1 1 0 1 0 1 1 1 @17 NEW_SIMPLE_ATTRIB 1 @9 ENTITY_ID 0 3 18 -2147483648 -1 #
face $126 -1 -1 $-1 $127 $128 $23 $-1 $129 reversed single T -2.3999999999999999 -2.3999999999999999 -2.3999999999999999 -2.3999999999999999 2.3999999999999999 2.3999999999999999 F #
loop $-1 -1 -1 $-1 $-1 $130 $63 T -2.3999999999999999 -2.3999999999999999 -2.3999999999999999 2.3999999999999999 -2.3999999999999999 2.3999999999999999 unknown #
plane-surface $-1 -1 -1 $-1 0 -2.3999999999999999 0 0 1 -0 -0 0 1 forward_v I I I I #
coedge $-1 -1 -1 $-1 $131 $132 $133 $134 forward $64 $-1 #
coedge $-1 -1 -1 $-1 $135 $66 $136 $137 forward $45 $-1 #
coedge $-1 -1 -1 $-1 $66 $135 $138 $139 forward $45 $-1 #
coedge $-1 -1 -1 $-1 $140 $141 $66 $93 reversed $142 $-1 #
edge $143 -1 -1 $-1 $144 -2.3999999999999999 $145 2.3999999999999999 $92 $146 forward @7 unknown T 2.3999999999999999 -2.3999999999999999 2.3999999999999999 2.3999999999999999 2.3999999999999999 2.3999999999999999 #
simple-snl-attrib $-1 -1 $-1 $-1 $68 1 1 1 1 1 1 1 1 1 1 1 1 0 1 0 1 1 1 @17 NEW_SIMPLE_ATTRIB 1 @9 ENTITY_ID 0 3 9 -2147483648 -1 #
face $147 -1 -1 $-1 $148 $149 $24 $-1 $150 forward single T -2.3999999999999999 -2.3999999999999999 -2.3999999999999999 -2.3999999999999999 2.3999999999999999 2.3999999999999999 F #
loop $-1 -1 -1 $-1 $-1 $151 $68 T -2.3999999999999999 -2.3999999999999999 -2.3999999999999999 2.3999999999999999 -2.3999999999999999 2.3999999999999999 unknown #
plane-surface $-1 -1 -1 $-1 0 -2.3999999999999999 0 0 1 -0 -0 0 1 forward_v I I I I #
coedge $-1 -1 -1 $-1 $152 $153 $154 $155 reversed $69 $-1 #
coedge $-1 -1 -1 $-1 $156 $71 $157 $158 reversed $49 $-1 #
coedge $-1 -1 -1 $-1 $71 $156 $159 $160 reversed $49 $-1 #
coedge $-1 -1 -1 $-1 $161 $162 $71 $102 forward $163 $-1 #
edge $164 -1 -1 $-1 $165 -2.3999999999999999 $166 2.3999999999999999 $101 $167 forward @7 unknown T 2.3999999999999999 -2.3999999999999999 2.3999999999999999 2.3999999999999999 2.3999999999999999 2.3999999999999999 #
simple-snl-attrib $-1 -1 $-1 $-1 $73 1 1 1 1 1 1 1 1 1 1 1 1 0 1 0 1 1 1 @17 NEW_SIMPLE_ATTRIB 1 @9 ENTITY_ID 0 3 4 -2147483648 -1 #
face $168 -1 -1 $-1 $169 $170 $14 $-1 $171 reversed single T -2.448 2.448 -2.448 2.448 2.448 2.448 F #
loop $-1 -1 -1 $-1 $-1 $172 $73 T -2.448 -2.448 -2.448 -2.448 2.448 2.448 unknown #
plane-surface $-1 -1 -1 $-1 -2.448 0 0 1 0 0 0 0 -1 forward_v I I I I #
coedge $-1 -1 -1 $-1 $173 $115 $174 $175 forward $74 $-1 #
coedge $-1 -1 -1 $-1 $176 $76 $173 $177 forward $53 $-1 #
coedge $-1 -1 -1 $-1 $76 $176 $178 $179 forward $53 $-1 #
coedge $-1 -1 -1 $-1 $118 $117 $76 $111 reversed $119 $-1 #
edge $180 -1 -1 $-1 $181 -2.448 $182 2.448 $110 $183 forward @7 unknown T 2.448 -2.448 -2.448 2.448 2.448 -2.448 #
coedge $-1 -1 -1 $-1 $78 $77 $184 $185 forward $35 $-1 #
coedge $-1 -1 -1 $-1 $186 $187 $77 $114 reversed $170 $-1 #
edge $188 -1 -1 $-1 $122 -2.448 $189 2.448 $113 $190 forward @7 unknown T -2.448 2.448 2.448 2.448 2.448 2.448 #
coedge $-1 -1 -1 $-1 $107 $191 $78 $116 reversed $74 $-1 #
edge $192 -1 -1 $-1 $193 -2.448 $121 2.448 $115 $194 forward @7 unknown T -2.448 -2.448 2.448 2.448 -2.448 2.448 #
coedge $-1 -1 -1 $-1 $110 $79 $191 $195 forward $119 $-1 #
coedge $-1 -1 -1 $-1 $79 $110 $186 $196 reversed $119 $-1 #
loop $-1 -1 -1 $-1 $-1 $117 $169 T 2.448 -2.448 -2.448 2.448 2.448 2.448 unknown #
simple-snl-attrib $-1 -1 $-1 $-1 $80 1 1 1 1 1 1 1 1 1 1 1 1 0 1 0 1 1 1 @17 NEW_SIMPLE_ATTRIB 1 @9 ENTITY_ID 0 3 37 -2147483648 -1 #
vertex $197 -1 -1 $-1 $80 $198 #
vertex $199 -1 -1 $-1 $80 $200 #
straight-curve $-1 -1 -1 $-1 2.448 0 2.448 0 1 0 I I #
simple-snl-attrib $-1 -1 $-1 $82 $39 1 1 1 1 1 1 1 1 1 1 1 1 0 1 0 1 1 1 @17 NEW_SIMPLE_ATTRIB 1 @13 MERGE_PARTNER 0 4 2132720322 -1 15 0 #
simple-snl-attrib $-1 -1 $-1 $84 $42 1 1 1 1 1 1 1 1 1 1 1 1 0 1 0 1 1 1 @17 NEW_SIMPLE_ATTRIB 1 @13 MERGE_PARTNER 0 4 199359721 -1 22 0 #
simple-snl-attrib $-1 -1 $-1 $-1 $86 1 1 1 1 1 1 1 1 1 1 1 1 0 1 0 1 1 1 @17 NEW_SIMPLE_ATTRIB 1 @9 ENTITY_ID 0 3 19 -2147483648 -1 #
face $201 -1 -1 $-1 $202 $203 $23 $-1 $204 reversed single T -2.3999999999999999 2.3999999999999999 -2.3999999999999999 2.3999999999999999 2.3999999999999999 2.3999999999999999 F #
loop $-1 -1 -1 $-1 $-1 $205 $86 T -2.3999999999999999 -2.3999999999999999 -2.3999999999999999 -2.3999999999999999 2.3999999999999999 2.3999999999999999 unknown #
plane-surface $-1 -1 -1 $-1 -2.3999999999999999 0 0 1 0 0 0 0 -1 forward_v I I I I #
coedge $-1 -1 -1 $-1 $206 $138 $207 $208 forward $87 $-1 #
coedge $-1 -1 -1 $-1 $209 $89 $206 $210 forward $64 $-1 #
coedge $-1 -1 -1 $-1 $89 $209 $211 $212 forward $64 $-1 #
coedge $-1 -1 -1 $-1 $141 $140 $89 $134 reversed $142 $-1 #
edge $213 -1 -1 $-1 $214 -2.3999999999999999 $215 2.3999999999999999 $133 $216 forward @7 unknown T 2.3999999999999999 -2.3999999999999999 -2.3999999999999999 2.3999999999999999 2.3999999999999999 -2.3999999999999999 #
coedge $-1 -1 -1 $-1 $91 $90 $217 $218 forward $45 $-1 #
coedge $-1 -1 -1 $-1 $219 $220 $90 $137 reversed $203 $-1 #
edge $221 -1 -1 $-1 $145 -2.3999999999999999 $222 2.3999999999999999 $136 $223 forward @7 unknown T -2.3999999999999999 2.3999999999999999 2.3999999999999999 2.3999999999999999 2.3999999999999999 2.3999999999999999 #
coedge $-1 -1 -1 $-1 $130 $224 $91 $139 reversed $87 $-1 #
edge $225 -1 -1 $-1 $226 -2.3999999999999999 $144 2.3999999999999999 $138 $227 forward @7 unknown T -2.3999999999999999 -2.3999999999999999 2.3999999999999999 2.3999999999999999 -2.3999999999999999 2.3999999999999999 #
coedge $-1 -1 -1 $-1 $133 $92 $224 $228 forward $142 $-1 #
coedge $-1 -1 -1 $-1 $92 $133 $219 $229 reversed $142 $-1 #
loop $-1 -1 -1 $-1 $-1 $140 $202 T 2.3999999999999999 -2.3999999999999999 -2.3999999999999999 2.3999999999999999 2.3999999999999999 2.3999999999999999 unknown #
simple-snl-attrib $-1 -1 $-1 $-1 $93 1 1 1 1 1 1 1 1 1 1 1 1 0 1 0 1 1 1 @17 NEW_SIMPLE_ATTRIB 1 @9 ENTITY_ID 0 3 133 -2147483648 -1 #
vertex $230 -1 -1 $-1 $93 $231 #
vertex $232 -1 -1 $-1 $93 $233 #
straight-curve $-1 -1 -1 $-1 2.3999999999999999 0 2.3999999999999999 0 1 0 I I #
simple-snl-attrib $-1 -1 $-1 $-1 $95 1 1 1 1 1 1 1 1 1 1 1 1 0 1 0 1 1 1 @17 NEW_SIMPLE_ATTRIB 1 @9 ENTITY_ID 0 3 10 -2147483648 -1 #
face $234 -1 -1 $-1 $235 $236 $24 $-1 $237 forward single T -2.3999999999999999 2.3999999999999999 -2.3999999999999999 2.3999999999999999 2.3999999999999999 2.3999999999999999 F #
loop $-1 -1 -1 $-1 $-1 $238 $95 T -2.3999999999999999 -2.3999999999999999 -2.3999999999999999 -2.3999999999999999 2.3999999999999999 2.3999999999999999 unknown #
plane-surface $-1 -1 -1 $-1 -2.3999999999999999 0 0 1 0 0 0 0 -1 forward_v I I I I #
coedge $-1 -1 -1 $-1 $157 $239 $240 $241 reversed $96 $-1 #
coedge $-1 -1 -1 $-1 $242 $98 $243 $244 reversed $69 $-1 #
coedge $-1 -1 -1 $-1 $98 $242 $239 $245 reversed $69 $-1 #
coedge $-1 -1 -1 $-1 $162 $161 $98 $155 forward $163 $-1 #
edge $246 -1 -1 $-1 $247 -2.3999999999999999 $248 2.3999999999999999 $154 $249 forward @7 unknown T 2.3999999999999999 -2.3999999999999999 -2.3999999999999999 2.3999999999999999 2.3999999999999999 -2.3999999999999999 #
coedge $-1 -1 -1 $-1 $100 $99 $250 $251 reversed $49 $-1 #
coedge $-1 -1 -1 $-1 $252 $151 $99 $158 forward $96 $-1 #
edge $253 -1 -1 $-1 $254 -2.3999999999999999 $165 2.3999999999999999 $157 $255 forward @7 unknown T -2.3999999999999999 -2.3999999999999999 2.3999999999999999 2.3999999999999999 -2.3999999999999999 2.3999999999999999 #
coedge $-1 -1 -1 $-1 $256 $257 $100 $160 forward $236 $-1 #
edge $258 -1 -1 $-1 $166 -2.3999999999999999 $259 2.3999999999999999 $159 $260 forward @7 unknown T -2.3999999999999999 2.3999999999999999 2.3999999999999999 2.3999999999999999 2.3999999999999999 2.3999999999999999 #
coedge $-1 -1 -1 $-1 $154 $101 $257 $261 forward $163 $-1 #
coedge $-1 -1 -1 $-1 $101 $154 $252 $262 reversed $163 $-1 #
loop $-1 -1 -1 $-1 $-1 $162 $235 T 2.3999999999999999 -2.3999999999999999 -2.3999999999999999 2.3999999999999999 2.3999999999999999 2.3999999999999999 unknown #
simple-snl-attrib $-1 -1 $-1 $-1 $102 1 1 1 1 1 1 1 1 1 1 1 1 0 1 0 1 1 1 @17 NEW_SIMPLE_ATTRIB 1 @9 ENTITY_ID 0 3 61 -2147483648 -1 #
vertex $263 -1 -1 $-1 $102 $264 #
vertex $265 -1 -1 $-1 $102 $266 #
straight-curve $-1 -1 -1 $-1 2.3999999999999999 0 2.3999999999999999 0 1 0 I I #
simple-snl-attrib $-1 -1 $-1 $-1 $104 1 1 1 1 1 1 1 1 1 1 1 1 0 1 0 1 1 1 @17 NEW_SIMPLE_ATTRIB 1 @9 ENTITY_ID 0 3 5 -2147483648 -1 #
face $267 -1 -1 $-1 $-1 $119 $14 $-1 $268 reversed single T 2.448 -2.448 -2.448 2.448 2.448 2.448 F #
loop $-1 -1 -1 $-1 $-1 $186 $104 T -2.448 2.448 -2.448 2.448 2.448 2.448 unknown #
plane-surface $-1 -1 -1 $-1 0 2.448 0 0 -1 0 0 0 -1 forward_v I I I I #
coedge $-1 -1 -1 $-1 $269 $184 $187 $270 forward $105 $-1 #
coedge $-1 -1 -1 $-1 $191 $107 $108 $177 reversed $74 $-1 #
coedge $-1 -1 -1 $-1 $184 $269 $107 $175 reversed $105 $-1 #
edge $271 -1 -1 $-1 $193 -2.448 $272 2.448 $174 $273 forward @7 unknown T -2.448 -2.448 -2.448 -2.448 -2.448 2.448 #
coedge $-1 -1 -1 $-1 $109 $108 $269 $274 forward $53 $-1 #
edge $275 -1 -1 $-1 $182 -2.448 $272 2.448 $173 $276 forward @7 unknown T -2.448 -2.448 -2.448 2.448 -2.448 -2.448 #
coedge $-1 -1 -1 $-1 $187 $186 $109 $179 reversed $170 $-1 #
edge $277 -1 -1 $-1 $278 -2.448 $181 2.448 $178 $279 forward @7 unknown T -2.448 2.448 -2.448 2.448 2.448 -2.448 #
simple-snl-attrib $-1 -1 $-1 $-1 $111 1 1 1 1 1 1 1 1 1 1 1 1 0 1 0 1 1 1 @17 NEW_SIMPLE_ATTRIB 1 @9 ENTITY_ID 0 3 41 -2147483648 -1 #
vertex $280 -1 -1 $-1 $111 $281 #
vertex $282 -1 -1 $-1 $195 $283 #
straight-curve $-1 -1 -1 $-1 2.448 0 -2.448 0 -1 0 I I #
coedge $-1 -1 -1 $-1 $172 $174 $112 $185 reversed $105 $-1 #
edge $284 -1 -1 $-1 $189 -2.448 $193 2.448 $184 $285 forward @7 unknown T -2.448 -2.448 2.448 -2.448 2.448 2.448 #
coedge $-1 -1 -1 $-1 $178 $113 $118 $196 forward $170 $-1 #
coedge $-1 -1 -1 $-1 $113 $178 $172 $270 reversed $170 $-1 #
simple-snl-attrib $-1 -1 $-1 $-1 $114 1 1 1 1 1 1 1 1 1 1 1 1 0 1 0 1 1 1 @17 NEW_SIMPLE_ATTRIB 1 @9 ENTITY_ID 0 3 38 -2147483648 -1 #
vertex $286 -1 -1 $-1 $114 $287 #
straight-curve $-1 -1 -1 $-1 0 2.448 2.448 -1 0 0 I I #
coedge $-1 -1 -1 $-1 $115 $173 $117 $195 reversed $74 $-1 #
simple-snl-attrib $-1 -1 $-1 $-1 $116 1 1 1 1 1 1 1 1 1 1 1 1 0 1 0 1 1 1 @17 NEW_SIMPLE_ATTRIB 1 @9 ENTITY_ID 0 3 40 -2147483648 -1 #
vertex $288 -1 -1 $-1 $185 $289 #
straight-curve $-1 -1 -1 $-1 0 -2.448 2.448 1 0 0 I I #
edge $290 -1 -1 $-1 $121 -2.448 $182 2.448 $117 $291 forward @7 unknown T 2.448 -2.448 -2.448 2.448 -2.448 2.448 #
edge $292 -1 -1 $-1 $122 -2.448 $181 2.448 $118 $293 forward @7 unknown T 2.448 2.448 -2.448 2.448 2.448 2.448 #
simple-snl-attrib $-1 -1 $-1 $-1 $121 1 1 1 1 1 1 1 1 1 1 1 1 0 1 0 1 1 1 @17 NEW_SIMPLE_ATTRIB 1 @9 ENTITY_ID 0 3 25 -2147483648 -1 #
point $-1 -1 -1 $-1 2.448 -2.448 2.448 #
simple-snl-attrib $-1 -1 $-1 $-1 $122 1 1 1 1 1 1 1 1 1 1 1 1 0 1 0 1 1 1 @17 NEW_SIMPLE_ATTRIB 1 @9 ENTITY_ID 0 3 26 -2147483648 -1 #
point $-1 -1 -1 $-1 2.448 2.448 2.448 #
simple-snl-attrib $-1 -1 $-1 $-1 $127 1 1 1 1 1 1 1 1 1 1 1 1 0 1 0 1 1 1 @17 NEW_SIMPLE_ATTRIB 1 @9 ENTITY_ID 0 3 20 -2147483648 -1 #
face $294 -1 -1 $-1 $-1 $142 $23 $-1 $295 reversed single T 2.3999999999999999 -2.3999999999999999 -2.3999999999999999 2.3999999999999999 2.3999999999999999 2.3999999999999999 F #
loop $-1 -1 -1 $-1 $-1 $219 $127 T -2.3999999999999999 2.3999999999999999 -2.3999999999999999 2.3999999999999999 2.3999999999999999 2.3999999999999999 unknown #
plane-surface $-1 -1 -1 $-1 0 2.3999999999999999 0 0 -1 0 0 0 -1 forward_v I I I I #
coedge $-1 -1 -1 $-1 $296 $217 $220 $297 forward $128 $-1 #
coedge $-1 -1 -1 $-1 $224 $130 $131 $210 reversed $87 $-1 #
coedge $-1 -1 -1 $-1 $217 $296 $130 $208 reversed $128 $-1 #
edge $298 -1 -1 $-1 $226 -2.3999999999999999 $299 2.3999999999999999 $207 $300 forward @7 unknown T -2.3999999999999999 -2.3999999999999999 -2.3999999999999999 -2.3999999999999999 -2.3999999999999999 2.3999999999999999 #
coedge $-1 -1 -1 $-1 $132 $131 $296 $301 forward $64 $-1 #
edge $302 -1 -1 $-1 $215 -2.3999999999999999 $299 2.3999999999999999 $206 $303 forward @7 unknown T -2.3999999999999999 -2.3999999999999999 -2.3999999999999999 2.3999999999999999 -2.3999999999999999 -2.3999999999999999 #
coedge $-1 -1 -1 $-1 $220 $219 $132 $212 reversed $203 $-1 #
edge $304 -1 -1 $-1 $305 -2.3999999999999999 $214 2.3999999999999999 $211 $306 forward @7 unknown T -2.3999999999999999 2.3999999999999999 -2.3999999999999999 2.3999999999999999 2.3999999999999999 -2.3999999999999999 #
simple-snl-attrib $-1 -1 $-1 $-1 $134 1 1 1 1 1 1 1 1 1 1 1 1 0 1 0 1 1 1 @17 NEW_SIMPLE_ATTRIB 1 @9 ENTITY_ID 0 3 137 -2147483648 -1 #
vertex $307 -1 -1 $-1 $134 $308 #
vertex $309 -1 -1 $-1 $228 $310 #
straight-curve $-1 -1 -1 $-1 2.3999999999999999 0 -2.3999999999999999 0 -1 0 I I #
coedge $-1 -1 -1 $-1 $205 $207 $135 $218 reversed $128 $-1 #
edge $311 -1 -1 $-1 $222 -2.3999999999999999 $226 2.3999999999999999 $217 $312 forward @7 unknown T -2.3999999999999999 -2.3999999999999999 2.3999999999999999 -2.3999999999999999 2.3999999999999999 2.3999999999999999 #
coedge $-1 -1 -1 $-1 $211 $136 $141 $229 forward $203 $-1 #
coedge $-1 -1 -1 $-1 $136 $211 $205 $297 reversed $203 $-1 #
simple-snl-attrib $-1 -1 $-1 $-1 $137 1 1 1 1 1 1 1 1 1 1 1 1 0 1 0 1 1 1 @17 NEW_SIMPLE_ATTRIB 1 @9 ENTITY_ID 0 3 134 -2147483648 -1 #
vertex $313 -1 -1 $-1 $137 $314 #
straight-curve $-1 -1 -1 $-1 0 2.3999999999999999 2.3999999999999999 -1 0 0 I I #
coedge $-1 -1 -1 $-1 $138 $206 $140 $228 reversed $87 $-1 #
simple-snl-attrib $-1 -1 $-1 $-1 $139 1 1 1 1 1 1 1 1 1 1 1 1 0 1 0 1 1 1 @17 NEW_SIMPLE_ATTRIB 1 @9 ENTITY_ID 0 3 136 -2147483648 -1 #
vertex $315 -1 -1 $-1 $218 $316 #
straight-curve $-1 -1 -1 $-1 0 -2.3999999999999999 2.3999999999999999 1 0 0 I I #
edge $317 -1 -1 $-1 $144 -2.3999999999999999 $215 2.3999999999999999 $140 $318 forward @7 unknown T 2.3999999999999999 -2.3999999999999999 -2.3999999999999999 2.3999999999999999 -2.3999999999999999 2.3999999999999999 #
edge $319 -1 -1 $-1 $145 -2.3999999999999999 $214 2.3999999999999999 $141 $320 forward @7 unknown T 2.3999999999999999 2.3999999999999999 -2.3999999999999999 2.3999999999999999 2.3999999999999999 2.3999999999999999 #
simple-snl-attrib $-1 -1 $-1 $-1 $144 1 1 1 1 1 1 1 1 1 1 1 1 0 1 0 1 1 1 @17 NEW_SIMPLE_ATTRIB 1 @9 ENTITY_ID 0 3 89 -2147483648 -1 #
point $-1 -1 -1 $-1 2.3999999999999999 -2.3999999999999999 2.3999999999999999 #
simple-snl-attrib $-1 -1 $-1 $-1 $145 1 1 1 1 1 1 1 1 1 1 1 1 0 1 0 1 1 1 @17 NEW_SIMPLE_ATTRIB 1 @9 ENTITY_ID 0 3 90 -2147483648 -1 #
point $-1 -1 -1 $-1 2.3999999999999999 2.3999999999999999 2.3999999999999999 #
simple-snl-attrib $-1 -1 $-1 $-1 $148 1 1 1 1 1 1 1 1 1 1 1 1 0 1 0 1 1 1 @17 NEW_SIMPLE_ATTRIB 1 @9 ENTITY_ID 0 3 11 -2147483648 -1 #
face $321 -1 -1 $-1 $-1 $163 $24 $-1 $322 forward single T 2.3999999999999999 -2.3999999999999999 -2.3999999999999999 2.3999999999999999 2.3999999999999999 2.3999999999999999 F #
loop $-1 -1 -1 $-1 $-1 $257 $148 T -2.3999999999999999 2.3999999999999999 -2.3999999999999999 2.3999999999999999 2.3999999999999999 2.3999999999999999 unknown #
plane-surface $-1 -1 -1 $-1 0 2.3999999999999999 0 0 -1 0 0 0 -1 forward_v I I I I #
coedge $-1 -1 -1 $-1 $250 $323 $256 $324 reversed $149 $-1 #
coedge $-1 -1 -1 $-1 $151 $252 $153 $245 forward $96 $-1 #
coedge $-1 -1 -1 $-1 $323 $250 $151 $241 forward $149 $-1 #
edge $325 -1 -1 $-1 $254 -2.3999999999999999 $326 2.3999999999999999 $240 $327 forward @7 unknown T -2.3999999999999999 -2.3999999999999999 -2.3999999999999999 -2.3999999999999999 -2.3999999999999999 2.3999999999999999 #
coedge $-1 -1 -1 $-1 $153 $152 $323 $328 reversed $69 $-1 #
coedge $-1 -1 -1 $-1 $257 $256 $152 $244 forward $236 $-1 #
edge $329 -1 -1 $-1 $330 -2.3999999999999999 $247 2.3999999999999999 $243 $331 forward @7 unknown T -2.3999999999999999 2.3999999999999999 -2.3999999999999999 2.3999999999999999 2.3999999999999999 -2.3999999999999999 #
edge $332 -1 -1 $-1 $248 -2.3999999999999999 $326 2.3999999999999999 $239 $333 forward @7 unknown T -2.3999999999999999 -2.3999999999999999 -2.3999999999999999 2.3999999999999999 -2.3999999999999999 -2.3999999999999999 #
simple-snl-attrib $-1 -1 $-1 $-1 $155 1 1 1 1 1 1 1 1 1 1 1 1 0 1 0 1 1 1 @17 NEW_SIMPLE_ATTRIB 1 @9 ENTITY_ID 0 3 65 -2147483648 -1 #
vertex $334 -1 -1 $-1 $155 $335 #
vertex $336 -1 -1 $-1 $262 $337 #
straight-curve $-1 -1 -1 $-1 2.3999999999999999 0 -2.3999999999999999 0 -1 0 I I #
coedge $-1 -1 -1 $-1 $240 $238 $156 $251 forward $149 $-1 #
edge $338 -1 -1 $-1 $259 -2.3999999999999999 $254 2.3999999999999999 $250 $339 forward @7 unknown T -2.3999999999999999 -2.3999999999999999 2.3999999999999999 -2.3999999999999999 2.3999999999999999 2.3999999999999999 #
coedge $-1 -1 -1 $-1 $239 $157 $162 $262 forward $96 $-1 #
simple-snl-attrib $-1 -1 $-1 $-1 $158 1 1 1 1 1 1 1 1 1 1 1 1 0 1 0 1 1 1 @17 NEW_SIMPLE_ATTRIB 1 @9 ENTITY_ID 0 3 62 -2147483648 -1 #
vertex $340 -1 -1 $-1 $251 $341 #
straight-curve $-1 -1 -1 $-1 0 -2.3999999999999999 2.3999999999999999 1 0 0 I I #
coedge $-1 -1 -1 $-1 $243 $159 $238 $324 forward $236 $-1 #
coedge $-1 -1 -1 $-1 $159 $243 $161 $261 reversed $236 $-1 #
simple-snl-attrib $-1 -1 $-1 $-1 $160 1 1 1 1 1 1 1 1 1 1 1 1 0 1 0 1 1 1 @17 NEW_SIMPLE_ATTRIB 1 @9 ENTITY_ID 0 3 64 -2147483648 -1 #
vertex $342 -1 -1 $-1 $160 $343 #
straight-curve $-1 -1 -1 $-1 0 2.3999999999999999 2.3999999999999999 -1 0 0 I I #
edge $344 -1 -1 $-1 $166 -2.3999999999999999 $247 2.3999999999999999 $161 $345 forward @7 unknown T 2.3999999999999999 2.3999999999999999 -2.3999999999999999 2.3999999999999999 2.3999999999999999 2.3999999999999999 #
edge $346 -1 -1 $-1 $165 -2.3999999999999999 $248 2.3999999999999999 $162 $347 forward @7 unknown T 2.3999999999999999 -2.3999999999999999 -2.3999999999999999 2.3999999999999999 -2.3999999999999999 2.3999999999999999 #
simple-snl-attrib $-1 -1 $-1 $-1 $165 1 1 1 1 1 1 1 1 1 1 1 1 0 1 0 1 1 1 @17 NEW_SIMPLE_ATTRIB 1 @9 ENTITY_ID 0 3 41 -2147483648 -1 #
point $-1 -1 -1 $-1 2.3999999999999999 -2.3999999999999999 2.3999999999999999 #
simple-snl-attrib $-1 -1 $-1 $-1 $166 1 1 1 1 1 1 1 1 1 1 1 1 0 1 0 1 1 1 @17 NEW_SIMPLE_ATTRIB 1 @9 ENTITY_ID 0 3 42 -2147483648 -1 #
point $-1 -1 -1 $-1 2.3999999999999999 2.3999999999999999 2.3999999999999999 #
simple-snl-attrib $-1 -1 $-1 $-1 $169 1 1 1 1 1 1 1 1 1 1 1 1 0 1 0 1 1 1 @17 NEW_SIMPLE_ATTRIB 1 @9 ENTITY_ID 0 3 6 -2147483648 -1 #
plane-surface $-1 -1 -1 $-1 2.448 0 0 -1 0 0 0 -0 1 forward_v I I I I #
coedge $-1 -1 -1 $-1 $174 $172 $176 $274 reversed $105 $-1 #
edge $348 -1 -1 $-1 $189 -2.448 $278 2.448 $187 $349 forward @7 unknown T -2.448 2.448 -2.448 -2.448 2.448 2.448 #
simple-snl-attrib $-1 -1 $-1 $-1 $175 1 1 1 1 1 1 1 1 1 1 1 1 0 1 0 1 1 1 @17 NEW_SIMPLE_ATTRIB 1 @9 ENTITY_ID 0 3 45 -2147483648 -1 #
vertex $350 -1 -1 $-1 $274 $351 #
straight-curve $-1 -1 -1 $-1 -2.448 -2.448 0 0 0 -1 I I #
edge $352 -1 -1 $-1 $272 -2.448 $278 2.448 $269 $353 forward @7 unknown T -2.448 -2.448 -2.448 -2.448 2.448 -2.448 #
simple-snl-attrib $-1 -1 $-1 $-1 $177 1 1 1 1 1 1 1 1 1 1 1 1 0 1 0 1 1 1 @17 NEW_SIMPLE_ATTRIB 1 @9 ENTITY_ID 0 3 42 -2147483648 -1 #
straight-curve $-1 -1 -1 $-1 0 -2.448 -2.448 -1 0 0 I I #
simple-snl-attrib $-1 -1 $-1 $-1 $179 1 1 1 1 1 1 1 1 1 1 1 1 0 1 0 1 1 1 @17 NEW_SIMPLE_ATTRIB 1 @9 ENTITY_ID 0 3 44 -2147483648 -1 #
vertex $354 -1 -1 $-1 $179 $355 #
straight-curve $-1 -1 -1 $-1 0 2.448 -2.448 1 0 0 I I #
simple-snl-attrib $-1 -1 $-1 $-1 $181 1 1 1 1 1 1 1 1 1 1 1 1 0 1 0 1 1 1 @17 NEW_SIMPLE_ATTRIB 1 @9 ENTITY_ID 0 3 29 -2147483648 -1 #
point $-1 -1 -1 $-1 2.448 2.448 -2.448 #
simple-snl-attrib $-1 -1 $-1 $-1 $182 1 1 1 1 1 1 1 1 1 1 1 1 0 1 0 1 1 1 @17 NEW_SIMPLE_ATTRIB 1 @9 ENTITY_ID 0 3 30 -2147483648 -1 #
point $-1 -1 -1 $-1 2.448 -2.448 -2.448 #
simple-snl-attrib $-1 -1 $-1 $-1 $185 1 1 1 1 1 1 1 1 1 1 1 1 0 1 0 1 1 1 @17 NEW_SIMPLE_ATTRIB 1 @9 ENTITY_ID 0 3 39 -2147483648 -1 #
straight-curve $-1 -1 -1 $-1 -2.448 0 2.448 0 -1 0 I I #
simple-snl-attrib $-1 -1 $-1 $-1 $189 1 1 1 1 1 1 1 1 1 1 1 1 0 1 0 1 1 1 @17 NEW_SIMPLE_ATTRIB 1 @9 ENTITY_ID 0 3 27 -2147483648 -1 #
point $-1 -1 -1 $-1 -2.448 2.448 2.448 #
simple-snl-attrib $-1 -1 $-1 $-1 $193 1 1 1 1 1 1 1 1 1 1 1 1 0 1 0 1 1 1 @17 NEW_SIMPLE_ATTRIB 1 @9 ENTITY_ID 0 3 28 -2147483648 -1 #
point $-1 -1 -1 $-1 -2.448 -2.448 2.448 #
simple-snl-attrib $-1 -1 $-1 $-1 $195 1 1 1 1 1 1 1 1 1 1 1 1 0 1 0 1 1 1 @17 NEW_SIMPLE_ATTRIB 1 @9 ENTITY_ID 0 3 46 -2147483648 -1 #
straight-curve $-1 -1 -1 $-1 2.448 -2.448 0 0 0 -1 I I #
simple-snl-attrib $-1 -1 $-1 $-1 $196 1 1 1 1 1 1 1 1 1 1 1 1 0 1 0 1 1 1 @17 NEW_SIMPLE_ATTRIB 1 @9 ENTITY_ID 0 3 48 -2147483648 -1 #
straight-curve $-1 -1 -1 $-1 2.448 2.448 0 0 0 -1 I I #
simple-snl-attrib $-1 -1 $-1 $-1 $202 1 1 1 1 1 1 1 1 1 1 1 1 0 1 0 1 1 1 @17 NEW_SIMPLE_ATTRIB 1 @9 ENTITY_ID 0 3 21 -2147483648 -1 #
plane-surface $-1 -1 -1 $-1 2.3999999999999999 0 0 -1 0 0 0 -0 1 forward_v I I I I #
coedge $-1 -1 -1 $-1 $207 $205 $209 $301 reversed $128 $-1 #
edge $356 -1 -1 $-1 $222 -2.3999999999999999 $305 2.3999999999999999 $220 $357 forward @7 unknown T -2.3999999999999999 2.3999999999999999 -2.3999999999999999 -2.3999999999999999 2.3999999999999999 2.3999999999999999 #
simple-snl-attrib $-1 -1 $-1 $-1 $208 1 1 1 1 1 1 1 1 1 1 1 1 0 1 0 1 1 1 @17 NEW_SIMPLE_ATTRIB 1 @9 ENTITY_ID 0 3 141 -2147483648 -1 #
vertex $358 -1 -1 $-1 $301 $359 #
straight-curve $-1 -1 -1 $-1 -2.3999999999999999 -2.3999999999999999 0 0 0 -1 I I #
edge $360 -1 -1 $-1 $299 -2.3999999999999999 $305 2.3999999999999999 $296 $361 forward @7 unknown T -2.3999999999999999 -2.3999999999999999 -2.3999999999999999 -2.3999999999999999 2.3999999999999999 -2.3999999999999999 #
simple-snl-attrib $-1 -1 $-1 $-1 $210 1 1 1 1 1 1 1 1 1 1 1 1 0 1 0 1 1 1 @17 NEW_SIMPLE_ATTRIB 1 @9 ENTITY_ID 0 3 138 -2147483648 -1 #
straight-curve $-1 -1 -1 $-1 0 -2.3999999999999999 -2.3999999999999999 -1 0 0 I I #
simple-snl-attrib $-1 -1 $-1 $-1 $212 1 1 1 1 1 1 1 1 1 1 1 1 0 1 0 1 1 1 @17 NEW_SIMPLE_ATTRIB 1 @9 ENTITY_ID 0 3 140 -2147483648 -1 #
vertex $362 -1 -1 $-1 $212 $363 #
straight-curve $-1 -1 -1 $-1 0 2.3999999999999999 -2.3999999999999999 1 0 0 I I #
simple-snl-attrib $-1 -1 $-1 $-1 $214 1 1 1 1 1 1 1 1 1 1 1 1 0 1 0 1 1 1 @17 NEW_SIMPLE_ATTRIB 1 @9 ENTITY_ID 0 3 93 -2147483648 -1 #
point $-1 -1 -1 $-1 2.3999999999999999 2.3999999999999999 -2.3999999999999999 #
simple-snl-attrib $-1 -1 $-1 $-1 $215 1 1 1 1 1 1 1 1 1 1 1 1 0 1 0 1 1 1 @17 NEW_SIMPLE_ATTRIB 1 @9 ENTITY_ID 0 3 94 -2147483648 -1 #
point $-1 -1 -1 $-1 2.3999999999999999 -2.3999999999999999 -2.3999999999999999 #
simple-snl-attrib $-1 -1 $-1 $-1 $218 1 1 1 1 1 1 1 1 1 1 1 1 0 1 0 1 1 1 @17 NEW_SIMPLE_ATTRIB 1 @9 ENTITY_ID 0 3 135 -2147483648 -1 #
straight-curve $-1 -1 -1 $-1 -2.3999999999999999 0 2.3999999999999999 0 -1 0 I I #
simple-snl-attrib $-1 -1 $-1 $-1 $222 1 1 1 1 1 1 1 1 1 1 1 1 0 1 0 1 1 1 @17 NEW_SIMPLE_ATTRIB 1 @9 ENTITY_ID 0 3 91 -2147483648 -1 #
point $-1 -1 -1 $-1 -2.3999999999999999 2.3999999999999999 2.3999999999999999 #
simple-snl-attrib $-1 -1 $-1 $-1 $226 1 1 1 1 1 1 1 1 1 1 1 1 0 1 0 1 1 1 @17 NEW_SIMPLE_ATTRIB 1 @9 ENTITY_ID 0 3 92 -2147483648 -1 #
point $-1 -1 -1 $-1 -2.3999999999999999 -2.3999999999999999 2.3999999999999999 #
simple-snl-attrib $-1 -1 $-1 $-1 $228 1 1 1 1 1 1 1 1 1 1 1 1 0 1 0 1 1 1 @17 NEW_SIMPLE_ATTRIB 1 @9 ENTITY_ID 0 3 142 -2147483648 -1 #
straight-curve $-1 -1 -1 $-1 2.3999999999999999 -2.3999999999999999 0 0 0 -1 I I #
simple-snl-attrib $-1 -1 $-1 $-1 $229 1 1 1 1 1 1 1 1 1 1 1 1 0 1 0 1 1 1 @17 NEW_SIMPLE_ATTRIB 1 @9 ENTITY_ID 0 3 144 -2147483648 -1 #
straight-curve $-1 -1 -1 $-1 2.3999999999999999 2.3999999999999999 0 0 0 -1 I I #
simple-snl-attrib $-1 -1 $-1 $-1 $235 1 1 1 1 1 1 1 1 1 1 1 1 0 1 0 1 1 1 @17 NEW_SIMPLE_ATTRIB 1 @9 ENTITY_ID 0 3 12 -2147483648 -1 #
plane-surface $-1 -1 -1 $-1 2.3999999999999999 0 0 -1 0 0 0 -0 1 forward_v I I I I #
coedge $-1 -1 -1 $-1 $238 $240 $242 $328 forward $149 $-1 #
edge $364 -1 -1 $-1 $259 -2.3999999999999999 $330 2.3999999999999999 $256 $365 forward @7 unknown T -2.3999999999999999 2.3999999999999999 -2.3999999999999999 -2.3999999999999999 2.3999999999999999 2.3999999999999999 #
simple-snl-attrib $-1 -1 $-1 $-1 $241 1 1 1 1 1 1 1 1 1 1 1 1 0 1 0 1 1 1 @17 NEW_SIMPLE_ATTRIB 1 @9 ENTITY_ID 0 3 69 -2147483648 -1 #
vertex $366 -1 -1 $-1 $328 $367 #
straight-curve $-1 -1 -1 $-1 -2.3999999999999999 -2.3999999999999999 0 0 0 -1 I I #
edge $368 -1 -1 $-1 $326 -2.3999999999999999 $330 2.3999999999999999 $323 $369 forward @7 unknown T -2.3999999999999999 -2.3999999999999999 -2.3999999999999999 -2.3999999999999999 2.3999999999999999 -2.3999999999999999 #
simple-snl-attrib $-1 -1 $-1 $-1 $244 1 1 1 1 1 1 1 1 1 1 1 1 0 1 0 1 1 1 @17 NEW_SIMPLE_ATTRIB 1 @9 ENTITY_ID 0 3 66 -2147483648 -1 #
vertex $370 -1 -1 $-1 $244 $371 #
straight-curve $-1 -1 -1 $-1 0 2.3999999999999999 -2.3999999999999999 1 0 0 I I #
simple-snl-attrib $-1 -1 $-1 $-1 $245 1 1 1 1 1 1 1 1 1 1 1 1 0 1 0 1 1 1 @17 NEW_SIMPLE_ATTRIB 1 @9 ENTITY_ID 0 3 68 -2147483648 -1 #
straight-curve $-1 -1 -1 $-1 0 -2.3999999999999999 -2.3999999999999999 -1 0 0 I I #
simple-snl-attrib $-1 -1 $-1 $-1 $247 1 1 1 1 1 1 1 1 1 1 1 1 0 1 0 1 1 1 @17 NEW_SIMPLE_ATTRIB 1 @9 ENTITY_ID 0 3 45 -2147483648 -1 #
point $-1 -1 -1 $-1 2.3999999999999999 2.3999999999999999 -2.3999999999999999 #
simple-snl-attrib $-1 -1 $-1 $-1 $248 1 1 1 1 1 1 1 1 1 1 1 1 0 1 0 1 1 1 @17 NEW_SIMPLE_ATTRIB 1 @9 ENTITY_ID 0 3 46 -2147483648 -1 #
point $-1 -1 -1 $-1 2.3999999999999999 -2.3999999999999999 -2.3999999999999999 #
simple-snl-attrib $-1 -1 $-1 $-1 $251 1 1 1 1 1 1 1 1 1 1 1 1 0 1 0 1 1 1 @17 NEW_SIMPLE_ATTRIB 1 @9 ENTITY_ID 0 3 63 -2147483648 -1 #
straight-curve $-1 -1 -1 $-1 -2.3999999999999999 0 2.3999999999999999 0 -1 0 I I #
simple-snl-attrib $-1 -1 $-1 $-1 $254 1 1 1 1 1 1 1 1 1 1 1 1 0 1 0 1 1 1 @17 NEW_SIMPLE_ATTRIB 1 @9 ENTITY_ID 0 3 43 -2147483648 -1 #
point $-1 -1 -1 $-1 -2.3999999999999999 -2.3999999999999999 2.3999999999999999 #
simple-snl-attrib $-1 -1 $-1 $-1 $259 1 1 1 1 1 1 1 1 1 1 1 1 0 1 0 1 1 1 @17 NEW_SIMPLE_ATTRIB 1 @9 ENTITY_ID 0 3 44 -2147483648 -1 #
point $-1 -1 -1 $-1 -2.3999999999999999 2.3999999999999999 2.3999999999999999 #
simple-snl-attrib $-1 -1 $-1 $-1 $261 1 1 1 1 1 1 1 1 1 1 1 1 0 1 0 1 1 1 @17 NEW_SIMPLE_ATTRIB 1 @9 ENTITY_ID 0 3 72 -2147483648 -1 #
straight-curve $-1 -1 -1 $-1 2.3999999999999999 2.3999999999999999 0 0 0 -1 I I #
simple-snl-attrib $-1 -1 $-1 $-1 $262 1 1 1 1 1 1 1 1 1 1 1 1 0 1 0 1 1 1 @17 NEW_SIMPLE_ATTRIB 1 @9 ENTITY_ID 0 3 70 -2147483648 -1 #
straight-curve $-1 -1 -1 $-1 2.3999999999999999 -2.3999999999999999 0 0 0 -1 I I #
simple-snl-attrib $-1 -1 $-1 $-1 $270 1 1 1 1 1 1 1 1 1 1 1 1 0 1 0 1 1 1 @17 NEW_SIMPLE_ATTRIB 1 @9 ENTITY_ID 0 3 47 -2147483648 -1 #
straight-curve $-1 -1 -1 $-1 -2.448 2.448 0 0 0 -1 I I #
simple-snl-attrib $-1 -1 $-1 $-1 $272 1 1 1 1 1 1 1 1 1 1 1 1 0 1 0 1 1 1 @17 NEW_SIMPLE_ATTRIB 1 @9 ENTITY_ID 0 3 31 -2147483648 -1 #
point $-1 -1 -1 $-1 -2.448 -2.448 -2.448 #
simple-snl-attrib $-1 -1 $-1 $-1 $274 1 1 1 1 1 1 1 1 1 1 1 1 0 1 0 1 1 1 @17 NEW_SIMPLE_ATTRIB 1 @9 ENTITY_ID 0 3 43 -2147483648 -1 #
straight-curve $-1 -1 -1 $-1 -2.448 0 -2.448 0 1 0 I I #
simple-snl-attrib $-1 -1 $-1 $-1 $278 1 1 1 1 1 1 1 1 1 1 1 1 0 1 0 1 1 1 @17 NEW_SIMPLE_ATTRIB 1 @9 ENTITY_ID 0 3 32 -2147483648 -1 #
point $-1 -1 -1 $-1 -2.448 2.448 -2.448 #
simple-snl-attrib $-1 -1 $-1 $-1 $297 1 1 1 1 1 1 1 1 1 1 1 1 0 1 0 1 1 1 @17 NEW_SIMPLE_ATTRIB 1 @9 ENTITY_ID 0 3 143 -2147483648 -1 #
straight-curve $-1 -1 -1 $-1 -2.3999999999999999 2.3999999999999999 0 0 0 -1 I I #
simple-snl-attrib $-1 -1 $-1 $-1 $299 1 1 1 1 1 1 1 1 1 1 1 1 0 1 0 1 1 1 @17 NEW_SIMPLE_ATTRIB 1 @9 ENTITY_ID 0 3 95 -2147483648 -1 #
point $-1 -1 -1 $-1 -2.3999999999999999 -2.3999999999999999 -2.3999999999999999 #
simple-snl-attrib $-1 -1 $-1 $-1 $301 1 1 1 1 1 1 1 1 1 1 1 1 0 1 0 1 1 1 @17 NEW_SIMPLE_ATTRIB 1 @9 ENTITY_ID 0 3 139 -2147483648 -1 #
straight-curve $-1 -1 -1 $-1 -2.3999999999999999 0 -2.3999999999999999 0 1 0 I I #
simple-snl-attrib $-1 -1 $-1 $-1 $305 1 1 1 1 1 1 1 1 1 1 1 1 0 1 0 1 1 1 @17 NEW_SIMPLE_ATTRIB 1 @9 ENTITY_ID 0 3 96 -2147483648 -1 #
point $-1 -1 -1 $-1 -2.3999999999999999 2.3999999999999999 -2.3999999999999999 #
simple-snl-attrib $-1 -1 $-1 $-1 $324 1 1 1 1 1 1 1 1 1 1 1 1 0 1 0 1 1 1 @17 NEW_SIMPLE_ATTRIB 1 @9 ENTITY_ID 0 3 71 -2147483648 -1 #
straight-curve $-1 -1 -1 $-1 -2.3999999999999999 2.3999999999999999 0 0 0 -1 I I #
simple-snl-attrib $-1 -1 $-1 $-1 $326 1 1 1 1 1 1 1 1 1 1 1 1 0 1 0 1 1 1 @17 NEW_SIMPLE_ATTRIB 1 @9 ENTITY_ID 0 3 48 -2147483648 -1 #
point $-1 -1 -1 $-1 -2.3999999999999999 -2.3999999999999999 -2.3999999999999999 #
simple-snl-attrib $-1 -1 $-1 $-1 $328 1 1 1 1 1 1 1 1 1 1 1 1 0 1 0 1 1 1 @17 NEW_SIMPLE_ATTRIB 1 @9 ENTITY_ID 0 3 67 -2147483648 -1 #
straight-curve $-1 -1 -1 $-1 -2.3999999999999999 0 -2.3999999999999999 0 1 0 I I #
simple-snl-attrib $-1 -1 $-1 $-1 $330 1 1 1 1 1 1 1 1 1 1 1 1 0 1 0 1 1 1 @17 NEW_SIMPLE_ATTRIB 1 @9 ENTITY_ID 0 3 47 -2147483648 -1 #
point $-1 -1 -1 $-1 -2.3999999999999999 2.3999999999999999 -2.3999999999999999 #
End-of-ACIS-data 