1600 0 4 0           
14 Cubit  (iGeom) 17 ACIS 16.0.7 Linux 24 Fri Mar 11 15:05:34 2011 
1 9.9999999999999995e-07 1e-10 
body $4 -1 -1 $-1 $5 $-1 $-1 F #
body $6 -1 -1 $-1 $7 $-1 $-1 T -50 -1.1102230246251565e-14 -50.000000000000028 50.000000000000007 120.00000000000001 50 #
body $8 -1 -1 $-1 $9 $-1 $-1 T -5 95 -5 5 105 5 #
body $10 -1 -1 $-1 $11 $-1 $-1 T -204 -204 -204 204 204 204 #
simple-snl-attrib $-1 -1 $12 $-1 $0 1 1 1 1 1 1 1 1 1 1 1 1 0 1 0 1 1 1 @17 NEW_SIMPLE_ATTRIB 1 @9 ENTITY_ID 0 3 4 -2147483648 -1 #
lump $13 -1 -1 $-1 $-1 $14 $0 F #
simple-snl-attrib $-1 -1 $15 $-1 $1 1 1 1 1 1 1 1 1 1 1 1 1 0 1 0 1 1 1 @17 NEW_SIMPLE_ATTRIB 1 @9 ENTITY_ID 0 3 19 -2147483648 -1 #
lump $16 -1 -1 $-1 $-1 $17 $1 T -50 -1.1102230246251565e-14 -50.000000000000028 50.000000000000007 120.00000000000001 50 #
simple-snl-attrib $-1 -1 $18 $-1 $2 1 1 1 1 1 1 1 1 1 1 1 1 0 1 0 1 1 1 @17 NEW_SIMPLE_ATTRIB 1 @9 ENTITY_ID 0 3 22 -2147483648 -1 #
lump $19 -1 -1 $-1 $-1 $20 $2 T -5 95 -5 5 105 5 #
simple-snl-attrib $-1 -1 $21 $-1 $3 1 1 1 1 1 1 1 1 1 1 1 1 0 1 0 1 1 1 @17 NEW_SIMPLE_ATTRIB 1 @9 ENTITY_ID 0 3 25 -2147483648 -1 #
lump $22 -1 -1 $-1 $-1 $23 $3 T -204 -204 -204 204 204 204 #
simple-snl-attrib $-1 -1 $-1 $4 $0 1 1 1 1 1 1 1 1 1 1 1 1 0 1 0 1 1 1 @17 NEW_SIMPLE_ATTRIB 2 @5 GROUP @9 graveyard 0 7 1 1 1633290257 0 0 0 0 #
simple-snl-attrib $-1 -1 $-1 $-1 $5 1 1 1 1 1 1 1 1 1 1 1 1 0 1 0 1 1 1 @17 NEW_SIMPLE_ATTRIB 1 @9 ENTITY_ID 0 3 1 -2147483648 -1 #
shell $-1 -1 -1 $-1 $24 $-1 $25 $-1 $5 T -208.08000000000001 -208.08000000000001 -208.08000000000001 208.08000000000001 208.08000000000001 208.08000000000001 #
simple-snl-attrib $-1 -1 $26 $6 $1 1 1 1 1 1 1 1 1 1 1 1 1 0 1 0 1 1 1 @17 NEW_SIMPLE_ATTRIB 2 @5 GROUP @15 mat_21_rho_-2.7 0 7 1 2 1913134887 0 0 0 0 #
simple-snl-attrib $-1 -1 $-1 $-1 $7 1 1 1 1 1 1 1 1 1 1 1 1 0 1 0 1 1 1 @17 NEW_SIMPLE_ATTRIB 1 @9 ENTITY_ID 0 3 2 -2147483648 -1 #
shell $-1 -1 -1 $-1 $27 $-1 $28 $-1 $7 T -50 -1.1102230246251565e-14 -50.000000000000028 50.000000000000007 120.00000000000001 50 #
simple-snl-attrib $-1 -1 $29 $8 $2 1 1 1 1 1 1 1 1 1 1 1 1 0 1 0 1 1 1 @17 NEW_SIMPLE_ATTRIB 2 @5 GROUP @14 mat_22_rho_-10 0 7 1 3 1993854693 0 0 0 0 #
simple-snl-attrib $-1 -1 $-1 $-1 $9 1 1 1 1 1 1 1 1 1 1 1 1 0 1 0 1 1 1 @17 NEW_SIMPLE_ATTRIB 1 @9 ENTITY_ID 0 3 3 -2147483648 -1 #
shell $-1 -1 -1 $-1 $-1 $-1 $30 $-1 $9 T -5 95 -5 5 105 5 #
simple-snl-attrib $-1 -1 $-1 $10 $3 1 1 1 1 1 1 1 1 1 1 1 1 0 1 0 1 1 1 @17 NEW_SIMPLE_ATTRIB 2 @11 ENTITY_NAME @9 MCNP_ID_3 0 0 #
simple-snl-attrib $-1 -1 $-1 $-1 $11 1 1 1 1 1 1 1 1 1 1 1 1 0 1 0 1 1 1 @17 NEW_SIMPLE_ATTRIB 1 @9 ENTITY_ID 0 3 4 -2147483648 -1 #
shell $-1 -1 -1 $-1 $31 $-1 $32 $-1 $11 T -204 -204 -204 204 204 204 #
shell $-1 -1 -1 $-1 $-1 $-1 $33 $-1 $5 T -204 -204 -204 204 204 204 #
face $34 -1 -1 $-1 $35 $36 $14 $-1 $37 forward single T -208.08000000000001 -208.08000000000001 208.08000000000001 208.08000000000001 208.08000000000001 208.08000000000001 F #
simple-snl-attrib $-1 -1 $-1 $15 $1 1 1 1 1 1 1 1 1 1 1 1 1 0 1 0 1 1 1 @17 NEW_SIMPLE_ATTRIB 2 @11 ENTITY_NAME @9 MCNP_ID_1 0 0 #
shell $-1 -1 -1 $-1 $-1 $-1 $38 $-1 $7 T -5 95 -5 5 105 5 #
face $39 -1 -1 $-1 $40 $41 $17 $-1 $42 forward single T -50 -1.1102230246251565e-14 -50.000000000000028 50.000000000000007 120.00000000000001 50 F #
simple-snl-attrib $-1 -1 $-1 $18 $2 1 1 1 1 1 1 1 1 1 1 1 1 0 1 0 1 1 1 @17 NEW_SIMPLE_ATTRIB 2 @11 ENTITY_NAME @9 MCNP_ID_2 0 0 #
face $43 -1 -1 $-1 $-1 $-1 $20 $-1 $44 forward single T -5 95 -5 5 105 5 F #
shell $-1 -1 -1 $-1 $-1 $-1 $45 $-1 $11 T -50 -1.1102230246251565e-14 -50.000000000000028 50.000000000000007 120.00000000000001 50 #
face $46 -1 -1 $-1 $47 $48 $23 $-1 $49 forward single T -204 -204 204 204 204 204 F #
face $50 -1 -1 $-1 $51 $52 $24 $-1 $53 reversed single T -204 -204 204 204 204 204 F #
simple-snl-attrib $-1 -1 $-1 $-1 $25 1 1 1 1 1 1 1 1 1 1 1 1 0 1 0 1 1 1 @17 NEW_SIMPLE_ATTRIB 1 @9 ENTITY_ID 0 3 1 -2147483648 -1 #
face $54 -1 -1 $-1 $55 $56 $14 $-1 $57 reversed single T -208.08000000000001 -208.08000000000001 -208.08000000000001 208.08000000000001 208.08000000000001 -208.08000000000001 F #
loop $-1 -1 -1 $-1 $-1 $58 $25 T -208.08000000000001 -208.08000000000001 208.08000000000001 208.08000000000001 208.08000000000001 208.08000000000001 unknown #
plane-surface $-1 -1 -1 $-1 0 0 208.08000000000001 0 0 1 1 0 0 forward_v I I I I #
face $59 -1 -1 $-1 $-1 $-1 $27 $-1 $60 reversed single T -5 95 -5 5 105 5 F #
simple-snl-attrib $-1 -1 $61 $-1 $28 1 1 1 1 1 1 1 1 1 1 1 1 0 1 0 1 1 1 @17 NEW_SIMPLE_ATTRIB 1 @9 UNIQUE_ID 1 0 1 146695390 #
face $62 -1 -1 $-1 $63 $64 $17 $-1 $65 forward single T -50 -1.1102230246251565e-14 -50 50 1.1102230246251564e-14 50 F #
loop $-1 -1 -1 $-1 $66 $67 $28 T -50 -1.1102230246251565e-14 -50 50 1.1102230246251564e-14 50 unknown #
cone-surface $-1 -1 -1 $-1 5.1957363374129592e-15 60 -1.3322676295501878e-14 8.6595605623549316e-17 1 -2.2204460492503131e-16 -50 4.3297802811774655e-15 -4.3297802811774655e-15 1 I I 0 1 50 forward I I I I #
simple-snl-attrib $-1 -1 $68 $-1 $30 1 1 1 1 1 1 1 1 1 1 1 1 0 1 0 1 1 1 @17 NEW_SIMPLE_ATTRIB 1 @9 UNIQUE_ID 1 0 1 1382245086 #
sphere-surface $-1 -1 -1 $-1 0 100 0 5 1 0 0 0 0 1 forward_v I I I I #
face $69 -1 -1 $-1 $70 $71 $31 $-1 $72 reversed single T -50 -1.1102230246251565e-14 -50.000000000000028 50.000000000000007 120.00000000000001 50 F #
simple-snl-attrib $-1 -1 $-1 $-1 $32 1 1 1 1 1 1 1 1 1 1 1 1 0 1 0 1 1 1 @17 NEW_SIMPLE_ATTRIB 1 @9 ENTITY_ID 0 3 18 -2147483648 -1 #
face $73 -1 -1 $-1 $74 $75 $23 $-1 $76 reversed single T -204 -204 -204 204 204 -204 F #
loop $-1 -1 -1 $-1 $-1 $77 $32 T -204 -204 204 204 204 204 unknown #
plane-surface $-1 -1 -1 $-1 0 0 204 0 0 1 1 0 0 forward_v I I I I #
simple-snl-attrib $-1 -1 $-1 $-1 $33 1 1 1 1 1 1 1 1 1 1 1 1 0 1 0 1 1 1 @17 NEW_SIMPLE_ATTRIB 1 @9 ENTITY_ID 0 3 7 -2147483648 -1 #
face $78 -1 -1 $-1 $79 $80 $24 $-1 $81 forward single T -204 -204 -204 204 204 -204 F #
loop $-1 -1 -1 $-1 $-1 $82 $33 T -204 -204 204 204 204 204 unknown #
plane-surface $-1 -1 -1 $-1 0 0 204 0 0 1 1 0 0 forward_v I I I I #
simple-snl-attrib $-1 -1 $-1 $-1 $35 1 1 1 1 1 1 1 1 1 1 1 1 0 1 0 1 1 1 @17 NEW_SIMPLE_ATTRIB 1 @9 ENTITY_ID 0 3 2 -2147483648 -1 #
face $83 -1 -1 $-1 $84 $85 $14 $-1 $86 reversed single T -208.08000000000001 -208.08000000000001 -208.08000000000001 208.08000000000001 -208.08000000000001 208.08000000000001 F #
loop $-1 -1 -1 $-1 $-1 $87 $35 T -208.08000000000001 -208.08000000000001 -208.08000000000001 208.08000000000001 208.08000000000001 -208.08000000000001 unknown #
plane-surface $-1 -1 -1 $-1 0 0 -208.08000000000001 0 0 1 1 0 0 forward_v I I I I #
coedge $-1 -1 -1 $-1 $88 $89 $90 $91 forward $36 $-1 #
simple-snl-attrib $-1 -1 $92 $-1 $38 1 1 1 1 1 1 1 1 1 1 1 1 0 1 0 1 1 1 @17 NEW_SIMPLE_ATTRIB 1 @9 UNIQUE_ID 1 0 1 1382245086 #
sphere-surface $-1 -1 -1 $-1 0 100 0 5 1 0 0 0 0 1 forward_v I I I I #
simple-snl-attrib $-1 -1 $93 $39 $28 1 1 1 1 1 1 1 1 1 1 1 1 0 1 0 1 1 1 @17 NEW_SIMPLE_ATTRIB 1 @9 ENTITY_ID 0 3 13 2117389781 1 #
simple-snl-attrib $-1 -1 $94 $-1 $40 1 1 1 1 1 1 1 1 1 1 1 1 0 1 0 1 1 1 @17 NEW_SIMPLE_ATTRIB 1 @9 UNIQUE_ID 1 0 1 1232626847 #
face $95 -1 -1 $-1 $-1 $96 $17 $-1 $97 forward single T -49.999999999999993 119.99999999999999 -50.000000000000028 50.000000000000007 120.00000000000001 49.999999999999972 F #
loop $-1 -1 -1 $-1 $-1 $98 $40 T -50 -1.1102230246251565e-14 -50 50 1.1102230246251564e-14 50 unknown #
plane-surface $-1 -1 -1 $-1 0 0 0 -8.6595605623549316e-17 -1 2.2204460492503131e-16 1 -8.6595605623549304e-17 8.6595605623549316e-17 forward_v I I I I #
loop $-1 -1 -1 $-1 $-1 $99 $28 T -49.999999999999993 119.99999999999999 -50.000000000000028 50.000000000000007 120.00000000000001 49.999999999999972 unknown #
coedge $-1 -1 -1 $-1 $67 $67 $98 $100 reversed $41 $-1 #
simple-snl-attrib $-1 -1 $101 $43 $30 1 1 1 1 1 1 1 1 1 1 1 1 0 1 0 1 1 1 @17 NEW_SIMPLE_ATTRIB 1 @9 ENTITY_ID 0 3 16 -2147483648 -1 #
simple-snl-attrib $-1 -1 $102 $-1 $45 1 1 1 1 1 1 1 1 1 1 1 1 0 1 0 1 1 1 @17 NEW_SIMPLE_ATTRIB 1 @9 UNIQUE_ID 1 0 1 146695390 #
face $103 -1 -1 $-1 $104 $105 $31 $-1 $106 reversed single T -50 -1.1102230246251565e-14 -50 50 1.1102230246251564e-14 50 F #
loop $-1 -1 -1 $-1 $107 $108 $45 T -50 -1.1102230246251565e-14 -50 50 1.1102230246251564e-14 50 unknown #
cone-surface $-1 -1 -1 $-1 5.1957363374129592e-15 60 -1.3322676295501878e-14 8.6595605623549316e-17 1 -2.2204460492503131e-16 -50 4.3297802811774655e-15 -4.3297802811774655e-15 1 I I 0 1 50 forward I I I I #
simple-snl-attrib $-1 -1 $-1 $-1 $47 1 1 1 1 1 1 1 1 1 1 1 1 0 1 0 1 1 1 @17 NEW_SIMPLE_ATTRIB 1 @9 ENTITY_ID 0 3 19 -2147483648 -1 #
face $109 -1 -1 $-1 $110 $111 $23 $-1 $112 reversed single T -204 -204 -204 204 -204 204 F #
loop $-1 -1 -1 $-1 $-1 $113 $47 T -204 -204 -204 204 204 -204 unknown #
plane-surface $-1 -1 -1 $-1 0 0 -204 0 0 1 1 0 0 forward_v I I I I #
coedge $-1 -1 -1 $-1 $114 $115 $116 $117 forward $48 $-1 #
simple-snl-attrib $-1 -1 $-1 $-1 $51 1 1 1 1 1 1 1 1 1 1 1 1 0 1 0 1 1 1 @17 NEW_SIMPLE_ATTRIB 1 @9 ENTITY_ID 0 3 8 -2147483648 -1 #
face $118 -1 -1 $-1 $119 $120 $24 $-1 $121 forward single T -204 -204 -204 204 -204 204 F #
loop $-1 -1 -1 $-1 $-1 $122 $51 T -204 -204 -204 204 204 -204 unknown #
plane-surface $-1 -1 -1 $-1 0 0 -204 0 0 1 1 0 0 forward_v I I I I #
coedge $-1 -1 -1 $-1 $123 $124 $125 $126 reversed $52 $-1 #
simple-snl-attrib $-1 -1 $-1 $-1 $55 1 1 1 1 1 1 1 1 1 1 1 1 0 1 0 1 1 1 @17 NEW_SIMPLE_ATTRIB 1 @9 ENTITY_ID 0 3 3 -2147483648 -1 #
face $127 -1 -1 $-1 $128 $129 $14 $-1 $130 reversed single T -208.08000000000001 -208.08000000000001 -208.08000000000001 -208.08000000000001 208.08000000000001 208.08000000000001 F #
loop $-1 -1 -1 $-1 $-1 $131 $55 T -208.08000000000001 -208.08000000000001 -208.08000000000001 208.08000000000001 -208.08000000000001 208.08000000000001 unknown #
plane-surface $-1 -1 -1 $-1 0 -208.08000000000001 0 0 1 -0 -0 0 1 forward_v I I I I #
coedge $-1 -1 -1 $-1 $132 $133 $134 $135 forward $56 $-1 #
coedge $-1 -1 -1 $-1 $136 $58 $137 $138 forward $36 $-1 #
coedge $-1 -1 -1 $-1 $58 $136 $139 $140 forward $36 $-1 #
coedge $-1 -1 -1 $-1 $141 $142 $58 $91 reversed $143 $-1 #
edge $144 -1 -1 $-1 $145 -208.08000000000001 $146 208.08000000000001 $90 $147 forward @7 unknown T 208.08000000000001 -208.08000000000001 208.08000000000001 208.08000000000001 208.08000000000001 208.08000000000001 #
simple-snl-attrib $-1 -1 $148 $59 $38 1 1 1 1 1 1 1 1 1 1 1 1 0 1 0 1 1 1 @17 NEW_SIMPLE_ATTRIB 1 @9 ENTITY_ID 0 3 16 -2147483648 -1 #
simple-snl-attrib $-1 -1 $-1 $61 $28 1 1 1 1 1 1 1 1 1 1 1 1 0 1 0 1 1 1 @17 NEW_SIMPLE_ATTRIB 1 @13 MERGE_PARTNER 0 4 146695390 1 81 1 #
simple-snl-attrib $-1 -1 $149 $62 $40 1 1 1 1 1 1 1 1 1 1 1 1 0 1 0 1 1 1 @17 NEW_SIMPLE_ATTRIB 1 @9 ENTITY_ID 0 3 14 2117389781 0 #
simple-snl-attrib $-1 -1 $150 $-1 $63 1 1 1 1 1 1 1 1 1 1 1 1 0 1 0 1 1 1 @17 NEW_SIMPLE_ATTRIB 1 @9 UNIQUE_ID 1 0 1 974234538 #
loop $-1 -1 -1 $-1 $-1 $151 $63 T -49.999999999999993 119.99999999999999 -50.000000000000028 50.000000000000007 120.00000000000001 49.999999999999972 unknown #
plane-surface $-1 -1 -1 $-1 1.0391472674825918e-14 120 -2.6645352591003757e-14 8.6595605623549316e-17 1 -2.2204460492503131e-16 -1 8.6595605623549304e-17 -8.6595605623549316e-17 forward_v I I I I #
coedge $-1 -1 -1 $-1 $98 $98 $67 $100 forward $64 $-1 #
coedge $-1 -1 -1 $-1 $99 $99 $151 $152 reversed $66 $-1 #
edge $153 -1 -1 $-1 $154 0 $154 6.2831853071795862 $98 $155 forward @7 unknown T -50 -1.1102230246251565e-14 -50 50 1.1102230246251564e-14 50 #
simple-snl-attrib $-1 -1 $-1 $68 $30 1 1 1 1 1 1 1 1 1 1 1 1 0 1 0 1 1 1 @17 NEW_SIMPLE_ATTRIB 1 @13 MERGE_PARTNER 0 4 1382245086 -1 17 0 #
simple-snl-attrib $-1 -1 $156 $69 $45 1 1 1 1 1 1 1 1 1 1 1 1 0 1 0 1 1 1 @17 NEW_SIMPLE_ATTRIB 1 @9 ENTITY_ID 0 3 13 2117389781 1 #
simple-snl-attrib $-1 -1 $157 $-1 $70 1 1 1 1 1 1 1 1 1 1 1 1 0 1 0 1 1 1 @17 NEW_SIMPLE_ATTRIB 1 @9 UNIQUE_ID 1 0 1 1232626847 #
face $158 -1 -1 $-1 $-1 $159 $31 $-1 $160 reversed single T -49.999999999999993 119.99999999999999 -50.000000000000028 50.000000000000007 120.00000000000001 49.999999999999972 F #
loop $-1 -1 -1 $-1 $-1 $161 $70 T -50 -1.1102230246251565e-14 -50 50 1.1102230246251564e-14 50 unknown #
plane-surface $-1 -1 -1 $-1 0 0 0 -8.6595605623549316e-17 -1 2.2204460492503131e-16 1 -8.6595605623549304e-17 8.6595605623549316e-17 forward_v I I I I #
loop $-1 -1 -1 $-1 $-1 $162 $45 T -49.999999999999993 119.99999999999999 -50.000000000000028 50.000000000000007 120.00000000000001 49.999999999999972 unknown #
coedge $-1 -1 -1 $-1 $108 $108 $161 $163 forward $71 $-1 #
simple-snl-attrib $-1 -1 $-1 $-1 $74 1 1 1 1 1 1 1 1 1 1 1 1 0 1 0 1 1 1 @17 NEW_SIMPLE_ATTRIB 1 @9 ENTITY_ID 0 3 20 -2147483648 -1 #
face $164 -1 -1 $-1 $165 $166 $23 $-1 $167 reversed single T -204 -204 -204 -204 204 204 F #
loop $-1 -1 -1 $-1 $-1 $168 $74 T -204 -204 -204 204 -204 204 unknown #
plane-surface $-1 -1 -1 $-1 0 -204 0 0 1 -0 -0 0 1 forward_v I I I I #
coedge $-1 -1 -1 $-1 $169 $170 $171 $172 forward $75 $-1 #
coedge $-1 -1 -1 $-1 $173 $77 $174 $175 forward $48 $-1 #
coedge $-1 -1 -1 $-1 $77 $173 $176 $177 forward $48 $-1 #
coedge $-1 -1 -1 $-1 $178 $179 $77 $117 reversed $180 $-1 #
edge $181 -1 -1 $-1 $182 -204 $183 204 $116 $184 forward @7 unknown T 204 -204 204 204 204 204 #
simple-snl-attrib $-1 -1 $-1 $-1 $79 1 1 1 1 1 1 1 1 1 1 1 1 0 1 0 1 1 1 @17 NEW_SIMPLE_ATTRIB 1 @9 ENTITY_ID 0 3 9 -2147483648 -1 #
face $185 -1 -1 $-1 $186 $187 $24 $-1 $188 forward single T -204 -204 -204 -204 204 204 F #
loop $-1 -1 -1 $-1 $-1 $189 $79 T -204 -204 -204 204 -204 204 unknown #
plane-surface $-1 -1 -1 $-1 0 -204 0 0 1 -0 -0 0 1 forward_v I I I I #
coedge $-1 -1 -1 $-1 $190 $191 $192 $193 reversed $80 $-1 #
coedge $-1 -1 -1 $-1 $194 $82 $195 $196 reversed $52 $-1 #
coedge $-1 -1 -1 $-1 $82 $194 $197 $198 reversed $52 $-1 #
coedge $-1 -1 -1 $-1 $199 $200 $82 $126 forward $201 $-1 #
edge $202 -1 -1 $-1 $203 -204 $204 204 $125 $205 forward @7 unknown T 204 -204 204 204 204 204 #
simple-snl-attrib $-1 -1 $-1 $-1 $84 1 1 1 1 1 1 1 1 1 1 1 1 0 1 0 1 1 1 @17 NEW_SIMPLE_ATTRIB 1 @9 ENTITY_ID 0 3 4 -2147483648 -1 #
face $206 -1 -1 $-1 $207 $208 $14 $-1 $209 reversed single T -208.08000000000001 208.08000000000001 -208.08000000000001 208.08000000000001 208.08000000000001 208.08000000000001 F #
loop $-1 -1 -1 $-1 $-1 $210 $84 T -208.08000000000001 -208.08000000000001 -208.08000000000001 -208.08000000000001 208.08000000000001 208.08000000000001 unknown #
plane-surface $-1 -1 -1 $-1 -208.08000000000001 0 0 1 0 0 0 0 -1 forward_v I I I I #
coedge $-1 -1 -1 $-1 $211 $139 $212 $213 forward $85 $-1 #
coedge $-1 -1 -1 $-1 $214 $87 $211 $215 forward $56 $-1 #
coedge $-1 -1 -1 $-1 $87 $214 $216 $217 forward $56 $-1 #
coedge $-1 -1 -1 $-1 $142 $141 $87 $135 reversed $143 $-1 #
edge $218 -1 -1 $-1 $219 -208.08000000000001 $220 208.08000000000001 $134 $221 forward @7 unknown T 208.08000000000001 -208.08000000000001 -208.08000000000001 208.08000000000001 208.08000000000001 -208.08000000000001 #
coedge $-1 -1 -1 $-1 $89 $88 $222 $223 forward $36 $-1 #
coedge $-1 -1 -1 $-1 $224 $225 $88 $138 reversed $208 $-1 #
edge $226 -1 -1 $-1 $146 -208.08000000000001 $227 208.08000000000001 $137 $228 forward @7 unknown T -208.08000000000001 208.08000000000001 208.08000000000001 208.08000000000001 208.08000000000001 208.08000000000001 #
coedge $-1 -1 -1 $-1 $131 $229 $89 $140 reversed $85 $-1 #
edge $230 -1 -1 $-1 $231 -208.08000000000001 $145 208.08000000000001 $139 $232 forward @7 unknown T -208.08000000000001 -208.08000000000001 208.08000000000001 208.08000000000001 -208.08000000000001 208.08000000000001 #
coedge $-1 -1 -1 $-1 $134 $90 $229 $233 forward $143 $-1 #
coedge $-1 -1 -1 $-1 $90 $134 $224 $234 reversed $143 $-1 #
loop $-1 -1 -1 $-1 $-1 $141 $207 T 208.08000000000001 -208.08000000000001 -208.08000000000001 208.08000000000001 208.08000000000001 208.08000000000001 unknown #
simple-snl-attrib $-1 -1 $-1 $-1 $91 1 1 1 1 1 1 1 1 1 1 1 1 0 1 0 1 1 1 @17 NEW_SIMPLE_ATTRIB 1 @9 ENTITY_ID 0 3 37 -2147483648 -1 #
vertex $235 -1 -1 $-1 $91 $236 #
vertex $237 -1 -1 $-1 $91 $238 #
straight-curve $-1 -1 -1 $-1 208.08000000000001 0 208.08000000000001 0 1 0 I I #
simple-snl-attrib $-1 -1 $-1 $92 $38 1 1 1 1 1 1 1 1 1 1 1 1 0 1 0 1 1 1 @17 NEW_SIMPLE_ATTRIB 1 @13 MERGE_PARTNER 0 4 1382245086 1 84 1 #
simple-snl-attrib $-1 -1 $-1 $94 $40 1 1 1 1 1 1 1 1 1 1 1 1 0 1 0 1 1 1 @17 NEW_SIMPLE_ATTRIB 1 @13 MERGE_PARTNER 0 4 1232626847 1 82 1 #
simple-snl-attrib $-1 -1 $239 $95 $63 1 1 1 1 1 1 1 1 1 1 1 1 0 1 0 1 1 1 @17 NEW_SIMPLE_ATTRIB 1 @9 ENTITY_ID 0 3 15 439386715 0 #
coedge $-1 -1 -1 $-1 $151 $151 $99 $152 forward $96 $-1 #
edge $240 -1 -1 $-1 $241 0 $241 6.2831853071795862 $151 $242 forward @7 unknown T -49.999999999999993 119.99999999999999 -50.000000000000028 50.000000000000007 120.00000000000001 49.999999999999972 #
simple-snl-attrib $-1 -1 $243 $-1 $100 1 1 1 1 1 1 1 1 1 1 1 1 0 1 0 1 1 1 @17 NEW_SIMPLE_ATTRIB 1 @9 ENTITY_ID 3 24.999999999999993 -1.1779703572506551e-14 -43.301270189221931 3 111 303025595 0 #
vertex $244 -1 -1 $-1 $100 $245 #
ellipse-curve $-1 -1 -1 $-1 0 0 0 -8.6595605623549316e-17 -1 2.2204460492503131e-16 -50 4.3297802811774655e-15 -4.3297802811774655e-15 1 I I #
simple-snl-attrib $-1 -1 $-1 $102 $45 1 1 1 1 1 1 1 1 1 1 1 1 0 1 0 1 1 1 @17 NEW_SIMPLE_ATTRIB 1 @13 MERGE_PARTNER 0 4 146695390 -1 24 0 #
simple-snl-attrib $-1 -1 $246 $103 $70 1 1 1 1 1 1 1 1 1 1 1 1 0 1 0 1 1 1 @17 NEW_SIMPLE_ATTRIB 1 @9 ENTITY_ID 0 3 14 2117389781 0 #
simple-snl-attrib $-1 -1 $247 $-1 $104 1 1 1 1 1 1 1 1 1 1 1 1 0 1 0 1 1 1 @17 NEW_SIMPLE_ATTRIB 1 @9 UNIQUE_ID 1 0 1 974234538 #
loop $-1 -1 -1 $-1 $-1 $248 $104 T -49.999999999999993 119.99999999999999 -50.000000000000028 50.000000000000007 120.00000000000001 49.999999999999972 unknown #
plane-surface $-1 -1 -1 $-1 1.0391472674825918e-14 120 -2.6645352591003757e-14 8.6595605623549316e-17 1 -2.2204460492503131e-16 -1 8.6595605623549304e-17 -8.6595605623549316e-17 forward_v I I I I #
coedge $-1 -1 -1 $-1 $161 $161 $108 $163 reversed $105 $-1 #
coedge $-1 -1 -1 $-1 $162 $162 $248 $249 forward $107 $-1 #
edge $250 -1 -1 $-1 $251 0 $251 6.2831853071795862 $161 $252 forward @7 unknown T -50 -1.1102230246251565e-14 -50 50 1.1102230246251564e-14 50 #
simple-snl-attrib $-1 -1 $-1 $-1 $110 1 1 1 1 1 1 1 1 1 1 1 1 0 1 0 1 1 1 @17 NEW_SIMPLE_ATTRIB 1 @9 ENTITY_ID 0 3 21 -2147483648 -1 #
face $253 -1 -1 $-1 $254 $255 $23 $-1 $256 reversed single T -204 204 -204 204 204 204 F #
loop $-1 -1 -1 $-1 $-1 $257 $110 T -204 -204 -204 -204 204 204 unknown #
plane-surface $-1 -1 -1 $-1 -204 0 0 1 0 0 0 0 -1 forward_v I I I I #
coedge $-1 -1 -1 $-1 $258 $176 $259 $260 forward $111 $-1 #
coedge $-1 -1 -1 $-1 $261 $113 $258 $262 forward $75 $-1 #
coedge $-1 -1 -1 $-1 $113 $261 $263 $264 forward $75 $-1 #
coedge $-1 -1 -1 $-1 $179 $178 $113 $172 reversed $180 $-1 #
edge $265 -1 -1 $-1 $266 -204 $267 204 $171 $268 forward @7 unknown T 204 -204 -204 204 204 -204 #
coedge $-1 -1 -1 $-1 $115 $114 $269 $270 forward $48 $-1 #
coedge $-1 -1 -1 $-1 $271 $272 $114 $175 reversed $255 $-1 #
edge $273 -1 -1 $-1 $183 -204 $274 204 $174 $275 forward @7 unknown T -204 204 204 204 204 204 #
coedge $-1 -1 -1 $-1 $168 $276 $115 $177 reversed $111 $-1 #
edge $277 -1 -1 $-1 $278 -204 $182 204 $176 $279 forward @7 unknown T -204 -204 204 204 -204 204 #
coedge $-1 -1 -1 $-1 $171 $116 $276 $280 forward $180 $-1 #
coedge $-1 -1 -1 $-1 $116 $171 $271 $281 reversed $180 $-1 #
loop $-1 -1 -1 $-1 $-1 $178 $254 T 204 -204 -204 204 204 204 unknown #
simple-snl-attrib $-1 -1 $-1 $-1 $117 1 1 1 1 1 1 1 1 1 1 1 1 0 1 0 1 1 1 @17 NEW_SIMPLE_ATTRIB 1 @9 ENTITY_ID 0 3 149 -2147483648 -1 #
vertex $282 -1 -1 $-1 $117 $283 #
vertex $284 -1 -1 $-1 $117 $285 #
straight-curve $-1 -1 -1 $-1 204 0 204 0 1 0 I I #
simple-snl-attrib $-1 -1 $-1 $-1 $119 1 1 1 1 1 1 1 1 1 1 1 1 0 1 0 1 1 1 @17 NEW_SIMPLE_ATTRIB 1 @9 ENTITY_ID 0 3 10 -2147483648 -1 #
face $286 -1 -1 $-1 $287 $288 $24 $-1 $289 forward single T -204 204 -204 204 204 204 F #
loop $-1 -1 -1 $-1 $-1 $290 $119 T -204 -204 -204 -204 204 204 unknown #
plane-surface $-1 -1 -1 $-1 -204 0 0 1 0 0 0 0 -1 forward_v I I I I #
coedge $-1 -1 -1 $-1 $195 $291 $292 $293 reversed $120 $-1 #
coedge $-1 -1 -1 $-1 $294 $122 $295 $296 reversed $80 $-1 #
coedge $-1 -1 -1 $-1 $122 $294 $291 $297 reversed $80 $-1 #
coedge $-1 -1 -1 $-1 $200 $199 $122 $193 forward $201 $-1 #
edge $298 -1 -1 $-1 $299 -204 $300 204 $192 $301 forward @7 unknown T 204 -204 -204 204 204 -204 #
coedge $-1 -1 -1 $-1 $124 $123 $302 $303 reversed $52 $-1 #
coedge $-1 -1 -1 $-1 $304 $189 $123 $196 forward $120 $-1 #
edge $305 -1 -1 $-1 $306 -204 $203 204 $195 $307 forward @7 unknown T -204 -204 204 204 -204 204 #
coedge $-1 -1 -1 $-1 $308 $309 $124 $198 forward $288 $-1 #
edge $310 -1 -1 $-1 $204 -204 $311 204 $197 $312 forward @7 unknown T -204 204 204 204 204 204 #
coedge $-1 -1 -1 $-1 $192 $125 $309 $313 forward $201 $-1 #
coedge $-1 -1 -1 $-1 $125 $192 $304 $314 reversed $201 $-1 #
loop $-1 -1 -1 $-1 $-1 $200 $287 T 204 -204 -204 204 204 204 unknown #
simple-snl-attrib $-1 -1 $-1 $-1 $126 1 1 1 1 1 1 1 1 1 1 1 1 0 1 0 1 1 1 @17 NEW_SIMPLE_ATTRIB 1 @9 ENTITY_ID 0 3 61 -2147483648 -1 #
vertex $315 -1 -1 $-1 $126 $316 #
vertex $317 -1 -1 $-1 $126 $318 #
straight-curve $-1 -1 -1 $-1 204 0 204 0 1 0 I I #
simple-snl-attrib $-1 -1 $-1 $-1 $128 1 1 1 1 1 1 1 1 1 1 1 1 0 1 0 1 1 1 @17 NEW_SIMPLE_ATTRIB 1 @9 ENTITY_ID 0 3 5 -2147483648 -1 #
face $319 -1 -1 $-1 $-1 $143 $14 $-1 $320 reversed single T 208.08000000000001 -208.08000000000001 -208.08000000000001 208.08000000000001 208.08000000000001 208.08000000000001 F #
loop $-1 -1 -1 $-1 $-1 $224 $128 T -208.08000000000001 208.08000000000001 -208.08000000000001 208.08000000000001 208.08000000000001 208.08000000000001 unknown #
plane-surface $-1 -1 -1 $-1 0 208.08000000000001 0 0 -1 0 0 0 -1 forward_v I I I I #
coedge $-1 -1 -1 $-1 $321 $222 $225 $322 forward $129 $-1 #
coedge $-1 -1 -1 $-1 $229 $131 $132 $215 reversed $85 $-1 #
coedge $-1 -1 -1 $-1 $222 $321 $131 $213 reversed $129 $-1 #
edge $323 -1 -1 $-1 $231 -208.08000000000001 $324 208.08000000000001 $212 $325 forward @7 unknown T -208.08000000000001 -208.08000000000001 -208.08000000000001 -208.08000000000001 -208.08000000000001 208.08000000000001 #
coedge $-1 -1 -1 $-1 $133 $132 $321 $326 forward $56 $-1 #
edge $327 -1 -1 $-1 $220 -208.08000000000001 $324 208.08000000000001 $211 $328 forward @7 unknown T -208.08000000000001 -208.08000000000001 -208.08000000000001 208.08000000000001 -208.08000000000001 -208.08000000000001 #
coedge $-1 -1 -1 $-1 $225 $224 $133 $217 reversed $208 $-1 #
edge $329 -1 -1 $-1 $330 -208.08000000000001 $219 208.08000000000001 $216 $331 forward @7 unknown T -208.08000000000001 208.08000000000001 -208.08000000000001 208.08000000000001 208.08000000000001 -208.08000000000001 #
simple-snl-attrib $-1 -1 $-1 $-1 $135 1 1 1 1 1 1 1 1 1 1 1 1 0 1 0 1 1 1 @17 NEW_SIMPLE_ATTRIB 1 @9 ENTITY_ID 0 3 41 -2147483648 -1 #
vertex $332 -1 -1 $-1 $135 $333 #
vertex $334 -1 -1 $-1 $233 $335 #
straight-curve $-1 -1 -1 $-1 208.08000000000001 0 -208.08000000000001 0 -1 0 I I #
coedge $-1 -1 -1 $-1 $210 $212 $136 $223 reversed $129 $-1 #
edge $336 -1 -1 $-1 $227 -208.08000000000001 $231 208.08000000000001 $222 $337 forward @7 unknown T -208.08000000000001 -208.08000000000001 208.08000000000001 -208.08000000000001 208.08000000000001 208.08000000000001 #
coedge $-1 -1 -1 $-1 $216 $137 $142 $234 forward $208 $-1 #
coedge $-1 -1 -1 $-1 $137 $216 $210 $322 reversed $208 $-1 #
simple-snl-attrib $-1 -1 $-1 $-1 $138 1 1 1 1 1 1 1 1 1 1 1 1 0 1 0 1 1 1 @17 NEW_SIMPLE_ATTRIB 1 @9 ENTITY_ID 0 3 38 -2147483648 -1 #
vertex $338 -1 -1 $-1 $138 $339 #
straight-curve $-1 -1 -1 $-1 0 208.08000000000001 208.08000000000001 -1 0 0 I I #
coedge $-1 -1 -1 $-1 $139 $211 $141 $233 reversed $85 $-1 #
simple-snl-attrib $-1 -1 $-1 $-1 $140 1 1 1 1 1 1 1 1 1 1 1 1 0 1 0 1 1 1 @17 NEW_SIMPLE_ATTRIB 1 @9 ENTITY_ID 0 3 40 -2147483648 -1 #
vertex $340 -1 -1 $-1 $223 $341 #
straight-curve $-1 -1 -1 $-1 0 -208.08000000000001 208.08000000000001 1 0 0 I I #
edge $342 -1 -1 $-1 $145 -208.08000000000001 $220 208.08000000000001 $141 $343 forward @7 unknown T 208.08000000000001 -208.08000000000001 -208.08000000000001 208.08000000000001 -208.08000000000001 208.08000000000001 #
edge $344 -1 -1 $-1 $146 -208.08000000000001 $219 208.08000000000001 $142 $345 forward @7 unknown T 208.08000000000001 208.08000000000001 -208.08000000000001 208.08000000000001 208.08000000000001 208.08000000000001 #
simple-snl-attrib $-1 -1 $-1 $-1 $145 1 1 1 1 1 1 1 1 1 1 1 1 0 1 0 1 1 1 @17 NEW_SIMPLE_ATTRIB 1 @9 ENTITY_ID 0 3 25 -2147483648 -1 #
point $-1 -1 -1 $-1 208.08000000000001 -208.08000000000001 208.08000000000001 #
simple-snl-attrib $-1 -1 $-1 $-1 $146 1 1 1 1 1 1 1 1 1 1 1 1 0 1 0 1 1 1 @17 NEW_SIMPLE_ATTRIB 1 @9 ENTITY_ID 0 3 26 -2147483648 -1 #
point $-1 -1 -1 $-1 208.08000000000001 208.08000000000001 208.08000000000001 #
simple-snl-attrib $-1 -1 $-1 $150 $63 1 1 1 1 1 1 1 1 1 1 1 1 0 1 0 1 1 1 @17 NEW_SIMPLE_ATTRIB 1 @13 MERGE_PARTNER 0 4 974234538 1 83 1 #
simple-snl-attrib $-1 -1 $346 $-1 $152 1 1 1 1 1 1 1 1 1 1 1 1 0 1 0 1 1 1 @17 NEW_SIMPLE_ATTRIB 1 @9 ENTITY_ID 3 24.999999999999996 120.00000000000001 43.30127018922191 3 112 1019156456 0 #
vertex $347 -1 -1 $-1 $152 $348 #
ellipse-curve $-1 -1 -1 $-1 1.0391472674825918e-14 120 -2.6645352591003757e-14 8.6595605623549316e-17 1 -2.2204460492503131e-16 -50 4.3297802811774655e-15 -4.3297802811774655e-15 1 I I #
simple-snl-attrib $-1 -1 $349 $153 $100 1 1 1 1 1 1 1 1 1 1 1 1 0 1 0 1 1 1 @17 NEW_SIMPLE_ATTRIB 1 @13 MERGE_PARTNER 0 4 2117389781 1 111 1 #
simple-snl-attrib $-1 -1 $350 $-1 $154 1 1 1 1 1 1 1 1 1 1 1 1 0 1 0 1 1 1 @17 NEW_SIMPLE_ATTRIB 1 @9 ENTITY_ID 0 3 79 -2147483648 -1 #
point $-1 -1 -1 $-1 -50 4.3297802811774655e-15 -4.3297802811774655e-15 #
simple-snl-attrib $-1 -1 $-1 $157 $70 1 1 1 1 1 1 1 1 1 1 1 1 0 1 0 1 1 1 @17 NEW_SIMPLE_ATTRIB 1 @13 MERGE_PARTNER 0 4 1232626847 -1 25 0 #
simple-snl-attrib $-1 -1 $351 $158 $104 1 1 1 1 1 1 1 1 1 1 1 1 0 1 0 1 1 1 @17 NEW_SIMPLE_ATTRIB 1 @9 ENTITY_ID 0 3 15 439386715 0 #
coedge $-1 -1 -1 $-1 $248 $248 $162 $249 reversed $159 $-1 #
edge $352 -1 -1 $-1 $353 0 $353 6.2831853071795862 $248 $354 forward @7 unknown T -49.999999999999993 119.99999999999999 -50.000000000000028 50.000000000000007 120.00000000000001 49.999999999999972 #
simple-snl-attrib $-1 -1 $355 $-1 $163 1 1 1 1 1 1 1 1 1 1 1 1 0 1 0 1 1 1 @17 NEW_SIMPLE_ATTRIB 1 @9 ENTITY_ID 3 24.999999999999993 -1.1779703572506551e-14 -43.301270189221931 3 111 303025595 0 #
vertex $356 -1 -1 $-1 $163 $357 #
ellipse-curve $-1 -1 -1 $-1 0 0 0 -8.6595605623549316e-17 -1 2.2204460492503131e-16 -50 4.3297802811774655e-15 -4.3297802811774655e-15 1 I I #
simple-snl-attrib $-1 -1 $-1 $-1 $165 1 1 1 1 1 1 1 1 1 1 1 1 0 1 0 1 1 1 @17 NEW_SIMPLE_ATTRIB 1 @9 ENTITY_ID 0 3 22 -2147483648 -1 #
face $358 -1 -1 $-1 $-1 $180 $23 $-1 $359 reversed single T 204 -204 -204 204 204 204 F #
loop $-1 -1 -1 $-1 $-1 $271 $165 T -204 204 -204 204 204 204 unknown #
plane-surface $-1 -1 -1 $-1 0 204 0 0 -1 0 0 0 -1 forward_v I I I I #
coedge $-1 -1 -1 $-1 $360 $269 $272 $361 forward $166 $-1 #
coedge $-1 -1 -1 $-1 $276 $168 $169 $262 reversed $111 $-1 #
coedge $-1 -1 -1 $-1 $269 $360 $168 $260 reversed $166 $-1 #
edge $362 -1 -1 $-1 $278 -204 $363 204 $259 $364 forward @7 unknown T -204 -204 -204 -204 -204 204 #
coedge $-1 -1 -1 $-1 $170 $169 $360 $365 forward $75 $-1 #
edge $366 -1 -1 $-1 $267 -204 $363 204 $258 $367 forward @7 unknown T -204 -204 -204 204 -204 -204 #
coedge $-1 -1 -1 $-1 $272 $271 $170 $264 reversed $255 $-1 #
edge $368 -1 -1 $-1 $369 -204 $266 204 $263 $370 forward @7 unknown T -204 204 -204 204 204 -204 #
simple-snl-attrib $-1 -1 $-1 $-1 $172 1 1 1 1 1 1 1 1 1 1 1 1 0 1 0 1 1 1 @17 NEW_SIMPLE_ATTRIB 1 @9 ENTITY_ID 0 3 153 -2147483648 -1 #
vertex $371 -1 -1 $-1 $172 $372 #
vertex $373 -1 -1 $-1 $280 $374 #
straight-curve $-1 -1 -1 $-1 204 0 -204 0 -1 0 I I #
coedge $-1 -1 -1 $-1 $257 $259 $173 $270 reversed $166 $-1 #
edge $375 -1 -1 $-1 $274 -204 $278 204 $269 $376 forward @7 unknown T -204 -204 204 -204 204 204 #
coedge $-1 -1 -1 $-1 $263 $174 $179 $281 forward $255 $-1 #
coedge $-1 -1 -1 $-1 $174 $263 $257 $361 reversed $255 $-1 #
simple-snl-attrib $-1 -1 $-1 $-1 $175 1 1 1 1 1 1 1 1 1 1 1 1 0 1 0 1 1 1 @17 NEW_SIMPLE_ATTRIB 1 @9 ENTITY_ID 0 3 150 -2147483648 -1 #
vertex $377 -1 -1 $-1 $175 $378 #
straight-curve $-1 -1 -1 $-1 0 204 204 -1 0 0 I I #
coedge $-1 -1 -1 $-1 $176 $258 $178 $280 reversed $111 $-1 #
simple-snl-attrib $-1 -1 $-1 $-1 $177 1 1 1 1 1 1 1 1 1 1 1 1 0 1 0 1 1 1 @17 NEW_SIMPLE_ATTRIB 1 @9 ENTITY_ID 0 3 152 -2147483648 -1 #
vertex $379 -1 -1 $-1 $270 $380 #
straight-curve $-1 -1 -1 $-1 0 -204 204 1 0 0 I I #
edge $381 -1 -1 $-1 $182 -204 $267 204 $178 $382 forward @7 unknown T 204 -204 -204 204 -204 204 #
edge $383 -1 -1 $-1 $183 -204 $266 204 $179 $384 forward @7 unknown T 204 204 -204 204 204 204 #
simple-snl-attrib $-1 -1 $-1 $-1 $182 1 1 1 1 1 1 1 1 1 1 1 1 0 1 0 1 1 1 @17 NEW_SIMPLE_ATTRIB 1 @9 ENTITY_ID 0 3 105 -2147483648 -1 #
point $-1 -1 -1 $-1 204 -204 204 #
simple-snl-attrib $-1 -1 $-1 $-1 $183 1 1 1 1 1 1 1 1 1 1 1 1 0 1 0 1 1 1 @17 NEW_SIMPLE_ATTRIB 1 @9 ENTITY_ID 0 3 106 -2147483648 -1 #
point $-1 -1 -1 $-1 204 204 204 #
simple-snl-attrib $-1 -1 $-1 $-1 $186 1 1 1 1 1 1 1 1 1 1 1 1 0 1 0 1 1 1 @17 NEW_SIMPLE_ATTRIB 1 @9 ENTITY_ID 0 3 11 -2147483648 -1 #
face $385 -1 -1 $-1 $-1 $201 $24 $-1 $386 forward single T 204 -204 -204 204 204 204 F #
loop $-1 -1 -1 $-1 $-1 $309 $186 T -204 204 -204 204 204 204 unknown #
plane-surface $-1 -1 -1 $-1 0 204 0 0 -1 0 0 0 -1 forward_v I I I I #
coedge $-1 -1 -1 $-1 $302 $387 $308 $388 reversed $187 $-1 #
coedge $-1 -1 -1 $-1 $189 $304 $191 $297 forward $120 $-1 #
coedge $-1 -1 -1 $-1 $387 $302 $189 $293 forward $187 $-1 #
edge $389 -1 -1 $-1 $306 -204 $390 204 $292 $391 forward @7 unknown T -204 -204 -204 -204 -204 204 #
coedge $-1 -1 -1 $-1 $191 $190 $387 $392 reversed $80 $-1 #
coedge $-1 -1 -1 $-1 $309 $308 $190 $296 forward $288 $-1 #
edge $393 -1 -1 $-1 $394 -204 $299 204 $295 $395 forward @7 unknown T -204 204 -204 204 204 -204 #
edge $396 -1 -1 $-1 $300 -204 $390 204 $291 $397 forward @7 unknown T -204 -204 -204 204 -204 -204 #
simple-snl-attrib $-1 -1 $-1 $-1 $193 1 1 1 1 1 1 1 1 1 1 1 1 0 1 0 1 1 1 @17 NEW_SIMPLE_ATTRIB 1 @9 ENTITY_ID 0 3 65 -2147483648 -1 #
vertex $398 -1 -1 $-1 $193 $399 #
vertex $400 -1 -1 $-1 $314 $401 #
straight-curve $-1 -1 -1 $-1 204 0 -204 0 -1 0 I I #
coedge $-1 -1 -1 $-1 $292 $290 $194 $303 forward $187 $-1 #
edge $402 -1 -1 $-1 $311 -204 $306 204 $302 $403 forward @7 unknown T -204 -204 204 -204 204 204 #
coedge $-1 -1 -1 $-1 $291 $195 $200 $314 forward $120 $-1 #
simple-snl-attrib $-1 -1 $-1 $-1 $196 1 1 1 1 1 1 1 1 1 1 1 1 0 1 0 1 1 1 @17 NEW_SIMPLE_ATTRIB 1 @9 ENTITY_ID 0 3 62 -2147483648 -1 #
vertex $404 -1 -1 $-1 $303 $405 #
straight-curve $-1 -1 -1 $-1 0 -204 204 1 0 0 I I #
coedge $-1 -1 -1 $-1 $295 $197 $290 $388 forward $288 $-1 #
coedge $-1 -1 -1 $-1 $197 $295 $199 $313 reversed $288 $-1 #
simple-snl-attrib $-1 -1 $-1 $-1 $198 1 1 1 1 1 1 1 1 1 1 1 1 0 1 0 1 1 1 @17 NEW_SIMPLE_ATTRIB 1 @9 ENTITY_ID 0 3 64 -2147483648 -1 #
vertex $406 -1 -1 $-1 $198 $407 #
straight-curve $-1 -1 -1 $-1 0 204 204 -1 0 0 I I #
edge $408 -1 -1 $-1 $204 -204 $299 204 $199 $409 forward @7 unknown T 204 204 -204 204 204 204 #
edge $410 -1 -1 $-1 $203 -204 $300 204 $200 $411 forward @7 unknown T 204 -204 -204 204 -204 204 #
simple-snl-attrib $-1 -1 $-1 $-1 $203 1 1 1 1 1 1 1 1 1 1 1 1 0 1 0 1 1 1 @17 NEW_SIMPLE_ATTRIB 1 @9 ENTITY_ID 0 3 41 -2147483648 -1 #
point $-1 -1 -1 $-1 204 -204 204 #
simple-snl-attrib $-1 -1 $-1 $-1 $204 1 1 1 1 1 1 1 1 1 1 1 1 0 1 0 1 1 1 @17 NEW_SIMPLE_ATTRIB 1 @9 ENTITY_ID 0 3 42 -2147483648 -1 #
point $-1 -1 -1 $-1 204 204 204 #
simple-snl-attrib $-1 -1 $-1 $-1 $207 1 1 1 1 1 1 1 1 1 1 1 1 0 1 0 1 1 1 @17 NEW_SIMPLE_ATTRIB 1 @9 ENTITY_ID 0 3 6 -2147483648 -1 #
plane-surface $-1 -1 -1 $-1 208.08000000000001 0 0 -1 0 0 0 -0 1 forward_v I I I I #
coedge $-1 -1 -1 $-1 $212 $210 $214 $326 reversed $129 $-1 #
edge $412 -1 -1 $-1 $227 -208.08000000000001 $330 208.08000000000001 $225 $413 forward @7 unknown T -208.08000000000001 208.08000000000001 -208.08000000000001 -208.08000000000001 208.08000000000001 208.08000000000001 #
simple-snl-attrib $-1 -1 $-1 $-1 $213 1 1 1 1 1 1 1 1 1 1 1 1 0 1 0 1 1 1 @17 NEW_SIMPLE_ATTRIB 1 @9 ENTITY_ID 0 3 45 -2147483648 -1 #
vertex $414 -1 -1 $-1 $326 $415 #
straight-curve $-1 -1 -1 $-1 -208.08000000000001 -208.08000000000001 0 0 0 -1 I I #
edge $416 -1 -1 $-1 $324 -208.08000000000001 $330 208.08000000000001 $321 $417 forward @7 unknown T -208.08000000000001 -208.08000000000001 -208.08000000000001 -208.08000000000001 208.08000000000001 -208.08000000000001 #
simple-snl-attrib $-1 -1 $-1 $-1 $215 1 1 1 1 1 1 1 1 1 1 1 1 0 1 0 1 1 1 @17 NEW_SIMPLE_ATTRIB 1 @9 ENTITY_ID 0 3 42 -2147483648 -1 #
straight-curve $-1 -1 -1 $-1 0 -208.08000000000001 -208.08000000000001 -1 0 0 I I #
simple-snl-attrib $-1 -1 $-1 $-1 $217 1 1 1 1 1 1 1 1 1 1 1 1 0 1 0 1 1 1 @17 NEW_SIMPLE_ATTRIB 1 @9 ENTITY_ID 0 3 44 -2147483648 -1 #
vertex $418 -1 -1 $-1 $217 $419 #
straight-curve $-1 -1 -1 $-1 0 208.08000000000001 -208.08000000000001 1 0 0 I I #
simple-snl-attrib $-1 -1 $-1 $-1 $219 1 1 1 1 1 1 1 1 1 1 1 1 0 1 0 1 1 1 @17 NEW_SIMPLE_ATTRIB 1 @9 ENTITY_ID 0 3 29 -2147483648 -1 #
point $-1 -1 -1 $-1 208.08000000000001 208.08000000000001 -208.08000000000001 #
simple-snl-attrib $-1 -1 $-1 $-1 $220 1 1 1 1 1 1 1 1 1 1 1 1 0 1 0 1 1 1 @17 NEW_SIMPLE_ATTRIB 1 @9 ENTITY_ID 0 3 30 -2147483648 -1 #
point $-1 -1 -1 $-1 208.08000000000001 -208.08000000000001 -208.08000000000001 #
simple-snl-attrib $-1 -1 $-1 $-1 $223 1 1 1 1 1 1 1 1 1 1 1 1 0 1 0 1 1 1 @17 NEW_SIMPLE_ATTRIB 1 @9 ENTITY_ID 0 3 39 -2147483648 -1 #
straight-curve $-1 -1 -1 $-1 -208.08000000000001 0 208.08000000000001 0 -1 0 I I #
simple-snl-attrib $-1 -1 $-1 $-1 $227 1 1 1 1 1 1 1 1 1 1 1 1 0 1 0 1 1 1 @17 NEW_SIMPLE_ATTRIB 1 @9 ENTITY_ID 0 3 27 -2147483648 -1 #
point $-1 -1 -1 $-1 -208.08000000000001 208.08000000000001 208.08000000000001 #
simple-snl-attrib $-1 -1 $-1 $-1 $231 1 1 1 1 1 1 1 1 1 1 1 1 0 1 0 1 1 1 @17 NEW_SIMPLE_ATTRIB 1 @9 ENTITY_ID 0 3 28 -2147483648 -1 #
point $-1 -1 -1 $-1 -208.08000000000001 -208.08000000000001 208.08000000000001 #
simple-snl-attrib $-1 -1 $-1 $-1 $233 1 1 1 1 1 1 1 1 1 1 1 1 0 1 0 1 1 1 @17 NEW_SIMPLE_ATTRIB 1 @9 ENTITY_ID 0 3 46 -2147483648 -1 #
straight-curve $-1 -1 -1 $-1 208.08000000000001 -208.08000000000001 0 0 0 -1 I I #
simple-snl-attrib $-1 -1 $-1 $-1 $234 1 1 1 1 1 1 1 1 1 1 1 1 0 1 0 1 1 1 @17 NEW_SIMPLE_ATTRIB 1 @9 ENTITY_ID 0 3 48 -2147483648 -1 #
straight-curve $-1 -1 -1 $-1 208.08000000000001 208.08000000000001 0 0 0 -1 I I #
simple-snl-attrib $-1 -1 $420 $240 $152 1 1 1 1 1 1 1 1 1 1 1 1 0 1 0 1 1 1 @17 NEW_SIMPLE_ATTRIB 1 @13 MERGE_PARTNER 0 4 439386715 1 112 1 #
simple-snl-attrib $-1 -1 $421 $-1 $241 1 1 1 1 1 1 1 1 1 1 1 1 0 1 0 1 1 1 @17 NEW_SIMPLE_ATTRIB 1 @9 ENTITY_ID 0 3 80 -2147483648 -1 #
point $-1 -1 -1 $-1 -49.999999999999993 120 -3.0975132872181224e-14 #
simple-snl-attrib $-1 -1 $-1 $243 $100 1 1 1 1 1 1 1 1 1 1 1 1 0 1 0 1 1 1 @17 NEW_SIMPLE_ATTRIB 1 @9 UNIQUE_ID 1 0 1 2117389781 #
simple-snl-attrib $-1 -1 $422 $244 $154 1 1 1 1 1 1 1 1 1 1 1 1 0 1 0 1 1 1 @17 NEW_SIMPLE_ATTRIB 1 @13 MERGE_PARTNER 0 4 303025595 1 79 1 #
simple-snl-attrib $-1 -1 $-1 $247 $104 1 1 1 1 1 1 1 1 1 1 1 1 0 1 0 1 1 1 @17 NEW_SIMPLE_ATTRIB 1 @13 MERGE_PARTNER 0 4 974234538 -1 26 0 #
simple-snl-attrib $-1 -1 $423 $-1 $249 1 1 1 1 1 1 1 1 1 1 1 1 0 1 0 1 1 1 @17 NEW_SIMPLE_ATTRIB 1 @9 ENTITY_ID 3 24.999999999999996 120.00000000000001 43.30127018922191 3 112 1019156456 0 #
vertex $424 -1 -1 $-1 $249 $425 #
ellipse-curve $-1 -1 -1 $-1 1.0391472674825918e-14 120 -2.6645352591003757e-14 8.6595605623549316e-17 1 -2.2204460492503131e-16 -50 4.3297802811774655e-15 -4.3297802811774655e-15 1 I I #
simple-snl-attrib $-1 -1 $426 $250 $163 1 1 1 1 1 1 1 1 1 1 1 1 0 1 0 1 1 1 @17 NEW_SIMPLE_ATTRIB 1 @13 MERGE_PARTNER 0 4 2117389781 1 163 0 #
simple-snl-attrib $-1 -1 $427 $-1 $251 1 1 1 1 1 1 1 1 1 1 1 1 0 1 0 1 1 1 @17 NEW_SIMPLE_ATTRIB 1 @9 ENTITY_ID 0 3 79 -2147483648 -1 #
point $-1 -1 -1 $-1 -50 4.3297802811774655e-15 -4.3297802811774655e-15 #
simple-snl-attrib $-1 -1 $-1 $-1 $254 1 1 1 1 1 1 1 1 1 1 1 1 0 1 0 1 1 1 @17 NEW_SIMPLE_ATTRIB 1 @9 ENTITY_ID 0 3 23 -2147483648 -1 #
plane-surface $-1 -1 -1 $-1 204 0 0 -1 0 0 0 -0 1 forward_v I I I I #
coedge $-1 -1 -1 $-1 $259 $257 $261 $365 reversed $166 $-1 #
edge $428 -1 -1 $-1 $274 -204 $369 204 $272 $429 forward @7 unknown T -204 204 -204 -204 204 204 #
simple-snl-attrib $-1 -1 $-1 $-1 $260 1 1 1 1 1 1 1 1 1 1 1 1 0 1 0 1 1 1 @17 NEW_SIMPLE_ATTRIB 1 @9 ENTITY_ID 0 3 157 -2147483648 -1 #
vertex $430 -1 -1 $-1 $365 $431 #
straight-curve $-1 -1 -1 $-1 -204 -204 0 0 0 -1 I I #
edge $432 -1 -1 $-1 $363 -204 $369 204 $360 $433 forward @7 unknown T -204 -204 -204 -204 204 -204 #
simple-snl-attrib $-1 -1 $-1 $-1 $262 1 1 1 1 1 1 1 1 1 1 1 1 0 1 0 1 1 1 @17 NEW_SIMPLE_ATTRIB 1 @9 ENTITY_ID 0 3 154 -2147483648 -1 #
straight-curve $-1 -1 -1 $-1 0 -204 -204 -1 0 0 I I #
simple-snl-attrib $-1 -1 $-1 $-1 $264 1 1 1 1 1 1 1 1 1 1 1 1 0 1 0 1 1 1 @17 NEW_SIMPLE_ATTRIB 1 @9 ENTITY_ID 0 3 156 -2147483648 -1 #
vertex $434 -1 -1 $-1 $264 $435 #
straight-curve $-1 -1 -1 $-1 0 204 -204 1 0 0 I I #
simple-snl-attrib $-1 -1 $-1 $-1 $266 1 1 1 1 1 1 1 1 1 1 1 1 0 1 0 1 1 1 @17 NEW_SIMPLE_ATTRIB 1 @9 ENTITY_ID 0 3 109 -2147483648 -1 #
point $-1 -1 -1 $-1 204 204 -204 #
simple-snl-attrib $-1 -1 $-1 $-1 $267 1 1 1 1 1 1 1 1 1 1 1 1 0 1 0 1 1 1 @17 NEW_SIMPLE_ATTRIB 1 @9 ENTITY_ID 0 3 110 -2147483648 -1 #
point $-1 -1 -1 $-1 204 -204 -204 #
simple-snl-attrib $-1 -1 $-1 $-1 $270 1 1 1 1 1 1 1 1 1 1 1 1 0 1 0 1 1 1 @17 NEW_SIMPLE_ATTRIB 1 @9 ENTITY_ID 0 3 151 -2147483648 -1 #
straight-curve $-1 -1 -1 $-1 -204 0 204 0 -1 0 I I #
simple-snl-attrib $-1 -1 $-1 $-1 $274 1 1 1 1 1 1 1 1 1 1 1 1 0 1 0 1 1 1 @17 NEW_SIMPLE_ATTRIB 1 @9 ENTITY_ID 0 3 107 -2147483648 -1 #
point $-1 -1 -1 $-1 -204 204 204 #
simple-snl-attrib $-1 -1 $-1 $-1 $278 1 1 1 1 1 1 1 1 1 1 1 1 0 1 0 1 1 1 @17 NEW_SIMPLE_ATTRIB 1 @9 ENTITY_ID 0 3 108 -2147483648 -1 #
point $-1 -1 -1 $-1 -204 -204 204 #
simple-snl-attrib $-1 -1 $-1 $-1 $280 1 1 1 1 1 1 1 1 1 1 1 1 0 1 0 1 1 1 @17 NEW_SIMPLE_ATTRIB 1 @9 ENTITY_ID 0 3 158 -2147483648 -1 #
straight-curve $-1 -1 -1 $-1 204 -204 0 0 0 -1 I I #
simple-snl-attrib $-1 -1 $-1 $-1 $281 1 1 1 1 1 1 1 1 1 1 1 1 0 1 0 1 1 1 @17 NEW_SIMPLE_ATTRIB 1 @9 ENTITY_ID 0 3 160 -2147483648 -1 #
straight-curve $-1 -1 -1 $-1 204 204 0 0 0 -1 I I #
simple-snl-attrib $-1 -1 $-1 $-1 $287 1 1 1 1 1 1 1 1 1 1 1 1 0 1 0 1 1 1 @17 NEW_SIMPLE_ATTRIB 1 @9 ENTITY_ID 0 3 12 -2147483648 -1 #
plane-surface $-1 -1 -1 $-1 204 0 0 -1 0 0 0 -0 1 forward_v I I I I #
coedge $-1 -1 -1 $-1 $290 $292 $294 $392 forward $187 $-1 #
edge $436 -1 -1 $-1 $311 -204 $394 204 $308 $437 forward @7 unknown T -204 204 -204 -204 204 204 #
simple-snl-attrib $-1 -1 $-1 $-1 $293 1 1 1 1 1 1 1 1 1 1 1 1 0 1 0 1 1 1 @17 NEW_SIMPLE_ATTRIB 1 @9 ENTITY_ID 0 3 69 -2147483648 -1 #
vertex $438 -1 -1 $-1 $392 $439 #
straight-curve $-1 -1 -1 $-1 -204 -204 0 0 0 -1 I I #
edge $440 -1 -1 $-1 $390 -204 $394 204 $387 $441 forward @7 unknown T -204 -204 -204 -204 204 -204 #
simple-snl-attrib $-1 -1 $-1 $-1 $296 1 1 1 1 1 1 1 1 1 1 1 1 0 1 0 1 1 1 @17 NEW_SIMPLE_ATTRIB 1 @9 ENTITY_ID 0 3 66 -2147483648 -1 #
vertex $442 -1 -1 $-1 $296 $443 #
straight-curve $-1 -1 -1 $-1 0 204 -204 1 0 0 I I #
simple-snl-attrib $-1 -1 $-1 $-1 $297 1 1 1 1 1 1 1 1 1 1 1 1 0 1 0 1 1 1 @17 NEW_SIMPLE_ATTRIB 1 @9 ENTITY_ID 0 3 68 -2147483648 -1 #
straight-curve $-1 -1 -1 $-1 0 -204 -204 -1 0 0 I I #
simple-snl-attrib $-1 -1 $-1 $-1 $299 1 1 1 1 1 1 1 1 1 1 1 1 0 1 0 1 1 1 @17 NEW_SIMPLE_ATTRIB 1 @9 ENTITY_ID 0 3 45 -2147483648 -1 #
point $-1 -1 -1 $-1 204 204 -204 #
simple-snl-attrib $-1 -1 $-1 $-1 $300 1 1 1 1 1 1 1 1 1 1 1 1 0 1 0 1 1 1 @17 NEW_SIMPLE_ATTRIB 1 @9 ENTITY_ID 0 3 46 -2147483648 -1 #
point $-1 -1 -1 $-1 204 -204 -204 #
simple-snl-attrib $-1 -1 $-1 $-1 $303 1 1 1 1 1 1 1 1 1 1 1 1 0 1 0 1 1 1 @17 NEW_SIMPLE_ATTRIB 1 @9 ENTITY_ID 0 3 63 -2147483648 -1 #
straight-curve $-1 -1 -1 $-1 -204 0 204 0 -1 0 I I #
simple-snl-attrib $-1 -1 $-1 $-1 $306 1 1 1 1 1 1 1 1 1 1 1 1 0 1 0 1 1 1 @17 NEW_SIMPLE_ATTRIB 1 @9 ENTITY_ID 0 3 43 -2147483648 -1 #
point $-1 -1 -1 $-1 -204 -204 204 #
simple-snl-attrib $-1 -1 $-1 $-1 $311 1 1 1 1 1 1 1 1 1 1 1 1 0 1 0 1 1 1 @17 NEW_SIMPLE_ATTRIB 1 @9 ENTITY_ID 0 3 44 -2147483648 -1 #
point $-1 -1 -1 $-1 -204 204 204 #
simple-snl-attrib $-1 -1 $-1 $-1 $313 1 1 1 1 1 1 1 1 1 1 1 1 0 1 0 1 1 1 @17 NEW_SIMPLE_ATTRIB 1 @9 ENTITY_ID 0 3 72 -2147483648 -1 #
straight-curve $-1 -1 -1 $-1 204 204 0 0 0 -1 I I #
simple-snl-attrib $-1 -1 $-1 $-1 $314 1 1 1 1 1 1 1 1 1 1 1 1 0 1 0 1 1 1 @17 NEW_SIMPLE_ATTRIB 1 @9 ENTITY_ID 0 3 70 -2147483648 -1 #
straight-curve $-1 -1 -1 $-1 204 -204 0 0 0 -1 I I #
simple-snl-attrib $-1 -1 $-1 $-1 $322 1 1 1 1 1 1 1 1 1 1 1 1 0 1 0 1 1 1 @17 NEW_SIMPLE_ATTRIB 1 @9 ENTITY_ID 0 3 47 -2147483648 -1 #
straight-curve $-1 -1 -1 $-1 -208.08000000000001 208.08000000000001 0 0 0 -1 I I #
simple-snl-attrib $-1 -1 $-1 $-1 $324 1 1 1 1 1 1 1 1 1 1 1 1 0 1 0 1 1 1 @17 NEW_SIMPLE_ATTRIB 1 @9 ENTITY_ID 0 3 31 -2147483648 -1 #
point $-1 -1 -1 $-1 -208.08000000000001 -208.08000000000001 -208.08000000000001 #
simple-snl-attrib $-1 -1 $-1 $-1 $326 1 1 1 1 1 1 1 1 1 1 1 1 0 1 0 1 1 1 @17 NEW_SIMPLE_ATTRIB 1 @9 ENTITY_ID 0 3 43 -2147483648 -1 #
straight-curve $-1 -1 -1 $-1 -208.08000000000001 0 -208.08000000000001 0 1 0 I I #
simple-snl-attrib $-1 -1 $-1 $-1 $330 1 1 1 1 1 1 1 1 1 1 1 1 0 1 0 1 1 1 @17 NEW_SIMPLE_ATTRIB 1 @9 ENTITY_ID 0 3 32 -2147483648 -1 #
point $-1 -1 -1 $-1 -208.08000000000001 208.08000000000001 -208.08000000000001 #
simple-snl-attrib $-1 -1 $-1 $346 $152 1 1 1 1 1 1 1 1 1 1 1 1 0 1 0 1 1 1 @17 NEW_SIMPLE_ATTRIB 1 @9 UNIQUE_ID 1 0 1 439386715 #
simple-snl-attrib $-1 -1 $444 $347 $241 1 1 1 1 1 1 1 1 1 1 1 1 0 1 0 1 1 1 @17 NEW_SIMPLE_ATTRIB 1 @13 MERGE_PARTNER 0 4 1019156456 1 80 1 #
simple-snl-attrib $-1 -1 $-1 $350 $154 1 1 1 1 1 1 1 1 1 1 1 1 0 1 0 1 1 1 @17 NEW_SIMPLE_ATTRIB 1 @9 UNIQUE_ID 1 0 1 303025595 #
simple-snl-attrib $-1 -1 $445 $352 $249 1 1 1 1 1 1 1 1 1 1 1 1 0 1 0 1 1 1 @17 NEW_SIMPLE_ATTRIB 1 @13 MERGE_PARTNER 0 4 439386715 1 164 0 #
simple-snl-attrib $-1 -1 $446 $-1 $353 1 1 1 1 1 1 1 1 1 1 1 1 0 1 0 1 1 1 @17 NEW_SIMPLE_ATTRIB 1 @9 ENTITY_ID 0 3 80 -2147483648 -1 #
point $-1 -1 -1 $-1 -49.999999999999993 120 -3.0975132872181224e-14 #
simple-snl-attrib $-1 -1 $-1 $355 $163 1 1 1 1 1 1 1 1 1 1 1 1 0 1 0 1 1 1 @17 NEW_SIMPLE_ATTRIB 1 @9 UNIQUE_ID 1 0 1 2117389781 #
simple-snl-attrib $-1 -1 $447 $356 $251 1 1 1 1 1 1 1 1 1 1 1 1 0 1 0 1 1 1 @17 NEW_SIMPLE_ATTRIB 1 @13 MERGE_PARTNER 0 4 303025595 1 115 0 #
simple-snl-attrib $-1 -1 $-1 $-1 $361 1 1 1 1 1 1 1 1 1 1 1 1 0 1 0 1 1 1 @17 NEW_SIMPLE_ATTRIB 1 @9 ENTITY_ID 0 3 159 -2147483648 -1 #
straight-curve $-1 -1 -1 $-1 -204 204 0 0 0 -1 I I #
simple-snl-attrib $-1 -1 $-1 $-1 $363 1 1 1 1 1 1 1 1 1 1 1 1 0 1 0 1 1 1 @17 NEW_SIMPLE_ATTRIB 1 @9 ENTITY_ID 0 3 111 -2147483648 -1 #
point $-1 -1 -1 $-1 -204 -204 -204 #
simple-snl-attrib $-1 -1 $-1 $-1 $365 1 1 1 1 1 1 1 1 1 1 1 1 0 1 0 1 1 1 @17 NEW_SIMPLE_ATTRIB 1 @9 ENTITY_ID 0 3 155 -2147483648 -1 #
straight-curve $-1 -1 -1 $-1 -204 0 -204 0 1 0 I I #
simple-snl-attrib $-1 -1 $-1 $-1 $369 1 1 1 1 1 1 1 1 1 1 1 1 0 1 0 1 1 1 @17 NEW_SIMPLE_ATTRIB 1 @9 ENTITY_ID 0 3 112 -2147483648 -1 #
point $-1 -1 -1 $-1 -204 204 -204 #
simple-snl-attrib $-1 -1 $-1 $-1 $388 1 1 1 1 1 1 1 1 1 1 1 1 0 1 0 1 1 1 @17 NEW_SIMPLE_ATTRIB 1 @9 ENTITY_ID 0 3 71 -2147483648 -1 #
straight-curve $-1 -1 -1 $-1 -204 204 0 0 0 -1 I I #
simple-snl-attrib $-1 -1 $-1 $-1 $390 1 1 1 1 1 1 1 1 1 1 1 1 0 1 0 1 1 1 @17 NEW_SIMPLE_ATTRIB 1 @9 ENTITY_ID 0 3 48 -2147483648 -1 #
point $-1 -1 -1 $-1 -204 -204 -204 #
simple-snl-attrib $-1 -1 $-1 $-1 $392 1 1 1 1 1 1 1 1 1 1 1 1 0 1 0 1 1 1 @17 NEW_SIMPLE_ATTRIB 1 @9 ENTITY_ID 0 3 67 -2147483648 -1 #
straight-curve $-1 -1 -1 $-1 -204 0 -204 0 1 0 I I #
simple-snl-attrib $-1 -1 $-1 $-1 $394 1 1 1 1 1 1 1 1 1 1 1 1 0 1 0 1 1 1 @17 NEW_SIMPLE_ATTRIB 1 @9 ENTITY_ID 0 3 47 -2147483648 -1 #
point $-1 -1 -1 $-1 -204 204 -204 #
simple-snl-attrib $-1 -1 $-1 $421 $241 1 1 1 1 1 1 1 1 1 1 1 1 0 1 0 1 1 1 @17 NEW_SIMPLE_ATTRIB 1 @9 UNIQUE_ID 1 0 1 1019156456 #
simple-snl-attrib $-1 -1 $-1 $423 $249 1 1 1 1 1 1 1 1 1 1 1 1 0 1 0 1 1 1 @17 NEW_SIMPLE_ATTRIB 1 @9 UNIQUE_ID 1 0 1 439386715 #
simple-snl-attrib $-1 -1 $448 $424 $353 1 1 1 1 1 1 1 1 1 1 1 1 0 1 0 1 1 1 @17 NEW_SIMPLE_ATTRIB 1 @13 MERGE_PARTNER 0 4 1019156456 1 116 0 #
simple-snl-attrib $-1 -1 $-1 $427 $251 1 1 1 1 1 1 1 1 1 1 1 1 0 1 0 1 1 1 @17 NEW_SIMPLE_ATTRIB 1 @9 UNIQUE_ID 1 0 1 303025595 #
simple-snl-attrib $-1 -1 $-1 $446 $353 1 1 1 1 1 1 1 1 1 1 1 1 0 1 0 1 1 1 @17 NEW_SIMPLE_ATTRIB 1 @9 UNIQUE_ID 1 0 1 1019156456 #
End-of-ACIS-data 