1600 0 4 0           
10 Cubit 10.2 17 ACIS 16.0.1 Linux 24 Tue Dec  2 13:46:57 2008 
1 9.9999999999999995e-07 1e-10 
body $4 -1 -1 $-1 $5 $-1 $6 T -30 -5 -5 -20 5 5 #
body $7 -1 -1 $-1 $8 $-1 $9 T 20 -5 -5 30 5 5 #
body $10 -1 -1 $-1 $11 $-1 $-1 T -40 -40 -40 40 40 40 #
body $12 -1 -1 $-1 $13 $-1 $-1 T -50 -50 -50 50 50 50 #
simple-snl-attrib $-1 -1 $-1 $-1 $0 1 1 1 1 1 1 1 1 1 1 1 1 0 1 0 1 1 1 @17 NEW_SIMPLE_ATTRIB 1 @9 ENTITY_ID 0 3 4 -2147483648 -1 #
lump $14 -1 -1 $-1 $-1 $15 $0 T -30 -5 -5 -20 5 5 #
transform $-1 -1 1 0 0 0 1 0 0 0 1 0 0 0 1 no_rotate no_reflect no_shear #
simple-snl-attrib $-1 -1 $-1 $-1 $1 1 1 1 1 1 1 1 1 1 1 1 1 0 1 0 1 1 1 @17 NEW_SIMPLE_ATTRIB 1 @9 ENTITY_ID 0 3 5 -2147483648 -1 #
lump $16 -1 -1 $-1 $-1 $17 $1 T 20 -5 -5 30 5 5 #
transform $-1 -1 1 0 0 0 1 0 0 0 1 0 0 0 1 no_rotate no_reflect no_shear #
simple-snl-attrib $-1 -1 $-1 $-1 $2 1 1 1 1 1 1 1 1 1 1 1 1 0 1 0 1 1 1 @17 NEW_SIMPLE_ATTRIB 1 @9 ENTITY_ID 0 3 7 -2147483648 -1 #
lump $18 -1 -1 $-1 $-1 $19 $2 T -40 -40 -40 40 40 40 #
simple-snl-attrib $-1 -1 $-1 $-1 $3 1 1 1 1 1 1 1 1 1 1 1 1 0 1 0 1 1 1 @17 NEW_SIMPLE_ATTRIB 1 @9 ENTITY_ID 0 3 8 -2147483648 -1 #
lump $20 -1 -1 $-1 $-1 $21 $3 T -50 -50 -50 50 50 50 #
simple-snl-attrib $-1 -1 $22 $-1 $5 1 1 1 1 1 1 1 1 1 1 1 1 0 1 0 1 1 1 @17 NEW_SIMPLE_ATTRIB 1 @9 ENTITY_ID 0 3 1 -2147483648 -1 #
shell $-1 -1 -1 $-1 $-1 $-1 $23 $-1 $5 T -30 -5 -5 -20 5 5 #
simple-snl-attrib $-1 -1 $24 $-1 $8 1 1 1 1 1 1 1 1 1 1 1 1 0 1 0 1 1 1 @17 NEW_SIMPLE_ATTRIB 1 @9 ENTITY_ID 0 3 2 -2147483648 -1 #
shell $-1 -1 -1 $-1 $-1 $-1 $25 $-1 $8 T 20 -5 -5 30 5 5 #
simple-snl-attrib $-1 -1 $26 $-1 $11 1 1 1 1 1 1 1 1 1 1 1 1 0 1 0 1 1 1 @17 NEW_SIMPLE_ATTRIB 1 @9 ENTITY_ID 0 3 3 -2147483648 -1 #
shell $-1 -1 -1 $-1 $27 $-1 $28 $-1 $11 T -40 -40 -40 40 40 40 #
simple-snl-attrib $-1 -1 $29 $-1 $13 1 1 1 1 1 1 1 1 1 1 1 1 0 1 0 1 1 1 @17 NEW_SIMPLE_ATTRIB 1 @9 ENTITY_ID 0 3 4 -2147483648 -1 #
shell $-1 -1 -1 $-1 $30 $-1 $31 $-1 $13 T -50 -50 -50 50 50 50 #
simple-snl-attrib $-1 -1 $32 $14 $5 1 1 1 1 1 1 1 1 1 1 1 1 0 1 0 1 1 1 @17 NEW_SIMPLE_ATTRIB 2 @5 GROUP @15 mat_1_rho_-19.1 0 7 1 3 570600899 0 0 0 0 #
face $33 -1 -1 $-1 $-1 $-1 $15 $-1 $34 forward single T -30 -5 -5 -20 5 5 F #
simple-snl-attrib $-1 -1 $35 $16 $8 1 1 1 1 1 1 1 1 1 1 1 1 0 1 0 1 1 1 @17 NEW_SIMPLE_ATTRIB 2 @5 GROUP @15 mat_1_rho_-19.1 0 7 1 3 570600899 1 0 0 0 #
face $36 -1 -1 $-1 $-1 $-1 $17 $-1 $37 forward single T 20 -5 -5 30 5 5 F #
simple-snl-attrib $-1 -1 $38 $18 $11 1 1 1 1 1 1 1 1 1 1 1 1 0 1 0 1 1 1 @17 NEW_SIMPLE_ATTRIB 2 @5 GROUP @9 graveyard 0 7 1 2 1031121193 0 0 0 0 #
shell $-1 -1 -1 $-1 $39 $-1 $40 $-1 $11 T -30 -5 -5 -20 5 5 #
face $41 -1 -1 $-1 $42 $43 $19 $-1 $44 forward single T -40 -40 40 40 40 40 F #
simple-snl-attrib $-1 -1 $45 $20 $13 1 1 1 1 1 1 1 1 1 1 1 1 0 1 0 1 1 1 @17 NEW_SIMPLE_ATTRIB 2 @5 GROUP @9 graveyard 0 7 1 2 1031121193 1 0 0 0 #
shell $-1 -1 -1 $-1 $-1 $-1 $46 $-1 $13 T -40 -40 -40 40 40 40 #
face $47 -1 -1 $-1 $48 $49 $21 $-1 $50 forward single T -50 -50 50 50 50 50 F #
simple-snl-attrib $-1 -1 $-1 $22 $5 1 1 1 1 1 1 1 1 1 1 1 1 0 1 0 1 1 1 @17 NEW_SIMPLE_ATTRIB 7 @16 GRAPHICS_OPTIONS @14 geometry color @10 mesh color @19 geometry visibility @15 mesh visibility @11 render mode @11 transparent 0 6 2 2 1 1 0 0 #
simple-snl-attrib $-1 -1 $51 $-1 $23 1 1 1 1 1 1 1 1 1 1 1 1 0 1 0 1 1 1 @17 NEW_SIMPLE_ATTRIB 1 @9 UNIQUE_ID 1 0 1 140356047 #
sphere-surface $-1 -1 -1 $-1 -25 0 0 5 1 0 0 0 0 1 forward_v I I I I #
simple-snl-attrib $-1 -1 $-1 $24 $8 1 1 1 1 1 1 1 1 1 1 1 1 0 1 0 1 1 1 @17 NEW_SIMPLE_ATTRIB 7 @16 GRAPHICS_OPTIONS @14 geometry color @10 mesh color @19 geometry visibility @15 mesh visibility @11 render mode @11 transparent 0 6 3 3 1 1 0 0 #
simple-snl-attrib $-1 -1 $52 $-1 $25 1 1 1 1 1 1 1 1 1 1 1 1 0 1 0 1 1 1 @17 NEW_SIMPLE_ATTRIB 1 @9 UNIQUE_ID 1 0 1 1380530125 #
sphere-surface $-1 -1 -1 $-1 25 0 0 5 1 0 0 0 0 1 forward_v I I I I #
simple-snl-attrib $-1 -1 $-1 $26 $11 1 1 1 1 1 1 1 1 1 1 1 1 0 1 0 1 1 1 @17 NEW_SIMPLE_ATTRIB 7 @16 GRAPHICS_OPTIONS @14 geometry color @10 mesh color @19 geometry visibility @15 mesh visibility @11 render mode @11 transparent 0 6 4 4 1 1 0 0 #
shell $-1 -1 -1 $-1 $-1 $-1 $53 $-1 $11 T 20 -5 -5 30 5 5 #
face $54 -1 -1 $-1 $-1 $-1 $27 $-1 $55 reversed single T -30 -5 -5 -20 5 5 F #
simple-snl-attrib $-1 -1 $56 $-1 $28 1 1 1 1 1 1 1 1 1 1 1 1 0 1 0 1 1 1 @17 NEW_SIMPLE_ATTRIB 1 @9 UNIQUE_ID 1 0 1 1321708827 #
face $57 -1 -1 $-1 $58 $59 $19 $-1 $60 reversed single T -40 -40 -40 40 40 -40 F #
loop $-1 -1 -1 $-1 $-1 $61 $28 T -40 -40 40 40 40 40 unknown #
plane-surface $-1 -1 -1 $-1 0 0 40 0 0 1 1 0 0 forward_v I I I I #
simple-snl-attrib $-1 -1 $-1 $29 $13 1 1 1 1 1 1 1 1 1 1 1 1 0 1 0 1 1 1 @17 NEW_SIMPLE_ATTRIB 7 @16 GRAPHICS_OPTIONS @14 geometry color @10 mesh color @19 geometry visibility @15 mesh visibility @11 render mode @11 transparent 0 6 5 5 1 1 0 0 #
face $62 -1 -1 $-1 $63 $64 $30 $-1 $65 reversed single T -40 -40 40 40 40 40 F #
simple-snl-attrib $-1 -1 $-1 $-1 $31 1 1 1 1 1 1 1 1 1 1 1 1 0 1 0 1 1 1 @17 NEW_SIMPLE_ATTRIB 1 @9 ENTITY_ID 0 3 11 -2147483648 -1 #
face $66 -1 -1 $-1 $67 $68 $21 $-1 $69 reversed single T -50 -50 -50 50 50 -50 F #
loop $-1 -1 -1 $-1 $-1 $70 $31 T -50 -50 50 50 50 50 unknown #
plane-surface $-1 -1 -1 $-1 0 0 50 0 0 1 1 0 0 forward_v I I I I #
simple-snl-attrib $-1 -1 $71 $33 $23 1 1 1 1 1 1 1 1 1 1 1 1 0 1 0 1 1 1 @17 NEW_SIMPLE_ATTRIB 1 @9 ENTITY_ID 0 3 1 -2147483648 -1 #
simple-snl-attrib $-1 -1 $72 $36 $25 1 1 1 1 1 1 1 1 1 1 1 1 0 1 0 1 1 1 @17 NEW_SIMPLE_ATTRIB 1 @9 ENTITY_ID 0 3 2 -2147483648 -1 #
face $73 -1 -1 $-1 $-1 $-1 $39 $-1 $74 reversed single T 20 -5 -5 30 5 5 F #
simple-snl-attrib $-1 -1 $75 $-1 $40 1 1 1 1 1 1 1 1 1 1 1 1 0 1 0 1 1 1 @17 NEW_SIMPLE_ATTRIB 1 @9 UNIQUE_ID 1 0 1 140356047 #
sphere-surface $-1 -1 -1 $-1 -25 0 0 5 1 0 0 0 0 1 forward_v I I I I #
simple-snl-attrib $-1 -1 $76 $41 $28 1 1 1 1 1 1 1 1 1 1 1 1 0 1 0 1 1 1 @17 NEW_SIMPLE_ATTRIB 1 @9 ENTITY_ID 0 3 3 1924205048 0 #
simple-snl-attrib $-1 -1 $77 $-1 $42 1 1 1 1 1 1 1 1 1 1 1 1 0 1 0 1 1 1 @17 NEW_SIMPLE_ATTRIB 1 @9 UNIQUE_ID 1 0 1 814231931 #
face $78 -1 -1 $-1 $79 $80 $19 $-1 $81 reversed single T -40 -40 -40 40 -40 40 F #
loop $-1 -1 -1 $-1 $-1 $82 $42 T -40 -40 -40 40 40 -40 unknown #
plane-surface $-1 -1 -1 $-1 0 0 -40 0 0 1 1 0 0 forward_v I I I I #
coedge $-1 -1 -1 $-1 $83 $84 $85 $86 forward $43 $-1 #
simple-snl-attrib $-1 -1 $87 $-1 $46 1 1 1 1 1 1 1 1 1 1 1 1 0 1 0 1 1 1 @17 NEW_SIMPLE_ATTRIB 1 @9 UNIQUE_ID 1 0 1 1321708827 #
face $88 -1 -1 $-1 $89 $90 $30 $-1 $91 forward single T -40 -40 -40 40 40 -40 F #
loop $-1 -1 -1 $-1 $-1 $92 $46 T -40 -40 40 40 40 40 unknown #
plane-surface $-1 -1 -1 $-1 0 0 40 0 0 1 1 0 0 forward_v I I I I #
simple-snl-attrib $-1 -1 $-1 $-1 $48 1 1 1 1 1 1 1 1 1 1 1 1 0 1 0 1 1 1 @17 NEW_SIMPLE_ATTRIB 1 @9 ENTITY_ID 0 3 12 -2147483648 -1 #
face $93 -1 -1 $-1 $94 $95 $21 $-1 $96 reversed single T -50 -50 -50 50 -50 50 F #
loop $-1 -1 -1 $-1 $-1 $97 $48 T -50 -50 -50 50 50 -50 unknown #
plane-surface $-1 -1 -1 $-1 0 0 -50 0 0 1 1 0 0 forward_v I I I I #
coedge $-1 -1 -1 $-1 $98 $99 $100 $101 forward $49 $-1 #
simple-snl-attrib $-1 -1 $-1 $51 $23 1 1 1 1 1 1 1 1 1 1 1 1 0 1 0 1 1 1 @17 NEW_SIMPLE_ATTRIB 1 @13 MERGE_PARTNER 0 4 140356047 1 25 1 #
simple-snl-attrib $-1 -1 $-1 $52 $25 1 1 1 1 1 1 1 1 1 1 1 1 0 1 0 1 1 1 @17 NEW_SIMPLE_ATTRIB 1 @13 MERGE_PARTNER 0 4 1380530125 1 26 1 #
simple-snl-attrib $-1 -1 $102 $-1 $53 1 1 1 1 1 1 1 1 1 1 1 1 0 1 0 1 1 1 @17 NEW_SIMPLE_ATTRIB 1 @9 UNIQUE_ID 1 0 1 1380530125 #
sphere-surface $-1 -1 -1 $-1 25 0 0 5 1 0 0 0 0 1 forward_v I I I I #
simple-snl-attrib $-1 -1 $103 $54 $40 1 1 1 1 1 1 1 1 1 1 1 1 0 1 0 1 1 1 @17 NEW_SIMPLE_ATTRIB 1 @9 ENTITY_ID 0 3 1 -2147483648 -1 #
simple-snl-attrib $-1 -1 $-1 $56 $28 1 1 1 1 1 1 1 1 1 1 1 1 0 1 0 1 1 1 @17 NEW_SIMPLE_ATTRIB 1 @13 MERGE_PARTNER 0 4 1321708827 1 35 1 #
simple-snl-attrib $-1 -1 $104 $57 $42 1 1 1 1 1 1 1 1 1 1 1 1 0 1 0 1 1 1 @17 NEW_SIMPLE_ATTRIB 1 @9 ENTITY_ID 0 3 4 1138961259 0 #
simple-snl-attrib $-1 -1 $105 $-1 $58 1 1 1 1 1 1 1 1 1 1 1 1 0 1 0 1 1 1 @17 NEW_SIMPLE_ATTRIB 1 @9 UNIQUE_ID 1 0 1 1190205550 #
face $106 -1 -1 $-1 $107 $108 $19 $-1 $109 reversed single T -40 -40 -40 -40 40 40 F #
loop $-1 -1 -1 $-1 $-1 $110 $58 T -40 -40 -40 40 -40 40 unknown #
plane-surface $-1 -1 -1 $-1 0 -40 0 0 1 -0 -0 0 1 forward_v I I I I #
coedge $-1 -1 -1 $-1 $111 $112 $113 $114 forward $59 $-1 #
coedge $-1 -1 -1 $-1 $115 $61 $116 $117 forward $43 $-1 #
coedge $-1 -1 -1 $-1 $61 $115 $118 $119 forward $43 $-1 #
coedge $-1 -1 -1 $-1 $120 $121 $61 $86 reversed $122 $-1 #
edge $123 -1 -1 $-1 $124 -40 $125 40 $85 $126 forward @7 unknown T 40 -40 40 40 40 40 #
simple-snl-attrib $-1 -1 $127 $62 $46 1 1 1 1 1 1 1 1 1 1 1 1 0 1 0 1 1 1 @17 NEW_SIMPLE_ATTRIB 1 @9 ENTITY_ID 0 3 3 1924205048 0 #
simple-snl-attrib $-1 -1 $128 $-1 $63 1 1 1 1 1 1 1 1 1 1 1 1 0 1 0 1 1 1 @17 NEW_SIMPLE_ATTRIB 1 @9 UNIQUE_ID 1 0 1 814231931 #
face $129 -1 -1 $-1 $130 $131 $30 $-1 $132 forward single T -40 -40 -40 40 -40 40 F #
loop $-1 -1 -1 $-1 $-1 $133 $63 T -40 -40 -40 40 40 -40 unknown #
plane-surface $-1 -1 -1 $-1 0 0 -40 0 0 1 1 0 0 forward_v I I I I #
coedge $-1 -1 -1 $-1 $134 $135 $136 $137 reversed $64 $-1 #
simple-snl-attrib $-1 -1 $-1 $-1 $67 1 1 1 1 1 1 1 1 1 1 1 1 0 1 0 1 1 1 @17 NEW_SIMPLE_ATTRIB 1 @9 ENTITY_ID 0 3 13 -2147483648 -1 #
face $138 -1 -1 $-1 $139 $140 $21 $-1 $141 reversed single T -50 -50 -50 -50 50 50 F #
loop $-1 -1 -1 $-1 $-1 $142 $67 T -50 -50 -50 50 -50 50 unknown #
plane-surface $-1 -1 -1 $-1 0 -50 0 0 1 -0 -0 0 1 forward_v I I I I #
coedge $-1 -1 -1 $-1 $143 $144 $145 $146 forward $68 $-1 #
coedge $-1 -1 -1 $-1 $147 $70 $148 $149 forward $49 $-1 #
coedge $-1 -1 -1 $-1 $70 $147 $150 $151 forward $49 $-1 #
coedge $-1 -1 -1 $-1 $152 $153 $70 $101 reversed $154 $-1 #
edge $155 -1 -1 $-1 $156 -50 $157 50 $100 $158 forward @7 unknown T 50 -50 50 50 50 50 #
simple-snl-attrib $-1 -1 $159 $73 $53 1 1 1 1 1 1 1 1 1 1 1 1 0 1 0 1 1 1 @17 NEW_SIMPLE_ATTRIB 1 @9 ENTITY_ID 0 3 2 -2147483648 -1 #
simple-snl-attrib $-1 -1 $-1 $75 $40 1 1 1 1 1 1 1 1 1 1 1 1 0 1 0 1 1 1 @17 NEW_SIMPLE_ATTRIB 1 @13 MERGE_PARTNER 0 4 140356047 -1 9 0 #
simple-snl-attrib $-1 -1 $-1 $77 $42 1 1 1 1 1 1 1 1 1 1 1 1 0 1 0 1 1 1 @17 NEW_SIMPLE_ATTRIB 1 @13 MERGE_PARTNER 0 4 814231931 1 36 1 #
simple-snl-attrib $-1 -1 $160 $78 $58 1 1 1 1 1 1 1 1 1 1 1 1 0 1 0 1 1 1 @17 NEW_SIMPLE_ATTRIB 1 @9 ENTITY_ID 0 3 5 1866598103 0 #
simple-snl-attrib $-1 -1 $161 $-1 $79 1 1 1 1 1 1 1 1 1 1 1 1 0 1 0 1 1 1 @17 NEW_SIMPLE_ATTRIB 1 @9 UNIQUE_ID 1 0 1 887565436 #
face $162 -1 -1 $-1 $163 $164 $19 $-1 $165 reversed single T -40 40 -40 40 40 40 F #
loop $-1 -1 -1 $-1 $-1 $166 $79 T -40 -40 -40 -40 40 40 unknown #
plane-surface $-1 -1 -1 $-1 -40 0 0 1 0 0 0 0 -1 forward_v I I I I #
coedge $-1 -1 -1 $-1 $167 $118 $168 $169 forward $80 $-1 #
coedge $-1 -1 -1 $-1 $170 $82 $167 $171 forward $59 $-1 #
coedge $-1 -1 -1 $-1 $82 $170 $172 $173 forward $59 $-1 #
coedge $-1 -1 -1 $-1 $121 $120 $82 $114 reversed $122 $-1 #
edge $174 -1 -1 $-1 $175 -40 $176 40 $113 $177 forward @7 unknown T 40 -40 -40 40 40 -40 #
coedge $-1 -1 -1 $-1 $84 $83 $178 $179 forward $43 $-1 #
coedge $-1 -1 -1 $-1 $180 $181 $83 $117 reversed $164 $-1 #
edge $182 -1 -1 $-1 $125 -40 $183 40 $116 $184 forward @7 unknown T -40 40 40 40 40 40 #
coedge $-1 -1 -1 $-1 $110 $185 $84 $119 reversed $80 $-1 #
edge $186 -1 -1 $-1 $187 -40 $124 40 $118 $188 forward @7 unknown T -40 -40 40 40 -40 40 #
coedge $-1 -1 -1 $-1 $113 $85 $185 $189 forward $122 $-1 #
coedge $-1 -1 -1 $-1 $85 $113 $180 $190 reversed $122 $-1 #
loop $-1 -1 -1 $-1 $-1 $120 $163 T 40 -40 -40 40 40 40 unknown #
simple-snl-attrib $-1 -1 $191 $-1 $86 1 1 1 1 1 1 1 1 1 1 1 1 0 1 0 1 1 1 @17 NEW_SIMPLE_ATTRIB 1 @9 ENTITY_ID 0 3 61 249112703 0 #
vertex $192 -1 -1 $-1 $86 $193 #
vertex $194 -1 -1 $-1 $86 $195 #
straight-curve $-1 -1 -1 $-1 40 0 40 0 1 0 I I #
simple-snl-attrib $-1 -1 $-1 $87 $46 1 1 1 1 1 1 1 1 1 1 1 1 0 1 0 1 1 1 @17 NEW_SIMPLE_ATTRIB 1 @13 MERGE_PARTNER 0 4 1321708827 -1 17 0 #
simple-snl-attrib $-1 -1 $196 $88 $63 1 1 1 1 1 1 1 1 1 1 1 1 0 1 0 1 1 1 @17 NEW_SIMPLE_ATTRIB 1 @9 ENTITY_ID 0 3 4 1138961259 0 #
simple-snl-attrib $-1 -1 $197 $-1 $89 1 1 1 1 1 1 1 1 1 1 1 1 0 1 0 1 1 1 @17 NEW_SIMPLE_ATTRIB 1 @9 UNIQUE_ID 1 0 1 1190205550 #
face $198 -1 -1 $-1 $199 $200 $30 $-1 $201 forward single T -40 -40 -40 -40 40 40 F #
loop $-1 -1 -1 $-1 $-1 $202 $89 T -40 -40 -40 40 -40 40 unknown #
plane-surface $-1 -1 -1 $-1 0 -40 0 0 1 -0 -0 0 1 forward_v I I I I #
coedge $-1 -1 -1 $-1 $203 $204 $205 $206 reversed $90 $-1 #
coedge $-1 -1 -1 $-1 $207 $92 $208 $209 reversed $64 $-1 #
coedge $-1 -1 -1 $-1 $92 $207 $210 $211 reversed $64 $-1 #
coedge $-1 -1 -1 $-1 $212 $213 $92 $137 forward $214 $-1 #
edge $215 -1 -1 $-1 $216 -40 $217 40 $136 $218 forward @7 unknown T 40 -40 40 40 40 40 #
simple-snl-attrib $-1 -1 $-1 $-1 $94 1 1 1 1 1 1 1 1 1 1 1 1 0 1 0 1 1 1 @17 NEW_SIMPLE_ATTRIB 1 @9 ENTITY_ID 0 3 14 -2147483648 -1 #
face $219 -1 -1 $-1 $220 $221 $21 $-1 $222 reversed single T -50 50 -50 50 50 50 F #
loop $-1 -1 -1 $-1 $-1 $223 $94 T -50 -50 -50 -50 50 50 unknown #
plane-surface $-1 -1 -1 $-1 -50 0 0 1 0 0 0 0 -1 forward_v I I I I #
coedge $-1 -1 -1 $-1 $224 $150 $225 $226 forward $95 $-1 #
coedge $-1 -1 -1 $-1 $227 $97 $224 $228 forward $68 $-1 #
coedge $-1 -1 -1 $-1 $97 $227 $229 $230 forward $68 $-1 #
coedge $-1 -1 -1 $-1 $153 $152 $97 $146 reversed $154 $-1 #
edge $231 -1 -1 $-1 $232 -50 $233 50 $145 $234 forward @7 unknown T 50 -50 -50 50 50 -50 #
coedge $-1 -1 -1 $-1 $99 $98 $235 $236 forward $49 $-1 #
coedge $-1 -1 -1 $-1 $237 $238 $98 $149 reversed $221 $-1 #
edge $239 -1 -1 $-1 $157 -50 $240 50 $148 $241 forward @7 unknown T -50 50 50 50 50 50 #
coedge $-1 -1 -1 $-1 $142 $242 $99 $151 reversed $95 $-1 #
edge $243 -1 -1 $-1 $244 -50 $156 50 $150 $245 forward @7 unknown T -50 -50 50 50 -50 50 #
coedge $-1 -1 -1 $-1 $145 $100 $242 $246 forward $154 $-1 #
coedge $-1 -1 -1 $-1 $100 $145 $237 $247 reversed $154 $-1 #
loop $-1 -1 -1 $-1 $-1 $152 $220 T 50 -50 -50 50 50 50 unknown #
simple-snl-attrib $-1 -1 $-1 $-1 $101 1 1 1 1 1 1 1 1 1 1 1 1 0 1 0 1 1 1 @17 NEW_SIMPLE_ATTRIB 1 @9 ENTITY_ID 0 3 73 -2147483648 -1 #
vertex $248 -1 -1 $-1 $101 $249 #
vertex $250 -1 -1 $-1 $101 $251 #
straight-curve $-1 -1 -1 $-1 50 0 50 0 1 0 I I #
simple-snl-attrib $-1 -1 $-1 $102 $53 1 1 1 1 1 1 1 1 1 1 1 1 0 1 0 1 1 1 @17 NEW_SIMPLE_ATTRIB 1 @13 MERGE_PARTNER 0 4 1380530125 -1 10 0 #
simple-snl-attrib $-1 -1 $-1 $105 $58 1 1 1 1 1 1 1 1 1 1 1 1 0 1 0 1 1 1 @17 NEW_SIMPLE_ATTRIB 1 @13 MERGE_PARTNER 0 4 1190205550 1 37 1 #
simple-snl-attrib $-1 -1 $252 $106 $79 1 1 1 1 1 1 1 1 1 1 1 1 0 1 0 1 1 1 @17 NEW_SIMPLE_ATTRIB 1 @9 ENTITY_ID 0 3 6 1875374457 0 #
simple-snl-attrib $-1 -1 $253 $-1 $107 1 1 1 1 1 1 1 1 1 1 1 1 0 1 0 1 1 1 @17 NEW_SIMPLE_ATTRIB 1 @9 UNIQUE_ID 1 0 1 1856606785 #
face $254 -1 -1 $-1 $-1 $122 $19 $-1 $255 reversed single T 40 -40 -40 40 40 40 F #
loop $-1 -1 -1 $-1 $-1 $180 $107 T -40 40 -40 40 40 40 unknown #
plane-surface $-1 -1 -1 $-1 0 40 0 0 -1 0 0 0 -1 forward_v I I I I #
coedge $-1 -1 -1 $-1 $256 $178 $181 $257 forward $108 $-1 #
coedge $-1 -1 -1 $-1 $185 $110 $111 $171 reversed $80 $-1 #
coedge $-1 -1 -1 $-1 $178 $256 $110 $169 reversed $108 $-1 #
edge $258 -1 -1 $-1 $187 -40 $259 40 $168 $260 forward @7 unknown T -40 -40 -40 -40 -40 40 #
coedge $-1 -1 -1 $-1 $112 $111 $256 $261 forward $59 $-1 #
edge $262 -1 -1 $-1 $176 -40 $259 40 $167 $263 forward @7 unknown T -40 -40 -40 40 -40 -40 #
coedge $-1 -1 -1 $-1 $181 $180 $112 $173 reversed $164 $-1 #
edge $264 -1 -1 $-1 $265 -40 $175 40 $172 $266 forward @7 unknown T -40 40 -40 40 40 -40 #
simple-snl-attrib $-1 -1 $267 $-1 $114 1 1 1 1 1 1 1 1 1 1 1 1 0 1 0 1 1 1 @17 NEW_SIMPLE_ATTRIB 1 @9 ENTITY_ID 0 3 65 1347549993 0 #
vertex $268 -1 -1 $-1 $114 $269 #
vertex $270 -1 -1 $-1 $189 $271 #
straight-curve $-1 -1 -1 $-1 40 0 -40 0 -1 0 I I #
coedge $-1 -1 -1 $-1 $166 $168 $115 $179 reversed $108 $-1 #
edge $272 -1 -1 $-1 $183 -40 $187 40 $178 $273 forward @7 unknown T -40 -40 40 -40 40 40 #
coedge $-1 -1 -1 $-1 $172 $116 $121 $190 forward $164 $-1 #
coedge $-1 -1 -1 $-1 $116 $172 $166 $257 reversed $164 $-1 #
simple-snl-attrib $-1 -1 $274 $-1 $117 1 1 1 1 1 1 1 1 1 1 1 1 0 1 0 1 1 1 @17 NEW_SIMPLE_ATTRIB 1 @9 UNIQUE_ID 1 0 1 90566676 #
vertex $275 -1 -1 $-1 $117 $276 #
straight-curve $-1 -1 -1 $-1 0 40 40 -1 0 0 I I #
coedge $-1 -1 -1 $-1 $118 $167 $120 $189 reversed $80 $-1 #
simple-snl-attrib $-1 -1 $277 $-1 $119 1 1 1 1 1 1 1 1 1 1 1 1 0 1 0 1 1 1 @17 NEW_SIMPLE_ATTRIB 1 @9 UNIQUE_ID 1 0 1 1758492817 #
vertex $278 -1 -1 $-1 $179 $279 #
straight-curve $-1 -1 -1 $-1 0 -40 40 1 0 0 I I #
edge $280 -1 -1 $-1 $124 -40 $176 40 $120 $281 forward @7 unknown T 40 -40 -40 40 -40 40 #
edge $282 -1 -1 $-1 $125 -40 $175 40 $121 $283 forward @7 unknown T 40 40 -40 40 40 40 #
simple-snl-attrib $-1 -1 $284 $123 $86 1 1 1 1 1 1 1 1 1 1 1 1 0 1 0 1 1 1 @17 NEW_SIMPLE_ATTRIB 1 @13 MERGE_PARTNER 0 4 1924205048 1 61 1 #
simple-snl-attrib $-1 -1 $285 $-1 $124 1 1 1 1 1 1 1 1 1 1 1 1 0 1 0 1 1 1 @17 NEW_SIMPLE_ATTRIB 1 @9 ENTITY_ID 0 3 41 -2147483648 -1 #
point $-1 -1 -1 $-1 40 -40 40 #
simple-snl-attrib $-1 -1 $286 $-1 $125 1 1 1 1 1 1 1 1 1 1 1 1 0 1 0 1 1 1 @17 NEW_SIMPLE_ATTRIB 1 @9 ENTITY_ID 0 3 42 -2147483648 -1 #
point $-1 -1 -1 $-1 40 40 40 #
simple-snl-attrib $-1 -1 $-1 $128 $63 1 1 1 1 1 1 1 1 1 1 1 1 0 1 0 1 1 1 @17 NEW_SIMPLE_ATTRIB 1 @13 MERGE_PARTNER 0 4 814231931 -1 18 0 #
simple-snl-attrib $-1 -1 $287 $129 $89 1 1 1 1 1 1 1 1 1 1 1 1 0 1 0 1 1 1 @17 NEW_SIMPLE_ATTRIB 1 @9 ENTITY_ID 0 3 5 1866598103 0 #
simple-snl-attrib $-1 -1 $288 $-1 $130 1 1 1 1 1 1 1 1 1 1 1 1 0 1 0 1 1 1 @17 NEW_SIMPLE_ATTRIB 1 @9 UNIQUE_ID 1 0 1 887565436 #
face $289 -1 -1 $-1 $290 $291 $30 $-1 $292 forward single T -40 40 -40 40 40 40 F #
loop $-1 -1 -1 $-1 $-1 $293 $130 T -40 -40 -40 -40 40 40 unknown #
plane-surface $-1 -1 -1 $-1 -40 0 0 1 0 0 0 0 -1 forward_v I I I I #
coedge $-1 -1 -1 $-1 $208 $294 $295 $296 reversed $131 $-1 #
coedge $-1 -1 -1 $-1 $297 $133 $298 $299 reversed $90 $-1 #
coedge $-1 -1 -1 $-1 $133 $297 $294 $300 reversed $90 $-1 #
coedge $-1 -1 -1 $-1 $213 $212 $133 $206 forward $214 $-1 #
edge $301 -1 -1 $-1 $302 -40 $303 40 $205 $304 forward @7 unknown T 40 -40 -40 40 40 -40 #
coedge $-1 -1 -1 $-1 $135 $134 $305 $306 reversed $64 $-1 #
coedge $-1 -1 -1 $-1 $307 $202 $134 $209 forward $131 $-1 #
edge $308 -1 -1 $-1 $309 -40 $216 40 $208 $310 forward @7 unknown T -40 -40 40 40 -40 40 #
coedge $-1 -1 -1 $-1 $311 $312 $135 $211 forward $291 $-1 #
edge $313 -1 -1 $-1 $217 -40 $314 40 $210 $315 forward @7 unknown T -40 40 40 40 40 40 #
coedge $-1 -1 -1 $-1 $205 $136 $312 $316 forward $214 $-1 #
coedge $-1 -1 -1 $-1 $136 $205 $307 $317 reversed $214 $-1 #
loop $-1 -1 -1 $-1 $-1 $213 $290 T 40 -40 -40 40 40 40 unknown #
simple-snl-attrib $-1 -1 $318 $-1 $137 1 1 1 1 1 1 1 1 1 1 1 1 0 1 0 1 1 1 @17 NEW_SIMPLE_ATTRIB 1 @9 ENTITY_ID 0 3 61 249112703 0 #
vertex $319 -1 -1 $-1 $137 $320 #
vertex $321 -1 -1 $-1 $137 $322 #
straight-curve $-1 -1 -1 $-1 40 0 40 0 1 0 I I #
simple-snl-attrib $-1 -1 $-1 $-1 $139 1 1 1 1 1 1 1 1 1 1 1 1 0 1 0 1 1 1 @17 NEW_SIMPLE_ATTRIB 1 @9 ENTITY_ID 0 3 15 -2147483648 -1 #
face $323 -1 -1 $-1 $-1 $154 $21 $-1 $324 reversed single T 50 -50 -50 50 50 50 F #
loop $-1 -1 -1 $-1 $-1 $237 $139 T -50 50 -50 50 50 50 unknown #
plane-surface $-1 -1 -1 $-1 0 50 0 0 -1 0 0 0 -1 forward_v I I I I #
coedge $-1 -1 -1 $-1 $325 $235 $238 $326 forward $140 $-1 #
coedge $-1 -1 -1 $-1 $242 $142 $143 $228 reversed $95 $-1 #
coedge $-1 -1 -1 $-1 $235 $325 $142 $226 reversed $140 $-1 #
edge $327 -1 -1 $-1 $244 -50 $328 50 $225 $329 forward @7 unknown T -50 -50 -50 -50 -50 50 #
coedge $-1 -1 -1 $-1 $144 $143 $325 $330 forward $68 $-1 #
edge $331 -1 -1 $-1 $233 -50 $328 50 $224 $332 forward @7 unknown T -50 -50 -50 50 -50 -50 #
coedge $-1 -1 -1 $-1 $238 $237 $144 $230 reversed $221 $-1 #
edge $333 -1 -1 $-1 $334 -50 $232 50 $229 $335 forward @7 unknown T -50 50 -50 50 50 -50 #
simple-snl-attrib $-1 -1 $-1 $-1 $146 1 1 1 1 1 1 1 1 1 1 1 1 0 1 0 1 1 1 @17 NEW_SIMPLE_ATTRIB 1 @9 ENTITY_ID 0 3 77 -2147483648 -1 #
vertex $336 -1 -1 $-1 $146 $337 #
vertex $338 -1 -1 $-1 $246 $339 #
straight-curve $-1 -1 -1 $-1 50 0 -50 0 -1 0 I I #
coedge $-1 -1 -1 $-1 $223 $225 $147 $236 reversed $140 $-1 #
edge $340 -1 -1 $-1 $240 -50 $244 50 $235 $341 forward @7 unknown T -50 -50 50 -50 50 50 #
coedge $-1 -1 -1 $-1 $229 $148 $153 $247 forward $221 $-1 #
coedge $-1 -1 -1 $-1 $148 $229 $223 $326 reversed $221 $-1 #
simple-snl-attrib $-1 -1 $-1 $-1 $149 1 1 1 1 1 1 1 1 1 1 1 1 0 1 0 1 1 1 @17 NEW_SIMPLE_ATTRIB 1 @9 ENTITY_ID 0 3 74 -2147483648 -1 #
vertex $342 -1 -1 $-1 $149 $343 #
straight-curve $-1 -1 -1 $-1 0 50 50 -1 0 0 I I #
coedge $-1 -1 -1 $-1 $150 $224 $152 $246 reversed $95 $-1 #
simple-snl-attrib $-1 -1 $-1 $-1 $151 1 1 1 1 1 1 1 1 1 1 1 1 0 1 0 1 1 1 @17 NEW_SIMPLE_ATTRIB 1 @9 ENTITY_ID 0 3 76 -2147483648 -1 #
vertex $344 -1 -1 $-1 $236 $345 #
straight-curve $-1 -1 -1 $-1 0 -50 50 1 0 0 I I #
edge $346 -1 -1 $-1 $156 -50 $233 50 $152 $347 forward @7 unknown T 50 -50 -50 50 -50 50 #
edge $348 -1 -1 $-1 $157 -50 $232 50 $153 $349 forward @7 unknown T 50 50 -50 50 50 50 #
simple-snl-attrib $-1 -1 $-1 $-1 $156 1 1 1 1 1 1 1 1 1 1 1 1 0 1 0 1 1 1 @17 NEW_SIMPLE_ATTRIB 1 @9 ENTITY_ID 0 3 49 -2147483648 -1 #
point $-1 -1 -1 $-1 50 -50 50 #
simple-snl-attrib $-1 -1 $-1 $-1 $157 1 1 1 1 1 1 1 1 1 1 1 1 0 1 0 1 1 1 @17 NEW_SIMPLE_ATTRIB 1 @9 ENTITY_ID 0 3 50 -2147483648 -1 #
point $-1 -1 -1 $-1 50 50 50 #
simple-snl-attrib $-1 -1 $-1 $161 $79 1 1 1 1 1 1 1 1 1 1 1 1 0 1 0 1 1 1 @17 NEW_SIMPLE_ATTRIB 1 @13 MERGE_PARTNER 0 4 887565436 1 38 1 #
simple-snl-attrib $-1 -1 $350 $162 $107 1 1 1 1 1 1 1 1 1 1 1 1 0 1 0 1 1 1 @17 NEW_SIMPLE_ATTRIB 1 @9 ENTITY_ID 0 3 7 2143948764 0 #
simple-snl-attrib $-1 -1 $351 $-1 $163 1 1 1 1 1 1 1 1 1 1 1 1 0 1 0 1 1 1 @17 NEW_SIMPLE_ATTRIB 1 @9 UNIQUE_ID 1 0 1 2081943604 #
plane-surface $-1 -1 -1 $-1 40 0 0 -1 0 0 0 -0 1 forward_v I I I I #
coedge $-1 -1 -1 $-1 $168 $166 $170 $261 reversed $108 $-1 #
edge $352 -1 -1 $-1 $183 -40 $265 40 $181 $353 forward @7 unknown T -40 40 -40 -40 40 40 #
simple-snl-attrib $-1 -1 $354 $-1 $169 1 1 1 1 1 1 1 1 1 1 1 1 0 1 0 1 1 1 @17 NEW_SIMPLE_ATTRIB 1 @9 ENTITY_ID 0 3 69 1801343534 0 #
vertex $355 -1 -1 $-1 $261 $356 #
straight-curve $-1 -1 -1 $-1 -40 -40 0 0 0 -1 I I #
edge $357 -1 -1 $-1 $259 -40 $265 40 $256 $358 forward @7 unknown T -40 -40 -40 -40 40 -40 #
simple-snl-attrib $-1 -1 $359 $-1 $171 1 1 1 1 1 1 1 1 1 1 1 1 0 1 0 1 1 1 @17 NEW_SIMPLE_ATTRIB 1 @9 UNIQUE_ID 1 0 1 1618744276 #
straight-curve $-1 -1 -1 $-1 0 -40 -40 -1 0 0 I I #
simple-snl-attrib $-1 -1 $360 $-1 $173 1 1 1 1 1 1 1 1 1 1 1 1 0 1 0 1 1 1 @17 NEW_SIMPLE_ATTRIB 1 @9 UNIQUE_ID 1 0 1 1420216016 #
vertex $361 -1 -1 $-1 $173 $362 #
straight-curve $-1 -1 -1 $-1 0 40 -40 1 0 0 I I #
simple-snl-attrib $-1 -1 $363 $174 $114 1 1 1 1 1 1 1 1 1 1 1 1 0 1 0 1 1 1 @17 NEW_SIMPLE_ATTRIB 1 @13 MERGE_PARTNER 0 4 1138961259 1 65 1 #
simple-snl-attrib $-1 -1 $364 $-1 $175 1 1 1 1 1 1 1 1 1 1 1 1 0 1 0 1 1 1 @17 NEW_SIMPLE_ATTRIB 1 @9 ENTITY_ID 0 3 45 -2147483648 -1 #
point $-1 -1 -1 $-1 40 40 -40 #
simple-snl-attrib $-1 -1 $365 $-1 $176 1 1 1 1 1 1 1 1 1 1 1 1 0 1 0 1 1 1 @17 NEW_SIMPLE_ATTRIB 1 @9 ENTITY_ID 0 3 46 -2147483648 -1 #
point $-1 -1 -1 $-1 40 -40 -40 #
simple-snl-attrib $-1 -1 $366 $-1 $179 1 1 1 1 1 1 1 1 1 1 1 1 0 1 0 1 1 1 @17 NEW_SIMPLE_ATTRIB 1 @9 UNIQUE_ID 1 0 1 2107679077 #
straight-curve $-1 -1 -1 $-1 -40 0 40 0 -1 0 I I #
simple-snl-attrib $-1 -1 $367 $182 $117 1 1 1 1 1 1 1 1 1 1 1 1 0 1 0 1 1 1 @17 NEW_SIMPLE_ATTRIB 1 @9 ENTITY_ID 0 3 62 1702271005 0 #
simple-snl-attrib $-1 -1 $368 $-1 $183 1 1 1 1 1 1 1 1 1 1 1 1 0 1 0 1 1 1 @17 NEW_SIMPLE_ATTRIB 1 @9 ENTITY_ID 0 3 43 -2147483648 -1 #
point $-1 -1 -1 $-1 -40 40 40 #
simple-snl-attrib $-1 -1 $369 $186 $119 1 1 1 1 1 1 1 1 1 1 1 1 0 1 0 1 1 1 @17 NEW_SIMPLE_ATTRIB 1 @9 ENTITY_ID 0 3 64 1801343534 0 #
simple-snl-attrib $-1 -1 $370 $-1 $187 1 1 1 1 1 1 1 1 1 1 1 1 0 1 0 1 1 1 @17 NEW_SIMPLE_ATTRIB 1 @9 ENTITY_ID 0 3 44 -2147483648 -1 #
point $-1 -1 -1 $-1 -40 -40 40 #
simple-snl-attrib $-1 -1 $371 $-1 $189 1 1 1 1 1 1 1 1 1 1 1 1 0 1 0 1 1 1 @17 NEW_SIMPLE_ATTRIB 1 @9 ENTITY_ID 0 3 70 249112703 0 #
straight-curve $-1 -1 -1 $-1 40 -40 0 0 0 -1 I I #
simple-snl-attrib $-1 -1 $372 $-1 $190 1 1 1 1 1 1 1 1 1 1 1 1 0 1 0 1 1 1 @17 NEW_SIMPLE_ATTRIB 1 @9 ENTITY_ID 0 3 72 1702271005 0 #
straight-curve $-1 -1 -1 $-1 40 40 0 0 0 -1 I I #
simple-snl-attrib $-1 -1 $-1 $191 $86 1 1 1 1 1 1 1 1 1 1 1 1 0 1 0 1 1 1 @17 NEW_SIMPLE_ATTRIB 1 @9 UNIQUE_ID 1 0 1 1924205048 #
simple-snl-attrib $-1 -1 $373 $192 $124 1 1 1 1 1 1 1 1 1 1 1 1 0 1 0 1 1 1 @17 NEW_SIMPLE_ATTRIB 1 @13 MERGE_PARTNER 0 4 249112703 1 41 1 #
simple-snl-attrib $-1 -1 $374 $194 $125 1 1 1 1 1 1 1 1 1 1 1 1 0 1 0 1 1 1 @17 NEW_SIMPLE_ATTRIB 1 @13 MERGE_PARTNER 0 4 1702271005 1 42 1 #
simple-snl-attrib $-1 -1 $-1 $197 $89 1 1 1 1 1 1 1 1 1 1 1 1 0 1 0 1 1 1 @17 NEW_SIMPLE_ATTRIB 1 @13 MERGE_PARTNER 0 4 1190205550 -1 19 0 #
simple-snl-attrib $-1 -1 $375 $198 $130 1 1 1 1 1 1 1 1 1 1 1 1 0 1 0 1 1 1 @17 NEW_SIMPLE_ATTRIB 1 @9 ENTITY_ID 0 3 6 1875374457 0 #
simple-snl-attrib $-1 -1 $376 $-1 $199 1 1 1 1 1 1 1 1 1 1 1 1 0 1 0 1 1 1 @17 NEW_SIMPLE_ATTRIB 1 @9 UNIQUE_ID 1 0 1 1856606785 #
face $377 -1 -1 $-1 $-1 $214 $30 $-1 $378 forward single T 40 -40 -40 40 40 40 F #
loop $-1 -1 -1 $-1 $-1 $312 $199 T -40 40 -40 40 40 40 unknown #
plane-surface $-1 -1 -1 $-1 0 40 0 0 -1 0 0 0 -1 forward_v I I I I #
coedge $-1 -1 -1 $-1 $305 $379 $311 $380 reversed $200 $-1 #
coedge $-1 -1 -1 $-1 $202 $307 $204 $300 forward $131 $-1 #
coedge $-1 -1 -1 $-1 $379 $305 $202 $296 forward $200 $-1 #
edge $381 -1 -1 $-1 $309 -40 $382 40 $295 $383 forward @7 unknown T -40 -40 -40 -40 -40 40 #
coedge $-1 -1 -1 $-1 $204 $203 $379 $384 reversed $90 $-1 #
coedge $-1 -1 -1 $-1 $312 $311 $203 $299 forward $291 $-1 #
edge $385 -1 -1 $-1 $386 -40 $302 40 $298 $387 forward @7 unknown T -40 40 -40 40 40 -40 #
edge $388 -1 -1 $-1 $303 -40 $382 40 $294 $389 forward @7 unknown T -40 -40 -40 40 -40 -40 #
simple-snl-attrib $-1 -1 $390 $-1 $206 1 1 1 1 1 1 1 1 1 1 1 1 0 1 0 1 1 1 @17 NEW_SIMPLE_ATTRIB 1 @9 ENTITY_ID 0 3 65 1347549993 0 #
vertex $391 -1 -1 $-1 $206 $392 #
vertex $393 -1 -1 $-1 $317 $394 #
straight-curve $-1 -1 -1 $-1 40 0 -40 0 -1 0 I I #
coedge $-1 -1 -1 $-1 $295 $293 $207 $306 forward $200 $-1 #
edge $395 -1 -1 $-1 $314 -40 $309 40 $305 $396 forward @7 unknown T -40 -40 40 -40 40 40 #
coedge $-1 -1 -1 $-1 $294 $208 $213 $317 forward $131 $-1 #
simple-snl-attrib $-1 -1 $397 $-1 $209 1 1 1 1 1 1 1 1 1 1 1 1 0 1 0 1 1 1 @17 NEW_SIMPLE_ATTRIB 1 @9 UNIQUE_ID 1 0 1 1758492817 #
vertex $398 -1 -1 $-1 $306 $399 #
straight-curve $-1 -1 -1 $-1 0 -40 40 1 0 0 I I #
coedge $-1 -1 -1 $-1 $298 $210 $293 $380 forward $291 $-1 #
coedge $-1 -1 -1 $-1 $210 $298 $212 $316 reversed $291 $-1 #
simple-snl-attrib $-1 -1 $400 $-1 $211 1 1 1 1 1 1 1 1 1 1 1 1 0 1 0 1 1 1 @17 NEW_SIMPLE_ATTRIB 1 @9 UNIQUE_ID 1 0 1 90566676 #
vertex $401 -1 -1 $-1 $211 $402 #
straight-curve $-1 -1 -1 $-1 0 40 40 -1 0 0 I I #
edge $403 -1 -1 $-1 $217 -40 $302 40 $212 $404 forward @7 unknown T 40 40 -40 40 40 40 #
edge $405 -1 -1 $-1 $216 -40 $303 40 $213 $406 forward @7 unknown T 40 -40 -40 40 -40 40 #
simple-snl-attrib $-1 -1 $407 $215 $137 1 1 1 1 1 1 1 1 1 1 1 1 0 1 0 1 1 1 @17 NEW_SIMPLE_ATTRIB 1 @13 MERGE_PARTNER 0 4 1924205048 1 85 0 #
simple-snl-attrib $-1 -1 $408 $-1 $216 1 1 1 1 1 1 1 1 1 1 1 1 0 1 0 1 1 1 @17 NEW_SIMPLE_ATTRIB 1 @9 ENTITY_ID 0 3 41 -2147483648 -1 #
point $-1 -1 -1 $-1 40 -40 40 #
simple-snl-attrib $-1 -1 $409 $-1 $217 1 1 1 1 1 1 1 1 1 1 1 1 0 1 0 1 1 1 @17 NEW_SIMPLE_ATTRIB 1 @9 ENTITY_ID 0 3 42 -2147483648 -1 #
point $-1 -1 -1 $-1 40 40 40 #
simple-snl-attrib $-1 -1 $-1 $-1 $220 1 1 1 1 1 1 1 1 1 1 1 1 0 1 0 1 1 1 @17 NEW_SIMPLE_ATTRIB 1 @9 ENTITY_ID 0 3 16 -2147483648 -1 #
plane-surface $-1 -1 -1 $-1 50 0 0 -1 0 0 0 -0 1 forward_v I I I I #
coedge $-1 -1 -1 $-1 $225 $223 $227 $330 reversed $140 $-1 #
edge $410 -1 -1 $-1 $240 -50 $334 50 $238 $411 forward @7 unknown T -50 50 -50 -50 50 50 #
simple-snl-attrib $-1 -1 $-1 $-1 $226 1 1 1 1 1 1 1 1 1 1 1 1 0 1 0 1 1 1 @17 NEW_SIMPLE_ATTRIB 1 @9 ENTITY_ID 0 3 81 -2147483648 -1 #
vertex $412 -1 -1 $-1 $330 $413 #
straight-curve $-1 -1 -1 $-1 -50 -50 0 0 0 -1 I I #
edge $414 -1 -1 $-1 $328 -50 $334 50 $325 $415 forward @7 unknown T -50 -50 -50 -50 50 -50 #
simple-snl-attrib $-1 -1 $-1 $-1 $228 1 1 1 1 1 1 1 1 1 1 1 1 0 1 0 1 1 1 @17 NEW_SIMPLE_ATTRIB 1 @9 ENTITY_ID 0 3 78 -2147483648 -1 #
straight-curve $-1 -1 -1 $-1 0 -50 -50 -1 0 0 I I #
simple-snl-attrib $-1 -1 $-1 $-1 $230 1 1 1 1 1 1 1 1 1 1 1 1 0 1 0 1 1 1 @17 NEW_SIMPLE_ATTRIB 1 @9 ENTITY_ID 0 3 80 -2147483648 -1 #
vertex $416 -1 -1 $-1 $230 $417 #
straight-curve $-1 -1 -1 $-1 0 50 -50 1 0 0 I I #
simple-snl-attrib $-1 -1 $-1 $-1 $232 1 1 1 1 1 1 1 1 1 1 1 1 0 1 0 1 1 1 @17 NEW_SIMPLE_ATTRIB 1 @9 ENTITY_ID 0 3 53 -2147483648 -1 #
point $-1 -1 -1 $-1 50 50 -50 #
simple-snl-attrib $-1 -1 $-1 $-1 $233 1 1 1 1 1 1 1 1 1 1 1 1 0 1 0 1 1 1 @17 NEW_SIMPLE_ATTRIB 1 @9 ENTITY_ID 0 3 54 -2147483648 -1 #
point $-1 -1 -1 $-1 50 -50 -50 #
simple-snl-attrib $-1 -1 $-1 $-1 $236 1 1 1 1 1 1 1 1 1 1 1 1 0 1 0 1 1 1 @17 NEW_SIMPLE_ATTRIB 1 @9 ENTITY_ID 0 3 75 -2147483648 -1 #
straight-curve $-1 -1 -1 $-1 -50 0 50 0 -1 0 I I #
simple-snl-attrib $-1 -1 $-1 $-1 $240 1 1 1 1 1 1 1 1 1 1 1 1 0 1 0 1 1 1 @17 NEW_SIMPLE_ATTRIB 1 @9 ENTITY_ID 0 3 51 -2147483648 -1 #
point $-1 -1 -1 $-1 -50 50 50 #
simple-snl-attrib $-1 -1 $-1 $-1 $244 1 1 1 1 1 1 1 1 1 1 1 1 0 1 0 1 1 1 @17 NEW_SIMPLE_ATTRIB 1 @9 ENTITY_ID 0 3 52 -2147483648 -1 #
point $-1 -1 -1 $-1 -50 -50 50 #
simple-snl-attrib $-1 -1 $-1 $-1 $246 1 1 1 1 1 1 1 1 1 1 1 1 0 1 0 1 1 1 @17 NEW_SIMPLE_ATTRIB 1 @9 ENTITY_ID 0 3 82 -2147483648 -1 #
straight-curve $-1 -1 -1 $-1 50 -50 0 0 0 -1 I I #
simple-snl-attrib $-1 -1 $-1 $-1 $247 1 1 1 1 1 1 1 1 1 1 1 1 0 1 0 1 1 1 @17 NEW_SIMPLE_ATTRIB 1 @9 ENTITY_ID 0 3 84 -2147483648 -1 #
straight-curve $-1 -1 -1 $-1 50 50 0 0 0 -1 I I #
simple-snl-attrib $-1 -1 $-1 $253 $107 1 1 1 1 1 1 1 1 1 1 1 1 0 1 0 1 1 1 @17 NEW_SIMPLE_ATTRIB 1 @13 MERGE_PARTNER 0 4 1856606785 1 39 1 #
simple-snl-attrib $-1 -1 $418 $254 $163 1 1 1 1 1 1 1 1 1 1 1 1 0 1 0 1 1 1 @17 NEW_SIMPLE_ATTRIB 1 @9 ENTITY_ID 0 3 8 1033512914 0 #
simple-snl-attrib $-1 -1 $419 $-1 $257 1 1 1 1 1 1 1 1 1 1 1 1 0 1 0 1 1 1 @17 NEW_SIMPLE_ATTRIB 1 @9 ENTITY_ID 0 3 71 161510050 0 #
straight-curve $-1 -1 -1 $-1 -40 40 0 0 0 -1 I I #
simple-snl-attrib $-1 -1 $420 $258 $169 1 1 1 1 1 1 1 1 1 1 1 1 0 1 0 1 1 1 @17 NEW_SIMPLE_ATTRIB 1 @13 MERGE_PARTNER 0 4 1866598103 1 69 1 #
simple-snl-attrib $-1 -1 $421 $-1 $259 1 1 1 1 1 1 1 1 1 1 1 1 0 1 0 1 1 1 @17 NEW_SIMPLE_ATTRIB 1 @9 ENTITY_ID 0 3 47 -2147483648 -1 #
point $-1 -1 -1 $-1 -40 -40 -40 #
simple-snl-attrib $-1 -1 $422 $-1 $261 1 1 1 1 1 1 1 1 1 1 1 1 0 1 0 1 1 1 @17 NEW_SIMPLE_ATTRIB 1 @9 UNIQUE_ID 1 0 1 271593592 #
straight-curve $-1 -1 -1 $-1 -40 0 -40 0 1 0 I I #
simple-snl-attrib $-1 -1 $423 $262 $171 1 1 1 1 1 1 1 1 1 1 1 1 0 1 0 1 1 1 @17 NEW_SIMPLE_ATTRIB 1 @9 ENTITY_ID 0 3 66 2143671174 0 #
simple-snl-attrib $-1 -1 $424 $264 $173 1 1 1 1 1 1 1 1 1 1 1 1 0 1 0 1 1 1 @17 NEW_SIMPLE_ATTRIB 1 @9 ENTITY_ID 0 3 68 1122310790 0 #
simple-snl-attrib $-1 -1 $425 $-1 $265 1 1 1 1 1 1 1 1 1 1 1 1 0 1 0 1 1 1 @17 NEW_SIMPLE_ATTRIB 1 @9 ENTITY_ID 0 3 48 -2147483648 -1 #
point $-1 -1 -1 $-1 -40 40 -40 #
simple-snl-attrib $-1 -1 $-1 $267 $114 1 1 1 1 1 1 1 1 1 1 1 1 0 1 0 1 1 1 @17 NEW_SIMPLE_ATTRIB 1 @9 UNIQUE_ID 1 0 1 1138961259 #
simple-snl-attrib $-1 -1 $426 $268 $175 1 1 1 1 1 1 1 1 1 1 1 1 0 1 0 1 1 1 @17 NEW_SIMPLE_ATTRIB 1 @13 MERGE_PARTNER 0 4 1347549993 1 45 1 #
simple-snl-attrib $-1 -1 $427 $270 $176 1 1 1 1 1 1 1 1 1 1 1 1 0 1 0 1 1 1 @17 NEW_SIMPLE_ATTRIB 1 @13 MERGE_PARTNER 0 4 2143671174 1 46 1 #
simple-snl-attrib $-1 -1 $428 $272 $179 1 1 1 1 1 1 1 1 1 1 1 1 0 1 0 1 1 1 @17 NEW_SIMPLE_ATTRIB 1 @9 ENTITY_ID 0 3 63 161510050 0 #
simple-snl-attrib $-1 -1 $-1 $274 $117 1 1 1 1 1 1 1 1 1 1 1 1 0 1 0 1 1 1 @17 NEW_SIMPLE_ATTRIB 1 @13 MERGE_PARTNER 0 4 90566676 1 62 1 #
simple-snl-attrib $-1 -1 $429 $275 $183 1 1 1 1 1 1 1 1 1 1 1 1 0 1 0 1 1 1 @17 NEW_SIMPLE_ATTRIB 1 @13 MERGE_PARTNER 0 4 161510050 1 43 1 #
simple-snl-attrib $-1 -1 $-1 $277 $119 1 1 1 1 1 1 1 1 1 1 1 1 0 1 0 1 1 1 @17 NEW_SIMPLE_ATTRIB 1 @13 MERGE_PARTNER 0 4 1758492817 1 64 1 #
simple-snl-attrib $-1 -1 $430 $278 $187 1 1 1 1 1 1 1 1 1 1 1 1 0 1 0 1 1 1 @17 NEW_SIMPLE_ATTRIB 1 @13 MERGE_PARTNER 0 4 1801343534 1 44 1 #
simple-snl-attrib $-1 -1 $431 $280 $189 1 1 1 1 1 1 1 1 1 1 1 1 0 1 0 1 1 1 @17 NEW_SIMPLE_ATTRIB 1 @13 MERGE_PARTNER 0 4 1033512914 1 70 1 #
simple-snl-attrib $-1 -1 $432 $282 $190 1 1 1 1 1 1 1 1 1 1 1 1 0 1 0 1 1 1 @17 NEW_SIMPLE_ATTRIB 1 @13 MERGE_PARTNER 0 4 2143948764 1 72 1 #
simple-snl-attrib $-1 -1 $-1 $285 $124 1 1 1 1 1 1 1 1 1 1 1 1 0 1 0 1 1 1 @17 NEW_SIMPLE_ATTRIB 1 @9 UNIQUE_ID 1 0 1 249112703 #
simple-snl-attrib $-1 -1 $-1 $286 $125 1 1 1 1 1 1 1 1 1 1 1 1 0 1 0 1 1 1 @17 NEW_SIMPLE_ATTRIB 1 @9 UNIQUE_ID 1 0 1 1702271005 #
simple-snl-attrib $-1 -1 $-1 $288 $130 1 1 1 1 1 1 1 1 1 1 1 1 0 1 0 1 1 1 @17 NEW_SIMPLE_ATTRIB 1 @13 MERGE_PARTNER 0 4 887565436 -1 20 0 #
simple-snl-attrib $-1 -1 $433 $289 $199 1 1 1 1 1 1 1 1 1 1 1 1 0 1 0 1 1 1 @17 NEW_SIMPLE_ATTRIB 1 @9 ENTITY_ID 0 3 7 2143948764 0 #
simple-snl-attrib $-1 -1 $434 $-1 $290 1 1 1 1 1 1 1 1 1 1 1 1 0 1 0 1 1 1 @17 NEW_SIMPLE_ATTRIB 1 @9 UNIQUE_ID 1 0 1 2081943604 #
plane-surface $-1 -1 -1 $-1 40 0 0 -1 0 0 0 -0 1 forward_v I I I I #
coedge $-1 -1 -1 $-1 $293 $295 $297 $384 forward $200 $-1 #
edge $435 -1 -1 $-1 $314 -40 $386 40 $311 $436 forward @7 unknown T -40 40 -40 -40 40 40 #
simple-snl-attrib $-1 -1 $437 $-1 $296 1 1 1 1 1 1 1 1 1 1 1 1 0 1 0 1 1 1 @17 NEW_SIMPLE_ATTRIB 1 @9 ENTITY_ID 0 3 69 1801343534 0 #
vertex $438 -1 -1 $-1 $384 $439 #
straight-curve $-1 -1 -1 $-1 -40 -40 0 0 0 -1 I I #
edge $440 -1 -1 $-1 $382 -40 $386 40 $379 $441 forward @7 unknown T -40 -40 -40 -40 40 -40 #
simple-snl-attrib $-1 -1 $442 $-1 $299 1 1 1 1 1 1 1 1 1 1 1 1 0 1 0 1 1 1 @17 NEW_SIMPLE_ATTRIB 1 @9 UNIQUE_ID 1 0 1 1420216016 #
vertex $443 -1 -1 $-1 $299 $444 #
straight-curve $-1 -1 -1 $-1 0 40 -40 1 0 0 I I #
simple-snl-attrib $-1 -1 $445 $-1 $300 1 1 1 1 1 1 1 1 1 1 1 1 0 1 0 1 1 1 @17 NEW_SIMPLE_ATTRIB 1 @9 UNIQUE_ID 1 0 1 1618744276 #
straight-curve $-1 -1 -1 $-1 0 -40 -40 -1 0 0 I I #
simple-snl-attrib $-1 -1 $446 $301 $206 1 1 1 1 1 1 1 1 1 1 1 1 0 1 0 1 1 1 @17 NEW_SIMPLE_ATTRIB 1 @13 MERGE_PARTNER 0 4 1138961259 1 89 0 #
simple-snl-attrib $-1 -1 $447 $-1 $302 1 1 1 1 1 1 1 1 1 1 1 1 0 1 0 1 1 1 @17 NEW_SIMPLE_ATTRIB 1 @9 ENTITY_ID 0 3 45 -2147483648 -1 #
point $-1 -1 -1 $-1 40 40 -40 #
simple-snl-attrib $-1 -1 $448 $-1 $303 1 1 1 1 1 1 1 1 1 1 1 1 0 1 0 1 1 1 @17 NEW_SIMPLE_ATTRIB 1 @9 ENTITY_ID 0 3 46 -2147483648 -1 #
point $-1 -1 -1 $-1 40 -40 -40 #
simple-snl-attrib $-1 -1 $449 $-1 $306 1 1 1 1 1 1 1 1 1 1 1 1 0 1 0 1 1 1 @17 NEW_SIMPLE_ATTRIB 1 @9 UNIQUE_ID 1 0 1 2107679077 #
straight-curve $-1 -1 -1 $-1 -40 0 40 0 -1 0 I I #
simple-snl-attrib $-1 -1 $450 $308 $209 1 1 1 1 1 1 1 1 1 1 1 1 0 1 0 1 1 1 @17 NEW_SIMPLE_ATTRIB 1 @9 ENTITY_ID 0 3 64 1801343534 0 #
simple-snl-attrib $-1 -1 $451 $-1 $309 1 1 1 1 1 1 1 1 1 1 1 1 0 1 0 1 1 1 @17 NEW_SIMPLE_ATTRIB 1 @9 ENTITY_ID 0 3 44 -2147483648 -1 #
point $-1 -1 -1 $-1 -40 -40 40 #
simple-snl-attrib $-1 -1 $452 $313 $211 1 1 1 1 1 1 1 1 1 1 1 1 0 1 0 1 1 1 @17 NEW_SIMPLE_ATTRIB 1 @9 ENTITY_ID 0 3 62 1702271005 0 #
simple-snl-attrib $-1 -1 $453 $-1 $314 1 1 1 1 1 1 1 1 1 1 1 1 0 1 0 1 1 1 @17 NEW_SIMPLE_ATTRIB 1 @9 ENTITY_ID 0 3 43 -2147483648 -1 #
point $-1 -1 -1 $-1 -40 40 40 #
simple-snl-attrib $-1 -1 $454 $-1 $316 1 1 1 1 1 1 1 1 1 1 1 1 0 1 0 1 1 1 @17 NEW_SIMPLE_ATTRIB 1 @9 ENTITY_ID 0 3 72 1702271005 0 #
straight-curve $-1 -1 -1 $-1 40 40 0 0 0 -1 I I #
simple-snl-attrib $-1 -1 $455 $-1 $317 1 1 1 1 1 1 1 1 1 1 1 1 0 1 0 1 1 1 @17 NEW_SIMPLE_ATTRIB 1 @9 ENTITY_ID 0 3 70 249112703 0 #
straight-curve $-1 -1 -1 $-1 40 -40 0 0 0 -1 I I #
simple-snl-attrib $-1 -1 $-1 $318 $137 1 1 1 1 1 1 1 1 1 1 1 1 0 1 0 1 1 1 @17 NEW_SIMPLE_ATTRIB 1 @9 UNIQUE_ID 1 0 1 1924205048 #
simple-snl-attrib $-1 -1 $456 $319 $216 1 1 1 1 1 1 1 1 1 1 1 1 0 1 0 1 1 1 @17 NEW_SIMPLE_ATTRIB 1 @13 MERGE_PARTNER 0 4 249112703 1 57 0 #
simple-snl-attrib $-1 -1 $457 $321 $217 1 1 1 1 1 1 1 1 1 1 1 1 0 1 0 1 1 1 @17 NEW_SIMPLE_ATTRIB 1 @13 MERGE_PARTNER 0 4 1702271005 1 58 0 #
simple-snl-attrib $-1 -1 $-1 $-1 $326 1 1 1 1 1 1 1 1 1 1 1 1 0 1 0 1 1 1 @17 NEW_SIMPLE_ATTRIB 1 @9 ENTITY_ID 0 3 83 -2147483648 -1 #
straight-curve $-1 -1 -1 $-1 -50 50 0 0 0 -1 I I #
simple-snl-attrib $-1 -1 $-1 $-1 $328 1 1 1 1 1 1 1 1 1 1 1 1 0 1 0 1 1 1 @17 NEW_SIMPLE_ATTRIB 1 @9 ENTITY_ID 0 3 55 -2147483648 -1 #
point $-1 -1 -1 $-1 -50 -50 -50 #
simple-snl-attrib $-1 -1 $-1 $-1 $330 1 1 1 1 1 1 1 1 1 1 1 1 0 1 0 1 1 1 @17 NEW_SIMPLE_ATTRIB 1 @9 ENTITY_ID 0 3 79 -2147483648 -1 #
straight-curve $-1 -1 -1 $-1 -50 0 -50 0 1 0 I I #
simple-snl-attrib $-1 -1 $-1 $-1 $334 1 1 1 1 1 1 1 1 1 1 1 1 0 1 0 1 1 1 @17 NEW_SIMPLE_ATTRIB 1 @9 ENTITY_ID 0 3 56 -2147483648 -1 #
point $-1 -1 -1 $-1 -50 50 -50 #
simple-snl-attrib $-1 -1 $-1 $351 $163 1 1 1 1 1 1 1 1 1 1 1 1 0 1 0 1 1 1 @17 NEW_SIMPLE_ATTRIB 1 @13 MERGE_PARTNER 0 4 2081943604 1 40 1 #
simple-snl-attrib $-1 -1 $458 $352 $257 1 1 1 1 1 1 1 1 1 1 1 1 0 1 0 1 1 1 @17 NEW_SIMPLE_ATTRIB 1 @13 MERGE_PARTNER 0 4 1875374457 1 71 1 #
simple-snl-attrib $-1 -1 $-1 $354 $169 1 1 1 1 1 1 1 1 1 1 1 1 0 1 0 1 1 1 @17 NEW_SIMPLE_ATTRIB 1 @9 UNIQUE_ID 1 0 1 1866598103 #
simple-snl-attrib $-1 -1 $459 $355 $259 1 1 1 1 1 1 1 1 1 1 1 1 0 1 0 1 1 1 @17 NEW_SIMPLE_ATTRIB 1 @13 MERGE_PARTNER 0 4 1909783400 1 47 1 #
simple-snl-attrib $-1 -1 $460 $357 $261 1 1 1 1 1 1 1 1 1 1 1 1 0 1 0 1 1 1 @17 NEW_SIMPLE_ATTRIB 1 @9 ENTITY_ID 0 3 67 1909783400 0 #
simple-snl-attrib $-1 -1 $-1 $359 $171 1 1 1 1 1 1 1 1 1 1 1 1 0 1 0 1 1 1 @17 NEW_SIMPLE_ATTRIB 1 @13 MERGE_PARTNER 0 4 1618744276 1 66 1 #
simple-snl-attrib $-1 -1 $-1 $360 $173 1 1 1 1 1 1 1 1 1 1 1 1 0 1 0 1 1 1 @17 NEW_SIMPLE_ATTRIB 1 @13 MERGE_PARTNER 0 4 1420216016 1 68 1 #
simple-snl-attrib $-1 -1 $461 $361 $265 1 1 1 1 1 1 1 1 1 1 1 1 0 1 0 1 1 1 @17 NEW_SIMPLE_ATTRIB 1 @13 MERGE_PARTNER 0 4 1122310790 1 48 1 #
simple-snl-attrib $-1 -1 $-1 $364 $175 1 1 1 1 1 1 1 1 1 1 1 1 0 1 0 1 1 1 @17 NEW_SIMPLE_ATTRIB 1 @9 UNIQUE_ID 1 0 1 1347549993 #
simple-snl-attrib $-1 -1 $-1 $365 $176 1 1 1 1 1 1 1 1 1 1 1 1 0 1 0 1 1 1 @17 NEW_SIMPLE_ATTRIB 1 @9 UNIQUE_ID 1 0 1 2143671174 #
simple-snl-attrib $-1 -1 $-1 $366 $179 1 1 1 1 1 1 1 1 1 1 1 1 0 1 0 1 1 1 @17 NEW_SIMPLE_ATTRIB 1 @13 MERGE_PARTNER 0 4 2107679077 1 63 1 #
simple-snl-attrib $-1 -1 $-1 $368 $183 1 1 1 1 1 1 1 1 1 1 1 1 0 1 0 1 1 1 @17 NEW_SIMPLE_ATTRIB 1 @9 UNIQUE_ID 1 0 1 161510050 #
simple-snl-attrib $-1 -1 $-1 $370 $187 1 1 1 1 1 1 1 1 1 1 1 1 0 1 0 1 1 1 @17 NEW_SIMPLE_ATTRIB 1 @9 UNIQUE_ID 1 0 1 1801343534 #
simple-snl-attrib $-1 -1 $-1 $371 $189 1 1 1 1 1 1 1 1 1 1 1 1 0 1 0 1 1 1 @17 NEW_SIMPLE_ATTRIB 1 @9 UNIQUE_ID 1 0 1 1033512914 #
simple-snl-attrib $-1 -1 $-1 $372 $190 1 1 1 1 1 1 1 1 1 1 1 1 0 1 0 1 1 1 @17 NEW_SIMPLE_ATTRIB 1 @9 UNIQUE_ID 1 0 1 2143948764 #
simple-snl-attrib $-1 -1 $-1 $376 $199 1 1 1 1 1 1 1 1 1 1 1 1 0 1 0 1 1 1 @17 NEW_SIMPLE_ATTRIB 1 @13 MERGE_PARTNER 0 4 1856606785 -1 21 0 #
simple-snl-attrib $-1 -1 $462 $377 $290 1 1 1 1 1 1 1 1 1 1 1 1 0 1 0 1 1 1 @17 NEW_SIMPLE_ATTRIB 1 @9 ENTITY_ID 0 3 8 1033512914 0 #
simple-snl-attrib $-1 -1 $463 $-1 $380 1 1 1 1 1 1 1 1 1 1 1 1 0 1 0 1 1 1 @17 NEW_SIMPLE_ATTRIB 1 @9 ENTITY_ID 0 3 71 161510050 0 #
straight-curve $-1 -1 -1 $-1 -40 40 0 0 0 -1 I I #
simple-snl-attrib $-1 -1 $464 $381 $296 1 1 1 1 1 1 1 1 1 1 1 1 0 1 0 1 1 1 @17 NEW_SIMPLE_ATTRIB 1 @13 MERGE_PARTNER 0 4 1866598103 1 93 0 #
simple-snl-attrib $-1 -1 $465 $-1 $382 1 1 1 1 1 1 1 1 1 1 1 1 0 1 0 1 1 1 @17 NEW_SIMPLE_ATTRIB 1 @9 ENTITY_ID 0 3 47 -2147483648 -1 #
point $-1 -1 -1 $-1 -40 -40 -40 #
simple-snl-attrib $-1 -1 $466 $-1 $384 1 1 1 1 1 1 1 1 1 1 1 1 0 1 0 1 1 1 @17 NEW_SIMPLE_ATTRIB 1 @9 UNIQUE_ID 1 0 1 271593592 #
straight-curve $-1 -1 -1 $-1 -40 0 -40 0 1 0 I I #
simple-snl-attrib $-1 -1 $467 $385 $299 1 1 1 1 1 1 1 1 1 1 1 1 0 1 0 1 1 1 @17 NEW_SIMPLE_ATTRIB 1 @9 ENTITY_ID 0 3 68 1122310790 0 #
simple-snl-attrib $-1 -1 $468 $-1 $386 1 1 1 1 1 1 1 1 1 1 1 1 0 1 0 1 1 1 @17 NEW_SIMPLE_ATTRIB 1 @9 ENTITY_ID 0 3 48 -2147483648 -1 #
point $-1 -1 -1 $-1 -40 40 -40 #
simple-snl-attrib $-1 -1 $469 $388 $300 1 1 1 1 1 1 1 1 1 1 1 1 0 1 0 1 1 1 @17 NEW_SIMPLE_ATTRIB 1 @9 ENTITY_ID 0 3 66 2143671174 0 #
simple-snl-attrib $-1 -1 $-1 $390 $206 1 1 1 1 1 1 1 1 1 1 1 1 0 1 0 1 1 1 @17 NEW_SIMPLE_ATTRIB 1 @9 UNIQUE_ID 1 0 1 1138961259 #
simple-snl-attrib $-1 -1 $470 $391 $302 1 1 1 1 1 1 1 1 1 1 1 1 0 1 0 1 1 1 @17 NEW_SIMPLE_ATTRIB 1 @13 MERGE_PARTNER 0 4 1347549993 1 61 0 #
simple-snl-attrib $-1 -1 $471 $393 $303 1 1 1 1 1 1 1 1 1 1 1 1 0 1 0 1 1 1 @17 NEW_SIMPLE_ATTRIB 1 @13 MERGE_PARTNER 0 4 2143671174 1 62 0 #
simple-snl-attrib $-1 -1 $472 $395 $306 1 1 1 1 1 1 1 1 1 1 1 1 0 1 0 1 1 1 @17 NEW_SIMPLE_ATTRIB 1 @9 ENTITY_ID 0 3 63 161510050 0 #
simple-snl-attrib $-1 -1 $-1 $397 $209 1 1 1 1 1 1 1 1 1 1 1 1 0 1 0 1 1 1 @17 NEW_SIMPLE_ATTRIB 1 @13 MERGE_PARTNER 0 4 1758492817 1 86 0 #
simple-snl-attrib $-1 -1 $473 $398 $309 1 1 1 1 1 1 1 1 1 1 1 1 0 1 0 1 1 1 @17 NEW_SIMPLE_ATTRIB 1 @13 MERGE_PARTNER 0 4 1801343534 1 59 0 #
simple-snl-attrib $-1 -1 $-1 $400 $211 1 1 1 1 1 1 1 1 1 1 1 1 0 1 0 1 1 1 @17 NEW_SIMPLE_ATTRIB 1 @13 MERGE_PARTNER 0 4 90566676 1 88 0 #
simple-snl-attrib $-1 -1 $474 $401 $314 1 1 1 1 1 1 1 1 1 1 1 1 0 1 0 1 1 1 @17 NEW_SIMPLE_ATTRIB 1 @13 MERGE_PARTNER 0 4 161510050 1 60 0 #
simple-snl-attrib $-1 -1 $475 $403 $316 1 1 1 1 1 1 1 1 1 1 1 1 0 1 0 1 1 1 @17 NEW_SIMPLE_ATTRIB 1 @13 MERGE_PARTNER 0 4 2143948764 1 96 0 #
simple-snl-attrib $-1 -1 $476 $405 $317 1 1 1 1 1 1 1 1 1 1 1 1 0 1 0 1 1 1 @17 NEW_SIMPLE_ATTRIB 1 @13 MERGE_PARTNER 0 4 1033512914 1 94 0 #
simple-snl-attrib $-1 -1 $-1 $408 $216 1 1 1 1 1 1 1 1 1 1 1 1 0 1 0 1 1 1 @17 NEW_SIMPLE_ATTRIB 1 @9 UNIQUE_ID 1 0 1 249112703 #
simple-snl-attrib $-1 -1 $-1 $409 $217 1 1 1 1 1 1 1 1 1 1 1 1 0 1 0 1 1 1 @17 NEW_SIMPLE_ATTRIB 1 @9 UNIQUE_ID 1 0 1 1702271005 #
simple-snl-attrib $-1 -1 $-1 $419 $257 1 1 1 1 1 1 1 1 1 1 1 1 0 1 0 1 1 1 @17 NEW_SIMPLE_ATTRIB 1 @9 UNIQUE_ID 1 0 1 1875374457 #
simple-snl-attrib $-1 -1 $-1 $421 $259 1 1 1 1 1 1 1 1 1 1 1 1 0 1 0 1 1 1 @17 NEW_SIMPLE_ATTRIB 1 @9 UNIQUE_ID 1 0 1 1909783400 #
simple-snl-attrib $-1 -1 $-1 $422 $261 1 1 1 1 1 1 1 1 1 1 1 1 0 1 0 1 1 1 @17 NEW_SIMPLE_ATTRIB 1 @13 MERGE_PARTNER 0 4 271593592 1 67 1 #
simple-snl-attrib $-1 -1 $-1 $425 $265 1 1 1 1 1 1 1 1 1 1 1 1 0 1 0 1 1 1 @17 NEW_SIMPLE_ATTRIB 1 @9 UNIQUE_ID 1 0 1 1122310790 #
simple-snl-attrib $-1 -1 $-1 $434 $290 1 1 1 1 1 1 1 1 1 1 1 1 0 1 0 1 1 1 @17 NEW_SIMPLE_ATTRIB 1 @13 MERGE_PARTNER 0 4 2081943604 -1 22 0 #
simple-snl-attrib $-1 -1 $477 $435 $380 1 1 1 1 1 1 1 1 1 1 1 1 0 1 0 1 1 1 @17 NEW_SIMPLE_ATTRIB 1 @13 MERGE_PARTNER 0 4 1875374457 1 95 0 #
simple-snl-attrib $-1 -1 $-1 $437 $296 1 1 1 1 1 1 1 1 1 1 1 1 0 1 0 1 1 1 @17 NEW_SIMPLE_ATTRIB 1 @9 UNIQUE_ID 1 0 1 1866598103 #
simple-snl-attrib $-1 -1 $478 $438 $382 1 1 1 1 1 1 1 1 1 1 1 1 0 1 0 1 1 1 @17 NEW_SIMPLE_ATTRIB 1 @13 MERGE_PARTNER 0 4 1909783400 1 64 0 #
simple-snl-attrib $-1 -1 $479 $440 $384 1 1 1 1 1 1 1 1 1 1 1 1 0 1 0 1 1 1 @17 NEW_SIMPLE_ATTRIB 1 @9 ENTITY_ID 0 3 67 1909783400 0 #
simple-snl-attrib $-1 -1 $-1 $442 $299 1 1 1 1 1 1 1 1 1 1 1 1 0 1 0 1 1 1 @17 NEW_SIMPLE_ATTRIB 1 @13 MERGE_PARTNER 0 4 1420216016 1 90 0 #
simple-snl-attrib $-1 -1 $480 $443 $386 1 1 1 1 1 1 1 1 1 1 1 1 0 1 0 1 1 1 @17 NEW_SIMPLE_ATTRIB 1 @13 MERGE_PARTNER 0 4 1122310790 1 63 0 #
simple-snl-attrib $-1 -1 $-1 $445 $300 1 1 1 1 1 1 1 1 1 1 1 1 0 1 0 1 1 1 @17 NEW_SIMPLE_ATTRIB 1 @13 MERGE_PARTNER 0 4 1618744276 1 92 0 #
simple-snl-attrib $-1 -1 $-1 $447 $302 1 1 1 1 1 1 1 1 1 1 1 1 0 1 0 1 1 1 @17 NEW_SIMPLE_ATTRIB 1 @9 UNIQUE_ID 1 0 1 1347549993 #
simple-snl-attrib $-1 -1 $-1 $448 $303 1 1 1 1 1 1 1 1 1 1 1 1 0 1 0 1 1 1 @17 NEW_SIMPLE_ATTRIB 1 @9 UNIQUE_ID 1 0 1 2143671174 #
simple-snl-attrib $-1 -1 $-1 $449 $306 1 1 1 1 1 1 1 1 1 1 1 1 0 1 0 1 1 1 @17 NEW_SIMPLE_ATTRIB 1 @13 MERGE_PARTNER 0 4 2107679077 1 87 0 #
simple-snl-attrib $-1 -1 $-1 $451 $309 1 1 1 1 1 1 1 1 1 1 1 1 0 1 0 1 1 1 @17 NEW_SIMPLE_ATTRIB 1 @9 UNIQUE_ID 1 0 1 1801343534 #
simple-snl-attrib $-1 -1 $-1 $453 $314 1 1 1 1 1 1 1 1 1 1 1 1 0 1 0 1 1 1 @17 NEW_SIMPLE_ATTRIB 1 @9 UNIQUE_ID 1 0 1 161510050 #
simple-snl-attrib $-1 -1 $-1 $454 $316 1 1 1 1 1 1 1 1 1 1 1 1 0 1 0 1 1 1 @17 NEW_SIMPLE_ATTRIB 1 @9 UNIQUE_ID 1 0 1 2143948764 #
simple-snl-attrib $-1 -1 $-1 $455 $317 1 1 1 1 1 1 1 1 1 1 1 1 0 1 0 1 1 1 @17 NEW_SIMPLE_ATTRIB 1 @9 UNIQUE_ID 1 0 1 1033512914 #
simple-snl-attrib $-1 -1 $-1 $463 $380 1 1 1 1 1 1 1 1 1 1 1 1 0 1 0 1 1 1 @17 NEW_SIMPLE_ATTRIB 1 @9 UNIQUE_ID 1 0 1 1875374457 #
simple-snl-attrib $-1 -1 $-1 $465 $382 1 1 1 1 1 1 1 1 1 1 1 1 0 1 0 1 1 1 @17 NEW_SIMPLE_ATTRIB 1 @9 UNIQUE_ID 1 0 1 1909783400 #
simple-snl-attrib $-1 -1 $-1 $466 $384 1 1 1 1 1 1 1 1 1 1 1 1 0 1 0 1 1 1 @17 NEW_SIMPLE_ATTRIB 1 @13 MERGE_PARTNER 0 4 271593592 1 91 0 #
simple-snl-attrib $-1 -1 $-1 $468 $386 1 1 1 1 1 1 1 1 1 1 1 1 0 1 0 1 1 1 @17 NEW_SIMPLE_ATTRIB 1 @9 UNIQUE_ID 1 0 1 1122310790 #
End-of-ACIS-data 