1600 0 3 0           
14 Cubit  (iGeom) 17 ACIS 16.0.7 Linux 24 Tue Jul 27 12:23:09 2010 
1 9.9999999999999995e-07 1e-10 
body $3 -1 -1 $-1 $4 $-1 $-1 F #
body $5 -1 -1 $-1 $6 $-1 $-1 T -120 -120 -120 120 120 120 #
body $7 -1 -1 $-1 $8 $-1 $-1 T -100 -100 -100 100 100 100 #
simple-snl-attrib $-1 -1 $9 $-1 $0 1 1 1 1 1 1 1 1 1 1 1 1 0 1 0 1 1 1 @17 NEW_SIMPLE_ATTRIB 1 @9 ENTITY_ID 0 3 4 -2147483648 -1 #
lump $10 -1 -1 $-1 $-1 $11 $0 F #
simple-snl-attrib $-1 -1 $-1 $-1 $1 1 1 1 1 1 1 1 1 1 1 1 1 0 1 0 1 1 1 @17 NEW_SIMPLE_ATTRIB 1 @9 ENTITY_ID 0 3 12 -2147483648 -1 #
lump $12 -1 -1 $-1 $-1 $13 $1 T -120 -120 -120 120 120 120 #
simple-snl-attrib $-1 -1 $-1 $-1 $2 1 1 1 1 1 1 1 1 1 1 1 1 0 1 0 1 1 1 @17 NEW_SIMPLE_ATTRIB 1 @9 ENTITY_ID 0 3 15 -2147483648 -1 #
lump $14 -1 -1 $-1 $-1 $15 $2 T -100 -100 -100 100 100 100 #
simple-snl-attrib $-1 -1 $-1 $3 $0 1 1 1 1 1 1 1 1 1 1 1 1 0 1 0 1 1 1 @17 NEW_SIMPLE_ATTRIB 2 @5 GROUP @9 graveyard 0 7 1 1 825394890 0 0 0 0 #
simple-snl-attrib $-1 -1 $-1 $-1 $4 1 1 1 1 1 1 1 1 1 1 1 1 0 1 0 1 1 1 @17 NEW_SIMPLE_ATTRIB 1 @9 ENTITY_ID 0 3 1 -2147483648 -1 #
shell $-1 -1 -1 $-1 $16 $-1 $17 $-1 $4 T -122.40000000000001 -122.40000000000001 -122.40000000000001 122.40000000000001 122.40000000000001 122.40000000000001 #
simple-snl-attrib $-1 -1 $-1 $-1 $6 1 1 1 1 1 1 1 1 1 1 1 1 0 1 0 1 1 1 @17 NEW_SIMPLE_ATTRIB 1 @9 ENTITY_ID 0 3 2 -2147483648 -1 #
shell $-1 -1 -1 $-1 $18 $-1 $19 $-1 $6 T -120 -120 -120 120 120 120 #
simple-snl-attrib $-1 -1 $-1 $-1 $8 1 1 1 1 1 1 1 1 1 1 1 1 0 1 0 1 1 1 @17 NEW_SIMPLE_ATTRIB 1 @9 ENTITY_ID 0 3 3 -2147483648 -1 #
shell $-1 -1 -1 $-1 $-1 $-1 $20 $-1 $8 T -100 -100 -100 100 100 100 #
shell $-1 -1 -1 $-1 $-1 $-1 $21 $-1 $4 T -120 -120 -120 120 120 120 #
face $22 -1 -1 $-1 $23 $24 $11 $-1 $25 forward single T -122.40000000000001 -122.40000000000001 122.40000000000001 122.40000000000001 122.40000000000001 122.40000000000001 F #
shell $-1 -1 -1 $-1 $-1 $-1 $26 $-1 $6 T -100 -100 -100 100 100 100 #
face $27 -1 -1 $-1 $28 $29 $13 $-1 $30 forward single T -120 -120 120 120 120 120 F #
face $31 -1 -1 $-1 $-1 $-1 $15 $-1 $32 forward single T -100 -100 -100 100 100 100 F #
face $33 -1 -1 $-1 $34 $35 $16 $-1 $36 reversed single T -120 -120 120 120 120 120 F #
simple-snl-attrib $-1 -1 $-1 $-1 $17 1 1 1 1 1 1 1 1 1 1 1 1 0 1 0 1 1 1 @17 NEW_SIMPLE_ATTRIB 1 @9 ENTITY_ID 0 3 1 -2147483648 -1 #
face $37 -1 -1 $-1 $38 $39 $11 $-1 $40 reversed single T -122.40000000000001 -122.40000000000001 -122.40000000000001 122.40000000000001 122.40000000000001 -122.40000000000001 F #
loop $-1 -1 -1 $-1 $-1 $41 $17 T -122.40000000000001 -122.40000000000001 122.40000000000001 122.40000000000001 122.40000000000001 122.40000000000001 unknown #
plane-surface $-1 -1 -1 $-1 0 0 122.40000000000001 0 0 1 1 0 0 forward_v I I I I #
face $42 -1 -1 $-1 $-1 $-1 $18 $-1 $43 reversed single T -100 -100 -100 100 100 100 F #
simple-snl-attrib $-1 -1 $-1 $-1 $19 1 1 1 1 1 1 1 1 1 1 1 1 0 1 0 1 1 1 @17 NEW_SIMPLE_ATTRIB 1 @9 ENTITY_ID 0 3 13 -2147483648 -1 #
face $44 -1 -1 $-1 $45 $46 $13 $-1 $47 reversed single T -120 -120 -120 120 120 -120 F #
loop $-1 -1 -1 $-1 $-1 $48 $19 T -120 -120 120 120 120 120 unknown #
plane-surface $-1 -1 -1 $-1 0 0 120 0 0 1 1 0 0 forward_v I I I I #
simple-snl-attrib $-1 -1 $49 $-1 $20 1 1 1 1 1 1 1 1 1 1 1 1 0 1 0 1 1 1 @17 NEW_SIMPLE_ATTRIB 1 @9 UNIQUE_ID 1 0 1 2069442193 #
sphere-surface $-1 -1 -1 $-1 0 0 0 100 1 0 0 0 0 1 forward_v I I I I #
simple-snl-attrib $-1 -1 $-1 $-1 $21 1 1 1 1 1 1 1 1 1 1 1 1 0 1 0 1 1 1 @17 NEW_SIMPLE_ATTRIB 1 @9 ENTITY_ID 0 3 7 -2147483648 -1 #
face $50 -1 -1 $-1 $51 $52 $16 $-1 $53 forward single T -120 -120 -120 120 120 -120 F #
loop $-1 -1 -1 $-1 $-1 $54 $21 T -120 -120 120 120 120 120 unknown #
plane-surface $-1 -1 -1 $-1 0 0 120 0 0 1 1 0 0 forward_v I I I I #
simple-snl-attrib $-1 -1 $-1 $-1 $23 1 1 1 1 1 1 1 1 1 1 1 1 0 1 0 1 1 1 @17 NEW_SIMPLE_ATTRIB 1 @9 ENTITY_ID 0 3 2 -2147483648 -1 #
face $55 -1 -1 $-1 $56 $57 $11 $-1 $58 reversed single T -122.40000000000001 -122.40000000000001 -122.40000000000001 122.40000000000001 -122.40000000000001 122.40000000000001 F #
loop $-1 -1 -1 $-1 $-1 $59 $23 T -122.40000000000001 -122.40000000000001 -122.40000000000001 122.40000000000001 122.40000000000001 -122.40000000000001 unknown #
plane-surface $-1 -1 -1 $-1 0 0 -122.40000000000001 0 0 1 1 0 0 forward_v I I I I #
coedge $-1 -1 -1 $-1 $60 $61 $62 $63 forward $24 $-1 #
simple-snl-attrib $-1 -1 $64 $-1 $26 1 1 1 1 1 1 1 1 1 1 1 1 0 1 0 1 1 1 @17 NEW_SIMPLE_ATTRIB 1 @9 UNIQUE_ID 1 0 1 2069442193 #
sphere-surface $-1 -1 -1 $-1 0 0 0 100 1 0 0 0 0 1 forward_v I I I I #
simple-snl-attrib $-1 -1 $-1 $-1 $28 1 1 1 1 1 1 1 1 1 1 1 1 0 1 0 1 1 1 @17 NEW_SIMPLE_ATTRIB 1 @9 ENTITY_ID 0 3 14 -2147483648 -1 #
face $65 -1 -1 $-1 $66 $67 $13 $-1 $68 reversed single T -120 -120 -120 120 -120 120 F #
loop $-1 -1 -1 $-1 $-1 $69 $28 T -120 -120 -120 120 120 -120 unknown #
plane-surface $-1 -1 -1 $-1 0 0 -120 0 0 1 1 0 0 forward_v I I I I #
coedge $-1 -1 -1 $-1 $70 $71 $72 $73 forward $29 $-1 #
simple-snl-attrib $-1 -1 $74 $31 $20 1 1 1 1 1 1 1 1 1 1 1 1 0 1 0 1 1 1 @17 NEW_SIMPLE_ATTRIB 1 @9 ENTITY_ID 0 3 19 -2147483648 -1 #
simple-snl-attrib $-1 -1 $-1 $-1 $34 1 1 1 1 1 1 1 1 1 1 1 1 0 1 0 1 1 1 @17 NEW_SIMPLE_ATTRIB 1 @9 ENTITY_ID 0 3 8 -2147483648 -1 #
face $75 -1 -1 $-1 $76 $77 $16 $-1 $78 forward single T -120 -120 -120 120 -120 120 F #
loop $-1 -1 -1 $-1 $-1 $79 $34 T -120 -120 -120 120 120 -120 unknown #
plane-surface $-1 -1 -1 $-1 0 0 -120 0 0 1 1 0 0 forward_v I I I I #
coedge $-1 -1 -1 $-1 $80 $81 $82 $83 reversed $35 $-1 #
simple-snl-attrib $-1 -1 $-1 $-1 $38 1 1 1 1 1 1 1 1 1 1 1 1 0 1 0 1 1 1 @17 NEW_SIMPLE_ATTRIB 1 @9 ENTITY_ID 0 3 3 -2147483648 -1 #
face $84 -1 -1 $-1 $85 $86 $11 $-1 $87 reversed single T -122.40000000000001 -122.40000000000001 -122.40000000000001 -122.40000000000001 122.40000000000001 122.40000000000001 F #
loop $-1 -1 -1 $-1 $-1 $88 $38 T -122.40000000000001 -122.40000000000001 -122.40000000000001 122.40000000000001 -122.40000000000001 122.40000000000001 unknown #
plane-surface $-1 -1 -1 $-1 0 -122.40000000000001 0 0 1 -0 -0 0 1 forward_v I I I I #
coedge $-1 -1 -1 $-1 $89 $90 $91 $92 forward $39 $-1 #
coedge $-1 -1 -1 $-1 $93 $41 $94 $95 forward $24 $-1 #
coedge $-1 -1 -1 $-1 $41 $93 $96 $97 forward $24 $-1 #
coedge $-1 -1 -1 $-1 $98 $99 $41 $63 reversed $100 $-1 #
edge $101 -1 -1 $-1 $102 -122.40000000000001 $103 122.40000000000001 $62 $104 forward @7 unknown T 122.40000000000001 -122.40000000000001 122.40000000000001 122.40000000000001 122.40000000000001 122.40000000000001 #
simple-snl-attrib $-1 -1 $105 $42 $26 1 1 1 1 1 1 1 1 1 1 1 1 0 1 0 1 1 1 @17 NEW_SIMPLE_ATTRIB 1 @9 ENTITY_ID 0 3 19 -2147483648 -1 #
simple-snl-attrib $-1 -1 $-1 $-1 $45 1 1 1 1 1 1 1 1 1 1 1 1 0 1 0 1 1 1 @17 NEW_SIMPLE_ATTRIB 1 @9 ENTITY_ID 0 3 15 -2147483648 -1 #
face $106 -1 -1 $-1 $107 $108 $13 $-1 $109 reversed single T -120 -120 -120 -120 120 120 F #
loop $-1 -1 -1 $-1 $-1 $110 $45 T -120 -120 -120 120 -120 120 unknown #
plane-surface $-1 -1 -1 $-1 0 -120 0 0 1 -0 -0 0 1 forward_v I I I I #
coedge $-1 -1 -1 $-1 $111 $112 $113 $114 forward $46 $-1 #
coedge $-1 -1 -1 $-1 $115 $48 $116 $117 forward $29 $-1 #
coedge $-1 -1 -1 $-1 $48 $115 $118 $119 forward $29 $-1 #
coedge $-1 -1 -1 $-1 $120 $121 $48 $73 reversed $122 $-1 #
edge $123 -1 -1 $-1 $124 -120 $125 120 $72 $126 forward @7 unknown T 120 -120 120 120 120 120 #
simple-snl-attrib $-1 -1 $-1 $49 $20 1 1 1 1 1 1 1 1 1 1 1 1 0 1 0 1 1 1 @17 NEW_SIMPLE_ATTRIB 1 @13 MERGE_PARTNER 0 4 2069442193 -1 20 0 #
simple-snl-attrib $-1 -1 $-1 $-1 $51 1 1 1 1 1 1 1 1 1 1 1 1 0 1 0 1 1 1 @17 NEW_SIMPLE_ATTRIB 1 @9 ENTITY_ID 0 3 9 -2147483648 -1 #
face $127 -1 -1 $-1 $128 $129 $16 $-1 $130 forward single T -120 -120 -120 -120 120 120 F #
loop $-1 -1 -1 $-1 $-1 $131 $51 T -120 -120 -120 120 -120 120 unknown #
plane-surface $-1 -1 -1 $-1 0 -120 0 0 1 -0 -0 0 1 forward_v I I I I #
coedge $-1 -1 -1 $-1 $132 $133 $134 $135 reversed $52 $-1 #
coedge $-1 -1 -1 $-1 $136 $54 $137 $138 reversed $35 $-1 #
coedge $-1 -1 -1 $-1 $54 $136 $139 $140 reversed $35 $-1 #
coedge $-1 -1 -1 $-1 $141 $142 $54 $83 forward $143 $-1 #
edge $144 -1 -1 $-1 $145 -120 $146 120 $82 $147 forward @7 unknown T 120 -120 120 120 120 120 #
simple-snl-attrib $-1 -1 $-1 $-1 $56 1 1 1 1 1 1 1 1 1 1 1 1 0 1 0 1 1 1 @17 NEW_SIMPLE_ATTRIB 1 @9 ENTITY_ID 0 3 4 -2147483648 -1 #
face $148 -1 -1 $-1 $149 $150 $11 $-1 $151 reversed single T -122.40000000000001 122.40000000000001 -122.40000000000001 122.40000000000001 122.40000000000001 122.40000000000001 F #
loop $-1 -1 -1 $-1 $-1 $152 $56 T -122.40000000000001 -122.40000000000001 -122.40000000000001 -122.40000000000001 122.40000000000001 122.40000000000001 unknown #
plane-surface $-1 -1 -1 $-1 -122.40000000000001 0 0 1 0 0 0 0 -1 forward_v I I I I #
coedge $-1 -1 -1 $-1 $153 $96 $154 $155 forward $57 $-1 #
coedge $-1 -1 -1 $-1 $156 $59 $153 $157 forward $39 $-1 #
coedge $-1 -1 -1 $-1 $59 $156 $158 $159 forward $39 $-1 #
coedge $-1 -1 -1 $-1 $99 $98 $59 $92 reversed $100 $-1 #
edge $160 -1 -1 $-1 $161 -122.40000000000001 $162 122.40000000000001 $91 $163 forward @7 unknown T 122.40000000000001 -122.40000000000001 -122.40000000000001 122.40000000000001 122.40000000000001 -122.40000000000001 #
coedge $-1 -1 -1 $-1 $61 $60 $164 $165 forward $24 $-1 #
coedge $-1 -1 -1 $-1 $166 $167 $60 $95 reversed $150 $-1 #
edge $168 -1 -1 $-1 $103 -122.40000000000001 $169 122.40000000000001 $94 $170 forward @7 unknown T -122.40000000000001 122.40000000000001 122.40000000000001 122.40000000000001 122.40000000000001 122.40000000000001 #
coedge $-1 -1 -1 $-1 $88 $171 $61 $97 reversed $57 $-1 #
edge $172 -1 -1 $-1 $173 -122.40000000000001 $102 122.40000000000001 $96 $174 forward @7 unknown T -122.40000000000001 -122.40000000000001 122.40000000000001 122.40000000000001 -122.40000000000001 122.40000000000001 #
coedge $-1 -1 -1 $-1 $91 $62 $171 $175 forward $100 $-1 #
coedge $-1 -1 -1 $-1 $62 $91 $166 $176 reversed $100 $-1 #
loop $-1 -1 -1 $-1 $-1 $98 $149 T 122.40000000000001 -122.40000000000001 -122.40000000000001 122.40000000000001 122.40000000000001 122.40000000000001 unknown #
simple-snl-attrib $-1 -1 $-1 $-1 $63 1 1 1 1 1 1 1 1 1 1 1 1 0 1 0 1 1 1 @17 NEW_SIMPLE_ATTRIB 1 @9 ENTITY_ID 0 3 37 -2147483648 -1 #
vertex $177 -1 -1 $-1 $63 $178 #
vertex $179 -1 -1 $-1 $63 $180 #
straight-curve $-1 -1 -1 $-1 122.40000000000001 0 122.40000000000001 0 1 0 I I #
simple-snl-attrib $-1 -1 $-1 $64 $26 1 1 1 1 1 1 1 1 1 1 1 1 0 1 0 1 1 1 @17 NEW_SIMPLE_ATTRIB 1 @13 MERGE_PARTNER 0 4 2069442193 1 57 1 #
simple-snl-attrib $-1 -1 $-1 $-1 $66 1 1 1 1 1 1 1 1 1 1 1 1 0 1 0 1 1 1 @17 NEW_SIMPLE_ATTRIB 1 @9 ENTITY_ID 0 3 16 -2147483648 -1 #
face $181 -1 -1 $-1 $182 $183 $13 $-1 $184 reversed single T -120 120 -120 120 120 120 F #
loop $-1 -1 -1 $-1 $-1 $185 $66 T -120 -120 -120 -120 120 120 unknown #
plane-surface $-1 -1 -1 $-1 -120 0 0 1 0 0 0 0 -1 forward_v I I I I #
coedge $-1 -1 -1 $-1 $186 $118 $187 $188 forward $67 $-1 #
coedge $-1 -1 -1 $-1 $189 $69 $186 $190 forward $46 $-1 #
coedge $-1 -1 -1 $-1 $69 $189 $191 $192 forward $46 $-1 #
coedge $-1 -1 -1 $-1 $121 $120 $69 $114 reversed $122 $-1 #
edge $193 -1 -1 $-1 $194 -120 $195 120 $113 $196 forward @7 unknown T 120 -120 -120 120 120 -120 #
coedge $-1 -1 -1 $-1 $71 $70 $197 $198 forward $29 $-1 #
coedge $-1 -1 -1 $-1 $199 $200 $70 $117 reversed $183 $-1 #
edge $201 -1 -1 $-1 $125 -120 $202 120 $116 $203 forward @7 unknown T -120 120 120 120 120 120 #
coedge $-1 -1 -1 $-1 $110 $204 $71 $119 reversed $67 $-1 #
edge $205 -1 -1 $-1 $206 -120 $124 120 $118 $207 forward @7 unknown T -120 -120 120 120 -120 120 #
coedge $-1 -1 -1 $-1 $113 $72 $204 $208 forward $122 $-1 #
coedge $-1 -1 -1 $-1 $72 $113 $199 $209 reversed $122 $-1 #
loop $-1 -1 -1 $-1 $-1 $120 $182 T 120 -120 -120 120 120 120 unknown #
simple-snl-attrib $-1 -1 $-1 $-1 $73 1 1 1 1 1 1 1 1 1 1 1 1 0 1 0 1 1 1 @17 NEW_SIMPLE_ATTRIB 1 @9 ENTITY_ID 0 3 85 -2147483648 -1 #
vertex $210 -1 -1 $-1 $73 $211 #
vertex $212 -1 -1 $-1 $73 $213 #
straight-curve $-1 -1 -1 $-1 120 0 120 0 1 0 I I #
simple-snl-attrib $-1 -1 $-1 $-1 $76 1 1 1 1 1 1 1 1 1 1 1 1 0 1 0 1 1 1 @17 NEW_SIMPLE_ATTRIB 1 @9 ENTITY_ID 0 3 10 -2147483648 -1 #
face $214 -1 -1 $-1 $215 $216 $16 $-1 $217 forward single T -120 120 -120 120 120 120 F #
loop $-1 -1 -1 $-1 $-1 $218 $76 T -120 -120 -120 -120 120 120 unknown #
plane-surface $-1 -1 -1 $-1 -120 0 0 1 0 0 0 0 -1 forward_v I I I I #
coedge $-1 -1 -1 $-1 $137 $219 $220 $221 reversed $77 $-1 #
coedge $-1 -1 -1 $-1 $222 $79 $223 $224 reversed $52 $-1 #
coedge $-1 -1 -1 $-1 $79 $222 $219 $225 reversed $52 $-1 #
coedge $-1 -1 -1 $-1 $142 $141 $79 $135 forward $143 $-1 #
edge $226 -1 -1 $-1 $227 -120 $228 120 $134 $229 forward @7 unknown T 120 -120 -120 120 120 -120 #
coedge $-1 -1 -1 $-1 $81 $80 $230 $231 reversed $35 $-1 #
coedge $-1 -1 -1 $-1 $232 $131 $80 $138 forward $77 $-1 #
edge $233 -1 -1 $-1 $234 -120 $145 120 $137 $235 forward @7 unknown T -120 -120 120 120 -120 120 #
coedge $-1 -1 -1 $-1 $236 $237 $81 $140 forward $216 $-1 #
edge $238 -1 -1 $-1 $146 -120 $239 120 $139 $240 forward @7 unknown T -120 120 120 120 120 120 #
coedge $-1 -1 -1 $-1 $134 $82 $237 $241 forward $143 $-1 #
coedge $-1 -1 -1 $-1 $82 $134 $232 $242 reversed $143 $-1 #
loop $-1 -1 -1 $-1 $-1 $142 $215 T 120 -120 -120 120 120 120 unknown #
simple-snl-attrib $-1 -1 $-1 $-1 $83 1 1 1 1 1 1 1 1 1 1 1 1 0 1 0 1 1 1 @17 NEW_SIMPLE_ATTRIB 1 @9 ENTITY_ID 0 3 61 -2147483648 -1 #
vertex $243 -1 -1 $-1 $83 $244 #
vertex $245 -1 -1 $-1 $83 $246 #
straight-curve $-1 -1 -1 $-1 120 0 120 0 1 0 I I #
simple-snl-attrib $-1 -1 $-1 $-1 $85 1 1 1 1 1 1 1 1 1 1 1 1 0 1 0 1 1 1 @17 NEW_SIMPLE_ATTRIB 1 @9 ENTITY_ID 0 3 5 -2147483648 -1 #
face $247 -1 -1 $-1 $-1 $100 $11 $-1 $248 reversed single T 122.40000000000001 -122.40000000000001 -122.40000000000001 122.40000000000001 122.40000000000001 122.40000000000001 F #
loop $-1 -1 -1 $-1 $-1 $166 $85 T -122.40000000000001 122.40000000000001 -122.40000000000001 122.40000000000001 122.40000000000001 122.40000000000001 unknown #
plane-surface $-1 -1 -1 $-1 0 122.40000000000001 0 0 -1 0 0 0 -1 forward_v I I I I #
coedge $-1 -1 -1 $-1 $249 $164 $167 $250 forward $86 $-1 #
coedge $-1 -1 -1 $-1 $171 $88 $89 $157 reversed $57 $-1 #
coedge $-1 -1 -1 $-1 $164 $249 $88 $155 reversed $86 $-1 #
edge $251 -1 -1 $-1 $173 -122.40000000000001 $252 122.40000000000001 $154 $253 forward @7 unknown T -122.40000000000001 -122.40000000000001 -122.40000000000001 -122.40000000000001 -122.40000000000001 122.40000000000001 #
coedge $-1 -1 -1 $-1 $90 $89 $249 $254 forward $39 $-1 #
edge $255 -1 -1 $-1 $162 -122.40000000000001 $252 122.40000000000001 $153 $256 forward @7 unknown T -122.40000000000001 -122.40000000000001 -122.40000000000001 122.40000000000001 -122.40000000000001 -122.40000000000001 #
coedge $-1 -1 -1 $-1 $167 $166 $90 $159 reversed $150 $-1 #
edge $257 -1 -1 $-1 $258 -122.40000000000001 $161 122.40000000000001 $158 $259 forward @7 unknown T -122.40000000000001 122.40000000000001 -122.40000000000001 122.40000000000001 122.40000000000001 -122.40000000000001 #
simple-snl-attrib $-1 -1 $-1 $-1 $92 1 1 1 1 1 1 1 1 1 1 1 1 0 1 0 1 1 1 @17 NEW_SIMPLE_ATTRIB 1 @9 ENTITY_ID 0 3 41 -2147483648 -1 #
vertex $260 -1 -1 $-1 $92 $261 #
vertex $262 -1 -1 $-1 $175 $263 #
straight-curve $-1 -1 -1 $-1 122.40000000000001 0 -122.40000000000001 0 -1 0 I I #
coedge $-1 -1 -1 $-1 $152 $154 $93 $165 reversed $86 $-1 #
edge $264 -1 -1 $-1 $169 -122.40000000000001 $173 122.40000000000001 $164 $265 forward @7 unknown T -122.40000000000001 -122.40000000000001 122.40000000000001 -122.40000000000001 122.40000000000001 122.40000000000001 #
coedge $-1 -1 -1 $-1 $158 $94 $99 $176 forward $150 $-1 #
coedge $-1 -1 -1 $-1 $94 $158 $152 $250 reversed $150 $-1 #
simple-snl-attrib $-1 -1 $-1 $-1 $95 1 1 1 1 1 1 1 1 1 1 1 1 0 1 0 1 1 1 @17 NEW_SIMPLE_ATTRIB 1 @9 ENTITY_ID 0 3 38 -2147483648 -1 #
vertex $266 -1 -1 $-1 $95 $267 #
straight-curve $-1 -1 -1 $-1 0 122.40000000000001 122.40000000000001 -1 0 0 I I #
coedge $-1 -1 -1 $-1 $96 $153 $98 $175 reversed $57 $-1 #
simple-snl-attrib $-1 -1 $-1 $-1 $97 1 1 1 1 1 1 1 1 1 1 1 1 0 1 0 1 1 1 @17 NEW_SIMPLE_ATTRIB 1 @9 ENTITY_ID 0 3 40 -2147483648 -1 #
vertex $268 -1 -1 $-1 $165 $269 #
straight-curve $-1 -1 -1 $-1 0 -122.40000000000001 122.40000000000001 1 0 0 I I #
edge $270 -1 -1 $-1 $102 -122.40000000000001 $162 122.40000000000001 $98 $271 forward @7 unknown T 122.40000000000001 -122.40000000000001 -122.40000000000001 122.40000000000001 -122.40000000000001 122.40000000000001 #
edge $272 -1 -1 $-1 $103 -122.40000000000001 $161 122.40000000000001 $99 $273 forward @7 unknown T 122.40000000000001 122.40000000000001 -122.40000000000001 122.40000000000001 122.40000000000001 122.40000000000001 #
simple-snl-attrib $-1 -1 $-1 $-1 $102 1 1 1 1 1 1 1 1 1 1 1 1 0 1 0 1 1 1 @17 NEW_SIMPLE_ATTRIB 1 @9 ENTITY_ID 0 3 25 -2147483648 -1 #
point $-1 -1 -1 $-1 122.40000000000001 -122.40000000000001 122.40000000000001 #
simple-snl-attrib $-1 -1 $-1 $-1 $103 1 1 1 1 1 1 1 1 1 1 1 1 0 1 0 1 1 1 @17 NEW_SIMPLE_ATTRIB 1 @9 ENTITY_ID 0 3 26 -2147483648 -1 #
point $-1 -1 -1 $-1 122.40000000000001 122.40000000000001 122.40000000000001 #
simple-snl-attrib $-1 -1 $-1 $-1 $107 1 1 1 1 1 1 1 1 1 1 1 1 0 1 0 1 1 1 @17 NEW_SIMPLE_ATTRIB 1 @9 ENTITY_ID 0 3 17 -2147483648 -1 #
face $274 -1 -1 $-1 $-1 $122 $13 $-1 $275 reversed single T 120 -120 -120 120 120 120 F #
loop $-1 -1 -1 $-1 $-1 $199 $107 T -120 120 -120 120 120 120 unknown #
plane-surface $-1 -1 -1 $-1 0 120 0 0 -1 0 0 0 -1 forward_v I I I I #
coedge $-1 -1 -1 $-1 $276 $197 $200 $277 forward $108 $-1 #
coedge $-1 -1 -1 $-1 $204 $110 $111 $190 reversed $67 $-1 #
coedge $-1 -1 -1 $-1 $197 $276 $110 $188 reversed $108 $-1 #
edge $278 -1 -1 $-1 $206 -120 $279 120 $187 $280 forward @7 unknown T -120 -120 -120 -120 -120 120 #
coedge $-1 -1 -1 $-1 $112 $111 $276 $281 forward $46 $-1 #
edge $282 -1 -1 $-1 $195 -120 $279 120 $186 $283 forward @7 unknown T -120 -120 -120 120 -120 -120 #
coedge $-1 -1 -1 $-1 $200 $199 $112 $192 reversed $183 $-1 #
edge $284 -1 -1 $-1 $285 -120 $194 120 $191 $286 forward @7 unknown T -120 120 -120 120 120 -120 #
simple-snl-attrib $-1 -1 $-1 $-1 $114 1 1 1 1 1 1 1 1 1 1 1 1 0 1 0 1 1 1 @17 NEW_SIMPLE_ATTRIB 1 @9 ENTITY_ID 0 3 89 -2147483648 -1 #
vertex $287 -1 -1 $-1 $114 $288 #
vertex $289 -1 -1 $-1 $208 $290 #
straight-curve $-1 -1 -1 $-1 120 0 -120 0 -1 0 I I #
coedge $-1 -1 -1 $-1 $185 $187 $115 $198 reversed $108 $-1 #
edge $291 -1 -1 $-1 $202 -120 $206 120 $197 $292 forward @7 unknown T -120 -120 120 -120 120 120 #
coedge $-1 -1 -1 $-1 $191 $116 $121 $209 forward $183 $-1 #
coedge $-1 -1 -1 $-1 $116 $191 $185 $277 reversed $183 $-1 #
simple-snl-attrib $-1 -1 $-1 $-1 $117 1 1 1 1 1 1 1 1 1 1 1 1 0 1 0 1 1 1 @17 NEW_SIMPLE_ATTRIB 1 @9 ENTITY_ID 0 3 86 -2147483648 -1 #
vertex $293 -1 -1 $-1 $117 $294 #
straight-curve $-1 -1 -1 $-1 0 120 120 -1 0 0 I I #
coedge $-1 -1 -1 $-1 $118 $186 $120 $208 reversed $67 $-1 #
simple-snl-attrib $-1 -1 $-1 $-1 $119 1 1 1 1 1 1 1 1 1 1 1 1 0 1 0 1 1 1 @17 NEW_SIMPLE_ATTRIB 1 @9 ENTITY_ID 0 3 88 -2147483648 -1 #
vertex $295 -1 -1 $-1 $198 $296 #
straight-curve $-1 -1 -1 $-1 0 -120 120 1 0 0 I I #
edge $297 -1 -1 $-1 $124 -120 $195 120 $120 $298 forward @7 unknown T 120 -120 -120 120 -120 120 #
edge $299 -1 -1 $-1 $125 -120 $194 120 $121 $300 forward @7 unknown T 120 120 -120 120 120 120 #
simple-snl-attrib $-1 -1 $-1 $-1 $124 1 1 1 1 1 1 1 1 1 1 1 1 0 1 0 1 1 1 @17 NEW_SIMPLE_ATTRIB 1 @9 ENTITY_ID 0 3 57 -2147483648 -1 #
point $-1 -1 -1 $-1 120 -120 120 #
simple-snl-attrib $-1 -1 $-1 $-1 $125 1 1 1 1 1 1 1 1 1 1 1 1 0 1 0 1 1 1 @17 NEW_SIMPLE_ATTRIB 1 @9 ENTITY_ID 0 3 58 -2147483648 -1 #
point $-1 -1 -1 $-1 120 120 120 #
simple-snl-attrib $-1 -1 $-1 $-1 $128 1 1 1 1 1 1 1 1 1 1 1 1 0 1 0 1 1 1 @17 NEW_SIMPLE_ATTRIB 1 @9 ENTITY_ID 0 3 11 -2147483648 -1 #
face $301 -1 -1 $-1 $-1 $143 $16 $-1 $302 forward single T 120 -120 -120 120 120 120 F #
loop $-1 -1 -1 $-1 $-1 $237 $128 T -120 120 -120 120 120 120 unknown #
plane-surface $-1 -1 -1 $-1 0 120 0 0 -1 0 0 0 -1 forward_v I I I I #
coedge $-1 -1 -1 $-1 $230 $303 $236 $304 reversed $129 $-1 #
coedge $-1 -1 -1 $-1 $131 $232 $133 $225 forward $77 $-1 #
coedge $-1 -1 -1 $-1 $303 $230 $131 $221 forward $129 $-1 #
edge $305 -1 -1 $-1 $234 -120 $306 120 $220 $307 forward @7 unknown T -120 -120 -120 -120 -120 120 #
coedge $-1 -1 -1 $-1 $133 $132 $303 $308 reversed $52 $-1 #
coedge $-1 -1 -1 $-1 $237 $236 $132 $224 forward $216 $-1 #
edge $309 -1 -1 $-1 $310 -120 $227 120 $223 $311 forward @7 unknown T -120 120 -120 120 120 -120 #
edge $312 -1 -1 $-1 $228 -120 $306 120 $219 $313 forward @7 unknown T -120 -120 -120 120 -120 -120 #
simple-snl-attrib $-1 -1 $-1 $-1 $135 1 1 1 1 1 1 1 1 1 1 1 1 0 1 0 1 1 1 @17 NEW_SIMPLE_ATTRIB 1 @9 ENTITY_ID 0 3 65 -2147483648 -1 #
vertex $314 -1 -1 $-1 $135 $315 #
vertex $316 -1 -1 $-1 $242 $317 #
straight-curve $-1 -1 -1 $-1 120 0 -120 0 -1 0 I I #
coedge $-1 -1 -1 $-1 $220 $218 $136 $231 forward $129 $-1 #
edge $318 -1 -1 $-1 $239 -120 $234 120 $230 $319 forward @7 unknown T -120 -120 120 -120 120 120 #
coedge $-1 -1 -1 $-1 $219 $137 $142 $242 forward $77 $-1 #
simple-snl-attrib $-1 -1 $-1 $-1 $138 1 1 1 1 1 1 1 1 1 1 1 1 0 1 0 1 1 1 @17 NEW_SIMPLE_ATTRIB 1 @9 ENTITY_ID 0 3 62 -2147483648 -1 #
vertex $320 -1 -1 $-1 $231 $321 #
straight-curve $-1 -1 -1 $-1 0 -120 120 1 0 0 I I #
coedge $-1 -1 -1 $-1 $223 $139 $218 $304 forward $216 $-1 #
coedge $-1 -1 -1 $-1 $139 $223 $141 $241 reversed $216 $-1 #
simple-snl-attrib $-1 -1 $-1 $-1 $140 1 1 1 1 1 1 1 1 1 1 1 1 0 1 0 1 1 1 @17 NEW_SIMPLE_ATTRIB 1 @9 ENTITY_ID 0 3 64 -2147483648 -1 #
vertex $322 -1 -1 $-1 $140 $323 #
straight-curve $-1 -1 -1 $-1 0 120 120 -1 0 0 I I #
edge $324 -1 -1 $-1 $146 -120 $227 120 $141 $325 forward @7 unknown T 120 120 -120 120 120 120 #
edge $326 -1 -1 $-1 $145 -120 $228 120 $142 $327 forward @7 unknown T 120 -120 -120 120 -120 120 #
simple-snl-attrib $-1 -1 $-1 $-1 $145 1 1 1 1 1 1 1 1 1 1 1 1 0 1 0 1 1 1 @17 NEW_SIMPLE_ATTRIB 1 @9 ENTITY_ID 0 3 41 -2147483648 -1 #
point $-1 -1 -1 $-1 120 -120 120 #
simple-snl-attrib $-1 -1 $-1 $-1 $146 1 1 1 1 1 1 1 1 1 1 1 1 0 1 0 1 1 1 @17 NEW_SIMPLE_ATTRIB 1 @9 ENTITY_ID 0 3 42 -2147483648 -1 #
point $-1 -1 -1 $-1 120 120 120 #
simple-snl-attrib $-1 -1 $-1 $-1 $149 1 1 1 1 1 1 1 1 1 1 1 1 0 1 0 1 1 1 @17 NEW_SIMPLE_ATTRIB 1 @9 ENTITY_ID 0 3 6 -2147483648 -1 #
plane-surface $-1 -1 -1 $-1 122.40000000000001 0 0 -1 0 0 0 -0 1 forward_v I I I I #
coedge $-1 -1 -1 $-1 $154 $152 $156 $254 reversed $86 $-1 #
edge $328 -1 -1 $-1 $169 -122.40000000000001 $258 122.40000000000001 $167 $329 forward @7 unknown T -122.40000000000001 122.40000000000001 -122.40000000000001 -122.40000000000001 122.40000000000001 122.40000000000001 #
simple-snl-attrib $-1 -1 $-1 $-1 $155 1 1 1 1 1 1 1 1 1 1 1 1 0 1 0 1 1 1 @17 NEW_SIMPLE_ATTRIB 1 @9 ENTITY_ID 0 3 45 -2147483648 -1 #
vertex $330 -1 -1 $-1 $254 $331 #
straight-curve $-1 -1 -1 $-1 -122.40000000000001 -122.40000000000001 0 0 0 -1 I I #
edge $332 -1 -1 $-1 $252 -122.40000000000001 $258 122.40000000000001 $249 $333 forward @7 unknown T -122.40000000000001 -122.40000000000001 -122.40000000000001 -122.40000000000001 122.40000000000001 -122.40000000000001 #
simple-snl-attrib $-1 -1 $-1 $-1 $157 1 1 1 1 1 1 1 1 1 1 1 1 0 1 0 1 1 1 @17 NEW_SIMPLE_ATTRIB 1 @9 ENTITY_ID 0 3 42 -2147483648 -1 #
straight-curve $-1 -1 -1 $-1 0 -122.40000000000001 -122.40000000000001 -1 0 0 I I #
simple-snl-attrib $-1 -1 $-1 $-1 $159 1 1 1 1 1 1 1 1 1 1 1 1 0 1 0 1 1 1 @17 NEW_SIMPLE_ATTRIB 1 @9 ENTITY_ID 0 3 44 -2147483648 -1 #
vertex $334 -1 -1 $-1 $159 $335 #
straight-curve $-1 -1 -1 $-1 0 122.40000000000001 -122.40000000000001 1 0 0 I I #
simple-snl-attrib $-1 -1 $-1 $-1 $161 1 1 1 1 1 1 1 1 1 1 1 1 0 1 0 1 1 1 @17 NEW_SIMPLE_ATTRIB 1 @9 ENTITY_ID 0 3 29 -2147483648 -1 #
point $-1 -1 -1 $-1 122.40000000000001 122.40000000000001 -122.40000000000001 #
simple-snl-attrib $-1 -1 $-1 $-1 $162 1 1 1 1 1 1 1 1 1 1 1 1 0 1 0 1 1 1 @17 NEW_SIMPLE_ATTRIB 1 @9 ENTITY_ID 0 3 30 -2147483648 -1 #
point $-1 -1 -1 $-1 122.40000000000001 -122.40000000000001 -122.40000000000001 #
simple-snl-attrib $-1 -1 $-1 $-1 $165 1 1 1 1 1 1 1 1 1 1 1 1 0 1 0 1 1 1 @17 NEW_SIMPLE_ATTRIB 1 @9 ENTITY_ID 0 3 39 -2147483648 -1 #
straight-curve $-1 -1 -1 $-1 -122.40000000000001 0 122.40000000000001 0 -1 0 I I #
simple-snl-attrib $-1 -1 $-1 $-1 $169 1 1 1 1 1 1 1 1 1 1 1 1 0 1 0 1 1 1 @17 NEW_SIMPLE_ATTRIB 1 @9 ENTITY_ID 0 3 27 -2147483648 -1 #
point $-1 -1 -1 $-1 -122.40000000000001 122.40000000000001 122.40000000000001 #
simple-snl-attrib $-1 -1 $-1 $-1 $173 1 1 1 1 1 1 1 1 1 1 1 1 0 1 0 1 1 1 @17 NEW_SIMPLE_ATTRIB 1 @9 ENTITY_ID 0 3 28 -2147483648 -1 #
point $-1 -1 -1 $-1 -122.40000000000001 -122.40000000000001 122.40000000000001 #
simple-snl-attrib $-1 -1 $-1 $-1 $175 1 1 1 1 1 1 1 1 1 1 1 1 0 1 0 1 1 1 @17 NEW_SIMPLE_ATTRIB 1 @9 ENTITY_ID 0 3 46 -2147483648 -1 #
straight-curve $-1 -1 -1 $-1 122.40000000000001 -122.40000000000001 0 0 0 -1 I I #
simple-snl-attrib $-1 -1 $-1 $-1 $176 1 1 1 1 1 1 1 1 1 1 1 1 0 1 0 1 1 1 @17 NEW_SIMPLE_ATTRIB 1 @9 ENTITY_ID 0 3 48 -2147483648 -1 #
straight-curve $-1 -1 -1 $-1 122.40000000000001 122.40000000000001 0 0 0 -1 I I #
simple-snl-attrib $-1 -1 $-1 $-1 $182 1 1 1 1 1 1 1 1 1 1 1 1 0 1 0 1 1 1 @17 NEW_SIMPLE_ATTRIB 1 @9 ENTITY_ID 0 3 18 -2147483648 -1 #
plane-surface $-1 -1 -1 $-1 120 0 0 -1 0 0 0 -0 1 forward_v I I I I #
coedge $-1 -1 -1 $-1 $187 $185 $189 $281 reversed $108 $-1 #
edge $336 -1 -1 $-1 $202 -120 $285 120 $200 $337 forward @7 unknown T -120 120 -120 -120 120 120 #
simple-snl-attrib $-1 -1 $-1 $-1 $188 1 1 1 1 1 1 1 1 1 1 1 1 0 1 0 1 1 1 @17 NEW_SIMPLE_ATTRIB 1 @9 ENTITY_ID 0 3 93 -2147483648 -1 #
vertex $338 -1 -1 $-1 $281 $339 #
straight-curve $-1 -1 -1 $-1 -120 -120 0 0 0 -1 I I #
edge $340 -1 -1 $-1 $279 -120 $285 120 $276 $341 forward @7 unknown T -120 -120 -120 -120 120 -120 #
simple-snl-attrib $-1 -1 $-1 $-1 $190 1 1 1 1 1 1 1 1 1 1 1 1 0 1 0 1 1 1 @17 NEW_SIMPLE_ATTRIB 1 @9 ENTITY_ID 0 3 90 -2147483648 -1 #
straight-curve $-1 -1 -1 $-1 0 -120 -120 -1 0 0 I I #
simple-snl-attrib $-1 -1 $-1 $-1 $192 1 1 1 1 1 1 1 1 1 1 1 1 0 1 0 1 1 1 @17 NEW_SIMPLE_ATTRIB 1 @9 ENTITY_ID 0 3 92 -2147483648 -1 #
vertex $342 -1 -1 $-1 $192 $343 #
straight-curve $-1 -1 -1 $-1 0 120 -120 1 0 0 I I #
simple-snl-attrib $-1 -1 $-1 $-1 $194 1 1 1 1 1 1 1 1 1 1 1 1 0 1 0 1 1 1 @17 NEW_SIMPLE_ATTRIB 1 @9 ENTITY_ID 0 3 61 -2147483648 -1 #
point $-1 -1 -1 $-1 120 120 -120 #
simple-snl-attrib $-1 -1 $-1 $-1 $195 1 1 1 1 1 1 1 1 1 1 1 1 0 1 0 1 1 1 @17 NEW_SIMPLE_ATTRIB 1 @9 ENTITY_ID 0 3 62 -2147483648 -1 #
point $-1 -1 -1 $-1 120 -120 -120 #
simple-snl-attrib $-1 -1 $-1 $-1 $198 1 1 1 1 1 1 1 1 1 1 1 1 0 1 0 1 1 1 @17 NEW_SIMPLE_ATTRIB 1 @9 ENTITY_ID 0 3 87 -2147483648 -1 #
straight-curve $-1 -1 -1 $-1 -120 0 120 0 -1 0 I I #
simple-snl-attrib $-1 -1 $-1 $-1 $202 1 1 1 1 1 1 1 1 1 1 1 1 0 1 0 1 1 1 @17 NEW_SIMPLE_ATTRIB 1 @9 ENTITY_ID 0 3 59 -2147483648 -1 #
point $-1 -1 -1 $-1 -120 120 120 #
simple-snl-attrib $-1 -1 $-1 $-1 $206 1 1 1 1 1 1 1 1 1 1 1 1 0 1 0 1 1 1 @17 NEW_SIMPLE_ATTRIB 1 @9 ENTITY_ID 0 3 60 -2147483648 -1 #
point $-1 -1 -1 $-1 -120 -120 120 #
simple-snl-attrib $-1 -1 $-1 $-1 $208 1 1 1 1 1 1 1 1 1 1 1 1 0 1 0 1 1 1 @17 NEW_SIMPLE_ATTRIB 1 @9 ENTITY_ID 0 3 94 -2147483648 -1 #
straight-curve $-1 -1 -1 $-1 120 -120 0 0 0 -1 I I #
simple-snl-attrib $-1 -1 $-1 $-1 $209 1 1 1 1 1 1 1 1 1 1 1 1 0 1 0 1 1 1 @17 NEW_SIMPLE_ATTRIB 1 @9 ENTITY_ID 0 3 96 -2147483648 -1 #
straight-curve $-1 -1 -1 $-1 120 120 0 0 0 -1 I I #
simple-snl-attrib $-1 -1 $-1 $-1 $215 1 1 1 1 1 1 1 1 1 1 1 1 0 1 0 1 1 1 @17 NEW_SIMPLE_ATTRIB 1 @9 ENTITY_ID 0 3 12 -2147483648 -1 #
plane-surface $-1 -1 -1 $-1 120 0 0 -1 0 0 0 -0 1 forward_v I I I I #
coedge $-1 -1 -1 $-1 $218 $220 $222 $308 forward $129 $-1 #
edge $344 -1 -1 $-1 $239 -120 $310 120 $236 $345 forward @7 unknown T -120 120 -120 -120 120 120 #
simple-snl-attrib $-1 -1 $-1 $-1 $221 1 1 1 1 1 1 1 1 1 1 1 1 0 1 0 1 1 1 @17 NEW_SIMPLE_ATTRIB 1 @9 ENTITY_ID 0 3 69 -2147483648 -1 #
vertex $346 -1 -1 $-1 $308 $347 #
straight-curve $-1 -1 -1 $-1 -120 -120 0 0 0 -1 I I #
edge $348 -1 -1 $-1 $306 -120 $310 120 $303 $349 forward @7 unknown T -120 -120 -120 -120 120 -120 #
simple-snl-attrib $-1 -1 $-1 $-1 $224 1 1 1 1 1 1 1 1 1 1 1 1 0 1 0 1 1 1 @17 NEW_SIMPLE_ATTRIB 1 @9 ENTITY_ID 0 3 66 -2147483648 -1 #
vertex $350 -1 -1 $-1 $224 $351 #
straight-curve $-1 -1 -1 $-1 0 120 -120 1 0 0 I I #
simple-snl-attrib $-1 -1 $-1 $-1 $225 1 1 1 1 1 1 1 1 1 1 1 1 0 1 0 1 1 1 @17 NEW_SIMPLE_ATTRIB 1 @9 ENTITY_ID 0 3 68 -2147483648 -1 #
straight-curve $-1 -1 -1 $-1 0 -120 -120 -1 0 0 I I #
simple-snl-attrib $-1 -1 $-1 $-1 $227 1 1 1 1 1 1 1 1 1 1 1 1 0 1 0 1 1 1 @17 NEW_SIMPLE_ATTRIB 1 @9 ENTITY_ID 0 3 45 -2147483648 -1 #
point $-1 -1 -1 $-1 120 120 -120 #
simple-snl-attrib $-1 -1 $-1 $-1 $228 1 1 1 1 1 1 1 1 1 1 1 1 0 1 0 1 1 1 @17 NEW_SIMPLE_ATTRIB 1 @9 ENTITY_ID 0 3 46 -2147483648 -1 #
point $-1 -1 -1 $-1 120 -120 -120 #
simple-snl-attrib $-1 -1 $-1 $-1 $231 1 1 1 1 1 1 1 1 1 1 1 1 0 1 0 1 1 1 @17 NEW_SIMPLE_ATTRIB 1 @9 ENTITY_ID 0 3 63 -2147483648 -1 #
straight-curve $-1 -1 -1 $-1 -120 0 120 0 -1 0 I I #
simple-snl-attrib $-1 -1 $-1 $-1 $234 1 1 1 1 1 1 1 1 1 1 1 1 0 1 0 1 1 1 @17 NEW_SIMPLE_ATTRIB 1 @9 ENTITY_ID 0 3 43 -2147483648 -1 #
point $-1 -1 -1 $-1 -120 -120 120 #
simple-snl-attrib $-1 -1 $-1 $-1 $239 1 1 1 1 1 1 1 1 1 1 1 1 0 1 0 1 1 1 @17 NEW_SIMPLE_ATTRIB 1 @9 ENTITY_ID 0 3 44 -2147483648 -1 #
point $-1 -1 -1 $-1 -120 120 120 #
simple-snl-attrib $-1 -1 $-1 $-1 $241 1 1 1 1 1 1 1 1 1 1 1 1 0 1 0 1 1 1 @17 NEW_SIMPLE_ATTRIB 1 @9 ENTITY_ID 0 3 72 -2147483648 -1 #
straight-curve $-1 -1 -1 $-1 120 120 0 0 0 -1 I I #
simple-snl-attrib $-1 -1 $-1 $-1 $242 1 1 1 1 1 1 1 1 1 1 1 1 0 1 0 1 1 1 @17 NEW_SIMPLE_ATTRIB 1 @9 ENTITY_ID 0 3 70 -2147483648 -1 #
straight-curve $-1 -1 -1 $-1 120 -120 0 0 0 -1 I I #
simple-snl-attrib $-1 -1 $-1 $-1 $250 1 1 1 1 1 1 1 1 1 1 1 1 0 1 0 1 1 1 @17 NEW_SIMPLE_ATTRIB 1 @9 ENTITY_ID 0 3 47 -2147483648 -1 #
straight-curve $-1 -1 -1 $-1 -122.40000000000001 122.40000000000001 0 0 0 -1 I I #
simple-snl-attrib $-1 -1 $-1 $-1 $252 1 1 1 1 1 1 1 1 1 1 1 1 0 1 0 1 1 1 @17 NEW_SIMPLE_ATTRIB 1 @9 ENTITY_ID 0 3 31 -2147483648 -1 #
point $-1 -1 -1 $-1 -122.40000000000001 -122.40000000000001 -122.40000000000001 #
simple-snl-attrib $-1 -1 $-1 $-1 $254 1 1 1 1 1 1 1 1 1 1 1 1 0 1 0 1 1 1 @17 NEW_SIMPLE_ATTRIB 1 @9 ENTITY_ID 0 3 43 -2147483648 -1 #
straight-curve $-1 -1 -1 $-1 -122.40000000000001 0 -122.40000000000001 0 1 0 I I #
simple-snl-attrib $-1 -1 $-1 $-1 $258 1 1 1 1 1 1 1 1 1 1 1 1 0 1 0 1 1 1 @17 NEW_SIMPLE_ATTRIB 1 @9 ENTITY_ID 0 3 32 -2147483648 -1 #
point $-1 -1 -1 $-1 -122.40000000000001 122.40000000000001 -122.40000000000001 #
simple-snl-attrib $-1 -1 $-1 $-1 $277 1 1 1 1 1 1 1 1 1 1 1 1 0 1 0 1 1 1 @17 NEW_SIMPLE_ATTRIB 1 @9 ENTITY_ID 0 3 95 -2147483648 -1 #
straight-curve $-1 -1 -1 $-1 -120 120 0 0 0 -1 I I #
simple-snl-attrib $-1 -1 $-1 $-1 $279 1 1 1 1 1 1 1 1 1 1 1 1 0 1 0 1 1 1 @17 NEW_SIMPLE_ATTRIB 1 @9 ENTITY_ID 0 3 63 -2147483648 -1 #
point $-1 -1 -1 $-1 -120 -120 -120 #
simple-snl-attrib $-1 -1 $-1 $-1 $281 1 1 1 1 1 1 1 1 1 1 1 1 0 1 0 1 1 1 @17 NEW_SIMPLE_ATTRIB 1 @9 ENTITY_ID 0 3 91 -2147483648 -1 #
straight-curve $-1 -1 -1 $-1 -120 0 -120 0 1 0 I I #
simple-snl-attrib $-1 -1 $-1 $-1 $285 1 1 1 1 1 1 1 1 1 1 1 1 0 1 0 1 1 1 @17 NEW_SIMPLE_ATTRIB 1 @9 ENTITY_ID 0 3 64 -2147483648 -1 #
point $-1 -1 -1 $-1 -120 120 -120 #
simple-snl-attrib $-1 -1 $-1 $-1 $304 1 1 1 1 1 1 1 1 1 1 1 1 0 1 0 1 1 1 @17 NEW_SIMPLE_ATTRIB 1 @9 ENTITY_ID 0 3 71 -2147483648 -1 #
straight-curve $-1 -1 -1 $-1 -120 120 0 0 0 -1 I I #
simple-snl-attrib $-1 -1 $-1 $-1 $306 1 1 1 1 1 1 1 1 1 1 1 1 0 1 0 1 1 1 @17 NEW_SIMPLE_ATTRIB 1 @9 ENTITY_ID 0 3 48 -2147483648 -1 #
point $-1 -1 -1 $-1 -120 -120 -120 #
simple-snl-attrib $-1 -1 $-1 $-1 $308 1 1 1 1 1 1 1 1 1 1 1 1 0 1 0 1 1 1 @17 NEW_SIMPLE_ATTRIB 1 @9 ENTITY_ID 0 3 67 -2147483648 -1 #
straight-curve $-1 -1 -1 $-1 -120 0 -120 0 1 0 I I #
simple-snl-attrib $-1 -1 $-1 $-1 $310 1 1 1 1 1 1 1 1 1 1 1 1 0 1 0 1 1 1 @17 NEW_SIMPLE_ATTRIB 1 @9 ENTITY_ID 0 3 47 -2147483648 -1 #
point $-1 -1 -1 $-1 -120 120 -120 #
End-of-ACIS-data 