1600 0 2 0           
10 Cubit 12.2 17 ACIS 19.0.2 Linux 24 Fri May  6 14:00:09 2011 
1 9.9999999999999995e-07 1e-10 
body $2 -1 -1 $-1 $3 $-1 $4 T -6.9402056679999999 -6.9402056679999999 0 6.9402056679999999 6.9402056679999999 1000000000000 #
body $5 -1 -1 $-1 $6 $-1 $7 T -7.5 -7.5 -500000000 7.5 7.5 1000500000000 #
integer_attrib-name_attrib-gen-attrib $-1 -1 $8 $-1 $0 2 1 1 1 1 1 1 1 1 1 1 1 1 1 0 1 1 1 @8 CUBIT_ID 1 #
lump $9 -1 -1 $-1 $-1 $10 $0 T -6.9402056679999999 -6.9402056679999999 0 6.9402056679999999 6.9402056679999999 1000000000000 #
transform $-1 -1 1 0 0 0 1 0 0 0 1 0 0 0 1 no_rotate no_reflect no_shear #
integer_attrib-name_attrib-gen-attrib $-1 -1 $11 $-1 $1 2 1 1 1 1 1 1 1 1 1 1 1 1 1 0 1 1 1 @8 CUBIT_ID 3 #
lump $12 -1 -1 $-1 $-1 $13 $1 T -7.5 -7.5 -500000000 7.5 7.5 1000500000000 #
transform $-1 -1 1 0 0 0 1 0 0 0 1 0 0 0 1 no_rotate no_reflect no_shear #
simple-snl-attrib $-1 -1 $-1 $2 $0 1 1 1 1 1 1 1 1 1 1 1 1 0 1 0 1 1 1 @17 NEW_SIMPLE_ATTRIB 1 @9 ENTITY_ID 0 3 1 -2147483648 -1 #
integer_attrib-name_attrib-gen-attrib $-1 -1 $14 $-1 $3 2 1 1 1 1 1 1 1 1 1 1 1 1 1 0 1 1 1 @8 CUBIT_ID 1 #
shell $-1 -1 -1 $-1 $-1 $-1 $15 $-1 $3 T -6.9402056679999999 -6.9402056679999999 0 6.9402056679999999 6.9402056679999999 1000000000000 #
simple-snl-attrib $-1 -1 $-1 $5 $1 1 1 1 1 1 1 1 1 1 1 1 1 0 1 0 1 1 1 @17 NEW_SIMPLE_ATTRIB 1 @9 ENTITY_ID 0 3 3 -2147483648 -1 #
integer_attrib-name_attrib-gen-attrib $-1 -1 $16 $-1 $6 2 1 1 1 1 1 1 1 1 1 1 1 1 1 0 1 1 1 @8 CUBIT_ID 3 #
shell $-1 -1 -1 $-1 $17 $-1 $18 $-1 $6 T -7.5 -7.5 -500000000 7.5 7.5 1000500000000 #
simple-snl-attrib $-1 -1 $19 $9 $3 1 1 1 1 1 1 1 1 1 1 1 1 0 1 0 1 1 1 @17 NEW_SIMPLE_ATTRIB 1 @9 ENTITY_ID 0 3 1 -2147483648 -1 #
face $20 -1 -1 $-1 $21 $22 $10 $-1 $23 forward single T -6.9402056679999999 -6.9402056679999999 0 6.9402056679999999 6.9402056679999999 1000000000000 F #
simple-snl-attrib $-1 -1 $24 $12 $6 1 1 1 1 1 1 1 1 1 1 1 1 0 1 0 1 1 1 @17 NEW_SIMPLE_ATTRIB 1 @9 ENTITY_ID 0 3 3 -2147483648 -1 #
shell $-1 -1 -1 $-1 $-1 $-1 $25 $-1 $6 T -6.9402056679999999 -6.9402056679999999 0 6.9402056679999999 6.9402056679999999 1000000000000 #
face $26 -1 -1 $-1 $27 $28 $13 $-1 $29 forward single T -7.5 -7.5 1000500000000 7.5 7.5 1000500000000 F #
simple-snl-attrib $-1 -1 $30 $14 $3 1 1 1 1 1 1 1 1 1 1 1 1 0 1 0 1 1 1 @17 NEW_SIMPLE_ATTRIB 2 @5 GROUP @11 mat_1_rho_1 0 7 1 2 765122635 0 0 0 0 #
integer_attrib-name_attrib-gen-attrib $-1 -1 $31 $-1 $15 2 1 1 1 1 1 1 1 1 1 1 1 1 1 0 1 1 1 @8 CUBIT_ID 1 #
face $32 -1 -1 $-1 $33 $34 $10 $-1 $35 forward single T -6.9402056679999999 -6.9402056679999999 0 6.9402056679999999 6.9402056679999999 0 F #
loop $-1 -1 -1 $-1 $36 $37 $15 T -6.9402056679999999 -6.9402056679999999 0 6.9402056679999999 6.9402056679999999 0 unknown #
cone-surface $-1 -1 -1 $-1 0 0 500000000000 0 0 1 6.9402056679999999 0 0 1 I I 0 1 6.9402056679999999 forward I I I I #
simple-snl-attrib $-1 -1 $38 $16 $6 1 1 1 1 1 1 1 1 1 1 1 1 0 1 0 1 1 1 @17 NEW_SIMPLE_ATTRIB 2 @5 GROUP @9 graveyard 0 7 1 3 353636902 0 0 0 0 #
face $39 -1 -1 $-1 $40 $41 $17 $-1 $42 reversed single T -6.9402056679999999 -6.9402056679999999 0 6.9402056679999999 6.9402056679999999 1000000000000 F #
integer_attrib-name_attrib-gen-attrib $-1 -1 $43 $-1 $18 2 1 1 1 1 1 1 1 1 1 1 1 1 1 0 1 1 1 @8 CUBIT_ID 10 #
face $44 -1 -1 $-1 $45 $46 $13 $-1 $47 reversed single T -7.5 -7.5 -500000000 7.5 7.5 -500000000 F #
loop $-1 -1 -1 $-1 $-1 $48 $18 T -7.5 -7.5 1000500000000 7.5 7.5 1000500000000 unknown #
plane-surface $-1 -1 -1 $-1 0 0 1000500000000 0 0 1 1 0 0 forward_v I I I I #
simple-snl-attrib $-1 -1 $-1 $19 $3 1 1 1 1 1 1 1 1 1 1 1 1 0 1 0 1 1 1 @17 NEW_SIMPLE_ATTRIB 7 @16 GRAPHICS_OPTIONS @14 geometry color @10 mesh color @19 geometry visibility @15 mesh visibility @11 render mode @11 transparent 0 6 4 4 1 1 0 0 #
simple-snl-attrib $-1 -1 $49 $20 $15 1 1 1 1 1 1 1 1 1 1 1 1 0 1 0 1 1 1 @17 NEW_SIMPLE_ATTRIB 1 @9 UNIQUE_ID 1 0 1 1137713135 #
integer_attrib-name_attrib-gen-attrib $-1 -1 $50 $-1 $21 2 1 1 1 1 1 1 1 1 1 1 1 1 1 0 1 1 1 @8 CUBIT_ID 2 #
face $51 -1 -1 $-1 $-1 $52 $10 $-1 $53 forward single T -6.9402056679999999 -6.9402056679999999 1000000000000 6.9402056679999999 6.9402056679999999 1000000000000 F #
loop $-1 -1 -1 $-1 $-1 $54 $21 T -6.9402056679999999 -6.9402056679999999 0 6.9402056679999999 6.9402056679999999 0 unknown #
plane-surface $-1 -1 -1 $-1 0 0 0 0 0 -1 -1 0 0 forward_v I I I I #
loop $-1 -1 -1 $-1 $-1 $55 $15 T -6.9402056679999999 -6.9402056679999999 1000000000000 6.9402056679999999 6.9402056679999999 1000000000000 unknown #
coedge $-1 -1 -1 $-1 $37 $37 $54 $56 reversed $22 $-1 #
simple-snl-attrib $-1 -1 $-1 $24 $6 1 1 1 1 1 1 1 1 1 1 1 1 0 1 0 1 1 1 @17 NEW_SIMPLE_ATTRIB 7 @16 GRAPHICS_OPTIONS @14 geometry color @10 mesh color @19 geometry visibility @15 mesh visibility @11 render mode @11 transparent 0 6 6 6 1 1 0 0 #
integer_attrib-name_attrib-gen-attrib $-1 -1 $57 $-1 $25 2 1 1 1 1 1 1 1 1 1 1 1 1 1 0 1 1 1 @8 CUBIT_ID 1 #
face $58 -1 -1 $-1 $59 $60 $17 $-1 $61 reversed single T -6.9402056679999999 -6.9402056679999999 0 6.9402056679999999 6.9402056679999999 0 F #
loop $-1 -1 -1 $-1 $62 $63 $25 T -6.9402056679999999 -6.9402056679999999 0 6.9402056679999999 6.9402056679999999 0 unknown #
cone-surface $-1 -1 -1 $-1 0 0 500000000000 0 0 1 6.9402056679999999 0 0 1 I I 0 1 6.9402056679999999 forward I I I I #
simple-snl-attrib $-1 -1 $64 $26 $18 1 1 1 1 1 1 1 1 1 1 1 1 0 1 0 1 1 1 @17 NEW_SIMPLE_ATTRIB 1 @9 ENTITY_ID 0 3 10 -2147483648 -1 #
integer_attrib-name_attrib-gen-attrib $-1 -1 $65 $-1 $27 2 1 1 1 1 1 1 1 1 1 1 1 1 1 0 1 1 1 @8 CUBIT_ID 11 #
face $66 -1 -1 $-1 $67 $68 $13 $-1 $69 reversed single T -7.5 -7.5 -500000000 7.5 -7.5 1000500000000 F #
loop $-1 -1 -1 $-1 $-1 $70 $27 T -7.5 -7.5 -500000000 7.5 7.5 -500000000 unknown #
plane-surface $-1 -1 -1 $-1 0 0 -500000000 0 0 1 1 0 0 forward_v I I I I #
coedge $-1 -1 -1 $-1 $71 $72 $73 $74 forward $28 $-1 #
simple-snl-attrib $-1 -1 $75 $31 $15 1 1 1 1 1 1 1 1 1 1 1 1 0 1 0 1 1 1 @17 NEW_SIMPLE_ATTRIB 1 @9 ENTITY_ID 0 3 1 1073558241 1 #
simple-snl-attrib $-1 -1 $76 $32 $21 1 1 1 1 1 1 1 1 1 1 1 1 0 1 0 1 1 1 @17 NEW_SIMPLE_ATTRIB 1 @9 UNIQUE_ID 1 0 1 203060613 #
integer_attrib-name_attrib-gen-attrib $-1 -1 $77 $-1 $33 2 1 1 1 1 1 1 1 1 1 1 1 1 1 0 1 1 1 @8 CUBIT_ID 3 #
loop $-1 -1 -1 $-1 $-1 $78 $33 T -6.9402056679999999 -6.9402056679999999 1000000000000 6.9402056679999999 6.9402056679999999 1000000000000 unknown #
plane-surface $-1 -1 -1 $-1 0 0 1000000000000 0 0 1 1 0 0 forward_v I I I I #
coedge $-1 -1 -1 $-1 $54 $54 $37 $56 forward $34 $-1 #
coedge $-1 -1 -1 $-1 $55 $55 $78 $79 reversed $36 $-1 #
edge $80 -1 -1 $-1 $81 0 $81 6.2831853071795862 $54 $82 forward @7 unknown T -6.9402056679999999 -6.9402056679999999 0 6.9402056679999999 6.9402056679999999 0 #
simple-snl-attrib $-1 -1 $83 $39 $25 1 1 1 1 1 1 1 1 1 1 1 1 0 1 0 1 1 1 @17 NEW_SIMPLE_ATTRIB 1 @9 UNIQUE_ID 1 0 1 1137713135 #
integer_attrib-name_attrib-gen-attrib $-1 -1 $84 $-1 $40 2 1 1 1 1 1 1 1 1 1 1 1 1 1 0 1 1 1 @8 CUBIT_ID 2 #
face $85 -1 -1 $-1 $-1 $86 $17 $-1 $87 reversed single T -6.9402056679999999 -6.9402056679999999 1000000000000 6.9402056679999999 6.9402056679999999 1000000000000 F #
loop $-1 -1 -1 $-1 $-1 $88 $40 T -6.9402056679999999 -6.9402056679999999 0 6.9402056679999999 6.9402056679999999 0 unknown #
plane-surface $-1 -1 -1 $-1 0 0 0 0 0 -1 -1 0 0 forward_v I I I I #
loop $-1 -1 -1 $-1 $-1 $89 $25 T -6.9402056679999999 -6.9402056679999999 1000000000000 6.9402056679999999 6.9402056679999999 1000000000000 unknown #
coedge $-1 -1 -1 $-1 $63 $63 $88 $90 forward $41 $-1 #
simple-snl-attrib $-1 -1 $-1 $43 $18 1 1 1 1 1 1 1 1 1 1 1 1 0 1 0 1 1 1 @17 NEW_SIMPLE_ATTRIB 3 @13 MESH_INTERVAL @4 LIMP @4 LIMP 2 1 0 5 1 0 0 1 1 #
simple-snl-attrib $-1 -1 $91 $44 $27 1 1 1 1 1 1 1 1 1 1 1 1 0 1 0 1 1 1 @17 NEW_SIMPLE_ATTRIB 1 @9 ENTITY_ID 0 3 11 -2147483648 -1 #
integer_attrib-name_attrib-gen-attrib $-1 -1 $92 $-1 $45 2 1 1 1 1 1 1 1 1 1 1 1 1 1 0 1 1 1 @8 CUBIT_ID 12 #
face $93 -1 -1 $-1 $94 $95 $13 $-1 $96 reversed single T -7.5 -7.5 -500000000 -7.5 7.5 1000500000000 F #
loop $-1 -1 -1 $-1 $-1 $97 $45 T -7.5 -7.5 -500000000 7.5 -7.5 1000500000000 unknown #
plane-surface $-1 -1 -1 $-1 0 -7.5 500000000000 0 1 0 0 0 1 forward_v I I I I #
coedge $-1 -1 -1 $-1 $98 $99 $100 $101 forward $46 $-1 #
coedge $-1 -1 -1 $-1 $102 $48 $103 $104 forward $28 $-1 #
coedge $-1 -1 -1 $-1 $48 $102 $105 $106 forward $28 $-1 #
coedge $-1 -1 -1 $-1 $107 $108 $48 $74 reversed $109 $-1 #
edge $110 -1 -1 $-1 $111 -7.5 $112 7.5 $73 $113 forward @7 unknown T 7.5 -7.5 1000500000000 7.5 7.5 1000500000000 #
simple-snl-attrib $-1 -1 $114 $49 $15 1 1 1 1 1 1 1 1 1 1 1 1 0 1 0 1 1 1 @17 NEW_SIMPLE_ATTRIB 1 @13 MERGE_PARTNER 0 4 1137713135 1 1 1 #
simple-snl-attrib $-1 -1 $115 $50 $21 1 1 1 1 1 1 1 1 1 1 1 1 0 1 0 1 1 1 @17 NEW_SIMPLE_ATTRIB 1 @9 ENTITY_ID 0 3 2 1073558241 0 #
simple-snl-attrib $-1 -1 $116 $51 $33 1 1 1 1 1 1 1 1 1 1 1 1 0 1 0 1 1 1 @17 NEW_SIMPLE_ATTRIB 1 @9 UNIQUE_ID 1 0 1 1431581872 #
coedge $-1 -1 -1 $-1 $78 $78 $55 $79 forward $52 $-1 #
edge $117 -1 -1 $-1 $118 0 $118 6.2831853071795862 $78 $119 forward @7 unknown T -6.9402056679999999 -6.9402056679999999 1000000000000 6.9402056679999999 6.9402056679999999 1000000000000 #
integer_attrib-name_attrib-gen-attrib $-1 -1 $120 $-1 $56 2 1 1 1 1 1 1 1 1 1 1 1 1 1 0 1 1 1 @8 CUBIT_ID 1 #
vertex $121 -1 -1 $-1 $56 $122 #
ellipse-curve $-1 -1 -1 $-1 0 0 0 0 0 -1 6.9402056679999999 0 0 1 I I #
simple-snl-attrib $-1 -1 $123 $57 $25 1 1 1 1 1 1 1 1 1 1 1 1 0 1 0 1 1 1 @17 NEW_SIMPLE_ATTRIB 1 @9 ENTITY_ID 0 3 1 1073558241 1 #
simple-snl-attrib $-1 -1 $124 $58 $40 1 1 1 1 1 1 1 1 1 1 1 1 0 1 0 1 1 1 @17 NEW_SIMPLE_ATTRIB 1 @9 UNIQUE_ID 1 0 1 203060613 #
integer_attrib-name_attrib-gen-attrib $-1 -1 $125 $-1 $59 2 1 1 1 1 1 1 1 1 1 1 1 1 1 0 1 1 1 @8 CUBIT_ID 3 #
loop $-1 -1 -1 $-1 $-1 $126 $59 T -6.9402056679999999 -6.9402056679999999 1000000000000 6.9402056679999999 6.9402056679999999 1000000000000 unknown #
plane-surface $-1 -1 -1 $-1 0 0 1000000000000 0 0 1 1 0 0 forward_v I I I I #
coedge $-1 -1 -1 $-1 $88 $88 $63 $90 reversed $60 $-1 #
coedge $-1 -1 -1 $-1 $89 $89 $126 $127 forward $62 $-1 #
edge $128 -1 -1 $-1 $129 0 $129 6.2831853071795862 $88 $130 forward @7 unknown T -6.9402056679999999 -6.9402056679999999 0 6.9402056679999999 6.9402056679999999 0 #
simple-snl-attrib $-1 -1 $-1 $65 $27 1 1 1 1 1 1 1 1 1 1 1 1 0 1 0 1 1 1 @17 NEW_SIMPLE_ATTRIB 3 @13 MESH_INTERVAL @4 LIMP @4 LIMP 2 1 0 5 1 0 0 1 1 #
simple-snl-attrib $-1 -1 $131 $66 $45 1 1 1 1 1 1 1 1 1 1 1 1 0 1 0 1 1 1 @17 NEW_SIMPLE_ATTRIB 1 @9 ENTITY_ID 0 3 12 -2147483648 -1 #
integer_attrib-name_attrib-gen-attrib $-1 -1 $132 $-1 $67 2 1 1 1 1 1 1 1 1 1 1 1 1 1 0 1 1 1 @8 CUBIT_ID 13 #
face $133 -1 -1 $-1 $134 $135 $13 $-1 $136 reversed single T -7.5 7.5 -500000000 7.5 7.5 1000500000000 F #
loop $-1 -1 -1 $-1 $-1 $137 $67 T -7.5 -7.5 -500000000 -7.5 7.5 1000500000000 unknown #
plane-surface $-1 -1 -1 $-1 -7.5 0 500000000000 1 0 0 0 0 -1 forward_v I I I I #
coedge $-1 -1 -1 $-1 $138 $105 $139 $140 forward $68 $-1 #
coedge $-1 -1 -1 $-1 $141 $70 $138 $142 forward $46 $-1 #
coedge $-1 -1 -1 $-1 $70 $141 $143 $144 forward $46 $-1 #
coedge $-1 -1 -1 $-1 $108 $107 $70 $101 reversed $109 $-1 #
edge $145 -1 -1 $-1 $146 -7.5 $147 7.5 $100 $148 forward @7 unknown T 7.5 -7.5 -500000000 7.5 7.5 -500000000 #
coedge $-1 -1 -1 $-1 $72 $71 $149 $150 forward $28 $-1 #
coedge $-1 -1 -1 $-1 $151 $152 $71 $104 reversed $135 $-1 #
edge $153 -1 -1 $-1 $112 -7.5 $154 7.5 $103 $155 forward @7 unknown T -7.5 7.5 1000500000000 7.5 7.5 1000500000000 #
coedge $-1 -1 -1 $-1 $97 $156 $72 $106 reversed $68 $-1 #
edge $157 -1 -1 $-1 $158 -7.5 $111 7.5 $105 $159 forward @7 unknown T -7.5 -7.5 1000500000000 7.5 -7.5 1000500000000 #
coedge $-1 -1 -1 $-1 $100 $73 $156 $160 forward $109 $-1 #
coedge $-1 -1 -1 $-1 $73 $100 $151 $161 reversed $109 $-1 #
loop $-1 -1 -1 $-1 $-1 $107 $134 T 7.5 -7.5 -500000000 7.5 7.5 1000500000000 unknown #
integer_attrib-name_attrib-gen-attrib $-1 -1 $162 $-1 $74 2 1 1 1 1 1 1 1 1 1 1 1 1 1 0 1 1 1 @8 CUBIT_ID 15 #
vertex $163 -1 -1 $-1 $74 $164 #
vertex $165 -1 -1 $-1 $74 $166 #
straight-curve $-1 -1 -1 $-1 7.5 0 1000500000000 0 1 0 I I #
simple-snl-attrib $-1 -1 $-1 $75 $15 1 1 1 1 1 1 1 1 1 1 1 1 0 1 0 1 1 1 @17 NEW_SIMPLE_ATTRIB 3 @13 MESH_INTERVAL @4 LIMP @4 LIMP 2 1 0 5 1 0 0 1 1 #
simple-snl-attrib $-1 -1 $167 $76 $21 1 1 1 1 1 1 1 1 1 1 1 1 0 1 0 1 1 1 @17 NEW_SIMPLE_ATTRIB 1 @13 MERGE_PARTNER 0 4 203060613 1 2 1 #
simple-snl-attrib $-1 -1 $168 $77 $33 1 1 1 1 1 1 1 1 1 1 1 1 0 1 0 1 1 1 @17 NEW_SIMPLE_ATTRIB 1 @9 ENTITY_ID 0 3 3 1894875151 0 #
integer_attrib-name_attrib-gen-attrib $-1 -1 $169 $-1 $79 2 1 1 1 1 1 1 1 1 1 1 1 1 1 0 1 1 1 @8 CUBIT_ID 2 #
vertex $170 -1 -1 $-1 $79 $171 #
ellipse-curve $-1 -1 -1 $-1 0 0 1000000000000 0 0 1 6.9402056679999999 0 0 1 I I #
simple-snl-attrib $-1 -1 $172 $80 $56 1 1 1 1 1 1 1 1 1 1 1 1 0 1 0 1 1 1 @17 NEW_SIMPLE_ATTRIB 1 @9 UNIQUE_ID 1 0 1 1073558241 #
integer_attrib-name_attrib-gen-attrib $-1 -1 $173 $-1 $81 2 1 1 1 1 1 1 1 1 1 1 1 1 1 0 1 1 1 @8 CUBIT_ID 1 #
point $-1 -1 -1 $-1 6.9402056679999999 0 0 #
simple-snl-attrib $-1 -1 $174 $83 $25 1 1 1 1 1 1 1 1 1 1 1 1 0 1 0 1 1 1 @17 NEW_SIMPLE_ATTRIB 1 @13 MERGE_PARTNER 0 4 1137713135 -1 16 0 #
simple-snl-attrib $-1 -1 $175 $84 $40 1 1 1 1 1 1 1 1 1 1 1 1 0 1 0 1 1 1 @17 NEW_SIMPLE_ATTRIB 1 @9 ENTITY_ID 0 3 2 1073558241 0 #
simple-snl-attrib $-1 -1 $176 $85 $59 1 1 1 1 1 1 1 1 1 1 1 1 0 1 0 1 1 1 @17 NEW_SIMPLE_ATTRIB 1 @9 UNIQUE_ID 1 0 1 1431581872 #
coedge $-1 -1 -1 $-1 $126 $126 $89 $127 reversed $86 $-1 #
edge $177 -1 -1 $-1 $178 0 $178 6.2831853071795862 $126 $179 forward @7 unknown T -6.9402056679999999 -6.9402056679999999 1000000000000 6.9402056679999999 6.9402056679999999 1000000000000 #
integer_attrib-name_attrib-gen-attrib $-1 -1 $180 $-1 $90 2 1 1 1 1 1 1 1 1 1 1 1 1 1 0 1 1 1 @8 CUBIT_ID 1 #
vertex $181 -1 -1 $-1 $90 $182 #
ellipse-curve $-1 -1 -1 $-1 0 0 0 0 0 -1 6.9402056679999999 0 0 1 I I #
simple-snl-attrib $-1 -1 $-1 $92 $45 1 1 1 1 1 1 1 1 1 1 1 1 0 1 0 1 1 1 @17 NEW_SIMPLE_ATTRIB 3 @13 MESH_INTERVAL @4 LIMP @4 LIMP 2 1 0 5 1 0 0 1 1 #
simple-snl-attrib $-1 -1 $183 $93 $67 1 1 1 1 1 1 1 1 1 1 1 1 0 1 0 1 1 1 @17 NEW_SIMPLE_ATTRIB 1 @9 ENTITY_ID 0 3 13 -2147483648 -1 #
integer_attrib-name_attrib-gen-attrib $-1 -1 $184 $-1 $94 2 1 1 1 1 1 1 1 1 1 1 1 1 1 0 1 1 1 @8 CUBIT_ID 14 #
face $185 -1 -1 $-1 $-1 $109 $13 $-1 $186 reversed single T 7.5 -7.5 -500000000 7.5 7.5 1000500000000 F #
loop $-1 -1 -1 $-1 $-1 $151 $94 T -7.5 7.5 -500000000 7.5 7.5 1000500000000 unknown #
plane-surface $-1 -1 -1 $-1 0 7.5 500000000000 0 -1 0 0 0 -1 forward_v I I I I #
coedge $-1 -1 -1 $-1 $187 $149 $152 $188 forward $95 $-1 #
coedge $-1 -1 -1 $-1 $156 $97 $98 $142 reversed $68 $-1 #
coedge $-1 -1 -1 $-1 $149 $187 $97 $140 reversed $95 $-1 #
edge $189 -1 -1 $-1 $158 -500500000000 $190 500500000000 $139 $191 forward @7 unknown T -7.5 -7.5 -500000000 -7.5 -7.5 1000500000000 #
coedge $-1 -1 -1 $-1 $99 $98 $187 $192 forward $46 $-1 #
edge $193 -1 -1 $-1 $147 -7.5 $190 7.5 $138 $194 forward @7 unknown T -7.5 -7.5 -500000000 7.5 -7.5 -500000000 #
coedge $-1 -1 -1 $-1 $152 $151 $99 $144 reversed $135 $-1 #
edge $195 -1 -1 $-1 $196 -7.5 $146 7.5 $143 $197 forward @7 unknown T -7.5 7.5 -500000000 7.5 7.5 -500000000 #
integer_attrib-name_attrib-gen-attrib $-1 -1 $198 $-1 $101 2 1 1 1 1 1 1 1 1 1 1 1 1 1 0 1 1 1 @8 CUBIT_ID 19 #
vertex $199 -1 -1 $-1 $101 $200 #
vertex $201 -1 -1 $-1 $160 $202 #
straight-curve $-1 -1 -1 $-1 7.5 0 -500000000 0 -1 0 I I #
coedge $-1 -1 -1 $-1 $137 $139 $102 $150 reversed $95 $-1 #
edge $203 -1 -1 $-1 $154 -7.5 $158 7.5 $149 $204 forward @7 unknown T -7.5 -7.5 1000500000000 -7.5 7.5 1000500000000 #
coedge $-1 -1 -1 $-1 $143 $103 $108 $161 forward $135 $-1 #
coedge $-1 -1 -1 $-1 $103 $143 $137 $188 reversed $135 $-1 #
integer_attrib-name_attrib-gen-attrib $-1 -1 $205 $-1 $104 2 1 1 1 1 1 1 1 1 1 1 1 1 1 0 1 1 1 @8 CUBIT_ID 16 #
vertex $206 -1 -1 $-1 $104 $207 #
straight-curve $-1 -1 -1 $-1 0 7.5 1000500000000 -1 0 0 I I #
coedge $-1 -1 -1 $-1 $105 $138 $107 $160 reversed $68 $-1 #
integer_attrib-name_attrib-gen-attrib $-1 -1 $208 $-1 $106 2 1 1 1 1 1 1 1 1 1 1 1 1 1 0 1 1 1 @8 CUBIT_ID 18 #
vertex $209 -1 -1 $-1 $150 $210 #
straight-curve $-1 -1 -1 $-1 0 -7.5 1000500000000 1 0 0 I I #
edge $211 -1 -1 $-1 $111 -500500000000 $147 500500000000 $107 $212 forward @7 unknown T 7.5 -7.5 -500000000 7.5 -7.5 1000500000000 #
edge $213 -1 -1 $-1 $112 -500500000000 $146 500500000000 $108 $214 forward @7 unknown T 7.5 7.5 -500000000 7.5 7.5 1000500000000 #
simple-snl-attrib $-1 -1 $-1 $110 $74 1 1 1 1 1 1 1 1 1 1 1 1 0 1 0 1 1 1 @17 NEW_SIMPLE_ATTRIB 1 @9 ENTITY_ID 0 3 15 -2147483648 -1 #
integer_attrib-name_attrib-gen-attrib $-1 -1 $215 $-1 $111 2 1 1 1 1 1 1 1 1 1 1 1 1 1 0 1 1 1 @8 CUBIT_ID 11 #
point $-1 -1 -1 $-1 7.5 -7.5 1000500000000 #
integer_attrib-name_attrib-gen-attrib $-1 -1 $216 $-1 $112 2 1 1 1 1 1 1 1 1 1 1 1 1 1 0 1 1 1 @8 CUBIT_ID 12 #
point $-1 -1 -1 $-1 7.5 7.5 1000500000000 #
simple-snl-attrib $-1 -1 $-1 $115 $21 1 1 1 1 1 1 1 1 1 1 1 1 0 1 0 1 1 1 @17 NEW_SIMPLE_ATTRIB 3 @13 MESH_INTERVAL @4 LIMP @4 LIMP 2 1 0 5 1 0 0 1 1 #
simple-snl-attrib $-1 -1 $217 $116 $33 1 1 1 1 1 1 1 1 1 1 1 1 0 1 0 1 1 1 @17 NEW_SIMPLE_ATTRIB 1 @13 MERGE_PARTNER 0 4 1431581872 1 3 1 #
simple-snl-attrib $-1 -1 $218 $117 $79 1 1 1 1 1 1 1 1 1 1 1 1 0 1 0 1 1 1 @17 NEW_SIMPLE_ATTRIB 1 @9 UNIQUE_ID 1 0 1 1894875151 #
integer_attrib-name_attrib-gen-attrib $-1 -1 $219 $-1 $118 2 1 1 1 1 1 1 1 1 1 1 1 1 1 0 1 1 1 @8 CUBIT_ID 2 #
point $-1 -1 -1 $-1 6.9402056679999999 0 1000000000000 #
simple-snl-attrib $-1 -1 $220 $120 $56 1 1 1 1 1 1 1 1 1 1 1 1 0 1 0 1 1 1 @17 NEW_SIMPLE_ATTRIB 1 @9 ENTITY_ID 3 -3.4701028339999986 -6.0103944159767497 0 3 1 758005522 0 #
simple-snl-attrib $-1 -1 $221 $121 $81 1 1 1 1 1 1 1 1 1 1 1 1 0 1 0 1 1 1 @17 NEW_SIMPLE_ATTRIB 1 @9 UNIQUE_ID 1 0 1 758005522 #
simple-snl-attrib $-1 -1 $-1 $123 $25 1 1 1 1 1 1 1 1 1 1 1 1 0 1 0 1 1 1 @17 NEW_SIMPLE_ATTRIB 3 @13 MESH_INTERVAL @4 LIMP @4 LIMP 2 1 0 5 1 0 0 1 1 #
simple-snl-attrib $-1 -1 $222 $124 $40 1 1 1 1 1 1 1 1 1 1 1 1 0 1 0 1 1 1 @17 NEW_SIMPLE_ATTRIB 1 @13 MERGE_PARTNER 0 4 203060613 -1 17 0 #
simple-snl-attrib $-1 -1 $223 $125 $59 1 1 1 1 1 1 1 1 1 1 1 1 0 1 0 1 1 1 @17 NEW_SIMPLE_ATTRIB 1 @9 ENTITY_ID 0 3 3 1894875151 0 #
integer_attrib-name_attrib-gen-attrib $-1 -1 $224 $-1 $127 2 1 1 1 1 1 1 1 1 1 1 1 1 1 0 1 1 1 @8 CUBIT_ID 2 #
vertex $225 -1 -1 $-1 $127 $226 #
ellipse-curve $-1 -1 -1 $-1 0 0 1000000000000 0 0 1 6.9402056679999999 0 0 1 I I #
simple-snl-attrib $-1 -1 $227 $128 $90 1 1 1 1 1 1 1 1 1 1 1 1 0 1 0 1 1 1 @17 NEW_SIMPLE_ATTRIB 1 @9 UNIQUE_ID 1 0 1 1073558241 #
integer_attrib-name_attrib-gen-attrib $-1 -1 $228 $-1 $129 2 1 1 1 1 1 1 1 1 1 1 1 1 1 0 1 1 1 @8 CUBIT_ID 1 #
point $-1 -1 -1 $-1 6.9402056679999999 0 0 #
simple-snl-attrib $-1 -1 $-1 $132 $67 1 1 1 1 1 1 1 1 1 1 1 1 0 1 0 1 1 1 @17 NEW_SIMPLE_ATTRIB 3 @13 MESH_INTERVAL @4 LIMP @4 LIMP 2 1 0 5 1 0 0 1 1 #
simple-snl-attrib $-1 -1 $229 $133 $94 1 1 1 1 1 1 1 1 1 1 1 1 0 1 0 1 1 1 @17 NEW_SIMPLE_ATTRIB 1 @9 ENTITY_ID 0 3 14 -2147483648 -1 #
integer_attrib-name_attrib-gen-attrib $-1 -1 $230 $-1 $134 2 1 1 1 1 1 1 1 1 1 1 1 1 1 0 1 1 1 @8 CUBIT_ID 15 #
plane-surface $-1 -1 -1 $-1 7.5 0 500000000000 -1 0 0 0 0 1 forward_v I I I I #
coedge $-1 -1 -1 $-1 $139 $137 $141 $192 reversed $95 $-1 #
edge $231 -1 -1 $-1 $154 -500500000000 $196 500500000000 $152 $232 forward @7 unknown T -7.5 7.5 -500000000 -7.5 7.5 1000500000000 #
integer_attrib-name_attrib-gen-attrib $-1 -1 $233 $-1 $140 2 1 1 1 1 1 1 1 1 1 1 1 1 1 0 1 1 1 @8 CUBIT_ID 23 #
vertex $234 -1 -1 $-1 $192 $235 #
straight-curve $-1 -1 -1 $-1 -7.5 -7.5 500000000000 0 0 -1 I I #
edge $236 -1 -1 $-1 $190 -7.5 $196 7.5 $187 $237 forward @7 unknown T -7.5 -7.5 -500000000 -7.5 7.5 -500000000 #
integer_attrib-name_attrib-gen-attrib $-1 -1 $238 $-1 $142 2 1 1 1 1 1 1 1 1 1 1 1 1 1 0 1 1 1 @8 CUBIT_ID 20 #
straight-curve $-1 -1 -1 $-1 0 -7.5 -500000000 -1 0 0 I I #
integer_attrib-name_attrib-gen-attrib $-1 -1 $239 $-1 $144 2 1 1 1 1 1 1 1 1 1 1 1 1 1 0 1 1 1 @8 CUBIT_ID 22 #
vertex $240 -1 -1 $-1 $144 $241 #
straight-curve $-1 -1 -1 $-1 0 7.5 -500000000 1 0 0 I I #
simple-snl-attrib $-1 -1 $-1 $145 $101 1 1 1 1 1 1 1 1 1 1 1 1 0 1 0 1 1 1 @17 NEW_SIMPLE_ATTRIB 1 @9 ENTITY_ID 0 3 19 -2147483648 -1 #
integer_attrib-name_attrib-gen-attrib $-1 -1 $242 $-1 $146 2 1 1 1 1 1 1 1 1 1 1 1 1 1 0 1 1 1 @8 CUBIT_ID 15 #
point $-1 -1 -1 $-1 7.5 7.5 -500000000 #
integer_attrib-name_attrib-gen-attrib $-1 -1 $243 $-1 $147 2 1 1 1 1 1 1 1 1 1 1 1 1 1 0 1 1 1 @8 CUBIT_ID 16 #
point $-1 -1 -1 $-1 7.5 -7.5 -500000000 #
integer_attrib-name_attrib-gen-attrib $-1 -1 $244 $-1 $150 2 1 1 1 1 1 1 1 1 1 1 1 1 1 0 1 1 1 @8 CUBIT_ID 17 #
straight-curve $-1 -1 -1 $-1 -7.5 0 1000500000000 0 -1 0 I I #
simple-snl-attrib $-1 -1 $-1 $153 $104 1 1 1 1 1 1 1 1 1 1 1 1 0 1 0 1 1 1 @17 NEW_SIMPLE_ATTRIB 1 @9 ENTITY_ID 0 3 16 -2147483648 -1 #
integer_attrib-name_attrib-gen-attrib $-1 -1 $245 $-1 $154 2 1 1 1 1 1 1 1 1 1 1 1 1 1 0 1 1 1 @8 CUBIT_ID 13 #
point $-1 -1 -1 $-1 -7.5 7.5 1000500000000 #
simple-snl-attrib $-1 -1 $-1 $157 $106 1 1 1 1 1 1 1 1 1 1 1 1 0 1 0 1 1 1 @17 NEW_SIMPLE_ATTRIB 1 @9 ENTITY_ID 0 3 18 -2147483648 -1 #
integer_attrib-name_attrib-gen-attrib $-1 -1 $246 $-1 $158 2 1 1 1 1 1 1 1 1 1 1 1 1 1 0 1 1 1 @8 CUBIT_ID 14 #
point $-1 -1 -1 $-1 -7.5 -7.5 1000500000000 #
integer_attrib-name_attrib-gen-attrib $-1 -1 $247 $-1 $160 2 1 1 1 1 1 1 1 1 1 1 1 1 1 0 1 1 1 @8 CUBIT_ID 24 #
straight-curve $-1 -1 -1 $-1 7.5 -7.5 500000000000 0 0 -1 I I #
integer_attrib-name_attrib-gen-attrib $-1 -1 $248 $-1 $161 2 1 1 1 1 1 1 1 1 1 1 1 1 1 0 1 1 1 @8 CUBIT_ID 26 #
straight-curve $-1 -1 -1 $-1 7.5 7.5 500000000000 0 0 -1 I I #
simple-snl-attrib $-1 -1 $-1 $163 $111 1 1 1 1 1 1 1 1 1 1 1 1 0 1 0 1 1 1 @17 NEW_SIMPLE_ATTRIB 1 @9 ENTITY_ID 0 3 11 -2147483648 -1 #
simple-snl-attrib $-1 -1 $-1 $165 $112 1 1 1 1 1 1 1 1 1 1 1 1 0 1 0 1 1 1 @17 NEW_SIMPLE_ATTRIB 1 @9 ENTITY_ID 0 3 12 -2147483648 -1 #
simple-snl-attrib $-1 -1 $-1 $168 $33 1 1 1 1 1 1 1 1 1 1 1 1 0 1 0 1 1 1 @17 NEW_SIMPLE_ATTRIB 3 @13 MESH_INTERVAL @4 LIMP @4 LIMP 2 1 0 5 1 0 0 1 1 #
simple-snl-attrib $-1 -1 $249 $169 $79 1 1 1 1 1 1 1 1 1 1 1 1 0 1 0 1 1 1 @17 NEW_SIMPLE_ATTRIB 1 @9 ENTITY_ID 3 -3.4701028339999986 6.0103944159767497 1000000000000 3 2 1401053352 0 #
simple-snl-attrib $-1 -1 $250 $170 $118 1 1 1 1 1 1 1 1 1 1 1 1 0 1 0 1 1 1 @17 NEW_SIMPLE_ATTRIB 1 @9 UNIQUE_ID 1 0 1 1401053352 #
simple-snl-attrib $-1 -1 $-1 $172 $56 1 1 1 1 1 1 1 1 1 1 1 1 0 1 0 1 1 1 @17 NEW_SIMPLE_ATTRIB 1 @13 MERGE_PARTNER 0 4 1073558241 1 1 1 #
simple-snl-attrib $-1 -1 $251 $173 $81 1 1 1 1 1 1 1 1 1 1 1 1 0 1 0 1 1 1 @17 NEW_SIMPLE_ATTRIB 1 @9 ENTITY_ID 0 3 1 -2147483648 -1 #
simple-snl-attrib $-1 -1 $-1 $175 $40 1 1 1 1 1 1 1 1 1 1 1 1 0 1 0 1 1 1 @17 NEW_SIMPLE_ATTRIB 3 @13 MESH_INTERVAL @4 LIMP @4 LIMP 2 1 0 5 1 0 0 1 1 #
simple-snl-attrib $-1 -1 $252 $176 $59 1 1 1 1 1 1 1 1 1 1 1 1 0 1 0 1 1 1 @17 NEW_SIMPLE_ATTRIB 1 @13 MERGE_PARTNER 0 4 1431581872 -1 18 0 #
simple-snl-attrib $-1 -1 $253 $177 $127 1 1 1 1 1 1 1 1 1 1 1 1 0 1 0 1 1 1 @17 NEW_SIMPLE_ATTRIB 1 @9 UNIQUE_ID 1 0 1 1894875151 #
integer_attrib-name_attrib-gen-attrib $-1 -1 $254 $-1 $178 2 1 1 1 1 1 1 1 1 1 1 1 1 1 0 1 1 1 @8 CUBIT_ID 2 #
point $-1 -1 -1 $-1 6.9402056679999999 0 1000000000000 #
simple-snl-attrib $-1 -1 $255 $180 $90 1 1 1 1 1 1 1 1 1 1 1 1 0 1 0 1 1 1 @17 NEW_SIMPLE_ATTRIB 1 @9 ENTITY_ID 3 -3.4701028339999986 -6.0103944159767497 0 3 1 758005522 0 #
simple-snl-attrib $-1 -1 $256 $181 $129 1 1 1 1 1 1 1 1 1 1 1 1 0 1 0 1 1 1 @17 NEW_SIMPLE_ATTRIB 1 @9 UNIQUE_ID 1 0 1 758005522 #
simple-snl-attrib $-1 -1 $-1 $184 $94 1 1 1 1 1 1 1 1 1 1 1 1 0 1 0 1 1 1 @17 NEW_SIMPLE_ATTRIB 3 @13 MESH_INTERVAL @4 LIMP @4 LIMP 2 1 0 5 1 0 0 1 1 #
simple-snl-attrib $-1 -1 $257 $185 $134 1 1 1 1 1 1 1 1 1 1 1 1 0 1 0 1 1 1 @17 NEW_SIMPLE_ATTRIB 1 @9 ENTITY_ID 0 3 15 -2147483648 -1 #
integer_attrib-name_attrib-gen-attrib $-1 -1 $258 $-1 $188 2 1 1 1 1 1 1 1 1 1 1 1 1 1 0 1 1 1 @8 CUBIT_ID 25 #
straight-curve $-1 -1 -1 $-1 -7.5 7.5 500000000000 0 0 -1 I I #
simple-snl-attrib $-1 -1 $-1 $189 $140 1 1 1 1 1 1 1 1 1 1 1 1 0 1 0 1 1 1 @17 NEW_SIMPLE_ATTRIB 1 @9 ENTITY_ID 0 3 23 -2147483648 -1 #
integer_attrib-name_attrib-gen-attrib $-1 -1 $259 $-1 $190 2 1 1 1 1 1 1 1 1 1 1 1 1 1 0 1 1 1 @8 CUBIT_ID 17 #
point $-1 -1 -1 $-1 -7.5 -7.5 -500000000 #
integer_attrib-name_attrib-gen-attrib $-1 -1 $260 $-1 $192 2 1 1 1 1 1 1 1 1 1 1 1 1 1 0 1 1 1 @8 CUBIT_ID 21 #
straight-curve $-1 -1 -1 $-1 -7.5 0 -500000000 0 1 0 I I #
simple-snl-attrib $-1 -1 $-1 $193 $142 1 1 1 1 1 1 1 1 1 1 1 1 0 1 0 1 1 1 @17 NEW_SIMPLE_ATTRIB 1 @9 ENTITY_ID 0 3 20 -2147483648 -1 #
simple-snl-attrib $-1 -1 $-1 $195 $144 1 1 1 1 1 1 1 1 1 1 1 1 0 1 0 1 1 1 @17 NEW_SIMPLE_ATTRIB 1 @9 ENTITY_ID 0 3 22 -2147483648 -1 #
integer_attrib-name_attrib-gen-attrib $-1 -1 $261 $-1 $196 2 1 1 1 1 1 1 1 1 1 1 1 1 1 0 1 1 1 @8 CUBIT_ID 18 #
point $-1 -1 -1 $-1 -7.5 7.5 -500000000 #
simple-snl-attrib $-1 -1 $-1 $199 $146 1 1 1 1 1 1 1 1 1 1 1 1 0 1 0 1 1 1 @17 NEW_SIMPLE_ATTRIB 1 @9 ENTITY_ID 0 3 15 -2147483648 -1 #
simple-snl-attrib $-1 -1 $-1 $201 $147 1 1 1 1 1 1 1 1 1 1 1 1 0 1 0 1 1 1 @17 NEW_SIMPLE_ATTRIB 1 @9 ENTITY_ID 0 3 16 -2147483648 -1 #
simple-snl-attrib $-1 -1 $-1 $203 $150 1 1 1 1 1 1 1 1 1 1 1 1 0 1 0 1 1 1 @17 NEW_SIMPLE_ATTRIB 1 @9 ENTITY_ID 0 3 17 -2147483648 -1 #
simple-snl-attrib $-1 -1 $-1 $206 $154 1 1 1 1 1 1 1 1 1 1 1 1 0 1 0 1 1 1 @17 NEW_SIMPLE_ATTRIB 1 @9 ENTITY_ID 0 3 13 -2147483648 -1 #
simple-snl-attrib $-1 -1 $-1 $209 $158 1 1 1 1 1 1 1 1 1 1 1 1 0 1 0 1 1 1 @17 NEW_SIMPLE_ATTRIB 1 @9 ENTITY_ID 0 3 14 -2147483648 -1 #
simple-snl-attrib $-1 -1 $-1 $211 $160 1 1 1 1 1 1 1 1 1 1 1 1 0 1 0 1 1 1 @17 NEW_SIMPLE_ATTRIB 1 @9 ENTITY_ID 0 3 24 -2147483648 -1 #
simple-snl-attrib $-1 -1 $-1 $213 $161 1 1 1 1 1 1 1 1 1 1 1 1 0 1 0 1 1 1 @17 NEW_SIMPLE_ATTRIB 1 @9 ENTITY_ID 0 3 26 -2147483648 -1 #
simple-snl-attrib $-1 -1 $-1 $218 $79 1 1 1 1 1 1 1 1 1 1 1 1 0 1 0 1 1 1 @17 NEW_SIMPLE_ATTRIB 1 @13 MERGE_PARTNER 0 4 1894875151 1 2 1 #
simple-snl-attrib $-1 -1 $262 $219 $118 1 1 1 1 1 1 1 1 1 1 1 1 0 1 0 1 1 1 @17 NEW_SIMPLE_ATTRIB 1 @9 ENTITY_ID 0 3 2 -2147483648 -1 #
simple-snl-attrib $-1 -1 $-1 $221 $81 1 1 1 1 1 1 1 1 1 1 1 1 0 1 0 1 1 1 @17 NEW_SIMPLE_ATTRIB 1 @13 MERGE_PARTNER 0 4 758005522 1 1 1 #
simple-snl-attrib $-1 -1 $-1 $223 $59 1 1 1 1 1 1 1 1 1 1 1 1 0 1 0 1 1 1 @17 NEW_SIMPLE_ATTRIB 3 @13 MESH_INTERVAL @4 LIMP @4 LIMP 2 1 0 5 1 0 0 1 1 #
simple-snl-attrib $-1 -1 $263 $224 $127 1 1 1 1 1 1 1 1 1 1 1 1 0 1 0 1 1 1 @17 NEW_SIMPLE_ATTRIB 1 @9 ENTITY_ID 3 -3.4701028339999986 6.0103944159767497 1000000000000 3 2 1401053352 0 #
simple-snl-attrib $-1 -1 $264 $225 $178 1 1 1 1 1 1 1 1 1 1 1 1 0 1 0 1 1 1 @17 NEW_SIMPLE_ATTRIB 1 @9 UNIQUE_ID 1 0 1 1401053352 #
simple-snl-attrib $-1 -1 $-1 $227 $90 1 1 1 1 1 1 1 1 1 1 1 1 0 1 0 1 1 1 @17 NEW_SIMPLE_ATTRIB 1 @13 MERGE_PARTNER 0 4 1073558241 1 27 0 #
simple-snl-attrib $-1 -1 $265 $228 $129 1 1 1 1 1 1 1 1 1 1 1 1 0 1 0 1 1 1 @17 NEW_SIMPLE_ATTRIB 1 @9 ENTITY_ID 0 3 1 -2147483648 -1 #
simple-snl-attrib $-1 -1 $-1 $230 $134 1 1 1 1 1 1 1 1 1 1 1 1 0 1 0 1 1 1 @17 NEW_SIMPLE_ATTRIB 3 @13 MESH_INTERVAL @4 LIMP @4 LIMP 2 1 0 5 1 0 0 1 1 #
simple-snl-attrib $-1 -1 $-1 $231 $188 1 1 1 1 1 1 1 1 1 1 1 1 0 1 0 1 1 1 @17 NEW_SIMPLE_ATTRIB 1 @9 ENTITY_ID 0 3 25 -2147483648 -1 #
simple-snl-attrib $-1 -1 $-1 $234 $190 1 1 1 1 1 1 1 1 1 1 1 1 0 1 0 1 1 1 @17 NEW_SIMPLE_ATTRIB 1 @9 ENTITY_ID 0 3 17 -2147483648 -1 #
simple-snl-attrib $-1 -1 $-1 $236 $192 1 1 1 1 1 1 1 1 1 1 1 1 0 1 0 1 1 1 @17 NEW_SIMPLE_ATTRIB 1 @9 ENTITY_ID 0 3 21 -2147483648 -1 #
simple-snl-attrib $-1 -1 $-1 $240 $196 1 1 1 1 1 1 1 1 1 1 1 1 0 1 0 1 1 1 @17 NEW_SIMPLE_ATTRIB 1 @9 ENTITY_ID 0 3 18 -2147483648 -1 #
simple-snl-attrib $-1 -1 $-1 $250 $118 1 1 1 1 1 1 1 1 1 1 1 1 0 1 0 1 1 1 @17 NEW_SIMPLE_ATTRIB 1 @13 MERGE_PARTNER 0 4 1401053352 1 2 1 #
simple-snl-attrib $-1 -1 $-1 $253 $127 1 1 1 1 1 1 1 1 1 1 1 1 0 1 0 1 1 1 @17 NEW_SIMPLE_ATTRIB 1 @13 MERGE_PARTNER 0 4 1894875151 1 28 0 #
simple-snl-attrib $-1 -1 $266 $254 $178 1 1 1 1 1 1 1 1 1 1 1 1 0 1 0 1 1 1 @17 NEW_SIMPLE_ATTRIB 1 @9 ENTITY_ID 0 3 2 -2147483648 -1 #
simple-snl-attrib $-1 -1 $-1 $256 $129 1 1 1 1 1 1 1 1 1 1 1 1 0 1 0 1 1 1 @17 NEW_SIMPLE_ATTRIB 1 @13 MERGE_PARTNER 0 4 758005522 1 19 0 #
simple-snl-attrib $-1 -1 $-1 $264 $178 1 1 1 1 1 1 1 1 1 1 1 1 0 1 0 1 1 1 @17 NEW_SIMPLE_ATTRIB 1 @13 MERGE_PARTNER 0 4 1401053352 1 20 0 #
End-of-ACIS-data 