1600 0 3 0           
14 Cubit  (iGeom) 17 ACIS 16.0.7 Linux 24 Thu Mar 31 14:34:43 2011 
1 9.9999999999999995e-07 1e-10 
body $3 -1 -1 $-1 $4 $-1 $-1 F #
body $5 -1 -1 $-1 $6 $-1 $-1 T -6.0825469999999999 -6.0825469999999999 -6.0825469999999999 6.0825469999999999 6.0825469999999999 6.0825469999999999 #
body $7 -1 -1 $-1 $8 $-1 $-1 T -7.2990563999999996 -7.2990563999999996 -7.2990563999999996 7.2990563999999996 7.2990563999999996 7.2990563999999996 #
simple-snl-attrib $-1 -1 $9 $-1 $0 1 1 1 1 1 1 1 1 1 1 1 1 0 1 0 1 1 1 @17 NEW_SIMPLE_ATTRIB 1 @9 ENTITY_ID 0 3 4 -2147483648 -1 #
lump $10 -1 -1 $-1 $-1 $11 $0 F #
simple-snl-attrib $-1 -1 $12 $-1 $1 1 1 1 1 1 1 1 1 1 1 1 1 0 1 0 1 1 1 @17 NEW_SIMPLE_ATTRIB 1 @9 ENTITY_ID 0 3 12 -2147483648 -1 #
lump $13 -1 -1 $-1 $-1 $14 $1 T -6.0825469999999999 -6.0825469999999999 -6.0825469999999999 6.0825469999999999 6.0825469999999999 6.0825469999999999 #
simple-snl-attrib $-1 -1 $15 $-1 $2 1 1 1 1 1 1 1 1 1 1 1 1 0 1 0 1 1 1 @17 NEW_SIMPLE_ATTRIB 1 @9 ENTITY_ID 0 3 15 -2147483648 -1 #
lump $16 -1 -1 $-1 $-1 $17 $2 T -7.2990563999999996 -7.2990563999999996 -7.2990563999999996 7.2990563999999996 7.2990563999999996 7.2990563999999996 #
simple-snl-attrib $-1 -1 $-1 $3 $0 1 1 1 1 1 1 1 1 1 1 1 1 0 1 0 1 1 1 @17 NEW_SIMPLE_ATTRIB 2 @5 GROUP @9 graveyard 0 7 1 1 873058713 0 0 0 0 #
simple-snl-attrib $-1 -1 $-1 $-1 $4 1 1 1 1 1 1 1 1 1 1 1 1 0 1 0 1 1 1 @17 NEW_SIMPLE_ATTRIB 1 @9 ENTITY_ID 0 3 1 -2147483648 -1 #
shell $-1 -1 -1 $-1 $18 $-1 $19 $-1 $4 T -7.4450375279999994 -7.4450375279999994 -7.4450375279999994 7.4450375279999994 7.4450375279999994 7.4450375279999994 #
simple-snl-attrib $-1 -1 $20 $5 $1 1 1 1 1 1 1 1 1 1 1 1 1 0 1 0 1 1 1 @17 NEW_SIMPLE_ATTRIB 2 @5 GROUP @11 mat_1_rho_1 0 7 1 2 1053266246 0 0 0 0 #
simple-snl-attrib $-1 -1 $-1 $-1 $6 1 1 1 1 1 1 1 1 1 1 1 1 0 1 0 1 1 1 @17 NEW_SIMPLE_ATTRIB 1 @9 ENTITY_ID 0 3 2 -2147483648 -1 #
shell $-1 -1 -1 $-1 $-1 $-1 $21 $-1 $6 T -6.0825469999999999 -6.0825469999999999 -6.0825469999999999 6.0825469999999999 6.0825469999999999 6.0825469999999999 #
simple-snl-attrib $-1 -1 $-1 $7 $2 1 1 1 1 1 1 1 1 1 1 1 1 0 1 0 1 1 1 @17 NEW_SIMPLE_ATTRIB 2 @11 ENTITY_NAME @9 MCNP_ID_2 0 0 #
simple-snl-attrib $-1 -1 $-1 $-1 $8 1 1 1 1 1 1 1 1 1 1 1 1 0 1 0 1 1 1 @17 NEW_SIMPLE_ATTRIB 1 @9 ENTITY_ID 0 3 3 -2147483648 -1 #
shell $-1 -1 -1 $-1 $22 $-1 $23 $-1 $8 T -7.2990563999999996 -7.2990563999999996 -7.2990563999999996 7.2990563999999996 7.2990563999999996 7.2990563999999996 #
shell $-1 -1 -1 $-1 $-1 $-1 $24 $-1 $4 T -7.2990563999999996 -7.2990563999999996 -7.2990563999999996 7.2990563999999996 7.2990563999999996 7.2990563999999996 #
face $25 -1 -1 $-1 $26 $27 $11 $-1 $28 forward single T -7.4450375279999994 -7.4450375279999994 7.4450375279999994 7.4450375279999994 7.4450375279999994 7.4450375279999994 F #
simple-snl-attrib $-1 -1 $-1 $12 $1 1 1 1 1 1 1 1 1 1 1 1 1 0 1 0 1 1 1 @17 NEW_SIMPLE_ATTRIB 2 @11 ENTITY_NAME @9 MCNP_ID_1 0 0 #
face $29 -1 -1 $-1 $-1 $-1 $14 $-1 $30 forward single T -6.0825469999999999 -6.0825469999999999 -6.0825469999999999 6.0825469999999999 6.0825469999999999 6.0825469999999999 F #
shell $-1 -1 -1 $-1 $-1 $-1 $31 $-1 $8 T -6.0825469999999999 -6.0825469999999999 -6.0825469999999999 6.0825469999999999 6.0825469999999999 6.0825469999999999 #
face $32 -1 -1 $-1 $33 $34 $17 $-1 $35 forward single T -7.2990563999999996 -7.2990563999999996 7.2990563999999996 7.2990563999999996 7.2990563999999996 7.2990563999999996 F #
face $36 -1 -1 $-1 $37 $38 $18 $-1 $39 reversed single T -7.2990563999999996 -7.2990563999999996 7.2990563999999996 7.2990563999999996 7.2990563999999996 7.2990563999999996 F #
simple-snl-attrib $-1 -1 $-1 $-1 $19 1 1 1 1 1 1 1 1 1 1 1 1 0 1 0 1 1 1 @17 NEW_SIMPLE_ATTRIB 1 @9 ENTITY_ID 0 3 1 -2147483648 -1 #
face $40 -1 -1 $-1 $41 $42 $11 $-1 $43 reversed single T -7.4450375279999994 -7.4450375279999994 -7.4450375279999994 7.4450375279999994 7.4450375279999994 -7.4450375279999994 F #
loop $-1 -1 -1 $-1 $-1 $44 $19 T -7.4450375279999994 -7.4450375279999994 7.4450375279999994 7.4450375279999994 7.4450375279999994 7.4450375279999994 unknown #
plane-surface $-1 -1 -1 $-1 0 0 7.4450375279999994 0 0 1 1 0 0 forward_v I I I I #
simple-snl-attrib $-1 -1 $45 $-1 $21 1 1 1 1 1 1 1 1 1 1 1 1 0 1 0 1 1 1 @17 NEW_SIMPLE_ATTRIB 1 @9 UNIQUE_ID 1 0 1 806184321 #
sphere-surface $-1 -1 -1 $-1 0 0 0 6.0825469999999999 1 0 0 0 0 1 forward_v I I I I #
face $46 -1 -1 $-1 $-1 $-1 $22 $-1 $47 reversed single T -6.0825469999999999 -6.0825469999999999 -6.0825469999999999 6.0825469999999999 6.0825469999999999 6.0825469999999999 F #
simple-snl-attrib $-1 -1 $-1 $-1 $23 1 1 1 1 1 1 1 1 1 1 1 1 0 1 0 1 1 1 @17 NEW_SIMPLE_ATTRIB 1 @9 ENTITY_ID 0 3 14 -2147483648 -1 #
face $48 -1 -1 $-1 $49 $50 $17 $-1 $51 reversed single T -7.2990563999999996 -7.2990563999999996 -7.2990563999999996 7.2990563999999996 7.2990563999999996 -7.2990563999999996 F #
loop $-1 -1 -1 $-1 $-1 $52 $23 T -7.2990563999999996 -7.2990563999999996 7.2990563999999996 7.2990563999999996 7.2990563999999996 7.2990563999999996 unknown #
plane-surface $-1 -1 -1 $-1 0 0 7.2990563999999996 0 0 1 1 0 0 forward_v I I I I #
simple-snl-attrib $-1 -1 $-1 $-1 $24 1 1 1 1 1 1 1 1 1 1 1 1 0 1 0 1 1 1 @17 NEW_SIMPLE_ATTRIB 1 @9 ENTITY_ID 0 3 7 -2147483648 -1 #
face $53 -1 -1 $-1 $54 $55 $18 $-1 $56 forward single T -7.2990563999999996 -7.2990563999999996 -7.2990563999999996 7.2990563999999996 7.2990563999999996 -7.2990563999999996 F #
loop $-1 -1 -1 $-1 $-1 $57 $24 T -7.2990563999999996 -7.2990563999999996 7.2990563999999996 7.2990563999999996 7.2990563999999996 7.2990563999999996 unknown #
plane-surface $-1 -1 -1 $-1 0 0 7.2990563999999996 0 0 1 1 0 0 forward_v I I I I #
simple-snl-attrib $-1 -1 $-1 $-1 $26 1 1 1 1 1 1 1 1 1 1 1 1 0 1 0 1 1 1 @17 NEW_SIMPLE_ATTRIB 1 @9 ENTITY_ID 0 3 2 -2147483648 -1 #
face $58 -1 -1 $-1 $59 $60 $11 $-1 $61 reversed single T -7.4450375279999994 -7.4450375279999994 -7.4450375279999994 7.4450375279999994 -7.4450375279999994 7.4450375279999994 F #
loop $-1 -1 -1 $-1 $-1 $62 $26 T -7.4450375279999994 -7.4450375279999994 -7.4450375279999994 7.4450375279999994 7.4450375279999994 -7.4450375279999994 unknown #
plane-surface $-1 -1 -1 $-1 0 0 -7.4450375279999994 0 0 1 1 0 0 forward_v I I I I #
coedge $-1 -1 -1 $-1 $63 $64 $65 $66 forward $27 $-1 #
simple-snl-attrib $-1 -1 $67 $29 $21 1 1 1 1 1 1 1 1 1 1 1 1 0 1 0 1 1 1 @17 NEW_SIMPLE_ATTRIB 1 @9 ENTITY_ID 0 3 13 -2147483648 -1 #
simple-snl-attrib $-1 -1 $68 $-1 $31 1 1 1 1 1 1 1 1 1 1 1 1 0 1 0 1 1 1 @17 NEW_SIMPLE_ATTRIB 1 @9 UNIQUE_ID 1 0 1 806184321 #
sphere-surface $-1 -1 -1 $-1 0 0 0 6.0825469999999999 1 0 0 0 0 1 forward_v I I I I #
simple-snl-attrib $-1 -1 $-1 $-1 $33 1 1 1 1 1 1 1 1 1 1 1 1 0 1 0 1 1 1 @17 NEW_SIMPLE_ATTRIB 1 @9 ENTITY_ID 0 3 15 -2147483648 -1 #
face $69 -1 -1 $-1 $70 $71 $17 $-1 $72 reversed single T -7.2990563999999996 -7.2990563999999996 -7.2990563999999996 7.2990563999999996 -7.2990563999999996 7.2990563999999996 F #
loop $-1 -1 -1 $-1 $-1 $73 $33 T -7.2990563999999996 -7.2990563999999996 -7.2990563999999996 7.2990563999999996 7.2990563999999996 -7.2990563999999996 unknown #
plane-surface $-1 -1 -1 $-1 0 0 -7.2990563999999996 0 0 1 1 0 0 forward_v I I I I #
coedge $-1 -1 -1 $-1 $74 $75 $76 $77 forward $34 $-1 #
simple-snl-attrib $-1 -1 $-1 $-1 $37 1 1 1 1 1 1 1 1 1 1 1 1 0 1 0 1 1 1 @17 NEW_SIMPLE_ATTRIB 1 @9 ENTITY_ID 0 3 8 -2147483648 -1 #
face $78 -1 -1 $-1 $79 $80 $18 $-1 $81 forward single T -7.2990563999999996 -7.2990563999999996 -7.2990563999999996 7.2990563999999996 -7.2990563999999996 7.2990563999999996 F #
loop $-1 -1 -1 $-1 $-1 $82 $37 T -7.2990563999999996 -7.2990563999999996 -7.2990563999999996 7.2990563999999996 7.2990563999999996 -7.2990563999999996 unknown #
plane-surface $-1 -1 -1 $-1 0 0 -7.2990563999999996 0 0 1 1 0 0 forward_v I I I I #
coedge $-1 -1 -1 $-1 $83 $84 $85 $86 reversed $38 $-1 #
simple-snl-attrib $-1 -1 $-1 $-1 $41 1 1 1 1 1 1 1 1 1 1 1 1 0 1 0 1 1 1 @17 NEW_SIMPLE_ATTRIB 1 @9 ENTITY_ID 0 3 3 -2147483648 -1 #
face $87 -1 -1 $-1 $88 $89 $11 $-1 $90 reversed single T -7.4450375279999994 -7.4450375279999994 -7.4450375279999994 -7.4450375279999994 7.4450375279999994 7.4450375279999994 F #
loop $-1 -1 -1 $-1 $-1 $91 $41 T -7.4450375279999994 -7.4450375279999994 -7.4450375279999994 7.4450375279999994 -7.4450375279999994 7.4450375279999994 unknown #
plane-surface $-1 -1 -1 $-1 0 -7.4450375279999994 0 0 1 -0 -0 0 1 forward_v I I I I #
coedge $-1 -1 -1 $-1 $92 $93 $94 $95 forward $42 $-1 #
coedge $-1 -1 -1 $-1 $96 $44 $97 $98 forward $27 $-1 #
coedge $-1 -1 -1 $-1 $44 $96 $99 $100 forward $27 $-1 #
coedge $-1 -1 -1 $-1 $101 $102 $44 $66 reversed $103 $-1 #
edge $104 -1 -1 $-1 $105 -7.4450375279999994 $106 7.4450375279999994 $65 $107 forward @7 unknown T 7.4450375279999994 -7.4450375279999994 7.4450375279999994 7.4450375279999994 7.4450375279999994 7.4450375279999994 #
simple-snl-attrib $-1 -1 $-1 $45 $21 1 1 1 1 1 1 1 1 1 1 1 1 0 1 0 1 1 1 @17 NEW_SIMPLE_ATTRIB 1 @13 MERGE_PARTNER 0 4 806184321 1 56 1 #
simple-snl-attrib $-1 -1 $108 $46 $31 1 1 1 1 1 1 1 1 1 1 1 1 0 1 0 1 1 1 @17 NEW_SIMPLE_ATTRIB 1 @9 ENTITY_ID 0 3 13 -2147483648 -1 #
simple-snl-attrib $-1 -1 $-1 $-1 $49 1 1 1 1 1 1 1 1 1 1 1 1 0 1 0 1 1 1 @17 NEW_SIMPLE_ATTRIB 1 @9 ENTITY_ID 0 3 16 -2147483648 -1 #
face $109 -1 -1 $-1 $110 $111 $17 $-1 $112 reversed single T -7.2990563999999996 -7.2990563999999996 -7.2990563999999996 -7.2990563999999996 7.2990563999999996 7.2990563999999996 F #
loop $-1 -1 -1 $-1 $-1 $113 $49 T -7.2990563999999996 -7.2990563999999996 -7.2990563999999996 7.2990563999999996 -7.2990563999999996 7.2990563999999996 unknown #
plane-surface $-1 -1 -1 $-1 0 -7.2990563999999996 0 0 1 -0 -0 0 1 forward_v I I I I #
coedge $-1 -1 -1 $-1 $114 $115 $116 $117 forward $50 $-1 #
coedge $-1 -1 -1 $-1 $118 $52 $119 $120 forward $34 $-1 #
coedge $-1 -1 -1 $-1 $52 $118 $121 $122 forward $34 $-1 #
coedge $-1 -1 -1 $-1 $123 $124 $52 $77 reversed $125 $-1 #
edge $126 -1 -1 $-1 $127 -7.2990563999999996 $128 7.2990563999999996 $76 $129 forward @7 unknown T 7.2990563999999996 -7.2990563999999996 7.2990563999999996 7.2990563999999996 7.2990563999999996 7.2990563999999996 #
simple-snl-attrib $-1 -1 $-1 $-1 $54 1 1 1 1 1 1 1 1 1 1 1 1 0 1 0 1 1 1 @17 NEW_SIMPLE_ATTRIB 1 @9 ENTITY_ID 0 3 9 -2147483648 -1 #
face $130 -1 -1 $-1 $131 $132 $18 $-1 $133 forward single T -7.2990563999999996 -7.2990563999999996 -7.2990563999999996 -7.2990563999999996 7.2990563999999996 7.2990563999999996 F #
loop $-1 -1 -1 $-1 $-1 $134 $54 T -7.2990563999999996 -7.2990563999999996 -7.2990563999999996 7.2990563999999996 -7.2990563999999996 7.2990563999999996 unknown #
plane-surface $-1 -1 -1 $-1 0 -7.2990563999999996 0 0 1 -0 -0 0 1 forward_v I I I I #
coedge $-1 -1 -1 $-1 $135 $136 $137 $138 reversed $55 $-1 #
coedge $-1 -1 -1 $-1 $139 $57 $140 $141 reversed $38 $-1 #
coedge $-1 -1 -1 $-1 $57 $139 $142 $143 reversed $38 $-1 #
coedge $-1 -1 -1 $-1 $144 $145 $57 $86 forward $146 $-1 #
edge $147 -1 -1 $-1 $148 -7.2990563999999996 $149 7.2990563999999996 $85 $150 forward @7 unknown T 7.2990563999999996 -7.2990563999999996 7.2990563999999996 7.2990563999999996 7.2990563999999996 7.2990563999999996 #
simple-snl-attrib $-1 -1 $-1 $-1 $59 1 1 1 1 1 1 1 1 1 1 1 1 0 1 0 1 1 1 @17 NEW_SIMPLE_ATTRIB 1 @9 ENTITY_ID 0 3 4 -2147483648 -1 #
face $151 -1 -1 $-1 $152 $153 $11 $-1 $154 reversed single T -7.4450375279999994 7.4450375279999994 -7.4450375279999994 7.4450375279999994 7.4450375279999994 7.4450375279999994 F #
loop $-1 -1 -1 $-1 $-1 $155 $59 T -7.4450375279999994 -7.4450375279999994 -7.4450375279999994 -7.4450375279999994 7.4450375279999994 7.4450375279999994 unknown #
plane-surface $-1 -1 -1 $-1 -7.4450375279999994 0 0 1 0 0 0 0 -1 forward_v I I I I #
coedge $-1 -1 -1 $-1 $156 $99 $157 $158 forward $60 $-1 #
coedge $-1 -1 -1 $-1 $159 $62 $156 $160 forward $42 $-1 #
coedge $-1 -1 -1 $-1 $62 $159 $161 $162 forward $42 $-1 #
coedge $-1 -1 -1 $-1 $102 $101 $62 $95 reversed $103 $-1 #
edge $163 -1 -1 $-1 $164 -7.4450375279999994 $165 7.4450375279999994 $94 $166 forward @7 unknown T 7.4450375279999994 -7.4450375279999994 -7.4450375279999994 7.4450375279999994 7.4450375279999994 -7.4450375279999994 #
coedge $-1 -1 -1 $-1 $64 $63 $167 $168 forward $27 $-1 #
coedge $-1 -1 -1 $-1 $169 $170 $63 $98 reversed $153 $-1 #
edge $171 -1 -1 $-1 $106 -7.4450375279999994 $172 7.4450375279999994 $97 $173 forward @7 unknown T -7.4450375279999994 7.4450375279999994 7.4450375279999994 7.4450375279999994 7.4450375279999994 7.4450375279999994 #
coedge $-1 -1 -1 $-1 $91 $174 $64 $100 reversed $60 $-1 #
edge $175 -1 -1 $-1 $176 -7.4450375279999994 $105 7.4450375279999994 $99 $177 forward @7 unknown T -7.4450375279999994 -7.4450375279999994 7.4450375279999994 7.4450375279999994 -7.4450375279999994 7.4450375279999994 #
coedge $-1 -1 -1 $-1 $94 $65 $174 $178 forward $103 $-1 #
coedge $-1 -1 -1 $-1 $65 $94 $169 $179 reversed $103 $-1 #
loop $-1 -1 -1 $-1 $-1 $101 $152 T 7.4450375279999994 -7.4450375279999994 -7.4450375279999994 7.4450375279999994 7.4450375279999994 7.4450375279999994 unknown #
simple-snl-attrib $-1 -1 $-1 $-1 $66 1 1 1 1 1 1 1 1 1 1 1 1 0 1 0 1 1 1 @17 NEW_SIMPLE_ATTRIB 1 @9 ENTITY_ID 0 3 37 -2147483648 -1 #
vertex $180 -1 -1 $-1 $66 $181 #
vertex $182 -1 -1 $-1 $66 $183 #
straight-curve $-1 -1 -1 $-1 7.4450375279999994 0 7.4450375279999994 0 1 0 I I #
simple-snl-attrib $-1 -1 $-1 $68 $31 1 1 1 1 1 1 1 1 1 1 1 1 0 1 0 1 1 1 @17 NEW_SIMPLE_ATTRIB 1 @13 MERGE_PARTNER 0 4 806184321 -1 20 0 #
simple-snl-attrib $-1 -1 $-1 $-1 $70 1 1 1 1 1 1 1 1 1 1 1 1 0 1 0 1 1 1 @17 NEW_SIMPLE_ATTRIB 1 @9 ENTITY_ID 0 3 17 -2147483648 -1 #
face $184 -1 -1 $-1 $185 $186 $17 $-1 $187 reversed single T -7.2990563999999996 7.2990563999999996 -7.2990563999999996 7.2990563999999996 7.2990563999999996 7.2990563999999996 F #
loop $-1 -1 -1 $-1 $-1 $188 $70 T -7.2990563999999996 -7.2990563999999996 -7.2990563999999996 -7.2990563999999996 7.2990563999999996 7.2990563999999996 unknown #
plane-surface $-1 -1 -1 $-1 -7.2990563999999996 0 0 1 0 0 0 0 -1 forward_v I I I I #
coedge $-1 -1 -1 $-1 $189 $121 $190 $191 forward $71 $-1 #
coedge $-1 -1 -1 $-1 $192 $73 $189 $193 forward $50 $-1 #
coedge $-1 -1 -1 $-1 $73 $192 $194 $195 forward $50 $-1 #
coedge $-1 -1 -1 $-1 $124 $123 $73 $117 reversed $125 $-1 #
edge $196 -1 -1 $-1 $197 -7.2990563999999996 $198 7.2990563999999996 $116 $199 forward @7 unknown T 7.2990563999999996 -7.2990563999999996 -7.2990563999999996 7.2990563999999996 7.2990563999999996 -7.2990563999999996 #
coedge $-1 -1 -1 $-1 $75 $74 $200 $201 forward $34 $-1 #
coedge $-1 -1 -1 $-1 $202 $203 $74 $120 reversed $186 $-1 #
edge $204 -1 -1 $-1 $128 -7.2990563999999996 $205 7.2990563999999996 $119 $206 forward @7 unknown T -7.2990563999999996 7.2990563999999996 7.2990563999999996 7.2990563999999996 7.2990563999999996 7.2990563999999996 #
coedge $-1 -1 -1 $-1 $113 $207 $75 $122 reversed $71 $-1 #
edge $208 -1 -1 $-1 $209 -7.2990563999999996 $127 7.2990563999999996 $121 $210 forward @7 unknown T -7.2990563999999996 -7.2990563999999996 7.2990563999999996 7.2990563999999996 -7.2990563999999996 7.2990563999999996 #
coedge $-1 -1 -1 $-1 $116 $76 $207 $211 forward $125 $-1 #
coedge $-1 -1 -1 $-1 $76 $116 $202 $212 reversed $125 $-1 #
loop $-1 -1 -1 $-1 $-1 $123 $185 T 7.2990563999999996 -7.2990563999999996 -7.2990563999999996 7.2990563999999996 7.2990563999999996 7.2990563999999996 unknown #
simple-snl-attrib $-1 -1 $-1 $-1 $77 1 1 1 1 1 1 1 1 1 1 1 1 0 1 0 1 1 1 @17 NEW_SIMPLE_ATTRIB 1 @9 ENTITY_ID 0 3 109 -2147483648 -1 #
vertex $213 -1 -1 $-1 $77 $214 #
vertex $215 -1 -1 $-1 $77 $216 #
straight-curve $-1 -1 -1 $-1 7.2990563999999996 0 7.2990563999999996 0 1 0 I I #
simple-snl-attrib $-1 -1 $-1 $-1 $79 1 1 1 1 1 1 1 1 1 1 1 1 0 1 0 1 1 1 @17 NEW_SIMPLE_ATTRIB 1 @9 ENTITY_ID 0 3 10 -2147483648 -1 #
face $217 -1 -1 $-1 $218 $219 $18 $-1 $220 forward single T -7.2990563999999996 7.2990563999999996 -7.2990563999999996 7.2990563999999996 7.2990563999999996 7.2990563999999996 F #
loop $-1 -1 -1 $-1 $-1 $221 $79 T -7.2990563999999996 -7.2990563999999996 -7.2990563999999996 -7.2990563999999996 7.2990563999999996 7.2990563999999996 unknown #
plane-surface $-1 -1 -1 $-1 -7.2990563999999996 0 0 1 0 0 0 0 -1 forward_v I I I I #
coedge $-1 -1 -1 $-1 $140 $222 $223 $224 reversed $80 $-1 #
coedge $-1 -1 -1 $-1 $225 $82 $226 $227 reversed $55 $-1 #
coedge $-1 -1 -1 $-1 $82 $225 $222 $228 reversed $55 $-1 #
coedge $-1 -1 -1 $-1 $145 $144 $82 $138 forward $146 $-1 #
edge $229 -1 -1 $-1 $230 -7.2990563999999996 $231 7.2990563999999996 $137 $232 forward @7 unknown T 7.2990563999999996 -7.2990563999999996 -7.2990563999999996 7.2990563999999996 7.2990563999999996 -7.2990563999999996 #
coedge $-1 -1 -1 $-1 $84 $83 $233 $234 reversed $38 $-1 #
coedge $-1 -1 -1 $-1 $235 $134 $83 $141 forward $80 $-1 #
edge $236 -1 -1 $-1 $237 -7.2990563999999996 $148 7.2990563999999996 $140 $238 forward @7 unknown T -7.2990563999999996 -7.2990563999999996 7.2990563999999996 7.2990563999999996 -7.2990563999999996 7.2990563999999996 #
coedge $-1 -1 -1 $-1 $239 $240 $84 $143 forward $219 $-1 #
edge $241 -1 -1 $-1 $149 -7.2990563999999996 $242 7.2990563999999996 $142 $243 forward @7 unknown T -7.2990563999999996 7.2990563999999996 7.2990563999999996 7.2990563999999996 7.2990563999999996 7.2990563999999996 #
coedge $-1 -1 -1 $-1 $137 $85 $240 $244 forward $146 $-1 #
coedge $-1 -1 -1 $-1 $85 $137 $235 $245 reversed $146 $-1 #
loop $-1 -1 -1 $-1 $-1 $145 $218 T 7.2990563999999996 -7.2990563999999996 -7.2990563999999996 7.2990563999999996 7.2990563999999996 7.2990563999999996 unknown #
simple-snl-attrib $-1 -1 $-1 $-1 $86 1 1 1 1 1 1 1 1 1 1 1 1 0 1 0 1 1 1 @17 NEW_SIMPLE_ATTRIB 1 @9 ENTITY_ID 0 3 61 -2147483648 -1 #
vertex $246 -1 -1 $-1 $86 $247 #
vertex $248 -1 -1 $-1 $86 $249 #
straight-curve $-1 -1 -1 $-1 7.2990563999999996 0 7.2990563999999996 0 1 0 I I #
simple-snl-attrib $-1 -1 $-1 $-1 $88 1 1 1 1 1 1 1 1 1 1 1 1 0 1 0 1 1 1 @17 NEW_SIMPLE_ATTRIB 1 @9 ENTITY_ID 0 3 5 -2147483648 -1 #
face $250 -1 -1 $-1 $-1 $103 $11 $-1 $251 reversed single T 7.4450375279999994 -7.4450375279999994 -7.4450375279999994 7.4450375279999994 7.4450375279999994 7.4450375279999994 F #
loop $-1 -1 -1 $-1 $-1 $169 $88 T -7.4450375279999994 7.4450375279999994 -7.4450375279999994 7.4450375279999994 7.4450375279999994 7.4450375279999994 unknown #
plane-surface $-1 -1 -1 $-1 0 7.4450375279999994 0 0 -1 0 0 0 -1 forward_v I I I I #
coedge $-1 -1 -1 $-1 $252 $167 $170 $253 forward $89 $-1 #
coedge $-1 -1 -1 $-1 $174 $91 $92 $160 reversed $60 $-1 #
coedge $-1 -1 -1 $-1 $167 $252 $91 $158 reversed $89 $-1 #
edge $254 -1 -1 $-1 $176 -7.4450375279999994 $255 7.4450375279999994 $157 $256 forward @7 unknown T -7.4450375279999994 -7.4450375279999994 -7.4450375279999994 -7.4450375279999994 -7.4450375279999994 7.4450375279999994 #
coedge $-1 -1 -1 $-1 $93 $92 $252 $257 forward $42 $-1 #
edge $258 -1 -1 $-1 $165 -7.4450375279999994 $255 7.4450375279999994 $156 $259 forward @7 unknown T -7.4450375279999994 -7.4450375279999994 -7.4450375279999994 7.4450375279999994 -7.4450375279999994 -7.4450375279999994 #
coedge $-1 -1 -1 $-1 $170 $169 $93 $162 reversed $153 $-1 #
edge $260 -1 -1 $-1 $261 -7.4450375279999994 $164 7.4450375279999994 $161 $262 forward @7 unknown T -7.4450375279999994 7.4450375279999994 -7.4450375279999994 7.4450375279999994 7.4450375279999994 -7.4450375279999994 #
simple-snl-attrib $-1 -1 $-1 $-1 $95 1 1 1 1 1 1 1 1 1 1 1 1 0 1 0 1 1 1 @17 NEW_SIMPLE_ATTRIB 1 @9 ENTITY_ID 0 3 41 -2147483648 -1 #
vertex $263 -1 -1 $-1 $95 $264 #
vertex $265 -1 -1 $-1 $178 $266 #
straight-curve $-1 -1 -1 $-1 7.4450375279999994 0 -7.4450375279999994 0 -1 0 I I #
coedge $-1 -1 -1 $-1 $155 $157 $96 $168 reversed $89 $-1 #
edge $267 -1 -1 $-1 $172 -7.4450375279999994 $176 7.4450375279999994 $167 $268 forward @7 unknown T -7.4450375279999994 -7.4450375279999994 7.4450375279999994 -7.4450375279999994 7.4450375279999994 7.4450375279999994 #
coedge $-1 -1 -1 $-1 $161 $97 $102 $179 forward $153 $-1 #
coedge $-1 -1 -1 $-1 $97 $161 $155 $253 reversed $153 $-1 #
simple-snl-attrib $-1 -1 $-1 $-1 $98 1 1 1 1 1 1 1 1 1 1 1 1 0 1 0 1 1 1 @17 NEW_SIMPLE_ATTRIB 1 @9 ENTITY_ID 0 3 38 -2147483648 -1 #
vertex $269 -1 -1 $-1 $98 $270 #
straight-curve $-1 -1 -1 $-1 0 7.4450375279999994 7.4450375279999994 -1 0 0 I I #
coedge $-1 -1 -1 $-1 $99 $156 $101 $178 reversed $60 $-1 #
simple-snl-attrib $-1 -1 $-1 $-1 $100 1 1 1 1 1 1 1 1 1 1 1 1 0 1 0 1 1 1 @17 NEW_SIMPLE_ATTRIB 1 @9 ENTITY_ID 0 3 40 -2147483648 -1 #
vertex $271 -1 -1 $-1 $168 $272 #
straight-curve $-1 -1 -1 $-1 0 -7.4450375279999994 7.4450375279999994 1 0 0 I I #
edge $273 -1 -1 $-1 $105 -7.4450375279999994 $165 7.4450375279999994 $101 $274 forward @7 unknown T 7.4450375279999994 -7.4450375279999994 -7.4450375279999994 7.4450375279999994 -7.4450375279999994 7.4450375279999994 #
edge $275 -1 -1 $-1 $106 -7.4450375279999994 $164 7.4450375279999994 $102 $276 forward @7 unknown T 7.4450375279999994 7.4450375279999994 -7.4450375279999994 7.4450375279999994 7.4450375279999994 7.4450375279999994 #
simple-snl-attrib $-1 -1 $-1 $-1 $105 1 1 1 1 1 1 1 1 1 1 1 1 0 1 0 1 1 1 @17 NEW_SIMPLE_ATTRIB 1 @9 ENTITY_ID 0 3 25 -2147483648 -1 #
point $-1 -1 -1 $-1 7.4450375279999994 -7.4450375279999994 7.4450375279999994 #
simple-snl-attrib $-1 -1 $-1 $-1 $106 1 1 1 1 1 1 1 1 1 1 1 1 0 1 0 1 1 1 @17 NEW_SIMPLE_ATTRIB 1 @9 ENTITY_ID 0 3 26 -2147483648 -1 #
point $-1 -1 -1 $-1 7.4450375279999994 7.4450375279999994 7.4450375279999994 #
simple-snl-attrib $-1 -1 $-1 $-1 $110 1 1 1 1 1 1 1 1 1 1 1 1 0 1 0 1 1 1 @17 NEW_SIMPLE_ATTRIB 1 @9 ENTITY_ID 0 3 18 -2147483648 -1 #
face $277 -1 -1 $-1 $-1 $125 $17 $-1 $278 reversed single T 7.2990563999999996 -7.2990563999999996 -7.2990563999999996 7.2990563999999996 7.2990563999999996 7.2990563999999996 F #
loop $-1 -1 -1 $-1 $-1 $202 $110 T -7.2990563999999996 7.2990563999999996 -7.2990563999999996 7.2990563999999996 7.2990563999999996 7.2990563999999996 unknown #
plane-surface $-1 -1 -1 $-1 0 7.2990563999999996 0 0 -1 0 0 0 -1 forward_v I I I I #
coedge $-1 -1 -1 $-1 $279 $200 $203 $280 forward $111 $-1 #
coedge $-1 -1 -1 $-1 $207 $113 $114 $193 reversed $71 $-1 #
coedge $-1 -1 -1 $-1 $200 $279 $113 $191 reversed $111 $-1 #
edge $281 -1 -1 $-1 $209 -7.2990563999999996 $282 7.2990563999999996 $190 $283 forward @7 unknown T -7.2990563999999996 -7.2990563999999996 -7.2990563999999996 -7.2990563999999996 -7.2990563999999996 7.2990563999999996 #
coedge $-1 -1 -1 $-1 $115 $114 $279 $284 forward $50 $-1 #
edge $285 -1 -1 $-1 $198 -7.2990563999999996 $282 7.2990563999999996 $189 $286 forward @7 unknown T -7.2990563999999996 -7.2990563999999996 -7.2990563999999996 7.2990563999999996 -7.2990563999999996 -7.2990563999999996 #
coedge $-1 -1 -1 $-1 $203 $202 $115 $195 reversed $186 $-1 #
edge $287 -1 -1 $-1 $288 -7.2990563999999996 $197 7.2990563999999996 $194 $289 forward @7 unknown T -7.2990563999999996 7.2990563999999996 -7.2990563999999996 7.2990563999999996 7.2990563999999996 -7.2990563999999996 #
simple-snl-attrib $-1 -1 $-1 $-1 $117 1 1 1 1 1 1 1 1 1 1 1 1 0 1 0 1 1 1 @17 NEW_SIMPLE_ATTRIB 1 @9 ENTITY_ID 0 3 113 -2147483648 -1 #
vertex $290 -1 -1 $-1 $117 $291 #
vertex $292 -1 -1 $-1 $211 $293 #
straight-curve $-1 -1 -1 $-1 7.2990563999999996 0 -7.2990563999999996 0 -1 0 I I #
coedge $-1 -1 -1 $-1 $188 $190 $118 $201 reversed $111 $-1 #
edge $294 -1 -1 $-1 $205 -7.2990563999999996 $209 7.2990563999999996 $200 $295 forward @7 unknown T -7.2990563999999996 -7.2990563999999996 7.2990563999999996 -7.2990563999999996 7.2990563999999996 7.2990563999999996 #
coedge $-1 -1 -1 $-1 $194 $119 $124 $212 forward $186 $-1 #
coedge $-1 -1 -1 $-1 $119 $194 $188 $280 reversed $186 $-1 #
simple-snl-attrib $-1 -1 $-1 $-1 $120 1 1 1 1 1 1 1 1 1 1 1 1 0 1 0 1 1 1 @17 NEW_SIMPLE_ATTRIB 1 @9 ENTITY_ID 0 3 110 -2147483648 -1 #
vertex $296 -1 -1 $-1 $120 $297 #
straight-curve $-1 -1 -1 $-1 0 7.2990563999999996 7.2990563999999996 -1 0 0 I I #
coedge $-1 -1 -1 $-1 $121 $189 $123 $211 reversed $71 $-1 #
simple-snl-attrib $-1 -1 $-1 $-1 $122 1 1 1 1 1 1 1 1 1 1 1 1 0 1 0 1 1 1 @17 NEW_SIMPLE_ATTRIB 1 @9 ENTITY_ID 0 3 112 -2147483648 -1 #
vertex $298 -1 -1 $-1 $201 $299 #
straight-curve $-1 -1 -1 $-1 0 -7.2990563999999996 7.2990563999999996 1 0 0 I I #
edge $300 -1 -1 $-1 $127 -7.2990563999999996 $198 7.2990563999999996 $123 $301 forward @7 unknown T 7.2990563999999996 -7.2990563999999996 -7.2990563999999996 7.2990563999999996 -7.2990563999999996 7.2990563999999996 #
edge $302 -1 -1 $-1 $128 -7.2990563999999996 $197 7.2990563999999996 $124 $303 forward @7 unknown T 7.2990563999999996 7.2990563999999996 -7.2990563999999996 7.2990563999999996 7.2990563999999996 7.2990563999999996 #
simple-snl-attrib $-1 -1 $-1 $-1 $127 1 1 1 1 1 1 1 1 1 1 1 1 0 1 0 1 1 1 @17 NEW_SIMPLE_ATTRIB 1 @9 ENTITY_ID 0 3 73 -2147483648 -1 #
point $-1 -1 -1 $-1 7.2990563999999996 -7.2990563999999996 7.2990563999999996 #
simple-snl-attrib $-1 -1 $-1 $-1 $128 1 1 1 1 1 1 1 1 1 1 1 1 0 1 0 1 1 1 @17 NEW_SIMPLE_ATTRIB 1 @9 ENTITY_ID 0 3 74 -2147483648 -1 #
point $-1 -1 -1 $-1 7.2990563999999996 7.2990563999999996 7.2990563999999996 #
simple-snl-attrib $-1 -1 $-1 $-1 $131 1 1 1 1 1 1 1 1 1 1 1 1 0 1 0 1 1 1 @17 NEW_SIMPLE_ATTRIB 1 @9 ENTITY_ID 0 3 11 -2147483648 -1 #
face $304 -1 -1 $-1 $-1 $146 $18 $-1 $305 forward single T 7.2990563999999996 -7.2990563999999996 -7.2990563999999996 7.2990563999999996 7.2990563999999996 7.2990563999999996 F #
loop $-1 -1 -1 $-1 $-1 $240 $131 T -7.2990563999999996 7.2990563999999996 -7.2990563999999996 7.2990563999999996 7.2990563999999996 7.2990563999999996 unknown #
plane-surface $-1 -1 -1 $-1 0 7.2990563999999996 0 0 -1 0 0 0 -1 forward_v I I I I #
coedge $-1 -1 -1 $-1 $233 $306 $239 $307 reversed $132 $-1 #
coedge $-1 -1 -1 $-1 $134 $235 $136 $228 forward $80 $-1 #
coedge $-1 -1 -1 $-1 $306 $233 $134 $224 forward $132 $-1 #
edge $308 -1 -1 $-1 $237 -7.2990563999999996 $309 7.2990563999999996 $223 $310 forward @7 unknown T -7.2990563999999996 -7.2990563999999996 -7.2990563999999996 -7.2990563999999996 -7.2990563999999996 7.2990563999999996 #
coedge $-1 -1 -1 $-1 $136 $135 $306 $311 reversed $55 $-1 #
coedge $-1 -1 -1 $-1 $240 $239 $135 $227 forward $219 $-1 #
edge $312 -1 -1 $-1 $313 -7.2990563999999996 $230 7.2990563999999996 $226 $314 forward @7 unknown T -7.2990563999999996 7.2990563999999996 -7.2990563999999996 7.2990563999999996 7.2990563999999996 -7.2990563999999996 #
edge $315 -1 -1 $-1 $231 -7.2990563999999996 $309 7.2990563999999996 $222 $316 forward @7 unknown T -7.2990563999999996 -7.2990563999999996 -7.2990563999999996 7.2990563999999996 -7.2990563999999996 -7.2990563999999996 #
simple-snl-attrib $-1 -1 $-1 $-1 $138 1 1 1 1 1 1 1 1 1 1 1 1 0 1 0 1 1 1 @17 NEW_SIMPLE_ATTRIB 1 @9 ENTITY_ID 0 3 65 -2147483648 -1 #
vertex $317 -1 -1 $-1 $138 $318 #
vertex $319 -1 -1 $-1 $245 $320 #
straight-curve $-1 -1 -1 $-1 7.2990563999999996 0 -7.2990563999999996 0 -1 0 I I #
coedge $-1 -1 -1 $-1 $223 $221 $139 $234 forward $132 $-1 #
edge $321 -1 -1 $-1 $242 -7.2990563999999996 $237 7.2990563999999996 $233 $322 forward @7 unknown T -7.2990563999999996 -7.2990563999999996 7.2990563999999996 -7.2990563999999996 7.2990563999999996 7.2990563999999996 #
coedge $-1 -1 -1 $-1 $222 $140 $145 $245 forward $80 $-1 #
simple-snl-attrib $-1 -1 $-1 $-1 $141 1 1 1 1 1 1 1 1 1 1 1 1 0 1 0 1 1 1 @17 NEW_SIMPLE_ATTRIB 1 @9 ENTITY_ID 0 3 62 -2147483648 -1 #
vertex $323 -1 -1 $-1 $234 $324 #
straight-curve $-1 -1 -1 $-1 0 -7.2990563999999996 7.2990563999999996 1 0 0 I I #
coedge $-1 -1 -1 $-1 $226 $142 $221 $307 forward $219 $-1 #
coedge $-1 -1 -1 $-1 $142 $226 $144 $244 reversed $219 $-1 #
simple-snl-attrib $-1 -1 $-1 $-1 $143 1 1 1 1 1 1 1 1 1 1 1 1 0 1 0 1 1 1 @17 NEW_SIMPLE_ATTRIB 1 @9 ENTITY_ID 0 3 64 -2147483648 -1 #
vertex $325 -1 -1 $-1 $143 $326 #
straight-curve $-1 -1 -1 $-1 0 7.2990563999999996 7.2990563999999996 -1 0 0 I I #
edge $327 -1 -1 $-1 $149 -7.2990563999999996 $230 7.2990563999999996 $144 $328 forward @7 unknown T 7.2990563999999996 7.2990563999999996 -7.2990563999999996 7.2990563999999996 7.2990563999999996 7.2990563999999996 #
edge $329 -1 -1 $-1 $148 -7.2990563999999996 $231 7.2990563999999996 $145 $330 forward @7 unknown T 7.2990563999999996 -7.2990563999999996 -7.2990563999999996 7.2990563999999996 -7.2990563999999996 7.2990563999999996 #
simple-snl-attrib $-1 -1 $-1 $-1 $148 1 1 1 1 1 1 1 1 1 1 1 1 0 1 0 1 1 1 @17 NEW_SIMPLE_ATTRIB 1 @9 ENTITY_ID 0 3 41 -2147483648 -1 #
point $-1 -1 -1 $-1 7.2990563999999996 -7.2990563999999996 7.2990563999999996 #
simple-snl-attrib $-1 -1 $-1 $-1 $149 1 1 1 1 1 1 1 1 1 1 1 1 0 1 0 1 1 1 @17 NEW_SIMPLE_ATTRIB 1 @9 ENTITY_ID 0 3 42 -2147483648 -1 #
point $-1 -1 -1 $-1 7.2990563999999996 7.2990563999999996 7.2990563999999996 #
simple-snl-attrib $-1 -1 $-1 $-1 $152 1 1 1 1 1 1 1 1 1 1 1 1 0 1 0 1 1 1 @17 NEW_SIMPLE_ATTRIB 1 @9 ENTITY_ID 0 3 6 -2147483648 -1 #
plane-surface $-1 -1 -1 $-1 7.4450375279999994 0 0 -1 0 0 0 -0 1 forward_v I I I I #
coedge $-1 -1 -1 $-1 $157 $155 $159 $257 reversed $89 $-1 #
edge $331 -1 -1 $-1 $172 -7.4450375279999994 $261 7.4450375279999994 $170 $332 forward @7 unknown T -7.4450375279999994 7.4450375279999994 -7.4450375279999994 -7.4450375279999994 7.4450375279999994 7.4450375279999994 #
simple-snl-attrib $-1 -1 $-1 $-1 $158 1 1 1 1 1 1 1 1 1 1 1 1 0 1 0 1 1 1 @17 NEW_SIMPLE_ATTRIB 1 @9 ENTITY_ID 0 3 45 -2147483648 -1 #
vertex $333 -1 -1 $-1 $257 $334 #
straight-curve $-1 -1 -1 $-1 -7.4450375279999994 -7.4450375279999994 0 0 0 -1 I I #
edge $335 -1 -1 $-1 $255 -7.4450375279999994 $261 7.4450375279999994 $252 $336 forward @7 unknown T -7.4450375279999994 -7.4450375279999994 -7.4450375279999994 -7.4450375279999994 7.4450375279999994 -7.4450375279999994 #
simple-snl-attrib $-1 -1 $-1 $-1 $160 1 1 1 1 1 1 1 1 1 1 1 1 0 1 0 1 1 1 @17 NEW_SIMPLE_ATTRIB 1 @9 ENTITY_ID 0 3 42 -2147483648 -1 #
straight-curve $-1 -1 -1 $-1 0 -7.4450375279999994 -7.4450375279999994 -1 0 0 I I #
simple-snl-attrib $-1 -1 $-1 $-1 $162 1 1 1 1 1 1 1 1 1 1 1 1 0 1 0 1 1 1 @17 NEW_SIMPLE_ATTRIB 1 @9 ENTITY_ID 0 3 44 -2147483648 -1 #
vertex $337 -1 -1 $-1 $162 $338 #
straight-curve $-1 -1 -1 $-1 0 7.4450375279999994 -7.4450375279999994 1 0 0 I I #
simple-snl-attrib $-1 -1 $-1 $-1 $164 1 1 1 1 1 1 1 1 1 1 1 1 0 1 0 1 1 1 @17 NEW_SIMPLE_ATTRIB 1 @9 ENTITY_ID 0 3 29 -2147483648 -1 #
point $-1 -1 -1 $-1 7.4450375279999994 7.4450375279999994 -7.4450375279999994 #
simple-snl-attrib $-1 -1 $-1 $-1 $165 1 1 1 1 1 1 1 1 1 1 1 1 0 1 0 1 1 1 @17 NEW_SIMPLE_ATTRIB 1 @9 ENTITY_ID 0 3 30 -2147483648 -1 #
point $-1 -1 -1 $-1 7.4450375279999994 -7.4450375279999994 -7.4450375279999994 #
simple-snl-attrib $-1 -1 $-1 $-1 $168 1 1 1 1 1 1 1 1 1 1 1 1 0 1 0 1 1 1 @17 NEW_SIMPLE_ATTRIB 1 @9 ENTITY_ID 0 3 39 -2147483648 -1 #
straight-curve $-1 -1 -1 $-1 -7.4450375279999994 0 7.4450375279999994 0 -1 0 I I #
simple-snl-attrib $-1 -1 $-1 $-1 $172 1 1 1 1 1 1 1 1 1 1 1 1 0 1 0 1 1 1 @17 NEW_SIMPLE_ATTRIB 1 @9 ENTITY_ID 0 3 27 -2147483648 -1 #
point $-1 -1 -1 $-1 -7.4450375279999994 7.4450375279999994 7.4450375279999994 #
simple-snl-attrib $-1 -1 $-1 $-1 $176 1 1 1 1 1 1 1 1 1 1 1 1 0 1 0 1 1 1 @17 NEW_SIMPLE_ATTRIB 1 @9 ENTITY_ID 0 3 28 -2147483648 -1 #
point $-1 -1 -1 $-1 -7.4450375279999994 -7.4450375279999994 7.4450375279999994 #
simple-snl-attrib $-1 -1 $-1 $-1 $178 1 1 1 1 1 1 1 1 1 1 1 1 0 1 0 1 1 1 @17 NEW_SIMPLE_ATTRIB 1 @9 ENTITY_ID 0 3 46 -2147483648 -1 #
straight-curve $-1 -1 -1 $-1 7.4450375279999994 -7.4450375279999994 0 0 0 -1 I I #
simple-snl-attrib $-1 -1 $-1 $-1 $179 1 1 1 1 1 1 1 1 1 1 1 1 0 1 0 1 1 1 @17 NEW_SIMPLE_ATTRIB 1 @9 ENTITY_ID 0 3 48 -2147483648 -1 #
straight-curve $-1 -1 -1 $-1 7.4450375279999994 7.4450375279999994 0 0 0 -1 I I #
simple-snl-attrib $-1 -1 $-1 $-1 $185 1 1 1 1 1 1 1 1 1 1 1 1 0 1 0 1 1 1 @17 NEW_SIMPLE_ATTRIB 1 @9 ENTITY_ID 0 3 19 -2147483648 -1 #
plane-surface $-1 -1 -1 $-1 7.2990563999999996 0 0 -1 0 0 0 -0 1 forward_v I I I I #
coedge $-1 -1 -1 $-1 $190 $188 $192 $284 reversed $111 $-1 #
edge $339 -1 -1 $-1 $205 -7.2990563999999996 $288 7.2990563999999996 $203 $340 forward @7 unknown T -7.2990563999999996 7.2990563999999996 -7.2990563999999996 -7.2990563999999996 7.2990563999999996 7.2990563999999996 #
simple-snl-attrib $-1 -1 $-1 $-1 $191 1 1 1 1 1 1 1 1 1 1 1 1 0 1 0 1 1 1 @17 NEW_SIMPLE_ATTRIB 1 @9 ENTITY_ID 0 3 117 -2147483648 -1 #
vertex $341 -1 -1 $-1 $284 $342 #
straight-curve $-1 -1 -1 $-1 -7.2990563999999996 -7.2990563999999996 0 0 0 -1 I I #
edge $343 -1 -1 $-1 $282 -7.2990563999999996 $288 7.2990563999999996 $279 $344 forward @7 unknown T -7.2990563999999996 -7.2990563999999996 -7.2990563999999996 -7.2990563999999996 7.2990563999999996 -7.2990563999999996 #
simple-snl-attrib $-1 -1 $-1 $-1 $193 1 1 1 1 1 1 1 1 1 1 1 1 0 1 0 1 1 1 @17 NEW_SIMPLE_ATTRIB 1 @9 ENTITY_ID 0 3 114 -2147483648 -1 #
straight-curve $-1 -1 -1 $-1 0 -7.2990563999999996 -7.2990563999999996 -1 0 0 I I #
simple-snl-attrib $-1 -1 $-1 $-1 $195 1 1 1 1 1 1 1 1 1 1 1 1 0 1 0 1 1 1 @17 NEW_SIMPLE_ATTRIB 1 @9 ENTITY_ID 0 3 116 -2147483648 -1 #
vertex $345 -1 -1 $-1 $195 $346 #
straight-curve $-1 -1 -1 $-1 0 7.2990563999999996 -7.2990563999999996 1 0 0 I I #
simple-snl-attrib $-1 -1 $-1 $-1 $197 1 1 1 1 1 1 1 1 1 1 1 1 0 1 0 1 1 1 @17 NEW_SIMPLE_ATTRIB 1 @9 ENTITY_ID 0 3 77 -2147483648 -1 #
point $-1 -1 -1 $-1 7.2990563999999996 7.2990563999999996 -7.2990563999999996 #
simple-snl-attrib $-1 -1 $-1 $-1 $198 1 1 1 1 1 1 1 1 1 1 1 1 0 1 0 1 1 1 @17 NEW_SIMPLE_ATTRIB 1 @9 ENTITY_ID 0 3 78 -2147483648 -1 #
point $-1 -1 -1 $-1 7.2990563999999996 -7.2990563999999996 -7.2990563999999996 #
simple-snl-attrib $-1 -1 $-1 $-1 $201 1 1 1 1 1 1 1 1 1 1 1 1 0 1 0 1 1 1 @17 NEW_SIMPLE_ATTRIB 1 @9 ENTITY_ID 0 3 111 -2147483648 -1 #
straight-curve $-1 -1 -1 $-1 -7.2990563999999996 0 7.2990563999999996 0 -1 0 I I #
simple-snl-attrib $-1 -1 $-1 $-1 $205 1 1 1 1 1 1 1 1 1 1 1 1 0 1 0 1 1 1 @17 NEW_SIMPLE_ATTRIB 1 @9 ENTITY_ID 0 3 75 -2147483648 -1 #
point $-1 -1 -1 $-1 -7.2990563999999996 7.2990563999999996 7.2990563999999996 #
simple-snl-attrib $-1 -1 $-1 $-1 $209 1 1 1 1 1 1 1 1 1 1 1 1 0 1 0 1 1 1 @17 NEW_SIMPLE_ATTRIB 1 @9 ENTITY_ID 0 3 76 -2147483648 -1 #
point $-1 -1 -1 $-1 -7.2990563999999996 -7.2990563999999996 7.2990563999999996 #
simple-snl-attrib $-1 -1 $-1 $-1 $211 1 1 1 1 1 1 1 1 1 1 1 1 0 1 0 1 1 1 @17 NEW_SIMPLE_ATTRIB 1 @9 ENTITY_ID 0 3 118 -2147483648 -1 #
straight-curve $-1 -1 -1 $-1 7.2990563999999996 -7.2990563999999996 0 0 0 -1 I I #
simple-snl-attrib $-1 -1 $-1 $-1 $212 1 1 1 1 1 1 1 1 1 1 1 1 0 1 0 1 1 1 @17 NEW_SIMPLE_ATTRIB 1 @9 ENTITY_ID 0 3 120 -2147483648 -1 #
straight-curve $-1 -1 -1 $-1 7.2990563999999996 7.2990563999999996 0 0 0 -1 I I #
simple-snl-attrib $-1 -1 $-1 $-1 $218 1 1 1 1 1 1 1 1 1 1 1 1 0 1 0 1 1 1 @17 NEW_SIMPLE_ATTRIB 1 @9 ENTITY_ID 0 3 12 -2147483648 -1 #
plane-surface $-1 -1 -1 $-1 7.2990563999999996 0 0 -1 0 0 0 -0 1 forward_v I I I I #
coedge $-1 -1 -1 $-1 $221 $223 $225 $311 forward $132 $-1 #
edge $347 -1 -1 $-1 $242 -7.2990563999999996 $313 7.2990563999999996 $239 $348 forward @7 unknown T -7.2990563999999996 7.2990563999999996 -7.2990563999999996 -7.2990563999999996 7.2990563999999996 7.2990563999999996 #
simple-snl-attrib $-1 -1 $-1 $-1 $224 1 1 1 1 1 1 1 1 1 1 1 1 0 1 0 1 1 1 @17 NEW_SIMPLE_ATTRIB 1 @9 ENTITY_ID 0 3 69 -2147483648 -1 #
vertex $349 -1 -1 $-1 $311 $350 #
straight-curve $-1 -1 -1 $-1 -7.2990563999999996 -7.2990563999999996 0 0 0 -1 I I #
edge $351 -1 -1 $-1 $309 -7.2990563999999996 $313 7.2990563999999996 $306 $352 forward @7 unknown T -7.2990563999999996 -7.2990563999999996 -7.2990563999999996 -7.2990563999999996 7.2990563999999996 -7.2990563999999996 #
simple-snl-attrib $-1 -1 $-1 $-1 $227 1 1 1 1 1 1 1 1 1 1 1 1 0 1 0 1 1 1 @17 NEW_SIMPLE_ATTRIB 1 @9 ENTITY_ID 0 3 66 -2147483648 -1 #
vertex $353 -1 -1 $-1 $227 $354 #
straight-curve $-1 -1 -1 $-1 0 7.2990563999999996 -7.2990563999999996 1 0 0 I I #
simple-snl-attrib $-1 -1 $-1 $-1 $228 1 1 1 1 1 1 1 1 1 1 1 1 0 1 0 1 1 1 @17 NEW_SIMPLE_ATTRIB 1 @9 ENTITY_ID 0 3 68 -2147483648 -1 #
straight-curve $-1 -1 -1 $-1 0 -7.2990563999999996 -7.2990563999999996 -1 0 0 I I #
simple-snl-attrib $-1 -1 $-1 $-1 $230 1 1 1 1 1 1 1 1 1 1 1 1 0 1 0 1 1 1 @17 NEW_SIMPLE_ATTRIB 1 @9 ENTITY_ID 0 3 45 -2147483648 -1 #
point $-1 -1 -1 $-1 7.2990563999999996 7.2990563999999996 -7.2990563999999996 #
simple-snl-attrib $-1 -1 $-1 $-1 $231 1 1 1 1 1 1 1 1 1 1 1 1 0 1 0 1 1 1 @17 NEW_SIMPLE_ATTRIB 1 @9 ENTITY_ID 0 3 46 -2147483648 -1 #
point $-1 -1 -1 $-1 7.2990563999999996 -7.2990563999999996 -7.2990563999999996 #
simple-snl-attrib $-1 -1 $-1 $-1 $234 1 1 1 1 1 1 1 1 1 1 1 1 0 1 0 1 1 1 @17 NEW_SIMPLE_ATTRIB 1 @9 ENTITY_ID 0 3 63 -2147483648 -1 #
straight-curve $-1 -1 -1 $-1 -7.2990563999999996 0 7.2990563999999996 0 -1 0 I I #
simple-snl-attrib $-1 -1 $-1 $-1 $237 1 1 1 1 1 1 1 1 1 1 1 1 0 1 0 1 1 1 @17 NEW_SIMPLE_ATTRIB 1 @9 ENTITY_ID 0 3 43 -2147483648 -1 #
point $-1 -1 -1 $-1 -7.2990563999999996 -7.2990563999999996 7.2990563999999996 #
simple-snl-attrib $-1 -1 $-1 $-1 $242 1 1 1 1 1 1 1 1 1 1 1 1 0 1 0 1 1 1 @17 NEW_SIMPLE_ATTRIB 1 @9 ENTITY_ID 0 3 44 -2147483648 -1 #
point $-1 -1 -1 $-1 -7.2990563999999996 7.2990563999999996 7.2990563999999996 #
simple-snl-attrib $-1 -1 $-1 $-1 $244 1 1 1 1 1 1 1 1 1 1 1 1 0 1 0 1 1 1 @17 NEW_SIMPLE_ATTRIB 1 @9 ENTITY_ID 0 3 72 -2147483648 -1 #
straight-curve $-1 -1 -1 $-1 7.2990563999999996 7.2990563999999996 0 0 0 -1 I I #
simple-snl-attrib $-1 -1 $-1 $-1 $245 1 1 1 1 1 1 1 1 1 1 1 1 0 1 0 1 1 1 @17 NEW_SIMPLE_ATTRIB 1 @9 ENTITY_ID 0 3 70 -2147483648 -1 #
straight-curve $-1 -1 -1 $-1 7.2990563999999996 -7.2990563999999996 0 0 0 -1 I I #
simple-snl-attrib $-1 -1 $-1 $-1 $253 1 1 1 1 1 1 1 1 1 1 1 1 0 1 0 1 1 1 @17 NEW_SIMPLE_ATTRIB 1 @9 ENTITY_ID 0 3 47 -2147483648 -1 #
straight-curve $-1 -1 -1 $-1 -7.4450375279999994 7.4450375279999994 0 0 0 -1 I I #
simple-snl-attrib $-1 -1 $-1 $-1 $255 1 1 1 1 1 1 1 1 1 1 1 1 0 1 0 1 1 1 @17 NEW_SIMPLE_ATTRIB 1 @9 ENTITY_ID 0 3 31 -2147483648 -1 #
point $-1 -1 -1 $-1 -7.4450375279999994 -7.4450375279999994 -7.4450375279999994 #
simple-snl-attrib $-1 -1 $-1 $-1 $257 1 1 1 1 1 1 1 1 1 1 1 1 0 1 0 1 1 1 @17 NEW_SIMPLE_ATTRIB 1 @9 ENTITY_ID 0 3 43 -2147483648 -1 #
straight-curve $-1 -1 -1 $-1 -7.4450375279999994 0 -7.4450375279999994 0 1 0 I I #
simple-snl-attrib $-1 -1 $-1 $-1 $261 1 1 1 1 1 1 1 1 1 1 1 1 0 1 0 1 1 1 @17 NEW_SIMPLE_ATTRIB 1 @9 ENTITY_ID 0 3 32 -2147483648 -1 #
point $-1 -1 -1 $-1 -7.4450375279999994 7.4450375279999994 -7.4450375279999994 #
simple-snl-attrib $-1 -1 $-1 $-1 $280 1 1 1 1 1 1 1 1 1 1 1 1 0 1 0 1 1 1 @17 NEW_SIMPLE_ATTRIB 1 @9 ENTITY_ID 0 3 119 -2147483648 -1 #
straight-curve $-1 -1 -1 $-1 -7.2990563999999996 7.2990563999999996 0 0 0 -1 I I #
simple-snl-attrib $-1 -1 $-1 $-1 $282 1 1 1 1 1 1 1 1 1 1 1 1 0 1 0 1 1 1 @17 NEW_SIMPLE_ATTRIB 1 @9 ENTITY_ID 0 3 79 -2147483648 -1 #
point $-1 -1 -1 $-1 -7.2990563999999996 -7.2990563999999996 -7.2990563999999996 #
simple-snl-attrib $-1 -1 $-1 $-1 $284 1 1 1 1 1 1 1 1 1 1 1 1 0 1 0 1 1 1 @17 NEW_SIMPLE_ATTRIB 1 @9 ENTITY_ID 0 3 115 -2147483648 -1 #
straight-curve $-1 -1 -1 $-1 -7.2990563999999996 0 -7.2990563999999996 0 1 0 I I #
simple-snl-attrib $-1 -1 $-1 $-1 $288 1 1 1 1 1 1 1 1 1 1 1 1 0 1 0 1 1 1 @17 NEW_SIMPLE_ATTRIB 1 @9 ENTITY_ID 0 3 80 -2147483648 -1 #
point $-1 -1 -1 $-1 -7.2990563999999996 7.2990563999999996 -7.2990563999999996 #
simple-snl-attrib $-1 -1 $-1 $-1 $307 1 1 1 1 1 1 1 1 1 1 1 1 0 1 0 1 1 1 @17 NEW_SIMPLE_ATTRIB 1 @9 ENTITY_ID 0 3 71 -2147483648 -1 #
straight-curve $-1 -1 -1 $-1 -7.2990563999999996 7.2990563999999996 0 0 0 -1 I I #
simple-snl-attrib $-1 -1 $-1 $-1 $309 1 1 1 1 1 1 1 1 1 1 1 1 0 1 0 1 1 1 @17 NEW_SIMPLE_ATTRIB 1 @9 ENTITY_ID 0 3 48 -2147483648 -1 #
point $-1 -1 -1 $-1 -7.2990563999999996 -7.2990563999999996 -7.2990563999999996 #
simple-snl-attrib $-1 -1 $-1 $-1 $311 1 1 1 1 1 1 1 1 1 1 1 1 0 1 0 1 1 1 @17 NEW_SIMPLE_ATTRIB 1 @9 ENTITY_ID 0 3 67 -2147483648 -1 #
straight-curve $-1 -1 -1 $-1 -7.2990563999999996 0 -7.2990563999999996 0 1 0 I I #
simple-snl-attrib $-1 -1 $-1 $-1 $313 1 1 1 1 1 1 1 1 1 1 1 1 0 1 0 1 1 1 @17 NEW_SIMPLE_ATTRIB 1 @9 ENTITY_ID 0 3 47 -2147483648 -1 #
point $-1 -1 -1 $-1 -7.2990563999999996 7.2990563999999996 -7.2990563999999996 #
End-of-ACIS-data 