1900 0 6 0           
10 Cubit 12.2 17 ACIS 19.0.2 Linux 24 Mon Jul  9 14:53:40 2012 
1 9.9999999999999995e-07 1e-10 
body $6 -1 -1 $-1 $7 $-1 $8 T -1.002 -1.002 -1.002 1.002 1.002 1.002 #
body $9 -1 -1 $-1 $10 $-1 $11 T -1.0029999999999999 -1.0029999999999999 0 1.0029999999999999 1.0029999999999999 1.0029999999999999 #
body $12 -1 -1 $-1 $13 $-1 $14 T -1.0029999999999999 -1.0029999999999999 -1.0029999999999999 1.0029999999999999 1.0029999999999999 0 #
body $15 -1 -1 $-1 $16 $-1 $17 T -1.5 -1.5 -1.5 1.5 1.5 1.5 #
body $18 -1 -1 $-1 $19 $-1 $20 T -1 -1 -1 1 1 1 #
body $21 -1 -1 $-1 $22 $-1 $23 T -1.0009999999999999 -1.0009999999999999 -1.0009999999999999 1.0009999999999999 1.0009999999999999 1.0009999999999999 #
integer_attrib-name_attrib-gen-attrib $-1 -1 $24 $-1 $0 2 1 1 1 1 1 1 1 1 1 1 1 1 1 0 1 1 1 @8 CUBIT_ID 2 #
lump $25 -1 -1 $-1 $-1 $26 $0 T -1.002 -1.002 -1.002 1.002 1.002 1.002 #
transform $-1 -1 1 0 0 0 1 0 0 0 1 0 0 0 1 no_rotate no_reflect no_shear #
integer_attrib-name_attrib-gen-attrib $-1 -1 $27 $-1 $1 2 1 1 1 1 1 1 1 1 1 1 1 1 1 0 1 1 1 @8 CUBIT_ID 4 #
lump $28 -1 -1 $-1 $-1 $29 $1 T -1.0029999999999999 -1.0029999999999999 0 1.0029999999999999 1.0029999999999999 1.0029999999999999 #
transform $-1 -1 1 0 0 0 1 0 0 0 1 0 0 0 1 no_rotate no_reflect no_shear #
integer_attrib-name_attrib-gen-attrib $-1 -1 $30 $-1 $2 2 1 1 1 1 1 1 1 1 1 1 1 1 1 0 1 1 1 @8 CUBIT_ID 7 #
lump $31 -1 -1 $-1 $-1 $32 $2 T -1.0029999999999999 -1.0029999999999999 -1.0029999999999999 1.0029999999999999 1.0029999999999999 0 #
transform $-1 -1 1 0 0 0 1 0 0 0 1 0 0 0 1 no_rotate no_reflect no_shear #
integer_attrib-name_attrib-gen-attrib $-1 -1 $33 $-1 $3 2 1 1 1 1 1 1 1 1 1 1 1 1 1 0 1 1 1 @8 CUBIT_ID 9 #
lump $34 -1 -1 $-1 $-1 $35 $3 T -1.5 -1.5 -1.5 1.5 1.5 1.5 #
transform $-1 -1 1 0 0 0 1 0 0 0 1 0 0 0 1 no_rotate no_reflect no_shear #
integer_attrib-name_attrib-gen-attrib $-1 -1 $36 $-1 $4 2 1 1 1 1 1 1 1 1 1 1 1 1 1 0 1 1 1 @8 CUBIT_ID 10 #
lump $37 -1 -1 $-1 $-1 $38 $4 T -1 -1 -1 1 1 1 #
transform $-1 -1 1 0 0 0 1 0 0 0 1 0 0 0 1 no_rotate no_reflect no_shear #
integer_attrib-name_attrib-gen-attrib $-1 -1 $39 $-1 $5 2 1 1 1 1 1 1 1 1 1 1 1 1 1 0 1 1 1 @8 CUBIT_ID 11 #
lump $40 -1 -1 $-1 $-1 $41 $5 T -1.0009999999999999 -1.0009999999999999 -1.0009999999999999 1.0009999999999999 1.0009999999999999 1.0009999999999999 #
transform $-1 -1 1 0 0 0 1 0 0 0 1 0 0 0 1 no_rotate no_reflect no_shear #
simple-snl-attrib $-1 -1 $-1 $6 $0 1 1 1 1 1 1 1 1 1 1 1 1 0 1 0 1 1 1 @17 NEW_SIMPLE_ATTRIB 1 @9 ENTITY_ID 0 3 2 -2147483648 -1 #
integer_attrib-name_attrib-gen-attrib $-1 -1 $42 $-1 $7 2 1 1 1 1 1 1 1 1 1 1 1 1 1 0 1 1 1 @8 CUBIT_ID 4 #
shell $-1 -1 -1 $-1 $43 $-1 $44 $-1 $7 T -1.002 -1.002 -1.002 1.002 1.002 1.002 #
simple-snl-attrib $-1 -1 $-1 $9 $1 1 1 1 1 1 1 1 1 1 1 1 1 0 1 0 1 1 1 @17 NEW_SIMPLE_ATTRIB 1 @9 ENTITY_ID 0 3 4 -2147483648 -1 #
integer_attrib-name_attrib-gen-attrib $-1 -1 $45 $-1 $10 2 1 1 1 1 1 1 1 1 1 1 1 1 1 0 1 1 1 @8 CUBIT_ID 5 #
shell $-1 -1 -1 $-1 $-1 $-1 $46 $-1 $10 T -1.0029999999999999 -1.0029999999999999 0 1.0029999999999999 1.0029999999999999 1.0029999999999999 #
simple-snl-attrib $-1 -1 $-1 $12 $2 1 1 1 1 1 1 1 1 1 1 1 1 0 1 0 1 1 1 @17 NEW_SIMPLE_ATTRIB 1 @9 ENTITY_ID 0 3 7 -2147483648 -1 #
integer_attrib-name_attrib-gen-attrib $-1 -1 $47 $-1 $13 2 1 1 1 1 1 1 1 1 1 1 1 1 1 0 1 1 1 @8 CUBIT_ID 8 #
shell $-1 -1 -1 $-1 $-1 $-1 $48 $-1 $13 T -1.0029999999999999 -1.0029999999999999 -1.0029999999999999 1.0029999999999999 1.0029999999999999 0 #
simple-snl-attrib $-1 -1 $-1 $15 $3 1 1 1 1 1 1 1 1 1 1 1 1 0 1 0 1 1 1 @17 NEW_SIMPLE_ATTRIB 1 @9 ENTITY_ID 0 3 9 -2147483648 -1 #
integer_attrib-name_attrib-gen-attrib $-1 -1 $49 $-1 $16 2 1 1 1 1 1 1 1 1 1 1 1 1 1 0 1 1 1 @8 CUBIT_ID 10 #
shell $-1 -1 -1 $-1 $50 $-1 $51 $-1 $16 T -1.5 -1.5 -1.5 1.5 1.5 1.5 #
simple-snl-attrib $-1 -1 $-1 $18 $4 1 1 1 1 1 1 1 1 1 1 1 1 0 1 0 1 1 1 @17 NEW_SIMPLE_ATTRIB 1 @9 ENTITY_ID 0 3 10 -2147483648 -1 #
integer_attrib-name_attrib-gen-attrib $-1 -1 $52 $-1 $19 2 1 1 1 1 1 1 1 1 1 1 1 1 1 0 1 1 1 @8 CUBIT_ID 11 #
shell $-1 -1 -1 $-1 $-1 $-1 $53 $-1 $19 T -1 -1 -1 1 1 1 #
simple-snl-attrib $-1 -1 $-1 $21 $5 1 1 1 1 1 1 1 1 1 1 1 1 0 1 0 1 1 1 @17 NEW_SIMPLE_ATTRIB 1 @9 ENTITY_ID 0 3 11 -2147483648 -1 #
integer_attrib-name_attrib-gen-attrib $-1 -1 $54 $-1 $22 2 1 1 1 1 1 1 1 1 1 1 1 1 1 0 1 1 1 @8 CUBIT_ID 12 #
shell $-1 -1 -1 $-1 $55 $-1 $56 $-1 $22 T -1.0009999999999999 -1.0009999999999999 -1.0009999999999999 1.0009999999999999 1.0009999999999999 1.0009999999999999 #
simple-snl-attrib $-1 -1 $57 $25 $7 1 1 1 1 1 1 1 1 1 1 1 1 0 1 0 1 1 1 @17 NEW_SIMPLE_ATTRIB 1 @9 ENTITY_ID 0 3 4 -2147483648 -1 #
shell $-1 -1 -1 $-1 $-1 $-1 $58 $-1 $7 T -1.0009999999999999 -1.0009999999999999 -1.0009999999999999 1.0009999999999999 1.0009999999999999 1.0009999999999999 #
face $59 -1 -1 $-1 $60 $61 $26 $-1 $62 forward single T -1.002 -1.002 -1.002 1.002 1.002 0 F #
simple-snl-attrib $-1 -1 $63 $28 $10 1 1 1 1 1 1 1 1 1 1 1 1 0 1 0 1 1 1 @17 NEW_SIMPLE_ATTRIB 1 @9 ENTITY_ID 0 3 5 -2147483648 -1 #
face $64 -1 -1 $-1 $65 $66 $29 $-1 $67 reversed single T -1.002 -1.002 0 1.002 1.002 1.002 F #
simple-snl-attrib $-1 -1 $68 $31 $13 1 1 1 1 1 1 1 1 1 1 1 1 0 1 0 1 1 1 @17 NEW_SIMPLE_ATTRIB 1 @9 ENTITY_ID 0 3 8 -2147483648 -1 #
face $69 -1 -1 $-1 $70 $71 $32 $-1 $72 reversed single T -1.002 -1.002 -1.002 1.002 1.002 0 F #
simple-snl-attrib $-1 -1 $73 $34 $16 1 1 1 1 1 1 1 1 1 1 1 1 0 1 0 1 1 1 @17 NEW_SIMPLE_ATTRIB 1 @9 ENTITY_ID 0 3 10 -2147483648 -1 #
shell $-1 -1 -1 $-1 $-1 $-1 $74 $-1 $16 T -1.0029999999999999 -1.0029999999999999 -1.0029999999999999 1.0029999999999999 1.0029999999999999 1.0029999999999999 #
face $75 -1 -1 $-1 $76 $77 $35 $-1 $78 forward single T -1.5 -1.5 1.5 1.5 1.5 1.5 F #
simple-snl-attrib $-1 -1 $79 $37 $19 1 1 1 1 1 1 1 1 1 1 1 1 0 1 0 1 1 1 @17 NEW_SIMPLE_ATTRIB 1 @9 ENTITY_ID 0 3 11 -2147483648 -1 #
face $80 -1 -1 $-1 $-1 $-1 $38 $-1 $81 forward single T -1 -1 -1 1 1 1 F #
simple-snl-attrib $-1 -1 $82 $40 $22 1 1 1 1 1 1 1 1 1 1 1 1 0 1 0 1 1 1 @17 NEW_SIMPLE_ATTRIB 1 @9 ENTITY_ID 0 3 12 -2147483648 -1 #
shell $-1 -1 -1 $-1 $-1 $-1 $83 $-1 $22 T -1 -1 -1 1 1 1 #
face $84 -1 -1 $-1 $-1 $-1 $41 $-1 $85 forward single T -1.0009999999999999 -1.0009999999999999 -1.0009999999999999 1.0009999999999999 1.0009999999999999 1.0009999999999999 F #
simple-snl-attrib $-1 -1 $86 $42 $7 1 1 1 1 1 1 1 1 1 1 1 1 0 1 0 1 1 1 @17 NEW_SIMPLE_ATTRIB 2 @5 GROUP @12 mat_1_rho_-1 0 7 1 2 1515883924 0 0 0 0 #
face $87 -1 -1 $-1 $-1 $-1 $43 $-1 $88 reversed single T -1.0009999999999999 -1.0009999999999999 -1.0009999999999999 1.0009999999999999 1.0009999999999999 1.0009999999999999 F #
integer_attrib-name_attrib-gen-attrib $-1 -1 $89 $-1 $44 2 1 1 1 1 1 1 1 1 1 1 1 1 1 0 1 1 1 @8 CUBIT_ID 17 #
face $90 -1 -1 $-1 $-1 $91 $26 $-1 $62 forward single T -1.002 -1.002 0 1.002 1.002 1.002 F #
loop $-1 -1 -1 $-1 $-1 $92 $44 T -1.002 -1.002 0 1.002 1.002 0 unknown #
sphere-surface $-1 -1 -1 $-1 0 0 0 1.002 1 0 0 0 0 1 forward_v I I I I #
simple-snl-attrib $-1 -1 $-1 $45 $10 1 1 1 1 1 1 1 1 1 1 1 1 0 1 0 1 1 1 @17 NEW_SIMPLE_ATTRIB 7 @16 GRAPHICS_OPTIONS @14 geometry color @10 mesh color @19 geometry visibility @15 mesh visibility @11 render mode @11 transparent 0 6 6 6 1 1 0 0 #
integer_attrib-name_attrib-gen-attrib $-1 -1 $93 $-1 $46 2 1 1 1 1 1 1 1 1 1 1 1 1 1 0 1 1 1 @8 CUBIT_ID 15 #
face $94 -1 -1 $-1 $95 $96 $29 $-1 $97 reversed single T -1.0029999999999999 -1.0029999999999999 0 1.0029999999999999 1.0029999999999999 0 F #
loop $-1 -1 -1 $-1 $-1 $98 $46 T -1.002 -1.002 0 1.002 1.002 0 unknown #
sphere-surface $-1 -1 -1 $-1 0 0 0 1.002 1 0 0 0 0 1 forward_v I I I I #
simple-snl-attrib $-1 -1 $-1 $47 $13 1 1 1 1 1 1 1 1 1 1 1 1 0 1 0 1 1 1 @17 NEW_SIMPLE_ATTRIB 7 @16 GRAPHICS_OPTIONS @14 geometry color @10 mesh color @19 geometry visibility @15 mesh visibility @11 render mode @11 transparent 0 6 2 2 1 1 0 0 #
integer_attrib-name_attrib-gen-attrib $-1 -1 $99 $-1 $48 2 1 1 1 1 1 1 1 1 1 1 1 1 1 0 1 1 1 @8 CUBIT_ID 17 #
face $100 -1 -1 $-1 $101 $102 $32 $-1 $103 reversed single T -1.0029999999999999 -1.0029999999999999 0 1.0029999999999999 1.0029999999999999 0 F #
loop $-1 -1 -1 $-1 $-1 $104 $48 T -1.002 -1.002 0 1.002 1.002 0 unknown #
sphere-surface $-1 -1 -1 $-1 0 0 0 1.002 1 0 -0 0 0 -1 reverse_v I I I I #
simple-snl-attrib $-1 -1 $105 $49 $16 1 1 1 1 1 1 1 1 1 1 1 1 0 1 0 1 1 1 @17 NEW_SIMPLE_ATTRIB 2 @5 GROUP @9 graveyard 0 7 1 6 2077372400 0 0 0 0 #
face $106 -1 -1 $-1 $107 $108 $50 $-1 $109 reversed single T -1.0029999999999999 -1.0029999999999999 0 1.0029999999999999 1.0029999999999999 1.0029999999999999 F #
integer_attrib-name_attrib-gen-attrib $-1 -1 $110 $-1 $51 2 1 1 1 1 1 1 1 1 1 1 1 1 1 0 1 1 1 @8 CUBIT_ID 26 #
face $111 -1 -1 $-1 $112 $113 $35 $-1 $114 reversed single T -1.5 -1.5 -1.5 1.5 1.5 -1.5 F #
loop $-1 -1 -1 $-1 $-1 $115 $51 T -1.5 -1.5 1.5 1.5 1.5 1.5 unknown #
plane-surface $-1 -1 -1 $-1 0 0 1.5 0 0 1 1 0 0 forward_v I I I I #
simple-snl-attrib $-1 -1 $-1 $52 $19 1 1 1 1 1 1 1 1 1 1 1 1 0 1 0 1 1 1 @17 NEW_SIMPLE_ATTRIB 7 @16 GRAPHICS_OPTIONS @14 geometry color @10 mesh color @19 geometry visibility @15 mesh visibility @11 render mode @11 transparent 0 6 14 14 1 1 0 0 #
integer_attrib-name_attrib-gen-attrib $-1 -1 $116 $-1 $53 2 1 1 1 1 1 1 1 1 1 1 1 1 1 0 1 1 1 @8 CUBIT_ID 32 #
sphere-surface $-1 -1 -1 $-1 0 0 0 1 1 0 0 0 0 1 forward_v I I I I #
simple-snl-attrib $-1 -1 $117 $54 $22 1 1 1 1 1 1 1 1 1 1 1 1 0 1 0 1 1 1 @17 NEW_SIMPLE_ATTRIB 2 @5 GROUP @12 mat_1_rho_-1 0 7 1 2 1515883924 1 0 0 0 #
face $118 -1 -1 $-1 $-1 $-1 $55 $-1 $119 reversed single T -1 -1 -1 1 1 1 F #
integer_attrib-name_attrib-gen-attrib $-1 -1 $120 $-1 $56 2 1 1 1 1 1 1 1 1 1 1 1 1 1 0 1 1 1 @8 CUBIT_ID 1 #
sphere-surface $-1 -1 -1 $-1 0 0 0 1.0009999999999999 1 0 0 0 0 1 forward_v I I I I #
simple-snl-attrib $-1 -1 $-1 $57 $7 1 1 1 1 1 1 1 1 1 1 1 1 0 1 0 1 1 1 @17 NEW_SIMPLE_ATTRIB 7 @16 GRAPHICS_OPTIONS @14 geometry color @10 mesh color @19 geometry visibility @15 mesh visibility @11 render mode @11 transparent 0 6 5 5 1 1 0 0 #
integer_attrib-name_attrib-gen-attrib $-1 -1 $121 $-1 $58 2 1 1 1 1 1 1 1 1 1 1 1 1 1 0 1 1 1 @8 CUBIT_ID 1 #
sphere-surface $-1 -1 -1 $-1 0 0 0 1.0009999999999999 1 0 0 0 0 1 forward_v I I I I #
simple-snl-attrib $-1 -1 $122 $59 $44 1 1 1 1 1 1 1 1 1 1 1 1 0 1 0 1 1 1 @17 NEW_SIMPLE_ATTRIB 1 @9 UNIQUE_ID 1 0 1 1167164538 #
integer_attrib-name_attrib-gen-attrib $-1 -1 $123 $-1 $60 2 1 1 1 1 1 1 1 1 1 1 1 1 1 0 1 1 1 @8 CUBIT_ID 15 #
loop $-1 -1 -1 $-1 $-1 $124 $60 T -1.002 -1.002 0 1.002 1.002 0 unknown #
coedge $-1 -1 -1 $-1 $92 $92 $124 $125 reversed $61 $-1 #
simple-snl-attrib $-1 -1 $126 $64 $46 1 1 1 1 1 1 1 1 1 1 1 1 0 1 0 1 1 1 @17 NEW_SIMPLE_ATTRIB 1 @9 UNIQUE_ID 1 0 1 796678613 #
integer_attrib-name_attrib-gen-attrib $-1 -1 $127 $-1 $65 2 1 1 1 1 1 1 1 1 1 1 1 1 1 0 1 1 1 @8 CUBIT_ID 16 #
face $128 -1 -1 $-1 $-1 $129 $29 $-1 $130 forward single T -1.0029999999999999 -1.0029999999999999 0 1.0029999999999999 1.0029999999999999 1.0029999999999999 F #
loop $-1 -1 -1 $-1 $131 $132 $65 T -1.002 -1.002 0 1.002 1.002 0 hole $97 T #
plane-surface $-1 -1 -1 $-1 0 0 0 0 0 1 1 0 0 forward_v I I I I #
coedge $-1 -1 -1 $-1 $98 $98 $132 $133 reversed $66 $-1 #
simple-snl-attrib $-1 -1 $134 $69 $48 1 1 1 1 1 1 1 1 1 1 1 1 0 1 0 1 1 1 @17 NEW_SIMPLE_ATTRIB 1 @9 UNIQUE_ID 1 0 1 1167164538 #
integer_attrib-name_attrib-gen-attrib $-1 -1 $135 $-1 $70 2 1 1 1 1 1 1 1 1 1 1 1 1 1 0 1 1 1 @8 CUBIT_ID 16 #
face $136 -1 -1 $-1 $-1 $137 $32 $-1 $138 forward single T -1.0029999999999999 -1.0029999999999999 -1.0029999999999999 1.0029999999999999 1.0029999999999999 0 F #
loop $-1 -1 -1 $-1 $139 $140 $70 T -1.002 -1.002 0 1.002 1.002 0 unknown #
plane-surface $-1 -1 -1 $-1 0 0 0 0 0 -1 1 0 -0 reverse_v I I I I #
coedge $-1 -1 -1 $-1 $104 $104 $140 $141 forward $71 $-1 #
simple-snl-attrib $-1 -1 $-1 $73 $16 1 1 1 1 1 1 1 1 1 1 1 1 0 1 0 1 1 1 @17 NEW_SIMPLE_ATTRIB 7 @16 GRAPHICS_OPTIONS @14 geometry color @10 mesh color @19 geometry visibility @15 mesh visibility @11 render mode @11 transparent 0 6 11 11 0 1 0 0 #
integer_attrib-name_attrib-gen-attrib $-1 -1 $142 $-1 $74 2 1 1 1 1 1 1 1 1 1 1 1 1 1 0 1 1 1 @8 CUBIT_ID 13 #
face $143 -1 -1 $-1 $-1 $144 $50 $-1 $109 reversed single T -1.0029999999999999 -1.0029999999999999 -1.0029999999999999 1.0029999999999999 1.0029999999999999 0 F #
loop $-1 -1 -1 $-1 $-1 $145 $74 T -1.0029999999999999 -1.0029999999999999 0 1.0029999999999999 1.0029999999999999 0 unknown #
sphere-surface $-1 -1 -1 $-1 0 0 0 1.0029999999999999 1 0 0 0 0 1 forward_v I I I I #
simple-snl-attrib $-1 -1 $146 $75 $51 1 1 1 1 1 1 1 1 1 1 1 1 0 1 0 1 1 1 @17 NEW_SIMPLE_ATTRIB 1 @9 ENTITY_ID 0 3 26 -2147483648 -1 #
integer_attrib-name_attrib-gen-attrib $-1 -1 $147 $-1 $76 2 1 1 1 1 1 1 1 1 1 1 1 1 1 0 1 1 1 @8 CUBIT_ID 27 #
face $148 -1 -1 $-1 $149 $150 $35 $-1 $151 reversed single T -1.5 -1.5 -1.5 1.5 -1.5 1.5 F #
loop $-1 -1 -1 $-1 $-1 $152 $76 T -1.5 -1.5 -1.5 1.5 1.5 -1.5 unknown #
plane-surface $-1 -1 -1 $-1 0 0 -1.5 0 0 1 1 0 0 forward_v I I I I #
coedge $-1 -1 -1 $-1 $153 $154 $155 $156 forward $77 $-1 #
simple-snl-attrib $-1 -1 $157 $80 $53 1 1 1 1 1 1 1 1 1 1 1 1 0 1 0 1 1 1 @17 NEW_SIMPLE_ATTRIB 1 @9 UNIQUE_ID 1 0 1 1101359735 #
simple-snl-attrib $-1 -1 $-1 $82 $22 1 1 1 1 1 1 1 1 1 1 1 1 0 1 0 1 1 1 @17 NEW_SIMPLE_ATTRIB 7 @16 GRAPHICS_OPTIONS @14 geometry color @10 mesh color @19 geometry visibility @15 mesh visibility @11 render mode @11 transparent 0 6 15 15 1 1 0 0 #
integer_attrib-name_attrib-gen-attrib $-1 -1 $158 $-1 $83 2 1 1 1 1 1 1 1 1 1 1 1 1 1 0 1 1 1 @8 CUBIT_ID 32 #
sphere-surface $-1 -1 -1 $-1 0 0 0 1 1 0 0 0 0 1 forward_v I I I I #
simple-snl-attrib $-1 -1 $159 $84 $56 1 1 1 1 1 1 1 1 1 1 1 1 0 1 0 1 1 1 @17 NEW_SIMPLE_ATTRIB 1 @9 UNIQUE_ID 1 0 1 1447405783 #
simple-snl-attrib $-1 -1 $160 $87 $58 1 1 1 1 1 1 1 1 1 1 1 1 0 1 0 1 1 1 @17 NEW_SIMPLE_ATTRIB 1 @9 UNIQUE_ID 1 0 1 1447405783 #
simple-snl-attrib $-1 -1 $161 $89 $44 1 1 1 1 1 1 1 1 1 1 1 1 0 1 0 1 1 1 @17 NEW_SIMPLE_ATTRIB 1 @9 ENTITY_ID 0 3 17 1257961216 0 #
simple-snl-attrib $-1 -1 $162 $90 $60 1 1 1 1 1 1 1 1 1 1 1 1 0 1 0 1 1 1 @17 NEW_SIMPLE_ATTRIB 1 @9 UNIQUE_ID 1 0 1 796678613 #
coedge $-1 -1 -1 $-1 $124 $124 $92 $125 forward $91 $-1 #
edge $163 -1 -1 $-1 $164 -3.1415926535897931 $164 3.1415926535897931 $124 $165 forward @7 unknown T -1.002 -1.002 0 1.002 1.002 0 #
simple-snl-attrib $-1 -1 $166 $93 $46 1 1 1 1 1 1 1 1 1 1 1 1 0 1 0 1 1 1 @17 NEW_SIMPLE_ATTRIB 1 @9 ENTITY_ID 0 3 15 1257961216 1 #
simple-snl-attrib $-1 -1 $167 $94 $65 1 1 1 1 1 1 1 1 1 1 1 1 0 1 0 1 1 1 @17 NEW_SIMPLE_ATTRIB 1 @9 UNIQUE_ID 1 0 1 516095916 #
integer_attrib-name_attrib-gen-attrib $-1 -1 $168 $-1 $95 2 1 1 1 1 1 1 1 1 1 1 1 1 1 0 1 1 1 @8 CUBIT_ID 13 #
loop $-1 -1 -1 $-1 $-1 $169 $95 T -1.0029999999999999 -1.0029999999999999 0 1.0029999999999999 1.0029999999999999 0 unknown #
sphere-surface $-1 -1 -1 $-1 0 0 0 1.0029999999999999 1 0 0 0 0 1 forward_v I I I I #
loop $-1 -1 -1 $-1 $-1 $170 $65 T -1.0029999999999999 -1.0029999999999999 0 1.0029999999999999 1.0029999999999999 0 unknown #
coedge $-1 -1 -1 $-1 $132 $132 $98 $133 forward $96 $-1 #
edge $171 -1 -1 $-1 $172 -3.1415926535897931 $172 3.1415926535897931 $132 $173 forward @7 unknown T -1.002 -1.002 0 1.002 1.002 0 #
simple-snl-attrib $-1 -1 $174 $99 $48 1 1 1 1 1 1 1 1 1 1 1 1 0 1 0 1 1 1 @17 NEW_SIMPLE_ATTRIB 1 @9 ENTITY_ID 0 3 17 1257961216 0 #
simple-snl-attrib $-1 -1 $175 $100 $70 1 1 1 1 1 1 1 1 1 1 1 1 0 1 0 1 1 1 @17 NEW_SIMPLE_ATTRIB 1 @9 UNIQUE_ID 1 0 1 516095916 #
integer_attrib-name_attrib-gen-attrib $-1 -1 $176 $-1 $101 2 1 1 1 1 1 1 1 1 1 1 1 1 1 0 1 1 1 @8 CUBIT_ID 19 #
loop $-1 -1 -1 $-1 $-1 $177 $101 T -1.0029999999999999 -1.0029999999999999 0 1.0029999999999999 1.0029999999999999 0 unknown #
sphere-surface $-1 -1 -1 $-1 0 0 0 1.0029999999999999 1 0 -0 0 0 -1 reverse_v I I I I #
loop $-1 -1 -1 $-1 $-1 $178 $70 T -1.0029999999999999 -1.0029999999999999 0 1.0029999999999999 1.0029999999999999 0 unknown #
coedge $-1 -1 -1 $-1 $140 $140 $104 $141 reversed $102 $-1 #
edge $179 -1 -1 $-1 $180 -3.1415926535897931 $180 3.1415926535897931 $140 $181 forward @7 unknown T -1.002 -1.002 0 1.002 1.002 0 #
simple-snl-attrib $-1 -1 $182 $106 $74 1 1 1 1 1 1 1 1 1 1 1 1 0 1 0 1 1 1 @17 NEW_SIMPLE_ATTRIB 1 @9 UNIQUE_ID 1 0 1 1418728927 #
integer_attrib-name_attrib-gen-attrib $-1 -1 $183 $-1 $107 2 1 1 1 1 1 1 1 1 1 1 1 1 1 0 1 1 1 @8 CUBIT_ID 19 #
loop $-1 -1 -1 $-1 $-1 $184 $107 T -1.0029999999999999 -1.0029999999999999 0 1.0029999999999999 1.0029999999999999 0 unknown #
coedge $-1 -1 -1 $-1 $145 $145 $184 $185 reversed $108 $-1 #
simple-snl-attrib $-1 -1 $186 $110 $51 1 1 1 1 1 1 1 1 1 1 1 1 0 1 0 1 1 1 @17 NEW_SIMPLE_ATTRIB 7 @16 GRAPHICS_OPTIONS @14 geometry color @10 mesh color @19 geometry visibility @15 mesh visibility @11 render mode @11 transparent 0 6 -1 -1 0 1 0 0 #
simple-snl-attrib $-1 -1 $187 $111 $76 1 1 1 1 1 1 1 1 1 1 1 1 0 1 0 1 1 1 @17 NEW_SIMPLE_ATTRIB 1 @9 ENTITY_ID 0 3 27 -2147483648 -1 #
integer_attrib-name_attrib-gen-attrib $-1 -1 $188 $-1 $112 2 1 1 1 1 1 1 1 1 1 1 1 1 1 0 1 1 1 @8 CUBIT_ID 28 #
face $189 -1 -1 $-1 $190 $191 $35 $-1 $192 reversed single T -1.5 -1.5 -1.5 -1.5 1.5 1.5 F #
loop $-1 -1 -1 $-1 $-1 $193 $112 T -1.5 -1.5 -1.5 1.5 -1.5 1.5 unknown #
plane-surface $-1 -1 -1 $-1 0 -1.5 0 0 1 -0 -0 0 1 forward_v I I I I #
coedge $-1 -1 -1 $-1 $194 $195 $196 $197 forward $113 $-1 #
coedge $-1 -1 -1 $-1 $198 $115 $199 $200 forward $77 $-1 #
coedge $-1 -1 -1 $-1 $115 $198 $201 $202 forward $77 $-1 #
coedge $-1 -1 -1 $-1 $203 $204 $115 $156 reversed $205 $-1 #
edge $206 -1 -1 $-1 $207 -1.5 $208 1.5 $155 $209 forward @7 unknown T 1.5 -1.5 1.5 1.5 1.5 1.5 #
simple-snl-attrib $-1 -1 $210 $116 $53 1 1 1 1 1 1 1 1 1 1 1 1 0 1 0 1 1 1 @17 NEW_SIMPLE_ATTRIB 1 @9 ENTITY_ID 0 3 32 -2147483648 -1 #
simple-snl-attrib $-1 -1 $211 $118 $83 1 1 1 1 1 1 1 1 1 1 1 1 0 1 0 1 1 1 @17 NEW_SIMPLE_ATTRIB 1 @9 UNIQUE_ID 1 0 1 1101359735 #
simple-snl-attrib $-1 -1 $212 $120 $56 1 1 1 1 1 1 1 1 1 1 1 1 0 1 0 1 1 1 @17 NEW_SIMPLE_ATTRIB 1 @9 ENTITY_ID 0 3 1 -2147483648 -1 #
simple-snl-attrib $-1 -1 $213 $121 $58 1 1 1 1 1 1 1 1 1 1 1 1 0 1 0 1 1 1 @17 NEW_SIMPLE_ATTRIB 1 @9 ENTITY_ID 0 3 1 -2147483648 -1 #
simple-snl-attrib $-1 -1 $214 $122 $44 1 1 1 1 1 1 1 1 1 1 1 1 0 1 0 1 1 1 @17 NEW_SIMPLE_ATTRIB 1 @13 MERGE_PARTNER 0 4 1167164538 -1 1 0 #
simple-snl-attrib $-1 -1 $215 $123 $60 1 1 1 1 1 1 1 1 1 1 1 1 0 1 0 1 1 1 @17 NEW_SIMPLE_ATTRIB 1 @9 ENTITY_ID 0 3 15 1257961216 1 #
integer_attrib-name_attrib-gen-attrib $-1 -1 $216 $-1 $125 2 1 1 1 1 1 1 1 1 1 1 1 1 1 0 1 1 1 @8 CUBIT_ID 14 #
vertex $217 -1 -1 $-1 $125 $218 #
ellipse-curve $-1 -1 -1 $-1 0 0 0 0 0 1 0 -1.002 0 1 I I #
simple-snl-attrib $-1 -1 $219 $126 $46 1 1 1 1 1 1 1 1 1 1 1 1 0 1 0 1 1 1 @17 NEW_SIMPLE_ATTRIB 1 @13 MERGE_PARTNER 0 4 796678613 1 15 1 #
simple-snl-attrib $-1 -1 $220 $127 $65 1 1 1 1 1 1 1 1 1 1 1 1 0 1 0 1 1 1 @17 NEW_SIMPLE_ATTRIB 1 @9 ENTITY_ID 0 3 16 1257961216 0 #
simple-snl-attrib $-1 -1 $221 $128 $95 1 1 1 1 1 1 1 1 1 1 1 1 0 1 0 1 1 1 @17 NEW_SIMPLE_ATTRIB 1 @9 UNIQUE_ID 1 0 1 1418728927 #
coedge $-1 -1 -1 $-1 $169 $169 $170 $222 reversed $129 $-1 #
coedge $-1 -1 -1 $-1 $170 $170 $169 $222 forward $131 $-1 #
integer_attrib-name_attrib-gen-attrib $-1 -1 $223 $-1 $133 2 1 1 1 1 1 1 1 1 1 1 1 1 1 0 1 1 1 @8 CUBIT_ID 14 #
vertex $224 -1 -1 $-1 $133 $225 #
ellipse-curve $-1 -1 -1 $-1 0 0 0 0 0 1 0 -1.002 0 1 I I #
simple-snl-attrib $-1 -1 $226 $134 $48 1 1 1 1 1 1 1 1 1 1 1 1 0 1 0 1 1 1 @17 NEW_SIMPLE_ATTRIB 1 @13 MERGE_PARTNER 0 4 1167164538 1 17 1 #
simple-snl-attrib $-1 -1 $227 $135 $70 1 1 1 1 1 1 1 1 1 1 1 1 0 1 0 1 1 1 @17 NEW_SIMPLE_ATTRIB 1 @9 ENTITY_ID 0 3 16 1257961216 0 #
simple-snl-attrib $-1 -1 $228 $136 $101 1 1 1 1 1 1 1 1 1 1 1 1 0 1 0 1 1 1 @17 NEW_SIMPLE_ATTRIB 1 @9 UNIQUE_ID 1 0 1 700455122 #
coedge $-1 -1 -1 $-1 $177 $177 $178 $229 forward $137 $-1 #
coedge $-1 -1 -1 $-1 $178 $178 $177 $229 reversed $139 $-1 #
integer_attrib-name_attrib-gen-attrib $-1 -1 $230 $-1 $141 2 1 1 1 1 1 1 1 1 1 1 1 1 1 0 1 1 1 @8 CUBIT_ID 14 #
vertex $231 -1 -1 $-1 $141 $232 #
ellipse-curve $-1 -1 -1 $-1 0 0 0 -0 -0 1 0 -1.002 0 1 I I #
simple-snl-attrib $-1 -1 $233 $142 $74 1 1 1 1 1 1 1 1 1 1 1 1 0 1 0 1 1 1 @17 NEW_SIMPLE_ATTRIB 1 @9 ENTITY_ID 0 3 13 377931996 1 #
simple-snl-attrib $-1 -1 $234 $143 $107 1 1 1 1 1 1 1 1 1 1 1 1 0 1 0 1 1 1 @17 NEW_SIMPLE_ATTRIB 1 @9 UNIQUE_ID 1 0 1 700455122 #
coedge $-1 -1 -1 $-1 $184 $184 $145 $185 forward $144 $-1 #
edge $235 -1 -1 $-1 $236 0 $236 6.2831853071795862 $184 $237 forward @7 unknown T -1.0029999999999999 -1.0029999999999999 0 1.0029999999999999 1.0029999999999999 0 #
simple-snl-attrib $-1 -1 $-1 $146 $51 1 1 1 1 1 1 1 1 1 1 1 1 0 1 0 1 1 1 @17 NEW_SIMPLE_ATTRIB 3 @13 MESH_INTERVAL @4 LIMP @4 LIMP 2 1 0 5 1 0 0 1 1 #
simple-snl-attrib $-1 -1 $238 $147 $76 1 1 1 1 1 1 1 1 1 1 1 1 0 1 0 1 1 1 @17 NEW_SIMPLE_ATTRIB 7 @16 GRAPHICS_OPTIONS @14 geometry color @10 mesh color @19 geometry visibility @15 mesh visibility @11 render mode @11 transparent 0 6 -1 -1 0 1 0 0 #
simple-snl-attrib $-1 -1 $239 $148 $112 1 1 1 1 1 1 1 1 1 1 1 1 0 1 0 1 1 1 @17 NEW_SIMPLE_ATTRIB 1 @9 ENTITY_ID 0 3 28 -2147483648 -1 #
integer_attrib-name_attrib-gen-attrib $-1 -1 $240 $-1 $149 2 1 1 1 1 1 1 1 1 1 1 1 1 1 0 1 1 1 @8 CUBIT_ID 29 #
face $241 -1 -1 $-1 $242 $243 $35 $-1 $244 reversed single T -1.5 1.5 -1.5 1.5 1.5 1.5 F #
loop $-1 -1 -1 $-1 $-1 $245 $149 T -1.5 -1.5 -1.5 -1.5 1.5 1.5 unknown #
plane-surface $-1 -1 -1 $-1 -1.5 0 0 1 0 0 0 0 -1 forward_v I I I I #
coedge $-1 -1 -1 $-1 $246 $201 $247 $248 forward $150 $-1 #
coedge $-1 -1 -1 $-1 $249 $152 $246 $250 forward $113 $-1 #
coedge $-1 -1 -1 $-1 $152 $249 $251 $252 forward $113 $-1 #
coedge $-1 -1 -1 $-1 $204 $203 $152 $197 reversed $205 $-1 #
edge $253 -1 -1 $-1 $254 -1.5 $255 1.5 $196 $256 forward @7 unknown T 1.5 -1.5 -1.5 1.5 1.5 -1.5 #
coedge $-1 -1 -1 $-1 $154 $153 $257 $258 forward $77 $-1 #
coedge $-1 -1 -1 $-1 $259 $260 $153 $200 reversed $243 $-1 #
edge $261 -1 -1 $-1 $208 -1.5 $262 1.5 $199 $263 forward @7 unknown T -1.5 1.5 1.5 1.5 1.5 1.5 #
coedge $-1 -1 -1 $-1 $193 $264 $154 $202 reversed $150 $-1 #
edge $265 -1 -1 $-1 $266 -1.5 $207 1.5 $201 $267 forward @7 unknown T -1.5 -1.5 1.5 1.5 -1.5 1.5 #
coedge $-1 -1 -1 $-1 $196 $155 $264 $268 forward $205 $-1 #
coedge $-1 -1 -1 $-1 $155 $196 $259 $269 reversed $205 $-1 #
loop $-1 -1 -1 $-1 $-1 $203 $242 T 1.5 -1.5 -1.5 1.5 1.5 1.5 unknown #
integer_attrib-name_attrib-gen-attrib $-1 -1 $270 $-1 $156 2 1 1 1 1 1 1 1 1 1 1 1 1 1 0 1 1 1 @8 CUBIT_ID 29 #
vertex $271 -1 -1 $-1 $156 $272 #
vertex $273 -1 -1 $-1 $156 $274 #
straight-curve $-1 -1 -1 $-1 1.5 0 1.5 0 1 0 I I #
simple-snl-attrib $-1 -1 $275 $157 $53 1 1 1 1 1 1 1 1 1 1 1 1 0 1 0 1 1 1 @17 NEW_SIMPLE_ATTRIB 1 @13 MERGE_PARTNER 0 4 1101359735 1 32 1 #
simple-snl-attrib $-1 -1 $276 $158 $83 1 1 1 1 1 1 1 1 1 1 1 1 0 1 0 1 1 1 @17 NEW_SIMPLE_ATTRIB 1 @9 ENTITY_ID 0 3 32 -2147483648 -1 #
simple-snl-attrib $-1 -1 $277 $159 $56 1 1 1 1 1 1 1 1 1 1 1 1 0 1 0 1 1 1 @17 NEW_SIMPLE_ATTRIB 1 @13 MERGE_PARTNER 0 4 1447405783 -1 33 0 #
simple-snl-attrib $-1 -1 $278 $160 $58 1 1 1 1 1 1 1 1 1 1 1 1 0 1 0 1 1 1 @17 NEW_SIMPLE_ATTRIB 1 @13 MERGE_PARTNER 0 4 1447405783 1 18 1 #
simple-snl-attrib $-1 -1 $-1 $161 $44 1 1 1 1 1 1 1 1 1 1 1 1 0 1 0 1 1 1 @17 NEW_SIMPLE_ATTRIB 3 @13 MESH_INTERVAL @4 LIMP @4 LIMP 2 1 0 5 1 0 0 1 1 #
simple-snl-attrib $-1 -1 $279 $162 $60 1 1 1 1 1 1 1 1 1 1 1 1 0 1 0 1 1 1 @17 NEW_SIMPLE_ATTRIB 1 @13 MERGE_PARTNER 0 4 796678613 -1 18 0 #
simple-snl-attrib $-1 -1 $280 $163 $125 1 1 1 1 1 1 1 1 1 1 1 1 0 1 0 1 1 1 @17 NEW_SIMPLE_ATTRIB 1 @9 UNIQUE_ID 1 0 1 1257961216 #
integer_attrib-name_attrib-gen-attrib $-1 -1 $281 $-1 $164 2 1 1 1 1 1 1 1 1 1 1 1 1 1 0 1 1 1 @8 CUBIT_ID 10 #
point $-1 -1 -1 $-1 -1.2270960927456477e-16 1.002 0 #
simple-snl-attrib $-1 -1 $-1 $166 $46 1 1 1 1 1 1 1 1 1 1 1 1 0 1 0 1 1 1 @17 NEW_SIMPLE_ATTRIB 3 @13 MESH_INTERVAL @4 LIMP @4 LIMP 2 1 0 5 1 0 0 1 1 #
simple-snl-attrib $-1 -1 $282 $167 $65 1 1 1 1 1 1 1 1 1 1 1 1 0 1 0 1 1 1 @17 NEW_SIMPLE_ATTRIB 1 @13 MERGE_PARTNER 0 4 516095916 1 18 1 #
simple-snl-attrib $-1 -1 $283 $168 $95 1 1 1 1 1 1 1 1 1 1 1 1 0 1 0 1 1 1 @17 NEW_SIMPLE_ATTRIB 1 @9 ENTITY_ID 0 3 13 377931996 1 #
edge $284 -1 -1 $-1 $285 0 $285 6.2831853071795862 $169 $286 forward @7 unknown T -1.0029999999999999 -1.0029999999999999 0 1.0029999999999999 1.0029999999999999 0 #
simple-snl-attrib $-1 -1 $287 $171 $133 1 1 1 1 1 1 1 1 1 1 1 1 0 1 0 1 1 1 @17 NEW_SIMPLE_ATTRIB 1 @9 UNIQUE_ID 1 0 1 1257961216 #
integer_attrib-name_attrib-gen-attrib $-1 -1 $288 $-1 $172 2 1 1 1 1 1 1 1 1 1 1 1 1 1 0 1 1 1 @8 CUBIT_ID 10 #
point $-1 -1 -1 $-1 -1.2270960927456477e-16 1.002 0 #
simple-snl-attrib $-1 -1 $-1 $174 $48 1 1 1 1 1 1 1 1 1 1 1 1 0 1 0 1 1 1 @17 NEW_SIMPLE_ATTRIB 3 @13 MESH_INTERVAL @4 LIMP @4 LIMP 2 1 0 5 1 0 0 1 1 #
simple-snl-attrib $-1 -1 $289 $175 $70 1 1 1 1 1 1 1 1 1 1 1 1 0 1 0 1 1 1 @17 NEW_SIMPLE_ATTRIB 1 @13 MERGE_PARTNER 0 4 516095916 -1 18 0 #
simple-snl-attrib $-1 -1 $290 $176 $101 1 1 1 1 1 1 1 1 1 1 1 1 0 1 0 1 1 1 @17 NEW_SIMPLE_ATTRIB 1 @9 ENTITY_ID 0 3 19 377931996 0 #
edge $291 -1 -1 $-1 $292 0 $292 6.2831853071795862 $177 $293 forward @7 unknown T -1.0029999999999999 -1.0029999999999999 0 1.0029999999999999 1.0029999999999999 0 #
simple-snl-attrib $-1 -1 $294 $179 $141 1 1 1 1 1 1 1 1 1 1 1 1 0 1 0 1 1 1 @17 NEW_SIMPLE_ATTRIB 1 @9 UNIQUE_ID 1 0 1 1257961216 #
integer_attrib-name_attrib-gen-attrib $-1 -1 $295 $-1 $180 2 1 1 1 1 1 1 1 1 1 1 1 1 1 0 1 1 1 @8 CUBIT_ID 10 #
point $-1 -1 -1 $-1 -1.2270960927456477e-16 1.002 0 #
simple-snl-attrib $-1 -1 $296 $182 $74 1 1 1 1 1 1 1 1 1 1 1 1 0 1 0 1 1 1 @17 NEW_SIMPLE_ATTRIB 2 @5 GROUP @22 tally_1.surf.current.n 0 7 1 5 950576140 1 0 0 0 #
simple-snl-attrib $-1 -1 $297 $183 $107 1 1 1 1 1 1 1 1 1 1 1 1 0 1 0 1 1 1 @17 NEW_SIMPLE_ATTRIB 1 @9 ENTITY_ID 0 3 19 377931996 0 #
integer_attrib-name_attrib-gen-attrib $-1 -1 $298 $-1 $185 2 1 1 1 1 1 1 1 1 1 1 1 1 1 0 1 1 1 @8 CUBIT_ID 13 #
vertex $299 -1 -1 $-1 $185 $300 #
ellipse-curve $-1 -1 -1 $-1 0 0 0 0 0 1 0 -1.0029999999999999 0 1 I I #
simple-snl-attrib $-1 -1 $-1 $187 $76 1 1 1 1 1 1 1 1 1 1 1 1 0 1 0 1 1 1 @17 NEW_SIMPLE_ATTRIB 3 @13 MESH_INTERVAL @4 LIMP @4 LIMP 2 1 0 5 1 0 0 1 1 #
simple-snl-attrib $-1 -1 $301 $188 $112 1 1 1 1 1 1 1 1 1 1 1 1 0 1 0 1 1 1 @17 NEW_SIMPLE_ATTRIB 7 @16 GRAPHICS_OPTIONS @14 geometry color @10 mesh color @19 geometry visibility @15 mesh visibility @11 render mode @11 transparent 0 6 -1 -1 0 1 0 0 #
simple-snl-attrib $-1 -1 $302 $189 $149 1 1 1 1 1 1 1 1 1 1 1 1 0 1 0 1 1 1 @17 NEW_SIMPLE_ATTRIB 1 @9 ENTITY_ID 0 3 29 -2147483648 -1 #
integer_attrib-name_attrib-gen-attrib $-1 -1 $303 $-1 $190 2 1 1 1 1 1 1 1 1 1 1 1 1 1 0 1 1 1 @8 CUBIT_ID 30 #
face $304 -1 -1 $-1 $-1 $205 $35 $-1 $305 reversed single T 1.5 -1.5 -1.5 1.5 1.5 1.5 F #
loop $-1 -1 -1 $-1 $-1 $259 $190 T -1.5 1.5 -1.5 1.5 1.5 1.5 unknown #
plane-surface $-1 -1 -1 $-1 0 1.5 0 0 -1 0 0 0 -1 forward_v I I I I #
coedge $-1 -1 -1 $-1 $306 $257 $260 $307 forward $191 $-1 #
coedge $-1 -1 -1 $-1 $264 $193 $194 $250 reversed $150 $-1 #
coedge $-1 -1 -1 $-1 $257 $306 $193 $248 reversed $191 $-1 #
edge $308 -1 -1 $-1 $266 -1.5 $309 1.5 $247 $310 forward @7 unknown T -1.5 -1.5 -1.5 -1.5 -1.5 1.5 #
coedge $-1 -1 -1 $-1 $195 $194 $306 $311 forward $113 $-1 #
edge $312 -1 -1 $-1 $255 -1.5 $309 1.5 $246 $313 forward @7 unknown T -1.5 -1.5 -1.5 1.5 -1.5 -1.5 #
coedge $-1 -1 -1 $-1 $260 $259 $195 $252 reversed $243 $-1 #
edge $314 -1 -1 $-1 $315 -1.5 $254 1.5 $251 $316 forward @7 unknown T -1.5 1.5 -1.5 1.5 1.5 -1.5 #
integer_attrib-name_attrib-gen-attrib $-1 -1 $317 $-1 $197 2 1 1 1 1 1 1 1 1 1 1 1 1 1 0 1 1 1 @8 CUBIT_ID 33 #
vertex $318 -1 -1 $-1 $197 $319 #
vertex $320 -1 -1 $-1 $268 $321 #
straight-curve $-1 -1 -1 $-1 1.5 0 -1.5 0 -1 0 I I #
coedge $-1 -1 -1 $-1 $245 $247 $198 $258 reversed $191 $-1 #
edge $322 -1 -1 $-1 $262 -1.5 $266 1.5 $257 $323 forward @7 unknown T -1.5 -1.5 1.5 -1.5 1.5 1.5 #
coedge $-1 -1 -1 $-1 $251 $199 $204 $269 forward $243 $-1 #
coedge $-1 -1 -1 $-1 $199 $251 $245 $307 reversed $243 $-1 #
integer_attrib-name_attrib-gen-attrib $-1 -1 $324 $-1 $200 2 1 1 1 1 1 1 1 1 1 1 1 1 1 0 1 1 1 @8 CUBIT_ID 30 #
vertex $325 -1 -1 $-1 $200 $326 #
straight-curve $-1 -1 -1 $-1 0 1.5 1.5 -1 0 0 I I #
coedge $-1 -1 -1 $-1 $201 $246 $203 $268 reversed $150 $-1 #
integer_attrib-name_attrib-gen-attrib $-1 -1 $327 $-1 $202 2 1 1 1 1 1 1 1 1 1 1 1 1 1 0 1 1 1 @8 CUBIT_ID 32 #
vertex $328 -1 -1 $-1 $258 $329 #
straight-curve $-1 -1 -1 $-1 0 -1.5 1.5 1 0 0 I I #
edge $330 -1 -1 $-1 $207 -1.5 $255 1.5 $203 $331 forward @7 unknown T 1.5 -1.5 -1.5 1.5 -1.5 1.5 #
edge $332 -1 -1 $-1 $208 -1.5 $254 1.5 $204 $333 forward @7 unknown T 1.5 1.5 -1.5 1.5 1.5 1.5 #
simple-snl-attrib $-1 -1 $334 $206 $156 1 1 1 1 1 1 1 1 1 1 1 1 0 1 0 1 1 1 @17 NEW_SIMPLE_ATTRIB 1 @9 ENTITY_ID 0 3 29 -2147483648 -1 #
integer_attrib-name_attrib-gen-attrib $-1 -1 $335 $-1 $207 2 1 1 1 1 1 1 1 1 1 1 1 1 1 0 1 1 1 @8 CUBIT_ID 21 #
point $-1 -1 -1 $-1 1.5 -1.5 1.5 #
integer_attrib-name_attrib-gen-attrib $-1 -1 $336 $-1 $208 2 1 1 1 1 1 1 1 1 1 1 1 1 1 0 1 1 1 @8 CUBIT_ID 22 #
point $-1 -1 -1 $-1 1.5 1.5 1.5 #
simple-snl-attrib $-1 -1 $-1 $210 $53 1 1 1 1 1 1 1 1 1 1 1 1 0 1 0 1 1 1 @17 NEW_SIMPLE_ATTRIB 3 @13 MESH_INTERVAL @4 LIMP @4 LIMP 2 1 0 5 1 0 0 1 1 #
simple-snl-attrib $-1 -1 $337 $211 $83 1 1 1 1 1 1 1 1 1 1 1 1 0 1 0 1 1 1 @17 NEW_SIMPLE_ATTRIB 1 @13 MERGE_PARTNER 0 4 1101359735 -1 34 0 #
simple-snl-attrib $-1 -1 $-1 $212 $56 1 1 1 1 1 1 1 1 1 1 1 1 0 1 0 1 1 1 @17 NEW_SIMPLE_ATTRIB 3 @13 MESH_INTERVAL @4 LIMP @4 LIMP 2 1 0 5 1 0 0 1 1 #
simple-snl-attrib $-1 -1 $-1 $213 $58 1 1 1 1 1 1 1 1 1 1 1 1 0 1 0 1 1 1 @17 NEW_SIMPLE_ATTRIB 3 @13 MESH_INTERVAL @4 LIMP @4 LIMP 2 1 0 5 1 0 0 1 1 #
simple-snl-attrib $-1 -1 $-1 $215 $60 1 1 1 1 1 1 1 1 1 1 1 1 0 1 0 1 1 1 @17 NEW_SIMPLE_ATTRIB 3 @13 MESH_INTERVAL @4 LIMP @4 LIMP 2 1 0 5 1 0 0 1 1 #
simple-snl-attrib $-1 -1 $338 $216 $125 1 1 1 1 1 1 1 1 1 1 1 1 0 1 0 1 1 1 @17 NEW_SIMPLE_ATTRIB 1 @9 ENTITY_ID 3 -0.86775745459200748 -0.50099999999999989 0 3 14 312676816 0 #
simple-snl-attrib $-1 -1 $339 $217 $164 1 1 1 1 1 1 1 1 1 1 1 1 0 1 0 1 1 1 @17 NEW_SIMPLE_ATTRIB 1 @9 UNIQUE_ID 1 0 1 312676816 #
simple-snl-attrib $-1 -1 $-1 $220 $65 1 1 1 1 1 1 1 1 1 1 1 1 0 1 0 1 1 1 @17 NEW_SIMPLE_ATTRIB 3 @13 MESH_INTERVAL @4 LIMP @4 LIMP 2 1 0 5 1 0 0 1 1 #
simple-snl-attrib $-1 -1 $340 $221 $95 1 1 1 1 1 1 1 1 1 1 1 1 0 1 0 1 1 1 @17 NEW_SIMPLE_ATTRIB 2 @5 GROUP @22 tally_1.surf.current.n 0 7 1 5 950576140 1 0 0 0 #
integer_attrib-name_attrib-gen-attrib $-1 -1 $341 $-1 $222 2 1 1 1 1 1 1 1 1 1 1 1 1 1 0 1 1 1 @8 CUBIT_ID 13 #
vertex $342 -1 -1 $-1 $222 $343 #
ellipse-curve $-1 -1 -1 $-1 0 0 0 -0 -0 -1 0 -1.0029999999999999 0 1 I I #
simple-snl-attrib $-1 -1 $344 $223 $133 1 1 1 1 1 1 1 1 1 1 1 1 0 1 0 1 1 1 @17 NEW_SIMPLE_ATTRIB 1 @9 ENTITY_ID 3 -0.86775745459200748 -0.50099999999999989 0 3 14 312676816 0 #
simple-snl-attrib $-1 -1 $345 $224 $172 1 1 1 1 1 1 1 1 1 1 1 1 0 1 0 1 1 1 @17 NEW_SIMPLE_ATTRIB 1 @9 UNIQUE_ID 1 0 1 312676816 #
simple-snl-attrib $-1 -1 $-1 $227 $70 1 1 1 1 1 1 1 1 1 1 1 1 0 1 0 1 1 1 @17 NEW_SIMPLE_ATTRIB 3 @13 MESH_INTERVAL @4 LIMP @4 LIMP 2 1 0 5 1 0 0 1 1 #
simple-snl-attrib $-1 -1 $346 $228 $101 1 1 1 1 1 1 1 1 1 1 1 1 0 1 0 1 1 1 @17 NEW_SIMPLE_ATTRIB 2 @5 GROUP @22 tally_1.surf.current.n 0 7 1 5 950576140 0 0 0 0 #
integer_attrib-name_attrib-gen-attrib $-1 -1 $347 $-1 $229 2 1 1 1 1 1 1 1 1 1 1 1 1 1 0 1 1 1 @8 CUBIT_ID 13 #
vertex $348 -1 -1 $-1 $229 $349 #
ellipse-curve $-1 -1 -1 $-1 0 0 0 -0 -0 -1 0 -1.0029999999999999 0 1 I I #
simple-snl-attrib $-1 -1 $350 $230 $141 1 1 1 1 1 1 1 1 1 1 1 1 0 1 0 1 1 1 @17 NEW_SIMPLE_ATTRIB 1 @9 ENTITY_ID 3 -0.86775745459200748 -0.50099999999999989 0 3 14 312676816 0 #
simple-snl-attrib $-1 -1 $351 $231 $180 1 1 1 1 1 1 1 1 1 1 1 1 0 1 0 1 1 1 @17 NEW_SIMPLE_ATTRIB 1 @9 UNIQUE_ID 1 0 1 312676816 #
simple-snl-attrib $-1 -1 $352 $233 $74 1 1 1 1 1 1 1 1 1 1 1 1 0 1 0 1 1 1 @17 NEW_SIMPLE_ATTRIB 1 @13 MERGE_PARTNER 0 4 1418728927 -1 35 0 #
simple-snl-attrib $-1 -1 $353 $234 $107 1 1 1 1 1 1 1 1 1 1 1 1 0 1 0 1 1 1 @17 NEW_SIMPLE_ATTRIB 2 @5 GROUP @22 tally_1.surf.current.n 0 7 1 5 950576140 0 0 0 0 #
simple-snl-attrib $-1 -1 $354 $235 $185 1 1 1 1 1 1 1 1 1 1 1 1 0 1 0 1 1 1 @17 NEW_SIMPLE_ATTRIB 1 @9 UNIQUE_ID 1 0 1 377931996 #
integer_attrib-name_attrib-gen-attrib $-1 -1 $355 $-1 $236 2 1 1 1 1 1 1 1 1 1 1 1 1 1 0 1 1 1 @8 CUBIT_ID 9 #
point $-1 -1 -1 $-1 0 -1.0029999999999999 0 #
simple-snl-attrib $-1 -1 $-1 $239 $112 1 1 1 1 1 1 1 1 1 1 1 1 0 1 0 1 1 1 @17 NEW_SIMPLE_ATTRIB 3 @13 MESH_INTERVAL @4 LIMP @4 LIMP 2 1 0 5 1 0 0 1 1 #
simple-snl-attrib $-1 -1 $356 $240 $149 1 1 1 1 1 1 1 1 1 1 1 1 0 1 0 1 1 1 @17 NEW_SIMPLE_ATTRIB 7 @16 GRAPHICS_OPTIONS @14 geometry color @10 mesh color @19 geometry visibility @15 mesh visibility @11 render mode @11 transparent 0 6 -1 -1 0 1 0 0 #
simple-snl-attrib $-1 -1 $357 $241 $190 1 1 1 1 1 1 1 1 1 1 1 1 0 1 0 1 1 1 @17 NEW_SIMPLE_ATTRIB 1 @9 ENTITY_ID 0 3 30 -2147483648 -1 #
integer_attrib-name_attrib-gen-attrib $-1 -1 $358 $-1 $242 2 1 1 1 1 1 1 1 1 1 1 1 1 1 0 1 1 1 @8 CUBIT_ID 31 #
plane-surface $-1 -1 -1 $-1 1.5 0 0 -1 0 0 0 -0 1 forward_v I I I I #
coedge $-1 -1 -1 $-1 $247 $245 $249 $311 reversed $191 $-1 #
edge $359 -1 -1 $-1 $262 -1.5 $315 1.5 $260 $360 forward @7 unknown T -1.5 1.5 -1.5 -1.5 1.5 1.5 #
integer_attrib-name_attrib-gen-attrib $-1 -1 $361 $-1 $248 2 1 1 1 1 1 1 1 1 1 1 1 1 1 0 1 1 1 @8 CUBIT_ID 37 #
vertex $362 -1 -1 $-1 $311 $363 #
straight-curve $-1 -1 -1 $-1 -1.5 -1.5 0 0 0 -1 I I #
edge $364 -1 -1 $-1 $309 -1.5 $315 1.5 $306 $365 forward @7 unknown T -1.5 -1.5 -1.5 -1.5 1.5 -1.5 #
integer_attrib-name_attrib-gen-attrib $-1 -1 $366 $-1 $250 2 1 1 1 1 1 1 1 1 1 1 1 1 1 0 1 1 1 @8 CUBIT_ID 34 #
straight-curve $-1 -1 -1 $-1 0 -1.5 -1.5 -1 0 0 I I #
integer_attrib-name_attrib-gen-attrib $-1 -1 $367 $-1 $252 2 1 1 1 1 1 1 1 1 1 1 1 1 1 0 1 1 1 @8 CUBIT_ID 36 #
vertex $368 -1 -1 $-1 $252 $369 #
straight-curve $-1 -1 -1 $-1 0 1.5 -1.5 1 0 0 I I #
simple-snl-attrib $-1 -1 $370 $253 $197 1 1 1 1 1 1 1 1 1 1 1 1 0 1 0 1 1 1 @17 NEW_SIMPLE_ATTRIB 1 @9 ENTITY_ID 0 3 33 -2147483648 -1 #
integer_attrib-name_attrib-gen-attrib $-1 -1 $371 $-1 $254 2 1 1 1 1 1 1 1 1 1 1 1 1 1 0 1 1 1 @8 CUBIT_ID 25 #
point $-1 -1 -1 $-1 1.5 1.5 -1.5 #
integer_attrib-name_attrib-gen-attrib $-1 -1 $372 $-1 $255 2 1 1 1 1 1 1 1 1 1 1 1 1 1 0 1 1 1 @8 CUBIT_ID 26 #
point $-1 -1 -1 $-1 1.5 -1.5 -1.5 #
integer_attrib-name_attrib-gen-attrib $-1 -1 $373 $-1 $258 2 1 1 1 1 1 1 1 1 1 1 1 1 1 0 1 1 1 @8 CUBIT_ID 31 #
straight-curve $-1 -1 -1 $-1 -1.5 0 1.5 0 -1 0 I I #
simple-snl-attrib $-1 -1 $374 $261 $200 1 1 1 1 1 1 1 1 1 1 1 1 0 1 0 1 1 1 @17 NEW_SIMPLE_ATTRIB 1 @9 ENTITY_ID 0 3 30 -2147483648 -1 #
integer_attrib-name_attrib-gen-attrib $-1 -1 $375 $-1 $262 2 1 1 1 1 1 1 1 1 1 1 1 1 1 0 1 1 1 @8 CUBIT_ID 23 #
point $-1 -1 -1 $-1 -1.5 1.5 1.5 #
simple-snl-attrib $-1 -1 $376 $265 $202 1 1 1 1 1 1 1 1 1 1 1 1 0 1 0 1 1 1 @17 NEW_SIMPLE_ATTRIB 1 @9 ENTITY_ID 0 3 32 -2147483648 -1 #
integer_attrib-name_attrib-gen-attrib $-1 -1 $377 $-1 $266 2 1 1 1 1 1 1 1 1 1 1 1 1 1 0 1 1 1 @8 CUBIT_ID 24 #
point $-1 -1 -1 $-1 -1.5 -1.5 1.5 #
integer_attrib-name_attrib-gen-attrib $-1 -1 $378 $-1 $268 2 1 1 1 1 1 1 1 1 1 1 1 1 1 0 1 1 1 @8 CUBIT_ID 38 #
straight-curve $-1 -1 -1 $-1 1.5 -1.5 0 0 0 -1 I I #
integer_attrib-name_attrib-gen-attrib $-1 -1 $379 $-1 $269 2 1 1 1 1 1 1 1 1 1 1 1 1 1 0 1 1 1 @8 CUBIT_ID 40 #
straight-curve $-1 -1 -1 $-1 1.5 1.5 0 0 0 -1 I I #
simple-snl-attrib $-1 -1 $-1 $270 $156 1 1 1 1 1 1 1 1 1 1 1 1 0 1 0 1 1 1 @17 NEW_SIMPLE_ATTRIB 7 @16 GRAPHICS_OPTIONS @14 geometry color @10 mesh color @19 geometry visibility @15 mesh visibility @11 render mode @11 transparent 0 6 -1 -1 0 1 0 0 #
simple-snl-attrib $-1 -1 $380 $271 $207 1 1 1 1 1 1 1 1 1 1 1 1 0 1 0 1 1 1 @17 NEW_SIMPLE_ATTRIB 1 @9 ENTITY_ID 0 3 21 -2147483648 -1 #
simple-snl-attrib $-1 -1 $381 $273 $208 1 1 1 1 1 1 1 1 1 1 1 1 0 1 0 1 1 1 @17 NEW_SIMPLE_ATTRIB 1 @9 ENTITY_ID 0 3 22 -2147483648 -1 #
simple-snl-attrib $-1 -1 $-1 $276 $83 1 1 1 1 1 1 1 1 1 1 1 1 0 1 0 1 1 1 @17 NEW_SIMPLE_ATTRIB 3 @13 MESH_INTERVAL @4 LIMP @4 LIMP 2 1 0 5 1 0 0 1 1 #
simple-snl-attrib $-1 -1 $-1 $280 $125 1 1 1 1 1 1 1 1 1 1 1 1 0 1 0 1 1 1 @17 NEW_SIMPLE_ATTRIB 1 @13 MERGE_PARTNER 0 4 1257961216 1 1 0 #
simple-snl-attrib $-1 -1 $382 $281 $164 1 1 1 1 1 1 1 1 1 1 1 1 0 1 0 1 1 1 @17 NEW_SIMPLE_ATTRIB 1 @9 ENTITY_ID 0 3 10 -2147483648 -1 #
simple-snl-attrib $-1 -1 $383 $283 $95 1 1 1 1 1 1 1 1 1 1 1 1 0 1 0 1 1 1 @17 NEW_SIMPLE_ATTRIB 1 @13 MERGE_PARTNER 0 4 1418728927 1 18 1 #
simple-snl-attrib $-1 -1 $384 $284 $222 1 1 1 1 1 1 1 1 1 1 1 1 0 1 0 1 1 1 @17 NEW_SIMPLE_ATTRIB 1 @9 UNIQUE_ID 1 0 1 377931996 #
integer_attrib-name_attrib-gen-attrib $-1 -1 $385 $-1 $285 2 1 1 1 1 1 1 1 1 1 1 1 1 1 0 1 1 1 @8 CUBIT_ID 9 #
point $-1 -1 -1 $-1 0 -1.0029999999999999 0 #
simple-snl-attrib $-1 -1 $-1 $287 $133 1 1 1 1 1 1 1 1 1 1 1 1 0 1 0 1 1 1 @17 NEW_SIMPLE_ATTRIB 1 @13 MERGE_PARTNER 0 4 1257961216 1 14 1 #
simple-snl-attrib $-1 -1 $386 $288 $172 1 1 1 1 1 1 1 1 1 1 1 1 0 1 0 1 1 1 @17 NEW_SIMPLE_ATTRIB 1 @9 ENTITY_ID 0 3 10 -2147483648 -1 #
simple-snl-attrib $-1 -1 $387 $290 $101 1 1 1 1 1 1 1 1 1 1 1 1 0 1 0 1 1 1 @17 NEW_SIMPLE_ATTRIB 1 @13 MERGE_PARTNER 0 4 700455122 1 18 1 #
simple-snl-attrib $-1 -1 $388 $291 $229 1 1 1 1 1 1 1 1 1 1 1 1 0 1 0 1 1 1 @17 NEW_SIMPLE_ATTRIB 1 @9 UNIQUE_ID 1 0 1 377931996 #
integer_attrib-name_attrib-gen-attrib $-1 -1 $389 $-1 $292 2 1 1 1 1 1 1 1 1 1 1 1 1 1 0 1 1 1 @8 CUBIT_ID 9 #
point $-1 -1 -1 $-1 0 -1.0029999999999999 0 #
simple-snl-attrib $-1 -1 $-1 $294 $141 1 1 1 1 1 1 1 1 1 1 1 1 0 1 0 1 1 1 @17 NEW_SIMPLE_ATTRIB 1 @13 MERGE_PARTNER 0 4 1257961216 1 15 0 #
simple-snl-attrib $-1 -1 $390 $295 $180 1 1 1 1 1 1 1 1 1 1 1 1 0 1 0 1 1 1 @17 NEW_SIMPLE_ATTRIB 1 @9 ENTITY_ID 0 3 10 -2147483648 -1 #
simple-snl-attrib $-1 -1 $-1 $296 $74 1 1 1 1 1 1 1 1 1 1 1 1 0 1 0 1 1 1 @17 NEW_SIMPLE_ATTRIB 3 @13 MESH_INTERVAL @4 LIMP @4 LIMP 2 1 0 5 1 0 0 1 1 #
simple-snl-attrib $-1 -1 $391 $297 $107 1 1 1 1 1 1 1 1 1 1 1 1 0 1 0 1 1 1 @17 NEW_SIMPLE_ATTRIB 1 @13 MERGE_PARTNER 0 4 700455122 -1 36 0 #
simple-snl-attrib $-1 -1 $392 $298 $185 1 1 1 1 1 1 1 1 1 1 1 1 0 1 0 1 1 1 @17 NEW_SIMPLE_ATTRIB 1 @9 ENTITY_ID 3 -0.86862347999579181 0.50149999999999972 0 3 13 1265517741 0 #
simple-snl-attrib $-1 -1 $393 $299 $236 1 1 1 1 1 1 1 1 1 1 1 1 0 1 0 1 1 1 @17 NEW_SIMPLE_ATTRIB 1 @9 UNIQUE_ID 1 0 1 1265517741 #
simple-snl-attrib $-1 -1 $-1 $302 $149 1 1 1 1 1 1 1 1 1 1 1 1 0 1 0 1 1 1 @17 NEW_SIMPLE_ATTRIB 3 @13 MESH_INTERVAL @4 LIMP @4 LIMP 2 1 0 5 1 0 0 1 1 #
simple-snl-attrib $-1 -1 $394 $303 $190 1 1 1 1 1 1 1 1 1 1 1 1 0 1 0 1 1 1 @17 NEW_SIMPLE_ATTRIB 7 @16 GRAPHICS_OPTIONS @14 geometry color @10 mesh color @19 geometry visibility @15 mesh visibility @11 render mode @11 transparent 0 6 -1 -1 0 1 0 0 #
simple-snl-attrib $-1 -1 $395 $304 $242 1 1 1 1 1 1 1 1 1 1 1 1 0 1 0 1 1 1 @17 NEW_SIMPLE_ATTRIB 1 @9 ENTITY_ID 0 3 31 -2147483648 -1 #
integer_attrib-name_attrib-gen-attrib $-1 -1 $396 $-1 $307 2 1 1 1 1 1 1 1 1 1 1 1 1 1 0 1 1 1 @8 CUBIT_ID 39 #
straight-curve $-1 -1 -1 $-1 -1.5 1.5 0 0 0 -1 I I #
simple-snl-attrib $-1 -1 $397 $308 $248 1 1 1 1 1 1 1 1 1 1 1 1 0 1 0 1 1 1 @17 NEW_SIMPLE_ATTRIB 1 @9 ENTITY_ID 0 3 37 -2147483648 -1 #
integer_attrib-name_attrib-gen-attrib $-1 -1 $398 $-1 $309 2 1 1 1 1 1 1 1 1 1 1 1 1 1 0 1 1 1 @8 CUBIT_ID 27 #
point $-1 -1 -1 $-1 -1.5 -1.5 -1.5 #
integer_attrib-name_attrib-gen-attrib $-1 -1 $399 $-1 $311 2 1 1 1 1 1 1 1 1 1 1 1 1 1 0 1 1 1 @8 CUBIT_ID 35 #
straight-curve $-1 -1 -1 $-1 -1.5 0 -1.5 0 1 0 I I #
simple-snl-attrib $-1 -1 $400 $312 $250 1 1 1 1 1 1 1 1 1 1 1 1 0 1 0 1 1 1 @17 NEW_SIMPLE_ATTRIB 1 @9 ENTITY_ID 0 3 34 -2147483648 -1 #
simple-snl-attrib $-1 -1 $401 $314 $252 1 1 1 1 1 1 1 1 1 1 1 1 0 1 0 1 1 1 @17 NEW_SIMPLE_ATTRIB 1 @9 ENTITY_ID 0 3 36 -2147483648 -1 #
integer_attrib-name_attrib-gen-attrib $-1 -1 $402 $-1 $315 2 1 1 1 1 1 1 1 1 1 1 1 1 1 0 1 1 1 @8 CUBIT_ID 28 #
point $-1 -1 -1 $-1 -1.5 1.5 -1.5 #
simple-snl-attrib $-1 -1 $-1 $317 $197 1 1 1 1 1 1 1 1 1 1 1 1 0 1 0 1 1 1 @17 NEW_SIMPLE_ATTRIB 7 @16 GRAPHICS_OPTIONS @14 geometry color @10 mesh color @19 geometry visibility @15 mesh visibility @11 render mode @11 transparent 0 6 -1 -1 0 1 0 0 #
simple-snl-attrib $-1 -1 $403 $318 $254 1 1 1 1 1 1 1 1 1 1 1 1 0 1 0 1 1 1 @17 NEW_SIMPLE_ATTRIB 1 @9 ENTITY_ID 0 3 25 -2147483648 -1 #
simple-snl-attrib $-1 -1 $404 $320 $255 1 1 1 1 1 1 1 1 1 1 1 1 0 1 0 1 1 1 @17 NEW_SIMPLE_ATTRIB 1 @9 ENTITY_ID 0 3 26 -2147483648 -1 #
simple-snl-attrib $-1 -1 $405 $322 $258 1 1 1 1 1 1 1 1 1 1 1 1 0 1 0 1 1 1 @17 NEW_SIMPLE_ATTRIB 1 @9 ENTITY_ID 0 3 31 -2147483648 -1 #
simple-snl-attrib $-1 -1 $-1 $324 $200 1 1 1 1 1 1 1 1 1 1 1 1 0 1 0 1 1 1 @17 NEW_SIMPLE_ATTRIB 7 @16 GRAPHICS_OPTIONS @14 geometry color @10 mesh color @19 geometry visibility @15 mesh visibility @11 render mode @11 transparent 0 6 -1 -1 0 1 0 0 #
simple-snl-attrib $-1 -1 $406 $325 $262 1 1 1 1 1 1 1 1 1 1 1 1 0 1 0 1 1 1 @17 NEW_SIMPLE_ATTRIB 1 @9 ENTITY_ID 0 3 23 -2147483648 -1 #
simple-snl-attrib $-1 -1 $-1 $327 $202 1 1 1 1 1 1 1 1 1 1 1 1 0 1 0 1 1 1 @17 NEW_SIMPLE_ATTRIB 7 @16 GRAPHICS_OPTIONS @14 geometry color @10 mesh color @19 geometry visibility @15 mesh visibility @11 render mode @11 transparent 0 6 -1 -1 0 1 0 0 #
simple-snl-attrib $-1 -1 $407 $328 $266 1 1 1 1 1 1 1 1 1 1 1 1 0 1 0 1 1 1 @17 NEW_SIMPLE_ATTRIB 1 @9 ENTITY_ID 0 3 24 -2147483648 -1 #
simple-snl-attrib $-1 -1 $408 $330 $268 1 1 1 1 1 1 1 1 1 1 1 1 0 1 0 1 1 1 @17 NEW_SIMPLE_ATTRIB 1 @9 ENTITY_ID 0 3 38 -2147483648 -1 #
simple-snl-attrib $-1 -1 $409 $332 $269 1 1 1 1 1 1 1 1 1 1 1 1 0 1 0 1 1 1 @17 NEW_SIMPLE_ATTRIB 1 @9 ENTITY_ID 0 3 40 -2147483648 -1 #
simple-snl-attrib $-1 -1 $-1 $335 $207 1 1 1 1 1 1 1 1 1 1 1 1 0 1 0 1 1 1 @17 NEW_SIMPLE_ATTRIB 7 @16 GRAPHICS_OPTIONS @14 geometry color @10 mesh color @19 geometry visibility @15 mesh visibility @11 render mode @11 transparent 0 6 -1 -1 0 1 0 0 #
simple-snl-attrib $-1 -1 $-1 $336 $208 1 1 1 1 1 1 1 1 1 1 1 1 0 1 0 1 1 1 @17 NEW_SIMPLE_ATTRIB 7 @16 GRAPHICS_OPTIONS @14 geometry color @10 mesh color @19 geometry visibility @15 mesh visibility @11 render mode @11 transparent 0 6 -1 -1 0 1 0 0 #
simple-snl-attrib $-1 -1 $-1 $339 $164 1 1 1 1 1 1 1 1 1 1 1 1 0 1 0 1 1 1 @17 NEW_SIMPLE_ATTRIB 1 @13 MERGE_PARTNER 0 4 312676816 1 1 0 #
simple-snl-attrib $-1 -1 $-1 $340 $95 1 1 1 1 1 1 1 1 1 1 1 1 0 1 0 1 1 1 @17 NEW_SIMPLE_ATTRIB 3 @13 MESH_INTERVAL @4 LIMP @4 LIMP 2 1 0 5 1 0 0 1 1 #
simple-snl-attrib $-1 -1 $410 $341 $222 1 1 1 1 1 1 1 1 1 1 1 1 0 1 0 1 1 1 @17 NEW_SIMPLE_ATTRIB 1 @9 ENTITY_ID 3 -0.86862347999579181 0.50149999999999972 0 3 13 1265517741 0 #
simple-snl-attrib $-1 -1 $411 $342 $285 1 1 1 1 1 1 1 1 1 1 1 1 0 1 0 1 1 1 @17 NEW_SIMPLE_ATTRIB 1 @9 UNIQUE_ID 1 0 1 1265517741 #
simple-snl-attrib $-1 -1 $-1 $345 $172 1 1 1 1 1 1 1 1 1 1 1 1 0 1 0 1 1 1 @17 NEW_SIMPLE_ATTRIB 1 @13 MERGE_PARTNER 0 4 312676816 1 10 1 #
simple-snl-attrib $-1 -1 $-1 $346 $101 1 1 1 1 1 1 1 1 1 1 1 1 0 1 0 1 1 1 @17 NEW_SIMPLE_ATTRIB 3 @13 MESH_INTERVAL @4 LIMP @4 LIMP 2 1 0 5 1 0 0 1 1 #
simple-snl-attrib $-1 -1 $412 $347 $229 1 1 1 1 1 1 1 1 1 1 1 1 0 1 0 1 1 1 @17 NEW_SIMPLE_ATTRIB 1 @9 ENTITY_ID 3 -0.86862347999579181 0.50149999999999972 0 3 13 1265517741 0 #
simple-snl-attrib $-1 -1 $413 $348 $292 1 1 1 1 1 1 1 1 1 1 1 1 0 1 0 1 1 1 @17 NEW_SIMPLE_ATTRIB 1 @9 UNIQUE_ID 1 0 1 1265517741 #
simple-snl-attrib $-1 -1 $-1 $351 $180 1 1 1 1 1 1 1 1 1 1 1 1 0 1 0 1 1 1 @17 NEW_SIMPLE_ATTRIB 1 @13 MERGE_PARTNER 0 4 312676816 1 11 0 #
simple-snl-attrib $-1 -1 $-1 $353 $107 1 1 1 1 1 1 1 1 1 1 1 1 0 1 0 1 1 1 @17 NEW_SIMPLE_ATTRIB 3 @13 MESH_INTERVAL @4 LIMP @4 LIMP 2 1 0 5 1 0 0 1 1 #
simple-snl-attrib $-1 -1 $-1 $354 $185 1 1 1 1 1 1 1 1 1 1 1 1 0 1 0 1 1 1 @17 NEW_SIMPLE_ATTRIB 1 @13 MERGE_PARTNER 0 4 377931996 -1 42 0 #
simple-snl-attrib $-1 -1 $414 $355 $236 1 1 1 1 1 1 1 1 1 1 1 1 0 1 0 1 1 1 @17 NEW_SIMPLE_ATTRIB 1 @9 ENTITY_ID 0 3 9 -2147483648 -1 #
simple-snl-attrib $-1 -1 $-1 $357 $190 1 1 1 1 1 1 1 1 1 1 1 1 0 1 0 1 1 1 @17 NEW_SIMPLE_ATTRIB 3 @13 MESH_INTERVAL @4 LIMP @4 LIMP 2 1 0 5 1 0 0 1 1 #
simple-snl-attrib $-1 -1 $415 $358 $242 1 1 1 1 1 1 1 1 1 1 1 1 0 1 0 1 1 1 @17 NEW_SIMPLE_ATTRIB 7 @16 GRAPHICS_OPTIONS @14 geometry color @10 mesh color @19 geometry visibility @15 mesh visibility @11 render mode @11 transparent 0 6 -1 -1 0 1 0 0 #
simple-snl-attrib $-1 -1 $416 $359 $307 1 1 1 1 1 1 1 1 1 1 1 1 0 1 0 1 1 1 @17 NEW_SIMPLE_ATTRIB 1 @9 ENTITY_ID 0 3 39 -2147483648 -1 #
simple-snl-attrib $-1 -1 $-1 $361 $248 1 1 1 1 1 1 1 1 1 1 1 1 0 1 0 1 1 1 @17 NEW_SIMPLE_ATTRIB 7 @16 GRAPHICS_OPTIONS @14 geometry color @10 mesh color @19 geometry visibility @15 mesh visibility @11 render mode @11 transparent 0 6 -1 -1 0 1 0 0 #
simple-snl-attrib $-1 -1 $417 $362 $309 1 1 1 1 1 1 1 1 1 1 1 1 0 1 0 1 1 1 @17 NEW_SIMPLE_ATTRIB 1 @9 ENTITY_ID 0 3 27 -2147483648 -1 #
simple-snl-attrib $-1 -1 $418 $364 $311 1 1 1 1 1 1 1 1 1 1 1 1 0 1 0 1 1 1 @17 NEW_SIMPLE_ATTRIB 1 @9 ENTITY_ID 0 3 35 -2147483648 -1 #
simple-snl-attrib $-1 -1 $-1 $366 $250 1 1 1 1 1 1 1 1 1 1 1 1 0 1 0 1 1 1 @17 NEW_SIMPLE_ATTRIB 7 @16 GRAPHICS_OPTIONS @14 geometry color @10 mesh color @19 geometry visibility @15 mesh visibility @11 render mode @11 transparent 0 6 -1 -1 0 1 0 0 #
simple-snl-attrib $-1 -1 $-1 $367 $252 1 1 1 1 1 1 1 1 1 1 1 1 0 1 0 1 1 1 @17 NEW_SIMPLE_ATTRIB 7 @16 GRAPHICS_OPTIONS @14 geometry color @10 mesh color @19 geometry visibility @15 mesh visibility @11 render mode @11 transparent 0 6 -1 -1 0 1 0 0 #
simple-snl-attrib $-1 -1 $419 $368 $315 1 1 1 1 1 1 1 1 1 1 1 1 0 1 0 1 1 1 @17 NEW_SIMPLE_ATTRIB 1 @9 ENTITY_ID 0 3 28 -2147483648 -1 #
simple-snl-attrib $-1 -1 $-1 $371 $254 1 1 1 1 1 1 1 1 1 1 1 1 0 1 0 1 1 1 @17 NEW_SIMPLE_ATTRIB 7 @16 GRAPHICS_OPTIONS @14 geometry color @10 mesh color @19 geometry visibility @15 mesh visibility @11 render mode @11 transparent 0 6 -1 -1 0 1 0 0 #
simple-snl-attrib $-1 -1 $-1 $372 $255 1 1 1 1 1 1 1 1 1 1 1 1 0 1 0 1 1 1 @17 NEW_SIMPLE_ATTRIB 7 @16 GRAPHICS_OPTIONS @14 geometry color @10 mesh color @19 geometry visibility @15 mesh visibility @11 render mode @11 transparent 0 6 -1 -1 0 1 0 0 #
simple-snl-attrib $-1 -1 $-1 $373 $258 1 1 1 1 1 1 1 1 1 1 1 1 0 1 0 1 1 1 @17 NEW_SIMPLE_ATTRIB 7 @16 GRAPHICS_OPTIONS @14 geometry color @10 mesh color @19 geometry visibility @15 mesh visibility @11 render mode @11 transparent 0 6 -1 -1 0 1 0 0 #
simple-snl-attrib $-1 -1 $-1 $375 $262 1 1 1 1 1 1 1 1 1 1 1 1 0 1 0 1 1 1 @17 NEW_SIMPLE_ATTRIB 7 @16 GRAPHICS_OPTIONS @14 geometry color @10 mesh color @19 geometry visibility @15 mesh visibility @11 render mode @11 transparent 0 6 -1 -1 0 1 0 0 #
simple-snl-attrib $-1 -1 $-1 $377 $266 1 1 1 1 1 1 1 1 1 1 1 1 0 1 0 1 1 1 @17 NEW_SIMPLE_ATTRIB 7 @16 GRAPHICS_OPTIONS @14 geometry color @10 mesh color @19 geometry visibility @15 mesh visibility @11 render mode @11 transparent 0 6 -1 -1 0 1 0 0 #
simple-snl-attrib $-1 -1 $-1 $378 $268 1 1 1 1 1 1 1 1 1 1 1 1 0 1 0 1 1 1 @17 NEW_SIMPLE_ATTRIB 7 @16 GRAPHICS_OPTIONS @14 geometry color @10 mesh color @19 geometry visibility @15 mesh visibility @11 render mode @11 transparent 0 6 -1 -1 0 1 0 0 #
simple-snl-attrib $-1 -1 $-1 $379 $269 1 1 1 1 1 1 1 1 1 1 1 1 0 1 0 1 1 1 @17 NEW_SIMPLE_ATTRIB 7 @16 GRAPHICS_OPTIONS @14 geometry color @10 mesh color @19 geometry visibility @15 mesh visibility @11 render mode @11 transparent 0 6 -1 -1 0 1 0 0 #
simple-snl-attrib $-1 -1 $-1 $384 $222 1 1 1 1 1 1 1 1 1 1 1 1 0 1 0 1 1 1 @17 NEW_SIMPLE_ATTRIB 1 @13 MERGE_PARTNER 0 4 377931996 1 15 1 #
simple-snl-attrib $-1 -1 $420 $385 $285 1 1 1 1 1 1 1 1 1 1 1 1 0 1 0 1 1 1 @17 NEW_SIMPLE_ATTRIB 1 @9 ENTITY_ID 0 3 9 -2147483648 -1 #
simple-snl-attrib $-1 -1 $-1 $388 $229 1 1 1 1 1 1 1 1 1 1 1 1 0 1 0 1 1 1 @17 NEW_SIMPLE_ATTRIB 1 @13 MERGE_PARTNER 0 4 377931996 1 16 0 #
simple-snl-attrib $-1 -1 $421 $389 $292 1 1 1 1 1 1 1 1 1 1 1 1 0 1 0 1 1 1 @17 NEW_SIMPLE_ATTRIB 1 @9 ENTITY_ID 0 3 9 -2147483648 -1 #
simple-snl-attrib $-1 -1 $-1 $393 $236 1 1 1 1 1 1 1 1 1 1 1 1 0 1 0 1 1 1 @17 NEW_SIMPLE_ATTRIB 1 @13 MERGE_PARTNER 0 4 1265517741 1 30 0 #
simple-snl-attrib $-1 -1 $-1 $395 $242 1 1 1 1 1 1 1 1 1 1 1 1 0 1 0 1 1 1 @17 NEW_SIMPLE_ATTRIB 3 @13 MESH_INTERVAL @4 LIMP @4 LIMP 2 1 0 5 1 0 0 1 1 #
simple-snl-attrib $-1 -1 $-1 $396 $307 1 1 1 1 1 1 1 1 1 1 1 1 0 1 0 1 1 1 @17 NEW_SIMPLE_ATTRIB 7 @16 GRAPHICS_OPTIONS @14 geometry color @10 mesh color @19 geometry visibility @15 mesh visibility @11 render mode @11 transparent 0 6 -1 -1 0 1 0 0 #
simple-snl-attrib $-1 -1 $-1 $398 $309 1 1 1 1 1 1 1 1 1 1 1 1 0 1 0 1 1 1 @17 NEW_SIMPLE_ATTRIB 7 @16 GRAPHICS_OPTIONS @14 geometry color @10 mesh color @19 geometry visibility @15 mesh visibility @11 render mode @11 transparent 0 6 -1 -1 0 1 0 0 #
simple-snl-attrib $-1 -1 $-1 $399 $311 1 1 1 1 1 1 1 1 1 1 1 1 0 1 0 1 1 1 @17 NEW_SIMPLE_ATTRIB 7 @16 GRAPHICS_OPTIONS @14 geometry color @10 mesh color @19 geometry visibility @15 mesh visibility @11 render mode @11 transparent 0 6 -1 -1 0 1 0 0 #
simple-snl-attrib $-1 -1 $-1 $402 $315 1 1 1 1 1 1 1 1 1 1 1 1 0 1 0 1 1 1 @17 NEW_SIMPLE_ATTRIB 7 @16 GRAPHICS_OPTIONS @14 geometry color @10 mesh color @19 geometry visibility @15 mesh visibility @11 render mode @11 transparent 0 6 -1 -1 0 1 0 0 #
simple-snl-attrib $-1 -1 $-1 $411 $285 1 1 1 1 1 1 1 1 1 1 1 1 0 1 0 1 1 1 @17 NEW_SIMPLE_ATTRIB 1 @13 MERGE_PARTNER 0 4 1265517741 1 11 1 #
simple-snl-attrib $-1 -1 $-1 $413 $292 1 1 1 1 1 1 1 1 1 1 1 1 0 1 0 1 1 1 @17 NEW_SIMPLE_ATTRIB 1 @13 MERGE_PARTNER 0 4 1265517741 1 12 0 #
End-of-ACIS-data 