1600 0 2 0           
10 Cubit 10.2 17 ACIS 16.0.1 Linux 24 Tue Feb 15 07:35:05 2011 
1 9.9999999999999995e-07 1e-10 
body $2 -1 -1 $-1 $3 $-1 $4 T -5 -5 -5 5 5 5 #
body $5 -1 -1 $-1 $6 $-1 $7 T -10 -10 -10 10 10 10 #
simple-snl-attrib $-1 -1 $-1 $-1 $0 1 1 1 1 1 1 1 1 1 1 1 1 0 1 0 1 1 1 @17 NEW_SIMPLE_ATTRIB 1 @9 ENTITY_ID 0 3 2 -2147483648 -1 #
lump $8 -1 -1 $-1 $-1 $9 $0 T -5 -5 -5 5 5 5 #
transform $-1 -1 1 0 0 0 1 0 0 0 1 0 0 0 1 no_rotate no_reflect no_shear #
simple-snl-attrib $-1 -1 $-1 $-1 $1 1 1 1 1 1 1 1 1 1 1 1 1 0 1 0 1 1 1 @17 NEW_SIMPLE_ATTRIB 1 @9 ENTITY_ID 0 3 3 -2147483648 -1 #
lump $10 -1 -1 $-1 $-1 $11 $1 T -10 -10 -10 10 10 10 #
transform $-1 -1 1 0 0 0 1 0 0 0 1 0 0 0 1 no_rotate no_reflect no_shear #
simple-snl-attrib $-1 -1 $12 $-1 $3 1 1 1 1 1 1 1 1 1 1 1 1 0 1 0 1 1 1 @17 NEW_SIMPLE_ATTRIB 7 @16 GRAPHICS_OPTIONS @14 geometry color @10 mesh color @19 geometry visibility @15 mesh visibility @11 render mode @11 transparent 0 6 2 2 1 1 0 0 #
shell $-1 -1 -1 $-1 $-1 $-1 $13 $-1 $3 T -5 -5 -5 5 5 5 #
simple-snl-attrib $-1 -1 $14 $-1 $6 1 1 1 1 1 1 1 1 1 1 1 1 0 1 0 1 1 1 @17 NEW_SIMPLE_ATTRIB 2 @5 GROUP @9 graveyard 0 7 1 2 472127612 0 0 0 0 #
shell $-1 -1 -1 $-1 $15 $-1 $16 $-1 $6 T -10 -10 -10 10 10 10 #
simple-snl-attrib $-1 -1 $-1 $8 $3 1 1 1 1 1 1 1 1 1 1 1 1 0 1 0 1 1 1 @17 NEW_SIMPLE_ATTRIB 1 @9 ENTITY_ID 0 3 1 -2147483648 -1 #
face $17 -1 -1 $-1 $-1 $-1 $9 $-1 $18 forward single T -5 -5 -5 5 5 5 F #
simple-snl-attrib $-1 -1 $19 $10 $6 1 1 1 1 1 1 1 1 1 1 1 1 0 1 0 1 1 1 @17 NEW_SIMPLE_ATTRIB 7 @16 GRAPHICS_OPTIONS @14 geometry color @10 mesh color @19 geometry visibility @15 mesh visibility @11 render mode @11 transparent 0 6 3 3 1 1 0 0 #
shell $-1 -1 -1 $-1 $-1 $-1 $20 $-1 $6 T -5 -5 -5 5 5 5 #
face $21 -1 -1 $-1 $22 $23 $11 $-1 $24 forward single T -10 -10 10 10 10 10 F #
simple-snl-attrib $-1 -1 $25 $-1 $13 1 1 1 1 1 1 1 1 1 1 1 1 0 1 0 1 1 1 @17 NEW_SIMPLE_ATTRIB 1 @9 UNIQUE_ID 1 0 1 1136015348 #
sphere-surface $-1 -1 -1 $-1 0 0 0 5 1 0 0 0 0 1 forward_v I I I I #
simple-snl-attrib $-1 -1 $-1 $14 $6 1 1 1 1 1 1 1 1 1 1 1 1 0 1 0 1 1 1 @17 NEW_SIMPLE_ATTRIB 1 @9 ENTITY_ID 0 3 2 -2147483648 -1 #
face $26 -1 -1 $-1 $-1 $-1 $15 $-1 $27 reversed single T -5 -5 -5 5 5 5 F #
simple-snl-attrib $-1 -1 $-1 $-1 $16 1 1 1 1 1 1 1 1 1 1 1 1 0 1 0 1 1 1 @17 NEW_SIMPLE_ATTRIB 1 @9 ENTITY_ID 0 3 2 -2147483648 -1 #
face $28 -1 -1 $-1 $29 $30 $11 $-1 $31 reversed single T -10 -10 -10 10 10 -10 F #
loop $-1 -1 -1 $-1 $-1 $32 $16 T -10 -10 10 10 10 10 unknown #
plane-surface $-1 -1 -1 $-1 0 0 10 0 0 1 1 0 0 forward_v I I I I #
simple-snl-attrib $-1 -1 $33 $17 $13 1 1 1 1 1 1 1 1 1 1 1 1 0 1 0 1 1 1 @17 NEW_SIMPLE_ATTRIB 1 @13 MERGE_PARTNER 0 4 1136015348 1 1 1 #
simple-snl-attrib $-1 -1 $34 $-1 $20 1 1 1 1 1 1 1 1 1 1 1 1 0 1 0 1 1 1 @17 NEW_SIMPLE_ATTRIB 1 @9 UNIQUE_ID 1 0 1 1136015348 #
sphere-surface $-1 -1 -1 $-1 0 0 0 5 1 0 0 0 0 1 forward_v I I I I #
simple-snl-attrib $-1 -1 $-1 $-1 $22 1 1 1 1 1 1 1 1 1 1 1 1 0 1 0 1 1 1 @17 NEW_SIMPLE_ATTRIB 1 @9 ENTITY_ID 0 3 3 -2147483648 -1 #
face $35 -1 -1 $-1 $36 $37 $11 $-1 $38 reversed single T -10 -10 -10 10 -10 10 F #
loop $-1 -1 -1 $-1 $-1 $39 $22 T -10 -10 -10 10 10 -10 unknown #
plane-surface $-1 -1 -1 $-1 0 0 -10 0 0 1 1 0 0 forward_v I I I I #
coedge $-1 -1 -1 $-1 $40 $41 $42 $43 forward $23 $-1 #
simple-snl-attrib $-1 -1 $-1 $25 $13 1 1 1 1 1 1 1 1 1 1 1 1 0 1 0 1 1 1 @17 NEW_SIMPLE_ATTRIB 1 @9 ENTITY_ID 0 3 1 -2147483648 -1 #
simple-snl-attrib $-1 -1 $44 $26 $20 1 1 1 1 1 1 1 1 1 1 1 1 0 1 0 1 1 1 @17 NEW_SIMPLE_ATTRIB 1 @13 MERGE_PARTNER 0 4 1136015348 -1 8 0 #
simple-snl-attrib $-1 -1 $-1 $-1 $29 1 1 1 1 1 1 1 1 1 1 1 1 0 1 0 1 1 1 @17 NEW_SIMPLE_ATTRIB 1 @9 ENTITY_ID 0 3 4 -2147483648 -1 #
face $45 -1 -1 $-1 $46 $47 $11 $-1 $48 reversed single T -10 -10 -10 -10 10 10 F #
loop $-1 -1 -1 $-1 $-1 $49 $29 T -10 -10 -10 10 -10 10 unknown #
plane-surface $-1 -1 -1 $-1 0 -10 0 0 1 -0 -0 0 1 forward_v I I I I #
coedge $-1 -1 -1 $-1 $50 $51 $52 $53 forward $30 $-1 #
coedge $-1 -1 -1 $-1 $54 $32 $55 $56 forward $23 $-1 #
coedge $-1 -1 -1 $-1 $32 $54 $57 $58 forward $23 $-1 #
coedge $-1 -1 -1 $-1 $59 $60 $32 $43 reversed $61 $-1 #
edge $62 -1 -1 $-1 $63 -10 $64 10 $42 $65 forward @7 unknown T 10 -10 10 10 10 10 #
simple-snl-attrib $-1 -1 $-1 $34 $20 1 1 1 1 1 1 1 1 1 1 1 1 0 1 0 1 1 1 @17 NEW_SIMPLE_ATTRIB 1 @9 ENTITY_ID 0 3 1 -2147483648 -1 #
simple-snl-attrib $-1 -1 $-1 $-1 $36 1 1 1 1 1 1 1 1 1 1 1 1 0 1 0 1 1 1 @17 NEW_SIMPLE_ATTRIB 1 @9 ENTITY_ID 0 3 5 -2147483648 -1 #
face $66 -1 -1 $-1 $67 $68 $11 $-1 $69 reversed single T -10 10 -10 10 10 10 F #
loop $-1 -1 -1 $-1 $-1 $70 $36 T -10 -10 -10 -10 10 10 unknown #
plane-surface $-1 -1 -1 $-1 -10 0 0 1 0 0 0 0 -1 forward_v I I I I #
coedge $-1 -1 -1 $-1 $71 $57 $72 $73 forward $37 $-1 #
coedge $-1 -1 -1 $-1 $74 $39 $71 $75 forward $30 $-1 #
coedge $-1 -1 -1 $-1 $39 $74 $76 $77 forward $30 $-1 #
coedge $-1 -1 -1 $-1 $60 $59 $39 $53 reversed $61 $-1 #
edge $78 -1 -1 $-1 $79 -10 $80 10 $52 $81 forward @7 unknown T 10 -10 -10 10 10 -10 #
coedge $-1 -1 -1 $-1 $41 $40 $82 $83 forward $23 $-1 #
coedge $-1 -1 -1 $-1 $84 $85 $40 $56 reversed $68 $-1 #
edge $86 -1 -1 $-1 $64 -10 $87 10 $55 $88 forward @7 unknown T -10 10 10 10 10 10 #
coedge $-1 -1 -1 $-1 $49 $89 $41 $58 reversed $37 $-1 #
edge $90 -1 -1 $-1 $91 -10 $63 10 $57 $92 forward @7 unknown T -10 -10 10 10 -10 10 #
coedge $-1 -1 -1 $-1 $52 $42 $89 $93 forward $61 $-1 #
coedge $-1 -1 -1 $-1 $42 $52 $84 $94 reversed $61 $-1 #
loop $-1 -1 -1 $-1 $-1 $59 $67 T 10 -10 -10 10 10 10 unknown #
simple-snl-attrib $-1 -1 $-1 $-1 $43 1 1 1 1 1 1 1 1 1 1 1 1 0 1 0 1 1 1 @17 NEW_SIMPLE_ATTRIB 1 @9 ENTITY_ID 0 3 13 -2147483648 -1 #
vertex $95 -1 -1 $-1 $43 $96 #
vertex $97 -1 -1 $-1 $43 $98 #
straight-curve $-1 -1 -1 $-1 10 0 10 0 1 0 I I #
simple-snl-attrib $-1 -1 $-1 $-1 $46 1 1 1 1 1 1 1 1 1 1 1 1 0 1 0 1 1 1 @17 NEW_SIMPLE_ATTRIB 1 @9 ENTITY_ID 0 3 6 -2147483648 -1 #
face $99 -1 -1 $-1 $-1 $61 $11 $-1 $100 reversed single T 10 -10 -10 10 10 10 F #
loop $-1 -1 -1 $-1 $-1 $84 $46 T -10 10 -10 10 10 10 unknown #
plane-surface $-1 -1 -1 $-1 0 10 0 0 -1 0 0 0 -1 forward_v I I I I #
coedge $-1 -1 -1 $-1 $101 $82 $85 $102 forward $47 $-1 #
coedge $-1 -1 -1 $-1 $89 $49 $50 $75 reversed $37 $-1 #
coedge $-1 -1 -1 $-1 $82 $101 $49 $73 reversed $47 $-1 #
edge $103 -1 -1 $-1 $91 -10 $104 10 $72 $105 forward @7 unknown T -10 -10 -10 -10 -10 10 #
coedge $-1 -1 -1 $-1 $51 $50 $101 $106 forward $30 $-1 #
edge $107 -1 -1 $-1 $80 -10 $104 10 $71 $108 forward @7 unknown T -10 -10 -10 10 -10 -10 #
coedge $-1 -1 -1 $-1 $85 $84 $51 $77 reversed $68 $-1 #
edge $109 -1 -1 $-1 $110 -10 $79 10 $76 $111 forward @7 unknown T -10 10 -10 10 10 -10 #
simple-snl-attrib $-1 -1 $-1 $-1 $53 1 1 1 1 1 1 1 1 1 1 1 1 0 1 0 1 1 1 @17 NEW_SIMPLE_ATTRIB 1 @9 ENTITY_ID 0 3 17 -2147483648 -1 #
vertex $112 -1 -1 $-1 $53 $113 #
vertex $114 -1 -1 $-1 $93 $115 #
straight-curve $-1 -1 -1 $-1 10 0 -10 0 -1 0 I I #
coedge $-1 -1 -1 $-1 $70 $72 $54 $83 reversed $47 $-1 #
edge $116 -1 -1 $-1 $87 -10 $91 10 $82 $117 forward @7 unknown T -10 -10 10 -10 10 10 #
coedge $-1 -1 -1 $-1 $76 $55 $60 $94 forward $68 $-1 #
coedge $-1 -1 -1 $-1 $55 $76 $70 $102 reversed $68 $-1 #
simple-snl-attrib $-1 -1 $-1 $-1 $56 1 1 1 1 1 1 1 1 1 1 1 1 0 1 0 1 1 1 @17 NEW_SIMPLE_ATTRIB 1 @9 ENTITY_ID 0 3 14 -2147483648 -1 #
vertex $118 -1 -1 $-1 $56 $119 #
straight-curve $-1 -1 -1 $-1 0 10 10 -1 0 0 I I #
coedge $-1 -1 -1 $-1 $57 $71 $59 $93 reversed $37 $-1 #
simple-snl-attrib $-1 -1 $-1 $-1 $58 1 1 1 1 1 1 1 1 1 1 1 1 0 1 0 1 1 1 @17 NEW_SIMPLE_ATTRIB 1 @9 ENTITY_ID 0 3 16 -2147483648 -1 #
vertex $120 -1 -1 $-1 $83 $121 #
straight-curve $-1 -1 -1 $-1 0 -10 10 1 0 0 I I #
edge $122 -1 -1 $-1 $63 -10 $80 10 $59 $123 forward @7 unknown T 10 -10 -10 10 -10 10 #
edge $124 -1 -1 $-1 $64 -10 $79 10 $60 $125 forward @7 unknown T 10 10 -10 10 10 10 #
simple-snl-attrib $-1 -1 $-1 $-1 $63 1 1 1 1 1 1 1 1 1 1 1 1 0 1 0 1 1 1 @17 NEW_SIMPLE_ATTRIB 1 @9 ENTITY_ID 0 3 9 -2147483648 -1 #
point $-1 -1 -1 $-1 10 -10 10 #
simple-snl-attrib $-1 -1 $-1 $-1 $64 1 1 1 1 1 1 1 1 1 1 1 1 0 1 0 1 1 1 @17 NEW_SIMPLE_ATTRIB 1 @9 ENTITY_ID 0 3 10 -2147483648 -1 #
point $-1 -1 -1 $-1 10 10 10 #
simple-snl-attrib $-1 -1 $-1 $-1 $67 1 1 1 1 1 1 1 1 1 1 1 1 0 1 0 1 1 1 @17 NEW_SIMPLE_ATTRIB 1 @9 ENTITY_ID 0 3 7 -2147483648 -1 #
plane-surface $-1 -1 -1 $-1 10 0 0 -1 0 0 0 -0 1 forward_v I I I I #
coedge $-1 -1 -1 $-1 $72 $70 $74 $106 reversed $47 $-1 #
edge $126 -1 -1 $-1 $87 -10 $110 10 $85 $127 forward @7 unknown T -10 10 -10 -10 10 10 #
simple-snl-attrib $-1 -1 $-1 $-1 $73 1 1 1 1 1 1 1 1 1 1 1 1 0 1 0 1 1 1 @17 NEW_SIMPLE_ATTRIB 1 @9 ENTITY_ID 0 3 21 -2147483648 -1 #
vertex $128 -1 -1 $-1 $106 $129 #
straight-curve $-1 -1 -1 $-1 -10 -10 0 0 0 -1 I I #
edge $130 -1 -1 $-1 $104 -10 $110 10 $101 $131 forward @7 unknown T -10 -10 -10 -10 10 -10 #
simple-snl-attrib $-1 -1 $-1 $-1 $75 1 1 1 1 1 1 1 1 1 1 1 1 0 1 0 1 1 1 @17 NEW_SIMPLE_ATTRIB 1 @9 ENTITY_ID 0 3 18 -2147483648 -1 #
straight-curve $-1 -1 -1 $-1 0 -10 -10 -1 0 0 I I #
simple-snl-attrib $-1 -1 $-1 $-1 $77 1 1 1 1 1 1 1 1 1 1 1 1 0 1 0 1 1 1 @17 NEW_SIMPLE_ATTRIB 1 @9 ENTITY_ID 0 3 20 -2147483648 -1 #
vertex $132 -1 -1 $-1 $77 $133 #
straight-curve $-1 -1 -1 $-1 0 10 -10 1 0 0 I I #
simple-snl-attrib $-1 -1 $-1 $-1 $79 1 1 1 1 1 1 1 1 1 1 1 1 0 1 0 1 1 1 @17 NEW_SIMPLE_ATTRIB 1 @9 ENTITY_ID 0 3 13 -2147483648 -1 #
point $-1 -1 -1 $-1 10 10 -10 #
simple-snl-attrib $-1 -1 $-1 $-1 $80 1 1 1 1 1 1 1 1 1 1 1 1 0 1 0 1 1 1 @17 NEW_SIMPLE_ATTRIB 1 @9 ENTITY_ID 0 3 14 -2147483648 -1 #
point $-1 -1 -1 $-1 10 -10 -10 #
simple-snl-attrib $-1 -1 $-1 $-1 $83 1 1 1 1 1 1 1 1 1 1 1 1 0 1 0 1 1 1 @17 NEW_SIMPLE_ATTRIB 1 @9 ENTITY_ID 0 3 15 -2147483648 -1 #
straight-curve $-1 -1 -1 $-1 -10 0 10 0 -1 0 I I #
simple-snl-attrib $-1 -1 $-1 $-1 $87 1 1 1 1 1 1 1 1 1 1 1 1 0 1 0 1 1 1 @17 NEW_SIMPLE_ATTRIB 1 @9 ENTITY_ID 0 3 11 -2147483648 -1 #
point $-1 -1 -1 $-1 -10 10 10 #
simple-snl-attrib $-1 -1 $-1 $-1 $91 1 1 1 1 1 1 1 1 1 1 1 1 0 1 0 1 1 1 @17 NEW_SIMPLE_ATTRIB 1 @9 ENTITY_ID 0 3 12 -2147483648 -1 #
point $-1 -1 -1 $-1 -10 -10 10 #
simple-snl-attrib $-1 -1 $-1 $-1 $93 1 1 1 1 1 1 1 1 1 1 1 1 0 1 0 1 1 1 @17 NEW_SIMPLE_ATTRIB 1 @9 ENTITY_ID 0 3 22 -2147483648 -1 #
straight-curve $-1 -1 -1 $-1 10 -10 0 0 0 -1 I I #
simple-snl-attrib $-1 -1 $-1 $-1 $94 1 1 1 1 1 1 1 1 1 1 1 1 0 1 0 1 1 1 @17 NEW_SIMPLE_ATTRIB 1 @9 ENTITY_ID 0 3 24 -2147483648 -1 #
straight-curve $-1 -1 -1 $-1 10 10 0 0 0 -1 I I #
simple-snl-attrib $-1 -1 $-1 $-1 $102 1 1 1 1 1 1 1 1 1 1 1 1 0 1 0 1 1 1 @17 NEW_SIMPLE_ATTRIB 1 @9 ENTITY_ID 0 3 23 -2147483648 -1 #
straight-curve $-1 -1 -1 $-1 -10 10 0 0 0 -1 I I #
simple-snl-attrib $-1 -1 $-1 $-1 $104 1 1 1 1 1 1 1 1 1 1 1 1 0 1 0 1 1 1 @17 NEW_SIMPLE_ATTRIB 1 @9 ENTITY_ID 0 3 15 -2147483648 -1 #
point $-1 -1 -1 $-1 -10 -10 -10 #
simple-snl-attrib $-1 -1 $-1 $-1 $106 1 1 1 1 1 1 1 1 1 1 1 1 0 1 0 1 1 1 @17 NEW_SIMPLE_ATTRIB 1 @9 ENTITY_ID 0 3 19 -2147483648 -1 #
straight-curve $-1 -1 -1 $-1 -10 0 -10 0 1 0 I I #
simple-snl-attrib $-1 -1 $-1 $-1 $110 1 1 1 1 1 1 1 1 1 1 1 1 0 1 0 1 1 1 @17 NEW_SIMPLE_ATTRIB 1 @9 ENTITY_ID 0 3 16 -2147483648 -1 #
point $-1 -1 -1 $-1 -10 10 -10 #
End-of-ACIS-data 