1600 0 3 0           
10 Cubit 12.2 17 ACIS 19.0.2 Linux 24 Wed Jun  8 09:18:29 2011 
1 9.9999999999999995e-07 1e-10 
body $3 -1 -1 $-1 $4 $-1 $-1 T -3.3976099999999998 -3.3976099999999998 -500000 3.3976099999999998 3.3976099999999998 500000 #
body $5 -1 -1 $-1 $6 $-1 $-1 T -6.4613350000000001 -6.4613350000000001 -500000 6.4613350000000001 6.4613350000000001 500000 #
body $7 -1 -1 $-1 $8 $-1 $-1 T -10 -10 -500500 10 10 500500 #
integer_attrib-name_attrib-gen-attrib $-1 -1 $9 $-1 $0 2 1 1 1 1 1 1 1 1 1 1 1 1 1 0 1 1 1 @8 CUBIT_ID 1 #
lump $10 -1 -1 $-1 $-1 $11 $0 T -3.3976099999999998 -3.3976099999999998 -500000 3.3976099999999998 3.3976099999999998 500000 #
integer_attrib-name_attrib-gen-attrib $-1 -1 $12 $-1 $1 2 1 1 1 1 1 1 1 1 1 1 1 1 1 0 1 1 1 @8 CUBIT_ID 3 #
lump $13 -1 -1 $-1 $-1 $14 $1 T -6.4613350000000001 -6.4613350000000001 -500000 6.4613350000000001 6.4613350000000001 500000 #
integer_attrib-name_attrib-gen-attrib $-1 -1 $15 $-1 $2 2 1 1 1 1 1 1 1 1 1 1 1 1 1 0 1 1 1 @8 CUBIT_ID 5 #
lump $16 -1 -1 $-1 $-1 $17 $2 T -10 -10 -500500 10 10 500500 #
simple-snl-attrib $-1 -1 $-1 $3 $0 1 1 1 1 1 1 1 1 1 1 1 1 0 1 0 1 1 1 @17 NEW_SIMPLE_ATTRIB 1 @9 ENTITY_ID 0 3 1 -2147483648 -1 #
integer_attrib-name_attrib-gen-attrib $-1 -1 $18 $-1 $4 2 1 1 1 1 1 1 1 1 1 1 1 1 1 0 1 1 1 @8 CUBIT_ID 1 #
shell $-1 -1 -1 $-1 $-1 $-1 $19 $-1 $4 T -3.3976099999999998 -3.3976099999999998 -500000 3.3976099999999998 3.3976099999999998 500000 #
simple-snl-attrib $-1 -1 $-1 $5 $1 1 1 1 1 1 1 1 1 1 1 1 1 0 1 0 1 1 1 @17 NEW_SIMPLE_ATTRIB 1 @9 ENTITY_ID 0 3 3 -2147483648 -1 #
integer_attrib-name_attrib-gen-attrib $-1 -1 $20 $-1 $6 2 1 1 1 1 1 1 1 1 1 1 1 1 1 0 1 1 1 @8 CUBIT_ID 3 #
shell $-1 -1 -1 $-1 $-1 $-1 $21 $-1 $6 T -6.4613350000000001 -6.4613350000000001 -500000 6.4613350000000001 6.4613350000000001 500000 #
simple-snl-attrib $-1 -1 $-1 $7 $2 1 1 1 1 1 1 1 1 1 1 1 1 0 1 0 1 1 1 @17 NEW_SIMPLE_ATTRIB 1 @9 ENTITY_ID 0 3 5 -2147483648 -1 #
integer_attrib-name_attrib-gen-attrib $-1 -1 $22 $-1 $8 2 1 1 1 1 1 1 1 1 1 1 1 1 1 0 1 1 1 @8 CUBIT_ID 5 #
shell $-1 -1 -1 $-1 $23 $-1 $24 $-1 $8 T -10 -10 -500500 10 10 500500 #
simple-snl-attrib $-1 -1 $25 $10 $4 1 1 1 1 1 1 1 1 1 1 1 1 0 1 0 1 1 1 @17 NEW_SIMPLE_ATTRIB 1 @9 ENTITY_ID 0 3 1 -2147483648 -1 #
face $26 -1 -1 $-1 $27 $28 $11 $-1 $29 forward single T -3.3976099999999998 -3.3976099999999998 -500000 3.3976099999999998 3.3976099999999998 500000 F #
simple-snl-attrib $-1 -1 $30 $13 $6 1 1 1 1 1 1 1 1 1 1 1 1 0 1 0 1 1 1 @17 NEW_SIMPLE_ATTRIB 1 @9 ENTITY_ID 0 3 3 -2147483648 -1 #
face $31 -1 -1 $-1 $32 $33 $14 $-1 $34 reversed single T -3.3976099999999998 -3.3976099999999998 -500000 3.3976099999999998 3.3976099999999998 500000 F #
simple-snl-attrib $-1 -1 $35 $16 $8 1 1 1 1 1 1 1 1 1 1 1 1 0 1 0 1 1 1 @17 NEW_SIMPLE_ATTRIB 1 @9 ENTITY_ID 0 3 5 -2147483648 -1 #
shell $-1 -1 -1 $-1 $-1 $-1 $36 $-1 $8 T -6.4613350000000001 -6.4613350000000001 -500000 6.4613350000000001 6.4613350000000001 500000 #
face $37 -1 -1 $-1 $38 $39 $17 $-1 $40 forward single T -10 -10 500500 10 10 500500 F #
simple-snl-attrib $-1 -1 $41 $18 $4 1 1 1 1 1 1 1 1 1 1 1 1 0 1 0 1 1 1 @17 NEW_SIMPLE_ATTRIB 2 @5 GROUP @11 mat_1_rho_1 0 7 1 3 2073518822 0 0 0 0 #
integer_attrib-name_attrib-gen-attrib $-1 -1 $42 $-1 $19 2 1 1 1 1 1 1 1 1 1 1 1 1 1 0 1 1 1 @8 CUBIT_ID 1 #
face $43 -1 -1 $-1 $44 $45 $11 $-1 $46 forward single T -3.3976099999999998 -3.3976099999999998 -500000 3.3976099999999998 3.3976099999999998 -500000 F #
loop $-1 -1 -1 $-1 $47 $48 $19 T -3.3976099999999998 -3.3976099999999998 -500000 3.3976099999999998 3.3976099999999998 -500000 unknown #
cone-surface $-1 -1 -1 $-1 0 0 0 0 0 1 3.3976099999999998 0 0 1 I I 0 1 3.3976099999999998 forward I I I I #
simple-snl-attrib $-1 -1 $49 $20 $6 1 1 1 1 1 1 1 1 1 1 1 1 0 1 0 1 1 1 @17 NEW_SIMPLE_ATTRIB 2 @5 GROUP @11 mat_2_rho_1 0 7 1 4 2076388310 0 0 0 0 #
integer_attrib-name_attrib-gen-attrib $-1 -1 $50 $-1 $21 2 1 1 1 1 1 1 1 1 1 1 1 1 1 0 1 1 1 @8 CUBIT_ID 1 #
face $51 -1 -1 $-1 $52 $53 $14 $-1 $54 forward single T -6.4613350000000001 -6.4613350000000001 -500000 6.4613350000000001 6.4613350000000001 500000 F #
loop $-1 -1 -1 $-1 $55 $56 $21 T -3.3976099999999998 -3.3976099999999998 -500000 3.3976099999999998 3.3976099999999998 -500000 unknown #
cone-surface $-1 -1 -1 $-1 0 0 0 0 0 1 3.3976099999999998 0 0 1 I I 0 1 3.3976099999999998 forward I I I I #
simple-snl-attrib $-1 -1 $57 $22 $8 1 1 1 1 1 1 1 1 1 1 1 1 0 1 0 1 1 1 @17 NEW_SIMPLE_ATTRIB 2 @5 GROUP @9 graveyard 0 7 1 2 135898318 0 0 0 0 #
face $58 -1 -1 $-1 $59 $60 $23 $-1 $61 reversed single T -3.3976099999999998 -3.3976099999999998 -500000 3.3976099999999998 3.3976099999999998 -500000 F #
integer_attrib-name_attrib-gen-attrib $-1 -1 $62 $-1 $24 2 1 1 1 1 1 1 1 1 1 1 1 1 1 0 1 1 1 @8 CUBIT_ID 17 #
face $63 -1 -1 $-1 $64 $65 $17 $-1 $66 reversed single T -10 -10 -500500 10 10 -500500 F #
loop $-1 -1 -1 $-1 $-1 $67 $24 T -10 -10 500500 10 10 500500 unknown #
plane-surface $-1 -1 -1 $-1 0 0 500500 0 0 1 1 0 0 forward_v I I I I #
simple-snl-attrib $-1 -1 $-1 $25 $4 1 1 1 1 1 1 1 1 1 1 1 1 0 1 0 1 1 1 @17 NEW_SIMPLE_ATTRIB 7 @16 GRAPHICS_OPTIONS @14 geometry color @10 mesh color @19 geometry visibility @15 mesh visibility @11 render mode @11 transparent 0 6 4 4 1 1 0 0 #
simple-snl-attrib $-1 -1 $68 $26 $19 1 1 1 1 1 1 1 1 1 1 1 1 0 1 0 1 1 1 @17 NEW_SIMPLE_ATTRIB 1 @9 UNIQUE_ID 1 0 1 1174159731 #
integer_attrib-name_attrib-gen-attrib $-1 -1 $69 $-1 $27 2 1 1 1 1 1 1 1 1 1 1 1 1 1 0 1 1 1 @8 CUBIT_ID 2 #
face $70 -1 -1 $-1 $-1 $71 $11 $-1 $72 forward single T -3.3976099999999998 -3.3976099999999998 500000 3.3976099999999998 3.3976099999999998 500000 F #
loop $-1 -1 -1 $-1 $-1 $73 $27 T -3.3976099999999998 -3.3976099999999998 -500000 3.3976099999999998 3.3976099999999998 -500000 unknown #
plane-surface $-1 -1 -1 $-1 0 0 -500000 0 0 -1 -1 0 0 forward_v I I I I #
loop $-1 -1 -1 $-1 $-1 $74 $19 T -3.3976099999999998 -3.3976099999999998 500000 3.3976099999999998 3.3976099999999998 500000 unknown #
coedge $-1 -1 -1 $-1 $48 $48 $73 $75 reversed $28 $-1 #
simple-snl-attrib $-1 -1 $-1 $30 $6 1 1 1 1 1 1 1 1 1 1 1 1 0 1 0 1 1 1 @17 NEW_SIMPLE_ATTRIB 7 @16 GRAPHICS_OPTIONS @14 geometry color @10 mesh color @19 geometry visibility @15 mesh visibility @11 render mode @11 transparent 0 6 6 6 1 1 0 0 #
simple-snl-attrib $-1 -1 $76 $31 $21 1 1 1 1 1 1 1 1 1 1 1 1 0 1 0 1 1 1 @17 NEW_SIMPLE_ATTRIB 1 @9 UNIQUE_ID 1 0 1 1174159731 #
integer_attrib-name_attrib-gen-attrib $-1 -1 $77 $-1 $32 2 1 1 1 1 1 1 1 1 1 1 1 1 1 0 1 1 1 @8 CUBIT_ID 8 #
face $78 -1 -1 $-1 $79 $80 $14 $-1 $81 forward single T -6.4613350000000001 -6.4613350000000001 -500000 6.4613350000000001 6.4613350000000001 -500000 F #
loop $-1 -1 -1 $-1 $82 $83 $32 T -6.4613350000000001 -6.4613350000000001 -500000 6.4613350000000001 6.4613350000000001 -500000 u_sep $54 F #
cone-surface $-1 -1 -1 $-1 0 0 0 0 0 1 6.4613350000000001 0 0 1 I I 0 1 6.4613350000000001 forward I I I I #
loop $-1 -1 -1 $-1 $-1 $84 $21 T -3.3976099999999998 -3.3976099999999998 500000 3.3976099999999998 3.3976099999999998 500000 unknown #
coedge $-1 -1 -1 $-1 $56 $56 $85 $86 reversed $33 $-1 #
simple-snl-attrib $-1 -1 $-1 $35 $8 1 1 1 1 1 1 1 1 1 1 1 1 0 1 0 1 1 1 @17 NEW_SIMPLE_ATTRIB 7 @16 GRAPHICS_OPTIONS @14 geometry color @10 mesh color @19 geometry visibility @15 mesh visibility @11 render mode @11 transparent 0 6 8 8 0 0 0 0 #
integer_attrib-name_attrib-gen-attrib $-1 -1 $87 $-1 $36 2 1 1 1 1 1 1 1 1 1 1 1 1 1 0 1 1 1 @8 CUBIT_ID 2 #
face $88 -1 -1 $-1 $89 $90 $23 $-1 $91 reversed single T -3.3976099999999998 -3.3976099999999998 500000 3.3976099999999998 3.3976099999999998 500000 F #
loop $-1 -1 -1 $-1 $-1 $92 $36 T -3.3976099999999998 -3.3976099999999998 -500000 3.3976099999999998 3.3976099999999998 -500000 unknown #
plane-surface $-1 -1 -1 $-1 0 0 -500000 0 0 -1 -1 0 0 forward_v I I I I #
simple-snl-attrib $-1 -1 $93 $37 $24 1 1 1 1 1 1 1 1 1 1 1 1 0 1 0 1 1 1 @17 NEW_SIMPLE_ATTRIB 1 @9 ENTITY_ID 0 3 17 -2147483648 -1 #
integer_attrib-name_attrib-gen-attrib $-1 -1 $94 $-1 $38 2 1 1 1 1 1 1 1 1 1 1 1 1 1 0 1 1 1 @8 CUBIT_ID 18 #
face $95 -1 -1 $-1 $96 $97 $17 $-1 $98 reversed single T -10 -10 -500500 10 -10 500500 F #
loop $-1 -1 -1 $-1 $-1 $99 $38 T -10 -10 -500500 10 10 -500500 unknown #
plane-surface $-1 -1 -1 $-1 0 0 -500500 0 0 1 1 0 0 forward_v I I I I #
coedge $-1 -1 -1 $-1 $100 $101 $102 $103 forward $39 $-1 #
simple-snl-attrib $-1 -1 $104 $42 $19 1 1 1 1 1 1 1 1 1 1 1 1 0 1 0 1 1 1 @17 NEW_SIMPLE_ATTRIB 1 @9 ENTITY_ID 0 3 1 122102954 1 #
simple-snl-attrib $-1 -1 $105 $43 $27 1 1 1 1 1 1 1 1 1 1 1 1 0 1 0 1 1 1 @17 NEW_SIMPLE_ATTRIB 1 @9 UNIQUE_ID 1 0 1 192863951 #
integer_attrib-name_attrib-gen-attrib $-1 -1 $106 $-1 $44 2 1 1 1 1 1 1 1 1 1 1 1 1 1 0 1 1 1 @8 CUBIT_ID 3 #
loop $-1 -1 -1 $-1 $-1 $107 $44 T -3.3976099999999998 -3.3976099999999998 500000 3.3976099999999998 3.3976099999999998 500000 unknown #
plane-surface $-1 -1 -1 $-1 0 0 500000 0 0 1 1 0 0 forward_v I I I I #
coedge $-1 -1 -1 $-1 $73 $73 $48 $75 forward $45 $-1 #
coedge $-1 -1 -1 $-1 $74 $74 $107 $108 reversed $47 $-1 #
edge $109 -1 -1 $-1 $110 0 $110 6.2831853071795862 $73 $111 forward @7 unknown T -3.3976099999999998 -3.3976099999999998 -500000 3.3976099999999998 3.3976099999999998 -500000 #
simple-snl-attrib $-1 -1 $112 $50 $21 1 1 1 1 1 1 1 1 1 1 1 1 0 1 0 1 1 1 @17 NEW_SIMPLE_ATTRIB 1 @9 ENTITY_ID 0 3 1 122102954 1 #
simple-snl-attrib $-1 -1 $113 $51 $32 1 1 1 1 1 1 1 1 1 1 1 1 0 1 0 1 1 1 @17 NEW_SIMPLE_ATTRIB 1 @9 UNIQUE_ID 1 0 1 1247927605 #
integer_attrib-name_attrib-gen-attrib $-1 -1 $114 $-1 $52 2 1 1 1 1 1 1 1 1 1 1 1 1 1 0 1 1 1 @8 CUBIT_ID 9 #
face $115 -1 -1 $-1 $-1 $116 $14 $-1 $117 forward single T -6.4613350000000001 -6.4613350000000001 500000 6.4613350000000001 6.4613350000000001 500000 F #
loop $-1 -1 -1 $-1 $118 $85 $52 T -3.3976099999999998 -3.3976099999999998 -500000 3.3976099999999998 3.3976099999999998 -500000 hole $81 F #
plane-surface $-1 -1 -1 $-1 0 0 -500000 0 0 -1 -1 0 0 forward_v I I I I #
loop $-1 -1 -1 $-1 $-1 $119 $32 T -6.4613350000000001 -6.4613350000000001 500000 6.4613350000000001 6.4613350000000001 500000 unknown #
coedge $-1 -1 -1 $-1 $83 $83 $120 $121 reversed $53 $-1 #
coedge $-1 -1 -1 $-1 $84 $84 $122 $123 reversed $55 $-1 #
coedge $-1 -1 -1 $-1 $85 $85 $56 $86 forward $80 $-1 #
edge $124 -1 -1 $-1 $125 0 $125 6.2831853071795862 $85 $126 forward @7 unknown T -3.3976099999999998 -3.3976099999999998 -500000 3.3976099999999998 3.3976099999999998 -500000 #
simple-snl-attrib $-1 -1 $127 $58 $36 1 1 1 1 1 1 1 1 1 1 1 1 0 1 0 1 1 1 @17 NEW_SIMPLE_ATTRIB 1 @9 UNIQUE_ID 1 0 1 192863951 #
integer_attrib-name_attrib-gen-attrib $-1 -1 $128 $-1 $59 2 1 1 1 1 1 1 1 1 1 1 1 1 1 0 1 1 1 @8 CUBIT_ID 3 #
face $129 -1 -1 $-1 $130 $131 $23 $-1 $132 reversed single T -6.4613350000000001 -6.4613350000000001 -500000 6.4613350000000001 6.4613350000000001 500000 F #
loop $-1 -1 -1 $-1 $-1 $133 $59 T -3.3976099999999998 -3.3976099999999998 500000 3.3976099999999998 3.3976099999999998 500000 unknown #
plane-surface $-1 -1 -1 $-1 0 0 500000 0 0 1 1 0 0 forward_v I I I I #
coedge $-1 -1 -1 $-1 $92 $92 $134 $135 reversed $60 $-1 #
simple-snl-attrib $-1 -1 $136 $62 $24 1 1 1 1 1 1 1 1 1 1 1 1 0 1 0 1 1 1 @17 NEW_SIMPLE_ATTRIB 7 @16 GRAPHICS_OPTIONS @14 geometry color @10 mesh color @19 geometry visibility @15 mesh visibility @11 render mode @11 transparent 0 6 -1 -1 0 0 0 0 #
simple-snl-attrib $-1 -1 $137 $63 $38 1 1 1 1 1 1 1 1 1 1 1 1 0 1 0 1 1 1 @17 NEW_SIMPLE_ATTRIB 1 @9 ENTITY_ID 0 3 18 -2147483648 -1 #
integer_attrib-name_attrib-gen-attrib $-1 -1 $138 $-1 $64 2 1 1 1 1 1 1 1 1 1 1 1 1 1 0 1 1 1 @8 CUBIT_ID 19 #
face $139 -1 -1 $-1 $140 $141 $17 $-1 $142 reversed single T -10 -10 -500500 -10 10 500500 F #
loop $-1 -1 -1 $-1 $-1 $143 $64 T -10 -10 -500500 10 -10 500500 unknown #
plane-surface $-1 -1 -1 $-1 0 -10 0 0 1 -0 -0 0 1 forward_v I I I I #
coedge $-1 -1 -1 $-1 $144 $145 $146 $147 forward $65 $-1 #
coedge $-1 -1 -1 $-1 $148 $67 $149 $150 forward $39 $-1 #
coedge $-1 -1 -1 $-1 $67 $148 $151 $152 forward $39 $-1 #
coedge $-1 -1 -1 $-1 $153 $154 $67 $103 reversed $155 $-1 #
edge $156 -1 -1 $-1 $157 -10 $158 10 $102 $159 forward @7 unknown T 10 -10 500500 10 10 500500 #
simple-snl-attrib $-1 -1 $160 $68 $19 1 1 1 1 1 1 1 1 1 1 1 1 0 1 0 1 1 1 @17 NEW_SIMPLE_ATTRIB 1 @13 MERGE_PARTNER 0 4 1174159731 1 1 1 #
simple-snl-attrib $-1 -1 $161 $69 $27 1 1 1 1 1 1 1 1 1 1 1 1 0 1 0 1 1 1 @17 NEW_SIMPLE_ATTRIB 1 @9 ENTITY_ID 0 3 2 122102954 0 #
simple-snl-attrib $-1 -1 $162 $70 $44 1 1 1 1 1 1 1 1 1 1 1 1 0 1 0 1 1 1 @17 NEW_SIMPLE_ATTRIB 1 @9 UNIQUE_ID 1 0 1 1684735035 #
coedge $-1 -1 -1 $-1 $107 $107 $74 $108 forward $71 $-1 #
edge $163 -1 -1 $-1 $164 0 $164 6.2831853071795862 $107 $165 forward @7 unknown T -3.3976099999999998 -3.3976099999999998 500000 3.3976099999999998 3.3976099999999998 500000 #
integer_attrib-name_attrib-gen-attrib $-1 -1 $166 $-1 $75 2 1 1 1 1 1 1 1 1 1 1 1 1 1 0 1 1 1 @8 CUBIT_ID 1 #
vertex $167 -1 -1 $-1 $75 $168 #
ellipse-curve $-1 -1 -1 $-1 0 0 -500000 0 0 -1 3.3976099999999998 0 0 1 I I #
simple-snl-attrib $-1 -1 $169 $76 $21 1 1 1 1 1 1 1 1 1 1 1 1 0 1 0 1 1 1 @17 NEW_SIMPLE_ATTRIB 1 @13 MERGE_PARTNER 0 4 1174159731 -1 7 0 #
simple-snl-attrib $-1 -1 $170 $77 $32 1 1 1 1 1 1 1 1 1 1 1 1 0 1 0 1 1 1 @17 NEW_SIMPLE_ATTRIB 1 @9 ENTITY_ID 0 3 8 648902875 1 #
simple-snl-attrib $-1 -1 $171 $78 $52 1 1 1 1 1 1 1 1 1 1 1 1 0 1 0 1 1 1 @17 NEW_SIMPLE_ATTRIB 1 @9 UNIQUE_ID 1 0 1 2027449939 #
integer_attrib-name_attrib-gen-attrib $-1 -1 $172 $-1 $79 2 1 1 1 1 1 1 1 1 1 1 1 1 1 0 1 1 1 @8 CUBIT_ID 10 #
loop $-1 -1 -1 $-1 $173 $122 $79 T -3.3976099999999998 -3.3976099999999998 500000 3.3976099999999998 3.3976099999999998 500000 hole $117 F #
plane-surface $-1 -1 -1 $-1 0 0 500000 0 0 1 1 0 0 forward_v I I I I #
loop $-1 -1 -1 $-1 $-1 $120 $52 T -6.4613350000000001 -6.4613350000000001 -500000 6.4613350000000001 6.4613350000000001 -500000 periphery $81 F #
coedge $-1 -1 -1 $-1 $119 $119 $174 $175 reversed $82 $-1 #
coedge $-1 -1 -1 $-1 $120 $120 $83 $121 forward $118 $-1 #
edge $176 -1 -1 $-1 $177 0 $177 6.2831853071795862 $120 $178 forward @7 unknown T -6.4613350000000001 -6.4613350000000001 -500000 6.4613350000000001 6.4613350000000001 -500000 #
coedge $-1 -1 -1 $-1 $122 $122 $84 $123 forward $116 $-1 #
edge $179 -1 -1 $-1 $180 0 $180 6.2831853071795862 $122 $181 forward @7 unknown T -3.3976099999999998 -3.3976099999999998 500000 3.3976099999999998 3.3976099999999998 500000 #
integer_attrib-name_attrib-gen-attrib $-1 -1 $182 $-1 $86 2 1 1 1 1 1 1 1 1 1 1 1 1 1 0 1 1 1 @8 CUBIT_ID 1 #
vertex $183 -1 -1 $-1 $86 $184 #
ellipse-curve $-1 -1 -1 $-1 0 0 -500000 -0 -0 1 3.3976099999999998 0 0 1 I I #
simple-snl-attrib $-1 -1 $185 $87 $36 1 1 1 1 1 1 1 1 1 1 1 1 0 1 0 1 1 1 @17 NEW_SIMPLE_ATTRIB 1 @9 ENTITY_ID 0 3 2 122102954 0 #
simple-snl-attrib $-1 -1 $186 $88 $59 1 1 1 1 1 1 1 1 1 1 1 1 0 1 0 1 1 1 @17 NEW_SIMPLE_ATTRIB 1 @9 UNIQUE_ID 1 0 1 1684735035 #
integer_attrib-name_attrib-gen-attrib $-1 -1 $187 $-1 $89 2 1 1 1 1 1 1 1 1 1 1 1 1 1 0 1 1 1 @8 CUBIT_ID 8 #
face $188 -1 -1 $-1 $189 $190 $23 $-1 $61 reversed single T -6.4613350000000001 -6.4613350000000001 -500000 6.4613350000000001 6.4613350000000001 -500000 F #
loop $-1 -1 -1 $-1 $191 $192 $89 T -6.4613350000000001 -6.4613350000000001 -500000 6.4613350000000001 6.4613350000000001 -500000 u_sep $132 T #
cone-surface $-1 -1 -1 $-1 0 0 0 0 0 1 6.4613350000000001 0 0 1 I I 0 1 6.4613350000000001 forward I I I I #
coedge $-1 -1 -1 $-1 $133 $133 $193 $194 reversed $90 $-1 #
coedge $-1 -1 -1 $-1 $134 $134 $92 $135 forward $190 $-1 #
edge $195 -1 -1 $-1 $196 0 $196 6.2831853071795862 $134 $197 forward @7 unknown T -3.3976099999999998 -3.3976099999999998 -500000 3.3976099999999998 3.3976099999999998 -500000 #
simple-snl-attrib $-1 -1 $-1 $93 $24 1 1 1 1 1 1 1 1 1 1 1 1 0 1 0 1 1 1 @17 NEW_SIMPLE_ATTRIB 3 @13 MESH_INTERVAL @4 LIMP @4 LIMP 2 1 0 5 1 0 0 1 1 #
simple-snl-attrib $-1 -1 $198 $94 $38 1 1 1 1 1 1 1 1 1 1 1 1 0 1 0 1 1 1 @17 NEW_SIMPLE_ATTRIB 7 @16 GRAPHICS_OPTIONS @14 geometry color @10 mesh color @19 geometry visibility @15 mesh visibility @11 render mode @11 transparent 0 6 -1 -1 0 0 0 0 #
simple-snl-attrib $-1 -1 $199 $95 $64 1 1 1 1 1 1 1 1 1 1 1 1 0 1 0 1 1 1 @17 NEW_SIMPLE_ATTRIB 1 @9 ENTITY_ID 0 3 19 -2147483648 -1 #
integer_attrib-name_attrib-gen-attrib $-1 -1 $200 $-1 $96 2 1 1 1 1 1 1 1 1 1 1 1 1 1 0 1 1 1 @8 CUBIT_ID 20 #
face $201 -1 -1 $-1 $202 $203 $17 $-1 $204 reversed single T -10 10 -500500 10 10 500500 F #
loop $-1 -1 -1 $-1 $-1 $205 $96 T -10 -10 -500500 -10 10 500500 periphery $142 T #
plane-surface $-1 -1 -1 $-1 -10 0 0 1 0 0 0 0 -1 forward_v I I I I #
coedge $-1 -1 -1 $-1 $206 $151 $207 $208 forward $97 $-1 #
coedge $-1 -1 -1 $-1 $209 $99 $206 $210 forward $65 $-1 #
coedge $-1 -1 -1 $-1 $99 $209 $211 $212 forward $65 $-1 #
coedge $-1 -1 -1 $-1 $154 $153 $99 $147 reversed $155 $-1 #
edge $213 -1 -1 $-1 $214 -10 $215 10 $146 $216 forward @7 unknown T 10 -10 -500500 10 10 -500500 #
coedge $-1 -1 -1 $-1 $101 $100 $217 $218 forward $39 $-1 #
coedge $-1 -1 -1 $-1 $219 $220 $100 $150 reversed $203 $-1 #
edge $221 -1 -1 $-1 $158 -10 $222 10 $149 $223 forward @7 unknown T -10 10 500500 10 10 500500 #
coedge $-1 -1 -1 $-1 $143 $224 $101 $152 reversed $97 $-1 #
edge $225 -1 -1 $-1 $226 -10 $157 10 $151 $227 forward @7 unknown T -10 -10 500500 10 -10 500500 #
coedge $-1 -1 -1 $-1 $146 $102 $224 $228 forward $155 $-1 #
coedge $-1 -1 -1 $-1 $102 $146 $219 $229 reversed $155 $-1 #
loop $-1 -1 -1 $-1 $-1 $153 $202 T 10 -10 -500500 10 10 500500 unknown #
integer_attrib-name_attrib-gen-attrib $-1 -1 $230 $-1 $103 2 1 1 1 1 1 1 1 1 1 1 1 1 1 0 1 1 1 @8 CUBIT_ID 21 #
vertex $231 -1 -1 $-1 $103 $232 #
vertex $233 -1 -1 $-1 $103 $234 #
straight-curve $-1 -1 -1 $-1 10 0 500500 0 1 0 I I #
simple-snl-attrib $-1 -1 $-1 $104 $19 1 1 1 1 1 1 1 1 1 1 1 1 0 1 0 1 1 1 @17 NEW_SIMPLE_ATTRIB 3 @13 MESH_INTERVAL @4 LIMP @4 LIMP 2 1 0 5 1 0 0 1 1 #
simple-snl-attrib $-1 -1 $235 $105 $27 1 1 1 1 1 1 1 1 1 1 1 1 0 1 0 1 1 1 @17 NEW_SIMPLE_ATTRIB 2 @5 GROUP @12 spec.reflect 0 7 1 5 1778933150 0 0 0 0 #
simple-snl-attrib $-1 -1 $236 $106 $44 1 1 1 1 1 1 1 1 1 1 1 1 0 1 0 1 1 1 @17 NEW_SIMPLE_ATTRIB 1 @9 ENTITY_ID 0 3 3 858578732 0 #
integer_attrib-name_attrib-gen-attrib $-1 -1 $237 $-1 $108 2 1 1 1 1 1 1 1 1 1 1 1 1 1 0 1 1 1 @8 CUBIT_ID 2 #
vertex $238 -1 -1 $-1 $108 $239 #
ellipse-curve $-1 -1 -1 $-1 0 0 500000 0 0 1 3.3976099999999998 0 0 1 I I #
simple-snl-attrib $-1 -1 $240 $109 $75 1 1 1 1 1 1 1 1 1 1 1 1 0 1 0 1 1 1 @17 NEW_SIMPLE_ATTRIB 1 @9 UNIQUE_ID 1 0 1 122102954 #
integer_attrib-name_attrib-gen-attrib $-1 -1 $241 $-1 $110 2 1 1 1 1 1 1 1 1 1 1 1 1 1 0 1 1 1 @8 CUBIT_ID 1 #
point $-1 -1 -1 $-1 3.3976099999999998 0 -500000 #
simple-snl-attrib $-1 -1 $-1 $112 $21 1 1 1 1 1 1 1 1 1 1 1 1 0 1 0 1 1 1 @17 NEW_SIMPLE_ATTRIB 3 @13 MESH_INTERVAL @4 LIMP @4 LIMP 2 1 0 5 1 0 0 1 1 #
simple-snl-attrib $-1 -1 $242 $113 $32 1 1 1 1 1 1 1 1 1 1 1 1 0 1 0 1 1 1 @17 NEW_SIMPLE_ATTRIB 1 @13 MERGE_PARTNER 0 4 1247927605 1 8 1 #
simple-snl-attrib $-1 -1 $243 $114 $52 1 1 1 1 1 1 1 1 1 1 1 1 0 1 0 1 1 1 @17 NEW_SIMPLE_ATTRIB 1 @9 ENTITY_ID 0 3 9 122102954 1 #
simple-snl-attrib $-1 -1 $244 $115 $79 1 1 1 1 1 1 1 1 1 1 1 1 0 1 0 1 1 1 @17 NEW_SIMPLE_ATTRIB 1 @9 UNIQUE_ID 1 0 1 740954166 #
loop $-1 -1 -1 $-1 $-1 $174 $79 T -6.4613350000000001 -6.4613350000000001 500000 6.4613350000000001 6.4613350000000001 500000 periphery $117 F #
coedge $-1 -1 -1 $-1 $174 $174 $119 $175 forward $173 $-1 #
edge $245 -1 -1 $-1 $246 0 $246 6.2831853071795862 $174 $247 forward @7 unknown T -6.4613350000000001 -6.4613350000000001 500000 6.4613350000000001 6.4613350000000001 500000 #
integer_attrib-name_attrib-gen-attrib $-1 -1 $248 $-1 $121 2 1 1 1 1 1 1 1 1 1 1 1 1 1 0 1 1 1 @8 CUBIT_ID 7 #
vertex $249 -1 -1 $-1 $121 $250 #
ellipse-curve $-1 -1 -1 $-1 0 0 -500000 0 0 -1 6.4613350000000001 0 0 1 I I #
integer_attrib-name_attrib-gen-attrib $-1 -1 $251 $-1 $123 2 1 1 1 1 1 1 1 1 1 1 1 1 1 0 1 1 1 @8 CUBIT_ID 2 #
vertex $252 -1 -1 $-1 $123 $253 #
ellipse-curve $-1 -1 -1 $-1 0 0 500000 -0 -0 -1 3.3976099999999998 0 0 1 I I #
simple-snl-attrib $-1 -1 $254 $124 $86 1 1 1 1 1 1 1 1 1 1 1 1 0 1 0 1 1 1 @17 NEW_SIMPLE_ATTRIB 1 @9 UNIQUE_ID 1 0 1 122102954 #
integer_attrib-name_attrib-gen-attrib $-1 -1 $255 $-1 $125 2 1 1 1 1 1 1 1 1 1 1 1 1 1 0 1 1 1 @8 CUBIT_ID 1 #
point $-1 -1 -1 $-1 3.3976099999999998 0 -500000 #
simple-snl-attrib $-1 -1 $256 $127 $36 1 1 1 1 1 1 1 1 1 1 1 1 0 1 0 1 1 1 @17 NEW_SIMPLE_ATTRIB 2 @5 GROUP @12 spec.reflect 0 7 1 5 1778933150 0 0 0 0 #
simple-snl-attrib $-1 -1 $257 $128 $59 1 1 1 1 1 1 1 1 1 1 1 1 0 1 0 1 1 1 @17 NEW_SIMPLE_ATTRIB 1 @9 ENTITY_ID 0 3 3 858578732 0 #
simple-snl-attrib $-1 -1 $258 $129 $89 1 1 1 1 1 1 1 1 1 1 1 1 0 1 0 1 1 1 @17 NEW_SIMPLE_ATTRIB 1 @9 UNIQUE_ID 1 0 1 1247927605 #
integer_attrib-name_attrib-gen-attrib $-1 -1 $259 $-1 $130 2 1 1 1 1 1 1 1 1 1 1 1 1 1 0 1 1 1 @8 CUBIT_ID 9 #
face $260 -1 -1 $-1 $-1 $261 $23 $-1 $91 reversed single T -6.4613350000000001 -6.4613350000000001 500000 6.4613350000000001 6.4613350000000001 500000 F #
loop $-1 -1 -1 $-1 $262 $134 $130 T -3.3976099999999998 -3.3976099999999998 -500000 3.3976099999999998 3.3976099999999998 -500000 hole $61 T #
loop $-1 -1 -1 $-1 $-1 $263 $89 T -6.4613350000000001 -6.4613350000000001 500000 6.4613350000000001 6.4613350000000001 500000 u_sep $132 T #
coedge $-1 -1 -1 $-1 $192 $192 $264 $265 forward $131 $-1 #
coedge $-1 -1 -1 $-1 $193 $193 $133 $194 forward $261 $-1 #
edge $266 -1 -1 $-1 $267 0 $267 6.2831853071795862 $193 $268 forward @7 unknown T -3.3976099999999998 -3.3976099999999998 500000 3.3976099999999998 3.3976099999999998 500000 #
integer_attrib-name_attrib-gen-attrib $-1 -1 $269 $-1 $135 2 1 1 1 1 1 1 1 1 1 1 1 1 1 0 1 1 1 @8 CUBIT_ID 1 #
vertex $270 -1 -1 $-1 $135 $271 #
ellipse-curve $-1 -1 -1 $-1 0 0 -500000 0 0 -1 3.3976099999999998 0 0 1 I I #
simple-snl-attrib $-1 -1 $-1 $137 $38 1 1 1 1 1 1 1 1 1 1 1 1 0 1 0 1 1 1 @17 NEW_SIMPLE_ATTRIB 3 @13 MESH_INTERVAL @4 LIMP @4 LIMP 2 1 0 5 1 0 0 1 1 #
simple-snl-attrib $-1 -1 $272 $138 $64 1 1 1 1 1 1 1 1 1 1 1 1 0 1 0 1 1 1 @17 NEW_SIMPLE_ATTRIB 7 @16 GRAPHICS_OPTIONS @14 geometry color @10 mesh color @19 geometry visibility @15 mesh visibility @11 render mode @11 transparent 0 6 -1 -1 0 0 0 0 #
simple-snl-attrib $-1 -1 $273 $139 $96 1 1 1 1 1 1 1 1 1 1 1 1 0 1 0 1 1 1 @17 NEW_SIMPLE_ATTRIB 1 @9 ENTITY_ID 0 3 20 -2147483648 -1 #
integer_attrib-name_attrib-gen-attrib $-1 -1 $274 $-1 $140 2 1 1 1 1 1 1 1 1 1 1 1 1 1 0 1 1 1 @8 CUBIT_ID 21 #
face $275 -1 -1 $-1 $-1 $155 $17 $-1 $276 reversed single T 10 -10 -500500 10 10 500500 F #
loop $-1 -1 -1 $-1 $-1 $219 $140 T -10 10 -500500 10 10 500500 unknown #
plane-surface $-1 -1 -1 $-1 0 10 0 0 -1 0 0 0 -1 forward_v I I I I #
coedge $-1 -1 -1 $-1 $277 $217 $220 $278 forward $141 $-1 #
coedge $-1 -1 -1 $-1 $224 $143 $144 $210 reversed $97 $-1 #
coedge $-1 -1 -1 $-1 $217 $277 $143 $208 reversed $141 $-1 #
edge $279 -1 -1 $-1 $226 -500500 $280 500500 $207 $281 forward @7 unknown T -10 -10 -500500 -10 -10 500500 #
coedge $-1 -1 -1 $-1 $145 $144 $277 $282 forward $65 $-1 #
edge $283 -1 -1 $-1 $215 -10 $280 10 $206 $284 forward @7 unknown T -10 -10 -500500 10 -10 -500500 #
coedge $-1 -1 -1 $-1 $220 $219 $145 $212 reversed $203 $-1 #
edge $285 -1 -1 $-1 $286 -10 $214 10 $211 $287 forward @7 unknown T -10 10 -500500 10 10 -500500 #
integer_attrib-name_attrib-gen-attrib $-1 -1 $288 $-1 $147 2 1 1 1 1 1 1 1 1 1 1 1 1 1 0 1 1 1 @8 CUBIT_ID 25 #
vertex $289 -1 -1 $-1 $147 $290 #
vertex $291 -1 -1 $-1 $228 $292 #
straight-curve $-1 -1 -1 $-1 10 0 -500500 0 -1 0 I I #
coedge $-1 -1 -1 $-1 $205 $207 $148 $218 reversed $141 $-1 #
edge $293 -1 -1 $-1 $222 -10 $226 10 $217 $294 forward @7 unknown T -10 -10 500500 -10 10 500500 #
coedge $-1 -1 -1 $-1 $211 $149 $154 $229 forward $203 $-1 #
coedge $-1 -1 -1 $-1 $149 $211 $205 $278 reversed $203 $-1 #
integer_attrib-name_attrib-gen-attrib $-1 -1 $295 $-1 $150 2 1 1 1 1 1 1 1 1 1 1 1 1 1 0 1 1 1 @8 CUBIT_ID 22 #
vertex $296 -1 -1 $-1 $150 $297 #
straight-curve $-1 -1 -1 $-1 0 10 500500 -1 0 0 I I #
coedge $-1 -1 -1 $-1 $151 $206 $153 $228 reversed $97 $-1 #
integer_attrib-name_attrib-gen-attrib $-1 -1 $298 $-1 $152 2 1 1 1 1 1 1 1 1 1 1 1 1 1 0 1 1 1 @8 CUBIT_ID 24 #
vertex $299 -1 -1 $-1 $218 $300 #
straight-curve $-1 -1 -1 $-1 0 -10 500500 1 0 0 I I #
edge $301 -1 -1 $-1 $157 -500500 $215 500500 $153 $302 forward @7 unknown T 10 -10 -500500 10 -10 500500 #
edge $303 -1 -1 $-1 $158 -500500 $214 500500 $154 $304 forward @7 unknown T 10 10 -500500 10 10 500500 #
simple-snl-attrib $-1 -1 $305 $156 $103 1 1 1 1 1 1 1 1 1 1 1 1 0 1 0 1 1 1 @17 NEW_SIMPLE_ATTRIB 1 @9 ENTITY_ID 0 3 21 -2147483648 -1 #
integer_attrib-name_attrib-gen-attrib $-1 -1 $306 $-1 $157 2 1 1 1 1 1 1 1 1 1 1 1 1 1 0 1 1 1 @8 CUBIT_ID 17 #
point $-1 -1 -1 $-1 10 -10 500500 #
integer_attrib-name_attrib-gen-attrib $-1 -1 $307 $-1 $158 2 1 1 1 1 1 1 1 1 1 1 1 1 1 0 1 1 1 @8 CUBIT_ID 18 #
point $-1 -1 -1 $-1 10 10 500500 #
simple-snl-attrib $-1 -1 $308 $161 $27 1 1 1 1 1 1 1 1 1 1 1 1 0 1 0 1 1 1 @17 NEW_SIMPLE_ATTRIB 1 @13 MERGE_PARTNER 0 4 192863951 1 2 1 #
simple-snl-attrib $-1 -1 $309 $162 $44 1 1 1 1 1 1 1 1 1 1 1 1 0 1 0 1 1 1 @17 NEW_SIMPLE_ATTRIB 2 @5 GROUP @12 spec.reflect 0 7 1 5 1778933150 1 0 0 0 #
simple-snl-attrib $-1 -1 $310 $163 $108 1 1 1 1 1 1 1 1 1 1 1 1 0 1 0 1 1 1 @17 NEW_SIMPLE_ATTRIB 1 @9 UNIQUE_ID 1 0 1 858578732 #
integer_attrib-name_attrib-gen-attrib $-1 -1 $311 $-1 $164 2 1 1 1 1 1 1 1 1 1 1 1 1 1 0 1 1 1 @8 CUBIT_ID 2 #
point $-1 -1 -1 $-1 3.3976099999999998 0 500000 #
simple-snl-attrib $-1 -1 $312 $166 $75 1 1 1 1 1 1 1 1 1 1 1 1 0 1 0 1 1 1 @17 NEW_SIMPLE_ATTRIB 1 @9 ENTITY_ID 3 -1.6988049999999992 -2.9424165721520463 -500000 3 1 637775342 0 #
simple-snl-attrib $-1 -1 $313 $167 $110 1 1 1 1 1 1 1 1 1 1 1 1 0 1 0 1 1 1 @17 NEW_SIMPLE_ATTRIB 1 @9 UNIQUE_ID 1 0 1 637775342 #
simple-snl-attrib $-1 -1 $-1 $170 $32 1 1 1 1 1 1 1 1 1 1 1 1 0 1 0 1 1 1 @17 NEW_SIMPLE_ATTRIB 3 @13 MESH_INTERVAL @4 LIMP @4 LIMP 2 1 0 5 1 0 0 1 1 #
simple-snl-attrib $-1 -1 $314 $171 $52 1 1 1 1 1 1 1 1 1 1 1 1 0 1 0 1 1 1 @17 NEW_SIMPLE_ATTRIB 2 @5 GROUP @12 spec.reflect 0 7 1 5 1778933150 2 0 0 0 #
simple-snl-attrib $-1 -1 $315 $172 $79 1 1 1 1 1 1 1 1 1 1 1 1 0 1 0 1 1 1 @17 NEW_SIMPLE_ATTRIB 1 @9 ENTITY_ID 0 3 10 858578732 1 #
integer_attrib-name_attrib-gen-attrib $-1 -1 $316 $-1 $175 2 1 1 1 1 1 1 1 1 1 1 1 1 1 0 1 1 1 @8 CUBIT_ID 8 #
vertex $317 -1 -1 $-1 $175 $318 #
ellipse-curve $-1 -1 -1 $-1 0 0 500000 0 0 1 6.4613350000000001 0 0 1 I I #
simple-snl-attrib $-1 -1 $319 $176 $121 1 1 1 1 1 1 1 1 1 1 1 1 0 1 0 1 1 1 @17 NEW_SIMPLE_ATTRIB 1 @9 UNIQUE_ID 1 0 1 648902875 #
integer_attrib-name_attrib-gen-attrib $-1 -1 $320 $-1 $177 2 1 1 1 1 1 1 1 1 1 1 1 1 1 0 1 1 1 @8 CUBIT_ID 7 #
point $-1 -1 -1 $-1 6.4613350000000001 0 -500000 #
simple-snl-attrib $-1 -1 $321 $179 $123 1 1 1 1 1 1 1 1 1 1 1 1 0 1 0 1 1 1 @17 NEW_SIMPLE_ATTRIB 1 @9 UNIQUE_ID 1 0 1 858578732 #
integer_attrib-name_attrib-gen-attrib $-1 -1 $322 $-1 $180 2 1 1 1 1 1 1 1 1 1 1 1 1 1 0 1 1 1 @8 CUBIT_ID 2 #
point $-1 -1 -1 $-1 3.3976099999999998 0 500000 #
simple-snl-attrib $-1 -1 $323 $182 $86 1 1 1 1 1 1 1 1 1 1 1 1 0 1 0 1 1 1 @17 NEW_SIMPLE_ATTRIB 1 @9 ENTITY_ID 3 -1.6988049999999992 -2.9424165721520463 -500000 3 1 637775342 0 #
simple-snl-attrib $-1 -1 $324 $183 $125 1 1 1 1 1 1 1 1 1 1 1 1 0 1 0 1 1 1 @17 NEW_SIMPLE_ATTRIB 1 @9 UNIQUE_ID 1 0 1 637775342 #
simple-snl-attrib $-1 -1 $325 $185 $36 1 1 1 1 1 1 1 1 1 1 1 1 0 1 0 1 1 1 @17 NEW_SIMPLE_ATTRIB 1 @13 MERGE_PARTNER 0 4 192863951 -1 26 0 #
simple-snl-attrib $-1 -1 $326 $186 $59 1 1 1 1 1 1 1 1 1 1 1 1 0 1 0 1 1 1 @17 NEW_SIMPLE_ATTRIB 2 @5 GROUP @12 spec.reflect 0 7 1 5 1778933150 1 0 0 0 #
simple-snl-attrib $-1 -1 $327 $187 $89 1 1 1 1 1 1 1 1 1 1 1 1 0 1 0 1 1 1 @17 NEW_SIMPLE_ATTRIB 1 @9 ENTITY_ID 0 3 8 648902875 1 #
simple-snl-attrib $-1 -1 $328 $188 $130 1 1 1 1 1 1 1 1 1 1 1 1 0 1 0 1 1 1 @17 NEW_SIMPLE_ATTRIB 1 @9 UNIQUE_ID 1 0 1 2027449939 #
integer_attrib-name_attrib-gen-attrib $-1 -1 $329 $-1 $189 2 1 1 1 1 1 1 1 1 1 1 1 1 1 0 1 1 1 @8 CUBIT_ID 10 #
loop $-1 -1 -1 $-1 $330 $193 $189 T -3.3976099999999998 -3.3976099999999998 500000 3.3976099999999998 3.3976099999999998 500000 hole $91 T #
loop $-1 -1 -1 $-1 $-1 $264 $130 T -6.4613350000000001 -6.4613350000000001 -500000 6.4613350000000001 6.4613350000000001 -500000 periphery $61 T #
coedge $-1 -1 -1 $-1 $263 $263 $331 $332 forward $191 $-1 #
coedge $-1 -1 -1 $-1 $264 $264 $192 $265 reversed $262 $-1 #
edge $333 -1 -1 $-1 $334 0 $334 6.2831853071795862 $264 $335 forward @7 unknown T -6.4613350000000001 -6.4613350000000001 -500000 6.4613350000000001 6.4613350000000001 -500000 #
integer_attrib-name_attrib-gen-attrib $-1 -1 $336 $-1 $194 2 1 1 1 1 1 1 1 1 1 1 1 1 1 0 1 1 1 @8 CUBIT_ID 2 #
vertex $337 -1 -1 $-1 $194 $338 #
ellipse-curve $-1 -1 -1 $-1 0 0 500000 0 0 1 3.3976099999999998 0 0 1 I I #
simple-snl-attrib $-1 -1 $339 $195 $135 1 1 1 1 1 1 1 1 1 1 1 1 0 1 0 1 1 1 @17 NEW_SIMPLE_ATTRIB 1 @9 UNIQUE_ID 1 0 1 122102954 #
integer_attrib-name_attrib-gen-attrib $-1 -1 $340 $-1 $196 2 1 1 1 1 1 1 1 1 1 1 1 1 1 0 1 1 1 @8 CUBIT_ID 1 #
point $-1 -1 -1 $-1 3.3976099999999998 0 -500000 #
simple-snl-attrib $-1 -1 $-1 $199 $64 1 1 1 1 1 1 1 1 1 1 1 1 0 1 0 1 1 1 @17 NEW_SIMPLE_ATTRIB 3 @13 MESH_INTERVAL @4 LIMP @4 LIMP 2 1 0 5 1 0 0 1 1 #
simple-snl-attrib $-1 -1 $341 $200 $96 1 1 1 1 1 1 1 1 1 1 1 1 0 1 0 1 1 1 @17 NEW_SIMPLE_ATTRIB 7 @16 GRAPHICS_OPTIONS @14 geometry color @10 mesh color @19 geometry visibility @15 mesh visibility @11 render mode @11 transparent 0 6 -1 -1 0 0 0 0 #
simple-snl-attrib $-1 -1 $342 $201 $140 1 1 1 1 1 1 1 1 1 1 1 1 0 1 0 1 1 1 @17 NEW_SIMPLE_ATTRIB 1 @9 ENTITY_ID 0 3 21 -2147483648 -1 #
integer_attrib-name_attrib-gen-attrib $-1 -1 $343 $-1 $202 2 1 1 1 1 1 1 1 1 1 1 1 1 1 0 1 1 1 @8 CUBIT_ID 22 #
plane-surface $-1 -1 -1 $-1 10 0 0 -1 0 0 0 -0 1 forward_v I I I I #
coedge $-1 -1 -1 $-1 $207 $205 $209 $282 reversed $141 $-1 #
edge $344 -1 -1 $-1 $222 -500500 $286 500500 $220 $345 forward @7 unknown T -10 10 -500500 -10 10 500500 #
integer_attrib-name_attrib-gen-attrib $-1 -1 $346 $-1 $208 2 1 1 1 1 1 1 1 1 1 1 1 1 1 0 1 1 1 @8 CUBIT_ID 29 #
vertex $347 -1 -1 $-1 $282 $348 #
straight-curve $-1 -1 -1 $-1 -10 -10 0 0 0 -1 I I #
edge $349 -1 -1 $-1 $280 -10 $286 10 $277 $350 forward @7 unknown T -10 -10 -500500 -10 10 -500500 #
integer_attrib-name_attrib-gen-attrib $-1 -1 $351 $-1 $210 2 1 1 1 1 1 1 1 1 1 1 1 1 1 0 1 1 1 @8 CUBIT_ID 26 #
straight-curve $-1 -1 -1 $-1 0 -10 -500500 -1 0 0 I I #
integer_attrib-name_attrib-gen-attrib $-1 -1 $352 $-1 $212 2 1 1 1 1 1 1 1 1 1 1 1 1 1 0 1 1 1 @8 CUBIT_ID 28 #
vertex $353 -1 -1 $-1 $212 $354 #
straight-curve $-1 -1 -1 $-1 0 10 -500500 1 0 0 I I #
simple-snl-attrib $-1 -1 $355 $213 $147 1 1 1 1 1 1 1 1 1 1 1 1 0 1 0 1 1 1 @17 NEW_SIMPLE_ATTRIB 1 @9 ENTITY_ID 0 3 25 -2147483648 -1 #
integer_attrib-name_attrib-gen-attrib $-1 -1 $356 $-1 $214 2 1 1 1 1 1 1 1 1 1 1 1 1 1 0 1 1 1 @8 CUBIT_ID 21 #
point $-1 -1 -1 $-1 10 10 -500500 #
integer_attrib-name_attrib-gen-attrib $-1 -1 $357 $-1 $215 2 1 1 1 1 1 1 1 1 1 1 1 1 1 0 1 1 1 @8 CUBIT_ID 22 #
point $-1 -1 -1 $-1 10 -10 -500500 #
integer_attrib-name_attrib-gen-attrib $-1 -1 $358 $-1 $218 2 1 1 1 1 1 1 1 1 1 1 1 1 1 0 1 1 1 @8 CUBIT_ID 23 #
straight-curve $-1 -1 -1 $-1 -10 0 500500 0 -1 0 I I #
simple-snl-attrib $-1 -1 $359 $221 $150 1 1 1 1 1 1 1 1 1 1 1 1 0 1 0 1 1 1 @17 NEW_SIMPLE_ATTRIB 1 @9 ENTITY_ID 0 3 22 -2147483648 -1 #
integer_attrib-name_attrib-gen-attrib $-1 -1 $360 $-1 $222 2 1 1 1 1 1 1 1 1 1 1 1 1 1 0 1 1 1 @8 CUBIT_ID 19 #
point $-1 -1 -1 $-1 -10 10 500500 #
simple-snl-attrib $-1 -1 $361 $225 $152 1 1 1 1 1 1 1 1 1 1 1 1 0 1 0 1 1 1 @17 NEW_SIMPLE_ATTRIB 1 @9 ENTITY_ID 0 3 24 -2147483648 -1 #
integer_attrib-name_attrib-gen-attrib $-1 -1 $362 $-1 $226 2 1 1 1 1 1 1 1 1 1 1 1 1 1 0 1 1 1 @8 CUBIT_ID 20 #
point $-1 -1 -1 $-1 -10 -10 500500 #
integer_attrib-name_attrib-gen-attrib $-1 -1 $363 $-1 $228 2 1 1 1 1 1 1 1 1 1 1 1 1 1 0 1 1 1 @8 CUBIT_ID 30 #
straight-curve $-1 -1 -1 $-1 10 -10 0 0 0 -1 I I #
integer_attrib-name_attrib-gen-attrib $-1 -1 $364 $-1 $229 2 1 1 1 1 1 1 1 1 1 1 1 1 1 0 1 1 1 @8 CUBIT_ID 32 #
straight-curve $-1 -1 -1 $-1 10 10 0 0 0 -1 I I #
simple-snl-attrib $-1 -1 $-1 $230 $103 1 1 1 1 1 1 1 1 1 1 1 1 0 1 0 1 1 1 @17 NEW_SIMPLE_ATTRIB 7 @16 GRAPHICS_OPTIONS @14 geometry color @10 mesh color @19 geometry visibility @15 mesh visibility @11 render mode @11 transparent 0 6 -1 -1 0 0 0 0 #
simple-snl-attrib $-1 -1 $365 $231 $157 1 1 1 1 1 1 1 1 1 1 1 1 0 1 0 1 1 1 @17 NEW_SIMPLE_ATTRIB 1 @9 ENTITY_ID 0 3 17 -2147483648 -1 #
simple-snl-attrib $-1 -1 $366 $233 $158 1 1 1 1 1 1 1 1 1 1 1 1 0 1 0 1 1 1 @17 NEW_SIMPLE_ATTRIB 1 @9 ENTITY_ID 0 3 18 -2147483648 -1 #
simple-snl-attrib $-1 -1 $-1 $235 $27 1 1 1 1 1 1 1 1 1 1 1 1 0 1 0 1 1 1 @17 NEW_SIMPLE_ATTRIB 3 @13 MESH_INTERVAL @4 LIMP @4 LIMP 2 1 0 5 1 0 0 1 1 #
simple-snl-attrib $-1 -1 $367 $236 $44 1 1 1 1 1 1 1 1 1 1 1 1 0 1 0 1 1 1 @17 NEW_SIMPLE_ATTRIB 1 @13 MERGE_PARTNER 0 4 1684735035 1 3 1 #
simple-snl-attrib $-1 -1 $368 $237 $108 1 1 1 1 1 1 1 1 1 1 1 1 0 1 0 1 1 1 @17 NEW_SIMPLE_ATTRIB 1 @9 ENTITY_ID 3 -1.6988049999999992 2.9424165721520463 500000 3 2 805711896 0 #
simple-snl-attrib $-1 -1 $369 $238 $164 1 1 1 1 1 1 1 1 1 1 1 1 0 1 0 1 1 1 @17 NEW_SIMPLE_ATTRIB 1 @9 UNIQUE_ID 1 0 1 805711896 #
simple-snl-attrib $-1 -1 $-1 $240 $75 1 1 1 1 1 1 1 1 1 1 1 1 0 1 0 1 1 1 @17 NEW_SIMPLE_ATTRIB 1 @13 MERGE_PARTNER 0 4 122102954 1 1 1 #
simple-snl-attrib $-1 -1 $370 $241 $110 1 1 1 1 1 1 1 1 1 1 1 1 0 1 0 1 1 1 @17 NEW_SIMPLE_ATTRIB 1 @9 ENTITY_ID 0 3 1 -2147483648 -1 #
simple-snl-attrib $-1 -1 $371 $243 $52 1 1 1 1 1 1 1 1 1 1 1 1 0 1 0 1 1 1 @17 NEW_SIMPLE_ATTRIB 1 @13 MERGE_PARTNER 0 4 2027449939 1 9 1 #
simple-snl-attrib $-1 -1 $372 $244 $79 1 1 1 1 1 1 1 1 1 1 1 1 0 1 0 1 1 1 @17 NEW_SIMPLE_ATTRIB 2 @5 GROUP @12 spec.reflect 0 7 1 5 1778933150 3 0 0 0 #
simple-snl-attrib $-1 -1 $373 $245 $175 1 1 1 1 1 1 1 1 1 1 1 1 0 1 0 1 1 1 @17 NEW_SIMPLE_ATTRIB 1 @9 UNIQUE_ID 1 0 1 1094949533 #
integer_attrib-name_attrib-gen-attrib $-1 -1 $374 $-1 $246 2 1 1 1 1 1 1 1 1 1 1 1 1 1 0 1 1 1 @8 CUBIT_ID 8 #
point $-1 -1 -1 $-1 6.4613350000000001 0 500000 #
simple-snl-attrib $-1 -1 $375 $248 $121 1 1 1 1 1 1 1 1 1 1 1 1 0 1 0 1 1 1 @17 NEW_SIMPLE_ATTRIB 1 @9 ENTITY_ID 3 -3.2306674999999987 -5.5956802523615252 -500000 3 7 1813549665 0 #
simple-snl-attrib $-1 -1 $376 $249 $177 1 1 1 1 1 1 1 1 1 1 1 1 0 1 0 1 1 1 @17 NEW_SIMPLE_ATTRIB 1 @9 UNIQUE_ID 1 0 1 1813549665 #
simple-snl-attrib $-1 -1 $377 $251 $123 1 1 1 1 1 1 1 1 1 1 1 1 0 1 0 1 1 1 @17 NEW_SIMPLE_ATTRIB 1 @9 ENTITY_ID 3 -1.6988049999999992 2.9424165721520463 500000 3 2 805711896 0 #
simple-snl-attrib $-1 -1 $378 $252 $180 1 1 1 1 1 1 1 1 1 1 1 1 0 1 0 1 1 1 @17 NEW_SIMPLE_ATTRIB 1 @9 UNIQUE_ID 1 0 1 805711896 #
simple-snl-attrib $-1 -1 $-1 $254 $86 1 1 1 1 1 1 1 1 1 1 1 1 0 1 0 1 1 1 @17 NEW_SIMPLE_ATTRIB 1 @13 MERGE_PARTNER 0 4 122102954 -1 5 0 #
simple-snl-attrib $-1 -1 $379 $255 $125 1 1 1 1 1 1 1 1 1 1 1 1 0 1 0 1 1 1 @17 NEW_SIMPLE_ATTRIB 1 @9 ENTITY_ID 0 3 1 -2147483648 -1 #
simple-snl-attrib $-1 -1 $-1 $256 $36 1 1 1 1 1 1 1 1 1 1 1 1 0 1 0 1 1 1 @17 NEW_SIMPLE_ATTRIB 3 @13 MESH_INTERVAL @4 LIMP @4 LIMP 2 1 0 5 1 0 0 1 1 #
simple-snl-attrib $-1 -1 $380 $257 $59 1 1 1 1 1 1 1 1 1 1 1 1 0 1 0 1 1 1 @17 NEW_SIMPLE_ATTRIB 1 @13 MERGE_PARTNER 0 4 1684735035 -1 27 0 #
simple-snl-attrib $-1 -1 $381 $258 $89 1 1 1 1 1 1 1 1 1 1 1 1 0 1 0 1 1 1 @17 NEW_SIMPLE_ATTRIB 1 @13 MERGE_PARTNER 0 4 1247927605 -1 23 0 #
simple-snl-attrib $-1 -1 $382 $259 $130 1 1 1 1 1 1 1 1 1 1 1 1 0 1 0 1 1 1 @17 NEW_SIMPLE_ATTRIB 1 @9 ENTITY_ID 0 3 9 122102954 1 #
simple-snl-attrib $-1 -1 $383 $260 $189 1 1 1 1 1 1 1 1 1 1 1 1 0 1 0 1 1 1 @17 NEW_SIMPLE_ATTRIB 1 @9 UNIQUE_ID 1 0 1 740954166 #
loop $-1 -1 -1 $-1 $-1 $331 $189 T -6.4613350000000001 -6.4613350000000001 500000 6.4613350000000001 6.4613350000000001 500000 periphery $91 T #
coedge $-1 -1 -1 $-1 $331 $331 $263 $332 reversed $330 $-1 #
edge $384 -1 -1 $-1 $385 0 $385 6.2831853071795862 $331 $386 forward @7 unknown T -6.4613350000000001 -6.4613350000000001 500000 6.4613350000000001 6.4613350000000001 500000 #
integer_attrib-name_attrib-gen-attrib $-1 -1 $387 $-1 $265 2 1 1 1 1 1 1 1 1 1 1 1 1 1 0 1 1 1 @8 CUBIT_ID 7 #
vertex $388 -1 -1 $-1 $265 $389 #
ellipse-curve $-1 -1 -1 $-1 0 0 -500000 0 0 -1 6.4613350000000001 0 0 1 I I #
simple-snl-attrib $-1 -1 $390 $266 $194 1 1 1 1 1 1 1 1 1 1 1 1 0 1 0 1 1 1 @17 NEW_SIMPLE_ATTRIB 1 @9 UNIQUE_ID 1 0 1 858578732 #
integer_attrib-name_attrib-gen-attrib $-1 -1 $391 $-1 $267 2 1 1 1 1 1 1 1 1 1 1 1 1 1 0 1 1 1 @8 CUBIT_ID 2 #
point $-1 -1 -1 $-1 3.3976099999999998 0 500000 #
simple-snl-attrib $-1 -1 $392 $269 $135 1 1 1 1 1 1 1 1 1 1 1 1 0 1 0 1 1 1 @17 NEW_SIMPLE_ATTRIB 1 @9 ENTITY_ID 3 -1.6988049999999992 -2.9424165721520463 -500000 3 1 637775342 0 #
simple-snl-attrib $-1 -1 $393 $270 $196 1 1 1 1 1 1 1 1 1 1 1 1 0 1 0 1 1 1 @17 NEW_SIMPLE_ATTRIB 1 @9 UNIQUE_ID 1 0 1 637775342 #
simple-snl-attrib $-1 -1 $-1 $273 $96 1 1 1 1 1 1 1 1 1 1 1 1 0 1 0 1 1 1 @17 NEW_SIMPLE_ATTRIB 3 @13 MESH_INTERVAL @4 LIMP @4 LIMP 2 1 0 5 1 0 0 1 1 #
simple-snl-attrib $-1 -1 $394 $274 $140 1 1 1 1 1 1 1 1 1 1 1 1 0 1 0 1 1 1 @17 NEW_SIMPLE_ATTRIB 7 @16 GRAPHICS_OPTIONS @14 geometry color @10 mesh color @19 geometry visibility @15 mesh visibility @11 render mode @11 transparent 0 6 -1 -1 0 0 0 0 #
simple-snl-attrib $-1 -1 $395 $275 $202 1 1 1 1 1 1 1 1 1 1 1 1 0 1 0 1 1 1 @17 NEW_SIMPLE_ATTRIB 1 @9 ENTITY_ID 0 3 22 -2147483648 -1 #
integer_attrib-name_attrib-gen-attrib $-1 -1 $396 $-1 $278 2 1 1 1 1 1 1 1 1 1 1 1 1 1 0 1 1 1 @8 CUBIT_ID 31 #
straight-curve $-1 -1 -1 $-1 -10 10 0 0 0 -1 I I #
simple-snl-attrib $-1 -1 $397 $279 $208 1 1 1 1 1 1 1 1 1 1 1 1 0 1 0 1 1 1 @17 NEW_SIMPLE_ATTRIB 1 @9 ENTITY_ID 0 3 29 -2147483648 -1 #
integer_attrib-name_attrib-gen-attrib $-1 -1 $398 $-1 $280 2 1 1 1 1 1 1 1 1 1 1 1 1 1 0 1 1 1 @8 CUBIT_ID 23 #
point $-1 -1 -1 $-1 -10 -10 -500500 #
integer_attrib-name_attrib-gen-attrib $-1 -1 $399 $-1 $282 2 1 1 1 1 1 1 1 1 1 1 1 1 1 0 1 1 1 @8 CUBIT_ID 27 #
straight-curve $-1 -1 -1 $-1 -10 0 -500500 0 1 0 I I #
simple-snl-attrib $-1 -1 $400 $283 $210 1 1 1 1 1 1 1 1 1 1 1 1 0 1 0 1 1 1 @17 NEW_SIMPLE_ATTRIB 1 @9 ENTITY_ID 0 3 26 -2147483648 -1 #
simple-snl-attrib $-1 -1 $401 $285 $212 1 1 1 1 1 1 1 1 1 1 1 1 0 1 0 1 1 1 @17 NEW_SIMPLE_ATTRIB 1 @9 ENTITY_ID 0 3 28 -2147483648 -1 #
integer_attrib-name_attrib-gen-attrib $-1 -1 $402 $-1 $286 2 1 1 1 1 1 1 1 1 1 1 1 1 1 0 1 1 1 @8 CUBIT_ID 24 #
point $-1 -1 -1 $-1 -10 10 -500500 #
simple-snl-attrib $-1 -1 $-1 $288 $147 1 1 1 1 1 1 1 1 1 1 1 1 0 1 0 1 1 1 @17 NEW_SIMPLE_ATTRIB 7 @16 GRAPHICS_OPTIONS @14 geometry color @10 mesh color @19 geometry visibility @15 mesh visibility @11 render mode @11 transparent 0 6 -1 -1 0 0 0 0 #
simple-snl-attrib $-1 -1 $403 $289 $214 1 1 1 1 1 1 1 1 1 1 1 1 0 1 0 1 1 1 @17 NEW_SIMPLE_ATTRIB 1 @9 ENTITY_ID 0 3 21 -2147483648 -1 #
simple-snl-attrib $-1 -1 $404 $291 $215 1 1 1 1 1 1 1 1 1 1 1 1 0 1 0 1 1 1 @17 NEW_SIMPLE_ATTRIB 1 @9 ENTITY_ID 0 3 22 -2147483648 -1 #
simple-snl-attrib $-1 -1 $405 $293 $218 1 1 1 1 1 1 1 1 1 1 1 1 0 1 0 1 1 1 @17 NEW_SIMPLE_ATTRIB 1 @9 ENTITY_ID 0 3 23 -2147483648 -1 #
simple-snl-attrib $-1 -1 $-1 $295 $150 1 1 1 1 1 1 1 1 1 1 1 1 0 1 0 1 1 1 @17 NEW_SIMPLE_ATTRIB 7 @16 GRAPHICS_OPTIONS @14 geometry color @10 mesh color @19 geometry visibility @15 mesh visibility @11 render mode @11 transparent 0 6 -1 -1 0 0 0 0 #
simple-snl-attrib $-1 -1 $406 $296 $222 1 1 1 1 1 1 1 1 1 1 1 1 0 1 0 1 1 1 @17 NEW_SIMPLE_ATTRIB 1 @9 ENTITY_ID 0 3 19 -2147483648 -1 #
simple-snl-attrib $-1 -1 $-1 $298 $152 1 1 1 1 1 1 1 1 1 1 1 1 0 1 0 1 1 1 @17 NEW_SIMPLE_ATTRIB 7 @16 GRAPHICS_OPTIONS @14 geometry color @10 mesh color @19 geometry visibility @15 mesh visibility @11 render mode @11 transparent 0 6 -1 -1 0 0 0 0 #
simple-snl-attrib $-1 -1 $407 $299 $226 1 1 1 1 1 1 1 1 1 1 1 1 0 1 0 1 1 1 @17 NEW_SIMPLE_ATTRIB 1 @9 ENTITY_ID 0 3 20 -2147483648 -1 #
simple-snl-attrib $-1 -1 $408 $301 $228 1 1 1 1 1 1 1 1 1 1 1 1 0 1 0 1 1 1 @17 NEW_SIMPLE_ATTRIB 1 @9 ENTITY_ID 0 3 30 -2147483648 -1 #
simple-snl-attrib $-1 -1 $409 $303 $229 1 1 1 1 1 1 1 1 1 1 1 1 0 1 0 1 1 1 @17 NEW_SIMPLE_ATTRIB 1 @9 ENTITY_ID 0 3 32 -2147483648 -1 #
simple-snl-attrib $-1 -1 $-1 $306 $157 1 1 1 1 1 1 1 1 1 1 1 1 0 1 0 1 1 1 @17 NEW_SIMPLE_ATTRIB 7 @16 GRAPHICS_OPTIONS @14 geometry color @10 mesh color @19 geometry visibility @15 mesh visibility @11 render mode @11 transparent 0 6 -1 -1 0 0 0 0 #
simple-snl-attrib $-1 -1 $-1 $307 $158 1 1 1 1 1 1 1 1 1 1 1 1 0 1 0 1 1 1 @17 NEW_SIMPLE_ATTRIB 7 @16 GRAPHICS_OPTIONS @14 geometry color @10 mesh color @19 geometry visibility @15 mesh visibility @11 render mode @11 transparent 0 6 -1 -1 0 0 0 0 #
simple-snl-attrib $-1 -1 $-1 $309 $44 1 1 1 1 1 1 1 1 1 1 1 1 0 1 0 1 1 1 @17 NEW_SIMPLE_ATTRIB 3 @13 MESH_INTERVAL @4 LIMP @4 LIMP 2 1 0 5 1 0 0 1 1 #
simple-snl-attrib $-1 -1 $-1 $310 $108 1 1 1 1 1 1 1 1 1 1 1 1 0 1 0 1 1 1 @17 NEW_SIMPLE_ATTRIB 1 @13 MERGE_PARTNER 0 4 858578732 1 2 1 #
simple-snl-attrib $-1 -1 $410 $311 $164 1 1 1 1 1 1 1 1 1 1 1 1 0 1 0 1 1 1 @17 NEW_SIMPLE_ATTRIB 1 @9 ENTITY_ID 0 3 2 -2147483648 -1 #
simple-snl-attrib $-1 -1 $-1 $313 $110 1 1 1 1 1 1 1 1 1 1 1 1 0 1 0 1 1 1 @17 NEW_SIMPLE_ATTRIB 1 @13 MERGE_PARTNER 0 4 637775342 1 1 1 #
simple-snl-attrib $-1 -1 $-1 $314 $52 1 1 1 1 1 1 1 1 1 1 1 1 0 1 0 1 1 1 @17 NEW_SIMPLE_ATTRIB 3 @13 MESH_INTERVAL @4 LIMP @4 LIMP 2 1 0 5 1 0 0 1 1 #
simple-snl-attrib $-1 -1 $411 $315 $79 1 1 1 1 1 1 1 1 1 1 1 1 0 1 0 1 1 1 @17 NEW_SIMPLE_ATTRIB 1 @13 MERGE_PARTNER 0 4 740954166 1 10 1 #
simple-snl-attrib $-1 -1 $412 $316 $175 1 1 1 1 1 1 1 1 1 1 1 1 0 1 0 1 1 1 @17 NEW_SIMPLE_ATTRIB 1 @9 ENTITY_ID 3 -3.2306674999999987 5.5956802523615252 500000 3 8 927060442 0 #
simple-snl-attrib $-1 -1 $413 $317 $246 1 1 1 1 1 1 1 1 1 1 1 1 0 1 0 1 1 1 @17 NEW_SIMPLE_ATTRIB 1 @9 UNIQUE_ID 1 0 1 927060442 #
simple-snl-attrib $-1 -1 $-1 $319 $121 1 1 1 1 1 1 1 1 1 1 1 1 0 1 0 1 1 1 @17 NEW_SIMPLE_ATTRIB 1 @13 MERGE_PARTNER 0 4 648902875 1 7 1 #
simple-snl-attrib $-1 -1 $414 $320 $177 1 1 1 1 1 1 1 1 1 1 1 1 0 1 0 1 1 1 @17 NEW_SIMPLE_ATTRIB 1 @9 ENTITY_ID 0 3 7 -2147483648 -1 #
simple-snl-attrib $-1 -1 $-1 $321 $123 1 1 1 1 1 1 1 1 1 1 1 1 0 1 0 1 1 1 @17 NEW_SIMPLE_ATTRIB 1 @13 MERGE_PARTNER 0 4 858578732 -1 6 0 #
simple-snl-attrib $-1 -1 $415 $322 $180 1 1 1 1 1 1 1 1 1 1 1 1 0 1 0 1 1 1 @17 NEW_SIMPLE_ATTRIB 1 @9 ENTITY_ID 0 3 2 -2147483648 -1 #
simple-snl-attrib $-1 -1 $-1 $324 $125 1 1 1 1 1 1 1 1 1 1 1 1 0 1 0 1 1 1 @17 NEW_SIMPLE_ATTRIB 1 @13 MERGE_PARTNER 0 4 637775342 1 5 0 #
simple-snl-attrib $-1 -1 $-1 $326 $59 1 1 1 1 1 1 1 1 1 1 1 1 0 1 0 1 1 1 @17 NEW_SIMPLE_ATTRIB 3 @13 MESH_INTERVAL @4 LIMP @4 LIMP 2 1 0 5 1 0 0 1 1 #
simple-snl-attrib $-1 -1 $-1 $327 $89 1 1 1 1 1 1 1 1 1 1 1 1 0 1 0 1 1 1 @17 NEW_SIMPLE_ATTRIB 3 @13 MESH_INTERVAL @4 LIMP @4 LIMP 2 1 0 5 1 0 0 1 1 #
simple-snl-attrib $-1 -1 $416 $328 $130 1 1 1 1 1 1 1 1 1 1 1 1 0 1 0 1 1 1 @17 NEW_SIMPLE_ATTRIB 2 @5 GROUP @12 spec.reflect 0 7 1 5 1778933150 2 0 0 0 #
simple-snl-attrib $-1 -1 $417 $329 $189 1 1 1 1 1 1 1 1 1 1 1 1 0 1 0 1 1 1 @17 NEW_SIMPLE_ATTRIB 1 @9 ENTITY_ID 0 3 10 858578732 1 #
integer_attrib-name_attrib-gen-attrib $-1 -1 $418 $-1 $332 2 1 1 1 1 1 1 1 1 1 1 1 1 1 0 1 1 1 @8 CUBIT_ID 8 #
vertex $419 -1 -1 $-1 $332 $420 #
ellipse-curve $-1 -1 -1 $-1 0 0 500000 0 0 1 6.4613350000000001 0 0 1 I I #
simple-snl-attrib $-1 -1 $421 $333 $265 1 1 1 1 1 1 1 1 1 1 1 1 0 1 0 1 1 1 @17 NEW_SIMPLE_ATTRIB 1 @9 UNIQUE_ID 1 0 1 648902875 #
integer_attrib-name_attrib-gen-attrib $-1 -1 $422 $-1 $334 2 1 1 1 1 1 1 1 1 1 1 1 1 1 0 1 1 1 @8 CUBIT_ID 7 #
point $-1 -1 -1 $-1 6.4613350000000001 0 -500000 #
simple-snl-attrib $-1 -1 $423 $336 $194 1 1 1 1 1 1 1 1 1 1 1 1 0 1 0 1 1 1 @17 NEW_SIMPLE_ATTRIB 1 @9 ENTITY_ID 3 -1.6988049999999992 2.9424165721520463 500000 3 2 805711896 0 #
simple-snl-attrib $-1 -1 $424 $337 $267 1 1 1 1 1 1 1 1 1 1 1 1 0 1 0 1 1 1 @17 NEW_SIMPLE_ATTRIB 1 @9 UNIQUE_ID 1 0 1 805711896 #
simple-snl-attrib $-1 -1 $-1 $339 $135 1 1 1 1 1 1 1 1 1 1 1 1 0 1 0 1 1 1 @17 NEW_SIMPLE_ATTRIB 1 @13 MERGE_PARTNER 0 4 122102954 1 35 0 #
simple-snl-attrib $-1 -1 $425 $340 $196 1 1 1 1 1 1 1 1 1 1 1 1 0 1 0 1 1 1 @17 NEW_SIMPLE_ATTRIB 1 @9 ENTITY_ID 0 3 1 -2147483648 -1 #
simple-snl-attrib $-1 -1 $-1 $342 $140 1 1 1 1 1 1 1 1 1 1 1 1 0 1 0 1 1 1 @17 NEW_SIMPLE_ATTRIB 3 @13 MESH_INTERVAL @4 LIMP @4 LIMP 2 1 0 5 1 0 0 1 1 #
simple-snl-attrib $-1 -1 $426 $343 $202 1 1 1 1 1 1 1 1 1 1 1 1 0 1 0 1 1 1 @17 NEW_SIMPLE_ATTRIB 7 @16 GRAPHICS_OPTIONS @14 geometry color @10 mesh color @19 geometry visibility @15 mesh visibility @11 render mode @11 transparent 0 6 -1 -1 0 0 0 0 #
simple-snl-attrib $-1 -1 $427 $344 $278 1 1 1 1 1 1 1 1 1 1 1 1 0 1 0 1 1 1 @17 NEW_SIMPLE_ATTRIB 1 @9 ENTITY_ID 0 3 31 -2147483648 -1 #
simple-snl-attrib $-1 -1 $-1 $346 $208 1 1 1 1 1 1 1 1 1 1 1 1 0 1 0 1 1 1 @17 NEW_SIMPLE_ATTRIB 7 @16 GRAPHICS_OPTIONS @14 geometry color @10 mesh color @19 geometry visibility @15 mesh visibility @11 render mode @11 transparent 0 6 -1 -1 0 0 0 0 #
simple-snl-attrib $-1 -1 $428 $347 $280 1 1 1 1 1 1 1 1 1 1 1 1 0 1 0 1 1 1 @17 NEW_SIMPLE_ATTRIB 1 @9 ENTITY_ID 0 3 23 -2147483648 -1 #
simple-snl-attrib $-1 -1 $429 $349 $282 1 1 1 1 1 1 1 1 1 1 1 1 0 1 0 1 1 1 @17 NEW_SIMPLE_ATTRIB 1 @9 ENTITY_ID 0 3 27 -2147483648 -1 #
simple-snl-attrib $-1 -1 $-1 $351 $210 1 1 1 1 1 1 1 1 1 1 1 1 0 1 0 1 1 1 @17 NEW_SIMPLE_ATTRIB 7 @16 GRAPHICS_OPTIONS @14 geometry color @10 mesh color @19 geometry visibility @15 mesh visibility @11 render mode @11 transparent 0 6 -1 -1 0 0 0 0 #
simple-snl-attrib $-1 -1 $-1 $352 $212 1 1 1 1 1 1 1 1 1 1 1 1 0 1 0 1 1 1 @17 NEW_SIMPLE_ATTRIB 7 @16 GRAPHICS_OPTIONS @14 geometry color @10 mesh color @19 geometry visibility @15 mesh visibility @11 render mode @11 transparent 0 6 -1 -1 0 0 0 0 #
simple-snl-attrib $-1 -1 $430 $353 $286 1 1 1 1 1 1 1 1 1 1 1 1 0 1 0 1 1 1 @17 NEW_SIMPLE_ATTRIB 1 @9 ENTITY_ID 0 3 24 -2147483648 -1 #
simple-snl-attrib $-1 -1 $-1 $356 $214 1 1 1 1 1 1 1 1 1 1 1 1 0 1 0 1 1 1 @17 NEW_SIMPLE_ATTRIB 7 @16 GRAPHICS_OPTIONS @14 geometry color @10 mesh color @19 geometry visibility @15 mesh visibility @11 render mode @11 transparent 0 6 -1 -1 0 0 0 0 #
simple-snl-attrib $-1 -1 $-1 $357 $215 1 1 1 1 1 1 1 1 1 1 1 1 0 1 0 1 1 1 @17 NEW_SIMPLE_ATTRIB 7 @16 GRAPHICS_OPTIONS @14 geometry color @10 mesh color @19 geometry visibility @15 mesh visibility @11 render mode @11 transparent 0 6 -1 -1 0 0 0 0 #
simple-snl-attrib $-1 -1 $-1 $358 $218 1 1 1 1 1 1 1 1 1 1 1 1 0 1 0 1 1 1 @17 NEW_SIMPLE_ATTRIB 7 @16 GRAPHICS_OPTIONS @14 geometry color @10 mesh color @19 geometry visibility @15 mesh visibility @11 render mode @11 transparent 0 6 -1 -1 0 0 0 0 #
simple-snl-attrib $-1 -1 $-1 $360 $222 1 1 1 1 1 1 1 1 1 1 1 1 0 1 0 1 1 1 @17 NEW_SIMPLE_ATTRIB 7 @16 GRAPHICS_OPTIONS @14 geometry color @10 mesh color @19 geometry visibility @15 mesh visibility @11 render mode @11 transparent 0 6 -1 -1 0 0 0 0 #
simple-snl-attrib $-1 -1 $-1 $362 $226 1 1 1 1 1 1 1 1 1 1 1 1 0 1 0 1 1 1 @17 NEW_SIMPLE_ATTRIB 7 @16 GRAPHICS_OPTIONS @14 geometry color @10 mesh color @19 geometry visibility @15 mesh visibility @11 render mode @11 transparent 0 6 -1 -1 0 0 0 0 #
simple-snl-attrib $-1 -1 $-1 $363 $228 1 1 1 1 1 1 1 1 1 1 1 1 0 1 0 1 1 1 @17 NEW_SIMPLE_ATTRIB 7 @16 GRAPHICS_OPTIONS @14 geometry color @10 mesh color @19 geometry visibility @15 mesh visibility @11 render mode @11 transparent 0 6 -1 -1 0 0 0 0 #
simple-snl-attrib $-1 -1 $-1 $364 $229 1 1 1 1 1 1 1 1 1 1 1 1 0 1 0 1 1 1 @17 NEW_SIMPLE_ATTRIB 7 @16 GRAPHICS_OPTIONS @14 geometry color @10 mesh color @19 geometry visibility @15 mesh visibility @11 render mode @11 transparent 0 6 -1 -1 0 0 0 0 #
simple-snl-attrib $-1 -1 $-1 $369 $164 1 1 1 1 1 1 1 1 1 1 1 1 0 1 0 1 1 1 @17 NEW_SIMPLE_ATTRIB 1 @13 MERGE_PARTNER 0 4 805711896 1 2 1 #
simple-snl-attrib $-1 -1 $-1 $372 $79 1 1 1 1 1 1 1 1 1 1 1 1 0 1 0 1 1 1 @17 NEW_SIMPLE_ATTRIB 3 @13 MESH_INTERVAL @4 LIMP @4 LIMP 2 1 0 5 1 0 0 1 1 #
simple-snl-attrib $-1 -1 $-1 $373 $175 1 1 1 1 1 1 1 1 1 1 1 1 0 1 0 1 1 1 @17 NEW_SIMPLE_ATTRIB 1 @13 MERGE_PARTNER 0 4 1094949533 1 8 1 #
simple-snl-attrib $-1 -1 $431 $374 $246 1 1 1 1 1 1 1 1 1 1 1 1 0 1 0 1 1 1 @17 NEW_SIMPLE_ATTRIB 1 @9 ENTITY_ID 0 3 8 -2147483648 -1 #
simple-snl-attrib $-1 -1 $-1 $376 $177 1 1 1 1 1 1 1 1 1 1 1 1 0 1 0 1 1 1 @17 NEW_SIMPLE_ATTRIB 1 @13 MERGE_PARTNER 0 4 1813549665 1 7 1 #
simple-snl-attrib $-1 -1 $-1 $378 $180 1 1 1 1 1 1 1 1 1 1 1 1 0 1 0 1 1 1 @17 NEW_SIMPLE_ATTRIB 1 @13 MERGE_PARTNER 0 4 805711896 1 6 0 #
simple-snl-attrib $-1 -1 $432 $382 $130 1 1 1 1 1 1 1 1 1 1 1 1 0 1 0 1 1 1 @17 NEW_SIMPLE_ATTRIB 1 @13 MERGE_PARTNER 0 4 2027449939 -1 28 0 #
simple-snl-attrib $-1 -1 $433 $383 $189 1 1 1 1 1 1 1 1 1 1 1 1 0 1 0 1 1 1 @17 NEW_SIMPLE_ATTRIB 2 @5 GROUP @12 spec.reflect 0 7 1 5 1778933150 3 0 0 0 #
simple-snl-attrib $-1 -1 $434 $384 $332 1 1 1 1 1 1 1 1 1 1 1 1 0 1 0 1 1 1 @17 NEW_SIMPLE_ATTRIB 1 @9 UNIQUE_ID 1 0 1 1094949533 #
integer_attrib-name_attrib-gen-attrib $-1 -1 $435 $-1 $385 2 1 1 1 1 1 1 1 1 1 1 1 1 1 0 1 1 1 @8 CUBIT_ID 8 #
point $-1 -1 -1 $-1 6.4613350000000001 0 500000 #
simple-snl-attrib $-1 -1 $436 $387 $265 1 1 1 1 1 1 1 1 1 1 1 1 0 1 0 1 1 1 @17 NEW_SIMPLE_ATTRIB 1 @9 ENTITY_ID 3 -3.2306674999999987 -5.5956802523615252 -500000 3 7 1813549665 0 #
simple-snl-attrib $-1 -1 $437 $388 $334 1 1 1 1 1 1 1 1 1 1 1 1 0 1 0 1 1 1 @17 NEW_SIMPLE_ATTRIB 1 @9 UNIQUE_ID 1 0 1 1813549665 #
simple-snl-attrib $-1 -1 $-1 $390 $194 1 1 1 1 1 1 1 1 1 1 1 1 0 1 0 1 1 1 @17 NEW_SIMPLE_ATTRIB 1 @13 MERGE_PARTNER 0 4 858578732 1 36 0 #
simple-snl-attrib $-1 -1 $438 $391 $267 1 1 1 1 1 1 1 1 1 1 1 1 0 1 0 1 1 1 @17 NEW_SIMPLE_ATTRIB 1 @9 ENTITY_ID 0 3 2 -2147483648 -1 #
simple-snl-attrib $-1 -1 $-1 $393 $196 1 1 1 1 1 1 1 1 1 1 1 1 0 1 0 1 1 1 @17 NEW_SIMPLE_ATTRIB 1 @13 MERGE_PARTNER 0 4 637775342 1 27 0 #
simple-snl-attrib $-1 -1 $-1 $395 $202 1 1 1 1 1 1 1 1 1 1 1 1 0 1 0 1 1 1 @17 NEW_SIMPLE_ATTRIB 3 @13 MESH_INTERVAL @4 LIMP @4 LIMP 2 1 0 5 1 0 0 1 1 #
simple-snl-attrib $-1 -1 $-1 $396 $278 1 1 1 1 1 1 1 1 1 1 1 1 0 1 0 1 1 1 @17 NEW_SIMPLE_ATTRIB 7 @16 GRAPHICS_OPTIONS @14 geometry color @10 mesh color @19 geometry visibility @15 mesh visibility @11 render mode @11 transparent 0 6 -1 -1 0 0 0 0 #
simple-snl-attrib $-1 -1 $-1 $398 $280 1 1 1 1 1 1 1 1 1 1 1 1 0 1 0 1 1 1 @17 NEW_SIMPLE_ATTRIB 7 @16 GRAPHICS_OPTIONS @14 geometry color @10 mesh color @19 geometry visibility @15 mesh visibility @11 render mode @11 transparent 0 6 -1 -1 0 0 0 0 #
simple-snl-attrib $-1 -1 $-1 $399 $282 1 1 1 1 1 1 1 1 1 1 1 1 0 1 0 1 1 1 @17 NEW_SIMPLE_ATTRIB 7 @16 GRAPHICS_OPTIONS @14 geometry color @10 mesh color @19 geometry visibility @15 mesh visibility @11 render mode @11 transparent 0 6 -1 -1 0 0 0 0 #
simple-snl-attrib $-1 -1 $-1 $402 $286 1 1 1 1 1 1 1 1 1 1 1 1 0 1 0 1 1 1 @17 NEW_SIMPLE_ATTRIB 7 @16 GRAPHICS_OPTIONS @14 geometry color @10 mesh color @19 geometry visibility @15 mesh visibility @11 render mode @11 transparent 0 6 -1 -1 0 0 0 0 #
simple-snl-attrib $-1 -1 $-1 $413 $246 1 1 1 1 1 1 1 1 1 1 1 1 0 1 0 1 1 1 @17 NEW_SIMPLE_ATTRIB 1 @13 MERGE_PARTNER 0 4 927060442 1 8 1 #
simple-snl-attrib $-1 -1 $-1 $416 $130 1 1 1 1 1 1 1 1 1 1 1 1 0 1 0 1 1 1 @17 NEW_SIMPLE_ATTRIB 3 @13 MESH_INTERVAL @4 LIMP @4 LIMP 2 1 0 5 1 0 0 1 1 #
simple-snl-attrib $-1 -1 $439 $417 $189 1 1 1 1 1 1 1 1 1 1 1 1 0 1 0 1 1 1 @17 NEW_SIMPLE_ATTRIB 1 @13 MERGE_PARTNER 0 4 740954166 -1 29 0 #
simple-snl-attrib $-1 -1 $440 $418 $332 1 1 1 1 1 1 1 1 1 1 1 1 0 1 0 1 1 1 @17 NEW_SIMPLE_ATTRIB 1 @9 ENTITY_ID 3 -3.2306674999999987 5.5956802523615252 500000 3 8 927060442 0 #
simple-snl-attrib $-1 -1 $441 $419 $385 1 1 1 1 1 1 1 1 1 1 1 1 0 1 0 1 1 1 @17 NEW_SIMPLE_ATTRIB 1 @9 UNIQUE_ID 1 0 1 927060442 #
simple-snl-attrib $-1 -1 $-1 $421 $265 1 1 1 1 1 1 1 1 1 1 1 1 0 1 0 1 1 1 @17 NEW_SIMPLE_ATTRIB 1 @13 MERGE_PARTNER 0 4 648902875 1 33 0 #
simple-snl-attrib $-1 -1 $442 $422 $334 1 1 1 1 1 1 1 1 1 1 1 1 0 1 0 1 1 1 @17 NEW_SIMPLE_ATTRIB 1 @9 ENTITY_ID 0 3 7 -2147483648 -1 #
simple-snl-attrib $-1 -1 $-1 $424 $267 1 1 1 1 1 1 1 1 1 1 1 1 0 1 0 1 1 1 @17 NEW_SIMPLE_ATTRIB 1 @13 MERGE_PARTNER 0 4 805711896 1 28 0 #
simple-snl-attrib $-1 -1 $-1 $433 $189 1 1 1 1 1 1 1 1 1 1 1 1 0 1 0 1 1 1 @17 NEW_SIMPLE_ATTRIB 3 @13 MESH_INTERVAL @4 LIMP @4 LIMP 2 1 0 5 1 0 0 1 1 #
simple-snl-attrib $-1 -1 $-1 $434 $332 1 1 1 1 1 1 1 1 1 1 1 1 0 1 0 1 1 1 @17 NEW_SIMPLE_ATTRIB 1 @13 MERGE_PARTNER 0 4 1094949533 1 34 0 #
simple-snl-attrib $-1 -1 $443 $435 $385 1 1 1 1 1 1 1 1 1 1 1 1 0 1 0 1 1 1 @17 NEW_SIMPLE_ATTRIB 1 @9 ENTITY_ID 0 3 8 -2147483648 -1 #
simple-snl-attrib $-1 -1 $-1 $437 $334 1 1 1 1 1 1 1 1 1 1 1 1 0 1 0 1 1 1 @17 NEW_SIMPLE_ATTRIB 1 @13 MERGE_PARTNER 0 4 1813549665 1 25 0 #
simple-snl-attrib $-1 -1 $-1 $441 $385 1 1 1 1 1 1 1 1 1 1 1 1 0 1 0 1 1 1 @17 NEW_SIMPLE_ATTRIB 1 @13 MERGE_PARTNER 0 4 927060442 1 26 0 #
End-of-ACIS-data 